%TF.GenerationSoftware,KiCad,Pcbnew,8.0.5*%
%TF.CreationDate,2025-01-12T16:45:05+07:00*%
%TF.ProjectId,ESP32-MODBUS-RS485-SHIELD,45535033-322d-44d4-9f44-4255532d5253,rev?*%
%TF.SameCoordinates,Original*%
%TF.FileFunction,Legend,Top*%
%TF.FilePolarity,Positive*%
%FSLAX46Y46*%
G04 Gerber Fmt 4.6, Leading zero omitted, Abs format (unit mm)*
G04 Created by KiCad (PCBNEW 8.0.5) date 2025-01-12 16:45:05*
%MOMM*%
%LPD*%
G01*
G04 APERTURE LIST*
G04 Aperture macros list*
%AMRoundRect*
0 Rectangle with rounded corners*
0 $1 Rounding radius*
0 $2 $3 $4 $5 $6 $7 $8 $9 X,Y pos of 4 corners*
0 Add a 4 corners polygon primitive as box body*
4,1,4,$2,$3,$4,$5,$6,$7,$8,$9,$2,$3,0*
0 Add four circle primitives for the rounded corners*
1,1,$1+$1,$2,$3*
1,1,$1+$1,$4,$5*
1,1,$1+$1,$6,$7*
1,1,$1+$1,$8,$9*
0 Add four rect primitives between the rounded corners*
20,1,$1+$1,$2,$3,$4,$5,0*
20,1,$1+$1,$4,$5,$6,$7,0*
20,1,$1+$1,$6,$7,$8,$9,0*
20,1,$1+$1,$8,$9,$2,$3,0*%
G04 Aperture macros list end*
%ADD10C,0.150000*%
%ADD11C,0.300000*%
%ADD12C,0.152400*%
%ADD13C,0.120000*%
%ADD14C,0.200000*%
%ADD15C,0.100000*%
%ADD16C,0.203200*%
%ADD17RoundRect,0.200000X0.200000X0.275000X-0.200000X0.275000X-0.200000X-0.275000X0.200000X-0.275000X0*%
%ADD18RoundRect,0.250000X0.375000X0.625000X-0.375000X0.625000X-0.375000X-0.625000X0.375000X-0.625000X0*%
%ADD19RoundRect,0.200000X0.275000X-0.200000X0.275000X0.200000X-0.275000X0.200000X-0.275000X-0.200000X0*%
%ADD20RoundRect,0.250000X0.412500X0.925000X-0.412500X0.925000X-0.412500X-0.925000X0.412500X-0.925000X0*%
%ADD21RoundRect,0.250000X1.550000X-0.650000X1.550000X0.650000X-1.550000X0.650000X-1.550000X-0.650000X0*%
%ADD22O,3.600000X1.800000*%
%ADD23R,1.700000X1.700000*%
%ADD24O,1.700000X1.700000*%
%ADD25RoundRect,0.150000X-0.587500X-0.150000X0.587500X-0.150000X0.587500X0.150000X-0.587500X0.150000X0*%
%ADD26RoundRect,0.218750X0.218750X0.256250X-0.218750X0.256250X-0.218750X-0.256250X0.218750X-0.256250X0*%
%ADD27RoundRect,0.250000X-0.312500X-1.450000X0.312500X-1.450000X0.312500X1.450000X-0.312500X1.450000X0*%
%ADD28R,2.500000X1.800000*%
%ADD29RoundRect,0.225000X0.225000X0.250000X-0.225000X0.250000X-0.225000X-0.250000X0.225000X-0.250000X0*%
%ADD30R,2.200000X0.600000*%
%ADD31O,2.200000X0.600000*%
G04 APERTURE END LIST*
D10*
X160770112Y-90617759D02*
X160912969Y-90665378D01*
X160912969Y-90665378D02*
X160960588Y-90712997D01*
X160960588Y-90712997D02*
X161008207Y-90808235D01*
X161008207Y-90808235D02*
X161008207Y-90951092D01*
X161008207Y-90951092D02*
X160960588Y-91046330D01*
X160960588Y-91046330D02*
X160912969Y-91093950D01*
X160912969Y-91093950D02*
X160817731Y-91141569D01*
X160817731Y-91141569D02*
X160436779Y-91141569D01*
X160436779Y-91141569D02*
X160436779Y-90141569D01*
X160436779Y-90141569D02*
X160770112Y-90141569D01*
X160770112Y-90141569D02*
X160865350Y-90189188D01*
X160865350Y-90189188D02*
X160912969Y-90236807D01*
X160912969Y-90236807D02*
X160960588Y-90332045D01*
X160960588Y-90332045D02*
X160960588Y-90427283D01*
X160960588Y-90427283D02*
X160912969Y-90522521D01*
X160912969Y-90522521D02*
X160865350Y-90570140D01*
X160865350Y-90570140D02*
X160770112Y-90617759D01*
X160770112Y-90617759D02*
X160436779Y-90617759D01*
X168743922Y-103519819D02*
X169315350Y-103519819D01*
X169029636Y-104519819D02*
X169029636Y-103519819D01*
X169553446Y-103519819D02*
X170220112Y-104519819D01*
X170220112Y-103519819D02*
X169553446Y-104519819D01*
X146419819Y-84456077D02*
X146419819Y-83884649D01*
X147419819Y-84170363D02*
X146419819Y-84170363D01*
X146419819Y-83646553D02*
X147419819Y-82979887D01*
X146419819Y-82979887D02*
X147419819Y-83646553D01*
X150019819Y-83891792D02*
X149543628Y-84225125D01*
X150019819Y-84463220D02*
X149019819Y-84463220D01*
X149019819Y-84463220D02*
X149019819Y-84082268D01*
X149019819Y-84082268D02*
X149067438Y-83987030D01*
X149067438Y-83987030D02*
X149115057Y-83939411D01*
X149115057Y-83939411D02*
X149210295Y-83891792D01*
X149210295Y-83891792D02*
X149353152Y-83891792D01*
X149353152Y-83891792D02*
X149448390Y-83939411D01*
X149448390Y-83939411D02*
X149496009Y-83987030D01*
X149496009Y-83987030D02*
X149543628Y-84082268D01*
X149543628Y-84082268D02*
X149543628Y-84463220D01*
X149019819Y-83558458D02*
X150019819Y-82891792D01*
X149019819Y-82891792D02*
X150019819Y-83558458D01*
X158317731Y-94524580D02*
X158270112Y-94572200D01*
X158270112Y-94572200D02*
X158127255Y-94619819D01*
X158127255Y-94619819D02*
X158032017Y-94619819D01*
X158032017Y-94619819D02*
X157889160Y-94572200D01*
X157889160Y-94572200D02*
X157793922Y-94476961D01*
X157793922Y-94476961D02*
X157746303Y-94381723D01*
X157746303Y-94381723D02*
X157698684Y-94191247D01*
X157698684Y-94191247D02*
X157698684Y-94048390D01*
X157698684Y-94048390D02*
X157746303Y-93857914D01*
X157746303Y-93857914D02*
X157793922Y-93762676D01*
X157793922Y-93762676D02*
X157889160Y-93667438D01*
X157889160Y-93667438D02*
X158032017Y-93619819D01*
X158032017Y-93619819D02*
X158127255Y-93619819D01*
X158127255Y-93619819D02*
X158270112Y-93667438D01*
X158270112Y-93667438D02*
X158317731Y-93715057D01*
X158936779Y-93619819D02*
X159127255Y-93619819D01*
X159127255Y-93619819D02*
X159222493Y-93667438D01*
X159222493Y-93667438D02*
X159317731Y-93762676D01*
X159317731Y-93762676D02*
X159365350Y-93953152D01*
X159365350Y-93953152D02*
X159365350Y-94286485D01*
X159365350Y-94286485D02*
X159317731Y-94476961D01*
X159317731Y-94476961D02*
X159222493Y-94572200D01*
X159222493Y-94572200D02*
X159127255Y-94619819D01*
X159127255Y-94619819D02*
X158936779Y-94619819D01*
X158936779Y-94619819D02*
X158841541Y-94572200D01*
X158841541Y-94572200D02*
X158746303Y-94476961D01*
X158746303Y-94476961D02*
X158698684Y-94286485D01*
X158698684Y-94286485D02*
X158698684Y-93953152D01*
X158698684Y-93953152D02*
X158746303Y-93762676D01*
X158746303Y-93762676D02*
X158841541Y-93667438D01*
X158841541Y-93667438D02*
X158936779Y-93619819D01*
X159793922Y-94619819D02*
X159793922Y-93619819D01*
X159793922Y-93619819D02*
X160127255Y-94334104D01*
X160127255Y-94334104D02*
X160460588Y-93619819D01*
X160460588Y-93619819D02*
X160460588Y-94619819D01*
X139969819Y-105113220D02*
X138969819Y-105113220D01*
X138969819Y-105113220D02*
X138969819Y-104875125D01*
X138969819Y-104875125D02*
X139017438Y-104732268D01*
X139017438Y-104732268D02*
X139112676Y-104637030D01*
X139112676Y-104637030D02*
X139207914Y-104589411D01*
X139207914Y-104589411D02*
X139398390Y-104541792D01*
X139398390Y-104541792D02*
X139541247Y-104541792D01*
X139541247Y-104541792D02*
X139731723Y-104589411D01*
X139731723Y-104589411D02*
X139826961Y-104637030D01*
X139826961Y-104637030D02*
X139922200Y-104732268D01*
X139922200Y-104732268D02*
X139969819Y-104875125D01*
X139969819Y-104875125D02*
X139969819Y-105113220D01*
X139446009Y-104113220D02*
X139446009Y-103779887D01*
X139969819Y-103637030D02*
X139969819Y-104113220D01*
X139969819Y-104113220D02*
X138969819Y-104113220D01*
X138969819Y-104113220D02*
X138969819Y-103637030D01*
D11*
X119709523Y-97035282D02*
X120276190Y-97035282D01*
X120519047Y-97820996D02*
X119709523Y-97820996D01*
X119709523Y-97820996D02*
X119709523Y-96320996D01*
X119709523Y-96320996D02*
X120519047Y-96320996D01*
X121166666Y-97749568D02*
X121409523Y-97820996D01*
X121409523Y-97820996D02*
X121814285Y-97820996D01*
X121814285Y-97820996D02*
X121976190Y-97749568D01*
X121976190Y-97749568D02*
X122057142Y-97678139D01*
X122057142Y-97678139D02*
X122138095Y-97535282D01*
X122138095Y-97535282D02*
X122138095Y-97392425D01*
X122138095Y-97392425D02*
X122057142Y-97249568D01*
X122057142Y-97249568D02*
X121976190Y-97178139D01*
X121976190Y-97178139D02*
X121814285Y-97106710D01*
X121814285Y-97106710D02*
X121490476Y-97035282D01*
X121490476Y-97035282D02*
X121328571Y-96963853D01*
X121328571Y-96963853D02*
X121247618Y-96892425D01*
X121247618Y-96892425D02*
X121166666Y-96749568D01*
X121166666Y-96749568D02*
X121166666Y-96606710D01*
X121166666Y-96606710D02*
X121247618Y-96463853D01*
X121247618Y-96463853D02*
X121328571Y-96392425D01*
X121328571Y-96392425D02*
X121490476Y-96320996D01*
X121490476Y-96320996D02*
X121895237Y-96320996D01*
X121895237Y-96320996D02*
X122138095Y-96392425D01*
X122866666Y-97820996D02*
X122866666Y-96320996D01*
X122866666Y-96320996D02*
X123514285Y-96320996D01*
X123514285Y-96320996D02*
X123676190Y-96392425D01*
X123676190Y-96392425D02*
X123757143Y-96463853D01*
X123757143Y-96463853D02*
X123838095Y-96606710D01*
X123838095Y-96606710D02*
X123838095Y-96820996D01*
X123838095Y-96820996D02*
X123757143Y-96963853D01*
X123757143Y-96963853D02*
X123676190Y-97035282D01*
X123676190Y-97035282D02*
X123514285Y-97106710D01*
X123514285Y-97106710D02*
X122866666Y-97106710D01*
X124404762Y-96320996D02*
X125457143Y-96320996D01*
X125457143Y-96320996D02*
X124890476Y-96892425D01*
X124890476Y-96892425D02*
X125133333Y-96892425D01*
X125133333Y-96892425D02*
X125295238Y-96963853D01*
X125295238Y-96963853D02*
X125376190Y-97035282D01*
X125376190Y-97035282D02*
X125457143Y-97178139D01*
X125457143Y-97178139D02*
X125457143Y-97535282D01*
X125457143Y-97535282D02*
X125376190Y-97678139D01*
X125376190Y-97678139D02*
X125295238Y-97749568D01*
X125295238Y-97749568D02*
X125133333Y-97820996D01*
X125133333Y-97820996D02*
X124647619Y-97820996D01*
X124647619Y-97820996D02*
X124485714Y-97749568D01*
X124485714Y-97749568D02*
X124404762Y-97678139D01*
X126104762Y-96463853D02*
X126185714Y-96392425D01*
X126185714Y-96392425D02*
X126347619Y-96320996D01*
X126347619Y-96320996D02*
X126752381Y-96320996D01*
X126752381Y-96320996D02*
X126914286Y-96392425D01*
X126914286Y-96392425D02*
X126995238Y-96463853D01*
X126995238Y-96463853D02*
X127076191Y-96606710D01*
X127076191Y-96606710D02*
X127076191Y-96749568D01*
X127076191Y-96749568D02*
X126995238Y-96963853D01*
X126995238Y-96963853D02*
X126023810Y-97820996D01*
X126023810Y-97820996D02*
X127076191Y-97820996D01*
X119142857Y-100235912D02*
X119142857Y-98735912D01*
X119142857Y-98735912D02*
X119709524Y-99807341D01*
X119709524Y-99807341D02*
X120276191Y-98735912D01*
X120276191Y-98735912D02*
X120276191Y-100235912D01*
X121409524Y-98735912D02*
X121733333Y-98735912D01*
X121733333Y-98735912D02*
X121895238Y-98807341D01*
X121895238Y-98807341D02*
X122057143Y-98950198D01*
X122057143Y-98950198D02*
X122138095Y-99235912D01*
X122138095Y-99235912D02*
X122138095Y-99735912D01*
X122138095Y-99735912D02*
X122057143Y-100021626D01*
X122057143Y-100021626D02*
X121895238Y-100164484D01*
X121895238Y-100164484D02*
X121733333Y-100235912D01*
X121733333Y-100235912D02*
X121409524Y-100235912D01*
X121409524Y-100235912D02*
X121247619Y-100164484D01*
X121247619Y-100164484D02*
X121085714Y-100021626D01*
X121085714Y-100021626D02*
X121004762Y-99735912D01*
X121004762Y-99735912D02*
X121004762Y-99235912D01*
X121004762Y-99235912D02*
X121085714Y-98950198D01*
X121085714Y-98950198D02*
X121247619Y-98807341D01*
X121247619Y-98807341D02*
X121409524Y-98735912D01*
X122866666Y-100235912D02*
X122866666Y-98735912D01*
X122866666Y-98735912D02*
X123271428Y-98735912D01*
X123271428Y-98735912D02*
X123514285Y-98807341D01*
X123514285Y-98807341D02*
X123676190Y-98950198D01*
X123676190Y-98950198D02*
X123757143Y-99093055D01*
X123757143Y-99093055D02*
X123838095Y-99378769D01*
X123838095Y-99378769D02*
X123838095Y-99593055D01*
X123838095Y-99593055D02*
X123757143Y-99878769D01*
X123757143Y-99878769D02*
X123676190Y-100021626D01*
X123676190Y-100021626D02*
X123514285Y-100164484D01*
X123514285Y-100164484D02*
X123271428Y-100235912D01*
X123271428Y-100235912D02*
X122866666Y-100235912D01*
X125133333Y-99450198D02*
X125376190Y-99521626D01*
X125376190Y-99521626D02*
X125457143Y-99593055D01*
X125457143Y-99593055D02*
X125538095Y-99735912D01*
X125538095Y-99735912D02*
X125538095Y-99950198D01*
X125538095Y-99950198D02*
X125457143Y-100093055D01*
X125457143Y-100093055D02*
X125376190Y-100164484D01*
X125376190Y-100164484D02*
X125214285Y-100235912D01*
X125214285Y-100235912D02*
X124566666Y-100235912D01*
X124566666Y-100235912D02*
X124566666Y-98735912D01*
X124566666Y-98735912D02*
X125133333Y-98735912D01*
X125133333Y-98735912D02*
X125295238Y-98807341D01*
X125295238Y-98807341D02*
X125376190Y-98878769D01*
X125376190Y-98878769D02*
X125457143Y-99021626D01*
X125457143Y-99021626D02*
X125457143Y-99164484D01*
X125457143Y-99164484D02*
X125376190Y-99307341D01*
X125376190Y-99307341D02*
X125295238Y-99378769D01*
X125295238Y-99378769D02*
X125133333Y-99450198D01*
X125133333Y-99450198D02*
X124566666Y-99450198D01*
X126266666Y-98735912D02*
X126266666Y-99950198D01*
X126266666Y-99950198D02*
X126347619Y-100093055D01*
X126347619Y-100093055D02*
X126428571Y-100164484D01*
X126428571Y-100164484D02*
X126590476Y-100235912D01*
X126590476Y-100235912D02*
X126914285Y-100235912D01*
X126914285Y-100235912D02*
X127076190Y-100164484D01*
X127076190Y-100164484D02*
X127157143Y-100093055D01*
X127157143Y-100093055D02*
X127238095Y-99950198D01*
X127238095Y-99950198D02*
X127238095Y-98735912D01*
X127966666Y-100164484D02*
X128209523Y-100235912D01*
X128209523Y-100235912D02*
X128614285Y-100235912D01*
X128614285Y-100235912D02*
X128776190Y-100164484D01*
X128776190Y-100164484D02*
X128857142Y-100093055D01*
X128857142Y-100093055D02*
X128938095Y-99950198D01*
X128938095Y-99950198D02*
X128938095Y-99807341D01*
X128938095Y-99807341D02*
X128857142Y-99664484D01*
X128857142Y-99664484D02*
X128776190Y-99593055D01*
X128776190Y-99593055D02*
X128614285Y-99521626D01*
X128614285Y-99521626D02*
X128290476Y-99450198D01*
X128290476Y-99450198D02*
X128128571Y-99378769D01*
X128128571Y-99378769D02*
X128047618Y-99307341D01*
X128047618Y-99307341D02*
X127966666Y-99164484D01*
X127966666Y-99164484D02*
X127966666Y-99021626D01*
X127966666Y-99021626D02*
X128047618Y-98878769D01*
X128047618Y-98878769D02*
X128128571Y-98807341D01*
X128128571Y-98807341D02*
X128290476Y-98735912D01*
X128290476Y-98735912D02*
X128695237Y-98735912D01*
X128695237Y-98735912D02*
X128938095Y-98807341D01*
X121288094Y-102650828D02*
X120721427Y-101936542D01*
X120316665Y-102650828D02*
X120316665Y-101150828D01*
X120316665Y-101150828D02*
X120964284Y-101150828D01*
X120964284Y-101150828D02*
X121126189Y-101222257D01*
X121126189Y-101222257D02*
X121207142Y-101293685D01*
X121207142Y-101293685D02*
X121288094Y-101436542D01*
X121288094Y-101436542D02*
X121288094Y-101650828D01*
X121288094Y-101650828D02*
X121207142Y-101793685D01*
X121207142Y-101793685D02*
X121126189Y-101865114D01*
X121126189Y-101865114D02*
X120964284Y-101936542D01*
X120964284Y-101936542D02*
X120316665Y-101936542D01*
X121935713Y-102579400D02*
X122178570Y-102650828D01*
X122178570Y-102650828D02*
X122583332Y-102650828D01*
X122583332Y-102650828D02*
X122745237Y-102579400D01*
X122745237Y-102579400D02*
X122826189Y-102507971D01*
X122826189Y-102507971D02*
X122907142Y-102365114D01*
X122907142Y-102365114D02*
X122907142Y-102222257D01*
X122907142Y-102222257D02*
X122826189Y-102079400D01*
X122826189Y-102079400D02*
X122745237Y-102007971D01*
X122745237Y-102007971D02*
X122583332Y-101936542D01*
X122583332Y-101936542D02*
X122259523Y-101865114D01*
X122259523Y-101865114D02*
X122097618Y-101793685D01*
X122097618Y-101793685D02*
X122016665Y-101722257D01*
X122016665Y-101722257D02*
X121935713Y-101579400D01*
X121935713Y-101579400D02*
X121935713Y-101436542D01*
X121935713Y-101436542D02*
X122016665Y-101293685D01*
X122016665Y-101293685D02*
X122097618Y-101222257D01*
X122097618Y-101222257D02*
X122259523Y-101150828D01*
X122259523Y-101150828D02*
X122664284Y-101150828D01*
X122664284Y-101150828D02*
X122907142Y-101222257D01*
X124364285Y-101650828D02*
X124364285Y-102650828D01*
X123959523Y-101079400D02*
X123554761Y-102150828D01*
X123554761Y-102150828D02*
X124607142Y-102150828D01*
X125497619Y-101793685D02*
X125335714Y-101722257D01*
X125335714Y-101722257D02*
X125254761Y-101650828D01*
X125254761Y-101650828D02*
X125173809Y-101507971D01*
X125173809Y-101507971D02*
X125173809Y-101436542D01*
X125173809Y-101436542D02*
X125254761Y-101293685D01*
X125254761Y-101293685D02*
X125335714Y-101222257D01*
X125335714Y-101222257D02*
X125497619Y-101150828D01*
X125497619Y-101150828D02*
X125821428Y-101150828D01*
X125821428Y-101150828D02*
X125983333Y-101222257D01*
X125983333Y-101222257D02*
X126064285Y-101293685D01*
X126064285Y-101293685D02*
X126145238Y-101436542D01*
X126145238Y-101436542D02*
X126145238Y-101507971D01*
X126145238Y-101507971D02*
X126064285Y-101650828D01*
X126064285Y-101650828D02*
X125983333Y-101722257D01*
X125983333Y-101722257D02*
X125821428Y-101793685D01*
X125821428Y-101793685D02*
X125497619Y-101793685D01*
X125497619Y-101793685D02*
X125335714Y-101865114D01*
X125335714Y-101865114D02*
X125254761Y-101936542D01*
X125254761Y-101936542D02*
X125173809Y-102079400D01*
X125173809Y-102079400D02*
X125173809Y-102365114D01*
X125173809Y-102365114D02*
X125254761Y-102507971D01*
X125254761Y-102507971D02*
X125335714Y-102579400D01*
X125335714Y-102579400D02*
X125497619Y-102650828D01*
X125497619Y-102650828D02*
X125821428Y-102650828D01*
X125821428Y-102650828D02*
X125983333Y-102579400D01*
X125983333Y-102579400D02*
X126064285Y-102507971D01*
X126064285Y-102507971D02*
X126145238Y-102365114D01*
X126145238Y-102365114D02*
X126145238Y-102079400D01*
X126145238Y-102079400D02*
X126064285Y-101936542D01*
X126064285Y-101936542D02*
X125983333Y-101865114D01*
X125983333Y-101865114D02*
X125821428Y-101793685D01*
X127683333Y-101150828D02*
X126873809Y-101150828D01*
X126873809Y-101150828D02*
X126792857Y-101865114D01*
X126792857Y-101865114D02*
X126873809Y-101793685D01*
X126873809Y-101793685D02*
X127035714Y-101722257D01*
X127035714Y-101722257D02*
X127440476Y-101722257D01*
X127440476Y-101722257D02*
X127602381Y-101793685D01*
X127602381Y-101793685D02*
X127683333Y-101865114D01*
X127683333Y-101865114D02*
X127764286Y-102007971D01*
X127764286Y-102007971D02*
X127764286Y-102365114D01*
X127764286Y-102365114D02*
X127683333Y-102507971D01*
X127683333Y-102507971D02*
X127602381Y-102579400D01*
X127602381Y-102579400D02*
X127440476Y-102650828D01*
X127440476Y-102650828D02*
X127035714Y-102650828D01*
X127035714Y-102650828D02*
X126873809Y-102579400D01*
X126873809Y-102579400D02*
X126792857Y-102507971D01*
X121157142Y-85349161D02*
X121061904Y-85444400D01*
X121061904Y-85444400D02*
X120776190Y-85539638D01*
X120776190Y-85539638D02*
X120585714Y-85539638D01*
X120585714Y-85539638D02*
X120299999Y-85444400D01*
X120299999Y-85444400D02*
X120109523Y-85253923D01*
X120109523Y-85253923D02*
X120014285Y-85063447D01*
X120014285Y-85063447D02*
X119919047Y-84682495D01*
X119919047Y-84682495D02*
X119919047Y-84396780D01*
X119919047Y-84396780D02*
X120014285Y-84015828D01*
X120014285Y-84015828D02*
X120109523Y-83825352D01*
X120109523Y-83825352D02*
X120299999Y-83634876D01*
X120299999Y-83634876D02*
X120585714Y-83539638D01*
X120585714Y-83539638D02*
X120776190Y-83539638D01*
X120776190Y-83539638D02*
X121061904Y-83634876D01*
X121061904Y-83634876D02*
X121157142Y-83730114D01*
X122395237Y-83539638D02*
X122776190Y-83539638D01*
X122776190Y-83539638D02*
X122966666Y-83634876D01*
X122966666Y-83634876D02*
X123157142Y-83825352D01*
X123157142Y-83825352D02*
X123252380Y-84206304D01*
X123252380Y-84206304D02*
X123252380Y-84872971D01*
X123252380Y-84872971D02*
X123157142Y-85253923D01*
X123157142Y-85253923D02*
X122966666Y-85444400D01*
X122966666Y-85444400D02*
X122776190Y-85539638D01*
X122776190Y-85539638D02*
X122395237Y-85539638D01*
X122395237Y-85539638D02*
X122204761Y-85444400D01*
X122204761Y-85444400D02*
X122014285Y-85253923D01*
X122014285Y-85253923D02*
X121919047Y-84872971D01*
X121919047Y-84872971D02*
X121919047Y-84206304D01*
X121919047Y-84206304D02*
X122014285Y-83825352D01*
X122014285Y-83825352D02*
X122204761Y-83634876D01*
X122204761Y-83634876D02*
X122395237Y-83539638D01*
X125252380Y-85349161D02*
X125157142Y-85444400D01*
X125157142Y-85444400D02*
X124871428Y-85539638D01*
X124871428Y-85539638D02*
X124680952Y-85539638D01*
X124680952Y-85539638D02*
X124395237Y-85444400D01*
X124395237Y-85444400D02*
X124204761Y-85253923D01*
X124204761Y-85253923D02*
X124109523Y-85063447D01*
X124109523Y-85063447D02*
X124014285Y-84682495D01*
X124014285Y-84682495D02*
X124014285Y-84396780D01*
X124014285Y-84396780D02*
X124109523Y-84015828D01*
X124109523Y-84015828D02*
X124204761Y-83825352D01*
X124204761Y-83825352D02*
X124395237Y-83634876D01*
X124395237Y-83634876D02*
X124680952Y-83539638D01*
X124680952Y-83539638D02*
X124871428Y-83539638D01*
X124871428Y-83539638D02*
X125157142Y-83634876D01*
X125157142Y-83634876D02*
X125252380Y-83730114D01*
X126490475Y-83539638D02*
X126871428Y-83539638D01*
X126871428Y-83539638D02*
X127061904Y-83634876D01*
X127061904Y-83634876D02*
X127252380Y-83825352D01*
X127252380Y-83825352D02*
X127347618Y-84206304D01*
X127347618Y-84206304D02*
X127347618Y-84872971D01*
X127347618Y-84872971D02*
X127252380Y-85253923D01*
X127252380Y-85253923D02*
X127061904Y-85444400D01*
X127061904Y-85444400D02*
X126871428Y-85539638D01*
X126871428Y-85539638D02*
X126490475Y-85539638D01*
X126490475Y-85539638D02*
X126299999Y-85444400D01*
X126299999Y-85444400D02*
X126109523Y-85253923D01*
X126109523Y-85253923D02*
X126014285Y-84872971D01*
X126014285Y-84872971D02*
X126014285Y-84206304D01*
X126014285Y-84206304D02*
X126109523Y-83825352D01*
X126109523Y-83825352D02*
X126299999Y-83634876D01*
X126299999Y-83634876D02*
X126490475Y-83539638D01*
X127919047Y-84206304D02*
X128680951Y-84206304D01*
X128204761Y-83539638D02*
X128204761Y-85253923D01*
X128204761Y-85253923D02*
X128299999Y-85444400D01*
X128299999Y-85444400D02*
X128490475Y-85539638D01*
X128490475Y-85539638D02*
X128680951Y-85539638D01*
X129347618Y-85539638D02*
X129347618Y-84206304D01*
X129347618Y-84587257D02*
X129442856Y-84396780D01*
X129442856Y-84396780D02*
X129538094Y-84301542D01*
X129538094Y-84301542D02*
X129728570Y-84206304D01*
X129728570Y-84206304D02*
X129919047Y-84206304D01*
X130871427Y-85539638D02*
X130680951Y-85444400D01*
X130680951Y-85444400D02*
X130585713Y-85349161D01*
X130585713Y-85349161D02*
X130490475Y-85158685D01*
X130490475Y-85158685D02*
X130490475Y-84587257D01*
X130490475Y-84587257D02*
X130585713Y-84396780D01*
X130585713Y-84396780D02*
X130680951Y-84301542D01*
X130680951Y-84301542D02*
X130871427Y-84206304D01*
X130871427Y-84206304D02*
X131157142Y-84206304D01*
X131157142Y-84206304D02*
X131347618Y-84301542D01*
X131347618Y-84301542D02*
X131442856Y-84396780D01*
X131442856Y-84396780D02*
X131538094Y-84587257D01*
X131538094Y-84587257D02*
X131538094Y-85158685D01*
X131538094Y-85158685D02*
X131442856Y-85349161D01*
X131442856Y-85349161D02*
X131347618Y-85444400D01*
X131347618Y-85444400D02*
X131157142Y-85539638D01*
X131157142Y-85539638D02*
X130871427Y-85539638D01*
X132395237Y-84206304D02*
X132395237Y-85539638D01*
X132395237Y-84396780D02*
X132490475Y-84301542D01*
X132490475Y-84301542D02*
X132680951Y-84206304D01*
X132680951Y-84206304D02*
X132966666Y-84206304D01*
X132966666Y-84206304D02*
X133157142Y-84301542D01*
X133157142Y-84301542D02*
X133252380Y-84492019D01*
X133252380Y-84492019D02*
X133252380Y-85539638D01*
X134966666Y-85444400D02*
X134776190Y-85539638D01*
X134776190Y-85539638D02*
X134395237Y-85539638D01*
X134395237Y-85539638D02*
X134204761Y-85444400D01*
X134204761Y-85444400D02*
X134109523Y-85253923D01*
X134109523Y-85253923D02*
X134109523Y-84492019D01*
X134109523Y-84492019D02*
X134204761Y-84301542D01*
X134204761Y-84301542D02*
X134395237Y-84206304D01*
X134395237Y-84206304D02*
X134776190Y-84206304D01*
X134776190Y-84206304D02*
X134966666Y-84301542D01*
X134966666Y-84301542D02*
X135061904Y-84492019D01*
X135061904Y-84492019D02*
X135061904Y-84682495D01*
X135061904Y-84682495D02*
X134109523Y-84872971D01*
X135728571Y-85539638D02*
X136776190Y-84206304D01*
X135728571Y-84206304D02*
X136776190Y-85539638D01*
D10*
X160460589Y-97855854D02*
X160936779Y-97855854D01*
X160365351Y-98141569D02*
X160698684Y-97141569D01*
X160698684Y-97141569D02*
X161032017Y-98141569D01*
X169458207Y-102469819D02*
X169124874Y-101993628D01*
X168886779Y-102469819D02*
X168886779Y-101469819D01*
X168886779Y-101469819D02*
X169267731Y-101469819D01*
X169267731Y-101469819D02*
X169362969Y-101517438D01*
X169362969Y-101517438D02*
X169410588Y-101565057D01*
X169410588Y-101565057D02*
X169458207Y-101660295D01*
X169458207Y-101660295D02*
X169458207Y-101803152D01*
X169458207Y-101803152D02*
X169410588Y-101898390D01*
X169410588Y-101898390D02*
X169362969Y-101946009D01*
X169362969Y-101946009D02*
X169267731Y-101993628D01*
X169267731Y-101993628D02*
X168886779Y-101993628D01*
X169791541Y-101469819D02*
X170458207Y-102469819D01*
X170458207Y-101469819D02*
X169791541Y-102469819D01*
D12*
%TO.C,R42*%
X134150000Y-92050000D02*
X136950000Y-92050000D01*
X134150000Y-93350000D02*
X134150000Y-92050000D01*
X134150000Y-93350000D02*
X136950000Y-93350000D01*
X135225000Y-92700000D02*
X135850000Y-92700000D01*
X136950000Y-93350000D02*
X136950000Y-92050000D01*
D13*
%TO.C,F3*%
X144202064Y-87610000D02*
X142997936Y-87610000D01*
X144202064Y-85790000D02*
X142997936Y-85790000D01*
D12*
%TO.C,R40*%
X134150000Y-86000000D02*
X136950000Y-86000000D01*
X134150000Y-87300000D02*
X134150000Y-86000000D01*
X134150000Y-87300000D02*
X136950000Y-87300000D01*
X135225000Y-86650000D02*
X135850000Y-86650000D01*
X136950000Y-87300000D02*
X136950000Y-86000000D01*
%TO.C,R39*%
X133300000Y-100050000D02*
X133300000Y-102850000D01*
X132000000Y-100050000D02*
X133300000Y-100050000D01*
X132000000Y-100050000D02*
X132000000Y-102850000D01*
X132650000Y-101125000D02*
X132650000Y-101750000D01*
X132000000Y-102850000D02*
X133300000Y-102850000D01*
D13*
%TO.C,C5*%
X146150000Y-88125000D02*
X141325000Y-88125000D01*
X146075000Y-91275000D02*
X146075000Y-88125000D01*
X143800000Y-90200000D02*
X143800000Y-89200000D01*
X143800000Y-89700000D02*
X144162500Y-89700000D01*
X143580000Y-89695181D02*
X143242787Y-89695181D01*
X141325000Y-91275000D02*
X146150000Y-91275000D01*
X141325000Y-91275000D02*
X141325000Y-88125000D01*
X146150000Y-91275000D02*
X146000000Y-91275000D01*
X146000000Y-88150000D01*
X146150000Y-88150000D01*
X146150000Y-91275000D01*
X143414321Y-89199996D02*
G75*
G02*
X143446525Y-90199995I-744801J-524504D01*
G01*
%TO.C,J9*%
X162357500Y-100230000D02*
X171777500Y-100230000D01*
X162357500Y-100230000D02*
X162357500Y-98720000D01*
X168467500Y-100230000D02*
X168467500Y-88110000D01*
X171777500Y-100230000D02*
X171777500Y-88110000D01*
X161067500Y-97970000D02*
X161067500Y-97370000D01*
X161667500Y-97670000D02*
X161067500Y-97970000D01*
X161067500Y-97370000D02*
X161667500Y-97670000D01*
X162357500Y-96620000D02*
X162357500Y-95220000D01*
X162357500Y-93120000D02*
X162357500Y-91720000D01*
X162357500Y-88110000D02*
X162357500Y-89620000D01*
X171777500Y-88110000D02*
X162357500Y-88110000D01*
%TO.C,J1*%
X122760000Y-108255000D02*
X168540000Y-108255000D01*
X122760000Y-108255000D02*
X122760000Y-105595000D01*
X168540000Y-108255000D02*
X168540000Y-105595000D01*
X120160000Y-106925000D02*
X120160000Y-105595000D01*
X120160000Y-105595000D02*
X121490000Y-105595000D01*
X122760000Y-105595000D02*
X168540000Y-105595000D01*
D12*
%TO.C,R41*%
X133300000Y-87850000D02*
X133300000Y-90650000D01*
X132000000Y-87850000D02*
X133300000Y-87850000D01*
X132000000Y-87850000D02*
X132000000Y-90650000D01*
X132650000Y-88925000D02*
X132650000Y-89550000D01*
X132000000Y-90650000D02*
X133300000Y-90650000D01*
D13*
%TO.C,Q19*%
X135550000Y-96860000D02*
X136200000Y-96860000D01*
D14*
X136200000Y-93850000D02*
X135350000Y-93850000D01*
X136200000Y-94500000D02*
X136200000Y-93850000D01*
X136200000Y-96850000D02*
X135350000Y-96850000D01*
X136200000Y-96850000D02*
X136200000Y-96200000D01*
D13*
%TO.C,D36*%
X168285000Y-104450000D02*
X168285000Y-103450000D01*
X168285000Y-103450000D02*
X168050000Y-103215000D01*
X168050000Y-104685000D02*
X168285000Y-104450000D01*
X168050000Y-103215000D02*
X165325000Y-103215000D01*
D15*
X167025000Y-104350000D02*
X167025000Y-103550000D01*
X167025000Y-103950000D02*
X166575000Y-104350000D01*
X167025000Y-103950000D02*
X166575000Y-103550000D01*
X166575000Y-104350000D02*
X166575000Y-103550000D01*
D13*
X165325000Y-104685000D02*
X168050000Y-104685000D01*
X165325000Y-103215000D02*
X165325000Y-104685000D01*
%TO.C,F1*%
X150130000Y-84426252D02*
X150130000Y-88160000D01*
X150130000Y-84426252D02*
X155870000Y-84426252D01*
X150130000Y-88160000D02*
X155870000Y-88160000D01*
X155870000Y-84426252D02*
X155870000Y-88160000D01*
X153020000Y-86299568D02*
G75*
G02*
X152420000Y-86299568I-300000J141089D01*
G01*
X153020000Y-86299568D02*
G75*
G02*
X153620000Y-86299568I300000J-141089D01*
G01*
%TO.C,D34*%
X156400000Y-99700000D02*
X156400000Y-96400000D01*
X156400000Y-99700000D02*
X149590000Y-99700000D01*
X156400000Y-96400000D02*
X149590000Y-96400000D01*
X153640000Y-98849080D02*
X153640000Y-97248880D01*
X153640000Y-98048980D02*
X152489380Y-98849080D01*
X153640000Y-98048980D02*
X152489380Y-97299680D01*
X152489380Y-97299680D02*
X152489380Y-98849080D01*
X149590000Y-99700000D02*
X149590000Y-96400000D01*
D12*
%TO.C,R45*%
X161700000Y-103300000D02*
X164500000Y-103300000D01*
X161700000Y-104600000D02*
X161700000Y-103300000D01*
X161700000Y-104600000D02*
X164500000Y-104600000D01*
X162775000Y-103950000D02*
X163400000Y-103950000D01*
X164500000Y-104600000D02*
X164500000Y-103300000D01*
%TO.C,R38*%
X134150000Y-98180000D02*
X136950000Y-98180000D01*
X134150000Y-99480000D02*
X134150000Y-98180000D01*
X134150000Y-99480000D02*
X136950000Y-99480000D01*
X135225000Y-98830000D02*
X135850000Y-98830000D01*
X136950000Y-99480000D02*
X136950000Y-98180000D01*
%TO.C,R47*%
X161700000Y-101250000D02*
X164500000Y-101250000D01*
X161700000Y-102550000D02*
X161700000Y-101250000D01*
X161700000Y-102550000D02*
X164500000Y-102550000D01*
X162775000Y-101900000D02*
X163400000Y-101900000D01*
X164500000Y-102550000D02*
X164500000Y-101250000D01*
%TO.C,C3*%
X144991653Y-93100000D02*
X142467500Y-93100000D01*
X144991653Y-91800000D02*
X142443347Y-91800000D01*
X143717500Y-92075000D02*
X143717500Y-92800000D01*
X144991653Y-91800000D02*
G75*
G02*
X144991653Y-93100000I-1324973J-650000D01*
G01*
X142443347Y-93100000D02*
G75*
G02*
X142443347Y-91800000I1324983J650000D01*
G01*
D13*
%TO.C,J10*%
X168005000Y-84270000D02*
X168005000Y-85600000D01*
X166675000Y-84270000D02*
X168005000Y-84270000D01*
X165405000Y-84270000D02*
X162805000Y-84270000D01*
X165405000Y-84270000D02*
X165405000Y-86930000D01*
X162805000Y-84270000D02*
X162805000Y-86930000D01*
X165405000Y-86930000D02*
X162805000Y-86930000D01*
%TO.C,D35*%
X149600000Y-88712500D02*
X149600000Y-92012500D01*
X149600000Y-88712500D02*
X156410000Y-88712500D01*
X149600000Y-92012500D02*
X156410000Y-92012500D01*
X152360000Y-89563420D02*
X152360000Y-91163620D01*
X152360000Y-90363520D02*
X153510620Y-89563420D01*
X152360000Y-90363520D02*
X153510620Y-91112820D01*
X153510620Y-91112820D02*
X153510620Y-89563420D01*
X156410000Y-88712500D02*
X156410000Y-92012500D01*
%TO.C,F2*%
X150130000Y-100076252D02*
X150130000Y-103810000D01*
X150130000Y-100076252D02*
X155870000Y-100076252D01*
X150130000Y-103810000D02*
X155870000Y-103810000D01*
X155870000Y-100076252D02*
X155870000Y-103810000D01*
X153020000Y-101949568D02*
G75*
G02*
X152420000Y-101949568I-300000J141089D01*
G01*
X153020000Y-101949568D02*
G75*
G02*
X153620000Y-101949568I300000J-141089D01*
G01*
D16*
%TO.C,U11*%
X145686000Y-94137000D02*
X144492200Y-94137000D01*
X145686000Y-94137000D02*
X145686000Y-98836000D01*
X143577800Y-94137000D02*
X142384000Y-94137000D01*
X142380950Y-94149950D02*
X142380950Y-98937600D01*
X145686000Y-98836000D02*
X145584400Y-98937600D01*
X145584400Y-98937600D02*
X142380950Y-98937600D01*
X144492910Y-94137000D02*
G75*
G02*
X143577090Y-94137000I-457910J0D01*
G01*
D12*
%TO.C,R36*%
X158550000Y-85050000D02*
X161350000Y-85050000D01*
X158550000Y-86350000D02*
X158550000Y-85050000D01*
X158550000Y-86350000D02*
X161350000Y-86350000D01*
X159625000Y-85700000D02*
X160250000Y-85700000D01*
X161350000Y-86350000D02*
X161350000Y-85050000D01*
%TO.C,R43*%
X133300000Y-93900000D02*
X133300000Y-96700000D01*
X132000000Y-93900000D02*
X133300000Y-93900000D01*
X132000000Y-93900000D02*
X132000000Y-96700000D01*
X132650000Y-94975000D02*
X132650000Y-95600000D01*
X132000000Y-96700000D02*
X133300000Y-96700000D01*
D13*
%TO.C,Q18*%
X135550000Y-90810000D02*
X136200000Y-90810000D01*
D14*
X136200000Y-87800000D02*
X135350000Y-87800000D01*
X136200000Y-88450000D02*
X136200000Y-87800000D01*
X136200000Y-90800000D02*
X135350000Y-90800000D01*
X136200000Y-90800000D02*
X136200000Y-90150000D01*
D13*
%TO.C,D33*%
X156400000Y-95875000D02*
X156400000Y-92575000D01*
X156400000Y-95875000D02*
X149590000Y-95875000D01*
X156400000Y-92575000D02*
X149590000Y-92575000D01*
X153640000Y-95024080D02*
X153640000Y-93423880D01*
X153640000Y-94223980D02*
X152489380Y-95024080D01*
X153640000Y-94223980D02*
X152489380Y-93474680D01*
X152489380Y-93474680D02*
X152489380Y-95024080D01*
X149590000Y-95875000D02*
X149590000Y-92575000D01*
%TO.C,Q17*%
X135550000Y-103010000D02*
X136200000Y-103010000D01*
D14*
X136200000Y-100000000D02*
X135350000Y-100000000D01*
X136200000Y-100650000D02*
X136200000Y-100000000D01*
X136200000Y-103000000D02*
X135350000Y-103000000D01*
X136200000Y-103000000D02*
X136200000Y-102350000D01*
D13*
%TO.C,J2*%
X122770000Y-82830000D02*
X168550000Y-82830000D01*
X122770000Y-82830000D02*
X122770000Y-80170000D01*
X168550000Y-82830000D02*
X168550000Y-80170000D01*
X120170000Y-81500000D02*
X120170000Y-80170000D01*
X120170000Y-80170000D02*
X121500000Y-80170000D01*
X122770000Y-80170000D02*
X168550000Y-80170000D01*
%TO.C,D37*%
X168285000Y-102400000D02*
X168285000Y-101400000D01*
X168285000Y-101400000D02*
X168050000Y-101165000D01*
X168050000Y-102635000D02*
X168285000Y-102400000D01*
X168050000Y-101165000D02*
X165325000Y-101165000D01*
D15*
X167025000Y-102300000D02*
X167025000Y-101500000D01*
X167025000Y-101900000D02*
X166575000Y-102300000D01*
X167025000Y-101900000D02*
X166575000Y-101500000D01*
X166575000Y-102300000D02*
X166575000Y-101500000D01*
D13*
X165325000Y-102635000D02*
X168050000Y-102635000D01*
X165325000Y-101165000D02*
X165325000Y-102635000D01*
%TD*%
%LPC*%
D17*
%TO.C,R42*%
X134725000Y-92700000D03*
X136375000Y-92700000D03*
%TD*%
D18*
%TO.C,F3*%
X145000000Y-86700000D03*
X142200000Y-86700000D03*
%TD*%
D17*
%TO.C,R40*%
X134725000Y-86650000D03*
X136375000Y-86650000D03*
%TD*%
D19*
%TO.C,R39*%
X132650000Y-100625000D03*
X132650000Y-102275000D03*
%TD*%
D20*
%TO.C,C5*%
X145237500Y-89700000D03*
X142162500Y-89700000D03*
%TD*%
D21*
%TO.C,J9*%
X163667500Y-97670000D03*
D22*
X163667500Y-94170000D03*
X163667500Y-90670000D03*
%TD*%
D23*
%TO.C,J1*%
X121490000Y-106925000D03*
D24*
X124030000Y-106925000D03*
X126570000Y-106925000D03*
X129110000Y-106925000D03*
X131650000Y-106925000D03*
X134190000Y-106925000D03*
X136730000Y-106925000D03*
X139270000Y-106925000D03*
X141810000Y-106925000D03*
X144350000Y-106925000D03*
X146890000Y-106925000D03*
X149430000Y-106925000D03*
X151970000Y-106925000D03*
X154510000Y-106925000D03*
X157050000Y-106925000D03*
X159590000Y-106925000D03*
X162130000Y-106925000D03*
X164670000Y-106925000D03*
X167210000Y-106925000D03*
%TD*%
D19*
%TO.C,R41*%
X132650000Y-88425000D03*
X132650000Y-90075000D03*
%TD*%
D25*
%TO.C,Q19*%
X134612500Y-94350000D03*
X134612500Y-96250000D03*
X136487500Y-95300000D03*
%TD*%
D26*
%TO.C,D36*%
X167587500Y-103950000D03*
X166012500Y-103950000D03*
%TD*%
D27*
%TO.C,F1*%
X150862500Y-86300000D03*
X155137500Y-86300000D03*
%TD*%
D28*
%TO.C,D34*%
X155000000Y-98050000D03*
X151000000Y-98050000D03*
%TD*%
D17*
%TO.C,R45*%
X162275000Y-103950000D03*
X163925000Y-103950000D03*
%TD*%
%TO.C,R38*%
X134725000Y-98830000D03*
X136375000Y-98830000D03*
%TD*%
%TO.C,R47*%
X162275000Y-101900000D03*
X163925000Y-101900000D03*
%TD*%
D29*
%TO.C,C3*%
X144492500Y-92450000D03*
X142942500Y-92450000D03*
%TD*%
D23*
%TO.C,J10*%
X166675000Y-85600000D03*
D24*
X164135000Y-85600000D03*
%TD*%
D28*
%TO.C,D35*%
X151000000Y-90362500D03*
X155000000Y-90362500D03*
%TD*%
D27*
%TO.C,F2*%
X150862500Y-101950000D03*
X155137500Y-101950000D03*
%TD*%
D30*
%TO.C,U11*%
X141181060Y-94645000D03*
D31*
X141181060Y-95915000D03*
X141181060Y-97185000D03*
X141181060Y-98455000D03*
X146380940Y-98455000D03*
X146380940Y-97185000D03*
X146380940Y-95915000D03*
X146380940Y-94645000D03*
%TD*%
D17*
%TO.C,R36*%
X159125000Y-85700000D03*
X160775000Y-85700000D03*
%TD*%
D19*
%TO.C,R43*%
X132650000Y-94475000D03*
X132650000Y-96125000D03*
%TD*%
D25*
%TO.C,Q18*%
X134612500Y-88300000D03*
X134612500Y-90200000D03*
X136487500Y-89250000D03*
%TD*%
D28*
%TO.C,D33*%
X155000000Y-94225000D03*
X151000000Y-94225000D03*
%TD*%
D25*
%TO.C,Q17*%
X134612500Y-100500000D03*
X134612500Y-102400000D03*
X136487500Y-101450000D03*
%TD*%
D23*
%TO.C,J2*%
X121500000Y-81500000D03*
D24*
X124040000Y-81500000D03*
X126580000Y-81500000D03*
X129120000Y-81500000D03*
X131660000Y-81500000D03*
X134200000Y-81500000D03*
X136740000Y-81500000D03*
X139280000Y-81500000D03*
X141820000Y-81500000D03*
X144360000Y-81500000D03*
X146900000Y-81500000D03*
X149440000Y-81500000D03*
X151980000Y-81500000D03*
X154520000Y-81500000D03*
X157060000Y-81500000D03*
X159600000Y-81500000D03*
X162140000Y-81500000D03*
X164680000Y-81500000D03*
X167220000Y-81500000D03*
%TD*%
D26*
%TO.C,D37*%
X167587500Y-101900000D03*
X166012500Y-101900000D03*
%TD*%
%LPD*%
M02*
