M48
; DRILL file {KiCad (6.99.0-2815-gbbc0c61ccb)} date Sun Jan 22 02:42:38 2023
; FORMAT={-:-/ absolute / metric / decimal}
; #@! TF.CreationDate,2023-01-22T02:42:38+07:00
; #@! TF.GenerationSoftware,Kicad,Pcbnew,(6.99.0-2815-gbbc0c61ccb)
; #@! TF.FileFunction,Plated,1,2,PTH
FMAT,2
METRIC
; #@! TA.AperFunction,Plated,PTH,ViaDrill
T1C0.300
; #@! TA.AperFunction,Plated,PTH,ViaDrill
T2C0.400
; #@! TA.AperFunction,Plated,PTH,ComponentDrill
T3C1.000
; #@! TA.AperFunction,Plated,PTH,ComponentDrill
T4C1.200
%
G90
G05
T1
X132.55Y-104.35
X132.65Y-97.45
X132.65Y-99.1
X132.75Y-93.0
X132.8Y-91.65
X134.1Y-86.7
X134.1Y-92.7
X134.1Y-97.65
X134.9Y-104.35
X135.35Y-97.5
X135.9Y-91.35
X136.25Y-96.5
X137.05Y-91.35
X137.6Y-102.3
X138.65Y-96.75
X138.65Y-97.8
X138.699Y-90.1
X138.9Y-102.95
X139.0Y-94.95
X139.8Y-100.35
X140.05Y-86.8
X140.9Y-92.45
X140.95Y-89.7
X141.4Y-102.95
X145.4Y-101.25
X146.7Y-92.25
X147.75Y-101.25
X147.8Y-88.9
X148.9Y-92.25
X153.0Y-100.75
X153.0Y-103.2
X153.05Y-92.25
X158.1Y-94.05
X158.3Y-102.7
X160.8Y-88.45
X160.8Y-100.4
X160.95Y-96.1
X161.5Y-89.1
X165.45Y-92.4
T2
X147.0Y-86.7
X148.05Y-86.7
T3
X121.49Y-106.925
X121.5Y-81.5
X124.03Y-106.925
X124.04Y-81.5
X126.57Y-106.925
X126.58Y-81.5
X129.11Y-106.925
X129.12Y-81.5
X131.65Y-106.925
X131.66Y-81.5
X134.19Y-106.925
X134.2Y-81.5
X136.73Y-106.925
X136.74Y-81.5
X139.27Y-106.925
X139.28Y-81.5
X141.81Y-106.925
X141.82Y-81.5
X144.35Y-106.925
X144.36Y-81.5
X146.89Y-106.925
X146.9Y-81.5
X149.43Y-106.925
X149.44Y-81.5
X151.97Y-106.925
X151.98Y-81.5
X154.51Y-106.925
X154.52Y-81.5
X157.05Y-106.925
X157.06Y-81.5
X159.59Y-106.925
X159.6Y-81.5
X162.13Y-106.925
X162.14Y-81.5
X164.135Y-85.6
X164.67Y-106.925
X164.68Y-81.5
X166.675Y-85.6
X167.21Y-106.925
X167.22Y-81.5
T4
X163.667Y-90.67
X163.667Y-94.17
X163.667Y-97.67
T0
M30
