%TF.GenerationSoftware,KiCad,Pcbnew,8.0.5*%
%TF.CreationDate,2025-01-12T16:45:05+07:00*%
%TF.ProjectId,ESP32-MODBUS-RS485-SHIELD,45535033-322d-44d4-9f44-4255532d5253,rev?*%
%TF.SameCoordinates,Original*%
%TF.FileFunction,Copper,L2,Bot*%
%TF.FilePolarity,Positive*%
%FSLAX46Y46*%
G04 Gerber Fmt 4.6, Leading zero omitted, Abs format (unit mm)*
G04 Created by KiCad (PCBNEW 8.0.5) date 2025-01-12 16:45:05*
%MOMM*%
%LPD*%
G01*
G04 APERTURE LIST*
G04 Aperture macros list*
%AMRoundRect*
0 Rectangle with rounded corners*
0 $1 Rounding radius*
0 $2 $3 $4 $5 $6 $7 $8 $9 X,Y pos of 4 corners*
0 Add a 4 corners polygon primitive as box body*
4,1,4,$2,$3,$4,$5,$6,$7,$8,$9,$2,$3,0*
0 Add four circle primitives for the rounded corners*
1,1,$1+$1,$2,$3*
1,1,$1+$1,$4,$5*
1,1,$1+$1,$6,$7*
1,1,$1+$1,$8,$9*
0 Add four rect primitives between the rounded corners*
20,1,$1+$1,$2,$3,$4,$5,0*
20,1,$1+$1,$4,$5,$6,$7,0*
20,1,$1+$1,$6,$7,$8,$9,0*
20,1,$1+$1,$8,$9,$2,$3,0*%
G04 Aperture macros list end*
%TA.AperFunction,ComponentPad*%
%ADD10RoundRect,0.250000X1.550000X-0.650000X1.550000X0.650000X-1.550000X0.650000X-1.550000X-0.650000X0*%
%TD*%
%TA.AperFunction,ComponentPad*%
%ADD11O,3.600000X1.800000*%
%TD*%
%TA.AperFunction,ComponentPad*%
%ADD12R,1.700000X1.700000*%
%TD*%
%TA.AperFunction,ComponentPad*%
%ADD13O,1.700000X1.700000*%
%TD*%
%TA.AperFunction,ViaPad*%
%ADD14C,0.600000*%
%TD*%
%TA.AperFunction,ViaPad*%
%ADD15C,0.800000*%
%TD*%
%TA.AperFunction,Conductor*%
%ADD16C,0.381000*%
%TD*%
%TA.AperFunction,Conductor*%
%ADD17C,0.203200*%
%TD*%
%TA.AperFunction,Conductor*%
%ADD18C,1.016000*%
%TD*%
G04 APERTURE END LIST*
D10*
%TO.P,J9,1,Pin_1*%
%TO.N,/A*%
X163667500Y-97670000D03*
D11*
%TO.P,J9,2,Pin_2*%
%TO.N,/RS485_COM*%
X163667500Y-94170000D03*
%TO.P,J9,3,Pin_3*%
%TO.N,/B*%
X163667500Y-90670000D03*
%TD*%
D12*
%TO.P,J1,1,Pin_1*%
%TO.N,/3V3*%
X121490000Y-106925000D03*
D13*
%TO.P,J1,2,Pin_2*%
%TO.N,/EN*%
X124030000Y-106925000D03*
%TO.P,J1,3,Pin_3*%
%TO.N,/GPIO36*%
X126570000Y-106925000D03*
%TO.P,J1,4,Pin_4*%
%TO.N,/GPIO39*%
X129110000Y-106925000D03*
%TO.P,J1,5,Pin_5*%
%TO.N,/GPIO34*%
X131650000Y-106925000D03*
%TO.P,J1,6,Pin_6*%
%TO.N,/GPIO35*%
X134190000Y-106925000D03*
%TO.P,J1,7,Pin_7*%
%TO.N,/GPIO32*%
X136730000Y-106925000D03*
%TO.P,J1,8,Pin_8*%
%TO.N,/RS485_DE*%
X139270000Y-106925000D03*
%TO.P,J1,9,Pin_9*%
%TO.N,/GPIO25*%
X141810000Y-106925000D03*
%TO.P,J1,10,Pin_10*%
%TO.N,/GPIO26*%
X144350000Y-106925000D03*
%TO.P,J1,11,Pin_11*%
%TO.N,/GPIO27*%
X146890000Y-106925000D03*
%TO.P,J1,12,Pin_12*%
%TO.N,/GPIO14*%
X149430000Y-106925000D03*
%TO.P,J1,13,Pin_13*%
%TO.N,/GPIO12*%
X151970000Y-106925000D03*
%TO.P,J1,14,Pin_14*%
%TO.N,GND*%
X154510000Y-106925000D03*
%TO.P,J1,15,Pin_15*%
%TO.N,/GPIO13*%
X157050000Y-106925000D03*
%TO.P,J1,16,Pin_16*%
%TO.N,/GPIO9*%
X159590000Y-106925000D03*
%TO.P,J1,17,Pin_17*%
%TO.N,/GPIO10*%
X162130000Y-106925000D03*
%TO.P,J1,18,Pin_18*%
%TO.N,/GPIO11*%
X164670000Y-106925000D03*
%TO.P,J1,19,Pin_19*%
%TO.N,Net-(J1-Pin_19)*%
X167210000Y-106925000D03*
%TD*%
D12*
%TO.P,J10,1,Pin_1*%
%TO.N,/A*%
X166675000Y-85600000D03*
D13*
%TO.P,J10,2,Pin_2*%
%TO.N,Net-(J10-Pin_2)*%
X164135000Y-85600000D03*
%TD*%
D12*
%TO.P,J2,1,Pin_1*%
%TO.N,GND*%
X121500000Y-81500000D03*
D13*
%TO.P,J2,2,Pin_2*%
%TO.N,/GPIO23*%
X124040000Y-81500000D03*
%TO.P,J2,3,Pin_3*%
%TO.N,/GPIO22*%
X126580000Y-81500000D03*
%TO.P,J2,4,Pin_4*%
%TO.N,/GPIO1*%
X129120000Y-81500000D03*
%TO.P,J2,5,Pin_5*%
%TO.N,/GPIO3*%
X131660000Y-81500000D03*
%TO.P,J2,6,Pin_6*%
%TO.N,/GPIO21*%
X134200000Y-81500000D03*
%TO.P,J2,7,Pin_7*%
%TO.N,GND*%
X136740000Y-81500000D03*
%TO.P,J2,8,Pin_8*%
%TO.N,/GPIO19*%
X139280000Y-81500000D03*
%TO.P,J2,9,Pin_9*%
%TO.N,/GPIO18*%
X141820000Y-81500000D03*
%TO.P,J2,10,Pin_10*%
%TO.N,/GPIO5*%
X144360000Y-81500000D03*
%TO.P,J2,11,Pin_11*%
%TO.N,/RS485_TX*%
X146900000Y-81500000D03*
%TO.P,J2,12,Pin_12*%
%TO.N,/RS485_RX*%
X149440000Y-81500000D03*
%TO.P,J2,13,Pin_13*%
%TO.N,/GPIO4*%
X151980000Y-81500000D03*
%TO.P,J2,14,Pin_14*%
%TO.N,/GPIO0*%
X154520000Y-81500000D03*
%TO.P,J2,15,Pin_15*%
%TO.N,/GPIO2*%
X157060000Y-81500000D03*
%TO.P,J2,16,Pin_16*%
%TO.N,/GPIO15*%
X159600000Y-81500000D03*
%TO.P,J2,17,Pin_17*%
%TO.N,/GPIO8*%
X162140000Y-81500000D03*
%TO.P,J2,18,Pin_18*%
%TO.N,/GPIO7*%
X164680000Y-81500000D03*
%TO.P,J2,19,Pin_19*%
%TO.N,/GPIO6*%
X167220000Y-81500000D03*
%TD*%
D14*
%TO.N,GND*%
X137050000Y-91350000D03*
X139800000Y-100350000D03*
X140950000Y-89700000D03*
X132750000Y-93000000D03*
X148900000Y-92250000D03*
X153050000Y-92250000D03*
X160800000Y-100400000D03*
X141400000Y-102950000D03*
X134900000Y-104350000D03*
X160800000Y-88450000D03*
X138900000Y-102950000D03*
X147750000Y-101250000D03*
X145400000Y-101250000D03*
X158100000Y-94050000D03*
X135900000Y-91350000D03*
X160950000Y-96100000D03*
X132800000Y-91650000D03*
X140900000Y-92450000D03*
X140050000Y-86800000D03*
X135350000Y-97500000D03*
X132650000Y-99100000D03*
X139000000Y-94950000D03*
X147800000Y-88900000D03*
X146700000Y-92250000D03*
X165450000Y-92400000D03*
X161500000Y-89100000D03*
X153000000Y-103200000D03*
X158300000Y-102700000D03*
X138650000Y-97800000D03*
X132550000Y-104350000D03*
X138650000Y-96750000D03*
X132650000Y-97450000D03*
X153000000Y-100750000D03*
%TO.N,/5V*%
X134100000Y-86700000D03*
X134100000Y-92700000D03*
X134100000Y-97650000D03*
%TO.N,/RS485_DE*%
X136250000Y-96500000D03*
%TO.N,/RS485_TX*%
X137600000Y-102300000D03*
%TO.N,/RS485_RX*%
X138698900Y-90100000D03*
D15*
%TO.N,Net-(J1-Pin_19)*%
X148050000Y-86700000D03*
X147000000Y-86700000D03*
%TD*%
D16*
%TO.N,/5V*%
X134100000Y-92700000D02*
X134100000Y-97650000D01*
X134100000Y-86700000D02*
X134100000Y-92700000D01*
D17*
%TO.N,/RS485_DE*%
X136400000Y-104055000D02*
X139270000Y-106925000D01*
X136400000Y-96650000D02*
X136400000Y-104055000D01*
X136250000Y-96500000D02*
X136400000Y-96650000D01*
%TO.N,/RS485_TX*%
X139300000Y-83250000D02*
X145150000Y-83250000D01*
X138050000Y-96499209D02*
X138050000Y-84500000D01*
X145150000Y-83250000D02*
X146900000Y-81500000D01*
X138050000Y-84500000D02*
X139300000Y-83250000D01*
X137600000Y-96949209D02*
X138050000Y-96499209D01*
X137600000Y-102300000D02*
X137600000Y-96949209D01*
%TO.N,/RS485_RX*%
X147286800Y-83653200D02*
X149440000Y-81500000D01*
X139796800Y-83653200D02*
X147286800Y-83653200D01*
X138698900Y-90100000D02*
X138698900Y-84751100D01*
X138698900Y-84751100D02*
X139796800Y-83653200D01*
D18*
%TO.N,Net-(J1-Pin_19)*%
X167210000Y-106925000D02*
X167210000Y-89060000D01*
X161150000Y-86700000D02*
X147000000Y-86700000D01*
X167210000Y-89060000D02*
X166450000Y-88300000D01*
X162750000Y-88300000D02*
X161150000Y-86700000D01*
X166450000Y-88300000D02*
X162750000Y-88300000D01*
%TD*%
%TA.AperFunction,Conductor*%
%TO.N,GND*%
G36*
X118900905Y-79502674D02*
G01*
X169848961Y-79524999D01*
X169851035Y-79525018D01*
X169984980Y-79527407D01*
X170000654Y-79528668D01*
X170266762Y-79566928D01*
X170284322Y-79570749D01*
X170541171Y-79646167D01*
X170558014Y-79652448D01*
X170686974Y-79711343D01*
X170801524Y-79763656D01*
X170817303Y-79772272D01*
X171042505Y-79917001D01*
X171056896Y-79927774D01*
X171259208Y-80103078D01*
X171271921Y-80115791D01*
X171447225Y-80318103D01*
X171457998Y-80332494D01*
X171602727Y-80557696D01*
X171611343Y-80573475D01*
X171722550Y-80816984D01*
X171728832Y-80833828D01*
X171804249Y-81090674D01*
X171808071Y-81108240D01*
X171846330Y-81374339D01*
X171847592Y-81390023D01*
X171849980Y-81523877D01*
X171850000Y-81526125D01*
X171850000Y-106923874D01*
X171849980Y-106926122D01*
X171847592Y-107059976D01*
X171846330Y-107075660D01*
X171808071Y-107341759D01*
X171804249Y-107359325D01*
X171728832Y-107616171D01*
X171722550Y-107633015D01*
X171611343Y-107876524D01*
X171602727Y-107892303D01*
X171457998Y-108117505D01*
X171447225Y-108131896D01*
X171271921Y-108334208D01*
X171259208Y-108346921D01*
X171056896Y-108522225D01*
X171042505Y-108532998D01*
X170817303Y-108677727D01*
X170801524Y-108686343D01*
X170558015Y-108797550D01*
X170541171Y-108803832D01*
X170284325Y-108879249D01*
X170266759Y-108883071D01*
X170000660Y-108921330D01*
X169984976Y-108922592D01*
X169853500Y-108924937D01*
X169851120Y-108924980D01*
X169848874Y-108925000D01*
X118851126Y-108925000D01*
X118848879Y-108924980D01*
X118846431Y-108924936D01*
X118715023Y-108922592D01*
X118699339Y-108921330D01*
X118433240Y-108883071D01*
X118415674Y-108879249D01*
X118158828Y-108803832D01*
X118141984Y-108797550D01*
X117898475Y-108686343D01*
X117882696Y-108677727D01*
X117657494Y-108532998D01*
X117643103Y-108522225D01*
X117440791Y-108346921D01*
X117428078Y-108334208D01*
X117252774Y-108131896D01*
X117242001Y-108117505D01*
X117097272Y-107892303D01*
X117088656Y-107876524D01*
X117070326Y-107836388D01*
X116977448Y-107633014D01*
X116971167Y-107616171D01*
X116960625Y-107580268D01*
X116895749Y-107359322D01*
X116891928Y-107341759D01*
X116853669Y-107075660D01*
X116852407Y-107059975D01*
X116850020Y-106926121D01*
X116850000Y-106923874D01*
X116850000Y-106026350D01*
X120131500Y-106026350D01*
X120131500Y-107823649D01*
X120138009Y-107884196D01*
X120138011Y-107884204D01*
X120189110Y-108021202D01*
X120189112Y-108021207D01*
X120276738Y-108138261D01*
X120393792Y-108225887D01*
X120393794Y-108225888D01*
X120393796Y-108225889D01*
X120447600Y-108245957D01*
X120530795Y-108276988D01*
X120530803Y-108276990D01*
X120591350Y-108283499D01*
X120591355Y-108283499D01*
X120591362Y-108283500D01*
X120591368Y-108283500D01*
X122388632Y-108283500D01*
X122388638Y-108283500D01*
X122388645Y-108283499D01*
X122388649Y-108283499D01*
X122449196Y-108276990D01*
X122449199Y-108276989D01*
X122449201Y-108276989D01*
X122586204Y-108225889D01*
X122656399Y-108173342D01*
X122703261Y-108138261D01*
X122790886Y-108021208D01*
X122790885Y-108021208D01*
X122790889Y-108021204D01*
X122834999Y-107902939D01*
X122877545Y-107846107D01*
X122944066Y-107821296D01*
X123013440Y-107836388D01*
X123045753Y-107861635D01*
X123066529Y-107884204D01*
X123106762Y-107927908D01*
X123161331Y-107970381D01*
X123284424Y-108066189D01*
X123482426Y-108173342D01*
X123482427Y-108173342D01*
X123482428Y-108173343D01*
X123594227Y-108211723D01*
X123695365Y-108246444D01*
X123917431Y-108283500D01*
X123917435Y-108283500D01*
X124142565Y-108283500D01*
X124142569Y-108283500D01*
X124364635Y-108246444D01*
X124577574Y-108173342D01*
X124775576Y-108066189D01*
X124953240Y-107927906D01*
X125105722Y-107762268D01*
X125105927Y-107761955D01*
X125111115Y-107754012D01*
X125194518Y-107626354D01*
X125248520Y-107580268D01*
X125318868Y-107570692D01*
X125383225Y-107600669D01*
X125405480Y-107626353D01*
X125409833Y-107633015D01*
X125494275Y-107762265D01*
X125494279Y-107762270D01*
X125646762Y-107927908D01*
X125701331Y-107970381D01*
X125824424Y-108066189D01*
X126022426Y-108173342D01*
X126022427Y-108173342D01*
X126022428Y-108173343D01*
X126134227Y-108211723D01*
X126235365Y-108246444D01*
X126457431Y-108283500D01*
X126457435Y-108283500D01*
X126682565Y-108283500D01*
X126682569Y-108283500D01*
X126904635Y-108246444D01*
X127117574Y-108173342D01*
X127315576Y-108066189D01*
X127493240Y-107927906D01*
X127645722Y-107762268D01*
X127645927Y-107761955D01*
X127651115Y-107754012D01*
X127734518Y-107626354D01*
X127788520Y-107580268D01*
X127858868Y-107570692D01*
X127923225Y-107600669D01*
X127945480Y-107626353D01*
X127949833Y-107633015D01*
X128034275Y-107762265D01*
X128034279Y-107762270D01*
X128186762Y-107927908D01*
X128241331Y-107970381D01*
X128364424Y-108066189D01*
X128562426Y-108173342D01*
X128562427Y-108173342D01*
X128562428Y-108173343D01*
X128674227Y-108211723D01*
X128775365Y-108246444D01*
X128997431Y-108283500D01*
X128997435Y-108283500D01*
X129222565Y-108283500D01*
X129222569Y-108283500D01*
X129444635Y-108246444D01*
X129657574Y-108173342D01*
X129855576Y-108066189D01*
X130033240Y-107927906D01*
X130185722Y-107762268D01*
X130185927Y-107761955D01*
X130191115Y-107754012D01*
X130274518Y-107626354D01*
X130328520Y-107580268D01*
X130398868Y-107570692D01*
X130463225Y-107600669D01*
X130485480Y-107626353D01*
X130489833Y-107633015D01*
X130574275Y-107762265D01*
X130574279Y-107762270D01*
X130726762Y-107927908D01*
X130781331Y-107970381D01*
X130904424Y-108066189D01*
X131102426Y-108173342D01*
X131102427Y-108173342D01*
X131102428Y-108173343D01*
X131214227Y-108211723D01*
X131315365Y-108246444D01*
X131537431Y-108283500D01*
X131537435Y-108283500D01*
X131762565Y-108283500D01*
X131762569Y-108283500D01*
X131984635Y-108246444D01*
X132197574Y-108173342D01*
X132395576Y-108066189D01*
X132573240Y-107927906D01*
X132725722Y-107762268D01*
X132725927Y-107761955D01*
X132731115Y-107754012D01*
X132814518Y-107626354D01*
X132868520Y-107580268D01*
X132938868Y-107570692D01*
X133003225Y-107600669D01*
X133025480Y-107626353D01*
X133029833Y-107633015D01*
X133114275Y-107762265D01*
X133114279Y-107762270D01*
X133266762Y-107927908D01*
X133321331Y-107970381D01*
X133444424Y-108066189D01*
X133642426Y-108173342D01*
X133642427Y-108173342D01*
X133642428Y-108173343D01*
X133754227Y-108211723D01*
X133855365Y-108246444D01*
X134077431Y-108283500D01*
X134077435Y-108283500D01*
X134302565Y-108283500D01*
X134302569Y-108283500D01*
X134524635Y-108246444D01*
X134737574Y-108173342D01*
X134935576Y-108066189D01*
X135113240Y-107927906D01*
X135265722Y-107762268D01*
X135265927Y-107761955D01*
X135271115Y-107754012D01*
X135354518Y-107626354D01*
X135408520Y-107580268D01*
X135478868Y-107570692D01*
X135543225Y-107600669D01*
X135565480Y-107626353D01*
X135569833Y-107633015D01*
X135654275Y-107762265D01*
X135654279Y-107762270D01*
X135806762Y-107927908D01*
X135861331Y-107970381D01*
X135984424Y-108066189D01*
X136182426Y-108173342D01*
X136182427Y-108173342D01*
X136182428Y-108173343D01*
X136294227Y-108211723D01*
X136395365Y-108246444D01*
X136617431Y-108283500D01*
X136617435Y-108283500D01*
X136842565Y-108283500D01*
X136842569Y-108283500D01*
X137064635Y-108246444D01*
X137277574Y-108173342D01*
X137475576Y-108066189D01*
X137653240Y-107927906D01*
X137805722Y-107762268D01*
X137805927Y-107761955D01*
X137811115Y-107754012D01*
X137894518Y-107626354D01*
X137948520Y-107580268D01*
X138018868Y-107570692D01*
X138083225Y-107600669D01*
X138105480Y-107626353D01*
X138109833Y-107633015D01*
X138194275Y-107762265D01*
X138194279Y-107762270D01*
X138346762Y-107927908D01*
X138401331Y-107970381D01*
X138524424Y-108066189D01*
X138722426Y-108173342D01*
X138722427Y-108173342D01*
X138722428Y-108173343D01*
X138834227Y-108211723D01*
X138935365Y-108246444D01*
X139157431Y-108283500D01*
X139157435Y-108283500D01*
X139382565Y-108283500D01*
X139382569Y-108283500D01*
X139604635Y-108246444D01*
X139817574Y-108173342D01*
X140015576Y-108066189D01*
X140193240Y-107927906D01*
X140345722Y-107762268D01*
X140345927Y-107761955D01*
X140351115Y-107754012D01*
X140434518Y-107626354D01*
X140488520Y-107580268D01*
X140558868Y-107570692D01*
X140623225Y-107600669D01*
X140645480Y-107626353D01*
X140649833Y-107633015D01*
X140734275Y-107762265D01*
X140734279Y-107762270D01*
X140886762Y-107927908D01*
X140941331Y-107970381D01*
X141064424Y-108066189D01*
X141262426Y-108173342D01*
X141262427Y-108173342D01*
X141262428Y-108173343D01*
X141374227Y-108211723D01*
X141475365Y-108246444D01*
X141697431Y-108283500D01*
X141697435Y-108283500D01*
X141922565Y-108283500D01*
X141922569Y-108283500D01*
X142144635Y-108246444D01*
X142357574Y-108173342D01*
X142555576Y-108066189D01*
X142733240Y-107927906D01*
X142885722Y-107762268D01*
X142885927Y-107761955D01*
X142891115Y-107754012D01*
X142974518Y-107626354D01*
X143028520Y-107580268D01*
X143098868Y-107570692D01*
X143163225Y-107600669D01*
X143185480Y-107626353D01*
X143189833Y-107633015D01*
X143274275Y-107762265D01*
X143274279Y-107762270D01*
X143426762Y-107927908D01*
X143481331Y-107970381D01*
X143604424Y-108066189D01*
X143802426Y-108173342D01*
X143802427Y-108173342D01*
X143802428Y-108173343D01*
X143914227Y-108211723D01*
X144015365Y-108246444D01*
X144237431Y-108283500D01*
X144237435Y-108283500D01*
X144462565Y-108283500D01*
X144462569Y-108283500D01*
X144684635Y-108246444D01*
X144897574Y-108173342D01*
X145095576Y-108066189D01*
X145273240Y-107927906D01*
X145425722Y-107762268D01*
X145425927Y-107761955D01*
X145431115Y-107754012D01*
X145514518Y-107626354D01*
X145568520Y-107580268D01*
X145638868Y-107570692D01*
X145703225Y-107600669D01*
X145725480Y-107626353D01*
X145729833Y-107633015D01*
X145814275Y-107762265D01*
X145814279Y-107762270D01*
X145966762Y-107927908D01*
X146021331Y-107970381D01*
X146144424Y-108066189D01*
X146342426Y-108173342D01*
X146342427Y-108173342D01*
X146342428Y-108173343D01*
X146454227Y-108211723D01*
X146555365Y-108246444D01*
X146777431Y-108283500D01*
X146777435Y-108283500D01*
X147002565Y-108283500D01*
X147002569Y-108283500D01*
X147224635Y-108246444D01*
X147437574Y-108173342D01*
X147635576Y-108066189D01*
X147813240Y-107927906D01*
X147965722Y-107762268D01*
X147965927Y-107761955D01*
X147971115Y-107754012D01*
X148054518Y-107626354D01*
X148108520Y-107580268D01*
X148178868Y-107570692D01*
X148243225Y-107600669D01*
X148265480Y-107626353D01*
X148269833Y-107633015D01*
X148354275Y-107762265D01*
X148354279Y-107762270D01*
X148506762Y-107927908D01*
X148561331Y-107970381D01*
X148684424Y-108066189D01*
X148882426Y-108173342D01*
X148882427Y-108173342D01*
X148882428Y-108173343D01*
X148994227Y-108211723D01*
X149095365Y-108246444D01*
X149317431Y-108283500D01*
X149317435Y-108283500D01*
X149542565Y-108283500D01*
X149542569Y-108283500D01*
X149764635Y-108246444D01*
X149977574Y-108173342D01*
X150175576Y-108066189D01*
X150353240Y-107927906D01*
X150505722Y-107762268D01*
X150505927Y-107761955D01*
X150511115Y-107754012D01*
X150594518Y-107626354D01*
X150648520Y-107580268D01*
X150718868Y-107570692D01*
X150783225Y-107600669D01*
X150805480Y-107626353D01*
X150809833Y-107633015D01*
X150894275Y-107762265D01*
X150894279Y-107762270D01*
X151046762Y-107927908D01*
X151101331Y-107970381D01*
X151224424Y-108066189D01*
X151422426Y-108173342D01*
X151422427Y-108173342D01*
X151422428Y-108173343D01*
X151534227Y-108211723D01*
X151635365Y-108246444D01*
X151857431Y-108283500D01*
X151857435Y-108283500D01*
X152082565Y-108283500D01*
X152082569Y-108283500D01*
X152304635Y-108246444D01*
X152517574Y-108173342D01*
X152715576Y-108066189D01*
X152893240Y-107927906D01*
X153045722Y-107762268D01*
X153045927Y-107761955D01*
X153130168Y-107633014D01*
X153134816Y-107625898D01*
X153188819Y-107579810D01*
X153259167Y-107570235D01*
X153323524Y-107600212D01*
X153345782Y-107625898D01*
X153434674Y-107761958D01*
X153587097Y-107927534D01*
X153764698Y-108065767D01*
X153764699Y-108065768D01*
X153962628Y-108172882D01*
X153962630Y-108172883D01*
X154175483Y-108245955D01*
X154175492Y-108245957D01*
X154256000Y-108259391D01*
X154256000Y-107355702D01*
X154317007Y-107390925D01*
X154444174Y-107425000D01*
X154575826Y-107425000D01*
X154702993Y-107390925D01*
X154764000Y-107355702D01*
X154764000Y-108259390D01*
X154844507Y-108245957D01*
X154844516Y-108245955D01*
X155057369Y-108172883D01*
X155057371Y-108172882D01*
X155255300Y-108065768D01*
X155255301Y-108065767D01*
X155432902Y-107927534D01*
X155585327Y-107761955D01*
X155674217Y-107625899D01*
X155728220Y-107579810D01*
X155798568Y-107570235D01*
X155862925Y-107600212D01*
X155885183Y-107625898D01*
X155974279Y-107762270D01*
X156126762Y-107927908D01*
X156181331Y-107970381D01*
X156304424Y-108066189D01*
X156502426Y-108173342D01*
X156502427Y-108173342D01*
X156502428Y-108173343D01*
X156614227Y-108211723D01*
X156715365Y-108246444D01*
X156937431Y-108283500D01*
X156937435Y-108283500D01*
X157162565Y-108283500D01*
X157162569Y-108283500D01*
X157384635Y-108246444D01*
X157597574Y-108173342D01*
X157795576Y-108066189D01*
X157973240Y-107927906D01*
X158125722Y-107762268D01*
X158125927Y-107761955D01*
X158131115Y-107754012D01*
X158214518Y-107626354D01*
X158268520Y-107580268D01*
X158338868Y-107570692D01*
X158403225Y-107600669D01*
X158425480Y-107626353D01*
X158429833Y-107633015D01*
X158514275Y-107762265D01*
X158514279Y-107762270D01*
X158666762Y-107927908D01*
X158721331Y-107970381D01*
X158844424Y-108066189D01*
X159042426Y-108173342D01*
X159042427Y-108173342D01*
X159042428Y-108173343D01*
X159154227Y-108211723D01*
X159255365Y-108246444D01*
X159477431Y-108283500D01*
X159477435Y-108283500D01*
X159702565Y-108283500D01*
X159702569Y-108283500D01*
X159924635Y-108246444D01*
X160137574Y-108173342D01*
X160335576Y-108066189D01*
X160513240Y-107927906D01*
X160665722Y-107762268D01*
X160665927Y-107761955D01*
X160671115Y-107754012D01*
X160754518Y-107626354D01*
X160808520Y-107580268D01*
X160878868Y-107570692D01*
X160943225Y-107600669D01*
X160965480Y-107626353D01*
X160969833Y-107633015D01*
X161054275Y-107762265D01*
X161054279Y-107762270D01*
X161206762Y-107927908D01*
X161261331Y-107970381D01*
X161384424Y-108066189D01*
X161582426Y-108173342D01*
X161582427Y-108173342D01*
X161582428Y-108173343D01*
X161694227Y-108211723D01*
X161795365Y-108246444D01*
X162017431Y-108283500D01*
X162017435Y-108283500D01*
X162242565Y-108283500D01*
X162242569Y-108283500D01*
X162464635Y-108246444D01*
X162677574Y-108173342D01*
X162875576Y-108066189D01*
X163053240Y-107927906D01*
X163205722Y-107762268D01*
X163205927Y-107761955D01*
X163211115Y-107754012D01*
X163294518Y-107626354D01*
X163348520Y-107580268D01*
X163418868Y-107570692D01*
X163483225Y-107600669D01*
X163505480Y-107626353D01*
X163509833Y-107633015D01*
X163594275Y-107762265D01*
X163594279Y-107762270D01*
X163746762Y-107927908D01*
X163801331Y-107970381D01*
X163924424Y-108066189D01*
X164122426Y-108173342D01*
X164122427Y-108173342D01*
X164122428Y-108173343D01*
X164234227Y-108211723D01*
X164335365Y-108246444D01*
X164557431Y-108283500D01*
X164557435Y-108283500D01*
X164782565Y-108283500D01*
X164782569Y-108283500D01*
X165004635Y-108246444D01*
X165217574Y-108173342D01*
X165415576Y-108066189D01*
X165593240Y-107927906D01*
X165745722Y-107762268D01*
X165745927Y-107761955D01*
X165751115Y-107754012D01*
X165834518Y-107626354D01*
X165888520Y-107580268D01*
X165958868Y-107570692D01*
X166023225Y-107600669D01*
X166045480Y-107626353D01*
X166049833Y-107633015D01*
X166134275Y-107762265D01*
X166134279Y-107762270D01*
X166286762Y-107927908D01*
X166341331Y-107970381D01*
X166464424Y-108066189D01*
X166662426Y-108173342D01*
X166662427Y-108173342D01*
X166662428Y-108173343D01*
X166774227Y-108211723D01*
X166875365Y-108246444D01*
X167097431Y-108283500D01*
X167097435Y-108283500D01*
X167322565Y-108283500D01*
X167322569Y-108283500D01*
X167544635Y-108246444D01*
X167757574Y-108173342D01*
X167955576Y-108066189D01*
X168133240Y-107927906D01*
X168285722Y-107762268D01*
X168285927Y-107761955D01*
X168370167Y-107633015D01*
X168408860Y-107573791D01*
X168499296Y-107367616D01*
X168554564Y-107149368D01*
X168573156Y-106925000D01*
X168554564Y-106700632D01*
X168499296Y-106482384D01*
X168408860Y-106276209D01*
X168347291Y-106181970D01*
X168285724Y-106087735D01*
X168285723Y-106087734D01*
X168285722Y-106087732D01*
X168259798Y-106059571D01*
X168228378Y-105995905D01*
X168226500Y-105974234D01*
X168226500Y-88959886D01*
X168226499Y-88959881D01*
X168224132Y-88947981D01*
X168224131Y-88947978D01*
X168187436Y-88763498D01*
X168110810Y-88578507D01*
X167999567Y-88412018D01*
X167097981Y-87510433D01*
X166931493Y-87399190D01*
X166807864Y-87347981D01*
X166746505Y-87322565D01*
X166746502Y-87322564D01*
X166550119Y-87283500D01*
X166550116Y-87283500D01*
X163223238Y-87283500D01*
X163155117Y-87263498D01*
X163134143Y-87246595D01*
X161797988Y-85910439D01*
X161797982Y-85910434D01*
X161797981Y-85910433D01*
X161631493Y-85799190D01*
X161514839Y-85750870D01*
X161446505Y-85722565D01*
X161446502Y-85722564D01*
X161250119Y-85683500D01*
X161250116Y-85683500D01*
X146899884Y-85683500D01*
X146899880Y-85683500D01*
X146703497Y-85722564D01*
X146703494Y-85722565D01*
X146518507Y-85799190D01*
X146352017Y-85910434D01*
X146352011Y-85910439D01*
X146210439Y-86052011D01*
X146210434Y-86052017D01*
X146099190Y-86218507D01*
X146022565Y-86403494D01*
X146022564Y-86403497D01*
X145983500Y-86599880D01*
X145983500Y-86800119D01*
X146022564Y-86996502D01*
X146022565Y-86996505D01*
X146050870Y-87064839D01*
X146099190Y-87181493D01*
X146193450Y-87322564D01*
X146210434Y-87347982D01*
X146210439Y-87347988D01*
X146352011Y-87489560D01*
X146352017Y-87489565D01*
X146352019Y-87489567D01*
X146518507Y-87600810D01*
X146703498Y-87677436D01*
X146899884Y-87716500D01*
X160676762Y-87716500D01*
X160744883Y-87736502D01*
X160765857Y-87753405D01*
X161960433Y-88947981D01*
X162102019Y-89089567D01*
X162210880Y-89162305D01*
X162256408Y-89216782D01*
X162265256Y-89287225D01*
X162234615Y-89351269D01*
X162198081Y-89379337D01*
X162029282Y-89465344D01*
X161849921Y-89595658D01*
X161693158Y-89752421D01*
X161562845Y-89931781D01*
X161462193Y-90129322D01*
X161462190Y-90129328D01*
X161393683Y-90340170D01*
X161393682Y-90340175D01*
X161393682Y-90340176D01*
X161359000Y-90559149D01*
X161359000Y-90780851D01*
X161393682Y-90999824D01*
X161393683Y-90999829D01*
X161462190Y-91210671D01*
X161462192Y-91210676D01*
X161462193Y-91210677D01*
X161562845Y-91408218D01*
X161693158Y-91587578D01*
X161849921Y-91744341D01*
X161849924Y-91744343D01*
X162029285Y-91874657D01*
X162226824Y-91975308D01*
X162437676Y-92043818D01*
X162656649Y-92078500D01*
X162656652Y-92078500D01*
X164678348Y-92078500D01*
X164678351Y-92078500D01*
X164897324Y-92043818D01*
X165108176Y-91975308D01*
X165305715Y-91874657D01*
X165485076Y-91744343D01*
X165641843Y-91587576D01*
X165772157Y-91408215D01*
X165872808Y-91210676D01*
X165941318Y-90999824D01*
X165943052Y-90988875D01*
X165973463Y-90924725D01*
X166033732Y-90887198D01*
X166104721Y-90888212D01*
X166163893Y-90927445D01*
X166192461Y-90992440D01*
X166193500Y-91008589D01*
X166193500Y-93831410D01*
X166173498Y-93899531D01*
X166119842Y-93946024D01*
X166049568Y-93956128D01*
X165984988Y-93926634D01*
X165946604Y-93866908D01*
X165943053Y-93851132D01*
X165941318Y-93840176D01*
X165872808Y-93629324D01*
X165772157Y-93431785D01*
X165641843Y-93252424D01*
X165641841Y-93252421D01*
X165485078Y-93095658D01*
X165305718Y-92965345D01*
X165305717Y-92965344D01*
X165305715Y-92965343D01*
X165108176Y-92864692D01*
X165108173Y-92864691D01*
X165108171Y-92864690D01*
X164897329Y-92796183D01*
X164897325Y-92796182D01*
X164897324Y-92796182D01*
X164678351Y-92761500D01*
X162656649Y-92761500D01*
X162437676Y-92796182D01*
X162437670Y-92796183D01*
X162226828Y-92864690D01*
X162226822Y-92864693D01*
X162029281Y-92965345D01*
X161849921Y-93095658D01*
X161693158Y-93252421D01*
X161562845Y-93431781D01*
X161462193Y-93629322D01*
X161462190Y-93629328D01*
X161393683Y-93840170D01*
X161393682Y-93840175D01*
X161393682Y-93840176D01*
X161359000Y-94059149D01*
X161359000Y-94280851D01*
X161393682Y-94499824D01*
X161393683Y-94499829D01*
X161462190Y-94710671D01*
X161462192Y-94710676D01*
X161462193Y-94710677D01*
X161562845Y-94908218D01*
X161693158Y-95087578D01*
X161849921Y-95244341D01*
X161849924Y-95244343D01*
X162029285Y-95374657D01*
X162226824Y-95475308D01*
X162437676Y-95543818D01*
X162656649Y-95578500D01*
X162656652Y-95578500D01*
X164678348Y-95578500D01*
X164678351Y-95578500D01*
X164897324Y-95543818D01*
X165108176Y-95475308D01*
X165305715Y-95374657D01*
X165485076Y-95244343D01*
X165641843Y-95087576D01*
X165772157Y-94908215D01*
X165872808Y-94710676D01*
X165941318Y-94499824D01*
X165943052Y-94488875D01*
X165973463Y-94424725D01*
X166033732Y-94387198D01*
X166104721Y-94388212D01*
X166163893Y-94427445D01*
X166192461Y-94492440D01*
X166193500Y-94508589D01*
X166193500Y-96773153D01*
X166173498Y-96841274D01*
X166119842Y-96887767D01*
X166049568Y-96897871D01*
X165984988Y-96868377D01*
X165947895Y-96812786D01*
X165928970Y-96755674D01*
X165909615Y-96697262D01*
X165816530Y-96546348D01*
X165816529Y-96546347D01*
X165816524Y-96546341D01*
X165691158Y-96420975D01*
X165691152Y-96420970D01*
X165676209Y-96411753D01*
X165540238Y-96327885D01*
X165405998Y-96283403D01*
X165371927Y-96272113D01*
X165371920Y-96272112D01*
X165268053Y-96261500D01*
X162066955Y-96261500D01*
X161963074Y-96272112D01*
X161794761Y-96327885D01*
X161643847Y-96420970D01*
X161643841Y-96420975D01*
X161518475Y-96546341D01*
X161518470Y-96546347D01*
X161425385Y-96697262D01*
X161369613Y-96865572D01*
X161369612Y-96865579D01*
X161359000Y-96969446D01*
X161359000Y-98370544D01*
X161369612Y-98474425D01*
X161425385Y-98642738D01*
X161518470Y-98793652D01*
X161518475Y-98793658D01*
X161643841Y-98919024D01*
X161643847Y-98919029D01*
X161643848Y-98919030D01*
X161794762Y-99012115D01*
X161963074Y-99067887D01*
X162066955Y-99078500D01*
X165268044Y-99078499D01*
X165371926Y-99067887D01*
X165540238Y-99012115D01*
X165691152Y-98919030D01*
X165816530Y-98793652D01*
X165909615Y-98642738D01*
X165947895Y-98527211D01*
X165988309Y-98468841D01*
X166053865Y-98441585D01*
X166123750Y-98454098D01*
X166175776Y-98502407D01*
X166193500Y-98566845D01*
X166193500Y-105974234D01*
X166173498Y-106042355D01*
X166160202Y-106059571D01*
X166134277Y-106087732D01*
X166045483Y-106223643D01*
X165991479Y-106269731D01*
X165921131Y-106279306D01*
X165856774Y-106249329D01*
X165834517Y-106223643D01*
X165745720Y-106087729D01*
X165616220Y-105947057D01*
X165593240Y-105922094D01*
X165593239Y-105922093D01*
X165593237Y-105922091D01*
X165473367Y-105828792D01*
X165415576Y-105783811D01*
X165217574Y-105676658D01*
X165217572Y-105676657D01*
X165217571Y-105676656D01*
X165004639Y-105603557D01*
X165004630Y-105603555D01*
X164927029Y-105590606D01*
X164782569Y-105566500D01*
X164557431Y-105566500D01*
X164412971Y-105590606D01*
X164335369Y-105603555D01*
X164335360Y-105603557D01*
X164122428Y-105676656D01*
X164122426Y-105676658D01*
X163924426Y-105783810D01*
X163924424Y-105783811D01*
X163746762Y-105922091D01*
X163594279Y-106087729D01*
X163505483Y-106223643D01*
X163451479Y-106269731D01*
X163381131Y-106279306D01*
X163316774Y-106249329D01*
X163294517Y-106223643D01*
X163205720Y-106087729D01*
X163076220Y-105947057D01*
X163053240Y-105922094D01*
X163053239Y-105922093D01*
X163053237Y-105922091D01*
X162933367Y-105828792D01*
X162875576Y-105783811D01*
X162677574Y-105676658D01*
X162677572Y-105676657D01*
X162677571Y-105676656D01*
X162464639Y-105603557D01*
X162464630Y-105603555D01*
X162387029Y-105590606D01*
X162242569Y-105566500D01*
X162017431Y-105566500D01*
X161872971Y-105590606D01*
X161795369Y-105603555D01*
X161795360Y-105603557D01*
X161582428Y-105676656D01*
X161582426Y-105676658D01*
X161384426Y-105783810D01*
X161384424Y-105783811D01*
X161206762Y-105922091D01*
X161054279Y-106087729D01*
X160965483Y-106223643D01*
X160911479Y-106269731D01*
X160841131Y-106279306D01*
X160776774Y-106249329D01*
X160754517Y-106223643D01*
X160665720Y-106087729D01*
X160536220Y-105947057D01*
X160513240Y-105922094D01*
X160513239Y-105922093D01*
X160513237Y-105922091D01*
X160393367Y-105828792D01*
X160335576Y-105783811D01*
X160137574Y-105676658D01*
X160137572Y-105676657D01*
X160137571Y-105676656D01*
X159924639Y-105603557D01*
X159924630Y-105603555D01*
X159847029Y-105590606D01*
X159702569Y-105566500D01*
X159477431Y-105566500D01*
X159332971Y-105590606D01*
X159255369Y-105603555D01*
X159255360Y-105603557D01*
X159042428Y-105676656D01*
X159042426Y-105676658D01*
X158844426Y-105783810D01*
X158844424Y-105783811D01*
X158666762Y-105922091D01*
X158514279Y-106087729D01*
X158425483Y-106223643D01*
X158371479Y-106269731D01*
X158301131Y-106279306D01*
X158236774Y-106249329D01*
X158214517Y-106223643D01*
X158125720Y-106087729D01*
X157996220Y-105947057D01*
X157973240Y-105922094D01*
X157973239Y-105922093D01*
X157973237Y-105922091D01*
X157853367Y-105828792D01*
X157795576Y-105783811D01*
X157597574Y-105676658D01*
X157597572Y-105676657D01*
X157597571Y-105676656D01*
X157384639Y-105603557D01*
X157384630Y-105603555D01*
X157307029Y-105590606D01*
X157162569Y-105566500D01*
X156937431Y-105566500D01*
X156792971Y-105590606D01*
X156715369Y-105603555D01*
X156715360Y-105603557D01*
X156502428Y-105676656D01*
X156502426Y-105676658D01*
X156304426Y-105783810D01*
X156304424Y-105783811D01*
X156126762Y-105922091D01*
X155974279Y-106087729D01*
X155885183Y-106224101D01*
X155831179Y-106270189D01*
X155760831Y-106279764D01*
X155696474Y-106249786D01*
X155674217Y-106224100D01*
X155585327Y-106088044D01*
X155432902Y-105922465D01*
X155255301Y-105784232D01*
X155255300Y-105784231D01*
X155057371Y-105677117D01*
X155057369Y-105677116D01*
X154844512Y-105604043D01*
X154844501Y-105604040D01*
X154764000Y-105590606D01*
X154764000Y-106494297D01*
X154702993Y-106459075D01*
X154575826Y-106425000D01*
X154444174Y-106425000D01*
X154317007Y-106459075D01*
X154256000Y-106494297D01*
X154256000Y-105590607D01*
X154255999Y-105590606D01*
X154175498Y-105604040D01*
X154175487Y-105604043D01*
X153962630Y-105677116D01*
X153962628Y-105677117D01*
X153764699Y-105784231D01*
X153764698Y-105784232D01*
X153587097Y-105922465D01*
X153434670Y-106088045D01*
X153345780Y-106224101D01*
X153291776Y-106270189D01*
X153221428Y-106279764D01*
X153157071Y-106249786D01*
X153134816Y-106224101D01*
X153095884Y-106164511D01*
X153045724Y-106087734D01*
X153045720Y-106087729D01*
X152916220Y-105947057D01*
X152893240Y-105922094D01*
X152893239Y-105922093D01*
X152893237Y-105922091D01*
X152773367Y-105828792D01*
X152715576Y-105783811D01*
X152517574Y-105676658D01*
X152517572Y-105676657D01*
X152517571Y-105676656D01*
X152304639Y-105603557D01*
X152304630Y-105603555D01*
X152227029Y-105590606D01*
X152082569Y-105566500D01*
X151857431Y-105566500D01*
X151712971Y-105590606D01*
X151635369Y-105603555D01*
X151635360Y-105603557D01*
X151422428Y-105676656D01*
X151422426Y-105676658D01*
X151224426Y-105783810D01*
X151224424Y-105783811D01*
X151046762Y-105922091D01*
X150894279Y-106087729D01*
X150805483Y-106223643D01*
X150751479Y-106269731D01*
X150681131Y-106279306D01*
X150616774Y-106249329D01*
X150594517Y-106223643D01*
X150505720Y-106087729D01*
X150376220Y-105947057D01*
X150353240Y-105922094D01*
X150353239Y-105922093D01*
X150353237Y-105922091D01*
X150233367Y-105828792D01*
X150175576Y-105783811D01*
X149977574Y-105676658D01*
X149977572Y-105676657D01*
X149977571Y-105676656D01*
X149764639Y-105603557D01*
X149764630Y-105603555D01*
X149687029Y-105590606D01*
X149542569Y-105566500D01*
X149317431Y-105566500D01*
X149172971Y-105590606D01*
X149095369Y-105603555D01*
X149095360Y-105603557D01*
X148882428Y-105676656D01*
X148882426Y-105676658D01*
X148684426Y-105783810D01*
X148684424Y-105783811D01*
X148506762Y-105922091D01*
X148354279Y-106087729D01*
X148265483Y-106223643D01*
X148211479Y-106269731D01*
X148141131Y-106279306D01*
X148076774Y-106249329D01*
X148054517Y-106223643D01*
X147965720Y-106087729D01*
X147836220Y-105947057D01*
X147813240Y-105922094D01*
X147813239Y-105922093D01*
X147813237Y-105922091D01*
X147693367Y-105828792D01*
X147635576Y-105783811D01*
X147437574Y-105676658D01*
X147437572Y-105676657D01*
X147437571Y-105676656D01*
X147224639Y-105603557D01*
X147224630Y-105603555D01*
X147147029Y-105590606D01*
X147002569Y-105566500D01*
X146777431Y-105566500D01*
X146632971Y-105590606D01*
X146555369Y-105603555D01*
X146555360Y-105603557D01*
X146342428Y-105676656D01*
X146342426Y-105676658D01*
X146144426Y-105783810D01*
X146144424Y-105783811D01*
X145966762Y-105922091D01*
X145814279Y-106087729D01*
X145725483Y-106223643D01*
X145671479Y-106269731D01*
X145601131Y-106279306D01*
X145536774Y-106249329D01*
X145514517Y-106223643D01*
X145425720Y-106087729D01*
X145296220Y-105947057D01*
X145273240Y-105922094D01*
X145273239Y-105922093D01*
X145273237Y-105922091D01*
X145153367Y-105828792D01*
X145095576Y-105783811D01*
X144897574Y-105676658D01*
X144897572Y-105676657D01*
X144897571Y-105676656D01*
X144684639Y-105603557D01*
X144684630Y-105603555D01*
X144607029Y-105590606D01*
X144462569Y-105566500D01*
X144237431Y-105566500D01*
X144092971Y-105590606D01*
X144015369Y-105603555D01*
X144015360Y-105603557D01*
X143802428Y-105676656D01*
X143802426Y-105676658D01*
X143604426Y-105783810D01*
X143604424Y-105783811D01*
X143426762Y-105922091D01*
X143274279Y-106087729D01*
X143185483Y-106223643D01*
X143131479Y-106269731D01*
X143061131Y-106279306D01*
X142996774Y-106249329D01*
X142974517Y-106223643D01*
X142885720Y-106087729D01*
X142756220Y-105947057D01*
X142733240Y-105922094D01*
X142733239Y-105922093D01*
X142733237Y-105922091D01*
X142613367Y-105828792D01*
X142555576Y-105783811D01*
X142357574Y-105676658D01*
X142357572Y-105676657D01*
X142357571Y-105676656D01*
X142144639Y-105603557D01*
X142144630Y-105603555D01*
X142067029Y-105590606D01*
X141922569Y-105566500D01*
X141697431Y-105566500D01*
X141552971Y-105590606D01*
X141475369Y-105603555D01*
X141475360Y-105603557D01*
X141262428Y-105676656D01*
X141262426Y-105676658D01*
X141064426Y-105783810D01*
X141064424Y-105783811D01*
X140886762Y-105922091D01*
X140734279Y-106087729D01*
X140645483Y-106223643D01*
X140591479Y-106269731D01*
X140521131Y-106279306D01*
X140456774Y-106249329D01*
X140434517Y-106223643D01*
X140345720Y-106087729D01*
X140216220Y-105947057D01*
X140193240Y-105922094D01*
X140193239Y-105922093D01*
X140193237Y-105922091D01*
X140073367Y-105828792D01*
X140015576Y-105783811D01*
X139817574Y-105676658D01*
X139817572Y-105676657D01*
X139817571Y-105676656D01*
X139604639Y-105603557D01*
X139604630Y-105603555D01*
X139527029Y-105590606D01*
X139382569Y-105566500D01*
X139157431Y-105566500D01*
X139012971Y-105590606D01*
X138935369Y-105603555D01*
X138935356Y-105603558D01*
X138917441Y-105609708D01*
X138846516Y-105612905D01*
X138787440Y-105579628D01*
X137047005Y-103839193D01*
X137012979Y-103776881D01*
X137010100Y-103750098D01*
X137010100Y-103112178D01*
X137030102Y-103044057D01*
X137083758Y-102997564D01*
X137154032Y-102987460D01*
X137203135Y-103005490D01*
X137246985Y-103033043D01*
X137418953Y-103093217D01*
X137600000Y-103113616D01*
X137781047Y-103093217D01*
X137953015Y-103033043D01*
X138107281Y-102936111D01*
X138236111Y-102807281D01*
X138333043Y-102653015D01*
X138393217Y-102481047D01*
X138413616Y-102300000D01*
X138393217Y-102118953D01*
X138333043Y-101946985D01*
X138333041Y-101946982D01*
X138333041Y-101946981D01*
X138232347Y-101786727D01*
X138233970Y-101785707D01*
X138210755Y-101728844D01*
X138210100Y-101716012D01*
X138210100Y-97254111D01*
X138230102Y-97185990D01*
X138247005Y-97165016D01*
X138275910Y-97136111D01*
X138523896Y-96888125D01*
X138566420Y-96824483D01*
X138590664Y-96788200D01*
X138604134Y-96755679D01*
X138636655Y-96677169D01*
X138660100Y-96559299D01*
X138660100Y-96439119D01*
X138660100Y-91030588D01*
X138680102Y-90962467D01*
X138733758Y-90915974D01*
X138771988Y-90905380D01*
X138879947Y-90893217D01*
X139051915Y-90833043D01*
X139206181Y-90736111D01*
X139335011Y-90607281D01*
X139431943Y-90453015D01*
X139492117Y-90281047D01*
X139512516Y-90100000D01*
X139492117Y-89918953D01*
X139431943Y-89746985D01*
X139431941Y-89746982D01*
X139431941Y-89746981D01*
X139331247Y-89586727D01*
X139332870Y-89585707D01*
X139309655Y-89528844D01*
X139309000Y-89516012D01*
X139309000Y-85600000D01*
X162771844Y-85600000D01*
X162790437Y-85824375D01*
X162845702Y-86042612D01*
X162845703Y-86042613D01*
X162845704Y-86042616D01*
X162855035Y-86063888D01*
X162936141Y-86248793D01*
X163059275Y-86437265D01*
X163059279Y-86437270D01*
X163211762Y-86602908D01*
X163266331Y-86645381D01*
X163389424Y-86741189D01*
X163587426Y-86848342D01*
X163587427Y-86848342D01*
X163587428Y-86848343D01*
X163682692Y-86881047D01*
X163800365Y-86921444D01*
X164022431Y-86958500D01*
X164022435Y-86958500D01*
X164247565Y-86958500D01*
X164247569Y-86958500D01*
X164469635Y-86921444D01*
X164682574Y-86848342D01*
X164880576Y-86741189D01*
X165058240Y-86602906D01*
X165119245Y-86536637D01*
X165180096Y-86500067D01*
X165251061Y-86502200D01*
X165309606Y-86542362D01*
X165330000Y-86577941D01*
X165374111Y-86696204D01*
X165374112Y-86696207D01*
X165461738Y-86813261D01*
X165578792Y-86900887D01*
X165578794Y-86900888D01*
X165578796Y-86900889D01*
X165633900Y-86921442D01*
X165715795Y-86951988D01*
X165715803Y-86951990D01*
X165776350Y-86958499D01*
X165776355Y-86958499D01*
X165776362Y-86958500D01*
X165776368Y-86958500D01*
X167573632Y-86958500D01*
X167573638Y-86958500D01*
X167573645Y-86958499D01*
X167573649Y-86958499D01*
X167634196Y-86951990D01*
X167634199Y-86951989D01*
X167634201Y-86951989D01*
X167771204Y-86900889D01*
X167841399Y-86848342D01*
X167888261Y-86813261D01*
X167975887Y-86696207D01*
X167975887Y-86696206D01*
X167975889Y-86696204D01*
X168026989Y-86559201D01*
X168028800Y-86542362D01*
X168033499Y-86498649D01*
X168033500Y-86498632D01*
X168033500Y-84701367D01*
X168033499Y-84701350D01*
X168026990Y-84640803D01*
X168026988Y-84640795D01*
X167975889Y-84503797D01*
X167975887Y-84503792D01*
X167888261Y-84386738D01*
X167771207Y-84299112D01*
X167771202Y-84299110D01*
X167634204Y-84248011D01*
X167634196Y-84248009D01*
X167573649Y-84241500D01*
X167573638Y-84241500D01*
X165776362Y-84241500D01*
X165776350Y-84241500D01*
X165715803Y-84248009D01*
X165715795Y-84248011D01*
X165578797Y-84299110D01*
X165578792Y-84299112D01*
X165461738Y-84386738D01*
X165374112Y-84503792D01*
X165374111Y-84503795D01*
X165330000Y-84622058D01*
X165287453Y-84678893D01*
X165220932Y-84703703D01*
X165151558Y-84688611D01*
X165119246Y-84663363D01*
X165058240Y-84597094D01*
X165058239Y-84597093D01*
X165058237Y-84597091D01*
X164938372Y-84503796D01*
X164880576Y-84458811D01*
X164682574Y-84351658D01*
X164682572Y-84351657D01*
X164682571Y-84351656D01*
X164469639Y-84278557D01*
X164469630Y-84278555D01*
X164395463Y-84266179D01*
X164247569Y-84241500D01*
X164022431Y-84241500D01*
X163891796Y-84263299D01*
X163800369Y-84278555D01*
X163800360Y-84278557D01*
X163587428Y-84351656D01*
X163587426Y-84351658D01*
X163389426Y-84458810D01*
X163389424Y-84458811D01*
X163211762Y-84597091D01*
X163059279Y-84762729D01*
X163059275Y-84762734D01*
X162936141Y-84951206D01*
X162845703Y-85157386D01*
X162845702Y-85157387D01*
X162790437Y-85375624D01*
X162771844Y-85600000D01*
X139309000Y-85600000D01*
X139309000Y-85056002D01*
X139329002Y-84987881D01*
X139345905Y-84966907D01*
X140012607Y-84300205D01*
X140074919Y-84266179D01*
X140101702Y-84263300D01*
X147346889Y-84263300D01*
X147346890Y-84263300D01*
X147464760Y-84239855D01*
X147543270Y-84207334D01*
X147575791Y-84193864D01*
X147675716Y-84127096D01*
X147760696Y-84042116D01*
X148957443Y-82845367D01*
X149019752Y-82811345D01*
X149087450Y-82815293D01*
X149105365Y-82821444D01*
X149327431Y-82858500D01*
X149327435Y-82858500D01*
X149552565Y-82858500D01*
X149552569Y-82858500D01*
X149774635Y-82821444D01*
X149987574Y-82748342D01*
X150185576Y-82641189D01*
X150363240Y-82502906D01*
X150515722Y-82337268D01*
X150515927Y-82336955D01*
X150521115Y-82329012D01*
X150604518Y-82201354D01*
X150658520Y-82155268D01*
X150728868Y-82145692D01*
X150793225Y-82175669D01*
X150815480Y-82201353D01*
X150848607Y-82252058D01*
X150904275Y-82337265D01*
X150904279Y-82337270D01*
X151056762Y-82502908D01*
X151111331Y-82545381D01*
X151234424Y-82641189D01*
X151432426Y-82748342D01*
X151432427Y-82748342D01*
X151432428Y-82748343D01*
X151544227Y-82786723D01*
X151645365Y-82821444D01*
X151867431Y-82858500D01*
X151867435Y-82858500D01*
X152092565Y-82858500D01*
X152092569Y-82858500D01*
X152314635Y-82821444D01*
X152527574Y-82748342D01*
X152725576Y-82641189D01*
X152903240Y-82502906D01*
X153055722Y-82337268D01*
X153055927Y-82336955D01*
X153061115Y-82329012D01*
X153144518Y-82201354D01*
X153198520Y-82155268D01*
X153268868Y-82145692D01*
X153333225Y-82175669D01*
X153355480Y-82201353D01*
X153388607Y-82252058D01*
X153444275Y-82337265D01*
X153444279Y-82337270D01*
X153596762Y-82502908D01*
X153651331Y-82545381D01*
X153774424Y-82641189D01*
X153972426Y-82748342D01*
X153972427Y-82748342D01*
X153972428Y-82748343D01*
X154084227Y-82786723D01*
X154185365Y-82821444D01*
X154407431Y-82858500D01*
X154407435Y-82858500D01*
X154632565Y-82858500D01*
X154632569Y-82858500D01*
X154854635Y-82821444D01*
X155067574Y-82748342D01*
X155265576Y-82641189D01*
X155443240Y-82502906D01*
X155595722Y-82337268D01*
X155595927Y-82336955D01*
X155601115Y-82329012D01*
X155684518Y-82201354D01*
X155738520Y-82155268D01*
X155808868Y-82145692D01*
X155873225Y-82175669D01*
X155895480Y-82201353D01*
X155928607Y-82252058D01*
X155984275Y-82337265D01*
X155984279Y-82337270D01*
X156136762Y-82502908D01*
X156191331Y-82545381D01*
X156314424Y-82641189D01*
X156512426Y-82748342D01*
X156512427Y-82748342D01*
X156512428Y-82748343D01*
X156624227Y-82786723D01*
X156725365Y-82821444D01*
X156947431Y-82858500D01*
X156947435Y-82858500D01*
X157172565Y-82858500D01*
X157172569Y-82858500D01*
X157394635Y-82821444D01*
X157607574Y-82748342D01*
X157805576Y-82641189D01*
X157983240Y-82502906D01*
X158135722Y-82337268D01*
X158135927Y-82336955D01*
X158141115Y-82329012D01*
X158224518Y-82201354D01*
X158278520Y-82155268D01*
X158348868Y-82145692D01*
X158413225Y-82175669D01*
X158435480Y-82201353D01*
X158468607Y-82252058D01*
X158524275Y-82337265D01*
X158524279Y-82337270D01*
X158676762Y-82502908D01*
X158731331Y-82545381D01*
X158854424Y-82641189D01*
X159052426Y-82748342D01*
X159052427Y-82748342D01*
X159052428Y-82748343D01*
X159164227Y-82786723D01*
X159265365Y-82821444D01*
X159487431Y-82858500D01*
X159487435Y-82858500D01*
X159712565Y-82858500D01*
X159712569Y-82858500D01*
X159934635Y-82821444D01*
X160147574Y-82748342D01*
X160345576Y-82641189D01*
X160523240Y-82502906D01*
X160675722Y-82337268D01*
X160675927Y-82336955D01*
X160681115Y-82329012D01*
X160764518Y-82201354D01*
X160818520Y-82155268D01*
X160888868Y-82145692D01*
X160953225Y-82175669D01*
X160975480Y-82201353D01*
X161008607Y-82252058D01*
X161064275Y-82337265D01*
X161064279Y-82337270D01*
X161216762Y-82502908D01*
X161271331Y-82545381D01*
X161394424Y-82641189D01*
X161592426Y-82748342D01*
X161592427Y-82748342D01*
X161592428Y-82748343D01*
X161704227Y-82786723D01*
X161805365Y-82821444D01*
X162027431Y-82858500D01*
X162027435Y-82858500D01*
X162252565Y-82858500D01*
X162252569Y-82858500D01*
X162474635Y-82821444D01*
X162687574Y-82748342D01*
X162885576Y-82641189D01*
X163063240Y-82502906D01*
X163215722Y-82337268D01*
X163215927Y-82336955D01*
X163221115Y-82329012D01*
X163304518Y-82201354D01*
X163358520Y-82155268D01*
X163428868Y-82145692D01*
X163493225Y-82175669D01*
X163515480Y-82201353D01*
X163548607Y-82252058D01*
X163604275Y-82337265D01*
X163604279Y-82337270D01*
X163756762Y-82502908D01*
X163811331Y-82545381D01*
X163934424Y-82641189D01*
X164132426Y-82748342D01*
X164132427Y-82748342D01*
X164132428Y-82748343D01*
X164244227Y-82786723D01*
X164345365Y-82821444D01*
X164567431Y-82858500D01*
X164567435Y-82858500D01*
X164792565Y-82858500D01*
X164792569Y-82858500D01*
X165014635Y-82821444D01*
X165227574Y-82748342D01*
X165425576Y-82641189D01*
X165603240Y-82502906D01*
X165755722Y-82337268D01*
X165755927Y-82336955D01*
X165761115Y-82329012D01*
X165844518Y-82201354D01*
X165898520Y-82155268D01*
X165968868Y-82145692D01*
X166033225Y-82175669D01*
X166055480Y-82201353D01*
X166088607Y-82252058D01*
X166144275Y-82337265D01*
X166144279Y-82337270D01*
X166296762Y-82502908D01*
X166351331Y-82545381D01*
X166474424Y-82641189D01*
X166672426Y-82748342D01*
X166672427Y-82748342D01*
X166672428Y-82748343D01*
X166784227Y-82786723D01*
X166885365Y-82821444D01*
X167107431Y-82858500D01*
X167107435Y-82858500D01*
X167332565Y-82858500D01*
X167332569Y-82858500D01*
X167554635Y-82821444D01*
X167767574Y-82748342D01*
X167965576Y-82641189D01*
X168143240Y-82502906D01*
X168295722Y-82337268D01*
X168295927Y-82336955D01*
X168302441Y-82326983D01*
X168418860Y-82148791D01*
X168509296Y-81942616D01*
X168564564Y-81724368D01*
X168583156Y-81500000D01*
X168564564Y-81275632D01*
X168509296Y-81057384D01*
X168418860Y-80851209D01*
X168401597Y-80824786D01*
X168295724Y-80662734D01*
X168295720Y-80662729D01*
X168166600Y-80522470D01*
X168143240Y-80497094D01*
X168143239Y-80497093D01*
X168143237Y-80497091D01*
X168023679Y-80404035D01*
X167965576Y-80358811D01*
X167767574Y-80251658D01*
X167767572Y-80251657D01*
X167767571Y-80251656D01*
X167554639Y-80178557D01*
X167554630Y-80178555D01*
X167477029Y-80165606D01*
X167332569Y-80141500D01*
X167107431Y-80141500D01*
X166962971Y-80165606D01*
X166885369Y-80178555D01*
X166885360Y-80178557D01*
X166672428Y-80251656D01*
X166672426Y-80251658D01*
X166474426Y-80358810D01*
X166474424Y-80358811D01*
X166296762Y-80497091D01*
X166144279Y-80662729D01*
X166055483Y-80798643D01*
X166001479Y-80844731D01*
X165931131Y-80854306D01*
X165866774Y-80824329D01*
X165844517Y-80798643D01*
X165755720Y-80662729D01*
X165626600Y-80522470D01*
X165603240Y-80497094D01*
X165603239Y-80497093D01*
X165603237Y-80497091D01*
X165483679Y-80404035D01*
X165425576Y-80358811D01*
X165227574Y-80251658D01*
X165227572Y-80251657D01*
X165227571Y-80251656D01*
X165014639Y-80178557D01*
X165014630Y-80178555D01*
X164937029Y-80165606D01*
X164792569Y-80141500D01*
X164567431Y-80141500D01*
X164422971Y-80165606D01*
X164345369Y-80178555D01*
X164345360Y-80178557D01*
X164132428Y-80251656D01*
X164132426Y-80251658D01*
X163934426Y-80358810D01*
X163934424Y-80358811D01*
X163756762Y-80497091D01*
X163604279Y-80662729D01*
X163515483Y-80798643D01*
X163461479Y-80844731D01*
X163391131Y-80854306D01*
X163326774Y-80824329D01*
X163304517Y-80798643D01*
X163215720Y-80662729D01*
X163086600Y-80522470D01*
X163063240Y-80497094D01*
X163063239Y-80497093D01*
X163063237Y-80497091D01*
X162943679Y-80404035D01*
X162885576Y-80358811D01*
X162687574Y-80251658D01*
X162687572Y-80251657D01*
X162687571Y-80251656D01*
X162474639Y-80178557D01*
X162474630Y-80178555D01*
X162397029Y-80165606D01*
X162252569Y-80141500D01*
X162027431Y-80141500D01*
X161882971Y-80165606D01*
X161805369Y-80178555D01*
X161805360Y-80178557D01*
X161592428Y-80251656D01*
X161592426Y-80251658D01*
X161394426Y-80358810D01*
X161394424Y-80358811D01*
X161216762Y-80497091D01*
X161064279Y-80662729D01*
X160975483Y-80798643D01*
X160921479Y-80844731D01*
X160851131Y-80854306D01*
X160786774Y-80824329D01*
X160764517Y-80798643D01*
X160675720Y-80662729D01*
X160546600Y-80522470D01*
X160523240Y-80497094D01*
X160523239Y-80497093D01*
X160523237Y-80497091D01*
X160403679Y-80404035D01*
X160345576Y-80358811D01*
X160147574Y-80251658D01*
X160147572Y-80251657D01*
X160147571Y-80251656D01*
X159934639Y-80178557D01*
X159934630Y-80178555D01*
X159857029Y-80165606D01*
X159712569Y-80141500D01*
X159487431Y-80141500D01*
X159342971Y-80165606D01*
X159265369Y-80178555D01*
X159265360Y-80178557D01*
X159052428Y-80251656D01*
X159052426Y-80251658D01*
X158854426Y-80358810D01*
X158854424Y-80358811D01*
X158676762Y-80497091D01*
X158524279Y-80662729D01*
X158435483Y-80798643D01*
X158381479Y-80844731D01*
X158311131Y-80854306D01*
X158246774Y-80824329D01*
X158224517Y-80798643D01*
X158135720Y-80662729D01*
X158006600Y-80522470D01*
X157983240Y-80497094D01*
X157983239Y-80497093D01*
X157983237Y-80497091D01*
X157863679Y-80404035D01*
X157805576Y-80358811D01*
X157607574Y-80251658D01*
X157607572Y-80251657D01*
X157607571Y-80251656D01*
X157394639Y-80178557D01*
X157394630Y-80178555D01*
X157317029Y-80165606D01*
X157172569Y-80141500D01*
X156947431Y-80141500D01*
X156802971Y-80165606D01*
X156725369Y-80178555D01*
X156725360Y-80178557D01*
X156512428Y-80251656D01*
X156512426Y-80251658D01*
X156314426Y-80358810D01*
X156314424Y-80358811D01*
X156136762Y-80497091D01*
X155984279Y-80662729D01*
X155895483Y-80798643D01*
X155841479Y-80844731D01*
X155771131Y-80854306D01*
X155706774Y-80824329D01*
X155684517Y-80798643D01*
X155595720Y-80662729D01*
X155466600Y-80522470D01*
X155443240Y-80497094D01*
X155443239Y-80497093D01*
X155443237Y-80497091D01*
X155323679Y-80404035D01*
X155265576Y-80358811D01*
X155067574Y-80251658D01*
X155067572Y-80251657D01*
X155067571Y-80251656D01*
X154854639Y-80178557D01*
X154854630Y-80178555D01*
X154777029Y-80165606D01*
X154632569Y-80141500D01*
X154407431Y-80141500D01*
X154262971Y-80165606D01*
X154185369Y-80178555D01*
X154185360Y-80178557D01*
X153972428Y-80251656D01*
X153972426Y-80251658D01*
X153774426Y-80358810D01*
X153774424Y-80358811D01*
X153596762Y-80497091D01*
X153444279Y-80662729D01*
X153355483Y-80798643D01*
X153301479Y-80844731D01*
X153231131Y-80854306D01*
X153166774Y-80824329D01*
X153144517Y-80798643D01*
X153055720Y-80662729D01*
X152926600Y-80522470D01*
X152903240Y-80497094D01*
X152903239Y-80497093D01*
X152903237Y-80497091D01*
X152783679Y-80404035D01*
X152725576Y-80358811D01*
X152527574Y-80251658D01*
X152527572Y-80251657D01*
X152527571Y-80251656D01*
X152314639Y-80178557D01*
X152314630Y-80178555D01*
X152237029Y-80165606D01*
X152092569Y-80141500D01*
X151867431Y-80141500D01*
X151722971Y-80165606D01*
X151645369Y-80178555D01*
X151645360Y-80178557D01*
X151432428Y-80251656D01*
X151432426Y-80251658D01*
X151234426Y-80358810D01*
X151234424Y-80358811D01*
X151056762Y-80497091D01*
X150904279Y-80662729D01*
X150815483Y-80798643D01*
X150761479Y-80844731D01*
X150691131Y-80854306D01*
X150626774Y-80824329D01*
X150604517Y-80798643D01*
X150515720Y-80662729D01*
X150386600Y-80522470D01*
X150363240Y-80497094D01*
X150363239Y-80497093D01*
X150363237Y-80497091D01*
X150243679Y-80404035D01*
X150185576Y-80358811D01*
X149987574Y-80251658D01*
X149987572Y-80251657D01*
X149987571Y-80251656D01*
X149774639Y-80178557D01*
X149774630Y-80178555D01*
X149697029Y-80165606D01*
X149552569Y-80141500D01*
X149327431Y-80141500D01*
X149182971Y-80165606D01*
X149105369Y-80178555D01*
X149105360Y-80178557D01*
X148892428Y-80251656D01*
X148892426Y-80251658D01*
X148694426Y-80358810D01*
X148694424Y-80358811D01*
X148516762Y-80497091D01*
X148364279Y-80662729D01*
X148275483Y-80798643D01*
X148221479Y-80844731D01*
X148151131Y-80854306D01*
X148086774Y-80824329D01*
X148064517Y-80798643D01*
X147975720Y-80662729D01*
X147846600Y-80522470D01*
X147823240Y-80497094D01*
X147823239Y-80497093D01*
X147823237Y-80497091D01*
X147703679Y-80404035D01*
X147645576Y-80358811D01*
X147447574Y-80251658D01*
X147447572Y-80251657D01*
X147447571Y-80251656D01*
X147234639Y-80178557D01*
X147234630Y-80178555D01*
X147157029Y-80165606D01*
X147012569Y-80141500D01*
X146787431Y-80141500D01*
X146642971Y-80165606D01*
X146565369Y-80178555D01*
X146565360Y-80178557D01*
X146352428Y-80251656D01*
X146352426Y-80251658D01*
X146154426Y-80358810D01*
X146154424Y-80358811D01*
X145976762Y-80497091D01*
X145824279Y-80662729D01*
X145735483Y-80798643D01*
X145681479Y-80844731D01*
X145611131Y-80854306D01*
X145546774Y-80824329D01*
X145524517Y-80798643D01*
X145435720Y-80662729D01*
X145306600Y-80522470D01*
X145283240Y-80497094D01*
X145283239Y-80497093D01*
X145283237Y-80497091D01*
X145163679Y-80404035D01*
X145105576Y-80358811D01*
X144907574Y-80251658D01*
X144907572Y-80251657D01*
X144907571Y-80251656D01*
X144694639Y-80178557D01*
X144694630Y-80178555D01*
X144617029Y-80165606D01*
X144472569Y-80141500D01*
X144247431Y-80141500D01*
X144102971Y-80165606D01*
X144025369Y-80178555D01*
X144025360Y-80178557D01*
X143812428Y-80251656D01*
X143812426Y-80251658D01*
X143614426Y-80358810D01*
X143614424Y-80358811D01*
X143436762Y-80497091D01*
X143284279Y-80662729D01*
X143195483Y-80798643D01*
X143141479Y-80844731D01*
X143071131Y-80854306D01*
X143006774Y-80824329D01*
X142984517Y-80798643D01*
X142895720Y-80662729D01*
X142766600Y-80522470D01*
X142743240Y-80497094D01*
X142743239Y-80497093D01*
X142743237Y-80497091D01*
X142623679Y-80404035D01*
X142565576Y-80358811D01*
X142367574Y-80251658D01*
X142367572Y-80251657D01*
X142367571Y-80251656D01*
X142154639Y-80178557D01*
X142154630Y-80178555D01*
X142077029Y-80165606D01*
X141932569Y-80141500D01*
X141707431Y-80141500D01*
X141562971Y-80165606D01*
X141485369Y-80178555D01*
X141485360Y-80178557D01*
X141272428Y-80251656D01*
X141272426Y-80251658D01*
X141074426Y-80358810D01*
X141074424Y-80358811D01*
X140896762Y-80497091D01*
X140744279Y-80662729D01*
X140655483Y-80798643D01*
X140601479Y-80844731D01*
X140531131Y-80854306D01*
X140466774Y-80824329D01*
X140444517Y-80798643D01*
X140355720Y-80662729D01*
X140226600Y-80522470D01*
X140203240Y-80497094D01*
X140203239Y-80497093D01*
X140203237Y-80497091D01*
X140083679Y-80404035D01*
X140025576Y-80358811D01*
X139827574Y-80251658D01*
X139827572Y-80251657D01*
X139827571Y-80251656D01*
X139614639Y-80178557D01*
X139614630Y-80178555D01*
X139537029Y-80165606D01*
X139392569Y-80141500D01*
X139167431Y-80141500D01*
X139022971Y-80165606D01*
X138945369Y-80178555D01*
X138945360Y-80178557D01*
X138732428Y-80251656D01*
X138732426Y-80251658D01*
X138534426Y-80358810D01*
X138534424Y-80358811D01*
X138356762Y-80497091D01*
X138204279Y-80662729D01*
X138115183Y-80799101D01*
X138061179Y-80845189D01*
X137990831Y-80854764D01*
X137926474Y-80824786D01*
X137904217Y-80799100D01*
X137815327Y-80663044D01*
X137662902Y-80497465D01*
X137485301Y-80359232D01*
X137485300Y-80359231D01*
X137287371Y-80252117D01*
X137287369Y-80252116D01*
X137074512Y-80179043D01*
X137074501Y-80179040D01*
X136994000Y-80165606D01*
X136994000Y-81069297D01*
X136932993Y-81034075D01*
X136805826Y-81000000D01*
X136674174Y-81000000D01*
X136547007Y-81034075D01*
X136486000Y-81069297D01*
X136486000Y-80165607D01*
X136485999Y-80165606D01*
X136405498Y-80179040D01*
X136405487Y-80179043D01*
X136192630Y-80252116D01*
X136192628Y-80252117D01*
X135994699Y-80359231D01*
X135994698Y-80359232D01*
X135817097Y-80497465D01*
X135664670Y-80663045D01*
X135575780Y-80799101D01*
X135521776Y-80845189D01*
X135451428Y-80854764D01*
X135387071Y-80824786D01*
X135364816Y-80799101D01*
X135283440Y-80674545D01*
X135275724Y-80662734D01*
X135275720Y-80662729D01*
X135146600Y-80522470D01*
X135123240Y-80497094D01*
X135123239Y-80497093D01*
X135123237Y-80497091D01*
X135003679Y-80404035D01*
X134945576Y-80358811D01*
X134747574Y-80251658D01*
X134747572Y-80251657D01*
X134747571Y-80251656D01*
X134534639Y-80178557D01*
X134534630Y-80178555D01*
X134457029Y-80165606D01*
X134312569Y-80141500D01*
X134087431Y-80141500D01*
X133942971Y-80165606D01*
X133865369Y-80178555D01*
X133865360Y-80178557D01*
X133652428Y-80251656D01*
X133652426Y-80251658D01*
X133454426Y-80358810D01*
X133454424Y-80358811D01*
X133276762Y-80497091D01*
X133124279Y-80662729D01*
X133035483Y-80798643D01*
X132981479Y-80844731D01*
X132911131Y-80854306D01*
X132846774Y-80824329D01*
X132824517Y-80798643D01*
X132735720Y-80662729D01*
X132606600Y-80522470D01*
X132583240Y-80497094D01*
X132583239Y-80497093D01*
X132583237Y-80497091D01*
X132463679Y-80404035D01*
X132405576Y-80358811D01*
X132207574Y-80251658D01*
X132207572Y-80251657D01*
X132207571Y-80251656D01*
X131994639Y-80178557D01*
X131994630Y-80178555D01*
X131917029Y-80165606D01*
X131772569Y-80141500D01*
X131547431Y-80141500D01*
X131402971Y-80165606D01*
X131325369Y-80178555D01*
X131325360Y-80178557D01*
X131112428Y-80251656D01*
X131112426Y-80251658D01*
X130914426Y-80358810D01*
X130914424Y-80358811D01*
X130736762Y-80497091D01*
X130584279Y-80662729D01*
X130495483Y-80798643D01*
X130441479Y-80844731D01*
X130371131Y-80854306D01*
X130306774Y-80824329D01*
X130284517Y-80798643D01*
X130195720Y-80662729D01*
X130066600Y-80522470D01*
X130043240Y-80497094D01*
X130043239Y-80497093D01*
X130043237Y-80497091D01*
X129923679Y-80404035D01*
X129865576Y-80358811D01*
X129667574Y-80251658D01*
X129667572Y-80251657D01*
X129667571Y-80251656D01*
X129454639Y-80178557D01*
X129454630Y-80178555D01*
X129377029Y-80165606D01*
X129232569Y-80141500D01*
X129007431Y-80141500D01*
X128862971Y-80165606D01*
X128785369Y-80178555D01*
X128785360Y-80178557D01*
X128572428Y-80251656D01*
X128572426Y-80251658D01*
X128374426Y-80358810D01*
X128374424Y-80358811D01*
X128196762Y-80497091D01*
X128044279Y-80662729D01*
X127955483Y-80798643D01*
X127901479Y-80844731D01*
X127831131Y-80854306D01*
X127766774Y-80824329D01*
X127744517Y-80798643D01*
X127655720Y-80662729D01*
X127526600Y-80522470D01*
X127503240Y-80497094D01*
X127503239Y-80497093D01*
X127503237Y-80497091D01*
X127383679Y-80404035D01*
X127325576Y-80358811D01*
X127127574Y-80251658D01*
X127127572Y-80251657D01*
X127127571Y-80251656D01*
X126914639Y-80178557D01*
X126914630Y-80178555D01*
X126837029Y-80165606D01*
X126692569Y-80141500D01*
X126467431Y-80141500D01*
X126322971Y-80165606D01*
X126245369Y-80178555D01*
X126245360Y-80178557D01*
X126032428Y-80251656D01*
X126032426Y-80251658D01*
X125834426Y-80358810D01*
X125834424Y-80358811D01*
X125656762Y-80497091D01*
X125504279Y-80662729D01*
X125415483Y-80798643D01*
X125361479Y-80844731D01*
X125291131Y-80854306D01*
X125226774Y-80824329D01*
X125204517Y-80798643D01*
X125115720Y-80662729D01*
X124986600Y-80522470D01*
X124963240Y-80497094D01*
X124963239Y-80497093D01*
X124963237Y-80497091D01*
X124843679Y-80404035D01*
X124785576Y-80358811D01*
X124587574Y-80251658D01*
X124587572Y-80251657D01*
X124587571Y-80251656D01*
X124374639Y-80178557D01*
X124374630Y-80178555D01*
X124297029Y-80165606D01*
X124152569Y-80141500D01*
X123927431Y-80141500D01*
X123782971Y-80165606D01*
X123705369Y-80178555D01*
X123705360Y-80178557D01*
X123492428Y-80251656D01*
X123492426Y-80251658D01*
X123294426Y-80358810D01*
X123294424Y-80358811D01*
X123116759Y-80497094D01*
X123055374Y-80563775D01*
X122994521Y-80600346D01*
X122923557Y-80598211D01*
X122865012Y-80558049D01*
X122844618Y-80522470D01*
X122800443Y-80404033D01*
X122712904Y-80287095D01*
X122595965Y-80199555D01*
X122459093Y-80148505D01*
X122398597Y-80142000D01*
X121754000Y-80142000D01*
X121754000Y-81069297D01*
X121692993Y-81034075D01*
X121565826Y-81000000D01*
X121434174Y-81000000D01*
X121307007Y-81034075D01*
X121246000Y-81069297D01*
X121246000Y-80142000D01*
X120601402Y-80142000D01*
X120540906Y-80148505D01*
X120404035Y-80199555D01*
X120404034Y-80199555D01*
X120287095Y-80287095D01*
X120199555Y-80404034D01*
X120199555Y-80404035D01*
X120148505Y-80540906D01*
X120142000Y-80601402D01*
X120142000Y-81246000D01*
X121069297Y-81246000D01*
X121034075Y-81307007D01*
X121000000Y-81434174D01*
X121000000Y-81565826D01*
X121034075Y-81692993D01*
X121069297Y-81754000D01*
X120142000Y-81754000D01*
X120142000Y-82398597D01*
X120148505Y-82459093D01*
X120199555Y-82595964D01*
X120199555Y-82595965D01*
X120287095Y-82712904D01*
X120404034Y-82800444D01*
X120540906Y-82851494D01*
X120601402Y-82857999D01*
X120601415Y-82858000D01*
X121246000Y-82858000D01*
X121246000Y-81930702D01*
X121307007Y-81965925D01*
X121434174Y-82000000D01*
X121565826Y-82000000D01*
X121692993Y-81965925D01*
X121754000Y-81930702D01*
X121754000Y-82858000D01*
X122398585Y-82858000D01*
X122398597Y-82857999D01*
X122459093Y-82851494D01*
X122595964Y-82800444D01*
X122595965Y-82800444D01*
X122712904Y-82712904D01*
X122800444Y-82595965D01*
X122844618Y-82477530D01*
X122887165Y-82420694D01*
X122953685Y-82395883D01*
X123023059Y-82410974D01*
X123055372Y-82436222D01*
X123076427Y-82459093D01*
X123116762Y-82502908D01*
X123171331Y-82545381D01*
X123294424Y-82641189D01*
X123492426Y-82748342D01*
X123492427Y-82748342D01*
X123492428Y-82748343D01*
X123604227Y-82786723D01*
X123705365Y-82821444D01*
X123927431Y-82858500D01*
X123927435Y-82858500D01*
X124152565Y-82858500D01*
X124152569Y-82858500D01*
X124374635Y-82821444D01*
X124587574Y-82748342D01*
X124785576Y-82641189D01*
X124963240Y-82502906D01*
X125115722Y-82337268D01*
X125115927Y-82336955D01*
X125121115Y-82329012D01*
X125204518Y-82201354D01*
X125258520Y-82155268D01*
X125328868Y-82145692D01*
X125393225Y-82175669D01*
X125415480Y-82201353D01*
X125448607Y-82252058D01*
X125504275Y-82337265D01*
X125504279Y-82337270D01*
X125656762Y-82502908D01*
X125711331Y-82545381D01*
X125834424Y-82641189D01*
X126032426Y-82748342D01*
X126032427Y-82748342D01*
X126032428Y-82748343D01*
X126144227Y-82786723D01*
X126245365Y-82821444D01*
X126467431Y-82858500D01*
X126467435Y-82858500D01*
X126692565Y-82858500D01*
X126692569Y-82858500D01*
X126914635Y-82821444D01*
X127127574Y-82748342D01*
X127325576Y-82641189D01*
X127503240Y-82502906D01*
X127655722Y-82337268D01*
X127655927Y-82336955D01*
X127661115Y-82329012D01*
X127744518Y-82201354D01*
X127798520Y-82155268D01*
X127868868Y-82145692D01*
X127933225Y-82175669D01*
X127955480Y-82201353D01*
X127988607Y-82252058D01*
X128044275Y-82337265D01*
X128044279Y-82337270D01*
X128196762Y-82502908D01*
X128251331Y-82545381D01*
X128374424Y-82641189D01*
X128572426Y-82748342D01*
X128572427Y-82748342D01*
X128572428Y-82748343D01*
X128684227Y-82786723D01*
X128785365Y-82821444D01*
X129007431Y-82858500D01*
X129007435Y-82858500D01*
X129232565Y-82858500D01*
X129232569Y-82858500D01*
X129454635Y-82821444D01*
X129667574Y-82748342D01*
X129865576Y-82641189D01*
X130043240Y-82502906D01*
X130195722Y-82337268D01*
X130195927Y-82336955D01*
X130201115Y-82329012D01*
X130284518Y-82201354D01*
X130338520Y-82155268D01*
X130408868Y-82145692D01*
X130473225Y-82175669D01*
X130495480Y-82201353D01*
X130528607Y-82252058D01*
X130584275Y-82337265D01*
X130584279Y-82337270D01*
X130736762Y-82502908D01*
X130791331Y-82545381D01*
X130914424Y-82641189D01*
X131112426Y-82748342D01*
X131112427Y-82748342D01*
X131112428Y-82748343D01*
X131224227Y-82786723D01*
X131325365Y-82821444D01*
X131547431Y-82858500D01*
X131547435Y-82858500D01*
X131772565Y-82858500D01*
X131772569Y-82858500D01*
X131994635Y-82821444D01*
X132207574Y-82748342D01*
X132405576Y-82641189D01*
X132583240Y-82502906D01*
X132735722Y-82337268D01*
X132735927Y-82336955D01*
X132741115Y-82329012D01*
X132824518Y-82201354D01*
X132878520Y-82155268D01*
X132948868Y-82145692D01*
X133013225Y-82175669D01*
X133035480Y-82201353D01*
X133068607Y-82252058D01*
X133124275Y-82337265D01*
X133124279Y-82337270D01*
X133276762Y-82502908D01*
X133331331Y-82545381D01*
X133454424Y-82641189D01*
X133652426Y-82748342D01*
X133652427Y-82748342D01*
X133652428Y-82748343D01*
X133764227Y-82786723D01*
X133865365Y-82821444D01*
X134087431Y-82858500D01*
X134087435Y-82858500D01*
X134312565Y-82858500D01*
X134312569Y-82858500D01*
X134534635Y-82821444D01*
X134747574Y-82748342D01*
X134945576Y-82641189D01*
X135123240Y-82502906D01*
X135275722Y-82337268D01*
X135275927Y-82336955D01*
X135291122Y-82313695D01*
X135364816Y-82200898D01*
X135418819Y-82154810D01*
X135489167Y-82145235D01*
X135553524Y-82175212D01*
X135575782Y-82200898D01*
X135664674Y-82336958D01*
X135817097Y-82502534D01*
X135994698Y-82640767D01*
X135994699Y-82640768D01*
X136192628Y-82747882D01*
X136192630Y-82747883D01*
X136405483Y-82820955D01*
X136405492Y-82820957D01*
X136486000Y-82834391D01*
X136486000Y-81930702D01*
X136547007Y-81965925D01*
X136674174Y-82000000D01*
X136805826Y-82000000D01*
X136932993Y-81965925D01*
X136994000Y-81930702D01*
X136994000Y-82834390D01*
X137074507Y-82820957D01*
X137074516Y-82820955D01*
X137287369Y-82747883D01*
X137287371Y-82747882D01*
X137485300Y-82640768D01*
X137485301Y-82640767D01*
X137662902Y-82502534D01*
X137815327Y-82336955D01*
X137904217Y-82200899D01*
X137958220Y-82154810D01*
X138028568Y-82145235D01*
X138092925Y-82175212D01*
X138115183Y-82200898D01*
X138204279Y-82337270D01*
X138356762Y-82502908D01*
X138411331Y-82545381D01*
X138534424Y-82641189D01*
X138717751Y-82740400D01*
X138768142Y-82790413D01*
X138783494Y-82859730D01*
X138758933Y-82926343D01*
X138746877Y-82940309D01*
X137661084Y-84026104D01*
X137618593Y-84068594D01*
X137576103Y-84111084D01*
X137508641Y-84212047D01*
X137506964Y-84216736D01*
X137463346Y-84322038D01*
X137463344Y-84322042D01*
X137450476Y-84386739D01*
X137439900Y-84439904D01*
X137439900Y-96194307D01*
X137419898Y-96262428D01*
X137402999Y-96283397D01*
X137274644Y-96411753D01*
X137261057Y-96425340D01*
X137198745Y-96459365D01*
X137127929Y-96454300D01*
X137071094Y-96411753D01*
X137046754Y-96350353D01*
X137043217Y-96318953D01*
X136983043Y-96146985D01*
X136983041Y-96146982D01*
X136983041Y-96146981D01*
X136886112Y-95992720D01*
X136886111Y-95992718D01*
X136757281Y-95863888D01*
X136757279Y-95863887D01*
X136603018Y-95766958D01*
X136603015Y-95766957D01*
X136431050Y-95706784D01*
X136431049Y-95706783D01*
X136431047Y-95706783D01*
X136250000Y-95686384D01*
X136068953Y-95706783D01*
X136068950Y-95706783D01*
X136068949Y-95706784D01*
X135896984Y-95766957D01*
X135896981Y-95766958D01*
X135742720Y-95863887D01*
X135742718Y-95863888D01*
X135613888Y-95992718D01*
X135613887Y-95992720D01*
X135516958Y-96146981D01*
X135516957Y-96146984D01*
X135476887Y-96261500D01*
X135456783Y-96318953D01*
X135436384Y-96500000D01*
X135456783Y-96681047D01*
X135456783Y-96681049D01*
X135456784Y-96681050D01*
X135516957Y-96853015D01*
X135516958Y-96853018D01*
X135613887Y-97007279D01*
X135613888Y-97007281D01*
X135747722Y-97141115D01*
X135746778Y-97142058D01*
X135783247Y-97194014D01*
X135789900Y-97234415D01*
X135789900Y-104115095D01*
X135806646Y-104199282D01*
X135813345Y-104232960D01*
X135845865Y-104311470D01*
X135845865Y-104311471D01*
X135845864Y-104311471D01*
X135859331Y-104343983D01*
X135859335Y-104343989D01*
X135859336Y-104343991D01*
X135926104Y-104443916D01*
X136833594Y-105351406D01*
X136867618Y-105413717D01*
X136862554Y-105484532D01*
X136820007Y-105541368D01*
X136753487Y-105566179D01*
X136744498Y-105566500D01*
X136617431Y-105566500D01*
X136472971Y-105590606D01*
X136395369Y-105603555D01*
X136395360Y-105603557D01*
X136182428Y-105676656D01*
X136182426Y-105676658D01*
X135984426Y-105783810D01*
X135984424Y-105783811D01*
X135806762Y-105922091D01*
X135654279Y-106087729D01*
X135565483Y-106223643D01*
X135511479Y-106269731D01*
X135441131Y-106279306D01*
X135376774Y-106249329D01*
X135354517Y-106223643D01*
X135265720Y-106087729D01*
X135136220Y-105947057D01*
X135113240Y-105922094D01*
X135113239Y-105922093D01*
X135113237Y-105922091D01*
X134993367Y-105828792D01*
X134935576Y-105783811D01*
X134737574Y-105676658D01*
X134737572Y-105676657D01*
X134737571Y-105676656D01*
X134524639Y-105603557D01*
X134524630Y-105603555D01*
X134447029Y-105590606D01*
X134302569Y-105566500D01*
X134077431Y-105566500D01*
X133932971Y-105590606D01*
X133855369Y-105603555D01*
X133855360Y-105603557D01*
X133642428Y-105676656D01*
X133642426Y-105676658D01*
X133444426Y-105783810D01*
X133444424Y-105783811D01*
X133266762Y-105922091D01*
X133114279Y-106087729D01*
X133025483Y-106223643D01*
X132971479Y-106269731D01*
X132901131Y-106279306D01*
X132836774Y-106249329D01*
X132814517Y-106223643D01*
X132725720Y-106087729D01*
X132596220Y-105947057D01*
X132573240Y-105922094D01*
X132573239Y-105922093D01*
X132573237Y-105922091D01*
X132453367Y-105828792D01*
X132395576Y-105783811D01*
X132197574Y-105676658D01*
X132197572Y-105676657D01*
X132197571Y-105676656D01*
X131984639Y-105603557D01*
X131984630Y-105603555D01*
X131907029Y-105590606D01*
X131762569Y-105566500D01*
X131537431Y-105566500D01*
X131392971Y-105590606D01*
X131315369Y-105603555D01*
X131315360Y-105603557D01*
X131102428Y-105676656D01*
X131102426Y-105676658D01*
X130904426Y-105783810D01*
X130904424Y-105783811D01*
X130726762Y-105922091D01*
X130574279Y-106087729D01*
X130485483Y-106223643D01*
X130431479Y-106269731D01*
X130361131Y-106279306D01*
X130296774Y-106249329D01*
X130274517Y-106223643D01*
X130185720Y-106087729D01*
X130056220Y-105947057D01*
X130033240Y-105922094D01*
X130033239Y-105922093D01*
X130033237Y-105922091D01*
X129913367Y-105828792D01*
X129855576Y-105783811D01*
X129657574Y-105676658D01*
X129657572Y-105676657D01*
X129657571Y-105676656D01*
X129444639Y-105603557D01*
X129444630Y-105603555D01*
X129367029Y-105590606D01*
X129222569Y-105566500D01*
X128997431Y-105566500D01*
X128852971Y-105590606D01*
X128775369Y-105603555D01*
X128775360Y-105603557D01*
X128562428Y-105676656D01*
X128562426Y-105676658D01*
X128364426Y-105783810D01*
X128364424Y-105783811D01*
X128186762Y-105922091D01*
X128034279Y-106087729D01*
X127945483Y-106223643D01*
X127891479Y-106269731D01*
X127821131Y-106279306D01*
X127756774Y-106249329D01*
X127734517Y-106223643D01*
X127645720Y-106087729D01*
X127516220Y-105947057D01*
X127493240Y-105922094D01*
X127493239Y-105922093D01*
X127493237Y-105922091D01*
X127373367Y-105828792D01*
X127315576Y-105783811D01*
X127117574Y-105676658D01*
X127117572Y-105676657D01*
X127117571Y-105676656D01*
X126904639Y-105603557D01*
X126904630Y-105603555D01*
X126827029Y-105590606D01*
X126682569Y-105566500D01*
X126457431Y-105566500D01*
X126312971Y-105590606D01*
X126235369Y-105603555D01*
X126235360Y-105603557D01*
X126022428Y-105676656D01*
X126022426Y-105676658D01*
X125824426Y-105783810D01*
X125824424Y-105783811D01*
X125646762Y-105922091D01*
X125494279Y-106087729D01*
X125405483Y-106223643D01*
X125351479Y-106269731D01*
X125281131Y-106279306D01*
X125216774Y-106249329D01*
X125194517Y-106223643D01*
X125105720Y-106087729D01*
X124976220Y-105947057D01*
X124953240Y-105922094D01*
X124953239Y-105922093D01*
X124953237Y-105922091D01*
X124833367Y-105828792D01*
X124775576Y-105783811D01*
X124577574Y-105676658D01*
X124577572Y-105676657D01*
X124577571Y-105676656D01*
X124364639Y-105603557D01*
X124364630Y-105603555D01*
X124287029Y-105590606D01*
X124142569Y-105566500D01*
X123917431Y-105566500D01*
X123772971Y-105590606D01*
X123695369Y-105603555D01*
X123695360Y-105603557D01*
X123482428Y-105676656D01*
X123482426Y-105676658D01*
X123284426Y-105783810D01*
X123284424Y-105783811D01*
X123106762Y-105922091D01*
X123045754Y-105988363D01*
X122984901Y-106024933D01*
X122913936Y-106022798D01*
X122855391Y-105982636D01*
X122834999Y-105947057D01*
X122790889Y-105828797D01*
X122790887Y-105828792D01*
X122703261Y-105711738D01*
X122586207Y-105624112D01*
X122586202Y-105624110D01*
X122449204Y-105573011D01*
X122449196Y-105573009D01*
X122388649Y-105566500D01*
X122388638Y-105566500D01*
X120591362Y-105566500D01*
X120591350Y-105566500D01*
X120530803Y-105573009D01*
X120530795Y-105573011D01*
X120393797Y-105624110D01*
X120393792Y-105624112D01*
X120276738Y-105711738D01*
X120189112Y-105828792D01*
X120189110Y-105828797D01*
X120138011Y-105965795D01*
X120138009Y-105965803D01*
X120131500Y-106026350D01*
X116850000Y-106026350D01*
X116850000Y-86700000D01*
X133286384Y-86700000D01*
X133306783Y-86881047D01*
X133306783Y-86881049D01*
X133306784Y-86881050D01*
X133366956Y-87053014D01*
X133381687Y-87076457D01*
X133401000Y-87143494D01*
X133401000Y-92256505D01*
X133381688Y-92323540D01*
X133366957Y-92346984D01*
X133366957Y-92346985D01*
X133306783Y-92518953D01*
X133286384Y-92700000D01*
X133306783Y-92881047D01*
X133306783Y-92881049D01*
X133306784Y-92881050D01*
X133366956Y-93053014D01*
X133381687Y-93076457D01*
X133401000Y-93143494D01*
X133401000Y-97206505D01*
X133381688Y-97273540D01*
X133366957Y-97296984D01*
X133366957Y-97296985D01*
X133306783Y-97468953D01*
X133286384Y-97650000D01*
X133306783Y-97831047D01*
X133306783Y-97831049D01*
X133306784Y-97831050D01*
X133366957Y-98003015D01*
X133366958Y-98003018D01*
X133463887Y-98157279D01*
X133463888Y-98157281D01*
X133592718Y-98286111D01*
X133592720Y-98286112D01*
X133746981Y-98383041D01*
X133746982Y-98383041D01*
X133746985Y-98383043D01*
X133918953Y-98443217D01*
X134100000Y-98463616D01*
X134281047Y-98443217D01*
X134453015Y-98383043D01*
X134607281Y-98286111D01*
X134736111Y-98157281D01*
X134833043Y-98003015D01*
X134893217Y-97831047D01*
X134913616Y-97650000D01*
X134893217Y-97468953D01*
X134833043Y-97296985D01*
X134826787Y-97287029D01*
X134818312Y-97273540D01*
X134799000Y-97206505D01*
X134799000Y-93143494D01*
X134818313Y-93076457D01*
X134833043Y-93053015D01*
X134893217Y-92881047D01*
X134913616Y-92700000D01*
X134893217Y-92518953D01*
X134833043Y-92346985D01*
X134826787Y-92337029D01*
X134818312Y-92323540D01*
X134799000Y-92256505D01*
X134799000Y-87143494D01*
X134818313Y-87076457D01*
X134833043Y-87053015D01*
X134893217Y-86881047D01*
X134913616Y-86700000D01*
X134893217Y-86518953D01*
X134833043Y-86346985D01*
X134833041Y-86346982D01*
X134833041Y-86346981D01*
X134736112Y-86192720D01*
X134736111Y-86192718D01*
X134607281Y-86063888D01*
X134607279Y-86063887D01*
X134453018Y-85966958D01*
X134453015Y-85966957D01*
X134281050Y-85906784D01*
X134281049Y-85906783D01*
X134281047Y-85906783D01*
X134100000Y-85886384D01*
X133918953Y-85906783D01*
X133918950Y-85906783D01*
X133918949Y-85906784D01*
X133746984Y-85966957D01*
X133746981Y-85966958D01*
X133592720Y-86063887D01*
X133592718Y-86063888D01*
X133463888Y-86192718D01*
X133463887Y-86192720D01*
X133366958Y-86346981D01*
X133366957Y-86346984D01*
X133313888Y-86498649D01*
X133306783Y-86518953D01*
X133286384Y-86700000D01*
X116850000Y-86700000D01*
X116850000Y-81624996D01*
X116844598Y-81494516D01*
X116844891Y-81479259D01*
X116852659Y-81382139D01*
X116865630Y-81219960D01*
X116868195Y-81202834D01*
X116924103Y-80949859D01*
X116928998Y-80933235D01*
X117019103Y-80690321D01*
X117026225Y-80674545D01*
X117148827Y-80446285D01*
X117158047Y-80431637D01*
X117310810Y-80222380D01*
X117321967Y-80209121D01*
X117502001Y-80022820D01*
X117514861Y-80011225D01*
X117718785Y-79851382D01*
X117733101Y-79841672D01*
X117957028Y-79711337D01*
X117972552Y-79703678D01*
X118212257Y-79605310D01*
X118228687Y-79599855D01*
X118479608Y-79535325D01*
X118496631Y-79532177D01*
X118755088Y-79502578D01*
X118770295Y-79501764D01*
X118900905Y-79502674D01*
G37*
%TD.AperFunction*%
%TD*%
M02*
