%TF.GenerationSoftware,KiCad,Pcbnew,(6.99.0-2815-gbbc0c61ccb)*%
%TF.CreationDate,2023-01-22T02:42:39+07:00*%
%TF.ProjectId,ESP32-MODBUS-RS485-SHIELD,45535033-322d-44d4-9f44-4255532d5253,rev?*%
%TF.SameCoordinates,Original*%
%TF.FileFunction,Drillmap*%
%TF.FilePolarity,Positive*%
%FSLAX45Y45*%
G04 Gerber Fmt 4.5, Leading zero omitted, Abs format (unit mm)*
G04 Created by KiCad (PCBNEW (6.99.0-2815-gbbc0c61ccb)) date 2023-01-22 02:42:39*
%MOMM*%
%LPD*%
G01*
G04 APERTURE LIST*
%ADD10C,0.100000*%
%ADD11C,0.200000*%
%ADD12C,0.030000*%
%ADD13C,0.040000*%
%ADD14C,0.120000*%
G04 APERTURE END LIST*
D10*
X11890090Y-7950270D02*
G75*
G03*
X11685000Y-8162500I-4750J-200620D01*
G01*
X16985000Y-10892500D02*
X11885000Y-10892500D01*
X11685000Y-10692500D02*
G75*
G03*
X11885000Y-10892500I200000J0D01*
G01*
X17185000Y-8152500D02*
G75*
G03*
X16985000Y-7952500I-200000J0D01*
G01*
X17185000Y-8152500D02*
X17185000Y-10692500D01*
X11685000Y-10692500D02*
X11685000Y-8162500D01*
X11890090Y-7950267D02*
X16985000Y-7952500D01*
X16985000Y-10892500D02*
G75*
G03*
X17185000Y-10692500I0J200000D01*
G01*
D11*
D12*
X13240000Y-10420000D02*
X13270000Y-10450000D01*
X13270000Y-10420000D02*
X13240000Y-10450000D01*
X13250000Y-9730000D02*
X13280000Y-9760000D01*
X13280000Y-9730000D02*
X13250000Y-9760000D01*
X13250000Y-9895000D02*
X13280000Y-9925000D01*
X13280000Y-9895000D02*
X13250000Y-9925000D01*
X13260000Y-9285000D02*
X13290000Y-9315000D01*
X13290000Y-9285000D02*
X13260000Y-9315000D01*
X13265000Y-9150000D02*
X13295000Y-9180000D01*
X13295000Y-9150000D02*
X13265000Y-9180000D01*
X13395000Y-8655000D02*
X13425000Y-8685000D01*
X13425000Y-8655000D02*
X13395000Y-8685000D01*
X13395000Y-9255000D02*
X13425000Y-9285000D01*
X13425000Y-9255000D02*
X13395000Y-9285000D01*
X13395000Y-9750000D02*
X13425000Y-9780000D01*
X13425000Y-9750000D02*
X13395000Y-9780000D01*
X13475000Y-10420000D02*
X13505000Y-10450000D01*
X13505000Y-10420000D02*
X13475000Y-10450000D01*
X13520000Y-9735000D02*
X13550000Y-9765000D01*
X13550000Y-9735000D02*
X13520000Y-9765000D01*
X13575000Y-9120000D02*
X13605000Y-9150000D01*
X13605000Y-9120000D02*
X13575000Y-9150000D01*
X13610000Y-9635000D02*
X13640000Y-9665000D01*
X13640000Y-9635000D02*
X13610000Y-9665000D01*
X13690000Y-9120000D02*
X13720000Y-9150000D01*
X13720000Y-9120000D02*
X13690000Y-9150000D01*
X13745000Y-10215000D02*
X13775000Y-10245000D01*
X13775000Y-10215000D02*
X13745000Y-10245000D01*
X13850000Y-9660000D02*
X13880000Y-9690000D01*
X13880000Y-9660000D02*
X13850000Y-9690000D01*
X13850000Y-9765000D02*
X13880000Y-9795000D01*
X13880000Y-9765000D02*
X13850000Y-9795000D01*
X13854890Y-8995000D02*
X13884890Y-9025000D01*
X13884890Y-8995000D02*
X13854890Y-9025000D01*
X13875000Y-10280000D02*
X13905000Y-10310000D01*
X13905000Y-10280000D02*
X13875000Y-10310000D01*
X13885000Y-9480000D02*
X13915000Y-9510000D01*
X13915000Y-9480000D02*
X13885000Y-9510000D01*
X13965000Y-10020000D02*
X13995000Y-10050000D01*
X13995000Y-10020000D02*
X13965000Y-10050000D01*
X13990000Y-8665000D02*
X14020000Y-8695000D01*
X14020000Y-8665000D02*
X13990000Y-8695000D01*
X14075000Y-9230000D02*
X14105000Y-9260000D01*
X14105000Y-9230000D02*
X14075000Y-9260000D01*
X14080000Y-8955000D02*
X14110000Y-8985000D01*
X14110000Y-8955000D02*
X14080000Y-8985000D01*
X14125000Y-10280000D02*
X14155000Y-10310000D01*
X14155000Y-10280000D02*
X14125000Y-10310000D01*
X14525000Y-10110000D02*
X14555000Y-10140000D01*
X14555000Y-10110000D02*
X14525000Y-10140000D01*
X14655000Y-9210000D02*
X14685000Y-9240000D01*
X14685000Y-9210000D02*
X14655000Y-9240000D01*
X14760000Y-10110000D02*
X14790000Y-10140000D01*
X14790000Y-10110000D02*
X14760000Y-10140000D01*
X14765000Y-8875000D02*
X14795000Y-8905000D01*
X14795000Y-8875000D02*
X14765000Y-8905000D01*
X14875000Y-9210000D02*
X14905000Y-9240000D01*
X14905000Y-9210000D02*
X14875000Y-9240000D01*
X15285000Y-10060000D02*
X15315000Y-10090000D01*
X15315000Y-10060000D02*
X15285000Y-10090000D01*
X15285000Y-10305000D02*
X15315000Y-10335000D01*
X15315000Y-10305000D02*
X15285000Y-10335000D01*
X15290000Y-9210000D02*
X15320000Y-9240000D01*
X15320000Y-9210000D02*
X15290000Y-9240000D01*
X15795000Y-9390000D02*
X15825000Y-9420000D01*
X15825000Y-9390000D02*
X15795000Y-9420000D01*
X15815000Y-10255000D02*
X15845000Y-10285000D01*
X15845000Y-10255000D02*
X15815000Y-10285000D01*
X16065000Y-8830000D02*
X16095000Y-8860000D01*
X16095000Y-8830000D02*
X16065000Y-8860000D01*
X16065000Y-10025000D02*
X16095000Y-10055000D01*
X16095000Y-10025000D02*
X16065000Y-10055000D01*
X16080000Y-9595000D02*
X16110000Y-9625000D01*
X16110000Y-9595000D02*
X16080000Y-9625000D01*
X16135000Y-8895000D02*
X16165000Y-8925000D01*
X16165000Y-8895000D02*
X16135000Y-8925000D01*
X16530000Y-9225000D02*
X16560000Y-9255000D01*
X16560000Y-9225000D02*
X16530000Y-9255000D01*
D13*
X14720000Y-8670000D02*
G75*
G03*
X14720000Y-8670000I-20000J0D01*
G01*
X14825000Y-8670000D02*
G75*
G03*
X14825000Y-8670000I-20000J0D01*
G01*
D10*
X12149000Y-10642500D02*
X12149000Y-10742500D01*
X12099000Y-10692500D02*
X12199000Y-10692500D01*
X12150000Y-8100000D02*
X12150000Y-8200000D01*
X12100000Y-8150000D02*
X12200000Y-8150000D01*
X12403000Y-10642500D02*
X12403000Y-10742500D01*
X12353000Y-10692500D02*
X12453000Y-10692500D01*
X12404000Y-8100000D02*
X12404000Y-8200000D01*
X12354000Y-8150000D02*
X12454000Y-8150000D01*
X12657000Y-10642500D02*
X12657000Y-10742500D01*
X12607000Y-10692500D02*
X12707000Y-10692500D01*
X12658000Y-8100000D02*
X12658000Y-8200000D01*
X12608000Y-8150000D02*
X12708000Y-8150000D01*
X12911000Y-10642500D02*
X12911000Y-10742500D01*
X12861000Y-10692500D02*
X12961000Y-10692500D01*
X12912000Y-8100000D02*
X12912000Y-8200000D01*
X12862000Y-8150000D02*
X12962000Y-8150000D01*
X13165000Y-10642500D02*
X13165000Y-10742500D01*
X13115000Y-10692500D02*
X13215000Y-10692500D01*
X13166000Y-8100000D02*
X13166000Y-8200000D01*
X13116000Y-8150000D02*
X13216000Y-8150000D01*
X13419000Y-10642500D02*
X13419000Y-10742500D01*
X13369000Y-10692500D02*
X13469000Y-10692500D01*
X13420000Y-8100000D02*
X13420000Y-8200000D01*
X13370000Y-8150000D02*
X13470000Y-8150000D01*
X13673000Y-10642500D02*
X13673000Y-10742500D01*
X13623000Y-10692500D02*
X13723000Y-10692500D01*
X13674000Y-8100000D02*
X13674000Y-8200000D01*
X13624000Y-8150000D02*
X13724000Y-8150000D01*
X13927000Y-10642500D02*
X13927000Y-10742500D01*
X13877000Y-10692500D02*
X13977000Y-10692500D01*
X13928000Y-8100000D02*
X13928000Y-8200000D01*
X13878000Y-8150000D02*
X13978000Y-8150000D01*
X14181000Y-10642500D02*
X14181000Y-10742500D01*
X14131000Y-10692500D02*
X14231000Y-10692500D01*
X14182000Y-8100000D02*
X14182000Y-8200000D01*
X14132000Y-8150000D02*
X14232000Y-8150000D01*
X14435000Y-10642500D02*
X14435000Y-10742500D01*
X14385000Y-10692500D02*
X14485000Y-10692500D01*
X14436000Y-8100000D02*
X14436000Y-8200000D01*
X14386000Y-8150000D02*
X14486000Y-8150000D01*
X14689000Y-10642500D02*
X14689000Y-10742500D01*
X14639000Y-10692500D02*
X14739000Y-10692500D01*
X14690000Y-8100000D02*
X14690000Y-8200000D01*
X14640000Y-8150000D02*
X14740000Y-8150000D01*
X14943000Y-10642500D02*
X14943000Y-10742500D01*
X14893000Y-10692500D02*
X14993000Y-10692500D01*
X14944000Y-8100000D02*
X14944000Y-8200000D01*
X14894000Y-8150000D02*
X14994000Y-8150000D01*
X15197000Y-10642500D02*
X15197000Y-10742500D01*
X15147000Y-10692500D02*
X15247000Y-10692500D01*
X15198000Y-8100000D02*
X15198000Y-8200000D01*
X15148000Y-8150000D02*
X15248000Y-8150000D01*
X15451000Y-10642500D02*
X15451000Y-10742500D01*
X15401000Y-10692500D02*
X15501000Y-10692500D01*
X15452000Y-8100000D02*
X15452000Y-8200000D01*
X15402000Y-8150000D02*
X15502000Y-8150000D01*
X15705000Y-10642500D02*
X15705000Y-10742500D01*
X15655000Y-10692500D02*
X15755000Y-10692500D01*
X15706000Y-8100000D02*
X15706000Y-8200000D01*
X15656000Y-8150000D02*
X15756000Y-8150000D01*
X15959000Y-10642500D02*
X15959000Y-10742500D01*
X15909000Y-10692500D02*
X16009000Y-10692500D01*
X15960000Y-8100000D02*
X15960000Y-8200000D01*
X15910000Y-8150000D02*
X16010000Y-8150000D01*
X16213000Y-10642500D02*
X16213000Y-10742500D01*
X16163000Y-10692500D02*
X16263000Y-10692500D01*
X16214000Y-8100000D02*
X16214000Y-8200000D01*
X16164000Y-8150000D02*
X16264000Y-8150000D01*
X16413500Y-8510000D02*
X16413500Y-8610000D01*
X16363500Y-8560000D02*
X16463500Y-8560000D01*
X16467000Y-10642500D02*
X16467000Y-10742500D01*
X16417000Y-10692500D02*
X16517000Y-10692500D01*
X16468000Y-8100000D02*
X16468000Y-8200000D01*
X16418000Y-8150000D02*
X16518000Y-8150000D01*
X16667500Y-8510000D02*
X16667500Y-8610000D01*
X16617500Y-8560000D02*
X16717500Y-8560000D01*
X16721000Y-10642500D02*
X16721000Y-10742500D01*
X16671000Y-10692500D02*
X16771000Y-10692500D01*
X16722000Y-8100000D02*
X16722000Y-8200000D01*
X16672000Y-8150000D02*
X16772000Y-8150000D01*
D14*
X16409177Y-9109427D02*
X16409177Y-9024573D01*
X16324323Y-9024573D01*
X16324323Y-9109427D01*
X16409177Y-9109427D01*
X16409177Y-9459427D02*
X16409177Y-9374573D01*
X16324323Y-9374573D01*
X16324323Y-9459427D01*
X16409177Y-9459427D01*
X16409177Y-9809427D02*
X16409177Y-9724573D01*
X16324323Y-9724573D01*
X16324323Y-9809427D01*
X16409177Y-9809427D01*
D11*
X11927283Y-11190976D02*
X11927283Y-10990976D01*
X11927283Y-10990976D02*
X11974902Y-10990976D01*
X11974902Y-10990976D02*
X12003473Y-11000500D01*
X12003473Y-11000500D02*
X12022521Y-11019548D01*
X12022521Y-11019548D02*
X12032045Y-11038595D01*
X12032045Y-11038595D02*
X12041569Y-11076690D01*
X12041569Y-11076690D02*
X12041569Y-11105262D01*
X12041569Y-11105262D02*
X12032045Y-11143357D01*
X12032045Y-11143357D02*
X12022521Y-11162405D01*
X12022521Y-11162405D02*
X12003473Y-11181452D01*
X12003473Y-11181452D02*
X11974902Y-11190976D01*
X11974902Y-11190976D02*
X11927283Y-11190976D01*
X12127283Y-11190976D02*
X12127283Y-11057643D01*
X12127283Y-11095738D02*
X12136807Y-11076690D01*
X12136807Y-11076690D02*
X12146330Y-11067167D01*
X12146330Y-11067167D02*
X12165378Y-11057643D01*
X12165378Y-11057643D02*
X12184426Y-11057643D01*
X12251092Y-11190976D02*
X12251092Y-11057643D01*
X12251092Y-10990976D02*
X12241569Y-11000500D01*
X12241569Y-11000500D02*
X12251092Y-11010024D01*
X12251092Y-11010024D02*
X12260616Y-11000500D01*
X12260616Y-11000500D02*
X12251092Y-10990976D01*
X12251092Y-10990976D02*
X12251092Y-11010024D01*
X12374902Y-11190976D02*
X12355854Y-11181452D01*
X12355854Y-11181452D02*
X12346330Y-11162405D01*
X12346330Y-11162405D02*
X12346330Y-10990976D01*
X12479664Y-11190976D02*
X12460616Y-11181452D01*
X12460616Y-11181452D02*
X12451092Y-11162405D01*
X12451092Y-11162405D02*
X12451092Y-10990976D01*
X12675854Y-11190976D02*
X12675854Y-10990976D01*
X12675854Y-10990976D02*
X12742521Y-11133833D01*
X12742521Y-11133833D02*
X12809188Y-10990976D01*
X12809188Y-10990976D02*
X12809188Y-11190976D01*
X12990140Y-11190976D02*
X12990140Y-11086214D01*
X12990140Y-11086214D02*
X12980616Y-11067167D01*
X12980616Y-11067167D02*
X12961569Y-11057643D01*
X12961569Y-11057643D02*
X12923473Y-11057643D01*
X12923473Y-11057643D02*
X12904426Y-11067167D01*
X12990140Y-11181452D02*
X12971092Y-11190976D01*
X12971092Y-11190976D02*
X12923473Y-11190976D01*
X12923473Y-11190976D02*
X12904426Y-11181452D01*
X12904426Y-11181452D02*
X12894902Y-11162405D01*
X12894902Y-11162405D02*
X12894902Y-11143357D01*
X12894902Y-11143357D02*
X12904426Y-11124310D01*
X12904426Y-11124310D02*
X12923473Y-11114786D01*
X12923473Y-11114786D02*
X12971092Y-11114786D01*
X12971092Y-11114786D02*
X12990140Y-11105262D01*
X13085378Y-11057643D02*
X13085378Y-11257643D01*
X13085378Y-11067167D02*
X13104426Y-11057643D01*
X13104426Y-11057643D02*
X13142521Y-11057643D01*
X13142521Y-11057643D02*
X13161569Y-11067167D01*
X13161569Y-11067167D02*
X13171092Y-11076690D01*
X13171092Y-11076690D02*
X13180616Y-11095738D01*
X13180616Y-11095738D02*
X13180616Y-11152881D01*
X13180616Y-11152881D02*
X13171092Y-11171929D01*
X13171092Y-11171929D02*
X13161569Y-11181452D01*
X13161569Y-11181452D02*
X13142521Y-11190976D01*
X13142521Y-11190976D02*
X13104426Y-11190976D01*
X13104426Y-11190976D02*
X13085378Y-11181452D01*
X13266330Y-11171929D02*
X13275854Y-11181452D01*
X13275854Y-11181452D02*
X13266330Y-11190976D01*
X13266330Y-11190976D02*
X13256807Y-11181452D01*
X13256807Y-11181452D02*
X13266330Y-11171929D01*
X13266330Y-11171929D02*
X13266330Y-11190976D01*
X13266330Y-11067167D02*
X13275854Y-11076690D01*
X13275854Y-11076690D02*
X13266330Y-11086214D01*
X13266330Y-11086214D02*
X13256807Y-11076690D01*
X13256807Y-11076690D02*
X13266330Y-11067167D01*
X13266330Y-11067167D02*
X13266330Y-11086214D01*
D12*
X11649664Y-11522500D02*
X11679664Y-11552500D01*
X11679664Y-11522500D02*
X11649664Y-11552500D01*
D11*
X11965378Y-11410976D02*
X11984426Y-11410976D01*
X11984426Y-11410976D02*
X12003473Y-11420500D01*
X12003473Y-11420500D02*
X12012997Y-11430024D01*
X12012997Y-11430024D02*
X12022521Y-11449071D01*
X12022521Y-11449071D02*
X12032045Y-11487167D01*
X12032045Y-11487167D02*
X12032045Y-11534786D01*
X12032045Y-11534786D02*
X12022521Y-11572881D01*
X12022521Y-11572881D02*
X12012997Y-11591928D01*
X12012997Y-11591928D02*
X12003473Y-11601452D01*
X12003473Y-11601452D02*
X11984426Y-11610976D01*
X11984426Y-11610976D02*
X11965378Y-11610976D01*
X11965378Y-11610976D02*
X11946330Y-11601452D01*
X11946330Y-11601452D02*
X11936807Y-11591928D01*
X11936807Y-11591928D02*
X11927283Y-11572881D01*
X11927283Y-11572881D02*
X11917759Y-11534786D01*
X11917759Y-11534786D02*
X11917759Y-11487167D01*
X11917759Y-11487167D02*
X11927283Y-11449071D01*
X11927283Y-11449071D02*
X11936807Y-11430024D01*
X11936807Y-11430024D02*
X11946330Y-11420500D01*
X11946330Y-11420500D02*
X11965378Y-11410976D01*
X12117759Y-11591928D02*
X12127283Y-11601452D01*
X12127283Y-11601452D02*
X12117759Y-11610976D01*
X12117759Y-11610976D02*
X12108235Y-11601452D01*
X12108235Y-11601452D02*
X12117759Y-11591928D01*
X12117759Y-11591928D02*
X12117759Y-11610976D01*
X12193950Y-11410976D02*
X12317759Y-11410976D01*
X12317759Y-11410976D02*
X12251092Y-11487167D01*
X12251092Y-11487167D02*
X12279664Y-11487167D01*
X12279664Y-11487167D02*
X12298711Y-11496690D01*
X12298711Y-11496690D02*
X12308235Y-11506214D01*
X12308235Y-11506214D02*
X12317759Y-11525262D01*
X12317759Y-11525262D02*
X12317759Y-11572881D01*
X12317759Y-11572881D02*
X12308235Y-11591928D01*
X12308235Y-11591928D02*
X12298711Y-11601452D01*
X12298711Y-11601452D02*
X12279664Y-11610976D01*
X12279664Y-11610976D02*
X12222521Y-11610976D01*
X12222521Y-11610976D02*
X12203473Y-11601452D01*
X12203473Y-11601452D02*
X12193950Y-11591928D01*
X12441569Y-11410976D02*
X12460616Y-11410976D01*
X12460616Y-11410976D02*
X12479664Y-11420500D01*
X12479664Y-11420500D02*
X12489188Y-11430024D01*
X12489188Y-11430024D02*
X12498711Y-11449071D01*
X12498711Y-11449071D02*
X12508235Y-11487167D01*
X12508235Y-11487167D02*
X12508235Y-11534786D01*
X12508235Y-11534786D02*
X12498711Y-11572881D01*
X12498711Y-11572881D02*
X12489188Y-11591928D01*
X12489188Y-11591928D02*
X12479664Y-11601452D01*
X12479664Y-11601452D02*
X12460616Y-11610976D01*
X12460616Y-11610976D02*
X12441569Y-11610976D01*
X12441569Y-11610976D02*
X12422521Y-11601452D01*
X12422521Y-11601452D02*
X12412997Y-11591928D01*
X12412997Y-11591928D02*
X12403473Y-11572881D01*
X12403473Y-11572881D02*
X12393950Y-11534786D01*
X12393950Y-11534786D02*
X12393950Y-11487167D01*
X12393950Y-11487167D02*
X12403473Y-11449071D01*
X12403473Y-11449071D02*
X12412997Y-11430024D01*
X12412997Y-11430024D02*
X12422521Y-11420500D01*
X12422521Y-11420500D02*
X12441569Y-11410976D01*
X12632045Y-11410976D02*
X12651092Y-11410976D01*
X12651092Y-11410976D02*
X12670140Y-11420500D01*
X12670140Y-11420500D02*
X12679664Y-11430024D01*
X12679664Y-11430024D02*
X12689188Y-11449071D01*
X12689188Y-11449071D02*
X12698711Y-11487167D01*
X12698711Y-11487167D02*
X12698711Y-11534786D01*
X12698711Y-11534786D02*
X12689188Y-11572881D01*
X12689188Y-11572881D02*
X12679664Y-11591928D01*
X12679664Y-11591928D02*
X12670140Y-11601452D01*
X12670140Y-11601452D02*
X12651092Y-11610976D01*
X12651092Y-11610976D02*
X12632045Y-11610976D01*
X12632045Y-11610976D02*
X12612997Y-11601452D01*
X12612997Y-11601452D02*
X12603473Y-11591928D01*
X12603473Y-11591928D02*
X12593950Y-11572881D01*
X12593950Y-11572881D02*
X12584426Y-11534786D01*
X12584426Y-11534786D02*
X12584426Y-11487167D01*
X12584426Y-11487167D02*
X12593950Y-11449071D01*
X12593950Y-11449071D02*
X12603473Y-11430024D01*
X12603473Y-11430024D02*
X12612997Y-11420500D01*
X12612997Y-11420500D02*
X12632045Y-11410976D01*
X12784426Y-11610976D02*
X12784426Y-11477643D01*
X12784426Y-11496690D02*
X12793950Y-11487167D01*
X12793950Y-11487167D02*
X12812997Y-11477643D01*
X12812997Y-11477643D02*
X12841569Y-11477643D01*
X12841569Y-11477643D02*
X12860616Y-11487167D01*
X12860616Y-11487167D02*
X12870140Y-11506214D01*
X12870140Y-11506214D02*
X12870140Y-11610976D01*
X12870140Y-11506214D02*
X12879664Y-11487167D01*
X12879664Y-11487167D02*
X12898711Y-11477643D01*
X12898711Y-11477643D02*
X12927283Y-11477643D01*
X12927283Y-11477643D02*
X12946331Y-11487167D01*
X12946331Y-11487167D02*
X12955854Y-11506214D01*
X12955854Y-11506214D02*
X12955854Y-11610976D01*
X13051092Y-11610976D02*
X13051092Y-11477643D01*
X13051092Y-11496690D02*
X13060616Y-11487167D01*
X13060616Y-11487167D02*
X13079664Y-11477643D01*
X13079664Y-11477643D02*
X13108235Y-11477643D01*
X13108235Y-11477643D02*
X13127283Y-11487167D01*
X13127283Y-11487167D02*
X13136807Y-11506214D01*
X13136807Y-11506214D02*
X13136807Y-11610976D01*
X13136807Y-11506214D02*
X13146331Y-11487167D01*
X13146331Y-11487167D02*
X13165378Y-11477643D01*
X13165378Y-11477643D02*
X13193950Y-11477643D01*
X13193950Y-11477643D02*
X13212997Y-11487167D01*
X13212997Y-11487167D02*
X13222521Y-11506214D01*
X13222521Y-11506214D02*
X13222521Y-11610976D01*
X13580616Y-11401452D02*
X13409188Y-11658595D01*
X13805378Y-11410976D02*
X13824426Y-11410976D01*
X13824426Y-11410976D02*
X13843473Y-11420500D01*
X13843473Y-11420500D02*
X13852997Y-11430024D01*
X13852997Y-11430024D02*
X13862521Y-11449071D01*
X13862521Y-11449071D02*
X13872045Y-11487167D01*
X13872045Y-11487167D02*
X13872045Y-11534786D01*
X13872045Y-11534786D02*
X13862521Y-11572881D01*
X13862521Y-11572881D02*
X13852997Y-11591928D01*
X13852997Y-11591928D02*
X13843473Y-11601452D01*
X13843473Y-11601452D02*
X13824426Y-11610976D01*
X13824426Y-11610976D02*
X13805378Y-11610976D01*
X13805378Y-11610976D02*
X13786331Y-11601452D01*
X13786331Y-11601452D02*
X13776807Y-11591928D01*
X13776807Y-11591928D02*
X13767283Y-11572881D01*
X13767283Y-11572881D02*
X13757759Y-11534786D01*
X13757759Y-11534786D02*
X13757759Y-11487167D01*
X13757759Y-11487167D02*
X13767283Y-11449071D01*
X13767283Y-11449071D02*
X13776807Y-11430024D01*
X13776807Y-11430024D02*
X13786331Y-11420500D01*
X13786331Y-11420500D02*
X13805378Y-11410976D01*
X13957759Y-11591928D02*
X13967283Y-11601452D01*
X13967283Y-11601452D02*
X13957759Y-11610976D01*
X13957759Y-11610976D02*
X13948235Y-11601452D01*
X13948235Y-11601452D02*
X13957759Y-11591928D01*
X13957759Y-11591928D02*
X13957759Y-11610976D01*
X14091092Y-11410976D02*
X14110140Y-11410976D01*
X14110140Y-11410976D02*
X14129188Y-11420500D01*
X14129188Y-11420500D02*
X14138712Y-11430024D01*
X14138712Y-11430024D02*
X14148235Y-11449071D01*
X14148235Y-11449071D02*
X14157759Y-11487167D01*
X14157759Y-11487167D02*
X14157759Y-11534786D01*
X14157759Y-11534786D02*
X14148235Y-11572881D01*
X14148235Y-11572881D02*
X14138712Y-11591928D01*
X14138712Y-11591928D02*
X14129188Y-11601452D01*
X14129188Y-11601452D02*
X14110140Y-11610976D01*
X14110140Y-11610976D02*
X14091092Y-11610976D01*
X14091092Y-11610976D02*
X14072045Y-11601452D01*
X14072045Y-11601452D02*
X14062521Y-11591928D01*
X14062521Y-11591928D02*
X14052997Y-11572881D01*
X14052997Y-11572881D02*
X14043473Y-11534786D01*
X14043473Y-11534786D02*
X14043473Y-11487167D01*
X14043473Y-11487167D02*
X14052997Y-11449071D01*
X14052997Y-11449071D02*
X14062521Y-11430024D01*
X14062521Y-11430024D02*
X14072045Y-11420500D01*
X14072045Y-11420500D02*
X14091092Y-11410976D01*
X14348235Y-11610976D02*
X14233950Y-11610976D01*
X14291092Y-11610976D02*
X14291092Y-11410976D01*
X14291092Y-11410976D02*
X14272045Y-11439548D01*
X14272045Y-11439548D02*
X14252997Y-11458595D01*
X14252997Y-11458595D02*
X14233950Y-11468119D01*
X14538712Y-11610976D02*
X14424426Y-11610976D01*
X14481569Y-11610976D02*
X14481569Y-11410976D01*
X14481569Y-11410976D02*
X14462521Y-11439548D01*
X14462521Y-11439548D02*
X14443473Y-11458595D01*
X14443473Y-11458595D02*
X14424426Y-11468119D01*
X14652997Y-11496690D02*
X14633950Y-11487167D01*
X14633950Y-11487167D02*
X14624426Y-11477643D01*
X14624426Y-11477643D02*
X14614902Y-11458595D01*
X14614902Y-11458595D02*
X14614902Y-11449071D01*
X14614902Y-11449071D02*
X14624426Y-11430024D01*
X14624426Y-11430024D02*
X14633950Y-11420500D01*
X14633950Y-11420500D02*
X14652997Y-11410976D01*
X14652997Y-11410976D02*
X14691093Y-11410976D01*
X14691093Y-11410976D02*
X14710140Y-11420500D01*
X14710140Y-11420500D02*
X14719664Y-11430024D01*
X14719664Y-11430024D02*
X14729188Y-11449071D01*
X14729188Y-11449071D02*
X14729188Y-11458595D01*
X14729188Y-11458595D02*
X14719664Y-11477643D01*
X14719664Y-11477643D02*
X14710140Y-11487167D01*
X14710140Y-11487167D02*
X14691093Y-11496690D01*
X14691093Y-11496690D02*
X14652997Y-11496690D01*
X14652997Y-11496690D02*
X14633950Y-11506214D01*
X14633950Y-11506214D02*
X14624426Y-11515738D01*
X14624426Y-11515738D02*
X14614902Y-11534786D01*
X14614902Y-11534786D02*
X14614902Y-11572881D01*
X14614902Y-11572881D02*
X14624426Y-11591928D01*
X14624426Y-11591928D02*
X14633950Y-11601452D01*
X14633950Y-11601452D02*
X14652997Y-11610976D01*
X14652997Y-11610976D02*
X14691093Y-11610976D01*
X14691093Y-11610976D02*
X14710140Y-11601452D01*
X14710140Y-11601452D02*
X14719664Y-11591928D01*
X14719664Y-11591928D02*
X14729188Y-11572881D01*
X14729188Y-11572881D02*
X14729188Y-11534786D01*
X14729188Y-11534786D02*
X14719664Y-11515738D01*
X14719664Y-11515738D02*
X14710140Y-11506214D01*
X14710140Y-11506214D02*
X14691093Y-11496690D01*
X14805378Y-11410976D02*
X14805378Y-11449071D01*
X14881569Y-11410976D02*
X14881569Y-11449071D01*
X15144426Y-11687167D02*
X15134902Y-11677643D01*
X15134902Y-11677643D02*
X15115854Y-11649071D01*
X15115854Y-11649071D02*
X15106331Y-11630024D01*
X15106331Y-11630024D02*
X15096807Y-11601452D01*
X15096807Y-11601452D02*
X15087283Y-11553833D01*
X15087283Y-11553833D02*
X15087283Y-11515738D01*
X15087283Y-11515738D02*
X15096807Y-11468119D01*
X15096807Y-11468119D02*
X15106331Y-11439548D01*
X15106331Y-11439548D02*
X15115854Y-11420500D01*
X15115854Y-11420500D02*
X15134902Y-11391928D01*
X15134902Y-11391928D02*
X15144426Y-11382405D01*
X15201569Y-11410976D02*
X15325378Y-11410976D01*
X15325378Y-11410976D02*
X15258712Y-11487167D01*
X15258712Y-11487167D02*
X15287283Y-11487167D01*
X15287283Y-11487167D02*
X15306331Y-11496690D01*
X15306331Y-11496690D02*
X15315854Y-11506214D01*
X15315854Y-11506214D02*
X15325378Y-11525262D01*
X15325378Y-11525262D02*
X15325378Y-11572881D01*
X15325378Y-11572881D02*
X15315854Y-11591928D01*
X15315854Y-11591928D02*
X15306331Y-11601452D01*
X15306331Y-11601452D02*
X15287283Y-11610976D01*
X15287283Y-11610976D02*
X15230140Y-11610976D01*
X15230140Y-11610976D02*
X15211093Y-11601452D01*
X15211093Y-11601452D02*
X15201569Y-11591928D01*
X15420616Y-11610976D02*
X15458712Y-11610976D01*
X15458712Y-11610976D02*
X15477759Y-11601452D01*
X15477759Y-11601452D02*
X15487283Y-11591928D01*
X15487283Y-11591928D02*
X15506331Y-11563357D01*
X15506331Y-11563357D02*
X15515854Y-11525262D01*
X15515854Y-11525262D02*
X15515854Y-11449071D01*
X15515854Y-11449071D02*
X15506331Y-11430024D01*
X15506331Y-11430024D02*
X15496807Y-11420500D01*
X15496807Y-11420500D02*
X15477759Y-11410976D01*
X15477759Y-11410976D02*
X15439664Y-11410976D01*
X15439664Y-11410976D02*
X15420616Y-11420500D01*
X15420616Y-11420500D02*
X15411093Y-11430024D01*
X15411093Y-11430024D02*
X15401569Y-11449071D01*
X15401569Y-11449071D02*
X15401569Y-11496690D01*
X15401569Y-11496690D02*
X15411093Y-11515738D01*
X15411093Y-11515738D02*
X15420616Y-11525262D01*
X15420616Y-11525262D02*
X15439664Y-11534786D01*
X15439664Y-11534786D02*
X15477759Y-11534786D01*
X15477759Y-11534786D02*
X15496807Y-11525262D01*
X15496807Y-11525262D02*
X15506331Y-11515738D01*
X15506331Y-11515738D02*
X15515854Y-11496690D01*
X15721569Y-11610976D02*
X15721569Y-11410976D01*
X15807283Y-11610976D02*
X15807283Y-11506214D01*
X15807283Y-11506214D02*
X15797759Y-11487167D01*
X15797759Y-11487167D02*
X15778712Y-11477643D01*
X15778712Y-11477643D02*
X15750140Y-11477643D01*
X15750140Y-11477643D02*
X15731093Y-11487167D01*
X15731093Y-11487167D02*
X15721569Y-11496690D01*
X15931093Y-11610976D02*
X15912045Y-11601452D01*
X15912045Y-11601452D02*
X15902521Y-11591928D01*
X15902521Y-11591928D02*
X15892997Y-11572881D01*
X15892997Y-11572881D02*
X15892997Y-11515738D01*
X15892997Y-11515738D02*
X15902521Y-11496690D01*
X15902521Y-11496690D02*
X15912045Y-11487167D01*
X15912045Y-11487167D02*
X15931093Y-11477643D01*
X15931093Y-11477643D02*
X15959664Y-11477643D01*
X15959664Y-11477643D02*
X15978712Y-11487167D01*
X15978712Y-11487167D02*
X15988235Y-11496690D01*
X15988235Y-11496690D02*
X15997759Y-11515738D01*
X15997759Y-11515738D02*
X15997759Y-11572881D01*
X15997759Y-11572881D02*
X15988235Y-11591928D01*
X15988235Y-11591928D02*
X15978712Y-11601452D01*
X15978712Y-11601452D02*
X15959664Y-11610976D01*
X15959664Y-11610976D02*
X15931093Y-11610976D01*
X16112045Y-11610976D02*
X16092997Y-11601452D01*
X16092997Y-11601452D02*
X16083474Y-11582405D01*
X16083474Y-11582405D02*
X16083474Y-11410976D01*
X16264426Y-11601452D02*
X16245378Y-11610976D01*
X16245378Y-11610976D02*
X16207283Y-11610976D01*
X16207283Y-11610976D02*
X16188235Y-11601452D01*
X16188235Y-11601452D02*
X16178712Y-11582405D01*
X16178712Y-11582405D02*
X16178712Y-11506214D01*
X16178712Y-11506214D02*
X16188235Y-11487167D01*
X16188235Y-11487167D02*
X16207283Y-11477643D01*
X16207283Y-11477643D02*
X16245378Y-11477643D01*
X16245378Y-11477643D02*
X16264426Y-11487167D01*
X16264426Y-11487167D02*
X16273950Y-11506214D01*
X16273950Y-11506214D02*
X16273950Y-11525262D01*
X16273950Y-11525262D02*
X16178712Y-11544309D01*
X16350140Y-11601452D02*
X16369188Y-11610976D01*
X16369188Y-11610976D02*
X16407283Y-11610976D01*
X16407283Y-11610976D02*
X16426331Y-11601452D01*
X16426331Y-11601452D02*
X16435855Y-11582405D01*
X16435855Y-11582405D02*
X16435855Y-11572881D01*
X16435855Y-11572881D02*
X16426331Y-11553833D01*
X16426331Y-11553833D02*
X16407283Y-11544309D01*
X16407283Y-11544309D02*
X16378712Y-11544309D01*
X16378712Y-11544309D02*
X16359664Y-11534786D01*
X16359664Y-11534786D02*
X16350140Y-11515738D01*
X16350140Y-11515738D02*
X16350140Y-11506214D01*
X16350140Y-11506214D02*
X16359664Y-11487167D01*
X16359664Y-11487167D02*
X16378712Y-11477643D01*
X16378712Y-11477643D02*
X16407283Y-11477643D01*
X16407283Y-11477643D02*
X16426331Y-11487167D01*
X16502521Y-11687167D02*
X16512045Y-11677643D01*
X16512045Y-11677643D02*
X16531093Y-11649071D01*
X16531093Y-11649071D02*
X16540616Y-11630024D01*
X16540616Y-11630024D02*
X16550140Y-11601452D01*
X16550140Y-11601452D02*
X16559664Y-11553833D01*
X16559664Y-11553833D02*
X16559664Y-11515738D01*
X16559664Y-11515738D02*
X16550140Y-11468119D01*
X16550140Y-11468119D02*
X16540616Y-11439548D01*
X16540616Y-11439548D02*
X16531093Y-11420500D01*
X16531093Y-11420500D02*
X16512045Y-11391928D01*
X16512045Y-11391928D02*
X16502521Y-11382405D01*
D13*
X11679664Y-11801500D02*
G75*
G03*
X11679664Y-11801500I-20000J0D01*
G01*
D11*
X11965378Y-11674976D02*
X11984426Y-11674976D01*
X11984426Y-11674976D02*
X12003473Y-11684500D01*
X12003473Y-11684500D02*
X12012997Y-11694024D01*
X12012997Y-11694024D02*
X12022521Y-11713071D01*
X12022521Y-11713071D02*
X12032045Y-11751167D01*
X12032045Y-11751167D02*
X12032045Y-11798786D01*
X12032045Y-11798786D02*
X12022521Y-11836881D01*
X12022521Y-11836881D02*
X12012997Y-11855928D01*
X12012997Y-11855928D02*
X12003473Y-11865452D01*
X12003473Y-11865452D02*
X11984426Y-11874976D01*
X11984426Y-11874976D02*
X11965378Y-11874976D01*
X11965378Y-11874976D02*
X11946330Y-11865452D01*
X11946330Y-11865452D02*
X11936807Y-11855928D01*
X11936807Y-11855928D02*
X11927283Y-11836881D01*
X11927283Y-11836881D02*
X11917759Y-11798786D01*
X11917759Y-11798786D02*
X11917759Y-11751167D01*
X11917759Y-11751167D02*
X11927283Y-11713071D01*
X11927283Y-11713071D02*
X11936807Y-11694024D01*
X11936807Y-11694024D02*
X11946330Y-11684500D01*
X11946330Y-11684500D02*
X11965378Y-11674976D01*
X12117759Y-11855928D02*
X12127283Y-11865452D01*
X12127283Y-11865452D02*
X12117759Y-11874976D01*
X12117759Y-11874976D02*
X12108235Y-11865452D01*
X12108235Y-11865452D02*
X12117759Y-11855928D01*
X12117759Y-11855928D02*
X12117759Y-11874976D01*
X12298711Y-11741643D02*
X12298711Y-11874976D01*
X12251092Y-11665452D02*
X12203473Y-11808309D01*
X12203473Y-11808309D02*
X12327283Y-11808309D01*
X12441569Y-11674976D02*
X12460616Y-11674976D01*
X12460616Y-11674976D02*
X12479664Y-11684500D01*
X12479664Y-11684500D02*
X12489188Y-11694024D01*
X12489188Y-11694024D02*
X12498711Y-11713071D01*
X12498711Y-11713071D02*
X12508235Y-11751167D01*
X12508235Y-11751167D02*
X12508235Y-11798786D01*
X12508235Y-11798786D02*
X12498711Y-11836881D01*
X12498711Y-11836881D02*
X12489188Y-11855928D01*
X12489188Y-11855928D02*
X12479664Y-11865452D01*
X12479664Y-11865452D02*
X12460616Y-11874976D01*
X12460616Y-11874976D02*
X12441569Y-11874976D01*
X12441569Y-11874976D02*
X12422521Y-11865452D01*
X12422521Y-11865452D02*
X12412997Y-11855928D01*
X12412997Y-11855928D02*
X12403473Y-11836881D01*
X12403473Y-11836881D02*
X12393950Y-11798786D01*
X12393950Y-11798786D02*
X12393950Y-11751167D01*
X12393950Y-11751167D02*
X12403473Y-11713071D01*
X12403473Y-11713071D02*
X12412997Y-11694024D01*
X12412997Y-11694024D02*
X12422521Y-11684500D01*
X12422521Y-11684500D02*
X12441569Y-11674976D01*
X12632045Y-11674976D02*
X12651092Y-11674976D01*
X12651092Y-11674976D02*
X12670140Y-11684500D01*
X12670140Y-11684500D02*
X12679664Y-11694024D01*
X12679664Y-11694024D02*
X12689188Y-11713071D01*
X12689188Y-11713071D02*
X12698711Y-11751167D01*
X12698711Y-11751167D02*
X12698711Y-11798786D01*
X12698711Y-11798786D02*
X12689188Y-11836881D01*
X12689188Y-11836881D02*
X12679664Y-11855928D01*
X12679664Y-11855928D02*
X12670140Y-11865452D01*
X12670140Y-11865452D02*
X12651092Y-11874976D01*
X12651092Y-11874976D02*
X12632045Y-11874976D01*
X12632045Y-11874976D02*
X12612997Y-11865452D01*
X12612997Y-11865452D02*
X12603473Y-11855928D01*
X12603473Y-11855928D02*
X12593950Y-11836881D01*
X12593950Y-11836881D02*
X12584426Y-11798786D01*
X12584426Y-11798786D02*
X12584426Y-11751167D01*
X12584426Y-11751167D02*
X12593950Y-11713071D01*
X12593950Y-11713071D02*
X12603473Y-11694024D01*
X12603473Y-11694024D02*
X12612997Y-11684500D01*
X12612997Y-11684500D02*
X12632045Y-11674976D01*
X12784426Y-11874976D02*
X12784426Y-11741643D01*
X12784426Y-11760690D02*
X12793950Y-11751167D01*
X12793950Y-11751167D02*
X12812997Y-11741643D01*
X12812997Y-11741643D02*
X12841569Y-11741643D01*
X12841569Y-11741643D02*
X12860616Y-11751167D01*
X12860616Y-11751167D02*
X12870140Y-11770214D01*
X12870140Y-11770214D02*
X12870140Y-11874976D01*
X12870140Y-11770214D02*
X12879664Y-11751167D01*
X12879664Y-11751167D02*
X12898711Y-11741643D01*
X12898711Y-11741643D02*
X12927283Y-11741643D01*
X12927283Y-11741643D02*
X12946331Y-11751167D01*
X12946331Y-11751167D02*
X12955854Y-11770214D01*
X12955854Y-11770214D02*
X12955854Y-11874976D01*
X13051092Y-11874976D02*
X13051092Y-11741643D01*
X13051092Y-11760690D02*
X13060616Y-11751167D01*
X13060616Y-11751167D02*
X13079664Y-11741643D01*
X13079664Y-11741643D02*
X13108235Y-11741643D01*
X13108235Y-11741643D02*
X13127283Y-11751167D01*
X13127283Y-11751167D02*
X13136807Y-11770214D01*
X13136807Y-11770214D02*
X13136807Y-11874976D01*
X13136807Y-11770214D02*
X13146331Y-11751167D01*
X13146331Y-11751167D02*
X13165378Y-11741643D01*
X13165378Y-11741643D02*
X13193950Y-11741643D01*
X13193950Y-11741643D02*
X13212997Y-11751167D01*
X13212997Y-11751167D02*
X13222521Y-11770214D01*
X13222521Y-11770214D02*
X13222521Y-11874976D01*
X13580616Y-11665452D02*
X13409188Y-11922595D01*
X13805378Y-11674976D02*
X13824426Y-11674976D01*
X13824426Y-11674976D02*
X13843473Y-11684500D01*
X13843473Y-11684500D02*
X13852997Y-11694024D01*
X13852997Y-11694024D02*
X13862521Y-11713071D01*
X13862521Y-11713071D02*
X13872045Y-11751167D01*
X13872045Y-11751167D02*
X13872045Y-11798786D01*
X13872045Y-11798786D02*
X13862521Y-11836881D01*
X13862521Y-11836881D02*
X13852997Y-11855928D01*
X13852997Y-11855928D02*
X13843473Y-11865452D01*
X13843473Y-11865452D02*
X13824426Y-11874976D01*
X13824426Y-11874976D02*
X13805378Y-11874976D01*
X13805378Y-11874976D02*
X13786331Y-11865452D01*
X13786331Y-11865452D02*
X13776807Y-11855928D01*
X13776807Y-11855928D02*
X13767283Y-11836881D01*
X13767283Y-11836881D02*
X13757759Y-11798786D01*
X13757759Y-11798786D02*
X13757759Y-11751167D01*
X13757759Y-11751167D02*
X13767283Y-11713071D01*
X13767283Y-11713071D02*
X13776807Y-11694024D01*
X13776807Y-11694024D02*
X13786331Y-11684500D01*
X13786331Y-11684500D02*
X13805378Y-11674976D01*
X13957759Y-11855928D02*
X13967283Y-11865452D01*
X13967283Y-11865452D02*
X13957759Y-11874976D01*
X13957759Y-11874976D02*
X13948235Y-11865452D01*
X13948235Y-11865452D02*
X13957759Y-11855928D01*
X13957759Y-11855928D02*
X13957759Y-11874976D01*
X14091092Y-11674976D02*
X14110140Y-11674976D01*
X14110140Y-11674976D02*
X14129188Y-11684500D01*
X14129188Y-11684500D02*
X14138712Y-11694024D01*
X14138712Y-11694024D02*
X14148235Y-11713071D01*
X14148235Y-11713071D02*
X14157759Y-11751167D01*
X14157759Y-11751167D02*
X14157759Y-11798786D01*
X14157759Y-11798786D02*
X14148235Y-11836881D01*
X14148235Y-11836881D02*
X14138712Y-11855928D01*
X14138712Y-11855928D02*
X14129188Y-11865452D01*
X14129188Y-11865452D02*
X14110140Y-11874976D01*
X14110140Y-11874976D02*
X14091092Y-11874976D01*
X14091092Y-11874976D02*
X14072045Y-11865452D01*
X14072045Y-11865452D02*
X14062521Y-11855928D01*
X14062521Y-11855928D02*
X14052997Y-11836881D01*
X14052997Y-11836881D02*
X14043473Y-11798786D01*
X14043473Y-11798786D02*
X14043473Y-11751167D01*
X14043473Y-11751167D02*
X14052997Y-11713071D01*
X14052997Y-11713071D02*
X14062521Y-11694024D01*
X14062521Y-11694024D02*
X14072045Y-11684500D01*
X14072045Y-11684500D02*
X14091092Y-11674976D01*
X14348235Y-11874976D02*
X14233950Y-11874976D01*
X14291092Y-11874976D02*
X14291092Y-11674976D01*
X14291092Y-11674976D02*
X14272045Y-11703548D01*
X14272045Y-11703548D02*
X14252997Y-11722595D01*
X14252997Y-11722595D02*
X14233950Y-11732119D01*
X14529188Y-11674976D02*
X14433950Y-11674976D01*
X14433950Y-11674976D02*
X14424426Y-11770214D01*
X14424426Y-11770214D02*
X14433950Y-11760690D01*
X14433950Y-11760690D02*
X14452997Y-11751167D01*
X14452997Y-11751167D02*
X14500616Y-11751167D01*
X14500616Y-11751167D02*
X14519664Y-11760690D01*
X14519664Y-11760690D02*
X14529188Y-11770214D01*
X14529188Y-11770214D02*
X14538712Y-11789262D01*
X14538712Y-11789262D02*
X14538712Y-11836881D01*
X14538712Y-11836881D02*
X14529188Y-11855928D01*
X14529188Y-11855928D02*
X14519664Y-11865452D01*
X14519664Y-11865452D02*
X14500616Y-11874976D01*
X14500616Y-11874976D02*
X14452997Y-11874976D01*
X14452997Y-11874976D02*
X14433950Y-11865452D01*
X14433950Y-11865452D02*
X14424426Y-11855928D01*
X14605378Y-11674976D02*
X14738712Y-11674976D01*
X14738712Y-11674976D02*
X14652997Y-11874976D01*
X14805378Y-11674976D02*
X14805378Y-11713071D01*
X14881569Y-11674976D02*
X14881569Y-11713071D01*
X15144426Y-11951167D02*
X15134902Y-11941643D01*
X15134902Y-11941643D02*
X15115854Y-11913071D01*
X15115854Y-11913071D02*
X15106331Y-11894024D01*
X15106331Y-11894024D02*
X15096807Y-11865452D01*
X15096807Y-11865452D02*
X15087283Y-11817833D01*
X15087283Y-11817833D02*
X15087283Y-11779738D01*
X15087283Y-11779738D02*
X15096807Y-11732119D01*
X15096807Y-11732119D02*
X15106331Y-11703548D01*
X15106331Y-11703548D02*
X15115854Y-11684500D01*
X15115854Y-11684500D02*
X15134902Y-11655928D01*
X15134902Y-11655928D02*
X15144426Y-11646405D01*
X15211093Y-11694024D02*
X15220616Y-11684500D01*
X15220616Y-11684500D02*
X15239664Y-11674976D01*
X15239664Y-11674976D02*
X15287283Y-11674976D01*
X15287283Y-11674976D02*
X15306331Y-11684500D01*
X15306331Y-11684500D02*
X15315854Y-11694024D01*
X15315854Y-11694024D02*
X15325378Y-11713071D01*
X15325378Y-11713071D02*
X15325378Y-11732119D01*
X15325378Y-11732119D02*
X15315854Y-11760690D01*
X15315854Y-11760690D02*
X15201569Y-11874976D01*
X15201569Y-11874976D02*
X15325378Y-11874976D01*
X15531093Y-11874976D02*
X15531093Y-11674976D01*
X15616807Y-11874976D02*
X15616807Y-11770214D01*
X15616807Y-11770214D02*
X15607283Y-11751167D01*
X15607283Y-11751167D02*
X15588235Y-11741643D01*
X15588235Y-11741643D02*
X15559664Y-11741643D01*
X15559664Y-11741643D02*
X15540616Y-11751167D01*
X15540616Y-11751167D02*
X15531093Y-11760690D01*
X15740616Y-11874976D02*
X15721569Y-11865452D01*
X15721569Y-11865452D02*
X15712045Y-11855928D01*
X15712045Y-11855928D02*
X15702521Y-11836881D01*
X15702521Y-11836881D02*
X15702521Y-11779738D01*
X15702521Y-11779738D02*
X15712045Y-11760690D01*
X15712045Y-11760690D02*
X15721569Y-11751167D01*
X15721569Y-11751167D02*
X15740616Y-11741643D01*
X15740616Y-11741643D02*
X15769188Y-11741643D01*
X15769188Y-11741643D02*
X15788235Y-11751167D01*
X15788235Y-11751167D02*
X15797759Y-11760690D01*
X15797759Y-11760690D02*
X15807283Y-11779738D01*
X15807283Y-11779738D02*
X15807283Y-11836881D01*
X15807283Y-11836881D02*
X15797759Y-11855928D01*
X15797759Y-11855928D02*
X15788235Y-11865452D01*
X15788235Y-11865452D02*
X15769188Y-11874976D01*
X15769188Y-11874976D02*
X15740616Y-11874976D01*
X15921569Y-11874976D02*
X15902521Y-11865452D01*
X15902521Y-11865452D02*
X15892997Y-11846405D01*
X15892997Y-11846405D02*
X15892997Y-11674976D01*
X16073950Y-11865452D02*
X16054902Y-11874976D01*
X16054902Y-11874976D02*
X16016807Y-11874976D01*
X16016807Y-11874976D02*
X15997759Y-11865452D01*
X15997759Y-11865452D02*
X15988235Y-11846405D01*
X15988235Y-11846405D02*
X15988235Y-11770214D01*
X15988235Y-11770214D02*
X15997759Y-11751167D01*
X15997759Y-11751167D02*
X16016807Y-11741643D01*
X16016807Y-11741643D02*
X16054902Y-11741643D01*
X16054902Y-11741643D02*
X16073950Y-11751167D01*
X16073950Y-11751167D02*
X16083474Y-11770214D01*
X16083474Y-11770214D02*
X16083474Y-11789262D01*
X16083474Y-11789262D02*
X15988235Y-11808309D01*
X16159664Y-11865452D02*
X16178712Y-11874976D01*
X16178712Y-11874976D02*
X16216807Y-11874976D01*
X16216807Y-11874976D02*
X16235855Y-11865452D01*
X16235855Y-11865452D02*
X16245378Y-11846405D01*
X16245378Y-11846405D02*
X16245378Y-11836881D01*
X16245378Y-11836881D02*
X16235855Y-11817833D01*
X16235855Y-11817833D02*
X16216807Y-11808309D01*
X16216807Y-11808309D02*
X16188235Y-11808309D01*
X16188235Y-11808309D02*
X16169188Y-11798786D01*
X16169188Y-11798786D02*
X16159664Y-11779738D01*
X16159664Y-11779738D02*
X16159664Y-11770214D01*
X16159664Y-11770214D02*
X16169188Y-11751167D01*
X16169188Y-11751167D02*
X16188235Y-11741643D01*
X16188235Y-11741643D02*
X16216807Y-11741643D01*
X16216807Y-11741643D02*
X16235855Y-11751167D01*
X16312045Y-11951167D02*
X16321569Y-11941643D01*
X16321569Y-11941643D02*
X16340616Y-11913071D01*
X16340616Y-11913071D02*
X16350140Y-11894024D01*
X16350140Y-11894024D02*
X16359664Y-11865452D01*
X16359664Y-11865452D02*
X16369188Y-11817833D01*
X16369188Y-11817833D02*
X16369188Y-11779738D01*
X16369188Y-11779738D02*
X16359664Y-11732119D01*
X16359664Y-11732119D02*
X16350140Y-11703548D01*
X16350140Y-11703548D02*
X16340616Y-11684500D01*
X16340616Y-11684500D02*
X16321569Y-11655928D01*
X16321569Y-11655928D02*
X16312045Y-11646405D01*
D10*
X11629664Y-12015500D02*
X11629664Y-12115500D01*
X11579664Y-12065500D02*
X11679664Y-12065500D01*
D11*
X12032045Y-12138976D02*
X11917759Y-12138976D01*
X11974902Y-12138976D02*
X11974902Y-11938976D01*
X11974902Y-11938976D02*
X11955854Y-11967548D01*
X11955854Y-11967548D02*
X11936807Y-11986595D01*
X11936807Y-11986595D02*
X11917759Y-11996119D01*
X12117759Y-12119928D02*
X12127283Y-12129452D01*
X12127283Y-12129452D02*
X12117759Y-12138976D01*
X12117759Y-12138976D02*
X12108235Y-12129452D01*
X12108235Y-12129452D02*
X12117759Y-12119928D01*
X12117759Y-12119928D02*
X12117759Y-12138976D01*
X12251092Y-11938976D02*
X12270140Y-11938976D01*
X12270140Y-11938976D02*
X12289188Y-11948500D01*
X12289188Y-11948500D02*
X12298711Y-11958024D01*
X12298711Y-11958024D02*
X12308235Y-11977071D01*
X12308235Y-11977071D02*
X12317759Y-12015167D01*
X12317759Y-12015167D02*
X12317759Y-12062786D01*
X12317759Y-12062786D02*
X12308235Y-12100881D01*
X12308235Y-12100881D02*
X12298711Y-12119928D01*
X12298711Y-12119928D02*
X12289188Y-12129452D01*
X12289188Y-12129452D02*
X12270140Y-12138976D01*
X12270140Y-12138976D02*
X12251092Y-12138976D01*
X12251092Y-12138976D02*
X12232045Y-12129452D01*
X12232045Y-12129452D02*
X12222521Y-12119928D01*
X12222521Y-12119928D02*
X12212997Y-12100881D01*
X12212997Y-12100881D02*
X12203473Y-12062786D01*
X12203473Y-12062786D02*
X12203473Y-12015167D01*
X12203473Y-12015167D02*
X12212997Y-11977071D01*
X12212997Y-11977071D02*
X12222521Y-11958024D01*
X12222521Y-11958024D02*
X12232045Y-11948500D01*
X12232045Y-11948500D02*
X12251092Y-11938976D01*
X12441569Y-11938976D02*
X12460616Y-11938976D01*
X12460616Y-11938976D02*
X12479664Y-11948500D01*
X12479664Y-11948500D02*
X12489188Y-11958024D01*
X12489188Y-11958024D02*
X12498711Y-11977071D01*
X12498711Y-11977071D02*
X12508235Y-12015167D01*
X12508235Y-12015167D02*
X12508235Y-12062786D01*
X12508235Y-12062786D02*
X12498711Y-12100881D01*
X12498711Y-12100881D02*
X12489188Y-12119928D01*
X12489188Y-12119928D02*
X12479664Y-12129452D01*
X12479664Y-12129452D02*
X12460616Y-12138976D01*
X12460616Y-12138976D02*
X12441569Y-12138976D01*
X12441569Y-12138976D02*
X12422521Y-12129452D01*
X12422521Y-12129452D02*
X12412997Y-12119928D01*
X12412997Y-12119928D02*
X12403473Y-12100881D01*
X12403473Y-12100881D02*
X12393950Y-12062786D01*
X12393950Y-12062786D02*
X12393950Y-12015167D01*
X12393950Y-12015167D02*
X12403473Y-11977071D01*
X12403473Y-11977071D02*
X12412997Y-11958024D01*
X12412997Y-11958024D02*
X12422521Y-11948500D01*
X12422521Y-11948500D02*
X12441569Y-11938976D01*
X12632045Y-11938976D02*
X12651092Y-11938976D01*
X12651092Y-11938976D02*
X12670140Y-11948500D01*
X12670140Y-11948500D02*
X12679664Y-11958024D01*
X12679664Y-11958024D02*
X12689188Y-11977071D01*
X12689188Y-11977071D02*
X12698711Y-12015167D01*
X12698711Y-12015167D02*
X12698711Y-12062786D01*
X12698711Y-12062786D02*
X12689188Y-12100881D01*
X12689188Y-12100881D02*
X12679664Y-12119928D01*
X12679664Y-12119928D02*
X12670140Y-12129452D01*
X12670140Y-12129452D02*
X12651092Y-12138976D01*
X12651092Y-12138976D02*
X12632045Y-12138976D01*
X12632045Y-12138976D02*
X12612997Y-12129452D01*
X12612997Y-12129452D02*
X12603473Y-12119928D01*
X12603473Y-12119928D02*
X12593950Y-12100881D01*
X12593950Y-12100881D02*
X12584426Y-12062786D01*
X12584426Y-12062786D02*
X12584426Y-12015167D01*
X12584426Y-12015167D02*
X12593950Y-11977071D01*
X12593950Y-11977071D02*
X12603473Y-11958024D01*
X12603473Y-11958024D02*
X12612997Y-11948500D01*
X12612997Y-11948500D02*
X12632045Y-11938976D01*
X12784426Y-12138976D02*
X12784426Y-12005643D01*
X12784426Y-12024690D02*
X12793950Y-12015167D01*
X12793950Y-12015167D02*
X12812997Y-12005643D01*
X12812997Y-12005643D02*
X12841569Y-12005643D01*
X12841569Y-12005643D02*
X12860616Y-12015167D01*
X12860616Y-12015167D02*
X12870140Y-12034214D01*
X12870140Y-12034214D02*
X12870140Y-12138976D01*
X12870140Y-12034214D02*
X12879664Y-12015167D01*
X12879664Y-12015167D02*
X12898711Y-12005643D01*
X12898711Y-12005643D02*
X12927283Y-12005643D01*
X12927283Y-12005643D02*
X12946331Y-12015167D01*
X12946331Y-12015167D02*
X12955854Y-12034214D01*
X12955854Y-12034214D02*
X12955854Y-12138976D01*
X13051092Y-12138976D02*
X13051092Y-12005643D01*
X13051092Y-12024690D02*
X13060616Y-12015167D01*
X13060616Y-12015167D02*
X13079664Y-12005643D01*
X13079664Y-12005643D02*
X13108235Y-12005643D01*
X13108235Y-12005643D02*
X13127283Y-12015167D01*
X13127283Y-12015167D02*
X13136807Y-12034214D01*
X13136807Y-12034214D02*
X13136807Y-12138976D01*
X13136807Y-12034214D02*
X13146331Y-12015167D01*
X13146331Y-12015167D02*
X13165378Y-12005643D01*
X13165378Y-12005643D02*
X13193950Y-12005643D01*
X13193950Y-12005643D02*
X13212997Y-12015167D01*
X13212997Y-12015167D02*
X13222521Y-12034214D01*
X13222521Y-12034214D02*
X13222521Y-12138976D01*
X13580616Y-11929452D02*
X13409188Y-12186595D01*
X13805378Y-11938976D02*
X13824426Y-11938976D01*
X13824426Y-11938976D02*
X13843473Y-11948500D01*
X13843473Y-11948500D02*
X13852997Y-11958024D01*
X13852997Y-11958024D02*
X13862521Y-11977071D01*
X13862521Y-11977071D02*
X13872045Y-12015167D01*
X13872045Y-12015167D02*
X13872045Y-12062786D01*
X13872045Y-12062786D02*
X13862521Y-12100881D01*
X13862521Y-12100881D02*
X13852997Y-12119928D01*
X13852997Y-12119928D02*
X13843473Y-12129452D01*
X13843473Y-12129452D02*
X13824426Y-12138976D01*
X13824426Y-12138976D02*
X13805378Y-12138976D01*
X13805378Y-12138976D02*
X13786331Y-12129452D01*
X13786331Y-12129452D02*
X13776807Y-12119928D01*
X13776807Y-12119928D02*
X13767283Y-12100881D01*
X13767283Y-12100881D02*
X13757759Y-12062786D01*
X13757759Y-12062786D02*
X13757759Y-12015167D01*
X13757759Y-12015167D02*
X13767283Y-11977071D01*
X13767283Y-11977071D02*
X13776807Y-11958024D01*
X13776807Y-11958024D02*
X13786331Y-11948500D01*
X13786331Y-11948500D02*
X13805378Y-11938976D01*
X13957759Y-12119928D02*
X13967283Y-12129452D01*
X13967283Y-12129452D02*
X13957759Y-12138976D01*
X13957759Y-12138976D02*
X13948235Y-12129452D01*
X13948235Y-12129452D02*
X13957759Y-12119928D01*
X13957759Y-12119928D02*
X13957759Y-12138976D01*
X14091092Y-11938976D02*
X14110140Y-11938976D01*
X14110140Y-11938976D02*
X14129188Y-11948500D01*
X14129188Y-11948500D02*
X14138712Y-11958024D01*
X14138712Y-11958024D02*
X14148235Y-11977071D01*
X14148235Y-11977071D02*
X14157759Y-12015167D01*
X14157759Y-12015167D02*
X14157759Y-12062786D01*
X14157759Y-12062786D02*
X14148235Y-12100881D01*
X14148235Y-12100881D02*
X14138712Y-12119928D01*
X14138712Y-12119928D02*
X14129188Y-12129452D01*
X14129188Y-12129452D02*
X14110140Y-12138976D01*
X14110140Y-12138976D02*
X14091092Y-12138976D01*
X14091092Y-12138976D02*
X14072045Y-12129452D01*
X14072045Y-12129452D02*
X14062521Y-12119928D01*
X14062521Y-12119928D02*
X14052997Y-12100881D01*
X14052997Y-12100881D02*
X14043473Y-12062786D01*
X14043473Y-12062786D02*
X14043473Y-12015167D01*
X14043473Y-12015167D02*
X14052997Y-11977071D01*
X14052997Y-11977071D02*
X14062521Y-11958024D01*
X14062521Y-11958024D02*
X14072045Y-11948500D01*
X14072045Y-11948500D02*
X14091092Y-11938976D01*
X14224426Y-11938976D02*
X14348235Y-11938976D01*
X14348235Y-11938976D02*
X14281569Y-12015167D01*
X14281569Y-12015167D02*
X14310140Y-12015167D01*
X14310140Y-12015167D02*
X14329188Y-12024690D01*
X14329188Y-12024690D02*
X14338712Y-12034214D01*
X14338712Y-12034214D02*
X14348235Y-12053262D01*
X14348235Y-12053262D02*
X14348235Y-12100881D01*
X14348235Y-12100881D02*
X14338712Y-12119928D01*
X14338712Y-12119928D02*
X14329188Y-12129452D01*
X14329188Y-12129452D02*
X14310140Y-12138976D01*
X14310140Y-12138976D02*
X14252997Y-12138976D01*
X14252997Y-12138976D02*
X14233950Y-12129452D01*
X14233950Y-12129452D02*
X14224426Y-12119928D01*
X14443473Y-12138976D02*
X14481569Y-12138976D01*
X14481569Y-12138976D02*
X14500616Y-12129452D01*
X14500616Y-12129452D02*
X14510140Y-12119928D01*
X14510140Y-12119928D02*
X14529188Y-12091357D01*
X14529188Y-12091357D02*
X14538712Y-12053262D01*
X14538712Y-12053262D02*
X14538712Y-11977071D01*
X14538712Y-11977071D02*
X14529188Y-11958024D01*
X14529188Y-11958024D02*
X14519664Y-11948500D01*
X14519664Y-11948500D02*
X14500616Y-11938976D01*
X14500616Y-11938976D02*
X14462521Y-11938976D01*
X14462521Y-11938976D02*
X14443473Y-11948500D01*
X14443473Y-11948500D02*
X14433950Y-11958024D01*
X14433950Y-11958024D02*
X14424426Y-11977071D01*
X14424426Y-11977071D02*
X14424426Y-12024690D01*
X14424426Y-12024690D02*
X14433950Y-12043738D01*
X14433950Y-12043738D02*
X14443473Y-12053262D01*
X14443473Y-12053262D02*
X14462521Y-12062786D01*
X14462521Y-12062786D02*
X14500616Y-12062786D01*
X14500616Y-12062786D02*
X14519664Y-12053262D01*
X14519664Y-12053262D02*
X14529188Y-12043738D01*
X14529188Y-12043738D02*
X14538712Y-12024690D01*
X14710140Y-12005643D02*
X14710140Y-12138976D01*
X14662521Y-11929452D02*
X14614902Y-12072309D01*
X14614902Y-12072309D02*
X14738712Y-12072309D01*
X14805378Y-11938976D02*
X14805378Y-11977071D01*
X14881569Y-11938976D02*
X14881569Y-11977071D01*
X15144426Y-12215167D02*
X15134902Y-12205643D01*
X15134902Y-12205643D02*
X15115854Y-12177071D01*
X15115854Y-12177071D02*
X15106331Y-12158024D01*
X15106331Y-12158024D02*
X15096807Y-12129452D01*
X15096807Y-12129452D02*
X15087283Y-12081833D01*
X15087283Y-12081833D02*
X15087283Y-12043738D01*
X15087283Y-12043738D02*
X15096807Y-11996119D01*
X15096807Y-11996119D02*
X15106331Y-11967548D01*
X15106331Y-11967548D02*
X15115854Y-11948500D01*
X15115854Y-11948500D02*
X15134902Y-11919928D01*
X15134902Y-11919928D02*
X15144426Y-11910405D01*
X15306331Y-12005643D02*
X15306331Y-12138976D01*
X15258712Y-11929452D02*
X15211093Y-12072309D01*
X15211093Y-12072309D02*
X15334902Y-12072309D01*
X15449188Y-11938976D02*
X15468235Y-11938976D01*
X15468235Y-11938976D02*
X15487283Y-11948500D01*
X15487283Y-11948500D02*
X15496807Y-11958024D01*
X15496807Y-11958024D02*
X15506331Y-11977071D01*
X15506331Y-11977071D02*
X15515854Y-12015167D01*
X15515854Y-12015167D02*
X15515854Y-12062786D01*
X15515854Y-12062786D02*
X15506331Y-12100881D01*
X15506331Y-12100881D02*
X15496807Y-12119928D01*
X15496807Y-12119928D02*
X15487283Y-12129452D01*
X15487283Y-12129452D02*
X15468235Y-12138976D01*
X15468235Y-12138976D02*
X15449188Y-12138976D01*
X15449188Y-12138976D02*
X15430140Y-12129452D01*
X15430140Y-12129452D02*
X15420616Y-12119928D01*
X15420616Y-12119928D02*
X15411093Y-12100881D01*
X15411093Y-12100881D02*
X15401569Y-12062786D01*
X15401569Y-12062786D02*
X15401569Y-12015167D01*
X15401569Y-12015167D02*
X15411093Y-11977071D01*
X15411093Y-11977071D02*
X15420616Y-11958024D01*
X15420616Y-11958024D02*
X15430140Y-11948500D01*
X15430140Y-11948500D02*
X15449188Y-11938976D01*
X15721569Y-12138976D02*
X15721569Y-11938976D01*
X15807283Y-12138976D02*
X15807283Y-12034214D01*
X15807283Y-12034214D02*
X15797759Y-12015167D01*
X15797759Y-12015167D02*
X15778712Y-12005643D01*
X15778712Y-12005643D02*
X15750140Y-12005643D01*
X15750140Y-12005643D02*
X15731093Y-12015167D01*
X15731093Y-12015167D02*
X15721569Y-12024690D01*
X15931093Y-12138976D02*
X15912045Y-12129452D01*
X15912045Y-12129452D02*
X15902521Y-12119928D01*
X15902521Y-12119928D02*
X15892997Y-12100881D01*
X15892997Y-12100881D02*
X15892997Y-12043738D01*
X15892997Y-12043738D02*
X15902521Y-12024690D01*
X15902521Y-12024690D02*
X15912045Y-12015167D01*
X15912045Y-12015167D02*
X15931093Y-12005643D01*
X15931093Y-12005643D02*
X15959664Y-12005643D01*
X15959664Y-12005643D02*
X15978712Y-12015167D01*
X15978712Y-12015167D02*
X15988235Y-12024690D01*
X15988235Y-12024690D02*
X15997759Y-12043738D01*
X15997759Y-12043738D02*
X15997759Y-12100881D01*
X15997759Y-12100881D02*
X15988235Y-12119928D01*
X15988235Y-12119928D02*
X15978712Y-12129452D01*
X15978712Y-12129452D02*
X15959664Y-12138976D01*
X15959664Y-12138976D02*
X15931093Y-12138976D01*
X16112045Y-12138976D02*
X16092997Y-12129452D01*
X16092997Y-12129452D02*
X16083474Y-12110405D01*
X16083474Y-12110405D02*
X16083474Y-11938976D01*
X16264426Y-12129452D02*
X16245378Y-12138976D01*
X16245378Y-12138976D02*
X16207283Y-12138976D01*
X16207283Y-12138976D02*
X16188235Y-12129452D01*
X16188235Y-12129452D02*
X16178712Y-12110405D01*
X16178712Y-12110405D02*
X16178712Y-12034214D01*
X16178712Y-12034214D02*
X16188235Y-12015167D01*
X16188235Y-12015167D02*
X16207283Y-12005643D01*
X16207283Y-12005643D02*
X16245378Y-12005643D01*
X16245378Y-12005643D02*
X16264426Y-12015167D01*
X16264426Y-12015167D02*
X16273950Y-12034214D01*
X16273950Y-12034214D02*
X16273950Y-12053262D01*
X16273950Y-12053262D02*
X16178712Y-12072309D01*
X16350140Y-12129452D02*
X16369188Y-12138976D01*
X16369188Y-12138976D02*
X16407283Y-12138976D01*
X16407283Y-12138976D02*
X16426331Y-12129452D01*
X16426331Y-12129452D02*
X16435855Y-12110405D01*
X16435855Y-12110405D02*
X16435855Y-12100881D01*
X16435855Y-12100881D02*
X16426331Y-12081833D01*
X16426331Y-12081833D02*
X16407283Y-12072309D01*
X16407283Y-12072309D02*
X16378712Y-12072309D01*
X16378712Y-12072309D02*
X16359664Y-12062786D01*
X16359664Y-12062786D02*
X16350140Y-12043738D01*
X16350140Y-12043738D02*
X16350140Y-12034214D01*
X16350140Y-12034214D02*
X16359664Y-12015167D01*
X16359664Y-12015167D02*
X16378712Y-12005643D01*
X16378712Y-12005643D02*
X16407283Y-12005643D01*
X16407283Y-12005643D02*
X16426331Y-12015167D01*
X16502521Y-12215167D02*
X16512045Y-12205643D01*
X16512045Y-12205643D02*
X16531093Y-12177071D01*
X16531093Y-12177071D02*
X16540616Y-12158024D01*
X16540616Y-12158024D02*
X16550140Y-12129452D01*
X16550140Y-12129452D02*
X16559664Y-12081833D01*
X16559664Y-12081833D02*
X16559664Y-12043738D01*
X16559664Y-12043738D02*
X16550140Y-11996119D01*
X16550140Y-11996119D02*
X16540616Y-11967548D01*
X16540616Y-11967548D02*
X16531093Y-11948500D01*
X16531093Y-11948500D02*
X16512045Y-11919928D01*
X16512045Y-11919928D02*
X16502521Y-11910405D01*
D14*
X11662091Y-12371927D02*
X11662091Y-12287073D01*
X11577237Y-12287073D01*
X11577237Y-12371927D01*
X11662091Y-12371927D01*
D11*
X12032045Y-12402976D02*
X11917759Y-12402976D01*
X11974902Y-12402976D02*
X11974902Y-12202976D01*
X11974902Y-12202976D02*
X11955854Y-12231548D01*
X11955854Y-12231548D02*
X11936807Y-12250595D01*
X11936807Y-12250595D02*
X11917759Y-12260119D01*
X12117759Y-12383928D02*
X12127283Y-12393452D01*
X12127283Y-12393452D02*
X12117759Y-12402976D01*
X12117759Y-12402976D02*
X12108235Y-12393452D01*
X12108235Y-12393452D02*
X12117759Y-12383928D01*
X12117759Y-12383928D02*
X12117759Y-12402976D01*
X12203473Y-12222024D02*
X12212997Y-12212500D01*
X12212997Y-12212500D02*
X12232045Y-12202976D01*
X12232045Y-12202976D02*
X12279664Y-12202976D01*
X12279664Y-12202976D02*
X12298711Y-12212500D01*
X12298711Y-12212500D02*
X12308235Y-12222024D01*
X12308235Y-12222024D02*
X12317759Y-12241071D01*
X12317759Y-12241071D02*
X12317759Y-12260119D01*
X12317759Y-12260119D02*
X12308235Y-12288690D01*
X12308235Y-12288690D02*
X12193950Y-12402976D01*
X12193950Y-12402976D02*
X12317759Y-12402976D01*
X12441569Y-12202976D02*
X12460616Y-12202976D01*
X12460616Y-12202976D02*
X12479664Y-12212500D01*
X12479664Y-12212500D02*
X12489188Y-12222024D01*
X12489188Y-12222024D02*
X12498711Y-12241071D01*
X12498711Y-12241071D02*
X12508235Y-12279167D01*
X12508235Y-12279167D02*
X12508235Y-12326786D01*
X12508235Y-12326786D02*
X12498711Y-12364881D01*
X12498711Y-12364881D02*
X12489188Y-12383928D01*
X12489188Y-12383928D02*
X12479664Y-12393452D01*
X12479664Y-12393452D02*
X12460616Y-12402976D01*
X12460616Y-12402976D02*
X12441569Y-12402976D01*
X12441569Y-12402976D02*
X12422521Y-12393452D01*
X12422521Y-12393452D02*
X12412997Y-12383928D01*
X12412997Y-12383928D02*
X12403473Y-12364881D01*
X12403473Y-12364881D02*
X12393950Y-12326786D01*
X12393950Y-12326786D02*
X12393950Y-12279167D01*
X12393950Y-12279167D02*
X12403473Y-12241071D01*
X12403473Y-12241071D02*
X12412997Y-12222024D01*
X12412997Y-12222024D02*
X12422521Y-12212500D01*
X12422521Y-12212500D02*
X12441569Y-12202976D01*
X12632045Y-12202976D02*
X12651092Y-12202976D01*
X12651092Y-12202976D02*
X12670140Y-12212500D01*
X12670140Y-12212500D02*
X12679664Y-12222024D01*
X12679664Y-12222024D02*
X12689188Y-12241071D01*
X12689188Y-12241071D02*
X12698711Y-12279167D01*
X12698711Y-12279167D02*
X12698711Y-12326786D01*
X12698711Y-12326786D02*
X12689188Y-12364881D01*
X12689188Y-12364881D02*
X12679664Y-12383928D01*
X12679664Y-12383928D02*
X12670140Y-12393452D01*
X12670140Y-12393452D02*
X12651092Y-12402976D01*
X12651092Y-12402976D02*
X12632045Y-12402976D01*
X12632045Y-12402976D02*
X12612997Y-12393452D01*
X12612997Y-12393452D02*
X12603473Y-12383928D01*
X12603473Y-12383928D02*
X12593950Y-12364881D01*
X12593950Y-12364881D02*
X12584426Y-12326786D01*
X12584426Y-12326786D02*
X12584426Y-12279167D01*
X12584426Y-12279167D02*
X12593950Y-12241071D01*
X12593950Y-12241071D02*
X12603473Y-12222024D01*
X12603473Y-12222024D02*
X12612997Y-12212500D01*
X12612997Y-12212500D02*
X12632045Y-12202976D01*
X12784426Y-12402976D02*
X12784426Y-12269643D01*
X12784426Y-12288690D02*
X12793950Y-12279167D01*
X12793950Y-12279167D02*
X12812997Y-12269643D01*
X12812997Y-12269643D02*
X12841569Y-12269643D01*
X12841569Y-12269643D02*
X12860616Y-12279167D01*
X12860616Y-12279167D02*
X12870140Y-12298214D01*
X12870140Y-12298214D02*
X12870140Y-12402976D01*
X12870140Y-12298214D02*
X12879664Y-12279167D01*
X12879664Y-12279167D02*
X12898711Y-12269643D01*
X12898711Y-12269643D02*
X12927283Y-12269643D01*
X12927283Y-12269643D02*
X12946331Y-12279167D01*
X12946331Y-12279167D02*
X12955854Y-12298214D01*
X12955854Y-12298214D02*
X12955854Y-12402976D01*
X13051092Y-12402976D02*
X13051092Y-12269643D01*
X13051092Y-12288690D02*
X13060616Y-12279167D01*
X13060616Y-12279167D02*
X13079664Y-12269643D01*
X13079664Y-12269643D02*
X13108235Y-12269643D01*
X13108235Y-12269643D02*
X13127283Y-12279167D01*
X13127283Y-12279167D02*
X13136807Y-12298214D01*
X13136807Y-12298214D02*
X13136807Y-12402976D01*
X13136807Y-12298214D02*
X13146331Y-12279167D01*
X13146331Y-12279167D02*
X13165378Y-12269643D01*
X13165378Y-12269643D02*
X13193950Y-12269643D01*
X13193950Y-12269643D02*
X13212997Y-12279167D01*
X13212997Y-12279167D02*
X13222521Y-12298214D01*
X13222521Y-12298214D02*
X13222521Y-12402976D01*
X13580616Y-12193452D02*
X13409188Y-12450595D01*
X13805378Y-12202976D02*
X13824426Y-12202976D01*
X13824426Y-12202976D02*
X13843473Y-12212500D01*
X13843473Y-12212500D02*
X13852997Y-12222024D01*
X13852997Y-12222024D02*
X13862521Y-12241071D01*
X13862521Y-12241071D02*
X13872045Y-12279167D01*
X13872045Y-12279167D02*
X13872045Y-12326786D01*
X13872045Y-12326786D02*
X13862521Y-12364881D01*
X13862521Y-12364881D02*
X13852997Y-12383928D01*
X13852997Y-12383928D02*
X13843473Y-12393452D01*
X13843473Y-12393452D02*
X13824426Y-12402976D01*
X13824426Y-12402976D02*
X13805378Y-12402976D01*
X13805378Y-12402976D02*
X13786331Y-12393452D01*
X13786331Y-12393452D02*
X13776807Y-12383928D01*
X13776807Y-12383928D02*
X13767283Y-12364881D01*
X13767283Y-12364881D02*
X13757759Y-12326786D01*
X13757759Y-12326786D02*
X13757759Y-12279167D01*
X13757759Y-12279167D02*
X13767283Y-12241071D01*
X13767283Y-12241071D02*
X13776807Y-12222024D01*
X13776807Y-12222024D02*
X13786331Y-12212500D01*
X13786331Y-12212500D02*
X13805378Y-12202976D01*
X13957759Y-12383928D02*
X13967283Y-12393452D01*
X13967283Y-12393452D02*
X13957759Y-12402976D01*
X13957759Y-12402976D02*
X13948235Y-12393452D01*
X13948235Y-12393452D02*
X13957759Y-12383928D01*
X13957759Y-12383928D02*
X13957759Y-12402976D01*
X14091092Y-12202976D02*
X14110140Y-12202976D01*
X14110140Y-12202976D02*
X14129188Y-12212500D01*
X14129188Y-12212500D02*
X14138712Y-12222024D01*
X14138712Y-12222024D02*
X14148235Y-12241071D01*
X14148235Y-12241071D02*
X14157759Y-12279167D01*
X14157759Y-12279167D02*
X14157759Y-12326786D01*
X14157759Y-12326786D02*
X14148235Y-12364881D01*
X14148235Y-12364881D02*
X14138712Y-12383928D01*
X14138712Y-12383928D02*
X14129188Y-12393452D01*
X14129188Y-12393452D02*
X14110140Y-12402976D01*
X14110140Y-12402976D02*
X14091092Y-12402976D01*
X14091092Y-12402976D02*
X14072045Y-12393452D01*
X14072045Y-12393452D02*
X14062521Y-12383928D01*
X14062521Y-12383928D02*
X14052997Y-12364881D01*
X14052997Y-12364881D02*
X14043473Y-12326786D01*
X14043473Y-12326786D02*
X14043473Y-12279167D01*
X14043473Y-12279167D02*
X14052997Y-12241071D01*
X14052997Y-12241071D02*
X14062521Y-12222024D01*
X14062521Y-12222024D02*
X14072045Y-12212500D01*
X14072045Y-12212500D02*
X14091092Y-12202976D01*
X14329188Y-12269643D02*
X14329188Y-12402976D01*
X14281569Y-12193452D02*
X14233950Y-12336309D01*
X14233950Y-12336309D02*
X14357759Y-12336309D01*
X14414902Y-12202976D02*
X14548235Y-12202976D01*
X14548235Y-12202976D02*
X14462521Y-12402976D01*
X14614902Y-12222024D02*
X14624426Y-12212500D01*
X14624426Y-12212500D02*
X14643473Y-12202976D01*
X14643473Y-12202976D02*
X14691093Y-12202976D01*
X14691093Y-12202976D02*
X14710140Y-12212500D01*
X14710140Y-12212500D02*
X14719664Y-12222024D01*
X14719664Y-12222024D02*
X14729188Y-12241071D01*
X14729188Y-12241071D02*
X14729188Y-12260119D01*
X14729188Y-12260119D02*
X14719664Y-12288690D01*
X14719664Y-12288690D02*
X14605378Y-12402976D01*
X14605378Y-12402976D02*
X14729188Y-12402976D01*
X14805378Y-12202976D02*
X14805378Y-12241071D01*
X14881569Y-12202976D02*
X14881569Y-12241071D01*
X15144426Y-12479167D02*
X15134902Y-12469643D01*
X15134902Y-12469643D02*
X15115854Y-12441071D01*
X15115854Y-12441071D02*
X15106331Y-12422024D01*
X15106331Y-12422024D02*
X15096807Y-12393452D01*
X15096807Y-12393452D02*
X15087283Y-12345833D01*
X15087283Y-12345833D02*
X15087283Y-12307738D01*
X15087283Y-12307738D02*
X15096807Y-12260119D01*
X15096807Y-12260119D02*
X15106331Y-12231548D01*
X15106331Y-12231548D02*
X15115854Y-12212500D01*
X15115854Y-12212500D02*
X15134902Y-12183928D01*
X15134902Y-12183928D02*
X15144426Y-12174405D01*
X15201569Y-12202976D02*
X15325378Y-12202976D01*
X15325378Y-12202976D02*
X15258712Y-12279167D01*
X15258712Y-12279167D02*
X15287283Y-12279167D01*
X15287283Y-12279167D02*
X15306331Y-12288690D01*
X15306331Y-12288690D02*
X15315854Y-12298214D01*
X15315854Y-12298214D02*
X15325378Y-12317262D01*
X15325378Y-12317262D02*
X15325378Y-12364881D01*
X15325378Y-12364881D02*
X15315854Y-12383928D01*
X15315854Y-12383928D02*
X15306331Y-12393452D01*
X15306331Y-12393452D02*
X15287283Y-12402976D01*
X15287283Y-12402976D02*
X15230140Y-12402976D01*
X15230140Y-12402976D02*
X15211093Y-12393452D01*
X15211093Y-12393452D02*
X15201569Y-12383928D01*
X15531093Y-12402976D02*
X15531093Y-12202976D01*
X15616807Y-12402976D02*
X15616807Y-12298214D01*
X15616807Y-12298214D02*
X15607283Y-12279167D01*
X15607283Y-12279167D02*
X15588235Y-12269643D01*
X15588235Y-12269643D02*
X15559664Y-12269643D01*
X15559664Y-12269643D02*
X15540616Y-12279167D01*
X15540616Y-12279167D02*
X15531093Y-12288690D01*
X15740616Y-12402976D02*
X15721569Y-12393452D01*
X15721569Y-12393452D02*
X15712045Y-12383928D01*
X15712045Y-12383928D02*
X15702521Y-12364881D01*
X15702521Y-12364881D02*
X15702521Y-12307738D01*
X15702521Y-12307738D02*
X15712045Y-12288690D01*
X15712045Y-12288690D02*
X15721569Y-12279167D01*
X15721569Y-12279167D02*
X15740616Y-12269643D01*
X15740616Y-12269643D02*
X15769188Y-12269643D01*
X15769188Y-12269643D02*
X15788235Y-12279167D01*
X15788235Y-12279167D02*
X15797759Y-12288690D01*
X15797759Y-12288690D02*
X15807283Y-12307738D01*
X15807283Y-12307738D02*
X15807283Y-12364881D01*
X15807283Y-12364881D02*
X15797759Y-12383928D01*
X15797759Y-12383928D02*
X15788235Y-12393452D01*
X15788235Y-12393452D02*
X15769188Y-12402976D01*
X15769188Y-12402976D02*
X15740616Y-12402976D01*
X15921569Y-12402976D02*
X15902521Y-12393452D01*
X15902521Y-12393452D02*
X15892997Y-12374405D01*
X15892997Y-12374405D02*
X15892997Y-12202976D01*
X16073950Y-12393452D02*
X16054902Y-12402976D01*
X16054902Y-12402976D02*
X16016807Y-12402976D01*
X16016807Y-12402976D02*
X15997759Y-12393452D01*
X15997759Y-12393452D02*
X15988235Y-12374405D01*
X15988235Y-12374405D02*
X15988235Y-12298214D01*
X15988235Y-12298214D02*
X15997759Y-12279167D01*
X15997759Y-12279167D02*
X16016807Y-12269643D01*
X16016807Y-12269643D02*
X16054902Y-12269643D01*
X16054902Y-12269643D02*
X16073950Y-12279167D01*
X16073950Y-12279167D02*
X16083474Y-12298214D01*
X16083474Y-12298214D02*
X16083474Y-12317262D01*
X16083474Y-12317262D02*
X15988235Y-12336309D01*
X16159664Y-12393452D02*
X16178712Y-12402976D01*
X16178712Y-12402976D02*
X16216807Y-12402976D01*
X16216807Y-12402976D02*
X16235855Y-12393452D01*
X16235855Y-12393452D02*
X16245378Y-12374405D01*
X16245378Y-12374405D02*
X16245378Y-12364881D01*
X16245378Y-12364881D02*
X16235855Y-12345833D01*
X16235855Y-12345833D02*
X16216807Y-12336309D01*
X16216807Y-12336309D02*
X16188235Y-12336309D01*
X16188235Y-12336309D02*
X16169188Y-12326786D01*
X16169188Y-12326786D02*
X16159664Y-12307738D01*
X16159664Y-12307738D02*
X16159664Y-12298214D01*
X16159664Y-12298214D02*
X16169188Y-12279167D01*
X16169188Y-12279167D02*
X16188235Y-12269643D01*
X16188235Y-12269643D02*
X16216807Y-12269643D01*
X16216807Y-12269643D02*
X16235855Y-12279167D01*
X16312045Y-12479167D02*
X16321569Y-12469643D01*
X16321569Y-12469643D02*
X16340616Y-12441071D01*
X16340616Y-12441071D02*
X16350140Y-12422024D01*
X16350140Y-12422024D02*
X16359664Y-12393452D01*
X16359664Y-12393452D02*
X16369188Y-12345833D01*
X16369188Y-12345833D02*
X16369188Y-12307738D01*
X16369188Y-12307738D02*
X16359664Y-12260119D01*
X16359664Y-12260119D02*
X16350140Y-12231548D01*
X16350140Y-12231548D02*
X16340616Y-12212500D01*
X16340616Y-12212500D02*
X16321569Y-12183928D01*
X16321569Y-12183928D02*
X16312045Y-12174405D01*
M02*
