%TF.GenerationSoftware,KiCad,Pcbnew,8.0.5*%
%TF.CreationDate,2025-01-12T16:45:05+07:00*%
%TF.ProjectId,ESP32-MODBUS-RS485-SHIELD,45535033-322d-44d4-9f44-4255532d5253,rev?*%
%TF.SameCoordinates,Original*%
%TF.FileFunction,Copper,L1,Top*%
%TF.FilePolarity,Positive*%
%FSLAX46Y46*%
G04 Gerber Fmt 4.6, Leading zero omitted, Abs format (unit mm)*
G04 Created by KiCad (PCBNEW 8.0.5) date 2025-01-12 16:45:05*
%MOMM*%
%LPD*%
G01*
G04 APERTURE LIST*
G04 Aperture macros list*
%AMRoundRect*
0 Rectangle with rounded corners*
0 $1 Rounding radius*
0 $2 $3 $4 $5 $6 $7 $8 $9 X,Y pos of 4 corners*
0 Add a 4 corners polygon primitive as box body*
4,1,4,$2,$3,$4,$5,$6,$7,$8,$9,$2,$3,0*
0 Add four circle primitives for the rounded corners*
1,1,$1+$1,$2,$3*
1,1,$1+$1,$4,$5*
1,1,$1+$1,$6,$7*
1,1,$1+$1,$8,$9*
0 Add four rect primitives between the rounded corners*
20,1,$1+$1,$2,$3,$4,$5,0*
20,1,$1+$1,$4,$5,$6,$7,0*
20,1,$1+$1,$6,$7,$8,$9,0*
20,1,$1+$1,$8,$9,$2,$3,0*%
G04 Aperture macros list end*
%TA.AperFunction,SMDPad,CuDef*%
%ADD10RoundRect,0.200000X0.200000X0.275000X-0.200000X0.275000X-0.200000X-0.275000X0.200000X-0.275000X0*%
%TD*%
%TA.AperFunction,SMDPad,CuDef*%
%ADD11RoundRect,0.250000X0.375000X0.625000X-0.375000X0.625000X-0.375000X-0.625000X0.375000X-0.625000X0*%
%TD*%
%TA.AperFunction,SMDPad,CuDef*%
%ADD12RoundRect,0.200000X0.275000X-0.200000X0.275000X0.200000X-0.275000X0.200000X-0.275000X-0.200000X0*%
%TD*%
%TA.AperFunction,SMDPad,CuDef*%
%ADD13RoundRect,0.250000X0.412500X0.925000X-0.412500X0.925000X-0.412500X-0.925000X0.412500X-0.925000X0*%
%TD*%
%TA.AperFunction,ComponentPad*%
%ADD14RoundRect,0.250000X1.550000X-0.650000X1.550000X0.650000X-1.550000X0.650000X-1.550000X-0.650000X0*%
%TD*%
%TA.AperFunction,ComponentPad*%
%ADD15O,3.600000X1.800000*%
%TD*%
%TA.AperFunction,ComponentPad*%
%ADD16R,1.700000X1.700000*%
%TD*%
%TA.AperFunction,ComponentPad*%
%ADD17O,1.700000X1.700000*%
%TD*%
%TA.AperFunction,SMDPad,CuDef*%
%ADD18RoundRect,0.150000X-0.587500X-0.150000X0.587500X-0.150000X0.587500X0.150000X-0.587500X0.150000X0*%
%TD*%
%TA.AperFunction,SMDPad,CuDef*%
%ADD19RoundRect,0.218750X0.218750X0.256250X-0.218750X0.256250X-0.218750X-0.256250X0.218750X-0.256250X0*%
%TD*%
%TA.AperFunction,SMDPad,CuDef*%
%ADD20RoundRect,0.250000X-0.312500X-1.450000X0.312500X-1.450000X0.312500X1.450000X-0.312500X1.450000X0*%
%TD*%
%TA.AperFunction,SMDPad,CuDef*%
%ADD21R,2.500000X1.800000*%
%TD*%
%TA.AperFunction,SMDPad,CuDef*%
%ADD22RoundRect,0.225000X0.225000X0.250000X-0.225000X0.250000X-0.225000X-0.250000X0.225000X-0.250000X0*%
%TD*%
%TA.AperFunction,SMDPad,CuDef*%
%ADD23R,2.200000X0.600000*%
%TD*%
%TA.AperFunction,SMDPad,CuDef*%
%ADD24O,2.200000X0.600000*%
%TD*%
%TA.AperFunction,ViaPad*%
%ADD25C,0.600000*%
%TD*%
%TA.AperFunction,ViaPad*%
%ADD26C,0.800000*%
%TD*%
%TA.AperFunction,Conductor*%
%ADD27C,0.203200*%
%TD*%
%TA.AperFunction,Conductor*%
%ADD28C,0.381000*%
%TD*%
%TA.AperFunction,Conductor*%
%ADD29C,0.508000*%
%TD*%
%TA.AperFunction,Conductor*%
%ADD30C,1.016000*%
%TD*%
G04 APERTURE END LIST*
D10*
%TO.P,R42,1*%
%TO.N,/5V*%
X134725000Y-92700000D03*
%TO.P,R42,2*%
%TO.N,/DE_5V*%
X136375000Y-92700000D03*
%TD*%
D11*
%TO.P,F3,1*%
%TO.N,Net-(J1-Pin_19)*%
X145000000Y-86700000D03*
%TO.P,F3,2*%
%TO.N,/5V*%
X142200000Y-86700000D03*
%TD*%
D10*
%TO.P,R40,1*%
%TO.N,/5V*%
X134725000Y-86650000D03*
%TO.P,R40,2*%
%TO.N,/R_5V*%
X136375000Y-86650000D03*
%TD*%
D12*
%TO.P,R39,1*%
%TO.N,/3V3*%
X132650000Y-100625000D03*
%TO.P,R39,2*%
%TO.N,/RS485_TX*%
X132650000Y-102275000D03*
%TD*%
D13*
%TO.P,C5,1*%
%TO.N,/5V*%
X145237500Y-89700000D03*
%TO.P,C5,2*%
%TO.N,GND*%
X142162500Y-89700000D03*
%TD*%
D14*
%TO.P,J9,1,Pin_1*%
%TO.N,/A*%
X163667500Y-97670000D03*
D15*
%TO.P,J9,2,Pin_2*%
%TO.N,/RS485_COM*%
X163667500Y-94170000D03*
%TO.P,J9,3,Pin_3*%
%TO.N,/B*%
X163667500Y-90670000D03*
%TD*%
D16*
%TO.P,J1,1,Pin_1*%
%TO.N,/3V3*%
X121490000Y-106925000D03*
D17*
%TO.P,J1,2,Pin_2*%
%TO.N,/EN*%
X124030000Y-106925000D03*
%TO.P,J1,3,Pin_3*%
%TO.N,/GPIO36*%
X126570000Y-106925000D03*
%TO.P,J1,4,Pin_4*%
%TO.N,/GPIO39*%
X129110000Y-106925000D03*
%TO.P,J1,5,Pin_5*%
%TO.N,/GPIO34*%
X131650000Y-106925000D03*
%TO.P,J1,6,Pin_6*%
%TO.N,/GPIO35*%
X134190000Y-106925000D03*
%TO.P,J1,7,Pin_7*%
%TO.N,/GPIO32*%
X136730000Y-106925000D03*
%TO.P,J1,8,Pin_8*%
%TO.N,/RS485_DE*%
X139270000Y-106925000D03*
%TO.P,J1,9,Pin_9*%
%TO.N,/GPIO25*%
X141810000Y-106925000D03*
%TO.P,J1,10,Pin_10*%
%TO.N,/GPIO26*%
X144350000Y-106925000D03*
%TO.P,J1,11,Pin_11*%
%TO.N,/GPIO27*%
X146890000Y-106925000D03*
%TO.P,J1,12,Pin_12*%
%TO.N,/GPIO14*%
X149430000Y-106925000D03*
%TO.P,J1,13,Pin_13*%
%TO.N,/GPIO12*%
X151970000Y-106925000D03*
%TO.P,J1,14,Pin_14*%
%TO.N,GND*%
X154510000Y-106925000D03*
%TO.P,J1,15,Pin_15*%
%TO.N,/GPIO13*%
X157050000Y-106925000D03*
%TO.P,J1,16,Pin_16*%
%TO.N,/GPIO9*%
X159590000Y-106925000D03*
%TO.P,J1,17,Pin_17*%
%TO.N,/GPIO10*%
X162130000Y-106925000D03*
%TO.P,J1,18,Pin_18*%
%TO.N,/GPIO11*%
X164670000Y-106925000D03*
%TO.P,J1,19,Pin_19*%
%TO.N,Net-(J1-Pin_19)*%
X167210000Y-106925000D03*
%TD*%
D12*
%TO.P,R41,1*%
%TO.N,/3V3*%
X132650000Y-88425000D03*
%TO.P,R41,2*%
%TO.N,/RS485_RX*%
X132650000Y-90075000D03*
%TD*%
D18*
%TO.P,Q19,1,G*%
%TO.N,/3V3*%
X134612500Y-94350000D03*
%TO.P,Q19,2,S*%
%TO.N,/RS485_DE*%
X134612500Y-96250000D03*
%TO.P,Q19,3,D*%
%TO.N,/DE_5V*%
X136487500Y-95300000D03*
%TD*%
D19*
%TO.P,D36,1,K*%
%TO.N,GND*%
X167587500Y-103950000D03*
%TO.P,D36,2,A*%
%TO.N,Net-(D36-A)*%
X166012500Y-103950000D03*
%TD*%
D20*
%TO.P,F1,1*%
%TO.N,Net-(D33-A2)*%
X150862500Y-86300000D03*
%TO.P,F1,2*%
%TO.N,/B*%
X155137500Y-86300000D03*
%TD*%
D21*
%TO.P,D34,1,A1*%
%TO.N,/RS485_COM*%
X155000000Y-98050000D03*
%TO.P,D34,2,A2*%
%TO.N,Net-(D33-A1)*%
X151000000Y-98050000D03*
%TD*%
D10*
%TO.P,R45,1*%
%TO.N,/D_5V*%
X162275000Y-103950000D03*
%TO.P,R45,2*%
%TO.N,Net-(D36-A)*%
X163925000Y-103950000D03*
%TD*%
%TO.P,R38,1*%
%TO.N,/5V*%
X134725000Y-98830000D03*
%TO.P,R38,2*%
%TO.N,/D_5V*%
X136375000Y-98830000D03*
%TD*%
%TO.P,R47,1*%
%TO.N,/R_5V*%
X162275000Y-101900000D03*
%TO.P,R47,2*%
%TO.N,Net-(D37-A)*%
X163925000Y-101900000D03*
%TD*%
D22*
%TO.P,C3,1*%
%TO.N,/5V*%
X144492500Y-92450000D03*
%TO.P,C3,2*%
%TO.N,GND*%
X142942500Y-92450000D03*
%TD*%
D16*
%TO.P,J10,1,Pin_1*%
%TO.N,/A*%
X166675000Y-85600000D03*
D17*
%TO.P,J10,2,Pin_2*%
%TO.N,Net-(J10-Pin_2)*%
X164135000Y-85600000D03*
%TD*%
D21*
%TO.P,D35,1,A1*%
%TO.N,Net-(D33-A2)*%
X151000000Y-90362500D03*
%TO.P,D35,2,A2*%
%TO.N,/RS485_COM*%
X155000000Y-90362500D03*
%TD*%
D20*
%TO.P,F2,1*%
%TO.N,Net-(D33-A1)*%
X150862500Y-101950000D03*
%TO.P,F2,2*%
%TO.N,/A*%
X155137500Y-101950000D03*
%TD*%
D23*
%TO.P,U11,1,R*%
%TO.N,/R_5V*%
X141181060Y-94645000D03*
D24*
%TO.P,U11,2,~{RE}*%
%TO.N,/DE_5V*%
X141181060Y-95915000D03*
%TO.P,U11,3,DE*%
X141181060Y-97185000D03*
%TO.P,U11,4,D*%
%TO.N,/D_5V*%
X141181060Y-98455000D03*
%TO.P,U11,5,GND*%
%TO.N,GND*%
X146380940Y-98455000D03*
%TO.P,U11,6,A*%
%TO.N,Net-(D33-A1)*%
X146380940Y-97185000D03*
%TO.P,U11,7,B*%
%TO.N,Net-(D33-A2)*%
X146380940Y-95915000D03*
%TO.P,U11,8,VCC*%
%TO.N,/5V*%
X146380940Y-94645000D03*
%TD*%
D10*
%TO.P,R36,1*%
%TO.N,/B*%
X159125000Y-85700000D03*
%TO.P,R36,2*%
%TO.N,Net-(J10-Pin_2)*%
X160775000Y-85700000D03*
%TD*%
D12*
%TO.P,R43,1*%
%TO.N,/3V3*%
X132650000Y-94475000D03*
%TO.P,R43,2*%
%TO.N,/RS485_DE*%
X132650000Y-96125000D03*
%TD*%
D18*
%TO.P,Q18,1,G*%
%TO.N,/3V3*%
X134612500Y-88300000D03*
%TO.P,Q18,2,S*%
%TO.N,/RS485_RX*%
X134612500Y-90200000D03*
%TO.P,Q18,3,D*%
%TO.N,/R_5V*%
X136487500Y-89250000D03*
%TD*%
D21*
%TO.P,D33,1,A1*%
%TO.N,Net-(D33-A1)*%
X155000000Y-94225000D03*
%TO.P,D33,2,A2*%
%TO.N,Net-(D33-A2)*%
X151000000Y-94225000D03*
%TD*%
D18*
%TO.P,Q17,1,G*%
%TO.N,/3V3*%
X134612500Y-100500000D03*
%TO.P,Q17,2,S*%
%TO.N,/RS485_TX*%
X134612500Y-102400000D03*
%TO.P,Q17,3,D*%
%TO.N,/D_5V*%
X136487500Y-101450000D03*
%TD*%
D16*
%TO.P,J2,1,Pin_1*%
%TO.N,GND*%
X121500000Y-81500000D03*
D17*
%TO.P,J2,2,Pin_2*%
%TO.N,/GPIO23*%
X124040000Y-81500000D03*
%TO.P,J2,3,Pin_3*%
%TO.N,/GPIO22*%
X126580000Y-81500000D03*
%TO.P,J2,4,Pin_4*%
%TO.N,/GPIO1*%
X129120000Y-81500000D03*
%TO.P,J2,5,Pin_5*%
%TO.N,/GPIO3*%
X131660000Y-81500000D03*
%TO.P,J2,6,Pin_6*%
%TO.N,/GPIO21*%
X134200000Y-81500000D03*
%TO.P,J2,7,Pin_7*%
%TO.N,GND*%
X136740000Y-81500000D03*
%TO.P,J2,8,Pin_8*%
%TO.N,/GPIO19*%
X139280000Y-81500000D03*
%TO.P,J2,9,Pin_9*%
%TO.N,/GPIO18*%
X141820000Y-81500000D03*
%TO.P,J2,10,Pin_10*%
%TO.N,/GPIO5*%
X144360000Y-81500000D03*
%TO.P,J2,11,Pin_11*%
%TO.N,/RS485_TX*%
X146900000Y-81500000D03*
%TO.P,J2,12,Pin_12*%
%TO.N,/RS485_RX*%
X149440000Y-81500000D03*
%TO.P,J2,13,Pin_13*%
%TO.N,/GPIO4*%
X151980000Y-81500000D03*
%TO.P,J2,14,Pin_14*%
%TO.N,/GPIO0*%
X154520000Y-81500000D03*
%TO.P,J2,15,Pin_15*%
%TO.N,/GPIO2*%
X157060000Y-81500000D03*
%TO.P,J2,16,Pin_16*%
%TO.N,/GPIO15*%
X159600000Y-81500000D03*
%TO.P,J2,17,Pin_17*%
%TO.N,/GPIO8*%
X162140000Y-81500000D03*
%TO.P,J2,18,Pin_18*%
%TO.N,/GPIO7*%
X164680000Y-81500000D03*
%TO.P,J2,19,Pin_19*%
%TO.N,/GPIO6*%
X167220000Y-81500000D03*
%TD*%
D19*
%TO.P,D37,1,K*%
%TO.N,GND*%
X167587500Y-101900000D03*
%TO.P,D37,2,A*%
%TO.N,Net-(D37-A)*%
X166012500Y-101900000D03*
%TD*%
D25*
%TO.N,GND*%
X137050000Y-91350000D03*
X139800000Y-100350000D03*
X140950000Y-89700000D03*
X132750000Y-93000000D03*
X148900000Y-92250000D03*
X153050000Y-92250000D03*
X160800000Y-100400000D03*
X141400000Y-102950000D03*
X134900000Y-104350000D03*
X160800000Y-88450000D03*
X138900000Y-102950000D03*
X147750000Y-101250000D03*
X145400000Y-101250000D03*
X158100000Y-94050000D03*
X135900000Y-91350000D03*
X160950000Y-96100000D03*
X132800000Y-91650000D03*
X140900000Y-92450000D03*
X140050000Y-86800000D03*
X135350000Y-97500000D03*
X132650000Y-99100000D03*
X139000000Y-94950000D03*
X147800000Y-88900000D03*
X146700000Y-92250000D03*
X165450000Y-92400000D03*
X161500000Y-89100000D03*
X153000000Y-103200000D03*
X158300000Y-102700000D03*
X138650000Y-97800000D03*
X132550000Y-104350000D03*
X138650000Y-96750000D03*
X132650000Y-97450000D03*
X153000000Y-100750000D03*
%TO.N,/5V*%
X134100000Y-86700000D03*
X134100000Y-92700000D03*
X134100000Y-97650000D03*
%TO.N,/RS485_DE*%
X136250000Y-96500000D03*
%TO.N,/RS485_TX*%
X137600000Y-102300000D03*
%TO.N,/RS485_RX*%
X138698900Y-90100000D03*
D26*
%TO.N,Net-(J1-Pin_19)*%
X148050000Y-86700000D03*
X147000000Y-86700000D03*
%TD*%
D27*
%TO.N,/3V3*%
X133225000Y-88425000D02*
X133400000Y-88250000D01*
X132650000Y-94475000D02*
X134487500Y-94475000D01*
D28*
X122400000Y-104000000D02*
X130500000Y-104000000D01*
X132650000Y-100625000D02*
X131575000Y-100625000D01*
X130500000Y-104000000D02*
X131450000Y-103050000D01*
D27*
X132775000Y-100500000D02*
X132650000Y-100625000D01*
D28*
X131700000Y-88500000D02*
X132575000Y-88500000D01*
D27*
X133400000Y-88250000D02*
X134562500Y-88250000D01*
X134612500Y-100500000D02*
X132775000Y-100500000D01*
D28*
X131450000Y-88750000D02*
X131700000Y-88500000D01*
X131450000Y-100500000D02*
X131450000Y-94550000D01*
X121490000Y-104910000D02*
X122400000Y-104000000D01*
D27*
X132650000Y-88425000D02*
X133225000Y-88425000D01*
D28*
X131525000Y-94475000D02*
X131450000Y-94550000D01*
D27*
X134487500Y-94475000D02*
X134612500Y-94350000D01*
D28*
X132575000Y-88500000D02*
X132650000Y-88425000D01*
X131450000Y-94550000D02*
X131450000Y-88750000D01*
X121490000Y-106925000D02*
X121490000Y-104910000D01*
X131450000Y-103050000D02*
X131450000Y-100500000D01*
X132650000Y-94475000D02*
X131525000Y-94475000D01*
D27*
X134562500Y-88250000D02*
X134612500Y-88300000D01*
D28*
X131575000Y-100625000D02*
X131450000Y-100500000D01*
%TO.N,GND*%
X142162500Y-89700000D02*
X140950000Y-89700000D01*
X142942500Y-92992500D02*
X144300000Y-94350000D01*
X144300000Y-94350000D02*
X144300000Y-97950000D01*
X144805000Y-98455000D02*
X146380940Y-98455000D01*
X142162500Y-90412500D02*
X142942500Y-91192500D01*
D27*
X167587500Y-103950000D02*
X167587500Y-101900000D01*
D28*
X142942500Y-91192500D02*
X142942500Y-92450000D01*
X142942500Y-92450000D02*
X142942500Y-92992500D01*
X144300000Y-97950000D02*
X144805000Y-98455000D01*
X142162500Y-89700000D02*
X142162500Y-90412500D01*
D29*
%TO.N,/5V*%
X144492500Y-91707500D02*
X144492500Y-92450000D01*
D28*
X134100000Y-98205000D02*
X134725000Y-98830000D01*
X134725000Y-92700000D02*
X134100000Y-92700000D01*
D29*
X142850000Y-86700000D02*
X143750000Y-87600000D01*
X142200000Y-86700000D02*
X142850000Y-86700000D01*
D28*
X134725000Y-86650000D02*
X134150000Y-86650000D01*
D29*
X144492500Y-92450000D02*
X144750000Y-92450000D01*
X145237500Y-90962500D02*
X144492500Y-91707500D01*
X146380940Y-94080940D02*
X146380940Y-94645000D01*
X142200000Y-86150000D02*
X142200000Y-86700000D01*
X141550000Y-85500000D02*
X142200000Y-86150000D01*
X144600000Y-89700000D02*
X145237500Y-89700000D01*
D28*
X134100000Y-97650000D02*
X134100000Y-98205000D01*
D29*
X144750000Y-92450000D02*
X146380940Y-94080940D01*
X134725000Y-85975000D02*
X135200000Y-85500000D01*
X143750000Y-87600000D02*
X143750000Y-88850000D01*
X135200000Y-85500000D02*
X141550000Y-85500000D01*
D28*
X134150000Y-86650000D02*
X134100000Y-86700000D01*
D29*
X145237500Y-89700000D02*
X145237500Y-90962500D01*
X143750000Y-88850000D02*
X144600000Y-89700000D01*
X134725000Y-86650000D02*
X134725000Y-85975000D01*
%TO.N,/RS485_COM*%
X157412500Y-90362500D02*
X161220000Y-94170000D01*
X155000000Y-98050000D02*
X156850000Y-98050000D01*
X156850000Y-98050000D02*
X160730000Y-94170000D01*
X161220000Y-94170000D02*
X163667500Y-94170000D01*
X160730000Y-94170000D02*
X163667500Y-94170000D01*
X155000000Y-90362500D02*
X157412500Y-90362500D01*
%TO.N,Net-(D33-A1)*%
X150862500Y-101950000D02*
X150862500Y-98187500D01*
X148900000Y-98050000D02*
X151000000Y-98050000D01*
X150862500Y-98187500D02*
X151000000Y-98050000D01*
X151175000Y-98050000D02*
X155000000Y-94225000D01*
X146380940Y-97185000D02*
X148035000Y-97185000D01*
X151000000Y-98050000D02*
X151175000Y-98050000D01*
X148035000Y-97185000D02*
X148900000Y-98050000D01*
%TO.N,Net-(J10-Pin_2)*%
X164135000Y-85600000D02*
X160875000Y-85600000D01*
X160875000Y-85600000D02*
X160775000Y-85700000D01*
D27*
%TO.N,/R_5V*%
X136375000Y-89137500D02*
X136487500Y-89250000D01*
X143000000Y-101800000D02*
X145250000Y-104050000D01*
X142495000Y-94645000D02*
X143000000Y-95150000D01*
X139650000Y-94300000D02*
X139995000Y-94645000D01*
X136487500Y-89250000D02*
X139050000Y-89250000D01*
X161550000Y-101900000D02*
X162275000Y-101900000D01*
X141181060Y-94645000D02*
X142495000Y-94645000D01*
X143000000Y-95150000D02*
X143000000Y-101800000D01*
X145250000Y-104050000D02*
X159400000Y-104050000D01*
X139650000Y-89850000D02*
X139650000Y-94300000D01*
X139050000Y-89250000D02*
X139650000Y-89850000D01*
X159400000Y-104050000D02*
X161550000Y-101900000D01*
X139995000Y-94645000D02*
X141181060Y-94645000D01*
X136375000Y-86650000D02*
X136375000Y-89137500D01*
D29*
%TO.N,/B*%
X157100000Y-86300000D02*
X157700000Y-85700000D01*
X159125000Y-88575000D02*
X161220000Y-90670000D01*
X159125000Y-85700000D02*
X159125000Y-88575000D01*
X157700000Y-85700000D02*
X159125000Y-85700000D01*
X161220000Y-90670000D02*
X163667500Y-90670000D01*
X155137500Y-86300000D02*
X157100000Y-86300000D01*
%TO.N,/A*%
X156900000Y-101950000D02*
X161180000Y-97670000D01*
X155137500Y-101950000D02*
X156900000Y-101950000D01*
X163667500Y-97670000D02*
X165580000Y-97670000D01*
X161180000Y-97670000D02*
X163667500Y-97670000D01*
X166675000Y-85600000D02*
X166675000Y-96575000D01*
X166675000Y-96575000D02*
X165580000Y-97670000D01*
D27*
%TO.N,/D_5V*%
X136375000Y-101337500D02*
X136487500Y-101450000D01*
X138720000Y-98830000D02*
X139095000Y-98455000D01*
X136375000Y-98830000D02*
X136375000Y-101337500D01*
X142400000Y-101800000D02*
X145053200Y-104453200D01*
X161350000Y-103950000D02*
X162275000Y-103950000D01*
X136375000Y-98830000D02*
X138720000Y-98830000D01*
X145053200Y-104453200D02*
X160846800Y-104453200D01*
X139095000Y-98455000D02*
X141181060Y-98455000D01*
X160846800Y-104453200D02*
X161350000Y-103950000D01*
X141181060Y-98455000D02*
X142400000Y-99673940D01*
X142400000Y-99673940D02*
X142400000Y-101800000D01*
%TO.N,/DE_5V*%
X136375000Y-92700000D02*
X136375000Y-95187500D01*
X136487500Y-95300000D02*
X137900000Y-95300000D01*
X138515000Y-95915000D02*
X141181060Y-95915000D01*
X136375000Y-95187500D02*
X136487500Y-95300000D01*
X141181060Y-95915000D02*
X141181060Y-97185000D01*
X137900000Y-95300000D02*
X138515000Y-95915000D01*
D29*
%TO.N,Net-(D33-A2)*%
X149275000Y-94225000D02*
X151000000Y-94225000D01*
X147585000Y-95915000D02*
X149275000Y-94225000D01*
X150862500Y-90225000D02*
X151000000Y-90362500D01*
X150862500Y-86300000D02*
X150862500Y-90225000D01*
X151000000Y-90362500D02*
X151000000Y-94225000D01*
X146380940Y-95915000D02*
X147585000Y-95915000D01*
D27*
%TO.N,Net-(D36-A)*%
X163925000Y-103950000D02*
X166012500Y-103950000D01*
%TO.N,Net-(D37-A)*%
X163925000Y-101900000D02*
X166012500Y-101900000D01*
%TO.N,/RS485_DE*%
X136000000Y-96250000D02*
X136250000Y-96500000D01*
X134612500Y-96250000D02*
X136000000Y-96250000D01*
X132650000Y-96125000D02*
X134487500Y-96125000D01*
X134487500Y-96125000D02*
X134612500Y-96250000D01*
%TO.N,/RS485_TX*%
X132650000Y-102275000D02*
X134487500Y-102275000D01*
X137500000Y-102400000D02*
X134612500Y-102400000D01*
X134487500Y-102275000D02*
X134612500Y-102400000D01*
X137600000Y-102300000D02*
X137500000Y-102400000D01*
%TO.N,/RS485_RX*%
X133525000Y-90075000D02*
X133700000Y-90250000D01*
X134562500Y-90250000D02*
X134612500Y-90200000D01*
X134612500Y-90200000D02*
X138598900Y-90200000D01*
X132650000Y-90075000D02*
X133525000Y-90075000D01*
X138598900Y-90200000D02*
X138698900Y-90100000D01*
X133700000Y-90250000D02*
X134562500Y-90250000D01*
D30*
%TO.N,Net-(J1-Pin_19)*%
X145000000Y-86700000D02*
X148050000Y-86700000D01*
%TD*%
%TA.AperFunction,Conductor*%
%TO.N,GND*%
G36*
X141008621Y-86282502D02*
G01*
X141055114Y-86336158D01*
X141066500Y-86388500D01*
X141066500Y-87375544D01*
X141077112Y-87479425D01*
X141132885Y-87647738D01*
X141225970Y-87798652D01*
X141225975Y-87798658D01*
X141351343Y-87924026D01*
X141356742Y-87928295D01*
X141397772Y-87986236D01*
X141400962Y-88057161D01*
X141365302Y-88118552D01*
X141344741Y-88134372D01*
X141276662Y-88176363D01*
X141276654Y-88176370D01*
X141151370Y-88301654D01*
X141151365Y-88301660D01*
X141058342Y-88452474D01*
X141002606Y-88620678D01*
X141002605Y-88620681D01*
X140992000Y-88724483D01*
X140992000Y-89446000D01*
X142290500Y-89446000D01*
X142358621Y-89466002D01*
X142405114Y-89519658D01*
X142416500Y-89572000D01*
X142416500Y-91403950D01*
X142425325Y-91420112D01*
X142420260Y-91490927D01*
X142377713Y-91547763D01*
X142368352Y-91554135D01*
X142259773Y-91621107D01*
X142259765Y-91621114D01*
X142138614Y-91742265D01*
X142138609Y-91742271D01*
X142048652Y-91888115D01*
X141994757Y-92050758D01*
X141994755Y-92050770D01*
X141984500Y-92151147D01*
X141984500Y-92196000D01*
X143070500Y-92196000D01*
X143138621Y-92216002D01*
X143185114Y-92269658D01*
X143196500Y-92322000D01*
X143196500Y-93433000D01*
X143216353Y-93433000D01*
X143216352Y-93432999D01*
X143316729Y-93422744D01*
X143316741Y-93422742D01*
X143479384Y-93368847D01*
X143625227Y-93278890D01*
X143628046Y-93276072D01*
X143630460Y-93274753D01*
X143630986Y-93274338D01*
X143631056Y-93274427D01*
X143690356Y-93242043D01*
X143761172Y-93247104D01*
X143806245Y-93276070D01*
X143809460Y-93279285D01*
X143955399Y-93369302D01*
X144118164Y-93423236D01*
X144138256Y-93425288D01*
X144218620Y-93433500D01*
X144218628Y-93433500D01*
X144602972Y-93433500D01*
X144671093Y-93453502D01*
X144692067Y-93470405D01*
X145063009Y-93841347D01*
X145097035Y-93903659D01*
X145091970Y-93974474D01*
X145063010Y-94019537D01*
X144952938Y-94129609D01*
X144879238Y-94239910D01*
X144864457Y-94262032D01*
X144823838Y-94360095D01*
X144803511Y-94409167D01*
X144803510Y-94409170D01*
X144772440Y-94565367D01*
X144772440Y-94565370D01*
X144772440Y-94724630D01*
X144803510Y-94880831D01*
X144864457Y-95027968D01*
X144952937Y-95160389D01*
X144952938Y-95160390D01*
X144952943Y-95160396D01*
X144983452Y-95190905D01*
X145017478Y-95253217D01*
X145012413Y-95324032D01*
X144983452Y-95369095D01*
X144952943Y-95399603D01*
X144952938Y-95399609D01*
X144875904Y-95514900D01*
X144864457Y-95532032D01*
X144821235Y-95636379D01*
X144803511Y-95679167D01*
X144803510Y-95679170D01*
X144772440Y-95835367D01*
X144772440Y-95835370D01*
X144772440Y-95994630D01*
X144803510Y-96150831D01*
X144864457Y-96297968D01*
X144952736Y-96430088D01*
X144952938Y-96430390D01*
X144952943Y-96430396D01*
X144983452Y-96460905D01*
X145017478Y-96523217D01*
X145012413Y-96594032D01*
X144983452Y-96639095D01*
X144952943Y-96669603D01*
X144952938Y-96669609D01*
X144933226Y-96699111D01*
X144864457Y-96802032D01*
X144803510Y-96949169D01*
X144798207Y-96975829D01*
X144772440Y-97105367D01*
X144772440Y-97264632D01*
X144782184Y-97313616D01*
X144803510Y-97420831D01*
X144864457Y-97567968D01*
X144952937Y-97700389D01*
X144952938Y-97700390D01*
X144952943Y-97700396D01*
X144983805Y-97731258D01*
X145017831Y-97793570D01*
X145012766Y-97864385D01*
X144983807Y-97909447D01*
X144953324Y-97939930D01*
X144864899Y-98072267D01*
X144803993Y-98219309D01*
X144803991Y-98219314D01*
X144772940Y-98375416D01*
X144772940Y-98534583D01*
X144803991Y-98690685D01*
X144803993Y-98690690D01*
X144864899Y-98837732D01*
X144953324Y-98970069D01*
X144953329Y-98970075D01*
X145065864Y-99082610D01*
X145065870Y-99082615D01*
X145198208Y-99171040D01*
X145274207Y-99202521D01*
X145274209Y-99202520D01*
X146291844Y-98184885D01*
X146354156Y-98150860D01*
X146424971Y-98155924D01*
X146470034Y-98184885D01*
X147487669Y-99202520D01*
X147487671Y-99202520D01*
X147563673Y-99171039D01*
X147696009Y-99082615D01*
X147696015Y-99082610D01*
X147808550Y-98970075D01*
X147808555Y-98970069D01*
X147896980Y-98837732D01*
X147957886Y-98690690D01*
X147957888Y-98690685D01*
X147988939Y-98534583D01*
X147988940Y-98534579D01*
X147988940Y-98521468D01*
X148008942Y-98453347D01*
X148062598Y-98406854D01*
X148132872Y-98396750D01*
X148197452Y-98426244D01*
X148204035Y-98432373D01*
X148413935Y-98642273D01*
X148538821Y-98725719D01*
X148636943Y-98766362D01*
X148677587Y-98783197D01*
X148824900Y-98812500D01*
X148975100Y-98812500D01*
X149115500Y-98812500D01*
X149183621Y-98832502D01*
X149230114Y-98886158D01*
X149241500Y-98938500D01*
X149241500Y-98998649D01*
X149248009Y-99059196D01*
X149248011Y-99059204D01*
X149299110Y-99196202D01*
X149299112Y-99196207D01*
X149386738Y-99313261D01*
X149503792Y-99400887D01*
X149503794Y-99400888D01*
X149503796Y-99400889D01*
X149546066Y-99416655D01*
X149640795Y-99451988D01*
X149640803Y-99451990D01*
X149701350Y-99458499D01*
X149701355Y-99458499D01*
X149701362Y-99458500D01*
X149974000Y-99458500D01*
X150042121Y-99478502D01*
X150088614Y-99532158D01*
X150100000Y-99584500D01*
X150100000Y-99825127D01*
X150079998Y-99893248D01*
X150063095Y-99914222D01*
X149950975Y-100026341D01*
X149950970Y-100026347D01*
X149857885Y-100177262D01*
X149802113Y-100345572D01*
X149802112Y-100345579D01*
X149791500Y-100449446D01*
X149791501Y-103313900D01*
X149771499Y-103382021D01*
X149717843Y-103428514D01*
X149665501Y-103439900D01*
X145554901Y-103439900D01*
X145486780Y-103419898D01*
X145465806Y-103402995D01*
X143647005Y-101584193D01*
X143612979Y-101521881D01*
X143610100Y-101495098D01*
X143610100Y-99262999D01*
X145932149Y-99262999D01*
X145932150Y-99263000D01*
X146829730Y-99263000D01*
X146829730Y-99262999D01*
X146380941Y-98814210D01*
X146380939Y-98814210D01*
X145932149Y-99262999D01*
X143610100Y-99262999D01*
X143610100Y-95089912D01*
X143610099Y-95089907D01*
X143609636Y-95087581D01*
X143604480Y-95061655D01*
X143586655Y-94972040D01*
X143548874Y-94880831D01*
X143540664Y-94861009D01*
X143473896Y-94761084D01*
X143388916Y-94676104D01*
X142883916Y-94171104D01*
X142783991Y-94104336D01*
X142783989Y-94104335D01*
X142783986Y-94104333D01*
X142751472Y-94090866D01*
X142751461Y-94090857D01*
X142751460Y-94090861D01*
X142751450Y-94090857D01*
X142750129Y-94090309D01*
X142746493Y-94088803D01*
X142693856Y-94047909D01*
X142644321Y-93981739D01*
X142644317Y-93981736D01*
X142527267Y-93894112D01*
X142527262Y-93894110D01*
X142390264Y-93843011D01*
X142390256Y-93843009D01*
X142329709Y-93836500D01*
X142329698Y-93836500D01*
X140386100Y-93836500D01*
X140317979Y-93816498D01*
X140271486Y-93762842D01*
X140260100Y-93710500D01*
X140260100Y-92748852D01*
X141984500Y-92748852D01*
X141994755Y-92849229D01*
X141994757Y-92849241D01*
X142048652Y-93011884D01*
X142138609Y-93157728D01*
X142138614Y-93157734D01*
X142259765Y-93278885D01*
X142259771Y-93278890D01*
X142405615Y-93368847D01*
X142568258Y-93422742D01*
X142568270Y-93422744D01*
X142668647Y-93432999D01*
X142668647Y-93433000D01*
X142688500Y-93433000D01*
X142688500Y-92704000D01*
X141984500Y-92704000D01*
X141984500Y-92748852D01*
X140260100Y-92748852D01*
X140260100Y-90675516D01*
X140992000Y-90675516D01*
X141002605Y-90779318D01*
X141002606Y-90779321D01*
X141058342Y-90947525D01*
X141151365Y-91098339D01*
X141151370Y-91098345D01*
X141276654Y-91223629D01*
X141276660Y-91223634D01*
X141427474Y-91316657D01*
X141595678Y-91372393D01*
X141595681Y-91372394D01*
X141699483Y-91382999D01*
X141699483Y-91383000D01*
X141908500Y-91383000D01*
X141908500Y-89954000D01*
X140992000Y-89954000D01*
X140992000Y-90675516D01*
X140260100Y-90675516D01*
X140260100Y-89789912D01*
X140260099Y-89789905D01*
X140251436Y-89746351D01*
X140236655Y-89672042D01*
X140236655Y-89672040D01*
X140193034Y-89566732D01*
X140191357Y-89562046D01*
X140123896Y-89461084D01*
X140090807Y-89427995D01*
X140038916Y-89376104D01*
X139438916Y-88776104D01*
X139438908Y-88776097D01*
X139437214Y-88774965D01*
X139437111Y-88774898D01*
X139435611Y-88773896D01*
X139338991Y-88709336D01*
X139319504Y-88701264D01*
X139300019Y-88693193D01*
X139300018Y-88693193D01*
X139227960Y-88663345D01*
X139227957Y-88663344D01*
X139110095Y-88639900D01*
X139110090Y-88639900D01*
X137598351Y-88639900D01*
X137530230Y-88619898D01*
X137509256Y-88602995D01*
X137481810Y-88575549D01*
X137481803Y-88575544D01*
X137338605Y-88490856D01*
X137178829Y-88444437D01*
X137141511Y-88441500D01*
X137141502Y-88441500D01*
X137111100Y-88441500D01*
X137042979Y-88421498D01*
X136996486Y-88367842D01*
X136985100Y-88315500D01*
X136985100Y-87569062D01*
X137005102Y-87500941D01*
X137022005Y-87479967D01*
X137136811Y-87365160D01*
X137136816Y-87365155D01*
X137225827Y-87217913D01*
X137277013Y-87053649D01*
X137283500Y-86982265D01*
X137283499Y-86388499D01*
X137303501Y-86320379D01*
X137357157Y-86273886D01*
X137409499Y-86262500D01*
X140940500Y-86262500D01*
X141008621Y-86282502D01*
G37*
%TD.AperFunction*%
%TA.AperFunction,Conductor*%
G36*
X161584408Y-94952502D02*
G01*
X161618223Y-94984439D01*
X161693158Y-95087578D01*
X161849921Y-95244341D01*
X161849924Y-95244343D01*
X162029285Y-95374657D01*
X162226824Y-95475308D01*
X162437676Y-95543818D01*
X162656649Y-95578500D01*
X162656652Y-95578500D01*
X164678348Y-95578500D01*
X164678351Y-95578500D01*
X164897324Y-95543818D01*
X165108176Y-95475308D01*
X165305715Y-95374657D01*
X165485076Y-95244343D01*
X165641843Y-95087576D01*
X165684565Y-95028773D01*
X165740786Y-94985421D01*
X165811522Y-94979346D01*
X165874314Y-95012477D01*
X165909225Y-95074297D01*
X165912500Y-95102836D01*
X165912500Y-96206972D01*
X165892498Y-96275093D01*
X165875599Y-96296062D01*
X165798425Y-96373237D01*
X165736112Y-96407262D01*
X165665297Y-96402196D01*
X165643184Y-96391382D01*
X165540239Y-96327885D01*
X165371927Y-96272113D01*
X165371920Y-96272112D01*
X165268053Y-96261500D01*
X162066955Y-96261500D01*
X161963074Y-96272112D01*
X161794761Y-96327885D01*
X161643847Y-96420970D01*
X161643841Y-96420975D01*
X161518475Y-96546341D01*
X161518470Y-96546347D01*
X161435385Y-96681050D01*
X161425385Y-96697262D01*
X161384338Y-96821133D01*
X161343926Y-96879504D01*
X161278370Y-96906760D01*
X161264735Y-96907500D01*
X161104896Y-96907500D01*
X160960724Y-96936179D01*
X160957587Y-96936802D01*
X160957584Y-96936804D01*
X160818820Y-96994282D01*
X160693934Y-97077727D01*
X160693930Y-97077730D01*
X156621067Y-101150595D01*
X156558755Y-101184621D01*
X156531972Y-101187500D01*
X156334499Y-101187500D01*
X156266378Y-101167498D01*
X156219885Y-101113842D01*
X156208499Y-101061500D01*
X156208499Y-100449455D01*
X156197887Y-100345574D01*
X156197886Y-100345572D01*
X156142115Y-100177262D01*
X156049030Y-100026348D01*
X156049029Y-100026347D01*
X156049024Y-100026341D01*
X155923658Y-99900975D01*
X155923652Y-99900970D01*
X155901037Y-99887021D01*
X155772738Y-99807885D01*
X155670991Y-99774170D01*
X155604427Y-99752113D01*
X155604420Y-99752112D01*
X155500553Y-99741500D01*
X154774455Y-99741500D01*
X154670574Y-99752112D01*
X154502261Y-99807885D01*
X154351347Y-99900970D01*
X154351341Y-99900975D01*
X154225975Y-100026341D01*
X154225970Y-100026347D01*
X154132885Y-100177262D01*
X154077113Y-100345572D01*
X154077112Y-100345579D01*
X154066500Y-100449446D01*
X154066501Y-103313900D01*
X154046499Y-103382021D01*
X153992843Y-103428514D01*
X153940501Y-103439900D01*
X152059500Y-103439900D01*
X151991379Y-103419898D01*
X151944886Y-103366242D01*
X151933500Y-103313900D01*
X151933499Y-100449455D01*
X151922887Y-100345574D01*
X151922886Y-100345572D01*
X151867115Y-100177262D01*
X151774030Y-100026348D01*
X151774029Y-100026347D01*
X151774024Y-100026341D01*
X151661905Y-99914222D01*
X151627879Y-99851910D01*
X151625000Y-99825127D01*
X151625000Y-99584500D01*
X151645002Y-99516379D01*
X151698658Y-99469886D01*
X151751000Y-99458500D01*
X152298632Y-99458500D01*
X152298638Y-99458500D01*
X152298645Y-99458499D01*
X152298649Y-99458499D01*
X152359196Y-99451990D01*
X152359199Y-99451989D01*
X152359201Y-99451989D01*
X152496204Y-99400889D01*
X152500180Y-99397913D01*
X152613261Y-99313261D01*
X152700887Y-99196207D01*
X152700887Y-99196206D01*
X152700889Y-99196204D01*
X152751989Y-99059201D01*
X152758500Y-98998638D01*
X152758500Y-97597028D01*
X152778502Y-97528907D01*
X152795405Y-97507933D01*
X153026405Y-97276933D01*
X153088717Y-97242907D01*
X153159532Y-97247972D01*
X153216368Y-97290519D01*
X153241179Y-97357039D01*
X153241500Y-97366028D01*
X153241500Y-98998649D01*
X153248009Y-99059196D01*
X153248011Y-99059204D01*
X153299110Y-99196202D01*
X153299112Y-99196207D01*
X153386738Y-99313261D01*
X153503792Y-99400887D01*
X153503794Y-99400888D01*
X153503796Y-99400889D01*
X153546066Y-99416655D01*
X153640795Y-99451988D01*
X153640803Y-99451990D01*
X153701350Y-99458499D01*
X153701355Y-99458499D01*
X153701362Y-99458500D01*
X153701368Y-99458500D01*
X156298632Y-99458500D01*
X156298638Y-99458500D01*
X156298645Y-99458499D01*
X156298649Y-99458499D01*
X156359196Y-99451990D01*
X156359199Y-99451989D01*
X156359201Y-99451989D01*
X156496204Y-99400889D01*
X156500180Y-99397913D01*
X156613261Y-99313261D01*
X156700887Y-99196207D01*
X156700887Y-99196206D01*
X156700889Y-99196204D01*
X156751989Y-99059201D01*
X156758500Y-98998638D01*
X156758500Y-98938500D01*
X156778502Y-98870379D01*
X156832158Y-98823886D01*
X156884500Y-98812500D01*
X156925100Y-98812500D01*
X157072413Y-98783197D01*
X157211179Y-98725718D01*
X157253728Y-98697288D01*
X157336065Y-98642273D01*
X157336064Y-98642273D01*
X157336068Y-98642271D01*
X157336069Y-98642269D01*
X161008933Y-94969405D01*
X161071245Y-94935379D01*
X161098028Y-94932500D01*
X161144900Y-94932500D01*
X161516287Y-94932500D01*
X161584408Y-94952502D01*
G37*
%TD.AperFunction*%
%TA.AperFunction,Conductor*%
G36*
X133498729Y-96875713D02*
G01*
X133550030Y-96924791D01*
X133566653Y-96993815D01*
X133543321Y-97060868D01*
X133529902Y-97076705D01*
X133463886Y-97142721D01*
X133366958Y-97296981D01*
X133366957Y-97296984D01*
X133323622Y-97420831D01*
X133306783Y-97468953D01*
X133286384Y-97650000D01*
X133306783Y-97831047D01*
X133306783Y-97831049D01*
X133306784Y-97831050D01*
X133366956Y-98003014D01*
X133381687Y-98026457D01*
X133401000Y-98093494D01*
X133401000Y-98273848D01*
X133403439Y-98286106D01*
X133403439Y-98286111D01*
X133403440Y-98286111D01*
X133427862Y-98408891D01*
X133480554Y-98536101D01*
X133551496Y-98642273D01*
X133557052Y-98650587D01*
X133779596Y-98873131D01*
X133813620Y-98935442D01*
X133816500Y-98962224D01*
X133816500Y-99162261D01*
X133822986Y-99233646D01*
X133822986Y-99233647D01*
X133874170Y-99397906D01*
X133874171Y-99397909D01*
X133874172Y-99397911D01*
X133874173Y-99397913D01*
X133910799Y-99458499D01*
X133948791Y-99521346D01*
X133966914Y-99589990D01*
X133945049Y-99657536D01*
X133890137Y-99702538D01*
X133876115Y-99707527D01*
X133761394Y-99740856D01*
X133618196Y-99825544D01*
X133618189Y-99825549D01*
X133590744Y-99852995D01*
X133528432Y-99887021D01*
X133501649Y-99889900D01*
X133442735Y-99889900D01*
X133374614Y-99869898D01*
X133365241Y-99863236D01*
X133348300Y-99852995D01*
X133217913Y-99774173D01*
X133217912Y-99774172D01*
X133217911Y-99774172D01*
X133217906Y-99774170D01*
X133053646Y-99722986D01*
X133001723Y-99718268D01*
X132982265Y-99716500D01*
X132982262Y-99716500D01*
X132317738Y-99716500D01*
X132286400Y-99719348D01*
X132216749Y-99705591D01*
X132165592Y-99656362D01*
X132149000Y-99593865D01*
X132149000Y-97156135D01*
X132169002Y-97088014D01*
X132222658Y-97041521D01*
X132286401Y-97030652D01*
X132317735Y-97033500D01*
X132982264Y-97033499D01*
X133053649Y-97027013D01*
X133217913Y-96975827D01*
X133365155Y-96886816D01*
X133365155Y-96886815D01*
X133371677Y-96882873D01*
X133372720Y-96884598D01*
X133429037Y-96862161D01*
X133498729Y-96875713D01*
G37*
%TD.AperFunction*%
%TA.AperFunction,Conductor*%
G36*
X137640755Y-95919670D02*
G01*
X137685817Y-95948629D01*
X138126084Y-96388896D01*
X138226009Y-96455664D01*
X138337040Y-96501654D01*
X138454910Y-96525100D01*
X138575090Y-96525100D01*
X139613888Y-96525100D01*
X139682009Y-96545102D01*
X139728502Y-96598758D01*
X139738606Y-96669032D01*
X139718654Y-96721099D01*
X139664577Y-96802032D01*
X139603630Y-96949169D01*
X139598327Y-96975829D01*
X139572560Y-97105367D01*
X139572560Y-97264632D01*
X139582304Y-97313616D01*
X139603630Y-97420831D01*
X139664577Y-97567968D01*
X139718653Y-97648900D01*
X139739868Y-97716651D01*
X139721085Y-97785118D01*
X139668268Y-97832561D01*
X139613888Y-97844900D01*
X139034904Y-97844900D01*
X138917042Y-97868344D01*
X138917038Y-97868346D01*
X138858936Y-97892413D01*
X138806009Y-97914336D01*
X138706084Y-97981103D01*
X138629995Y-98057193D01*
X138504191Y-98182996D01*
X138441882Y-98217020D01*
X138415098Y-98219900D01*
X137271388Y-98219900D01*
X137203267Y-98199898D01*
X137163560Y-98159085D01*
X137136815Y-98114844D01*
X137136811Y-98114839D01*
X137015160Y-97993188D01*
X137015155Y-97993184D01*
X136964282Y-97962430D01*
X136867913Y-97904173D01*
X136867912Y-97904172D01*
X136867911Y-97904172D01*
X136867906Y-97904170D01*
X136703646Y-97852986D01*
X136651723Y-97848268D01*
X136632265Y-97846500D01*
X136632262Y-97846500D01*
X136117738Y-97846500D01*
X136046353Y-97852986D01*
X136046352Y-97852986D01*
X135882093Y-97904170D01*
X135882088Y-97904172D01*
X135734844Y-97993184D01*
X135734839Y-97993188D01*
X135639095Y-98088933D01*
X135576783Y-98122959D01*
X135505968Y-98117894D01*
X135460905Y-98088933D01*
X135365160Y-97993188D01*
X135365155Y-97993184D01*
X135314282Y-97962430D01*
X135217913Y-97904173D01*
X135217912Y-97904172D01*
X135217911Y-97904172D01*
X135217906Y-97904170D01*
X135053646Y-97852986D01*
X135020616Y-97849985D01*
X134954585Y-97823901D01*
X134913138Y-97766258D01*
X134906810Y-97710399D01*
X134913616Y-97650000D01*
X134893217Y-97468953D01*
X134833043Y-97296985D01*
X134827083Y-97287500D01*
X134804486Y-97251536D01*
X134785180Y-97183215D01*
X134805875Y-97115302D01*
X134860002Y-97069359D01*
X134911173Y-97058500D01*
X135266511Y-97058500D01*
X135266511Y-97058499D01*
X135303831Y-97055562D01*
X135463601Y-97009145D01*
X135475084Y-97002354D01*
X135543900Y-96984894D01*
X135611231Y-97007410D01*
X135628319Y-97021712D01*
X135742718Y-97136111D01*
X135742720Y-97136112D01*
X135896981Y-97233041D01*
X135896982Y-97233041D01*
X135896985Y-97233043D01*
X136068953Y-97293217D01*
X136250000Y-97313616D01*
X136431047Y-97293217D01*
X136603015Y-97233043D01*
X136757281Y-97136111D01*
X136886111Y-97007281D01*
X136983043Y-96853015D01*
X137043217Y-96681047D01*
X137063616Y-96500000D01*
X137043217Y-96318953D01*
X137028184Y-96275991D01*
X137024565Y-96205087D01*
X137059854Y-96143481D01*
X137122847Y-96110735D01*
X137139045Y-96108843D01*
X137139034Y-96108695D01*
X137169344Y-96106308D01*
X137178831Y-96105562D01*
X137338601Y-96059145D01*
X137338603Y-96059143D01*
X137338605Y-96059143D01*
X137447686Y-95994632D01*
X137481807Y-95974453D01*
X137507629Y-95948630D01*
X137569939Y-95914606D01*
X137640755Y-95919670D01*
G37*
%TD.AperFunction*%
%TA.AperFunction,Conductor*%
G36*
X138340107Y-90829413D02*
G01*
X138344972Y-90832469D01*
X138345885Y-90833043D01*
X138517853Y-90893217D01*
X138698900Y-90913616D01*
X138879947Y-90893217D01*
X138879955Y-90893213D01*
X138885860Y-90891867D01*
X138956724Y-90896207D01*
X139013991Y-90938171D01*
X139039481Y-91004434D01*
X139039900Y-91014707D01*
X139039900Y-94360095D01*
X139049662Y-94409169D01*
X139063345Y-94477960D01*
X139095865Y-94556470D01*
X139095865Y-94556471D01*
X139095864Y-94556471D01*
X139109331Y-94588983D01*
X139109335Y-94588989D01*
X139163396Y-94669898D01*
X139176104Y-94688916D01*
X139521104Y-95033916D01*
X139576993Y-95089805D01*
X139611019Y-95152117D01*
X139605954Y-95222932D01*
X139563407Y-95279768D01*
X139496887Y-95304579D01*
X139487898Y-95304900D01*
X138819902Y-95304900D01*
X138751781Y-95284898D01*
X138730811Y-95267999D01*
X138288916Y-94826104D01*
X138288914Y-94826102D01*
X138271006Y-94814137D01*
X138188991Y-94759336D01*
X138169504Y-94751264D01*
X138150019Y-94743193D01*
X138150018Y-94743193D01*
X138077960Y-94713345D01*
X138077957Y-94713344D01*
X137960095Y-94689900D01*
X137960090Y-94689900D01*
X137598351Y-94689900D01*
X137530230Y-94669898D01*
X137509256Y-94652995D01*
X137481810Y-94625549D01*
X137481803Y-94625544D01*
X137338605Y-94540856D01*
X137178829Y-94494437D01*
X137141511Y-94491500D01*
X137141502Y-94491500D01*
X137111100Y-94491500D01*
X137042979Y-94471498D01*
X136996486Y-94417842D01*
X136985100Y-94365500D01*
X136985100Y-93619062D01*
X137005102Y-93550941D01*
X137022005Y-93529967D01*
X137136811Y-93415160D01*
X137136816Y-93415155D01*
X137225827Y-93267913D01*
X137277013Y-93103649D01*
X137283500Y-93032265D01*
X137283499Y-92367736D01*
X137277013Y-92296351D01*
X137225827Y-92132087D01*
X137136816Y-91984845D01*
X137136815Y-91984844D01*
X137136811Y-91984839D01*
X137015160Y-91863188D01*
X137015155Y-91863184D01*
X136958408Y-91828879D01*
X136867913Y-91774173D01*
X136867912Y-91774172D01*
X136867911Y-91774172D01*
X136867906Y-91774170D01*
X136703646Y-91722986D01*
X136651723Y-91718268D01*
X136632265Y-91716500D01*
X136632262Y-91716500D01*
X136117738Y-91716500D01*
X136046353Y-91722986D01*
X136046352Y-91722986D01*
X135882093Y-91774170D01*
X135882088Y-91774172D01*
X135734844Y-91863184D01*
X135734839Y-91863188D01*
X135639095Y-91958933D01*
X135576783Y-91992959D01*
X135505968Y-91987894D01*
X135460905Y-91958933D01*
X135365160Y-91863188D01*
X135365155Y-91863184D01*
X135308408Y-91828879D01*
X135217913Y-91774173D01*
X135217912Y-91774172D01*
X135217911Y-91774172D01*
X135217906Y-91774170D01*
X135053646Y-91722986D01*
X135001723Y-91718268D01*
X134982265Y-91716500D01*
X134982262Y-91716500D01*
X134467738Y-91716500D01*
X134396353Y-91722986D01*
X134396352Y-91722986D01*
X134232093Y-91774170D01*
X134232090Y-91774171D01*
X134084839Y-91863186D01*
X134078847Y-91867882D01*
X134077295Y-91865901D01*
X134025611Y-91894108D01*
X134012964Y-91896190D01*
X133979917Y-91899913D01*
X133918953Y-91906783D01*
X133918950Y-91906783D01*
X133918949Y-91906784D01*
X133746984Y-91966957D01*
X133746981Y-91966958D01*
X133592720Y-92063887D01*
X133592718Y-92063888D01*
X133463888Y-92192718D01*
X133463887Y-92192720D01*
X133366958Y-92346981D01*
X133366957Y-92346984D01*
X133366957Y-92346985D01*
X133306783Y-92518953D01*
X133286384Y-92700000D01*
X133306783Y-92881047D01*
X133306783Y-92881049D01*
X133306784Y-92881050D01*
X133366957Y-93053015D01*
X133366958Y-93053018D01*
X133463887Y-93207279D01*
X133463888Y-93207281D01*
X133592716Y-93336109D01*
X133592718Y-93336110D01*
X133592719Y-93336111D01*
X133708378Y-93408785D01*
X133755415Y-93461962D01*
X133766235Y-93532129D01*
X133737402Y-93597007D01*
X133705481Y-93623924D01*
X133618193Y-93675546D01*
X133561950Y-93731789D01*
X133499637Y-93765814D01*
X133428822Y-93760748D01*
X133383760Y-93731788D01*
X133365160Y-93713188D01*
X133365155Y-93713184D01*
X133232061Y-93632726D01*
X133217913Y-93624173D01*
X133217912Y-93624172D01*
X133217911Y-93624172D01*
X133217906Y-93624170D01*
X133053646Y-93572986D01*
X133001723Y-93568268D01*
X132982265Y-93566500D01*
X132982262Y-93566500D01*
X132317738Y-93566500D01*
X132286400Y-93569348D01*
X132216749Y-93555591D01*
X132165592Y-93506362D01*
X132149000Y-93443865D01*
X132149000Y-91106135D01*
X132169002Y-91038014D01*
X132222658Y-90991521D01*
X132286401Y-90980652D01*
X132317735Y-90983500D01*
X132982264Y-90983499D01*
X133053649Y-90977013D01*
X133217913Y-90925827D01*
X133365155Y-90836816D01*
X133365155Y-90836815D01*
X133371677Y-90832873D01*
X133372998Y-90835059D01*
X133427552Y-90813324D01*
X133487539Y-90822364D01*
X133513322Y-90833043D01*
X133522040Y-90836654D01*
X133557396Y-90843686D01*
X133610485Y-90871456D01*
X133611930Y-90869595D01*
X133618196Y-90874455D01*
X133761394Y-90959143D01*
X133761397Y-90959143D01*
X133761399Y-90959145D01*
X133921169Y-91005562D01*
X133958488Y-91008499D01*
X133958489Y-91008500D01*
X133958498Y-91008500D01*
X135266511Y-91008500D01*
X135266511Y-91008499D01*
X135303831Y-91005562D01*
X135463601Y-90959145D01*
X135463603Y-90959143D01*
X135463605Y-90959143D01*
X135575082Y-90893215D01*
X135606807Y-90874453D01*
X135611665Y-90869595D01*
X135634256Y-90847005D01*
X135696568Y-90812979D01*
X135723351Y-90810100D01*
X138273071Y-90810100D01*
X138340107Y-90829413D01*
G37*
%TD.AperFunction*%
%TA.AperFunction,Conductor*%
G36*
X143541512Y-89720304D02*
G01*
X143548095Y-89726433D01*
X144029595Y-90207933D01*
X144063621Y-90270245D01*
X144066500Y-90297028D01*
X144066500Y-90675544D01*
X144077113Y-90779426D01*
X144118653Y-90904789D01*
X144121093Y-90975744D01*
X144088144Y-91033516D01*
X143900226Y-91221435D01*
X143840290Y-91311138D01*
X143816783Y-91346319D01*
X143759304Y-91485084D01*
X143759301Y-91485092D01*
X143755929Y-91502046D01*
X143723021Y-91564955D01*
X143661325Y-91600085D01*
X143590430Y-91596284D01*
X143566204Y-91584703D01*
X143479384Y-91531152D01*
X143316741Y-91477257D01*
X143316729Y-91477255D01*
X143216352Y-91467000D01*
X143098072Y-91467000D01*
X143029951Y-91446998D01*
X142983458Y-91393342D01*
X142973354Y-91323068D01*
X143002848Y-91258488D01*
X143031925Y-91233760D01*
X143048333Y-91223638D01*
X143048345Y-91223629D01*
X143173629Y-91098345D01*
X143173634Y-91098339D01*
X143266657Y-90947525D01*
X143322393Y-90779321D01*
X143322394Y-90779318D01*
X143332999Y-90675516D01*
X143333000Y-90675516D01*
X143333000Y-89815528D01*
X143353002Y-89747407D01*
X143406658Y-89700914D01*
X143476932Y-89690810D01*
X143541512Y-89720304D01*
G37*
%TD.AperFunction*%
%TA.AperFunction,Conductor*%
G36*
X163010363Y-86382502D02*
G01*
X163047725Y-86419585D01*
X163054004Y-86429195D01*
X163059278Y-86437268D01*
X163059279Y-86437270D01*
X163211762Y-86602908D01*
X163241211Y-86625829D01*
X163389424Y-86741189D01*
X163587426Y-86848342D01*
X163587427Y-86848342D01*
X163587428Y-86848343D01*
X163682692Y-86881047D01*
X163800365Y-86921444D01*
X164022431Y-86958500D01*
X164022435Y-86958500D01*
X164247565Y-86958500D01*
X164247569Y-86958500D01*
X164469635Y-86921444D01*
X164682574Y-86848342D01*
X164880576Y-86741189D01*
X165058240Y-86602906D01*
X165119245Y-86536637D01*
X165180096Y-86500067D01*
X165251061Y-86502200D01*
X165309606Y-86542362D01*
X165330000Y-86577941D01*
X165374111Y-86696204D01*
X165374112Y-86696207D01*
X165461738Y-86813261D01*
X165578792Y-86900887D01*
X165578794Y-86900888D01*
X165578796Y-86900889D01*
X165633900Y-86921442D01*
X165715795Y-86951988D01*
X165715803Y-86951990D01*
X165776350Y-86958499D01*
X165776355Y-86958499D01*
X165776362Y-86958500D01*
X165786500Y-86958500D01*
X165854621Y-86978502D01*
X165901114Y-87032158D01*
X165912500Y-87084500D01*
X165912500Y-89737163D01*
X165892498Y-89805284D01*
X165838842Y-89851777D01*
X165768568Y-89861881D01*
X165703988Y-89832387D01*
X165684564Y-89811224D01*
X165641841Y-89752421D01*
X165485078Y-89595658D01*
X165305718Y-89465345D01*
X165305717Y-89465344D01*
X165305715Y-89465343D01*
X165108176Y-89364692D01*
X165108173Y-89364691D01*
X165108171Y-89364690D01*
X164897329Y-89296183D01*
X164897325Y-89296182D01*
X164897324Y-89296182D01*
X164678351Y-89261500D01*
X162656649Y-89261500D01*
X162437676Y-89296182D01*
X162437670Y-89296183D01*
X162226828Y-89364690D01*
X162226822Y-89364693D01*
X162029281Y-89465345D01*
X161849921Y-89595658D01*
X161693161Y-89752418D01*
X161693156Y-89752424D01*
X161648411Y-89814010D01*
X161592189Y-89857363D01*
X161521452Y-89863438D01*
X161458661Y-89830306D01*
X161457381Y-89829043D01*
X159924405Y-88296067D01*
X159890379Y-88233755D01*
X159887500Y-88206972D01*
X159887500Y-86593662D01*
X159907502Y-86525541D01*
X159961158Y-86479048D01*
X160031432Y-86468944D01*
X160096012Y-86498438D01*
X160102595Y-86504567D01*
X160134839Y-86536811D01*
X160134844Y-86536815D01*
X160134845Y-86536816D01*
X160282087Y-86625827D01*
X160446351Y-86677013D01*
X160517735Y-86683500D01*
X161032264Y-86683499D01*
X161103649Y-86677013D01*
X161267913Y-86625827D01*
X161415155Y-86536816D01*
X161536816Y-86415155D01*
X161536818Y-86415151D01*
X161540237Y-86410789D01*
X161597995Y-86369504D01*
X161639419Y-86362500D01*
X162942242Y-86362500D01*
X163010363Y-86382502D01*
G37*
%TD.AperFunction*%
%TA.AperFunction,Conductor*%
G36*
X118900905Y-79502674D02*
G01*
X169848961Y-79524999D01*
X169851035Y-79525018D01*
X169984980Y-79527407D01*
X170000654Y-79528668D01*
X170266762Y-79566928D01*
X170284322Y-79570749D01*
X170541171Y-79646167D01*
X170558014Y-79652448D01*
X170686974Y-79711343D01*
X170801524Y-79763656D01*
X170817303Y-79772272D01*
X171042505Y-79917001D01*
X171056896Y-79927774D01*
X171259208Y-80103078D01*
X171271921Y-80115791D01*
X171447225Y-80318103D01*
X171457998Y-80332494D01*
X171602727Y-80557696D01*
X171611343Y-80573475D01*
X171722550Y-80816984D01*
X171728832Y-80833828D01*
X171804249Y-81090674D01*
X171808071Y-81108240D01*
X171846330Y-81374339D01*
X171847592Y-81390023D01*
X171849980Y-81523877D01*
X171850000Y-81526125D01*
X171850000Y-106923874D01*
X171849980Y-106926122D01*
X171847592Y-107059976D01*
X171846330Y-107075660D01*
X171808071Y-107341759D01*
X171804249Y-107359325D01*
X171728832Y-107616171D01*
X171722550Y-107633015D01*
X171611343Y-107876524D01*
X171602727Y-107892303D01*
X171457998Y-108117505D01*
X171447225Y-108131896D01*
X171271921Y-108334208D01*
X171259208Y-108346921D01*
X171056896Y-108522225D01*
X171042505Y-108532998D01*
X170817303Y-108677727D01*
X170801524Y-108686343D01*
X170558015Y-108797550D01*
X170541171Y-108803832D01*
X170284325Y-108879249D01*
X170266759Y-108883071D01*
X170000660Y-108921330D01*
X169984976Y-108922592D01*
X169853500Y-108924937D01*
X169851120Y-108924980D01*
X169848874Y-108925000D01*
X118851126Y-108925000D01*
X118848879Y-108924980D01*
X118846431Y-108924936D01*
X118715023Y-108922592D01*
X118699339Y-108921330D01*
X118433240Y-108883071D01*
X118415674Y-108879249D01*
X118158828Y-108803832D01*
X118141984Y-108797550D01*
X117898475Y-108686343D01*
X117882696Y-108677727D01*
X117657494Y-108532998D01*
X117643103Y-108522225D01*
X117440791Y-108346921D01*
X117428078Y-108334208D01*
X117252774Y-108131896D01*
X117242001Y-108117505D01*
X117097272Y-107892303D01*
X117088656Y-107876524D01*
X117070326Y-107836388D01*
X116977448Y-107633014D01*
X116971167Y-107616171D01*
X116960625Y-107580268D01*
X116895749Y-107359322D01*
X116891928Y-107341759D01*
X116853669Y-107075660D01*
X116852407Y-107059975D01*
X116850020Y-106926121D01*
X116850000Y-106923874D01*
X116850000Y-106026350D01*
X120131500Y-106026350D01*
X120131500Y-107823649D01*
X120138009Y-107884196D01*
X120138011Y-107884204D01*
X120189110Y-108021202D01*
X120189112Y-108021207D01*
X120276738Y-108138261D01*
X120393792Y-108225887D01*
X120393794Y-108225888D01*
X120393796Y-108225889D01*
X120447600Y-108245957D01*
X120530795Y-108276988D01*
X120530803Y-108276990D01*
X120591350Y-108283499D01*
X120591355Y-108283499D01*
X120591362Y-108283500D01*
X120591368Y-108283500D01*
X122388632Y-108283500D01*
X122388638Y-108283500D01*
X122388645Y-108283499D01*
X122388649Y-108283499D01*
X122449196Y-108276990D01*
X122449199Y-108276989D01*
X122449201Y-108276989D01*
X122586204Y-108225889D01*
X122656399Y-108173342D01*
X122703261Y-108138261D01*
X122790886Y-108021208D01*
X122790885Y-108021208D01*
X122790889Y-108021204D01*
X122834999Y-107902939D01*
X122877545Y-107846107D01*
X122944066Y-107821296D01*
X123013440Y-107836388D01*
X123045753Y-107861635D01*
X123066529Y-107884204D01*
X123106762Y-107927908D01*
X123161331Y-107970381D01*
X123284424Y-108066189D01*
X123482426Y-108173342D01*
X123482427Y-108173342D01*
X123482428Y-108173343D01*
X123594227Y-108211723D01*
X123695365Y-108246444D01*
X123917431Y-108283500D01*
X123917435Y-108283500D01*
X124142565Y-108283500D01*
X124142569Y-108283500D01*
X124364635Y-108246444D01*
X124577574Y-108173342D01*
X124775576Y-108066189D01*
X124953240Y-107927906D01*
X125105722Y-107762268D01*
X125105927Y-107761955D01*
X125111115Y-107754012D01*
X125194518Y-107626354D01*
X125248520Y-107580268D01*
X125318868Y-107570692D01*
X125383225Y-107600669D01*
X125405480Y-107626353D01*
X125409833Y-107633015D01*
X125494275Y-107762265D01*
X125494279Y-107762270D01*
X125646762Y-107927908D01*
X125701331Y-107970381D01*
X125824424Y-108066189D01*
X126022426Y-108173342D01*
X126022427Y-108173342D01*
X126022428Y-108173343D01*
X126134227Y-108211723D01*
X126235365Y-108246444D01*
X126457431Y-108283500D01*
X126457435Y-108283500D01*
X126682565Y-108283500D01*
X126682569Y-108283500D01*
X126904635Y-108246444D01*
X127117574Y-108173342D01*
X127315576Y-108066189D01*
X127493240Y-107927906D01*
X127645722Y-107762268D01*
X127645927Y-107761955D01*
X127651115Y-107754012D01*
X127734518Y-107626354D01*
X127788520Y-107580268D01*
X127858868Y-107570692D01*
X127923225Y-107600669D01*
X127945480Y-107626353D01*
X127949833Y-107633015D01*
X128034275Y-107762265D01*
X128034279Y-107762270D01*
X128186762Y-107927908D01*
X128241331Y-107970381D01*
X128364424Y-108066189D01*
X128562426Y-108173342D01*
X128562427Y-108173342D01*
X128562428Y-108173343D01*
X128674227Y-108211723D01*
X128775365Y-108246444D01*
X128997431Y-108283500D01*
X128997435Y-108283500D01*
X129222565Y-108283500D01*
X129222569Y-108283500D01*
X129444635Y-108246444D01*
X129657574Y-108173342D01*
X129855576Y-108066189D01*
X130033240Y-107927906D01*
X130185722Y-107762268D01*
X130185927Y-107761955D01*
X130191115Y-107754012D01*
X130274518Y-107626354D01*
X130328520Y-107580268D01*
X130398868Y-107570692D01*
X130463225Y-107600669D01*
X130485480Y-107626353D01*
X130489833Y-107633015D01*
X130574275Y-107762265D01*
X130574279Y-107762270D01*
X130726762Y-107927908D01*
X130781331Y-107970381D01*
X130904424Y-108066189D01*
X131102426Y-108173342D01*
X131102427Y-108173342D01*
X131102428Y-108173343D01*
X131214227Y-108211723D01*
X131315365Y-108246444D01*
X131537431Y-108283500D01*
X131537435Y-108283500D01*
X131762565Y-108283500D01*
X131762569Y-108283500D01*
X131984635Y-108246444D01*
X132197574Y-108173342D01*
X132395576Y-108066189D01*
X132573240Y-107927906D01*
X132725722Y-107762268D01*
X132725927Y-107761955D01*
X132731115Y-107754012D01*
X132814518Y-107626354D01*
X132868520Y-107580268D01*
X132938868Y-107570692D01*
X133003225Y-107600669D01*
X133025480Y-107626353D01*
X133029833Y-107633015D01*
X133114275Y-107762265D01*
X133114279Y-107762270D01*
X133266762Y-107927908D01*
X133321331Y-107970381D01*
X133444424Y-108066189D01*
X133642426Y-108173342D01*
X133642427Y-108173342D01*
X133642428Y-108173343D01*
X133754227Y-108211723D01*
X133855365Y-108246444D01*
X134077431Y-108283500D01*
X134077435Y-108283500D01*
X134302565Y-108283500D01*
X134302569Y-108283500D01*
X134524635Y-108246444D01*
X134737574Y-108173342D01*
X134935576Y-108066189D01*
X135113240Y-107927906D01*
X135265722Y-107762268D01*
X135265927Y-107761955D01*
X135271115Y-107754012D01*
X135354518Y-107626354D01*
X135408520Y-107580268D01*
X135478868Y-107570692D01*
X135543225Y-107600669D01*
X135565480Y-107626353D01*
X135569833Y-107633015D01*
X135654275Y-107762265D01*
X135654279Y-107762270D01*
X135806762Y-107927908D01*
X135861331Y-107970381D01*
X135984424Y-108066189D01*
X136182426Y-108173342D01*
X136182427Y-108173342D01*
X136182428Y-108173343D01*
X136294227Y-108211723D01*
X136395365Y-108246444D01*
X136617431Y-108283500D01*
X136617435Y-108283500D01*
X136842565Y-108283500D01*
X136842569Y-108283500D01*
X137064635Y-108246444D01*
X137277574Y-108173342D01*
X137475576Y-108066189D01*
X137653240Y-107927906D01*
X137805722Y-107762268D01*
X137805927Y-107761955D01*
X137811115Y-107754012D01*
X137894518Y-107626354D01*
X137948520Y-107580268D01*
X138018868Y-107570692D01*
X138083225Y-107600669D01*
X138105480Y-107626353D01*
X138109833Y-107633015D01*
X138194275Y-107762265D01*
X138194279Y-107762270D01*
X138346762Y-107927908D01*
X138401331Y-107970381D01*
X138524424Y-108066189D01*
X138722426Y-108173342D01*
X138722427Y-108173342D01*
X138722428Y-108173343D01*
X138834227Y-108211723D01*
X138935365Y-108246444D01*
X139157431Y-108283500D01*
X139157435Y-108283500D01*
X139382565Y-108283500D01*
X139382569Y-108283500D01*
X139604635Y-108246444D01*
X139817574Y-108173342D01*
X140015576Y-108066189D01*
X140193240Y-107927906D01*
X140345722Y-107762268D01*
X140345927Y-107761955D01*
X140351115Y-107754012D01*
X140434518Y-107626354D01*
X140488520Y-107580268D01*
X140558868Y-107570692D01*
X140623225Y-107600669D01*
X140645480Y-107626353D01*
X140649833Y-107633015D01*
X140734275Y-107762265D01*
X140734279Y-107762270D01*
X140886762Y-107927908D01*
X140941331Y-107970381D01*
X141064424Y-108066189D01*
X141262426Y-108173342D01*
X141262427Y-108173342D01*
X141262428Y-108173343D01*
X141374227Y-108211723D01*
X141475365Y-108246444D01*
X141697431Y-108283500D01*
X141697435Y-108283500D01*
X141922565Y-108283500D01*
X141922569Y-108283500D01*
X142144635Y-108246444D01*
X142357574Y-108173342D01*
X142555576Y-108066189D01*
X142733240Y-107927906D01*
X142885722Y-107762268D01*
X142885927Y-107761955D01*
X142891115Y-107754012D01*
X142974518Y-107626354D01*
X143028520Y-107580268D01*
X143098868Y-107570692D01*
X143163225Y-107600669D01*
X143185480Y-107626353D01*
X143189833Y-107633015D01*
X143274275Y-107762265D01*
X143274279Y-107762270D01*
X143426762Y-107927908D01*
X143481331Y-107970381D01*
X143604424Y-108066189D01*
X143802426Y-108173342D01*
X143802427Y-108173342D01*
X143802428Y-108173343D01*
X143914227Y-108211723D01*
X144015365Y-108246444D01*
X144237431Y-108283500D01*
X144237435Y-108283500D01*
X144462565Y-108283500D01*
X144462569Y-108283500D01*
X144684635Y-108246444D01*
X144897574Y-108173342D01*
X145095576Y-108066189D01*
X145273240Y-107927906D01*
X145425722Y-107762268D01*
X145425927Y-107761955D01*
X145431115Y-107754012D01*
X145514518Y-107626354D01*
X145568520Y-107580268D01*
X145638868Y-107570692D01*
X145703225Y-107600669D01*
X145725480Y-107626353D01*
X145729833Y-107633015D01*
X145814275Y-107762265D01*
X145814279Y-107762270D01*
X145966762Y-107927908D01*
X146021331Y-107970381D01*
X146144424Y-108066189D01*
X146342426Y-108173342D01*
X146342427Y-108173342D01*
X146342428Y-108173343D01*
X146454227Y-108211723D01*
X146555365Y-108246444D01*
X146777431Y-108283500D01*
X146777435Y-108283500D01*
X147002565Y-108283500D01*
X147002569Y-108283500D01*
X147224635Y-108246444D01*
X147437574Y-108173342D01*
X147635576Y-108066189D01*
X147813240Y-107927906D01*
X147965722Y-107762268D01*
X147965927Y-107761955D01*
X147971115Y-107754012D01*
X148054518Y-107626354D01*
X148108520Y-107580268D01*
X148178868Y-107570692D01*
X148243225Y-107600669D01*
X148265480Y-107626353D01*
X148269833Y-107633015D01*
X148354275Y-107762265D01*
X148354279Y-107762270D01*
X148506762Y-107927908D01*
X148561331Y-107970381D01*
X148684424Y-108066189D01*
X148882426Y-108173342D01*
X148882427Y-108173342D01*
X148882428Y-108173343D01*
X148994227Y-108211723D01*
X149095365Y-108246444D01*
X149317431Y-108283500D01*
X149317435Y-108283500D01*
X149542565Y-108283500D01*
X149542569Y-108283500D01*
X149764635Y-108246444D01*
X149977574Y-108173342D01*
X150175576Y-108066189D01*
X150353240Y-107927906D01*
X150505722Y-107762268D01*
X150505927Y-107761955D01*
X150511115Y-107754012D01*
X150594518Y-107626354D01*
X150648520Y-107580268D01*
X150718868Y-107570692D01*
X150783225Y-107600669D01*
X150805480Y-107626353D01*
X150809833Y-107633015D01*
X150894275Y-107762265D01*
X150894279Y-107762270D01*
X151046762Y-107927908D01*
X151101331Y-107970381D01*
X151224424Y-108066189D01*
X151422426Y-108173342D01*
X151422427Y-108173342D01*
X151422428Y-108173343D01*
X151534227Y-108211723D01*
X151635365Y-108246444D01*
X151857431Y-108283500D01*
X151857435Y-108283500D01*
X152082565Y-108283500D01*
X152082569Y-108283500D01*
X152304635Y-108246444D01*
X152517574Y-108173342D01*
X152715576Y-108066189D01*
X152893240Y-107927906D01*
X153045722Y-107762268D01*
X153045927Y-107761955D01*
X153130168Y-107633014D01*
X153134816Y-107625898D01*
X153188819Y-107579810D01*
X153259167Y-107570235D01*
X153323524Y-107600212D01*
X153345782Y-107625898D01*
X153434674Y-107761958D01*
X153587097Y-107927534D01*
X153764698Y-108065767D01*
X153764699Y-108065768D01*
X153962628Y-108172882D01*
X153962630Y-108172883D01*
X154175483Y-108245955D01*
X154175492Y-108245957D01*
X154256000Y-108259391D01*
X154256000Y-107355702D01*
X154317007Y-107390925D01*
X154444174Y-107425000D01*
X154575826Y-107425000D01*
X154702993Y-107390925D01*
X154764000Y-107355702D01*
X154764000Y-108259390D01*
X154844507Y-108245957D01*
X154844516Y-108245955D01*
X155057369Y-108172883D01*
X155057371Y-108172882D01*
X155255300Y-108065768D01*
X155255301Y-108065767D01*
X155432902Y-107927534D01*
X155585327Y-107761955D01*
X155674217Y-107625899D01*
X155728220Y-107579810D01*
X155798568Y-107570235D01*
X155862925Y-107600212D01*
X155885183Y-107625898D01*
X155974279Y-107762270D01*
X156126762Y-107927908D01*
X156181331Y-107970381D01*
X156304424Y-108066189D01*
X156502426Y-108173342D01*
X156502427Y-108173342D01*
X156502428Y-108173343D01*
X156614227Y-108211723D01*
X156715365Y-108246444D01*
X156937431Y-108283500D01*
X156937435Y-108283500D01*
X157162565Y-108283500D01*
X157162569Y-108283500D01*
X157384635Y-108246444D01*
X157597574Y-108173342D01*
X157795576Y-108066189D01*
X157973240Y-107927906D01*
X158125722Y-107762268D01*
X158125927Y-107761955D01*
X158131115Y-107754012D01*
X158214518Y-107626354D01*
X158268520Y-107580268D01*
X158338868Y-107570692D01*
X158403225Y-107600669D01*
X158425480Y-107626353D01*
X158429833Y-107633015D01*
X158514275Y-107762265D01*
X158514279Y-107762270D01*
X158666762Y-107927908D01*
X158721331Y-107970381D01*
X158844424Y-108066189D01*
X159042426Y-108173342D01*
X159042427Y-108173342D01*
X159042428Y-108173343D01*
X159154227Y-108211723D01*
X159255365Y-108246444D01*
X159477431Y-108283500D01*
X159477435Y-108283500D01*
X159702565Y-108283500D01*
X159702569Y-108283500D01*
X159924635Y-108246444D01*
X160137574Y-108173342D01*
X160335576Y-108066189D01*
X160513240Y-107927906D01*
X160665722Y-107762268D01*
X160665927Y-107761955D01*
X160671115Y-107754012D01*
X160754518Y-107626354D01*
X160808520Y-107580268D01*
X160878868Y-107570692D01*
X160943225Y-107600669D01*
X160965480Y-107626353D01*
X160969833Y-107633015D01*
X161054275Y-107762265D01*
X161054279Y-107762270D01*
X161206762Y-107927908D01*
X161261331Y-107970381D01*
X161384424Y-108066189D01*
X161582426Y-108173342D01*
X161582427Y-108173342D01*
X161582428Y-108173343D01*
X161694227Y-108211723D01*
X161795365Y-108246444D01*
X162017431Y-108283500D01*
X162017435Y-108283500D01*
X162242565Y-108283500D01*
X162242569Y-108283500D01*
X162464635Y-108246444D01*
X162677574Y-108173342D01*
X162875576Y-108066189D01*
X163053240Y-107927906D01*
X163205722Y-107762268D01*
X163205927Y-107761955D01*
X163211115Y-107754012D01*
X163294518Y-107626354D01*
X163348520Y-107580268D01*
X163418868Y-107570692D01*
X163483225Y-107600669D01*
X163505480Y-107626353D01*
X163509833Y-107633015D01*
X163594275Y-107762265D01*
X163594279Y-107762270D01*
X163746762Y-107927908D01*
X163801331Y-107970381D01*
X163924424Y-108066189D01*
X164122426Y-108173342D01*
X164122427Y-108173342D01*
X164122428Y-108173343D01*
X164234227Y-108211723D01*
X164335365Y-108246444D01*
X164557431Y-108283500D01*
X164557435Y-108283500D01*
X164782565Y-108283500D01*
X164782569Y-108283500D01*
X165004635Y-108246444D01*
X165217574Y-108173342D01*
X165415576Y-108066189D01*
X165593240Y-107927906D01*
X165745722Y-107762268D01*
X165745927Y-107761955D01*
X165751115Y-107754012D01*
X165834518Y-107626354D01*
X165888520Y-107580268D01*
X165958868Y-107570692D01*
X166023225Y-107600669D01*
X166045480Y-107626353D01*
X166049833Y-107633015D01*
X166134275Y-107762265D01*
X166134279Y-107762270D01*
X166286762Y-107927908D01*
X166341331Y-107970381D01*
X166464424Y-108066189D01*
X166662426Y-108173342D01*
X166662427Y-108173342D01*
X166662428Y-108173343D01*
X166774227Y-108211723D01*
X166875365Y-108246444D01*
X167097431Y-108283500D01*
X167097435Y-108283500D01*
X167322565Y-108283500D01*
X167322569Y-108283500D01*
X167544635Y-108246444D01*
X167757574Y-108173342D01*
X167955576Y-108066189D01*
X168133240Y-107927906D01*
X168285722Y-107762268D01*
X168285927Y-107761955D01*
X168370167Y-107633015D01*
X168408860Y-107573791D01*
X168499296Y-107367616D01*
X168554564Y-107149368D01*
X168573156Y-106925000D01*
X168554564Y-106700632D01*
X168499296Y-106482384D01*
X168408860Y-106276209D01*
X168391500Y-106249637D01*
X168285724Y-106087734D01*
X168285720Y-106087729D01*
X168156220Y-105947057D01*
X168133240Y-105922094D01*
X168133239Y-105922093D01*
X168133237Y-105922091D01*
X168013367Y-105828792D01*
X167955576Y-105783811D01*
X167757574Y-105676658D01*
X167757572Y-105676657D01*
X167757571Y-105676656D01*
X167544639Y-105603557D01*
X167544630Y-105603555D01*
X167467029Y-105590606D01*
X167322569Y-105566500D01*
X167097431Y-105566500D01*
X166952971Y-105590606D01*
X166875369Y-105603555D01*
X166875360Y-105603557D01*
X166662428Y-105676656D01*
X166662426Y-105676658D01*
X166464426Y-105783810D01*
X166464424Y-105783811D01*
X166286762Y-105922091D01*
X166134279Y-106087729D01*
X166045483Y-106223643D01*
X165991479Y-106269731D01*
X165921131Y-106279306D01*
X165856774Y-106249329D01*
X165834517Y-106223643D01*
X165745720Y-106087729D01*
X165616220Y-105947057D01*
X165593240Y-105922094D01*
X165593239Y-105922093D01*
X165593237Y-105922091D01*
X165473367Y-105828792D01*
X165415576Y-105783811D01*
X165217574Y-105676658D01*
X165217572Y-105676657D01*
X165217571Y-105676656D01*
X165004639Y-105603557D01*
X165004630Y-105603555D01*
X164927029Y-105590606D01*
X164782569Y-105566500D01*
X164557431Y-105566500D01*
X164412971Y-105590606D01*
X164335369Y-105603555D01*
X164335360Y-105603557D01*
X164122428Y-105676656D01*
X164122426Y-105676658D01*
X163924426Y-105783810D01*
X163924424Y-105783811D01*
X163746762Y-105922091D01*
X163594279Y-106087729D01*
X163505483Y-106223643D01*
X163451479Y-106269731D01*
X163381131Y-106279306D01*
X163316774Y-106249329D01*
X163294517Y-106223643D01*
X163205720Y-106087729D01*
X163076220Y-105947057D01*
X163053240Y-105922094D01*
X163053239Y-105922093D01*
X163053237Y-105922091D01*
X162933367Y-105828792D01*
X162875576Y-105783811D01*
X162677574Y-105676658D01*
X162677572Y-105676657D01*
X162677571Y-105676656D01*
X162464639Y-105603557D01*
X162464630Y-105603555D01*
X162387029Y-105590606D01*
X162242569Y-105566500D01*
X162017431Y-105566500D01*
X161872971Y-105590606D01*
X161795369Y-105603555D01*
X161795360Y-105603557D01*
X161582428Y-105676656D01*
X161582426Y-105676658D01*
X161384426Y-105783810D01*
X161384424Y-105783811D01*
X161206762Y-105922091D01*
X161054279Y-106087729D01*
X160965483Y-106223643D01*
X160911479Y-106269731D01*
X160841131Y-106279306D01*
X160776774Y-106249329D01*
X160754517Y-106223643D01*
X160665720Y-106087729D01*
X160536220Y-105947057D01*
X160513240Y-105922094D01*
X160513239Y-105922093D01*
X160513237Y-105922091D01*
X160393367Y-105828792D01*
X160335576Y-105783811D01*
X160137574Y-105676658D01*
X160137572Y-105676657D01*
X160137571Y-105676656D01*
X159924639Y-105603557D01*
X159924630Y-105603555D01*
X159847029Y-105590606D01*
X159702569Y-105566500D01*
X159477431Y-105566500D01*
X159332971Y-105590606D01*
X159255369Y-105603555D01*
X159255360Y-105603557D01*
X159042428Y-105676656D01*
X159042426Y-105676658D01*
X158844426Y-105783810D01*
X158844424Y-105783811D01*
X158666762Y-105922091D01*
X158514279Y-106087729D01*
X158425483Y-106223643D01*
X158371479Y-106269731D01*
X158301131Y-106279306D01*
X158236774Y-106249329D01*
X158214517Y-106223643D01*
X158125720Y-106087729D01*
X157996220Y-105947057D01*
X157973240Y-105922094D01*
X157973239Y-105922093D01*
X157973237Y-105922091D01*
X157853367Y-105828792D01*
X157795576Y-105783811D01*
X157597574Y-105676658D01*
X157597572Y-105676657D01*
X157597571Y-105676656D01*
X157384639Y-105603557D01*
X157384630Y-105603555D01*
X157307029Y-105590606D01*
X157162569Y-105566500D01*
X156937431Y-105566500D01*
X156792971Y-105590606D01*
X156715369Y-105603555D01*
X156715360Y-105603557D01*
X156502428Y-105676656D01*
X156502426Y-105676658D01*
X156304426Y-105783810D01*
X156304424Y-105783811D01*
X156126762Y-105922091D01*
X155974279Y-106087729D01*
X155885183Y-106224101D01*
X155831179Y-106270189D01*
X155760831Y-106279764D01*
X155696474Y-106249786D01*
X155674217Y-106224100D01*
X155585327Y-106088044D01*
X155432902Y-105922465D01*
X155255301Y-105784232D01*
X155255300Y-105784231D01*
X155057371Y-105677117D01*
X155057369Y-105677116D01*
X154844512Y-105604043D01*
X154844501Y-105604040D01*
X154764000Y-105590606D01*
X154764000Y-106494297D01*
X154702993Y-106459075D01*
X154575826Y-106425000D01*
X154444174Y-106425000D01*
X154317007Y-106459075D01*
X154256000Y-106494297D01*
X154256000Y-105590607D01*
X154255999Y-105590606D01*
X154175498Y-105604040D01*
X154175487Y-105604043D01*
X153962630Y-105677116D01*
X153962628Y-105677117D01*
X153764699Y-105784231D01*
X153764698Y-105784232D01*
X153587097Y-105922465D01*
X153434670Y-106088045D01*
X153345780Y-106224101D01*
X153291776Y-106270189D01*
X153221428Y-106279764D01*
X153157071Y-106249786D01*
X153134816Y-106224101D01*
X153095884Y-106164511D01*
X153045724Y-106087734D01*
X153045720Y-106087729D01*
X152916220Y-105947057D01*
X152893240Y-105922094D01*
X152893239Y-105922093D01*
X152893237Y-105922091D01*
X152773367Y-105828792D01*
X152715576Y-105783811D01*
X152517574Y-105676658D01*
X152517572Y-105676657D01*
X152517571Y-105676656D01*
X152304639Y-105603557D01*
X152304630Y-105603555D01*
X152227029Y-105590606D01*
X152082569Y-105566500D01*
X151857431Y-105566500D01*
X151712971Y-105590606D01*
X151635369Y-105603555D01*
X151635360Y-105603557D01*
X151422428Y-105676656D01*
X151422426Y-105676658D01*
X151224426Y-105783810D01*
X151224424Y-105783811D01*
X151046762Y-105922091D01*
X150894279Y-106087729D01*
X150805483Y-106223643D01*
X150751479Y-106269731D01*
X150681131Y-106279306D01*
X150616774Y-106249329D01*
X150594517Y-106223643D01*
X150505720Y-106087729D01*
X150376220Y-105947057D01*
X150353240Y-105922094D01*
X150353239Y-105922093D01*
X150353237Y-105922091D01*
X150233367Y-105828792D01*
X150175576Y-105783811D01*
X149977574Y-105676658D01*
X149977572Y-105676657D01*
X149977571Y-105676656D01*
X149764639Y-105603557D01*
X149764630Y-105603555D01*
X149687029Y-105590606D01*
X149542569Y-105566500D01*
X149317431Y-105566500D01*
X149172971Y-105590606D01*
X149095369Y-105603555D01*
X149095360Y-105603557D01*
X148882428Y-105676656D01*
X148882426Y-105676658D01*
X148684426Y-105783810D01*
X148684424Y-105783811D01*
X148506762Y-105922091D01*
X148354279Y-106087729D01*
X148265483Y-106223643D01*
X148211479Y-106269731D01*
X148141131Y-106279306D01*
X148076774Y-106249329D01*
X148054517Y-106223643D01*
X147965720Y-106087729D01*
X147836220Y-105947057D01*
X147813240Y-105922094D01*
X147813239Y-105922093D01*
X147813237Y-105922091D01*
X147693367Y-105828792D01*
X147635576Y-105783811D01*
X147437574Y-105676658D01*
X147437572Y-105676657D01*
X147437571Y-105676656D01*
X147224639Y-105603557D01*
X147224630Y-105603555D01*
X147147029Y-105590606D01*
X147002569Y-105566500D01*
X146777431Y-105566500D01*
X146632971Y-105590606D01*
X146555369Y-105603555D01*
X146555360Y-105603557D01*
X146342428Y-105676656D01*
X146342426Y-105676658D01*
X146144426Y-105783810D01*
X146144424Y-105783811D01*
X145966762Y-105922091D01*
X145814279Y-106087729D01*
X145725483Y-106223643D01*
X145671479Y-106269731D01*
X145601131Y-106279306D01*
X145536774Y-106249329D01*
X145514517Y-106223643D01*
X145425720Y-106087729D01*
X145296220Y-105947057D01*
X145273240Y-105922094D01*
X145273239Y-105922093D01*
X145273237Y-105922091D01*
X145153367Y-105828792D01*
X145095576Y-105783811D01*
X144897574Y-105676658D01*
X144897572Y-105676657D01*
X144897571Y-105676656D01*
X144684639Y-105603557D01*
X144684630Y-105603555D01*
X144607029Y-105590606D01*
X144462569Y-105566500D01*
X144237431Y-105566500D01*
X144092971Y-105590606D01*
X144015369Y-105603555D01*
X144015360Y-105603557D01*
X143802428Y-105676656D01*
X143802426Y-105676658D01*
X143604426Y-105783810D01*
X143604424Y-105783811D01*
X143426762Y-105922091D01*
X143274279Y-106087729D01*
X143185483Y-106223643D01*
X143131479Y-106269731D01*
X143061131Y-106279306D01*
X142996774Y-106249329D01*
X142974517Y-106223643D01*
X142885720Y-106087729D01*
X142756220Y-105947057D01*
X142733240Y-105922094D01*
X142733239Y-105922093D01*
X142733237Y-105922091D01*
X142613367Y-105828792D01*
X142555576Y-105783811D01*
X142357574Y-105676658D01*
X142357572Y-105676657D01*
X142357571Y-105676656D01*
X142144639Y-105603557D01*
X142144630Y-105603555D01*
X142067029Y-105590606D01*
X141922569Y-105566500D01*
X141697431Y-105566500D01*
X141552971Y-105590606D01*
X141475369Y-105603555D01*
X141475360Y-105603557D01*
X141262428Y-105676656D01*
X141262426Y-105676658D01*
X141064426Y-105783810D01*
X141064424Y-105783811D01*
X140886762Y-105922091D01*
X140734279Y-106087729D01*
X140645483Y-106223643D01*
X140591479Y-106269731D01*
X140521131Y-106279306D01*
X140456774Y-106249329D01*
X140434517Y-106223643D01*
X140345720Y-106087729D01*
X140216220Y-105947057D01*
X140193240Y-105922094D01*
X140193239Y-105922093D01*
X140193237Y-105922091D01*
X140073367Y-105828792D01*
X140015576Y-105783811D01*
X139817574Y-105676658D01*
X139817572Y-105676657D01*
X139817571Y-105676656D01*
X139604639Y-105603557D01*
X139604630Y-105603555D01*
X139527029Y-105590606D01*
X139382569Y-105566500D01*
X139157431Y-105566500D01*
X139012971Y-105590606D01*
X138935369Y-105603555D01*
X138935360Y-105603557D01*
X138722428Y-105676656D01*
X138722426Y-105676658D01*
X138524426Y-105783810D01*
X138524424Y-105783811D01*
X138346762Y-105922091D01*
X138194279Y-106087729D01*
X138105483Y-106223643D01*
X138051479Y-106269731D01*
X137981131Y-106279306D01*
X137916774Y-106249329D01*
X137894517Y-106223643D01*
X137805720Y-106087729D01*
X137676220Y-105947057D01*
X137653240Y-105922094D01*
X137653239Y-105922093D01*
X137653237Y-105922091D01*
X137533367Y-105828792D01*
X137475576Y-105783811D01*
X137277574Y-105676658D01*
X137277572Y-105676657D01*
X137277571Y-105676656D01*
X137064639Y-105603557D01*
X137064630Y-105603555D01*
X136987029Y-105590606D01*
X136842569Y-105566500D01*
X136617431Y-105566500D01*
X136472971Y-105590606D01*
X136395369Y-105603555D01*
X136395360Y-105603557D01*
X136182428Y-105676656D01*
X136182426Y-105676658D01*
X135984426Y-105783810D01*
X135984424Y-105783811D01*
X135806762Y-105922091D01*
X135654279Y-106087729D01*
X135565483Y-106223643D01*
X135511479Y-106269731D01*
X135441131Y-106279306D01*
X135376774Y-106249329D01*
X135354517Y-106223643D01*
X135265720Y-106087729D01*
X135136220Y-105947057D01*
X135113240Y-105922094D01*
X135113239Y-105922093D01*
X135113237Y-105922091D01*
X134993367Y-105828792D01*
X134935576Y-105783811D01*
X134737574Y-105676658D01*
X134737572Y-105676657D01*
X134737571Y-105676656D01*
X134524639Y-105603557D01*
X134524630Y-105603555D01*
X134447029Y-105590606D01*
X134302569Y-105566500D01*
X134077431Y-105566500D01*
X133932971Y-105590606D01*
X133855369Y-105603555D01*
X133855360Y-105603557D01*
X133642428Y-105676656D01*
X133642426Y-105676658D01*
X133444426Y-105783810D01*
X133444424Y-105783811D01*
X133266762Y-105922091D01*
X133114279Y-106087729D01*
X133025483Y-106223643D01*
X132971479Y-106269731D01*
X132901131Y-106279306D01*
X132836774Y-106249329D01*
X132814517Y-106223643D01*
X132725720Y-106087729D01*
X132596220Y-105947057D01*
X132573240Y-105922094D01*
X132573239Y-105922093D01*
X132573237Y-105922091D01*
X132453367Y-105828792D01*
X132395576Y-105783811D01*
X132197574Y-105676658D01*
X132197572Y-105676657D01*
X132197571Y-105676656D01*
X131984639Y-105603557D01*
X131984630Y-105603555D01*
X131907029Y-105590606D01*
X131762569Y-105566500D01*
X131537431Y-105566500D01*
X131392971Y-105590606D01*
X131315369Y-105603555D01*
X131315360Y-105603557D01*
X131102428Y-105676656D01*
X131102426Y-105676658D01*
X130904426Y-105783810D01*
X130904424Y-105783811D01*
X130726762Y-105922091D01*
X130574279Y-106087729D01*
X130485483Y-106223643D01*
X130431479Y-106269731D01*
X130361131Y-106279306D01*
X130296774Y-106249329D01*
X130274517Y-106223643D01*
X130185720Y-106087729D01*
X130056220Y-105947057D01*
X130033240Y-105922094D01*
X130033239Y-105922093D01*
X130033237Y-105922091D01*
X129913367Y-105828792D01*
X129855576Y-105783811D01*
X129657574Y-105676658D01*
X129657572Y-105676657D01*
X129657571Y-105676656D01*
X129444639Y-105603557D01*
X129444630Y-105603555D01*
X129367029Y-105590606D01*
X129222569Y-105566500D01*
X128997431Y-105566500D01*
X128852971Y-105590606D01*
X128775369Y-105603555D01*
X128775360Y-105603557D01*
X128562428Y-105676656D01*
X128562426Y-105676658D01*
X128364426Y-105783810D01*
X128364424Y-105783811D01*
X128186762Y-105922091D01*
X128034279Y-106087729D01*
X127945483Y-106223643D01*
X127891479Y-106269731D01*
X127821131Y-106279306D01*
X127756774Y-106249329D01*
X127734517Y-106223643D01*
X127645720Y-106087729D01*
X127516220Y-105947057D01*
X127493240Y-105922094D01*
X127493239Y-105922093D01*
X127493237Y-105922091D01*
X127373367Y-105828792D01*
X127315576Y-105783811D01*
X127117574Y-105676658D01*
X127117572Y-105676657D01*
X127117571Y-105676656D01*
X126904639Y-105603557D01*
X126904630Y-105603555D01*
X126827029Y-105590606D01*
X126682569Y-105566500D01*
X126457431Y-105566500D01*
X126312971Y-105590606D01*
X126235369Y-105603555D01*
X126235360Y-105603557D01*
X126022428Y-105676656D01*
X126022426Y-105676658D01*
X125824426Y-105783810D01*
X125824424Y-105783811D01*
X125646762Y-105922091D01*
X125494279Y-106087729D01*
X125405483Y-106223643D01*
X125351479Y-106269731D01*
X125281131Y-106279306D01*
X125216774Y-106249329D01*
X125194517Y-106223643D01*
X125105720Y-106087729D01*
X124976220Y-105947057D01*
X124953240Y-105922094D01*
X124953239Y-105922093D01*
X124953237Y-105922091D01*
X124833367Y-105828792D01*
X124775576Y-105783811D01*
X124577574Y-105676658D01*
X124577572Y-105676657D01*
X124577571Y-105676656D01*
X124364639Y-105603557D01*
X124364630Y-105603555D01*
X124287029Y-105590606D01*
X124142569Y-105566500D01*
X123917431Y-105566500D01*
X123772971Y-105590606D01*
X123695369Y-105603555D01*
X123695360Y-105603557D01*
X123482428Y-105676656D01*
X123482426Y-105676658D01*
X123284426Y-105783810D01*
X123284424Y-105783811D01*
X123106762Y-105922091D01*
X123045754Y-105988363D01*
X122984901Y-106024933D01*
X122913936Y-106022798D01*
X122855391Y-105982636D01*
X122834999Y-105947057D01*
X122790889Y-105828797D01*
X122790887Y-105828792D01*
X122703261Y-105711738D01*
X122586207Y-105624112D01*
X122586202Y-105624110D01*
X122449204Y-105573011D01*
X122449196Y-105573009D01*
X122388649Y-105566500D01*
X122388638Y-105566500D01*
X122315000Y-105566500D01*
X122246879Y-105546498D01*
X122200386Y-105492842D01*
X122189000Y-105440500D01*
X122189000Y-105251725D01*
X122209002Y-105183604D01*
X122225905Y-105162630D01*
X122652630Y-104735905D01*
X122714942Y-104701879D01*
X122741725Y-104699000D01*
X130568845Y-104699000D01*
X130568846Y-104699000D01*
X130703891Y-104672138D01*
X130831101Y-104619446D01*
X130945587Y-104542948D01*
X131992948Y-103495587D01*
X132005967Y-103476104D01*
X132069446Y-103381101D01*
X132121853Y-103254578D01*
X132166400Y-103199298D01*
X132233763Y-103176877D01*
X132249662Y-103177313D01*
X132317735Y-103183500D01*
X132982264Y-103183499D01*
X133053649Y-103177013D01*
X133217913Y-103125827D01*
X133365155Y-103036816D01*
X133383760Y-103018211D01*
X133446072Y-102984185D01*
X133516887Y-102989250D01*
X133561950Y-103018211D01*
X133618189Y-103074450D01*
X133618196Y-103074455D01*
X133761394Y-103159143D01*
X133761397Y-103159143D01*
X133761399Y-103159145D01*
X133921169Y-103205562D01*
X133958488Y-103208499D01*
X133958489Y-103208500D01*
X133958498Y-103208500D01*
X135266511Y-103208500D01*
X135266511Y-103208499D01*
X135303831Y-103205562D01*
X135463601Y-103159145D01*
X135463603Y-103159143D01*
X135463605Y-103159143D01*
X135575082Y-103093215D01*
X135606807Y-103074453D01*
X135606810Y-103074450D01*
X135634256Y-103047005D01*
X135696568Y-103012979D01*
X135723351Y-103010100D01*
X137174171Y-103010100D01*
X137241207Y-103029413D01*
X137242382Y-103030151D01*
X137246985Y-103033043D01*
X137418953Y-103093217D01*
X137600000Y-103113616D01*
X137781047Y-103093217D01*
X137953015Y-103033043D01*
X138107281Y-102936111D01*
X138236111Y-102807281D01*
X138333043Y-102653015D01*
X138393217Y-102481047D01*
X138413616Y-102300000D01*
X138393217Y-102118953D01*
X138333043Y-101946985D01*
X138333041Y-101946982D01*
X138333041Y-101946981D01*
X138236112Y-101792720D01*
X138236111Y-101792718D01*
X138107281Y-101663888D01*
X138107279Y-101663887D01*
X137953018Y-101566958D01*
X137817884Y-101519672D01*
X137760193Y-101478293D01*
X137734030Y-101412293D01*
X137733500Y-101400743D01*
X137733500Y-101233489D01*
X137733499Y-101233488D01*
X137733152Y-101229085D01*
X137730562Y-101196169D01*
X137684145Y-101036399D01*
X137684143Y-101036397D01*
X137684143Y-101036394D01*
X137599455Y-100893196D01*
X137599450Y-100893189D01*
X137481810Y-100775549D01*
X137481803Y-100775544D01*
X137338605Y-100690856D01*
X137178829Y-100644437D01*
X137141511Y-100641500D01*
X137141502Y-100641500D01*
X137111100Y-100641500D01*
X137042979Y-100621498D01*
X136996486Y-100567842D01*
X136985100Y-100515500D01*
X136985100Y-99749062D01*
X137005102Y-99680941D01*
X137022005Y-99659967D01*
X137136811Y-99545160D01*
X137136816Y-99545155D01*
X137163560Y-99500914D01*
X137215919Y-99452967D01*
X137271388Y-99440100D01*
X138780089Y-99440100D01*
X138780090Y-99440100D01*
X138897960Y-99416655D01*
X138976470Y-99384134D01*
X139008991Y-99370664D01*
X139108916Y-99303896D01*
X139193896Y-99218916D01*
X139310807Y-99102005D01*
X139373119Y-99067979D01*
X139399902Y-99065100D01*
X139800657Y-99065100D01*
X139868778Y-99085102D01*
X139870592Y-99086291D01*
X139998092Y-99171483D01*
X140145229Y-99232430D01*
X140301430Y-99263500D01*
X141074558Y-99263500D01*
X141142679Y-99283502D01*
X141163653Y-99300405D01*
X141752995Y-99889747D01*
X141787021Y-99952059D01*
X141789900Y-99978842D01*
X141789900Y-101860095D01*
X141813344Y-101977957D01*
X141813347Y-101977966D01*
X141837657Y-102036653D01*
X141837657Y-102036655D01*
X141837658Y-102036655D01*
X141859336Y-102088991D01*
X141915077Y-102172413D01*
X141926103Y-102188915D01*
X141926108Y-102188921D01*
X144579304Y-104842116D01*
X144664284Y-104927096D01*
X144764209Y-104993864D01*
X144875240Y-105039854D01*
X144993110Y-105063300D01*
X144993111Y-105063300D01*
X160906889Y-105063300D01*
X160906890Y-105063300D01*
X161024760Y-105039855D01*
X161103270Y-105007334D01*
X161135791Y-104993864D01*
X161235716Y-104927096D01*
X161320696Y-104842116D01*
X161416325Y-104746486D01*
X161478636Y-104712462D01*
X161549452Y-104717526D01*
X161594515Y-104746487D01*
X161634839Y-104786811D01*
X161634843Y-104786814D01*
X161634845Y-104786816D01*
X161782087Y-104875827D01*
X161946351Y-104927013D01*
X162017735Y-104933500D01*
X162532264Y-104933499D01*
X162603649Y-104927013D01*
X162767913Y-104875827D01*
X162915155Y-104786816D01*
X162955484Y-104746487D01*
X163010905Y-104691067D01*
X163073217Y-104657041D01*
X163144032Y-104662106D01*
X163189095Y-104691067D01*
X163284839Y-104786811D01*
X163284843Y-104786814D01*
X163284845Y-104786816D01*
X163432087Y-104875827D01*
X163596351Y-104927013D01*
X163667735Y-104933500D01*
X164182264Y-104933499D01*
X164253649Y-104927013D01*
X164417913Y-104875827D01*
X164565155Y-104786816D01*
X164686816Y-104665155D01*
X164713560Y-104620914D01*
X164765919Y-104572967D01*
X164821388Y-104560100D01*
X165087219Y-104560100D01*
X165155340Y-104580102D01*
X165194459Y-104619952D01*
X165219398Y-104660385D01*
X165219405Y-104660393D01*
X165339606Y-104780594D01*
X165339612Y-104780599D01*
X165339613Y-104780600D01*
X165484308Y-104869849D01*
X165645686Y-104923324D01*
X165745289Y-104933500D01*
X166279710Y-104933499D01*
X166379314Y-104923324D01*
X166540692Y-104869849D01*
X166685387Y-104780600D01*
X166711259Y-104754727D01*
X166773566Y-104720703D01*
X166844382Y-104725766D01*
X166889448Y-104754728D01*
X166914919Y-104780199D01*
X166914925Y-104780204D01*
X167059520Y-104869392D01*
X167220787Y-104922830D01*
X167320327Y-104932999D01*
X167841500Y-104932999D01*
X167854673Y-104932999D01*
X167954208Y-104922831D01*
X168115478Y-104869392D01*
X168260074Y-104780204D01*
X168260080Y-104780199D01*
X168380199Y-104660080D01*
X168380204Y-104660074D01*
X168469392Y-104515479D01*
X168522830Y-104354210D01*
X168522831Y-104354206D01*
X168532999Y-104254681D01*
X168533000Y-104254681D01*
X168533000Y-104204000D01*
X167841500Y-104204000D01*
X167841500Y-104932999D01*
X167320327Y-104932999D01*
X167333500Y-104932998D01*
X167333500Y-103696000D01*
X167841500Y-103696000D01*
X168532999Y-103696000D01*
X168532999Y-103645326D01*
X168522831Y-103545791D01*
X168469392Y-103384521D01*
X168380204Y-103239925D01*
X168380199Y-103239919D01*
X168260080Y-103119800D01*
X168260074Y-103119795D01*
X168118127Y-103032241D01*
X168070649Y-102979455D01*
X168059246Y-102909380D01*
X168087539Y-102844264D01*
X168118127Y-102817759D01*
X168260074Y-102730204D01*
X168260080Y-102730199D01*
X168380199Y-102610080D01*
X168380204Y-102610074D01*
X168469392Y-102465479D01*
X168522830Y-102304210D01*
X168522831Y-102304206D01*
X168532999Y-102204681D01*
X168533000Y-102204681D01*
X168533000Y-102154000D01*
X167841500Y-102154000D01*
X167841500Y-103696000D01*
X167333500Y-103696000D01*
X167333500Y-101646000D01*
X167841500Y-101646000D01*
X168532999Y-101646000D01*
X168532999Y-101595326D01*
X168522831Y-101495791D01*
X168469392Y-101334521D01*
X168380204Y-101189925D01*
X168380199Y-101189919D01*
X168260080Y-101069800D01*
X168260074Y-101069795D01*
X168115479Y-100980607D01*
X167954210Y-100927169D01*
X167954206Y-100927168D01*
X167854681Y-100917000D01*
X167841500Y-100917000D01*
X167841500Y-101646000D01*
X167333500Y-101646000D01*
X167333500Y-100917000D01*
X167333499Y-100916999D01*
X167320335Y-100917000D01*
X167220792Y-100927168D01*
X167059521Y-100980607D01*
X166914925Y-101069795D01*
X166889447Y-101095273D01*
X166827134Y-101129297D01*
X166756319Y-101124231D01*
X166711258Y-101095271D01*
X166685387Y-101069400D01*
X166540692Y-100980151D01*
X166379314Y-100926676D01*
X166379311Y-100926675D01*
X166379309Y-100926675D01*
X166279719Y-100916500D01*
X165745289Y-100916500D01*
X165645690Y-100926675D01*
X165645687Y-100926675D01*
X165645686Y-100926676D01*
X165565723Y-100953172D01*
X165484307Y-100980151D01*
X165339612Y-101069400D01*
X165339606Y-101069405D01*
X165219405Y-101189606D01*
X165219398Y-101189614D01*
X165194459Y-101230048D01*
X165141673Y-101277525D01*
X165087219Y-101289900D01*
X164821388Y-101289900D01*
X164753267Y-101269898D01*
X164713560Y-101229085D01*
X164693662Y-101196170D01*
X164686816Y-101184845D01*
X164686815Y-101184844D01*
X164686811Y-101184839D01*
X164565160Y-101063188D01*
X164565155Y-101063184D01*
X164428556Y-100980607D01*
X164417913Y-100974173D01*
X164417912Y-100974172D01*
X164417911Y-100974172D01*
X164417906Y-100974170D01*
X164253646Y-100922986D01*
X164201723Y-100918268D01*
X164182265Y-100916500D01*
X164182262Y-100916500D01*
X163667738Y-100916500D01*
X163596353Y-100922986D01*
X163596352Y-100922986D01*
X163432093Y-100974170D01*
X163432088Y-100974172D01*
X163284844Y-101063184D01*
X163284839Y-101063188D01*
X163189095Y-101158933D01*
X163126783Y-101192959D01*
X163055968Y-101187894D01*
X163010905Y-101158933D01*
X162915160Y-101063188D01*
X162915155Y-101063184D01*
X162778556Y-100980607D01*
X162767913Y-100974173D01*
X162767912Y-100974172D01*
X162767911Y-100974172D01*
X162767906Y-100974170D01*
X162603646Y-100922986D01*
X162551723Y-100918268D01*
X162532265Y-100916500D01*
X162532262Y-100916500D01*
X162017738Y-100916500D01*
X161946353Y-100922986D01*
X161946352Y-100922986D01*
X161782093Y-100974170D01*
X161782088Y-100974172D01*
X161634844Y-101063184D01*
X161634839Y-101063188D01*
X161513186Y-101184841D01*
X161472923Y-101251443D01*
X161420563Y-101299391D01*
X161389682Y-101309835D01*
X161372041Y-101313344D01*
X161372040Y-101313345D01*
X161293529Y-101345865D01*
X161261011Y-101359334D01*
X161238210Y-101374569D01*
X161215252Y-101389910D01*
X161161084Y-101426103D01*
X161161078Y-101426108D01*
X159184193Y-103402995D01*
X159121881Y-103437020D01*
X159095098Y-103439900D01*
X156334500Y-103439900D01*
X156266379Y-103419898D01*
X156219886Y-103366242D01*
X156208500Y-103313900D01*
X156208500Y-102838500D01*
X156228502Y-102770379D01*
X156282158Y-102723886D01*
X156334500Y-102712500D01*
X156975100Y-102712500D01*
X157122413Y-102683197D01*
X157261179Y-102625718D01*
X157287295Y-102608268D01*
X157386065Y-102542273D01*
X161259379Y-98668957D01*
X161321689Y-98634934D01*
X161392504Y-98639998D01*
X161449340Y-98682545D01*
X161455713Y-98691907D01*
X161518470Y-98793652D01*
X161518475Y-98793658D01*
X161643841Y-98919024D01*
X161643847Y-98919029D01*
X161643848Y-98919030D01*
X161794762Y-99012115D01*
X161963074Y-99067887D01*
X162066955Y-99078500D01*
X165268044Y-99078499D01*
X165371926Y-99067887D01*
X165540238Y-99012115D01*
X165691152Y-98919030D01*
X165816530Y-98793652D01*
X165909615Y-98642738D01*
X165965387Y-98474426D01*
X165975245Y-98377930D01*
X166002066Y-98312199D01*
X166030588Y-98285977D01*
X166066065Y-98262273D01*
X167267273Y-97061065D01*
X167350718Y-96936179D01*
X167408197Y-96797413D01*
X167437500Y-96650100D01*
X167437500Y-96499900D01*
X167437500Y-87084500D01*
X167457502Y-87016379D01*
X167511158Y-86969886D01*
X167563500Y-86958500D01*
X167573632Y-86958500D01*
X167573638Y-86958500D01*
X167573645Y-86958499D01*
X167573649Y-86958499D01*
X167634196Y-86951990D01*
X167634199Y-86951989D01*
X167634201Y-86951989D01*
X167771204Y-86900889D01*
X167841399Y-86848342D01*
X167888261Y-86813261D01*
X167975887Y-86696207D01*
X167975887Y-86696206D01*
X167975889Y-86696204D01*
X168026989Y-86559201D01*
X168028800Y-86542362D01*
X168033499Y-86498649D01*
X168033500Y-86498632D01*
X168033500Y-84701367D01*
X168033499Y-84701350D01*
X168026990Y-84640803D01*
X168026988Y-84640795D01*
X167975889Y-84503797D01*
X167975887Y-84503792D01*
X167888261Y-84386738D01*
X167771207Y-84299112D01*
X167771202Y-84299110D01*
X167634204Y-84248011D01*
X167634196Y-84248009D01*
X167573649Y-84241500D01*
X167573638Y-84241500D01*
X165776362Y-84241500D01*
X165776350Y-84241500D01*
X165715803Y-84248009D01*
X165715795Y-84248011D01*
X165578797Y-84299110D01*
X165578792Y-84299112D01*
X165461738Y-84386738D01*
X165374112Y-84503792D01*
X165374111Y-84503795D01*
X165330000Y-84622058D01*
X165287453Y-84678893D01*
X165220932Y-84703703D01*
X165151558Y-84688611D01*
X165119246Y-84663363D01*
X165058240Y-84597094D01*
X165058239Y-84597093D01*
X165058237Y-84597091D01*
X164968521Y-84527262D01*
X164880576Y-84458811D01*
X164682574Y-84351658D01*
X164682572Y-84351657D01*
X164682571Y-84351656D01*
X164469639Y-84278557D01*
X164469630Y-84278555D01*
X164425476Y-84271187D01*
X164247569Y-84241500D01*
X164022431Y-84241500D01*
X163874211Y-84266233D01*
X163800369Y-84278555D01*
X163800360Y-84278557D01*
X163587428Y-84351656D01*
X163587426Y-84351658D01*
X163389426Y-84458810D01*
X163389424Y-84458811D01*
X163211762Y-84597091D01*
X163059279Y-84762729D01*
X163059278Y-84762731D01*
X163047726Y-84780414D01*
X162993723Y-84826503D01*
X162942242Y-84837500D01*
X161407795Y-84837500D01*
X161342611Y-84819329D01*
X161267912Y-84774172D01*
X161103646Y-84722986D01*
X161051723Y-84718268D01*
X161032265Y-84716500D01*
X161032262Y-84716500D01*
X160517738Y-84716500D01*
X160446353Y-84722986D01*
X160446352Y-84722986D01*
X160282093Y-84774170D01*
X160282088Y-84774172D01*
X160134844Y-84863184D01*
X160134839Y-84863188D01*
X160039095Y-84958933D01*
X159976783Y-84992959D01*
X159905968Y-84987894D01*
X159860905Y-84958933D01*
X159765160Y-84863188D01*
X159765155Y-84863184D01*
X159617913Y-84774173D01*
X159617912Y-84774172D01*
X159617911Y-84774172D01*
X159617906Y-84774170D01*
X159453646Y-84722986D01*
X159401723Y-84718268D01*
X159382265Y-84716500D01*
X159382262Y-84716500D01*
X158867738Y-84716500D01*
X158796353Y-84722986D01*
X158796352Y-84722986D01*
X158632093Y-84774170D01*
X158632088Y-84774172D01*
X158484844Y-84863184D01*
X158484839Y-84863188D01*
X158447435Y-84900594D01*
X158385124Y-84934620D01*
X158358339Y-84937500D01*
X157624896Y-84937500D01*
X157477585Y-84966803D01*
X157477584Y-84966804D01*
X157338820Y-85024282D01*
X157213935Y-85107726D01*
X157042067Y-85279595D01*
X156821065Y-85500596D01*
X156758755Y-85534620D01*
X156731972Y-85537500D01*
X156334499Y-85537500D01*
X156266378Y-85517498D01*
X156219885Y-85463842D01*
X156208499Y-85411500D01*
X156208499Y-84799455D01*
X156197887Y-84695574D01*
X156179738Y-84640803D01*
X156142115Y-84527262D01*
X156049030Y-84376348D01*
X156049029Y-84376347D01*
X156049024Y-84376341D01*
X155923658Y-84250975D01*
X155923652Y-84250970D01*
X155908299Y-84241500D01*
X155772738Y-84157885D01*
X155688582Y-84129999D01*
X155604427Y-84102113D01*
X155604420Y-84102112D01*
X155500553Y-84091500D01*
X154774455Y-84091500D01*
X154670574Y-84102112D01*
X154502261Y-84157885D01*
X154351347Y-84250970D01*
X154351341Y-84250975D01*
X154225975Y-84376341D01*
X154225970Y-84376347D01*
X154132885Y-84527262D01*
X154077113Y-84695572D01*
X154077112Y-84695579D01*
X154066500Y-84799446D01*
X154066500Y-87800544D01*
X154077112Y-87904425D01*
X154132885Y-88072738D01*
X154225970Y-88223652D01*
X154225975Y-88223658D01*
X154351341Y-88349024D01*
X154351347Y-88349029D01*
X154351348Y-88349030D01*
X154502262Y-88442115D01*
X154670574Y-88497887D01*
X154774455Y-88508500D01*
X155500544Y-88508499D01*
X155604426Y-88497887D01*
X155772738Y-88442115D01*
X155923652Y-88349030D01*
X156049030Y-88223652D01*
X156142115Y-88072738D01*
X156197887Y-87904426D01*
X156205709Y-87827864D01*
X156208500Y-87800553D01*
X156208500Y-87188500D01*
X156228502Y-87120379D01*
X156282158Y-87073886D01*
X156334500Y-87062500D01*
X157175100Y-87062500D01*
X157322413Y-87033197D01*
X157461179Y-86975718D01*
X157538159Y-86924282D01*
X157586065Y-86892273D01*
X157978934Y-86499403D01*
X158041245Y-86465380D01*
X158068028Y-86462500D01*
X158236500Y-86462500D01*
X158304621Y-86482502D01*
X158351114Y-86536158D01*
X158362500Y-86588500D01*
X158362500Y-88650103D01*
X158387125Y-88773896D01*
X158387124Y-88773896D01*
X158391801Y-88797405D01*
X158391803Y-88797413D01*
X158432446Y-88895534D01*
X158448378Y-88933998D01*
X158449282Y-88936179D01*
X158491892Y-88999950D01*
X158532727Y-89061065D01*
X158532730Y-89061069D01*
X160147179Y-90675516D01*
X160627728Y-91156065D01*
X160733935Y-91262272D01*
X160858821Y-91345718D01*
X160997587Y-91403197D01*
X161144900Y-91432500D01*
X161516287Y-91432500D01*
X161584408Y-91452502D01*
X161618223Y-91484439D01*
X161693158Y-91587578D01*
X161849921Y-91744341D01*
X161890980Y-91774172D01*
X162029285Y-91874657D01*
X162226824Y-91975308D01*
X162437676Y-92043818D01*
X162656649Y-92078500D01*
X162656652Y-92078500D01*
X164678348Y-92078500D01*
X164678351Y-92078500D01*
X164897324Y-92043818D01*
X165108176Y-91975308D01*
X165305715Y-91874657D01*
X165485076Y-91744343D01*
X165641843Y-91587576D01*
X165684565Y-91528773D01*
X165740786Y-91485421D01*
X165811522Y-91479346D01*
X165874314Y-91512477D01*
X165909225Y-91574297D01*
X165912500Y-91602836D01*
X165912500Y-93237163D01*
X165892498Y-93305284D01*
X165838842Y-93351777D01*
X165768568Y-93361881D01*
X165703988Y-93332387D01*
X165684564Y-93311224D01*
X165641841Y-93252421D01*
X165485078Y-93095658D01*
X165305718Y-92965345D01*
X165305717Y-92965344D01*
X165305715Y-92965343D01*
X165108176Y-92864692D01*
X165108173Y-92864691D01*
X165108171Y-92864690D01*
X164897329Y-92796183D01*
X164897325Y-92796182D01*
X164897324Y-92796182D01*
X164678351Y-92761500D01*
X162656649Y-92761500D01*
X162437676Y-92796182D01*
X162437670Y-92796183D01*
X162226828Y-92864690D01*
X162226822Y-92864693D01*
X162029281Y-92965345D01*
X161849921Y-93095658D01*
X161693161Y-93252418D01*
X161693156Y-93252424D01*
X161648411Y-93314010D01*
X161592189Y-93357363D01*
X161521452Y-93363438D01*
X161458661Y-93330306D01*
X161457381Y-93329043D01*
X157898569Y-89770230D01*
X157898565Y-89770227D01*
X157773679Y-89686782D01*
X157634915Y-89629304D01*
X157634914Y-89629303D01*
X157487603Y-89600000D01*
X157487600Y-89600000D01*
X156884500Y-89600000D01*
X156816379Y-89579998D01*
X156769886Y-89526342D01*
X156758500Y-89474000D01*
X156758500Y-89413867D01*
X156758499Y-89413850D01*
X156751990Y-89353303D01*
X156751988Y-89353295D01*
X156700889Y-89216297D01*
X156700887Y-89216292D01*
X156613261Y-89099238D01*
X156496207Y-89011612D01*
X156496202Y-89011610D01*
X156359204Y-88960511D01*
X156359196Y-88960509D01*
X156298649Y-88954000D01*
X156298638Y-88954000D01*
X153701362Y-88954000D01*
X153701350Y-88954000D01*
X153640803Y-88960509D01*
X153640795Y-88960511D01*
X153503797Y-89011610D01*
X153503792Y-89011612D01*
X153386738Y-89099238D01*
X153299112Y-89216292D01*
X153299110Y-89216297D01*
X153248011Y-89353295D01*
X153248009Y-89353303D01*
X153241500Y-89413850D01*
X153241500Y-91311138D01*
X153248010Y-91371695D01*
X153248011Y-91371704D01*
X153299110Y-91508702D01*
X153299112Y-91508707D01*
X153386738Y-91625761D01*
X153503792Y-91713387D01*
X153503794Y-91713388D01*
X153503796Y-91713389D01*
X153562875Y-91735424D01*
X153640795Y-91764488D01*
X153640803Y-91764490D01*
X153701350Y-91770999D01*
X153701355Y-91770999D01*
X153701362Y-91771000D01*
X153701368Y-91771000D01*
X156298632Y-91771000D01*
X156298638Y-91771000D01*
X156298645Y-91770999D01*
X156298649Y-91770999D01*
X156359196Y-91764490D01*
X156359199Y-91764489D01*
X156359201Y-91764489D01*
X156496204Y-91713389D01*
X156613261Y-91625761D01*
X156616745Y-91621107D01*
X156700887Y-91508707D01*
X156700887Y-91508706D01*
X156700889Y-91508704D01*
X156751989Y-91371701D01*
X156754783Y-91345718D01*
X156758500Y-91311138D01*
X156758500Y-91251000D01*
X156778502Y-91182879D01*
X156832158Y-91136386D01*
X156884500Y-91125000D01*
X157044472Y-91125000D01*
X157112593Y-91145002D01*
X157133567Y-91161905D01*
X159807566Y-93835904D01*
X159841592Y-93898216D01*
X159836527Y-93969031D01*
X159807566Y-94014094D01*
X156896539Y-96925121D01*
X156834227Y-96959147D01*
X156763412Y-96954082D01*
X156706576Y-96911535D01*
X156705931Y-96910531D01*
X156613261Y-96786738D01*
X156496207Y-96699112D01*
X156496202Y-96699110D01*
X156359204Y-96648011D01*
X156359196Y-96648009D01*
X156298649Y-96641500D01*
X156298638Y-96641500D01*
X153966027Y-96641500D01*
X153897906Y-96621498D01*
X153851413Y-96567842D01*
X153841309Y-96497568D01*
X153870803Y-96432988D01*
X153876915Y-96426421D01*
X154632935Y-95670402D01*
X154695245Y-95636379D01*
X154722028Y-95633500D01*
X156298632Y-95633500D01*
X156298638Y-95633500D01*
X156298645Y-95633499D01*
X156298649Y-95633499D01*
X156359196Y-95626990D01*
X156359199Y-95626989D01*
X156359201Y-95626989D01*
X156496204Y-95575889D01*
X156539049Y-95543816D01*
X156613261Y-95488261D01*
X156700887Y-95371207D01*
X156700887Y-95371206D01*
X156700889Y-95371204D01*
X156751989Y-95234201D01*
X156754904Y-95207093D01*
X156758499Y-95173649D01*
X156758500Y-95173632D01*
X156758500Y-93276367D01*
X156758499Y-93276350D01*
X156751990Y-93215803D01*
X156751988Y-93215795D01*
X156710159Y-93103649D01*
X156700889Y-93078796D01*
X156700888Y-93078794D01*
X156700887Y-93078792D01*
X156613261Y-92961738D01*
X156496207Y-92874112D01*
X156496202Y-92874110D01*
X156359204Y-92823011D01*
X156359196Y-92823009D01*
X156298649Y-92816500D01*
X156298638Y-92816500D01*
X153701362Y-92816500D01*
X153701350Y-92816500D01*
X153640803Y-92823009D01*
X153640795Y-92823011D01*
X153503797Y-92874110D01*
X153503792Y-92874112D01*
X153386738Y-92961738D01*
X153299112Y-93078792D01*
X153299110Y-93078797D01*
X153248011Y-93215795D01*
X153248009Y-93215803D01*
X153241500Y-93276350D01*
X153241500Y-94852972D01*
X153221498Y-94921093D01*
X153204595Y-94942067D01*
X152973595Y-95173067D01*
X152911283Y-95207093D01*
X152840468Y-95202028D01*
X152783632Y-95159481D01*
X152758821Y-95092961D01*
X152758500Y-95083972D01*
X152758500Y-93276367D01*
X152758499Y-93276350D01*
X152751990Y-93215803D01*
X152751988Y-93215795D01*
X152710159Y-93103649D01*
X152700889Y-93078796D01*
X152700888Y-93078794D01*
X152700887Y-93078792D01*
X152613261Y-92961738D01*
X152496207Y-92874112D01*
X152496202Y-92874110D01*
X152359204Y-92823011D01*
X152359196Y-92823009D01*
X152298649Y-92816500D01*
X152298638Y-92816500D01*
X151888500Y-92816500D01*
X151820379Y-92796498D01*
X151773886Y-92742842D01*
X151762500Y-92690500D01*
X151762500Y-91897000D01*
X151782502Y-91828879D01*
X151836158Y-91782386D01*
X151888500Y-91771000D01*
X152298632Y-91771000D01*
X152298638Y-91771000D01*
X152298645Y-91770999D01*
X152298649Y-91770999D01*
X152359196Y-91764490D01*
X152359199Y-91764489D01*
X152359201Y-91764489D01*
X152496204Y-91713389D01*
X152613261Y-91625761D01*
X152616745Y-91621107D01*
X152700887Y-91508707D01*
X152700887Y-91508706D01*
X152700889Y-91508704D01*
X152751989Y-91371701D01*
X152754783Y-91345718D01*
X152758500Y-91311138D01*
X152758500Y-89413867D01*
X152758499Y-89413850D01*
X152751990Y-89353303D01*
X152751988Y-89353295D01*
X152700889Y-89216297D01*
X152700887Y-89216292D01*
X152613261Y-89099238D01*
X152496207Y-89011612D01*
X152496202Y-89011610D01*
X152359204Y-88960511D01*
X152359196Y-88960509D01*
X152298649Y-88954000D01*
X152298638Y-88954000D01*
X151751000Y-88954000D01*
X151682879Y-88933998D01*
X151636386Y-88880342D01*
X151625000Y-88828000D01*
X151625000Y-88424873D01*
X151645002Y-88356752D01*
X151661905Y-88335778D01*
X151774024Y-88223658D01*
X151774030Y-88223652D01*
X151867115Y-88072738D01*
X151922887Y-87904426D01*
X151933500Y-87800545D01*
X151933499Y-84799456D01*
X151930163Y-84766804D01*
X151922887Y-84695574D01*
X151904738Y-84640803D01*
X151867115Y-84527262D01*
X151774030Y-84376348D01*
X151774029Y-84376347D01*
X151774024Y-84376341D01*
X151648658Y-84250975D01*
X151648652Y-84250970D01*
X151633299Y-84241500D01*
X151497738Y-84157885D01*
X151413582Y-84129999D01*
X151329427Y-84102113D01*
X151329420Y-84102112D01*
X151225553Y-84091500D01*
X150499455Y-84091500D01*
X150395574Y-84102112D01*
X150227261Y-84157885D01*
X150076347Y-84250970D01*
X150076341Y-84250975D01*
X149950975Y-84376341D01*
X149950970Y-84376347D01*
X149857885Y-84527262D01*
X149802113Y-84695572D01*
X149802112Y-84695579D01*
X149791500Y-84799446D01*
X149791500Y-87800544D01*
X149802112Y-87904425D01*
X149857885Y-88072738D01*
X149950970Y-88223652D01*
X149950975Y-88223658D01*
X150063095Y-88335778D01*
X150097121Y-88398090D01*
X150100000Y-88424873D01*
X150100000Y-88828000D01*
X150079998Y-88896121D01*
X150026342Y-88942614D01*
X149974000Y-88954000D01*
X149701350Y-88954000D01*
X149640803Y-88960509D01*
X149640795Y-88960511D01*
X149503797Y-89011610D01*
X149503792Y-89011612D01*
X149386738Y-89099238D01*
X149299112Y-89216292D01*
X149299110Y-89216297D01*
X149248011Y-89353295D01*
X149248009Y-89353303D01*
X149241500Y-89413850D01*
X149241500Y-91311138D01*
X149248010Y-91371695D01*
X149248011Y-91371704D01*
X149299110Y-91508702D01*
X149299112Y-91508707D01*
X149386738Y-91625761D01*
X149503792Y-91713387D01*
X149503794Y-91713388D01*
X149503796Y-91713389D01*
X149562875Y-91735424D01*
X149640795Y-91764488D01*
X149640803Y-91764490D01*
X149701350Y-91770999D01*
X149701355Y-91770999D01*
X149701362Y-91771000D01*
X150111500Y-91771000D01*
X150179621Y-91791002D01*
X150226114Y-91844658D01*
X150237500Y-91897000D01*
X150237500Y-92690500D01*
X150217498Y-92758621D01*
X150163842Y-92805114D01*
X150111500Y-92816500D01*
X149701350Y-92816500D01*
X149640803Y-92823009D01*
X149640795Y-92823011D01*
X149503797Y-92874110D01*
X149503792Y-92874112D01*
X149386738Y-92961738D01*
X149299112Y-93078792D01*
X149299110Y-93078797D01*
X149248011Y-93215795D01*
X149248009Y-93215803D01*
X149241500Y-93276350D01*
X149241500Y-93350819D01*
X149221498Y-93418940D01*
X149167842Y-93465433D01*
X149140083Y-93474398D01*
X149087971Y-93484764D01*
X149052587Y-93491803D01*
X149052585Y-93491803D01*
X149052584Y-93491804D01*
X148913820Y-93549282D01*
X148788935Y-93632726D01*
X148107561Y-94314099D01*
X148045249Y-94348124D01*
X147974433Y-94343059D01*
X147917598Y-94300512D01*
X147902056Y-94273218D01*
X147897423Y-94262032D01*
X147836667Y-94171104D01*
X147808943Y-94129611D01*
X147808941Y-94129609D01*
X147808936Y-94129603D01*
X147696336Y-94017003D01*
X147696330Y-94016998D01*
X147691984Y-94014094D01*
X147563908Y-93928517D01*
X147416771Y-93867570D01*
X147338670Y-93852035D01*
X147260572Y-93836500D01*
X147260570Y-93836500D01*
X147189203Y-93836500D01*
X147121082Y-93816498D01*
X147074589Y-93762842D01*
X147072794Y-93758717D01*
X147056659Y-93719763D01*
X147056658Y-93719761D01*
X146998504Y-93632727D01*
X146998503Y-93632725D01*
X146973214Y-93594877D01*
X146973208Y-93594869D01*
X145467668Y-92089330D01*
X145437158Y-92039867D01*
X145412152Y-91964402D01*
X145409712Y-91893447D01*
X145442660Y-91835676D01*
X145829773Y-91448565D01*
X145877878Y-91376569D01*
X145932354Y-91331040D01*
X145943000Y-91326968D01*
X145972738Y-91317115D01*
X146123652Y-91224030D01*
X146249030Y-91098652D01*
X146342115Y-90947738D01*
X146397887Y-90779426D01*
X146408500Y-90675545D01*
X146408499Y-88724456D01*
X146406954Y-88709336D01*
X146397887Y-88620574D01*
X146360750Y-88508500D01*
X146342115Y-88452262D01*
X146249030Y-88301348D01*
X146249029Y-88301347D01*
X146249024Y-88301341D01*
X146123658Y-88175975D01*
X146123652Y-88175970D01*
X146056211Y-88134372D01*
X145972738Y-88082885D01*
X145972735Y-88082884D01*
X145954125Y-88076717D01*
X145895754Y-88036302D01*
X145868499Y-87970746D01*
X145881013Y-87900861D01*
X145904661Y-87868020D01*
X145974030Y-87798652D01*
X145987785Y-87776352D01*
X146040571Y-87728875D01*
X146095025Y-87716500D01*
X148150116Y-87716500D01*
X148346502Y-87677436D01*
X148531493Y-87600810D01*
X148697981Y-87489567D01*
X148839567Y-87347981D01*
X148950810Y-87181493D01*
X149027436Y-86996502D01*
X149066500Y-86800116D01*
X149066500Y-86599884D01*
X149027436Y-86403498D01*
X148950810Y-86218507D01*
X148839567Y-86052019D01*
X148839565Y-86052017D01*
X148839560Y-86052011D01*
X148697988Y-85910439D01*
X148697982Y-85910434D01*
X148563149Y-85820342D01*
X148531493Y-85799190D01*
X148414839Y-85750870D01*
X148346505Y-85722565D01*
X148346502Y-85722564D01*
X148150119Y-85683500D01*
X148150116Y-85683500D01*
X146095025Y-85683500D01*
X146026904Y-85663498D01*
X145987785Y-85623648D01*
X145974031Y-85601349D01*
X145974024Y-85601341D01*
X145848658Y-85475975D01*
X145848652Y-85475970D01*
X145828989Y-85463842D01*
X145697738Y-85382885D01*
X145613582Y-85354999D01*
X145529427Y-85327113D01*
X145529420Y-85327112D01*
X145425553Y-85316500D01*
X144574455Y-85316500D01*
X144470574Y-85327112D01*
X144302261Y-85382885D01*
X144151347Y-85475970D01*
X144151341Y-85475975D01*
X144025975Y-85601341D01*
X144025970Y-85601347D01*
X143932885Y-85752262D01*
X143877113Y-85920572D01*
X143877112Y-85920579D01*
X143866500Y-86024446D01*
X143866500Y-86333971D01*
X143846498Y-86402092D01*
X143792842Y-86448585D01*
X143722568Y-86458689D01*
X143657988Y-86429195D01*
X143651405Y-86423066D01*
X143370404Y-86142065D01*
X143336378Y-86079753D01*
X143333499Y-86052970D01*
X143333499Y-86024455D01*
X143322887Y-85920574D01*
X143282665Y-85799190D01*
X143267115Y-85752262D01*
X143174030Y-85601348D01*
X143174029Y-85601347D01*
X143174024Y-85601341D01*
X143048658Y-85475975D01*
X143048652Y-85475970D01*
X143028989Y-85463842D01*
X142897738Y-85382885D01*
X142813582Y-85354999D01*
X142729427Y-85327113D01*
X142729420Y-85327112D01*
X142625553Y-85316500D01*
X142625545Y-85316500D01*
X142497028Y-85316500D01*
X142428907Y-85296498D01*
X142407937Y-85279599D01*
X142036065Y-84907727D01*
X141911179Y-84824282D01*
X141772414Y-84766803D01*
X141625103Y-84737500D01*
X141625100Y-84737500D01*
X135124900Y-84737500D01*
X135124896Y-84737500D01*
X134977585Y-84766803D01*
X134977584Y-84766804D01*
X134838819Y-84824283D01*
X134713932Y-84907729D01*
X134713926Y-84907734D01*
X134132730Y-85488930D01*
X134132724Y-85488938D01*
X134086763Y-85557726D01*
X134086762Y-85557728D01*
X134049283Y-85613819D01*
X133991804Y-85752584D01*
X133978325Y-85820342D01*
X133945416Y-85883252D01*
X133896361Y-85914688D01*
X133746984Y-85966957D01*
X133746981Y-85966958D01*
X133592720Y-86063887D01*
X133592718Y-86063888D01*
X133463888Y-86192718D01*
X133463887Y-86192720D01*
X133366958Y-86346981D01*
X133366957Y-86346984D01*
X133311817Y-86504567D01*
X133306783Y-86518953D01*
X133286384Y-86700000D01*
X133306783Y-86881047D01*
X133306783Y-86881049D01*
X133306784Y-86881050D01*
X133366957Y-87053015D01*
X133366958Y-87053018D01*
X133463887Y-87207279D01*
X133463888Y-87207281D01*
X133592718Y-87336111D01*
X133592720Y-87336112D01*
X133667384Y-87383027D01*
X133714422Y-87436205D01*
X133725242Y-87506372D01*
X133696409Y-87571251D01*
X133664490Y-87598166D01*
X133634103Y-87616137D01*
X133623594Y-87622352D01*
X133559454Y-87639900D01*
X133361763Y-87639900D01*
X133296579Y-87621728D01*
X133217913Y-87574173D01*
X133217912Y-87574172D01*
X133217911Y-87574172D01*
X133217906Y-87574170D01*
X133053646Y-87522986D01*
X133001723Y-87518268D01*
X132982265Y-87516500D01*
X132982262Y-87516500D01*
X132317738Y-87516500D01*
X132246353Y-87522986D01*
X132246352Y-87522986D01*
X132082093Y-87574170D01*
X132082088Y-87574172D01*
X131934844Y-87663184D01*
X131934839Y-87663188D01*
X131833933Y-87764095D01*
X131771621Y-87798121D01*
X131744838Y-87801000D01*
X131631151Y-87801000D01*
X131578744Y-87811425D01*
X131561274Y-87814900D01*
X131528691Y-87821381D01*
X131496108Y-87827862D01*
X131496103Y-87827864D01*
X131368896Y-87880555D01*
X131263314Y-87951104D01*
X131254414Y-87957050D01*
X131184352Y-88027113D01*
X131004414Y-88207051D01*
X130907055Y-88304409D01*
X130907048Y-88304418D01*
X130874862Y-88352585D01*
X130874863Y-88352586D01*
X130830555Y-88418896D01*
X130793441Y-88508499D01*
X130777862Y-88546109D01*
X130759207Y-88639900D01*
X130754544Y-88663342D01*
X130754543Y-88663345D01*
X130751000Y-88681150D01*
X130751000Y-102708275D01*
X130730998Y-102776396D01*
X130714095Y-102797370D01*
X130247370Y-103264095D01*
X130185058Y-103298121D01*
X130158275Y-103301000D01*
X122331151Y-103301000D01*
X122196108Y-103327862D01*
X122196103Y-103327864D01*
X122068896Y-103380555D01*
X121964152Y-103450544D01*
X121964151Y-103450543D01*
X121954418Y-103457047D01*
X121954410Y-103457054D01*
X121715465Y-103696000D01*
X121044414Y-104367051D01*
X120995732Y-104415733D01*
X120947050Y-104464414D01*
X120894576Y-104542948D01*
X120894575Y-104542949D01*
X120870555Y-104578895D01*
X120817861Y-104706110D01*
X120817860Y-104706113D01*
X120801809Y-104786814D01*
X120801809Y-104786815D01*
X120791000Y-104841154D01*
X120791000Y-105440500D01*
X120770998Y-105508621D01*
X120717342Y-105555114D01*
X120665000Y-105566500D01*
X120591350Y-105566500D01*
X120530803Y-105573009D01*
X120530795Y-105573011D01*
X120393797Y-105624110D01*
X120393792Y-105624112D01*
X120276738Y-105711738D01*
X120189112Y-105828792D01*
X120189110Y-105828797D01*
X120138011Y-105965795D01*
X120138009Y-105965803D01*
X120131500Y-106026350D01*
X116850000Y-106026350D01*
X116850000Y-81624996D01*
X116844598Y-81494516D01*
X116844891Y-81479259D01*
X116852659Y-81382139D01*
X116865630Y-81219960D01*
X116868195Y-81202834D01*
X116924103Y-80949859D01*
X116928998Y-80933235D01*
X117019103Y-80690321D01*
X117026225Y-80674545D01*
X117065511Y-80601402D01*
X120142000Y-80601402D01*
X120142000Y-81246000D01*
X121069297Y-81246000D01*
X121034075Y-81307007D01*
X121000000Y-81434174D01*
X121000000Y-81565826D01*
X121034075Y-81692993D01*
X121069297Y-81754000D01*
X120142000Y-81754000D01*
X120142000Y-82398597D01*
X120148505Y-82459093D01*
X120199555Y-82595964D01*
X120199555Y-82595965D01*
X120287095Y-82712904D01*
X120404034Y-82800444D01*
X120540906Y-82851494D01*
X120601402Y-82857999D01*
X120601415Y-82858000D01*
X121246000Y-82858000D01*
X121246000Y-81930702D01*
X121307007Y-81965925D01*
X121434174Y-82000000D01*
X121565826Y-82000000D01*
X121692993Y-81965925D01*
X121754000Y-81930702D01*
X121754000Y-82858000D01*
X122398585Y-82858000D01*
X122398597Y-82857999D01*
X122459093Y-82851494D01*
X122595964Y-82800444D01*
X122595965Y-82800444D01*
X122712904Y-82712904D01*
X122800444Y-82595965D01*
X122844618Y-82477530D01*
X122887165Y-82420694D01*
X122953685Y-82395883D01*
X123023059Y-82410974D01*
X123055372Y-82436222D01*
X123076427Y-82459093D01*
X123116762Y-82502908D01*
X123171331Y-82545381D01*
X123294424Y-82641189D01*
X123492426Y-82748342D01*
X123492427Y-82748342D01*
X123492428Y-82748343D01*
X123604227Y-82786723D01*
X123705365Y-82821444D01*
X123927431Y-82858500D01*
X123927435Y-82858500D01*
X124152565Y-82858500D01*
X124152569Y-82858500D01*
X124374635Y-82821444D01*
X124587574Y-82748342D01*
X124785576Y-82641189D01*
X124963240Y-82502906D01*
X125115722Y-82337268D01*
X125115927Y-82336955D01*
X125121115Y-82329012D01*
X125204518Y-82201354D01*
X125258520Y-82155268D01*
X125328868Y-82145692D01*
X125393225Y-82175669D01*
X125415480Y-82201353D01*
X125448607Y-82252058D01*
X125504275Y-82337265D01*
X125504279Y-82337270D01*
X125656762Y-82502908D01*
X125711331Y-82545381D01*
X125834424Y-82641189D01*
X126032426Y-82748342D01*
X126032427Y-82748342D01*
X126032428Y-82748343D01*
X126144227Y-82786723D01*
X126245365Y-82821444D01*
X126467431Y-82858500D01*
X126467435Y-82858500D01*
X126692565Y-82858500D01*
X126692569Y-82858500D01*
X126914635Y-82821444D01*
X127127574Y-82748342D01*
X127325576Y-82641189D01*
X127503240Y-82502906D01*
X127655722Y-82337268D01*
X127655927Y-82336955D01*
X127661115Y-82329012D01*
X127744518Y-82201354D01*
X127798520Y-82155268D01*
X127868868Y-82145692D01*
X127933225Y-82175669D01*
X127955480Y-82201353D01*
X127988607Y-82252058D01*
X128044275Y-82337265D01*
X128044279Y-82337270D01*
X128196762Y-82502908D01*
X128251331Y-82545381D01*
X128374424Y-82641189D01*
X128572426Y-82748342D01*
X128572427Y-82748342D01*
X128572428Y-82748343D01*
X128684227Y-82786723D01*
X128785365Y-82821444D01*
X129007431Y-82858500D01*
X129007435Y-82858500D01*
X129232565Y-82858500D01*
X129232569Y-82858500D01*
X129454635Y-82821444D01*
X129667574Y-82748342D01*
X129865576Y-82641189D01*
X130043240Y-82502906D01*
X130195722Y-82337268D01*
X130195927Y-82336955D01*
X130201115Y-82329012D01*
X130284518Y-82201354D01*
X130338520Y-82155268D01*
X130408868Y-82145692D01*
X130473225Y-82175669D01*
X130495480Y-82201353D01*
X130528607Y-82252058D01*
X130584275Y-82337265D01*
X130584279Y-82337270D01*
X130736762Y-82502908D01*
X130791331Y-82545381D01*
X130914424Y-82641189D01*
X131112426Y-82748342D01*
X131112427Y-82748342D01*
X131112428Y-82748343D01*
X131224227Y-82786723D01*
X131325365Y-82821444D01*
X131547431Y-82858500D01*
X131547435Y-82858500D01*
X131772565Y-82858500D01*
X131772569Y-82858500D01*
X131994635Y-82821444D01*
X132207574Y-82748342D01*
X132405576Y-82641189D01*
X132583240Y-82502906D01*
X132735722Y-82337268D01*
X132735927Y-82336955D01*
X132741115Y-82329012D01*
X132824518Y-82201354D01*
X132878520Y-82155268D01*
X132948868Y-82145692D01*
X133013225Y-82175669D01*
X133035480Y-82201353D01*
X133068607Y-82252058D01*
X133124275Y-82337265D01*
X133124279Y-82337270D01*
X133276762Y-82502908D01*
X133331331Y-82545381D01*
X133454424Y-82641189D01*
X133652426Y-82748342D01*
X133652427Y-82748342D01*
X133652428Y-82748343D01*
X133764227Y-82786723D01*
X133865365Y-82821444D01*
X134087431Y-82858500D01*
X134087435Y-82858500D01*
X134312565Y-82858500D01*
X134312569Y-82858500D01*
X134534635Y-82821444D01*
X134747574Y-82748342D01*
X134945576Y-82641189D01*
X135123240Y-82502906D01*
X135275722Y-82337268D01*
X135275927Y-82336955D01*
X135291122Y-82313695D01*
X135364816Y-82200898D01*
X135418819Y-82154810D01*
X135489167Y-82145235D01*
X135553524Y-82175212D01*
X135575782Y-82200898D01*
X135664674Y-82336958D01*
X135817097Y-82502534D01*
X135994698Y-82640767D01*
X135994699Y-82640768D01*
X136192628Y-82747882D01*
X136192630Y-82747883D01*
X136405483Y-82820955D01*
X136405492Y-82820957D01*
X136486000Y-82834391D01*
X136486000Y-81930702D01*
X136547007Y-81965925D01*
X136674174Y-82000000D01*
X136805826Y-82000000D01*
X136932993Y-81965925D01*
X136994000Y-81930702D01*
X136994000Y-82834390D01*
X137074507Y-82820957D01*
X137074516Y-82820955D01*
X137287369Y-82747883D01*
X137287371Y-82747882D01*
X137485300Y-82640768D01*
X137485301Y-82640767D01*
X137662902Y-82502534D01*
X137815327Y-82336955D01*
X137904217Y-82200899D01*
X137958220Y-82154810D01*
X138028568Y-82145235D01*
X138092925Y-82175212D01*
X138115183Y-82200898D01*
X138204279Y-82337270D01*
X138356762Y-82502908D01*
X138411331Y-82545381D01*
X138534424Y-82641189D01*
X138732426Y-82748342D01*
X138732427Y-82748342D01*
X138732428Y-82748343D01*
X138844227Y-82786723D01*
X138945365Y-82821444D01*
X139167431Y-82858500D01*
X139167435Y-82858500D01*
X139392565Y-82858500D01*
X139392569Y-82858500D01*
X139614635Y-82821444D01*
X139827574Y-82748342D01*
X140025576Y-82641189D01*
X140203240Y-82502906D01*
X140355722Y-82337268D01*
X140355927Y-82336955D01*
X140361115Y-82329012D01*
X140444518Y-82201354D01*
X140498520Y-82155268D01*
X140568868Y-82145692D01*
X140633225Y-82175669D01*
X140655480Y-82201353D01*
X140688607Y-82252058D01*
X140744275Y-82337265D01*
X140744279Y-82337270D01*
X140896762Y-82502908D01*
X140951331Y-82545381D01*
X141074424Y-82641189D01*
X141272426Y-82748342D01*
X141272427Y-82748342D01*
X141272428Y-82748343D01*
X141384227Y-82786723D01*
X141485365Y-82821444D01*
X141707431Y-82858500D01*
X141707435Y-82858500D01*
X141932565Y-82858500D01*
X141932569Y-82858500D01*
X142154635Y-82821444D01*
X142367574Y-82748342D01*
X142565576Y-82641189D01*
X142743240Y-82502906D01*
X142895722Y-82337268D01*
X142895927Y-82336955D01*
X142901115Y-82329012D01*
X142984518Y-82201354D01*
X143038520Y-82155268D01*
X143108868Y-82145692D01*
X143173225Y-82175669D01*
X143195480Y-82201353D01*
X143228607Y-82252058D01*
X143284275Y-82337265D01*
X143284279Y-82337270D01*
X143436762Y-82502908D01*
X143491331Y-82545381D01*
X143614424Y-82641189D01*
X143812426Y-82748342D01*
X143812427Y-82748342D01*
X143812428Y-82748343D01*
X143924227Y-82786723D01*
X144025365Y-82821444D01*
X144247431Y-82858500D01*
X144247435Y-82858500D01*
X144472565Y-82858500D01*
X144472569Y-82858500D01*
X144694635Y-82821444D01*
X144907574Y-82748342D01*
X145105576Y-82641189D01*
X145283240Y-82502906D01*
X145435722Y-82337268D01*
X145435927Y-82336955D01*
X145441115Y-82329012D01*
X145524518Y-82201354D01*
X145578520Y-82155268D01*
X145648868Y-82145692D01*
X145713225Y-82175669D01*
X145735480Y-82201353D01*
X145768607Y-82252058D01*
X145824275Y-82337265D01*
X145824279Y-82337270D01*
X145976762Y-82502908D01*
X146031331Y-82545381D01*
X146154424Y-82641189D01*
X146352426Y-82748342D01*
X146352427Y-82748342D01*
X146352428Y-82748343D01*
X146464227Y-82786723D01*
X146565365Y-82821444D01*
X146787431Y-82858500D01*
X146787435Y-82858500D01*
X147012565Y-82858500D01*
X147012569Y-82858500D01*
X147234635Y-82821444D01*
X147447574Y-82748342D01*
X147645576Y-82641189D01*
X147823240Y-82502906D01*
X147975722Y-82337268D01*
X147975927Y-82336955D01*
X147981115Y-82329012D01*
X148064518Y-82201354D01*
X148118520Y-82155268D01*
X148188868Y-82145692D01*
X148253225Y-82175669D01*
X148275480Y-82201353D01*
X148308607Y-82252058D01*
X148364275Y-82337265D01*
X148364279Y-82337270D01*
X148516762Y-82502908D01*
X148571331Y-82545381D01*
X148694424Y-82641189D01*
X148892426Y-82748342D01*
X148892427Y-82748342D01*
X148892428Y-82748343D01*
X149004227Y-82786723D01*
X149105365Y-82821444D01*
X149327431Y-82858500D01*
X149327435Y-82858500D01*
X149552565Y-82858500D01*
X149552569Y-82858500D01*
X149774635Y-82821444D01*
X149987574Y-82748342D01*
X150185576Y-82641189D01*
X150363240Y-82502906D01*
X150515722Y-82337268D01*
X150515927Y-82336955D01*
X150521115Y-82329012D01*
X150604518Y-82201354D01*
X150658520Y-82155268D01*
X150728868Y-82145692D01*
X150793225Y-82175669D01*
X150815480Y-82201353D01*
X150848607Y-82252058D01*
X150904275Y-82337265D01*
X150904279Y-82337270D01*
X151056762Y-82502908D01*
X151111331Y-82545381D01*
X151234424Y-82641189D01*
X151432426Y-82748342D01*
X151432427Y-82748342D01*
X151432428Y-82748343D01*
X151544227Y-82786723D01*
X151645365Y-82821444D01*
X151867431Y-82858500D01*
X151867435Y-82858500D01*
X152092565Y-82858500D01*
X152092569Y-82858500D01*
X152314635Y-82821444D01*
X152527574Y-82748342D01*
X152725576Y-82641189D01*
X152903240Y-82502906D01*
X153055722Y-82337268D01*
X153055927Y-82336955D01*
X153061115Y-82329012D01*
X153144518Y-82201354D01*
X153198520Y-82155268D01*
X153268868Y-82145692D01*
X153333225Y-82175669D01*
X153355480Y-82201353D01*
X153388607Y-82252058D01*
X153444275Y-82337265D01*
X153444279Y-82337270D01*
X153596762Y-82502908D01*
X153651331Y-82545381D01*
X153774424Y-82641189D01*
X153972426Y-82748342D01*
X153972427Y-82748342D01*
X153972428Y-82748343D01*
X154084227Y-82786723D01*
X154185365Y-82821444D01*
X154407431Y-82858500D01*
X154407435Y-82858500D01*
X154632565Y-82858500D01*
X154632569Y-82858500D01*
X154854635Y-82821444D01*
X155067574Y-82748342D01*
X155265576Y-82641189D01*
X155443240Y-82502906D01*
X155595722Y-82337268D01*
X155595927Y-82336955D01*
X155601115Y-82329012D01*
X155684518Y-82201354D01*
X155738520Y-82155268D01*
X155808868Y-82145692D01*
X155873225Y-82175669D01*
X155895480Y-82201353D01*
X155928607Y-82252058D01*
X155984275Y-82337265D01*
X155984279Y-82337270D01*
X156136762Y-82502908D01*
X156191331Y-82545381D01*
X156314424Y-82641189D01*
X156512426Y-82748342D01*
X156512427Y-82748342D01*
X156512428Y-82748343D01*
X156624227Y-82786723D01*
X156725365Y-82821444D01*
X156947431Y-82858500D01*
X156947435Y-82858500D01*
X157172565Y-82858500D01*
X157172569Y-82858500D01*
X157394635Y-82821444D01*
X157607574Y-82748342D01*
X157805576Y-82641189D01*
X157983240Y-82502906D01*
X158135722Y-82337268D01*
X158135927Y-82336955D01*
X158141115Y-82329012D01*
X158224518Y-82201354D01*
X158278520Y-82155268D01*
X158348868Y-82145692D01*
X158413225Y-82175669D01*
X158435480Y-82201353D01*
X158468607Y-82252058D01*
X158524275Y-82337265D01*
X158524279Y-82337270D01*
X158676762Y-82502908D01*
X158731331Y-82545381D01*
X158854424Y-82641189D01*
X159052426Y-82748342D01*
X159052427Y-82748342D01*
X159052428Y-82748343D01*
X159164227Y-82786723D01*
X159265365Y-82821444D01*
X159487431Y-82858500D01*
X159487435Y-82858500D01*
X159712565Y-82858500D01*
X159712569Y-82858500D01*
X159934635Y-82821444D01*
X160147574Y-82748342D01*
X160345576Y-82641189D01*
X160523240Y-82502906D01*
X160675722Y-82337268D01*
X160675927Y-82336955D01*
X160681115Y-82329012D01*
X160764518Y-82201354D01*
X160818520Y-82155268D01*
X160888868Y-82145692D01*
X160953225Y-82175669D01*
X160975480Y-82201353D01*
X161008607Y-82252058D01*
X161064275Y-82337265D01*
X161064279Y-82337270D01*
X161216762Y-82502908D01*
X161271331Y-82545381D01*
X161394424Y-82641189D01*
X161592426Y-82748342D01*
X161592427Y-82748342D01*
X161592428Y-82748343D01*
X161704227Y-82786723D01*
X161805365Y-82821444D01*
X162027431Y-82858500D01*
X162027435Y-82858500D01*
X162252565Y-82858500D01*
X162252569Y-82858500D01*
X162474635Y-82821444D01*
X162687574Y-82748342D01*
X162885576Y-82641189D01*
X163063240Y-82502906D01*
X163215722Y-82337268D01*
X163215927Y-82336955D01*
X163221115Y-82329012D01*
X163304518Y-82201354D01*
X163358520Y-82155268D01*
X163428868Y-82145692D01*
X163493225Y-82175669D01*
X163515480Y-82201353D01*
X163548607Y-82252058D01*
X163604275Y-82337265D01*
X163604279Y-82337270D01*
X163756762Y-82502908D01*
X163811331Y-82545381D01*
X163934424Y-82641189D01*
X164132426Y-82748342D01*
X164132427Y-82748342D01*
X164132428Y-82748343D01*
X164244227Y-82786723D01*
X164345365Y-82821444D01*
X164567431Y-82858500D01*
X164567435Y-82858500D01*
X164792565Y-82858500D01*
X164792569Y-82858500D01*
X165014635Y-82821444D01*
X165227574Y-82748342D01*
X165425576Y-82641189D01*
X165603240Y-82502906D01*
X165755722Y-82337268D01*
X165755927Y-82336955D01*
X165761115Y-82329012D01*
X165844518Y-82201354D01*
X165898520Y-82155268D01*
X165968868Y-82145692D01*
X166033225Y-82175669D01*
X166055480Y-82201353D01*
X166088607Y-82252058D01*
X166144275Y-82337265D01*
X166144279Y-82337270D01*
X166296762Y-82502908D01*
X166351331Y-82545381D01*
X166474424Y-82641189D01*
X166672426Y-82748342D01*
X166672427Y-82748342D01*
X166672428Y-82748343D01*
X166784227Y-82786723D01*
X166885365Y-82821444D01*
X167107431Y-82858500D01*
X167107435Y-82858500D01*
X167332565Y-82858500D01*
X167332569Y-82858500D01*
X167554635Y-82821444D01*
X167767574Y-82748342D01*
X167965576Y-82641189D01*
X168143240Y-82502906D01*
X168295722Y-82337268D01*
X168295927Y-82336955D01*
X168302441Y-82326983D01*
X168418860Y-82148791D01*
X168509296Y-81942616D01*
X168564564Y-81724368D01*
X168583156Y-81500000D01*
X168564564Y-81275632D01*
X168509296Y-81057384D01*
X168418860Y-80851209D01*
X168401597Y-80824786D01*
X168295724Y-80662734D01*
X168295720Y-80662729D01*
X168166600Y-80522470D01*
X168143240Y-80497094D01*
X168143239Y-80497093D01*
X168143237Y-80497091D01*
X168023679Y-80404035D01*
X167965576Y-80358811D01*
X167767574Y-80251658D01*
X167767572Y-80251657D01*
X167767571Y-80251656D01*
X167554639Y-80178557D01*
X167554630Y-80178555D01*
X167477029Y-80165606D01*
X167332569Y-80141500D01*
X167107431Y-80141500D01*
X166962971Y-80165606D01*
X166885369Y-80178555D01*
X166885360Y-80178557D01*
X166672428Y-80251656D01*
X166672426Y-80251658D01*
X166474426Y-80358810D01*
X166474424Y-80358811D01*
X166296762Y-80497091D01*
X166144279Y-80662729D01*
X166055483Y-80798643D01*
X166001479Y-80844731D01*
X165931131Y-80854306D01*
X165866774Y-80824329D01*
X165844517Y-80798643D01*
X165755720Y-80662729D01*
X165626600Y-80522470D01*
X165603240Y-80497094D01*
X165603239Y-80497093D01*
X165603237Y-80497091D01*
X165483679Y-80404035D01*
X165425576Y-80358811D01*
X165227574Y-80251658D01*
X165227572Y-80251657D01*
X165227571Y-80251656D01*
X165014639Y-80178557D01*
X165014630Y-80178555D01*
X164937029Y-80165606D01*
X164792569Y-80141500D01*
X164567431Y-80141500D01*
X164422971Y-80165606D01*
X164345369Y-80178555D01*
X164345360Y-80178557D01*
X164132428Y-80251656D01*
X164132426Y-80251658D01*
X163934426Y-80358810D01*
X163934424Y-80358811D01*
X163756762Y-80497091D01*
X163604279Y-80662729D01*
X163515483Y-80798643D01*
X163461479Y-80844731D01*
X163391131Y-80854306D01*
X163326774Y-80824329D01*
X163304517Y-80798643D01*
X163215720Y-80662729D01*
X163086600Y-80522470D01*
X163063240Y-80497094D01*
X163063239Y-80497093D01*
X163063237Y-80497091D01*
X162943679Y-80404035D01*
X162885576Y-80358811D01*
X162687574Y-80251658D01*
X162687572Y-80251657D01*
X162687571Y-80251656D01*
X162474639Y-80178557D01*
X162474630Y-80178555D01*
X162397029Y-80165606D01*
X162252569Y-80141500D01*
X162027431Y-80141500D01*
X161882971Y-80165606D01*
X161805369Y-80178555D01*
X161805360Y-80178557D01*
X161592428Y-80251656D01*
X161592426Y-80251658D01*
X161394426Y-80358810D01*
X161394424Y-80358811D01*
X161216762Y-80497091D01*
X161064279Y-80662729D01*
X160975483Y-80798643D01*
X160921479Y-80844731D01*
X160851131Y-80854306D01*
X160786774Y-80824329D01*
X160764517Y-80798643D01*
X160675720Y-80662729D01*
X160546600Y-80522470D01*
X160523240Y-80497094D01*
X160523239Y-80497093D01*
X160523237Y-80497091D01*
X160403679Y-80404035D01*
X160345576Y-80358811D01*
X160147574Y-80251658D01*
X160147572Y-80251657D01*
X160147571Y-80251656D01*
X159934639Y-80178557D01*
X159934630Y-80178555D01*
X159857029Y-80165606D01*
X159712569Y-80141500D01*
X159487431Y-80141500D01*
X159342971Y-80165606D01*
X159265369Y-80178555D01*
X159265360Y-80178557D01*
X159052428Y-80251656D01*
X159052426Y-80251658D01*
X158854426Y-80358810D01*
X158854424Y-80358811D01*
X158676762Y-80497091D01*
X158524279Y-80662729D01*
X158435483Y-80798643D01*
X158381479Y-80844731D01*
X158311131Y-80854306D01*
X158246774Y-80824329D01*
X158224517Y-80798643D01*
X158135720Y-80662729D01*
X158006600Y-80522470D01*
X157983240Y-80497094D01*
X157983239Y-80497093D01*
X157983237Y-80497091D01*
X157863679Y-80404035D01*
X157805576Y-80358811D01*
X157607574Y-80251658D01*
X157607572Y-80251657D01*
X157607571Y-80251656D01*
X157394639Y-80178557D01*
X157394630Y-80178555D01*
X157317029Y-80165606D01*
X157172569Y-80141500D01*
X156947431Y-80141500D01*
X156802971Y-80165606D01*
X156725369Y-80178555D01*
X156725360Y-80178557D01*
X156512428Y-80251656D01*
X156512426Y-80251658D01*
X156314426Y-80358810D01*
X156314424Y-80358811D01*
X156136762Y-80497091D01*
X155984279Y-80662729D01*
X155895483Y-80798643D01*
X155841479Y-80844731D01*
X155771131Y-80854306D01*
X155706774Y-80824329D01*
X155684517Y-80798643D01*
X155595720Y-80662729D01*
X155466600Y-80522470D01*
X155443240Y-80497094D01*
X155443239Y-80497093D01*
X155443237Y-80497091D01*
X155323679Y-80404035D01*
X155265576Y-80358811D01*
X155067574Y-80251658D01*
X155067572Y-80251657D01*
X155067571Y-80251656D01*
X154854639Y-80178557D01*
X154854630Y-80178555D01*
X154777029Y-80165606D01*
X154632569Y-80141500D01*
X154407431Y-80141500D01*
X154262971Y-80165606D01*
X154185369Y-80178555D01*
X154185360Y-80178557D01*
X153972428Y-80251656D01*
X153972426Y-80251658D01*
X153774426Y-80358810D01*
X153774424Y-80358811D01*
X153596762Y-80497091D01*
X153444279Y-80662729D01*
X153355483Y-80798643D01*
X153301479Y-80844731D01*
X153231131Y-80854306D01*
X153166774Y-80824329D01*
X153144517Y-80798643D01*
X153055720Y-80662729D01*
X152926600Y-80522470D01*
X152903240Y-80497094D01*
X152903239Y-80497093D01*
X152903237Y-80497091D01*
X152783679Y-80404035D01*
X152725576Y-80358811D01*
X152527574Y-80251658D01*
X152527572Y-80251657D01*
X152527571Y-80251656D01*
X152314639Y-80178557D01*
X152314630Y-80178555D01*
X152237029Y-80165606D01*
X152092569Y-80141500D01*
X151867431Y-80141500D01*
X151722971Y-80165606D01*
X151645369Y-80178555D01*
X151645360Y-80178557D01*
X151432428Y-80251656D01*
X151432426Y-80251658D01*
X151234426Y-80358810D01*
X151234424Y-80358811D01*
X151056762Y-80497091D01*
X150904279Y-80662729D01*
X150815483Y-80798643D01*
X150761479Y-80844731D01*
X150691131Y-80854306D01*
X150626774Y-80824329D01*
X150604517Y-80798643D01*
X150515720Y-80662729D01*
X150386600Y-80522470D01*
X150363240Y-80497094D01*
X150363239Y-80497093D01*
X150363237Y-80497091D01*
X150243679Y-80404035D01*
X150185576Y-80358811D01*
X149987574Y-80251658D01*
X149987572Y-80251657D01*
X149987571Y-80251656D01*
X149774639Y-80178557D01*
X149774630Y-80178555D01*
X149697029Y-80165606D01*
X149552569Y-80141500D01*
X149327431Y-80141500D01*
X149182971Y-80165606D01*
X149105369Y-80178555D01*
X149105360Y-80178557D01*
X148892428Y-80251656D01*
X148892426Y-80251658D01*
X148694426Y-80358810D01*
X148694424Y-80358811D01*
X148516762Y-80497091D01*
X148364279Y-80662729D01*
X148275483Y-80798643D01*
X148221479Y-80844731D01*
X148151131Y-80854306D01*
X148086774Y-80824329D01*
X148064517Y-80798643D01*
X147975720Y-80662729D01*
X147846600Y-80522470D01*
X147823240Y-80497094D01*
X147823239Y-80497093D01*
X147823237Y-80497091D01*
X147703679Y-80404035D01*
X147645576Y-80358811D01*
X147447574Y-80251658D01*
X147447572Y-80251657D01*
X147447571Y-80251656D01*
X147234639Y-80178557D01*
X147234630Y-80178555D01*
X147157029Y-80165606D01*
X147012569Y-80141500D01*
X146787431Y-80141500D01*
X146642971Y-80165606D01*
X146565369Y-80178555D01*
X146565360Y-80178557D01*
X146352428Y-80251656D01*
X146352426Y-80251658D01*
X146154426Y-80358810D01*
X146154424Y-80358811D01*
X145976762Y-80497091D01*
X145824279Y-80662729D01*
X145735483Y-80798643D01*
X145681479Y-80844731D01*
X145611131Y-80854306D01*
X145546774Y-80824329D01*
X145524517Y-80798643D01*
X145435720Y-80662729D01*
X145306600Y-80522470D01*
X145283240Y-80497094D01*
X145283239Y-80497093D01*
X145283237Y-80497091D01*
X145163679Y-80404035D01*
X145105576Y-80358811D01*
X144907574Y-80251658D01*
X144907572Y-80251657D01*
X144907571Y-80251656D01*
X144694639Y-80178557D01*
X144694630Y-80178555D01*
X144617029Y-80165606D01*
X144472569Y-80141500D01*
X144247431Y-80141500D01*
X144102971Y-80165606D01*
X144025369Y-80178555D01*
X144025360Y-80178557D01*
X143812428Y-80251656D01*
X143812426Y-80251658D01*
X143614426Y-80358810D01*
X143614424Y-80358811D01*
X143436762Y-80497091D01*
X143284279Y-80662729D01*
X143195483Y-80798643D01*
X143141479Y-80844731D01*
X143071131Y-80854306D01*
X143006774Y-80824329D01*
X142984517Y-80798643D01*
X142895720Y-80662729D01*
X142766600Y-80522470D01*
X142743240Y-80497094D01*
X142743239Y-80497093D01*
X142743237Y-80497091D01*
X142623679Y-80404035D01*
X142565576Y-80358811D01*
X142367574Y-80251658D01*
X142367572Y-80251657D01*
X142367571Y-80251656D01*
X142154639Y-80178557D01*
X142154630Y-80178555D01*
X142077029Y-80165606D01*
X141932569Y-80141500D01*
X141707431Y-80141500D01*
X141562971Y-80165606D01*
X141485369Y-80178555D01*
X141485360Y-80178557D01*
X141272428Y-80251656D01*
X141272426Y-80251658D01*
X141074426Y-80358810D01*
X141074424Y-80358811D01*
X140896762Y-80497091D01*
X140744279Y-80662729D01*
X140655483Y-80798643D01*
X140601479Y-80844731D01*
X140531131Y-80854306D01*
X140466774Y-80824329D01*
X140444517Y-80798643D01*
X140355720Y-80662729D01*
X140226600Y-80522470D01*
X140203240Y-80497094D01*
X140203239Y-80497093D01*
X140203237Y-80497091D01*
X140083679Y-80404035D01*
X140025576Y-80358811D01*
X139827574Y-80251658D01*
X139827572Y-80251657D01*
X139827571Y-80251656D01*
X139614639Y-80178557D01*
X139614630Y-80178555D01*
X139537029Y-80165606D01*
X139392569Y-80141500D01*
X139167431Y-80141500D01*
X139022971Y-80165606D01*
X138945369Y-80178555D01*
X138945360Y-80178557D01*
X138732428Y-80251656D01*
X138732426Y-80251658D01*
X138534426Y-80358810D01*
X138534424Y-80358811D01*
X138356762Y-80497091D01*
X138204279Y-80662729D01*
X138115183Y-80799101D01*
X138061179Y-80845189D01*
X137990831Y-80854764D01*
X137926474Y-80824786D01*
X137904217Y-80799100D01*
X137815327Y-80663044D01*
X137662902Y-80497465D01*
X137485301Y-80359232D01*
X137485300Y-80359231D01*
X137287371Y-80252117D01*
X137287369Y-80252116D01*
X137074512Y-80179043D01*
X137074501Y-80179040D01*
X136994000Y-80165606D01*
X136994000Y-81069297D01*
X136932993Y-81034075D01*
X136805826Y-81000000D01*
X136674174Y-81000000D01*
X136547007Y-81034075D01*
X136486000Y-81069297D01*
X136486000Y-80165607D01*
X136485999Y-80165606D01*
X136405498Y-80179040D01*
X136405487Y-80179043D01*
X136192630Y-80252116D01*
X136192628Y-80252117D01*
X135994699Y-80359231D01*
X135994698Y-80359232D01*
X135817097Y-80497465D01*
X135664670Y-80663045D01*
X135575780Y-80799101D01*
X135521776Y-80845189D01*
X135451428Y-80854764D01*
X135387071Y-80824786D01*
X135364816Y-80799101D01*
X135283440Y-80674545D01*
X135275724Y-80662734D01*
X135275720Y-80662729D01*
X135146600Y-80522470D01*
X135123240Y-80497094D01*
X135123239Y-80497093D01*
X135123237Y-80497091D01*
X135003679Y-80404035D01*
X134945576Y-80358811D01*
X134747574Y-80251658D01*
X134747572Y-80251657D01*
X134747571Y-80251656D01*
X134534639Y-80178557D01*
X134534630Y-80178555D01*
X134457029Y-80165606D01*
X134312569Y-80141500D01*
X134087431Y-80141500D01*
X133942971Y-80165606D01*
X133865369Y-80178555D01*
X133865360Y-80178557D01*
X133652428Y-80251656D01*
X133652426Y-80251658D01*
X133454426Y-80358810D01*
X133454424Y-80358811D01*
X133276762Y-80497091D01*
X133124279Y-80662729D01*
X133035483Y-80798643D01*
X132981479Y-80844731D01*
X132911131Y-80854306D01*
X132846774Y-80824329D01*
X132824517Y-80798643D01*
X132735720Y-80662729D01*
X132606600Y-80522470D01*
X132583240Y-80497094D01*
X132583239Y-80497093D01*
X132583237Y-80497091D01*
X132463679Y-80404035D01*
X132405576Y-80358811D01*
X132207574Y-80251658D01*
X132207572Y-80251657D01*
X132207571Y-80251656D01*
X131994639Y-80178557D01*
X131994630Y-80178555D01*
X131917029Y-80165606D01*
X131772569Y-80141500D01*
X131547431Y-80141500D01*
X131402971Y-80165606D01*
X131325369Y-80178555D01*
X131325360Y-80178557D01*
X131112428Y-80251656D01*
X131112426Y-80251658D01*
X130914426Y-80358810D01*
X130914424Y-80358811D01*
X130736762Y-80497091D01*
X130584279Y-80662729D01*
X130495483Y-80798643D01*
X130441479Y-80844731D01*
X130371131Y-80854306D01*
X130306774Y-80824329D01*
X130284517Y-80798643D01*
X130195720Y-80662729D01*
X130066600Y-80522470D01*
X130043240Y-80497094D01*
X130043239Y-80497093D01*
X130043237Y-80497091D01*
X129923679Y-80404035D01*
X129865576Y-80358811D01*
X129667574Y-80251658D01*
X129667572Y-80251657D01*
X129667571Y-80251656D01*
X129454639Y-80178557D01*
X129454630Y-80178555D01*
X129377029Y-80165606D01*
X129232569Y-80141500D01*
X129007431Y-80141500D01*
X128862971Y-80165606D01*
X128785369Y-80178555D01*
X128785360Y-80178557D01*
X128572428Y-80251656D01*
X128572426Y-80251658D01*
X128374426Y-80358810D01*
X128374424Y-80358811D01*
X128196762Y-80497091D01*
X128044279Y-80662729D01*
X127955483Y-80798643D01*
X127901479Y-80844731D01*
X127831131Y-80854306D01*
X127766774Y-80824329D01*
X127744517Y-80798643D01*
X127655720Y-80662729D01*
X127526600Y-80522470D01*
X127503240Y-80497094D01*
X127503239Y-80497093D01*
X127503237Y-80497091D01*
X127383679Y-80404035D01*
X127325576Y-80358811D01*
X127127574Y-80251658D01*
X127127572Y-80251657D01*
X127127571Y-80251656D01*
X126914639Y-80178557D01*
X126914630Y-80178555D01*
X126837029Y-80165606D01*
X126692569Y-80141500D01*
X126467431Y-80141500D01*
X126322971Y-80165606D01*
X126245369Y-80178555D01*
X126245360Y-80178557D01*
X126032428Y-80251656D01*
X126032426Y-80251658D01*
X125834426Y-80358810D01*
X125834424Y-80358811D01*
X125656762Y-80497091D01*
X125504279Y-80662729D01*
X125415483Y-80798643D01*
X125361479Y-80844731D01*
X125291131Y-80854306D01*
X125226774Y-80824329D01*
X125204517Y-80798643D01*
X125115720Y-80662729D01*
X124986600Y-80522470D01*
X124963240Y-80497094D01*
X124963239Y-80497093D01*
X124963237Y-80497091D01*
X124843679Y-80404035D01*
X124785576Y-80358811D01*
X124587574Y-80251658D01*
X124587572Y-80251657D01*
X124587571Y-80251656D01*
X124374639Y-80178557D01*
X124374630Y-80178555D01*
X124297029Y-80165606D01*
X124152569Y-80141500D01*
X123927431Y-80141500D01*
X123782971Y-80165606D01*
X123705369Y-80178555D01*
X123705360Y-80178557D01*
X123492428Y-80251656D01*
X123492426Y-80251658D01*
X123294426Y-80358810D01*
X123294424Y-80358811D01*
X123116759Y-80497094D01*
X123055374Y-80563775D01*
X122994521Y-80600346D01*
X122923557Y-80598211D01*
X122865012Y-80558049D01*
X122844618Y-80522470D01*
X122800443Y-80404033D01*
X122712904Y-80287095D01*
X122595965Y-80199555D01*
X122459093Y-80148505D01*
X122398597Y-80142000D01*
X121754000Y-80142000D01*
X121754000Y-81069297D01*
X121692993Y-81034075D01*
X121565826Y-81000000D01*
X121434174Y-81000000D01*
X121307007Y-81034075D01*
X121246000Y-81069297D01*
X121246000Y-80142000D01*
X120601402Y-80142000D01*
X120540906Y-80148505D01*
X120404035Y-80199555D01*
X120404034Y-80199555D01*
X120287095Y-80287095D01*
X120199555Y-80404034D01*
X120199555Y-80404035D01*
X120148505Y-80540906D01*
X120142000Y-80601402D01*
X117065511Y-80601402D01*
X117148827Y-80446285D01*
X117158047Y-80431637D01*
X117310810Y-80222380D01*
X117321967Y-80209121D01*
X117502001Y-80022820D01*
X117514861Y-80011225D01*
X117718785Y-79851382D01*
X117733101Y-79841672D01*
X117957028Y-79711337D01*
X117972552Y-79703678D01*
X118212257Y-79605310D01*
X118228687Y-79599855D01*
X118479608Y-79535325D01*
X118496631Y-79532177D01*
X118755088Y-79502578D01*
X118770295Y-79501764D01*
X118900905Y-79502674D01*
G37*
%TD.AperFunction*%
%TD*%
M02*
