G04 #@! TF.GenerationSoftware,KiCad,Pcbnew,(6.99.0-2815-gbbc0c61ccb)*
G04 #@! TF.CreationDate,2023-01-22T02:42:31+07:00*
G04 #@! TF.ProjectId,ESP32-MODBUS-RS485-SHIELD,45535033-322d-44d4-9f44-4255532d5253,rev?*
G04 #@! TF.SameCoordinates,Original*
G04 #@! TF.FileFunction,Copper,L2,Bot*
G04 #@! TF.FilePolarity,Positive*
%FSLAX46Y46*%
G04 Gerber Fmt 4.6, Leading zero omitted, Abs format (unit mm)*
G04 Created by KiCad (PCBNEW (6.99.0-2815-gbbc0c61ccb)) date 2023-01-22 02:42:31*
%MOMM*%
%LPD*%
G01*
G04 APERTURE LIST*
G04 Aperture macros list*
%AMRoundRect*
0 Rectangle with rounded corners*
0 $1 Rounding radius*
0 $2 $3 $4 $5 $6 $7 $8 $9 X,Y pos of 4 corners*
0 Add a 4 corners polygon primitive as box body*
4,1,4,$2,$3,$4,$5,$6,$7,$8,$9,$2,$3,0*
0 Add four circle primitives for the rounded corners*
1,1,$1+$1,$2,$3*
1,1,$1+$1,$4,$5*
1,1,$1+$1,$6,$7*
1,1,$1+$1,$8,$9*
0 Add four rect primitives between the rounded corners*
20,1,$1+$1,$2,$3,$4,$5,0*
20,1,$1+$1,$4,$5,$6,$7,0*
20,1,$1+$1,$6,$7,$8,$9,0*
20,1,$1+$1,$8,$9,$2,$3,0*%
G04 Aperture macros list end*
G04 #@! TA.AperFunction,ComponentPad*
%ADD10RoundRect,0.250000X1.550000X-0.650000X1.550000X0.650000X-1.550000X0.650000X-1.550000X-0.650000X0*%
G04 #@! TD*
G04 #@! TA.AperFunction,ComponentPad*
%ADD11O,3.600000X1.800000*%
G04 #@! TD*
G04 #@! TA.AperFunction,ComponentPad*
%ADD12R,1.700000X1.700000*%
G04 #@! TD*
G04 #@! TA.AperFunction,ComponentPad*
%ADD13O,1.700000X1.700000*%
G04 #@! TD*
G04 #@! TA.AperFunction,ViaPad*
%ADD14C,0.600000*%
G04 #@! TD*
G04 #@! TA.AperFunction,ViaPad*
%ADD15C,0.800000*%
G04 #@! TD*
G04 #@! TA.AperFunction,Conductor*
%ADD16C,0.381000*%
G04 #@! TD*
G04 #@! TA.AperFunction,Conductor*
%ADD17C,0.203200*%
G04 #@! TD*
G04 #@! TA.AperFunction,Conductor*
%ADD18C,1.016000*%
G04 #@! TD*
G04 APERTURE END LIST*
D10*
X163667500Y-97670000D03*
D11*
X163667499Y-94169999D03*
X163667499Y-90669999D03*
D12*
X121489999Y-106924999D03*
D13*
X124029999Y-106924999D03*
X126569999Y-106924999D03*
X129109999Y-106924999D03*
X131649999Y-106924999D03*
X134189999Y-106924999D03*
X136729999Y-106924999D03*
X139269999Y-106924999D03*
X141809999Y-106924999D03*
X144349999Y-106924999D03*
X146889999Y-106924999D03*
X149429999Y-106924999D03*
X151969999Y-106924999D03*
X154509999Y-106924999D03*
X157049999Y-106924999D03*
X159589999Y-106924999D03*
X162129999Y-106924999D03*
X164669999Y-106924999D03*
X167209999Y-106924999D03*
D12*
X166674999Y-85599999D03*
D13*
X164134999Y-85599999D03*
D12*
X121499999Y-81499999D03*
D13*
X124039999Y-81499999D03*
X126579999Y-81499999D03*
X129119999Y-81499999D03*
X131659999Y-81499999D03*
X134199999Y-81499999D03*
X136739999Y-81499999D03*
X139279999Y-81499999D03*
X141819999Y-81499999D03*
X144359999Y-81499999D03*
X146899999Y-81499999D03*
X149439999Y-81499999D03*
X151979999Y-81499999D03*
X154519999Y-81499999D03*
X157059999Y-81499999D03*
X159599999Y-81499999D03*
X162139999Y-81499999D03*
X164679999Y-81499999D03*
X167219999Y-81499999D03*
D14*
X137050000Y-91350000D03*
X139800000Y-100350000D03*
X140950000Y-89700000D03*
X132750000Y-93000000D03*
X148900000Y-92250000D03*
X153050000Y-92250000D03*
X160800000Y-100400000D03*
X141400000Y-102950000D03*
X134900000Y-104350000D03*
X160800000Y-88450000D03*
X138900000Y-102950000D03*
X147750000Y-101250000D03*
X145400000Y-101250000D03*
X158100000Y-94050000D03*
X135900000Y-91350000D03*
X160950000Y-96100000D03*
X132800000Y-91650000D03*
X140900000Y-92450000D03*
X140050000Y-86800000D03*
X135350000Y-97500000D03*
X132650000Y-99100000D03*
X139000000Y-94950000D03*
X147800000Y-88900000D03*
X146700000Y-92250000D03*
X165450000Y-92400000D03*
X161500000Y-89100000D03*
X153000000Y-103200000D03*
X158300000Y-102700000D03*
X138650000Y-97800000D03*
X132550000Y-104350000D03*
X138650000Y-96750000D03*
X132650000Y-97450000D03*
X153000000Y-100750000D03*
X134100000Y-86700000D03*
X134100000Y-92700000D03*
X134100000Y-97650000D03*
X136250000Y-96500000D03*
X137600000Y-102300000D03*
X138698900Y-90100000D03*
D15*
X148050000Y-86700000D03*
X147000000Y-86700000D03*
D16*
X134100000Y-92700000D02*
X134100000Y-97650000D01*
X134100000Y-86700000D02*
X134100000Y-92700000D01*
D17*
X136400000Y-104055000D02*
X139270000Y-106925000D01*
X136400000Y-96650000D02*
X136400000Y-104055000D01*
X136250000Y-96500000D02*
X136400000Y-96650000D01*
X139300000Y-83250000D02*
X145150000Y-83250000D01*
X138050000Y-96499209D02*
X138050000Y-84500000D01*
X145150000Y-83250000D02*
X146900000Y-81500000D01*
X138050000Y-84500000D02*
X139300000Y-83250000D01*
X137600000Y-96949209D02*
X138050000Y-96499209D01*
X137600000Y-102300000D02*
X137600000Y-96949209D01*
X147286800Y-83653200D02*
X149440000Y-81500000D01*
X139796800Y-83653200D02*
X147286800Y-83653200D01*
X138698900Y-90100000D02*
X138698900Y-84751100D01*
X138698900Y-84751100D02*
X139796800Y-83653200D01*
D18*
X167210000Y-106925000D02*
X167210000Y-89060000D01*
X161150000Y-86700000D02*
X147000000Y-86700000D01*
X167210000Y-89060000D02*
X166450000Y-88300000D01*
X162750000Y-88300000D02*
X161150000Y-86700000D01*
X166450000Y-88300000D02*
X162750000Y-88300000D01*
G04 #@! TA.AperFunction,Conductor*
G36*
X169845922Y-79525498D02*
G01*
X169854083Y-79525768D01*
X169927997Y-79530612D01*
X169933242Y-79530956D01*
X169933977Y-79531006D01*
X169963401Y-79533111D01*
X170111445Y-79543699D01*
X170127038Y-79545799D01*
X170238302Y-79567931D01*
X170240503Y-79568389D01*
X170380117Y-79598760D01*
X170393836Y-79602568D01*
X170507624Y-79641194D01*
X170511155Y-79642451D01*
X170638711Y-79690027D01*
X170650406Y-79695077D01*
X170760600Y-79749418D01*
X170765235Y-79751825D01*
X170882407Y-79815805D01*
X170892017Y-79821624D01*
X170995223Y-79890584D01*
X171000722Y-79894475D01*
X171047492Y-79929487D01*
X171106648Y-79973771D01*
X171114216Y-79979907D01*
X171207935Y-80062096D01*
X171213953Y-80067733D01*
X171307267Y-80161047D01*
X171312904Y-80167065D01*
X171395093Y-80260784D01*
X171401229Y-80268352D01*
X171471343Y-80362012D01*
X171480519Y-80374270D01*
X171484416Y-80379777D01*
X171553376Y-80482983D01*
X171559195Y-80492593D01*
X171623175Y-80609765D01*
X171625582Y-80614400D01*
X171679923Y-80724594D01*
X171684973Y-80736289D01*
X171732549Y-80863845D01*
X171733806Y-80867376D01*
X171772432Y-80981164D01*
X171776240Y-80994883D01*
X171806611Y-81134497D01*
X171807069Y-81136698D01*
X171829201Y-81247962D01*
X171831301Y-81263555D01*
X171843993Y-81441010D01*
X171844044Y-81441758D01*
X171849230Y-81520881D01*
X171849500Y-81529122D01*
X171849500Y-106920878D01*
X171849230Y-106929119D01*
X171844044Y-107008242D01*
X171843993Y-107008990D01*
X171831301Y-107186445D01*
X171829201Y-107202038D01*
X171807069Y-107313302D01*
X171806611Y-107315503D01*
X171776240Y-107455117D01*
X171772432Y-107468836D01*
X171733806Y-107582624D01*
X171732549Y-107586155D01*
X171684973Y-107713711D01*
X171679923Y-107725406D01*
X171625582Y-107835600D01*
X171623175Y-107840235D01*
X171577399Y-107924069D01*
X171559199Y-107957400D01*
X171553376Y-107967017D01*
X171485736Y-108068248D01*
X171484416Y-108070223D01*
X171480525Y-108075722D01*
X171429667Y-108143659D01*
X171401229Y-108181648D01*
X171395093Y-108189216D01*
X171312904Y-108282935D01*
X171307267Y-108288953D01*
X171213953Y-108382267D01*
X171207935Y-108387904D01*
X171114216Y-108470093D01*
X171106648Y-108476229D01*
X171000730Y-108555519D01*
X170995223Y-108559416D01*
X170892017Y-108628376D01*
X170882407Y-108634195D01*
X170765235Y-108698175D01*
X170760600Y-108700582D01*
X170650406Y-108754923D01*
X170638711Y-108759973D01*
X170511155Y-108807549D01*
X170507624Y-108808806D01*
X170393836Y-108847432D01*
X170380117Y-108851240D01*
X170240503Y-108881611D01*
X170238302Y-108882069D01*
X170127038Y-108904201D01*
X170111445Y-108906301D01*
X169963401Y-108916889D01*
X169933977Y-108918994D01*
X169933242Y-108919044D01*
X169854119Y-108924230D01*
X169845878Y-108924500D01*
X118854122Y-108924500D01*
X118845881Y-108924230D01*
X118766758Y-108919044D01*
X118766023Y-108918994D01*
X118736599Y-108916889D01*
X118588555Y-108906301D01*
X118572962Y-108904201D01*
X118461698Y-108882069D01*
X118459497Y-108881611D01*
X118319883Y-108851240D01*
X118306164Y-108847432D01*
X118192376Y-108808806D01*
X118188845Y-108807549D01*
X118061289Y-108759973D01*
X118049594Y-108754923D01*
X117939400Y-108700582D01*
X117934765Y-108698175D01*
X117817593Y-108634195D01*
X117807983Y-108628376D01*
X117704777Y-108559416D01*
X117699270Y-108555519D01*
X117593352Y-108476229D01*
X117585784Y-108470093D01*
X117492065Y-108387904D01*
X117486047Y-108382267D01*
X117392733Y-108288953D01*
X117387096Y-108282935D01*
X117304907Y-108189216D01*
X117298771Y-108181648D01*
X117270333Y-108143659D01*
X117219475Y-108075722D01*
X117215584Y-108070223D01*
X117214265Y-108068248D01*
X117146624Y-107967017D01*
X117140801Y-107957400D01*
X117122601Y-107924069D01*
X117076825Y-107840235D01*
X117074418Y-107835600D01*
X117068519Y-107823638D01*
X120131500Y-107823638D01*
X120138011Y-107884201D01*
X120189111Y-108021204D01*
X120194510Y-108028416D01*
X120194511Y-108028418D01*
X120220390Y-108062988D01*
X120276739Y-108138261D01*
X120393796Y-108225889D01*
X120530799Y-108276989D01*
X120567705Y-108280957D01*
X120588012Y-108283140D01*
X120588015Y-108283140D01*
X120591362Y-108283500D01*
X122388638Y-108283500D01*
X122391985Y-108283140D01*
X122391988Y-108283140D01*
X122412295Y-108280957D01*
X122449201Y-108276989D01*
X122586204Y-108225889D01*
X122703261Y-108138261D01*
X122759610Y-108062988D01*
X122785489Y-108028418D01*
X122785490Y-108028416D01*
X122790889Y-108021204D01*
X122834998Y-107902944D01*
X122877545Y-107846108D01*
X122944065Y-107821297D01*
X123013439Y-107836388D01*
X123045755Y-107861638D01*
X123066526Y-107884201D01*
X123106760Y-107927906D01*
X123284424Y-108066189D01*
X123342085Y-108097393D01*
X123424914Y-108142218D01*
X123482426Y-108173342D01*
X123695365Y-108246444D01*
X123700499Y-108247301D01*
X123700504Y-108247302D01*
X123912294Y-108282643D01*
X123912296Y-108282643D01*
X123917431Y-108283500D01*
X124142569Y-108283500D01*
X124147704Y-108282643D01*
X124147706Y-108282643D01*
X124359496Y-108247302D01*
X124359501Y-108247301D01*
X124364635Y-108246444D01*
X124577574Y-108173342D01*
X124635087Y-108142218D01*
X124717915Y-108097393D01*
X124775576Y-108066189D01*
X124953240Y-107927906D01*
X125037489Y-107836388D01*
X125102194Y-107766101D01*
X125102197Y-107766097D01*
X125105722Y-107762268D01*
X125194517Y-107626357D01*
X125248521Y-107580268D01*
X125318868Y-107570693D01*
X125383226Y-107600670D01*
X125405483Y-107626357D01*
X125494278Y-107762268D01*
X125497803Y-107766097D01*
X125497806Y-107766101D01*
X125562511Y-107836388D01*
X125646760Y-107927906D01*
X125824424Y-108066189D01*
X125882085Y-108097393D01*
X125964914Y-108142218D01*
X126022426Y-108173342D01*
X126235365Y-108246444D01*
X126240499Y-108247301D01*
X126240504Y-108247302D01*
X126452294Y-108282643D01*
X126452296Y-108282643D01*
X126457431Y-108283500D01*
X126682569Y-108283500D01*
X126687704Y-108282643D01*
X126687706Y-108282643D01*
X126899496Y-108247302D01*
X126899501Y-108247301D01*
X126904635Y-108246444D01*
X127117574Y-108173342D01*
X127175087Y-108142218D01*
X127257915Y-108097393D01*
X127315576Y-108066189D01*
X127493240Y-107927906D01*
X127577489Y-107836388D01*
X127642194Y-107766101D01*
X127642197Y-107766097D01*
X127645722Y-107762268D01*
X127734517Y-107626357D01*
X127788521Y-107580268D01*
X127858868Y-107570693D01*
X127923226Y-107600670D01*
X127945483Y-107626357D01*
X128034278Y-107762268D01*
X128037803Y-107766097D01*
X128037806Y-107766101D01*
X128102511Y-107836388D01*
X128186760Y-107927906D01*
X128364424Y-108066189D01*
X128422085Y-108097393D01*
X128504914Y-108142218D01*
X128562426Y-108173342D01*
X128775365Y-108246444D01*
X128780499Y-108247301D01*
X128780504Y-108247302D01*
X128992294Y-108282643D01*
X128992296Y-108282643D01*
X128997431Y-108283500D01*
X129222569Y-108283500D01*
X129227704Y-108282643D01*
X129227706Y-108282643D01*
X129439496Y-108247302D01*
X129439501Y-108247301D01*
X129444635Y-108246444D01*
X129657574Y-108173342D01*
X129715087Y-108142218D01*
X129797915Y-108097393D01*
X129855576Y-108066189D01*
X130033240Y-107927906D01*
X130117489Y-107836388D01*
X130182194Y-107766101D01*
X130182197Y-107766097D01*
X130185722Y-107762268D01*
X130274517Y-107626357D01*
X130328521Y-107580268D01*
X130398868Y-107570693D01*
X130463226Y-107600670D01*
X130485483Y-107626357D01*
X130574278Y-107762268D01*
X130577803Y-107766097D01*
X130577806Y-107766101D01*
X130642511Y-107836388D01*
X130726760Y-107927906D01*
X130904424Y-108066189D01*
X130962085Y-108097393D01*
X131044914Y-108142218D01*
X131102426Y-108173342D01*
X131315365Y-108246444D01*
X131320499Y-108247301D01*
X131320504Y-108247302D01*
X131532294Y-108282643D01*
X131532296Y-108282643D01*
X131537431Y-108283500D01*
X131762569Y-108283500D01*
X131767704Y-108282643D01*
X131767706Y-108282643D01*
X131979496Y-108247302D01*
X131979501Y-108247301D01*
X131984635Y-108246444D01*
X132197574Y-108173342D01*
X132255087Y-108142218D01*
X132337915Y-108097393D01*
X132395576Y-108066189D01*
X132573240Y-107927906D01*
X132657489Y-107836388D01*
X132722194Y-107766101D01*
X132722197Y-107766097D01*
X132725722Y-107762268D01*
X132814517Y-107626357D01*
X132868521Y-107580268D01*
X132938868Y-107570693D01*
X133003226Y-107600670D01*
X133025483Y-107626357D01*
X133114278Y-107762268D01*
X133117803Y-107766097D01*
X133117806Y-107766101D01*
X133182511Y-107836388D01*
X133266760Y-107927906D01*
X133444424Y-108066189D01*
X133502085Y-108097393D01*
X133584914Y-108142218D01*
X133642426Y-108173342D01*
X133855365Y-108246444D01*
X133860499Y-108247301D01*
X133860504Y-108247302D01*
X134072294Y-108282643D01*
X134072296Y-108282643D01*
X134077431Y-108283500D01*
X134302569Y-108283500D01*
X134307704Y-108282643D01*
X134307706Y-108282643D01*
X134519496Y-108247302D01*
X134519501Y-108247301D01*
X134524635Y-108246444D01*
X134737574Y-108173342D01*
X134795087Y-108142218D01*
X134877915Y-108097393D01*
X134935576Y-108066189D01*
X135113240Y-107927906D01*
X135197489Y-107836388D01*
X135262194Y-107766101D01*
X135262197Y-107766097D01*
X135265722Y-107762268D01*
X135354517Y-107626357D01*
X135408521Y-107580268D01*
X135478868Y-107570693D01*
X135543226Y-107600670D01*
X135565483Y-107626357D01*
X135654278Y-107762268D01*
X135657803Y-107766097D01*
X135657806Y-107766101D01*
X135722511Y-107836388D01*
X135806760Y-107927906D01*
X135984424Y-108066189D01*
X136042085Y-108097393D01*
X136124914Y-108142218D01*
X136182426Y-108173342D01*
X136395365Y-108246444D01*
X136400499Y-108247301D01*
X136400504Y-108247302D01*
X136612294Y-108282643D01*
X136612296Y-108282643D01*
X136617431Y-108283500D01*
X136842569Y-108283500D01*
X136847704Y-108282643D01*
X136847706Y-108282643D01*
X137059496Y-108247302D01*
X137059501Y-108247301D01*
X137064635Y-108246444D01*
X137277574Y-108173342D01*
X137335087Y-108142218D01*
X137417915Y-108097393D01*
X137475576Y-108066189D01*
X137653240Y-107927906D01*
X137737489Y-107836388D01*
X137802194Y-107766101D01*
X137802197Y-107766097D01*
X137805722Y-107762268D01*
X137894517Y-107626357D01*
X137948521Y-107580268D01*
X138018868Y-107570693D01*
X138083226Y-107600670D01*
X138105483Y-107626357D01*
X138194278Y-107762268D01*
X138197803Y-107766097D01*
X138197806Y-107766101D01*
X138262511Y-107836388D01*
X138346760Y-107927906D01*
X138524424Y-108066189D01*
X138582085Y-108097393D01*
X138664914Y-108142218D01*
X138722426Y-108173342D01*
X138935365Y-108246444D01*
X138940499Y-108247301D01*
X138940504Y-108247302D01*
X139152294Y-108282643D01*
X139152296Y-108282643D01*
X139157431Y-108283500D01*
X139382569Y-108283500D01*
X139387704Y-108282643D01*
X139387706Y-108282643D01*
X139599496Y-108247302D01*
X139599501Y-108247301D01*
X139604635Y-108246444D01*
X139817574Y-108173342D01*
X139875087Y-108142218D01*
X139957915Y-108097393D01*
X140015576Y-108066189D01*
X140193240Y-107927906D01*
X140277489Y-107836388D01*
X140342194Y-107766101D01*
X140342197Y-107766097D01*
X140345722Y-107762268D01*
X140434517Y-107626357D01*
X140488521Y-107580268D01*
X140558868Y-107570693D01*
X140623226Y-107600670D01*
X140645483Y-107626357D01*
X140734278Y-107762268D01*
X140737803Y-107766097D01*
X140737806Y-107766101D01*
X140802511Y-107836388D01*
X140886760Y-107927906D01*
X141064424Y-108066189D01*
X141122085Y-108097393D01*
X141204914Y-108142218D01*
X141262426Y-108173342D01*
X141475365Y-108246444D01*
X141480499Y-108247301D01*
X141480504Y-108247302D01*
X141692294Y-108282643D01*
X141692296Y-108282643D01*
X141697431Y-108283500D01*
X141922569Y-108283500D01*
X141927704Y-108282643D01*
X141927706Y-108282643D01*
X142139496Y-108247302D01*
X142139501Y-108247301D01*
X142144635Y-108246444D01*
X142357574Y-108173342D01*
X142415087Y-108142218D01*
X142497915Y-108097393D01*
X142555576Y-108066189D01*
X142733240Y-107927906D01*
X142817489Y-107836388D01*
X142882194Y-107766101D01*
X142882197Y-107766097D01*
X142885722Y-107762268D01*
X142974517Y-107626357D01*
X143028521Y-107580268D01*
X143098868Y-107570693D01*
X143163226Y-107600670D01*
X143185483Y-107626357D01*
X143274278Y-107762268D01*
X143277803Y-107766097D01*
X143277806Y-107766101D01*
X143342511Y-107836388D01*
X143426760Y-107927906D01*
X143604424Y-108066189D01*
X143662085Y-108097393D01*
X143744914Y-108142218D01*
X143802426Y-108173342D01*
X144015365Y-108246444D01*
X144020499Y-108247301D01*
X144020504Y-108247302D01*
X144232294Y-108282643D01*
X144232296Y-108282643D01*
X144237431Y-108283500D01*
X144462569Y-108283500D01*
X144467704Y-108282643D01*
X144467706Y-108282643D01*
X144679496Y-108247302D01*
X144679501Y-108247301D01*
X144684635Y-108246444D01*
X144897574Y-108173342D01*
X144955087Y-108142218D01*
X145037915Y-108097393D01*
X145095576Y-108066189D01*
X145273240Y-107927906D01*
X145357489Y-107836388D01*
X145422194Y-107766101D01*
X145422197Y-107766097D01*
X145425722Y-107762268D01*
X145514517Y-107626357D01*
X145568521Y-107580268D01*
X145638868Y-107570693D01*
X145703226Y-107600670D01*
X145725483Y-107626357D01*
X145814278Y-107762268D01*
X145817803Y-107766097D01*
X145817806Y-107766101D01*
X145882511Y-107836388D01*
X145966760Y-107927906D01*
X146144424Y-108066189D01*
X146202085Y-108097393D01*
X146284914Y-108142218D01*
X146342426Y-108173342D01*
X146555365Y-108246444D01*
X146560499Y-108247301D01*
X146560504Y-108247302D01*
X146772294Y-108282643D01*
X146772296Y-108282643D01*
X146777431Y-108283500D01*
X147002569Y-108283500D01*
X147007704Y-108282643D01*
X147007706Y-108282643D01*
X147219496Y-108247302D01*
X147219501Y-108247301D01*
X147224635Y-108246444D01*
X147437574Y-108173342D01*
X147495087Y-108142218D01*
X147577915Y-108097393D01*
X147635576Y-108066189D01*
X147813240Y-107927906D01*
X147897489Y-107836388D01*
X147962194Y-107766101D01*
X147962197Y-107766097D01*
X147965722Y-107762268D01*
X148054517Y-107626357D01*
X148108521Y-107580268D01*
X148178868Y-107570693D01*
X148243226Y-107600670D01*
X148265483Y-107626357D01*
X148354278Y-107762268D01*
X148357803Y-107766097D01*
X148357806Y-107766101D01*
X148422511Y-107836388D01*
X148506760Y-107927906D01*
X148684424Y-108066189D01*
X148742085Y-108097393D01*
X148824914Y-108142218D01*
X148882426Y-108173342D01*
X149095365Y-108246444D01*
X149100499Y-108247301D01*
X149100504Y-108247302D01*
X149312294Y-108282643D01*
X149312296Y-108282643D01*
X149317431Y-108283500D01*
X149542569Y-108283500D01*
X149547704Y-108282643D01*
X149547706Y-108282643D01*
X149759496Y-108247302D01*
X149759501Y-108247301D01*
X149764635Y-108246444D01*
X149977574Y-108173342D01*
X150035087Y-108142218D01*
X150117915Y-108097393D01*
X150175576Y-108066189D01*
X150353240Y-107927906D01*
X150437489Y-107836388D01*
X150502194Y-107766101D01*
X150502197Y-107766097D01*
X150505722Y-107762268D01*
X150594517Y-107626357D01*
X150648521Y-107580268D01*
X150718868Y-107570693D01*
X150783226Y-107600670D01*
X150805483Y-107626357D01*
X150894278Y-107762268D01*
X150897803Y-107766097D01*
X150897806Y-107766101D01*
X150962511Y-107836388D01*
X151046760Y-107927906D01*
X151224424Y-108066189D01*
X151282085Y-108097393D01*
X151364914Y-108142218D01*
X151422426Y-108173342D01*
X151635365Y-108246444D01*
X151640499Y-108247301D01*
X151640504Y-108247302D01*
X151852294Y-108282643D01*
X151852296Y-108282643D01*
X151857431Y-108283500D01*
X152082569Y-108283500D01*
X152087704Y-108282643D01*
X152087706Y-108282643D01*
X152299496Y-108247302D01*
X152299501Y-108247301D01*
X152304635Y-108246444D01*
X152517574Y-108173342D01*
X152575087Y-108142218D01*
X152657915Y-108097393D01*
X152715576Y-108066189D01*
X152893240Y-107927906D01*
X152977489Y-107836388D01*
X153042194Y-107766101D01*
X153042197Y-107766097D01*
X153045722Y-107762268D01*
X153134816Y-107625899D01*
X153188820Y-107579811D01*
X153259168Y-107570236D01*
X153323525Y-107600214D01*
X153345782Y-107625899D01*
X153431823Y-107757593D01*
X153438210Y-107765799D01*
X153583568Y-107923700D01*
X153591211Y-107930737D01*
X153760589Y-108062569D01*
X153769282Y-108068248D01*
X153958043Y-108170401D01*
X153967560Y-108174575D01*
X154170557Y-108244264D01*
X154180627Y-108246815D01*
X154238133Y-108256411D01*
X154251648Y-108254777D01*
X154256000Y-108240551D01*
X154256000Y-105608723D01*
X154252164Y-105595660D01*
X154237416Y-105593709D01*
X154180627Y-105603185D01*
X154170557Y-105605736D01*
X153967560Y-105675425D01*
X153958043Y-105679599D01*
X153769282Y-105781752D01*
X153760589Y-105787431D01*
X153591211Y-105919263D01*
X153583568Y-105926300D01*
X153438210Y-106084201D01*
X153431823Y-106092407D01*
X153345782Y-106224101D01*
X153291778Y-106270189D01*
X153221430Y-106279764D01*
X153157073Y-106249786D01*
X153134816Y-106224101D01*
X153048569Y-106092090D01*
X153045722Y-106087732D01*
X153042197Y-106083903D01*
X153042194Y-106083899D01*
X152896772Y-105925931D01*
X152893240Y-105922094D01*
X152715576Y-105783811D01*
X152517574Y-105676658D01*
X152304635Y-105603556D01*
X152299501Y-105602699D01*
X152299496Y-105602698D01*
X152087706Y-105567357D01*
X152087704Y-105567357D01*
X152082569Y-105566500D01*
X151857431Y-105566500D01*
X151852296Y-105567357D01*
X151852294Y-105567357D01*
X151640504Y-105602698D01*
X151640499Y-105602699D01*
X151635365Y-105603556D01*
X151422426Y-105676658D01*
X151224424Y-105783811D01*
X151046760Y-105922094D01*
X151043228Y-105925931D01*
X150897806Y-106083899D01*
X150897803Y-106083903D01*
X150894278Y-106087732D01*
X150891427Y-106092096D01*
X150805483Y-106223643D01*
X150751479Y-106269732D01*
X150681132Y-106279307D01*
X150616774Y-106249330D01*
X150594517Y-106223643D01*
X150508573Y-106092096D01*
X150505722Y-106087732D01*
X150502197Y-106083903D01*
X150502194Y-106083899D01*
X150356772Y-105925931D01*
X150353240Y-105922094D01*
X150175576Y-105783811D01*
X149977574Y-105676658D01*
X149764635Y-105603556D01*
X149759501Y-105602699D01*
X149759496Y-105602698D01*
X149547706Y-105567357D01*
X149547704Y-105567357D01*
X149542569Y-105566500D01*
X149317431Y-105566500D01*
X149312296Y-105567357D01*
X149312294Y-105567357D01*
X149100504Y-105602698D01*
X149100499Y-105602699D01*
X149095365Y-105603556D01*
X148882426Y-105676658D01*
X148684424Y-105783811D01*
X148506760Y-105922094D01*
X148503228Y-105925931D01*
X148357806Y-106083899D01*
X148357803Y-106083903D01*
X148354278Y-106087732D01*
X148351427Y-106092096D01*
X148265483Y-106223643D01*
X148211479Y-106269732D01*
X148141132Y-106279307D01*
X148076774Y-106249330D01*
X148054517Y-106223643D01*
X147968573Y-106092096D01*
X147965722Y-106087732D01*
X147962197Y-106083903D01*
X147962194Y-106083899D01*
X147816772Y-105925931D01*
X147813240Y-105922094D01*
X147635576Y-105783811D01*
X147437574Y-105676658D01*
X147224635Y-105603556D01*
X147219501Y-105602699D01*
X147219496Y-105602698D01*
X147007706Y-105567357D01*
X147007704Y-105567357D01*
X147002569Y-105566500D01*
X146777431Y-105566500D01*
X146772296Y-105567357D01*
X146772294Y-105567357D01*
X146560504Y-105602698D01*
X146560499Y-105602699D01*
X146555365Y-105603556D01*
X146342426Y-105676658D01*
X146144424Y-105783811D01*
X145966760Y-105922094D01*
X145963228Y-105925931D01*
X145817806Y-106083899D01*
X145817803Y-106083903D01*
X145814278Y-106087732D01*
X145811427Y-106092096D01*
X145725483Y-106223643D01*
X145671479Y-106269732D01*
X145601132Y-106279307D01*
X145536774Y-106249330D01*
X145514517Y-106223643D01*
X145428573Y-106092096D01*
X145425722Y-106087732D01*
X145422197Y-106083903D01*
X145422194Y-106083899D01*
X145276772Y-105925931D01*
X145273240Y-105922094D01*
X145095576Y-105783811D01*
X144897574Y-105676658D01*
X144684635Y-105603556D01*
X144679501Y-105602699D01*
X144679496Y-105602698D01*
X144467706Y-105567357D01*
X144467704Y-105567357D01*
X144462569Y-105566500D01*
X144237431Y-105566500D01*
X144232296Y-105567357D01*
X144232294Y-105567357D01*
X144020504Y-105602698D01*
X144020499Y-105602699D01*
X144015365Y-105603556D01*
X143802426Y-105676658D01*
X143604424Y-105783811D01*
X143426760Y-105922094D01*
X143423228Y-105925931D01*
X143277806Y-106083899D01*
X143277803Y-106083903D01*
X143274278Y-106087732D01*
X143271427Y-106092096D01*
X143185483Y-106223643D01*
X143131479Y-106269732D01*
X143061132Y-106279307D01*
X142996774Y-106249330D01*
X142974517Y-106223643D01*
X142888573Y-106092096D01*
X142885722Y-106087732D01*
X142882197Y-106083903D01*
X142882194Y-106083899D01*
X142736772Y-105925931D01*
X142733240Y-105922094D01*
X142555576Y-105783811D01*
X142357574Y-105676658D01*
X142144635Y-105603556D01*
X142139501Y-105602699D01*
X142139496Y-105602698D01*
X141927706Y-105567357D01*
X141927704Y-105567357D01*
X141922569Y-105566500D01*
X141697431Y-105566500D01*
X141692296Y-105567357D01*
X141692294Y-105567357D01*
X141480504Y-105602698D01*
X141480499Y-105602699D01*
X141475365Y-105603556D01*
X141262426Y-105676658D01*
X141064424Y-105783811D01*
X140886760Y-105922094D01*
X140883228Y-105925931D01*
X140737806Y-106083899D01*
X140737803Y-106083903D01*
X140734278Y-106087732D01*
X140731427Y-106092096D01*
X140645483Y-106223643D01*
X140591479Y-106269732D01*
X140521132Y-106279307D01*
X140456774Y-106249330D01*
X140434517Y-106223643D01*
X140348573Y-106092096D01*
X140345722Y-106087732D01*
X140342197Y-106083903D01*
X140342194Y-106083899D01*
X140196772Y-105925931D01*
X140193240Y-105922094D01*
X140015576Y-105783811D01*
X139817574Y-105676658D01*
X139604635Y-105603556D01*
X139599501Y-105602699D01*
X139599496Y-105602698D01*
X139387706Y-105567357D01*
X139387704Y-105567357D01*
X139382569Y-105566500D01*
X139157431Y-105566500D01*
X139152296Y-105567357D01*
X139152294Y-105567357D01*
X138940504Y-105602698D01*
X138940499Y-105602699D01*
X138935365Y-105603556D01*
X138917447Y-105609707D01*
X138846524Y-105612908D01*
X138787441Y-105579629D01*
X137047005Y-103839193D01*
X137012979Y-103776881D01*
X137010100Y-103750098D01*
X137010100Y-103112178D01*
X137030102Y-103044057D01*
X137083758Y-102997564D01*
X137154032Y-102987460D01*
X137203137Y-103005491D01*
X137246985Y-103033043D01*
X137418953Y-103093217D01*
X137425980Y-103094009D01*
X137425981Y-103094009D01*
X137566814Y-103109877D01*
X137587238Y-103112178D01*
X137592971Y-103112824D01*
X137600000Y-103113616D01*
X137607029Y-103112824D01*
X137612763Y-103112178D01*
X137633186Y-103109877D01*
X137774019Y-103094009D01*
X137774020Y-103094009D01*
X137781047Y-103093217D01*
X137953015Y-103033043D01*
X138107281Y-102936111D01*
X138236111Y-102807281D01*
X138333043Y-102653015D01*
X138393217Y-102481047D01*
X138413616Y-102300000D01*
X138393217Y-102118953D01*
X138333043Y-101946985D01*
X138236111Y-101792719D01*
X138236272Y-101792618D01*
X138210755Y-101730114D01*
X138210100Y-101717284D01*
X138210100Y-97254111D01*
X138230102Y-97185990D01*
X138247005Y-97165015D01*
X138427896Y-96984125D01*
X138435706Y-96977019D01*
X138441983Y-96973035D01*
X138486830Y-96925278D01*
X138489585Y-96922436D01*
X138508547Y-96903474D01*
X138510976Y-96900342D01*
X138511529Y-96899715D01*
X138518510Y-96891542D01*
X138522054Y-96887768D01*
X138547504Y-96860667D01*
X138551711Y-96853015D01*
X138556731Y-96843885D01*
X138567582Y-96827366D01*
X138574456Y-96818504D01*
X138574457Y-96818502D01*
X138579312Y-96812243D01*
X138582459Y-96804971D01*
X138596135Y-96773369D01*
X138601357Y-96762709D01*
X138617948Y-96732531D01*
X138617949Y-96732528D01*
X138621765Y-96725587D01*
X138623735Y-96717914D01*
X138623737Y-96717909D01*
X138626524Y-96707052D01*
X138632930Y-96688340D01*
X138637383Y-96678050D01*
X138640532Y-96670774D01*
X138647159Y-96628931D01*
X138649566Y-96617307D01*
X138658129Y-96583959D01*
X138660100Y-96576283D01*
X138660100Y-96557145D01*
X138661651Y-96537434D01*
X138663406Y-96526353D01*
X138664646Y-96518525D01*
X138660659Y-96476348D01*
X138660100Y-96464490D01*
X138660100Y-91030588D01*
X138680102Y-90962467D01*
X138733758Y-90915974D01*
X138771990Y-90905381D01*
X138848616Y-90896747D01*
X138872919Y-90894009D01*
X138872920Y-90894009D01*
X138879947Y-90893217D01*
X139051915Y-90833043D01*
X139206181Y-90736111D01*
X139335011Y-90607281D01*
X139431943Y-90453015D01*
X139492117Y-90281047D01*
X139494932Y-90256068D01*
X139511724Y-90107029D01*
X139512516Y-90100000D01*
X139492117Y-89918953D01*
X139431943Y-89746985D01*
X139335011Y-89592719D01*
X139335172Y-89592618D01*
X139309655Y-89530114D01*
X139309000Y-89517284D01*
X139309000Y-86700000D01*
X145978582Y-86700000D01*
X145998208Y-86899269D01*
X146056333Y-87090880D01*
X146150722Y-87267469D01*
X146277748Y-87422252D01*
X146432531Y-87549278D01*
X146478457Y-87573826D01*
X146603662Y-87640750D01*
X146603665Y-87640751D01*
X146609120Y-87643667D01*
X146800731Y-87701792D01*
X146856382Y-87707273D01*
X146946986Y-87716197D01*
X146946993Y-87716197D01*
X146950066Y-87716500D01*
X160676762Y-87716500D01*
X160744883Y-87736502D01*
X160765857Y-87753405D01*
X161991532Y-88979080D01*
X161999837Y-88988242D01*
X162027748Y-89022252D01*
X162098856Y-89080609D01*
X162182531Y-89149279D01*
X162199646Y-89158427D01*
X162250292Y-89208180D01*
X162266000Y-89277417D01*
X162241782Y-89344155D01*
X162192146Y-89384361D01*
X162078098Y-89435914D01*
X161879453Y-89570175D01*
X161875584Y-89573883D01*
X161875583Y-89573884D01*
X161710221Y-89732370D01*
X161710217Y-89732374D01*
X161706356Y-89736075D01*
X161563785Y-89928843D01*
X161561378Y-89933618D01*
X161561375Y-89933622D01*
X161508464Y-90038566D01*
X161455843Y-90142933D01*
X161385636Y-90372185D01*
X161355182Y-90610005D01*
X161365357Y-90849551D01*
X161415870Y-91083932D01*
X161505267Y-91306404D01*
X161630976Y-91510569D01*
X161789381Y-91690551D01*
X161855883Y-91744248D01*
X161971758Y-91837812D01*
X161971764Y-91837816D01*
X161975924Y-91841175D01*
X161980593Y-91843783D01*
X161980597Y-91843786D01*
X162130749Y-91927664D01*
X162185240Y-91958105D01*
X162411306Y-92037980D01*
X162416578Y-92038884D01*
X162642350Y-92077597D01*
X162642355Y-92077597D01*
X162647619Y-92078500D01*
X164627327Y-92078500D01*
X164629980Y-92078274D01*
X164629985Y-92078274D01*
X164801067Y-92063713D01*
X164801070Y-92063712D01*
X164806398Y-92063259D01*
X164811573Y-92061911D01*
X164811576Y-92061911D01*
X164922411Y-92033051D01*
X165038424Y-92002844D01*
X165256902Y-91904086D01*
X165455547Y-91769825D01*
X165542458Y-91686528D01*
X165624779Y-91607630D01*
X165624783Y-91607626D01*
X165628644Y-91603925D01*
X165771215Y-91411157D01*
X165824031Y-91306404D01*
X165876747Y-91201847D01*
X165879157Y-91197067D01*
X165947023Y-90975459D01*
X165986095Y-90916181D01*
X166051013Y-90887437D01*
X166121165Y-90898354D01*
X166174279Y-90945465D01*
X166193500Y-91012354D01*
X166193500Y-93846441D01*
X166173498Y-93914562D01*
X166119842Y-93961055D01*
X166049568Y-93971159D01*
X165984988Y-93941665D01*
X165946604Y-93881939D01*
X165944328Y-93872987D01*
X165920258Y-93761303D01*
X165919130Y-93756068D01*
X165829733Y-93533596D01*
X165704024Y-93329431D01*
X165545619Y-93149449D01*
X165447441Y-93070175D01*
X165363242Y-93002188D01*
X165363236Y-93002184D01*
X165359076Y-92998825D01*
X165354407Y-92996217D01*
X165354403Y-92996214D01*
X165154439Y-92884509D01*
X165149760Y-92881895D01*
X164923694Y-92802020D01*
X164918422Y-92801116D01*
X164692650Y-92762403D01*
X164692645Y-92762403D01*
X164687381Y-92761500D01*
X162707673Y-92761500D01*
X162705020Y-92761726D01*
X162705015Y-92761726D01*
X162533933Y-92776287D01*
X162533930Y-92776288D01*
X162528602Y-92776741D01*
X162523427Y-92778089D01*
X162523424Y-92778089D01*
X162412589Y-92806948D01*
X162296576Y-92837156D01*
X162078098Y-92935914D01*
X161879453Y-93070175D01*
X161875584Y-93073883D01*
X161875583Y-93073884D01*
X161710221Y-93232370D01*
X161710217Y-93232374D01*
X161706356Y-93236075D01*
X161563785Y-93428843D01*
X161561378Y-93433618D01*
X161561375Y-93433622D01*
X161508464Y-93538566D01*
X161455843Y-93642933D01*
X161385636Y-93872185D01*
X161355182Y-94110005D01*
X161365357Y-94349551D01*
X161415870Y-94583932D01*
X161505267Y-94806404D01*
X161630976Y-95010569D01*
X161789381Y-95190551D01*
X161855883Y-95244248D01*
X161971758Y-95337812D01*
X161971764Y-95337816D01*
X161975924Y-95341175D01*
X161980593Y-95343783D01*
X161980597Y-95343786D01*
X162130749Y-95427664D01*
X162185240Y-95458105D01*
X162411306Y-95537980D01*
X162416578Y-95538884D01*
X162642350Y-95577597D01*
X162642355Y-95577597D01*
X162647619Y-95578500D01*
X164627327Y-95578500D01*
X164629980Y-95578274D01*
X164629985Y-95578274D01*
X164801067Y-95563713D01*
X164801070Y-95563712D01*
X164806398Y-95563259D01*
X164811573Y-95561911D01*
X164811576Y-95561911D01*
X164922411Y-95533051D01*
X165038424Y-95502844D01*
X165256902Y-95404086D01*
X165455547Y-95269825D01*
X165542458Y-95186528D01*
X165624779Y-95107630D01*
X165624783Y-95107626D01*
X165628644Y-95103925D01*
X165771215Y-94911157D01*
X165824031Y-94806404D01*
X165876747Y-94701847D01*
X165879157Y-94697067D01*
X165947023Y-94475459D01*
X165986095Y-94416181D01*
X166051013Y-94387437D01*
X166121165Y-94398354D01*
X166174279Y-94445465D01*
X166193500Y-94512354D01*
X166193500Y-96773154D01*
X166173498Y-96841275D01*
X166119842Y-96887768D01*
X166049568Y-96897872D01*
X165984988Y-96868378D01*
X165947895Y-96812786D01*
X165947715Y-96812243D01*
X165909615Y-96697262D01*
X165816530Y-96546348D01*
X165691152Y-96420970D01*
X165540238Y-96327885D01*
X165476693Y-96306829D01*
X165378452Y-96274275D01*
X165378448Y-96274274D01*
X165371926Y-96272113D01*
X165365092Y-96271415D01*
X165365088Y-96271414D01*
X165271229Y-96261825D01*
X165271223Y-96261825D01*
X165268045Y-96261500D01*
X163667750Y-96261500D01*
X162066956Y-96261501D01*
X162063779Y-96261826D01*
X162063770Y-96261826D01*
X162015033Y-96266805D01*
X161963074Y-96272113D01*
X161794762Y-96327885D01*
X161643848Y-96420970D01*
X161518470Y-96546348D01*
X161425385Y-96697262D01*
X161417511Y-96721024D01*
X161373775Y-96853015D01*
X161369613Y-96865574D01*
X161368915Y-96872408D01*
X161368914Y-96872412D01*
X161363659Y-96923850D01*
X161359000Y-96969455D01*
X161359001Y-98370544D01*
X161359326Y-98373721D01*
X161359326Y-98373730D01*
X161364305Y-98422467D01*
X161369613Y-98474426D01*
X161425385Y-98642738D01*
X161518470Y-98793652D01*
X161643848Y-98919030D01*
X161794762Y-99012115D01*
X161858307Y-99033171D01*
X161956548Y-99065725D01*
X161956552Y-99065726D01*
X161963074Y-99067887D01*
X161969908Y-99068585D01*
X161969912Y-99068586D01*
X162063771Y-99078175D01*
X162063777Y-99078175D01*
X162066955Y-99078500D01*
X163667250Y-99078500D01*
X165268044Y-99078499D01*
X165271221Y-99078174D01*
X165271230Y-99078174D01*
X165319967Y-99073195D01*
X165371926Y-99067887D01*
X165540238Y-99012115D01*
X165691152Y-98919030D01*
X165816530Y-98793652D01*
X165909615Y-98642738D01*
X165947895Y-98527214D01*
X165988309Y-98468842D01*
X166053865Y-98441586D01*
X166123750Y-98454099D01*
X166175776Y-98502408D01*
X166193500Y-98566846D01*
X166193500Y-105974234D01*
X166173498Y-106042355D01*
X166160201Y-106059571D01*
X166137812Y-106083892D01*
X166137807Y-106083899D01*
X166134278Y-106087732D01*
X166131427Y-106092096D01*
X166045483Y-106223643D01*
X165991479Y-106269732D01*
X165921132Y-106279307D01*
X165856774Y-106249330D01*
X165834517Y-106223643D01*
X165748573Y-106092096D01*
X165745722Y-106087732D01*
X165742197Y-106083903D01*
X165742194Y-106083899D01*
X165596772Y-105925931D01*
X165593240Y-105922094D01*
X165415576Y-105783811D01*
X165217574Y-105676658D01*
X165004635Y-105603556D01*
X164999501Y-105602699D01*
X164999496Y-105602698D01*
X164787706Y-105567357D01*
X164787704Y-105567357D01*
X164782569Y-105566500D01*
X164557431Y-105566500D01*
X164552296Y-105567357D01*
X164552294Y-105567357D01*
X164340504Y-105602698D01*
X164340499Y-105602699D01*
X164335365Y-105603556D01*
X164122426Y-105676658D01*
X163924424Y-105783811D01*
X163746760Y-105922094D01*
X163743228Y-105925931D01*
X163597806Y-106083899D01*
X163597803Y-106083903D01*
X163594278Y-106087732D01*
X163591427Y-106092096D01*
X163505483Y-106223643D01*
X163451479Y-106269732D01*
X163381132Y-106279307D01*
X163316774Y-106249330D01*
X163294517Y-106223643D01*
X163208573Y-106092096D01*
X163205722Y-106087732D01*
X163202197Y-106083903D01*
X163202194Y-106083899D01*
X163056772Y-105925931D01*
X163053240Y-105922094D01*
X162875576Y-105783811D01*
X162677574Y-105676658D01*
X162464635Y-105603556D01*
X162459501Y-105602699D01*
X162459496Y-105602698D01*
X162247706Y-105567357D01*
X162247704Y-105567357D01*
X162242569Y-105566500D01*
X162017431Y-105566500D01*
X162012296Y-105567357D01*
X162012294Y-105567357D01*
X161800504Y-105602698D01*
X161800499Y-105602699D01*
X161795365Y-105603556D01*
X161582426Y-105676658D01*
X161384424Y-105783811D01*
X161206760Y-105922094D01*
X161203228Y-105925931D01*
X161057806Y-106083899D01*
X161057803Y-106083903D01*
X161054278Y-106087732D01*
X161051427Y-106092096D01*
X160965483Y-106223643D01*
X160911479Y-106269732D01*
X160841132Y-106279307D01*
X160776774Y-106249330D01*
X160754517Y-106223643D01*
X160668573Y-106092096D01*
X160665722Y-106087732D01*
X160662197Y-106083903D01*
X160662194Y-106083899D01*
X160516772Y-105925931D01*
X160513240Y-105922094D01*
X160335576Y-105783811D01*
X160137574Y-105676658D01*
X159924635Y-105603556D01*
X159919501Y-105602699D01*
X159919496Y-105602698D01*
X159707706Y-105567357D01*
X159707704Y-105567357D01*
X159702569Y-105566500D01*
X159477431Y-105566500D01*
X159472296Y-105567357D01*
X159472294Y-105567357D01*
X159260504Y-105602698D01*
X159260499Y-105602699D01*
X159255365Y-105603556D01*
X159042426Y-105676658D01*
X158844424Y-105783811D01*
X158666760Y-105922094D01*
X158663228Y-105925931D01*
X158517806Y-106083899D01*
X158517803Y-106083903D01*
X158514278Y-106087732D01*
X158511427Y-106092096D01*
X158425483Y-106223643D01*
X158371479Y-106269732D01*
X158301132Y-106279307D01*
X158236774Y-106249330D01*
X158214517Y-106223643D01*
X158128573Y-106092096D01*
X158125722Y-106087732D01*
X158122197Y-106083903D01*
X158122194Y-106083899D01*
X157976772Y-105925931D01*
X157973240Y-105922094D01*
X157795576Y-105783811D01*
X157597574Y-105676658D01*
X157384635Y-105603556D01*
X157379501Y-105602699D01*
X157379496Y-105602698D01*
X157167706Y-105567357D01*
X157167704Y-105567357D01*
X157162569Y-105566500D01*
X156937431Y-105566500D01*
X156932296Y-105567357D01*
X156932294Y-105567357D01*
X156720504Y-105602698D01*
X156720499Y-105602699D01*
X156715365Y-105603556D01*
X156502426Y-105676658D01*
X156304424Y-105783811D01*
X156126760Y-105922094D01*
X156123228Y-105925931D01*
X155977806Y-106083899D01*
X155977803Y-106083903D01*
X155974278Y-106087732D01*
X155971431Y-106092090D01*
X155885184Y-106224101D01*
X155831180Y-106270189D01*
X155760832Y-106279764D01*
X155696475Y-106249786D01*
X155674218Y-106224101D01*
X155588177Y-106092407D01*
X155581790Y-106084201D01*
X155436432Y-105926300D01*
X155428789Y-105919263D01*
X155259411Y-105787431D01*
X155250718Y-105781752D01*
X155061957Y-105679599D01*
X155052440Y-105675425D01*
X154849443Y-105605736D01*
X154839373Y-105603185D01*
X154781867Y-105593589D01*
X154768352Y-105595223D01*
X154764000Y-105609449D01*
X154764000Y-108241277D01*
X154767836Y-108254340D01*
X154782584Y-108256291D01*
X154839373Y-108246815D01*
X154849443Y-108244264D01*
X155052440Y-108174575D01*
X155061957Y-108170401D01*
X155250718Y-108068248D01*
X155259411Y-108062569D01*
X155428789Y-107930737D01*
X155436432Y-107923700D01*
X155581790Y-107765799D01*
X155588177Y-107757593D01*
X155674218Y-107625899D01*
X155728222Y-107579811D01*
X155798570Y-107570236D01*
X155862927Y-107600214D01*
X155885183Y-107625898D01*
X155974278Y-107762268D01*
X155977803Y-107766097D01*
X155977806Y-107766101D01*
X156042511Y-107836388D01*
X156126760Y-107927906D01*
X156304424Y-108066189D01*
X156362085Y-108097393D01*
X156444914Y-108142218D01*
X156502426Y-108173342D01*
X156715365Y-108246444D01*
X156720499Y-108247301D01*
X156720504Y-108247302D01*
X156932294Y-108282643D01*
X156932296Y-108282643D01*
X156937431Y-108283500D01*
X157162569Y-108283500D01*
X157167704Y-108282643D01*
X157167706Y-108282643D01*
X157379496Y-108247302D01*
X157379501Y-108247301D01*
X157384635Y-108246444D01*
X157597574Y-108173342D01*
X157655087Y-108142218D01*
X157737915Y-108097393D01*
X157795576Y-108066189D01*
X157973240Y-107927906D01*
X158057489Y-107836388D01*
X158122194Y-107766101D01*
X158122197Y-107766097D01*
X158125722Y-107762268D01*
X158214517Y-107626357D01*
X158268521Y-107580268D01*
X158338868Y-107570693D01*
X158403226Y-107600670D01*
X158425483Y-107626357D01*
X158514278Y-107762268D01*
X158517803Y-107766097D01*
X158517806Y-107766101D01*
X158582511Y-107836388D01*
X158666760Y-107927906D01*
X158844424Y-108066189D01*
X158902085Y-108097393D01*
X158984914Y-108142218D01*
X159042426Y-108173342D01*
X159255365Y-108246444D01*
X159260499Y-108247301D01*
X159260504Y-108247302D01*
X159472294Y-108282643D01*
X159472296Y-108282643D01*
X159477431Y-108283500D01*
X159702569Y-108283500D01*
X159707704Y-108282643D01*
X159707706Y-108282643D01*
X159919496Y-108247302D01*
X159919501Y-108247301D01*
X159924635Y-108246444D01*
X160137574Y-108173342D01*
X160195087Y-108142218D01*
X160277915Y-108097393D01*
X160335576Y-108066189D01*
X160513240Y-107927906D01*
X160597489Y-107836388D01*
X160662194Y-107766101D01*
X160662197Y-107766097D01*
X160665722Y-107762268D01*
X160754517Y-107626357D01*
X160808521Y-107580268D01*
X160878868Y-107570693D01*
X160943226Y-107600670D01*
X160965483Y-107626357D01*
X161054278Y-107762268D01*
X161057803Y-107766097D01*
X161057806Y-107766101D01*
X161122511Y-107836388D01*
X161206760Y-107927906D01*
X161384424Y-108066189D01*
X161442085Y-108097393D01*
X161524914Y-108142218D01*
X161582426Y-108173342D01*
X161795365Y-108246444D01*
X161800499Y-108247301D01*
X161800504Y-108247302D01*
X162012294Y-108282643D01*
X162012296Y-108282643D01*
X162017431Y-108283500D01*
X162242569Y-108283500D01*
X162247704Y-108282643D01*
X162247706Y-108282643D01*
X162459496Y-108247302D01*
X162459501Y-108247301D01*
X162464635Y-108246444D01*
X162677574Y-108173342D01*
X162735087Y-108142218D01*
X162817915Y-108097393D01*
X162875576Y-108066189D01*
X163053240Y-107927906D01*
X163137489Y-107836388D01*
X163202194Y-107766101D01*
X163202197Y-107766097D01*
X163205722Y-107762268D01*
X163294517Y-107626357D01*
X163348521Y-107580268D01*
X163418868Y-107570693D01*
X163483226Y-107600670D01*
X163505483Y-107626357D01*
X163594278Y-107762268D01*
X163597803Y-107766097D01*
X163597806Y-107766101D01*
X163662511Y-107836388D01*
X163746760Y-107927906D01*
X163924424Y-108066189D01*
X163982085Y-108097393D01*
X164064914Y-108142218D01*
X164122426Y-108173342D01*
X164335365Y-108246444D01*
X164340499Y-108247301D01*
X164340504Y-108247302D01*
X164552294Y-108282643D01*
X164552296Y-108282643D01*
X164557431Y-108283500D01*
X164782569Y-108283500D01*
X164787704Y-108282643D01*
X164787706Y-108282643D01*
X164999496Y-108247302D01*
X164999501Y-108247301D01*
X165004635Y-108246444D01*
X165217574Y-108173342D01*
X165275087Y-108142218D01*
X165357915Y-108097393D01*
X165415576Y-108066189D01*
X165593240Y-107927906D01*
X165677489Y-107836388D01*
X165742194Y-107766101D01*
X165742197Y-107766097D01*
X165745722Y-107762268D01*
X165834517Y-107626357D01*
X165888521Y-107580268D01*
X165958868Y-107570693D01*
X166023226Y-107600670D01*
X166045483Y-107626357D01*
X166134278Y-107762268D01*
X166137803Y-107766097D01*
X166137806Y-107766101D01*
X166202511Y-107836388D01*
X166286760Y-107927906D01*
X166464424Y-108066189D01*
X166522085Y-108097393D01*
X166604914Y-108142218D01*
X166662426Y-108173342D01*
X166875365Y-108246444D01*
X166880499Y-108247301D01*
X166880504Y-108247302D01*
X167092294Y-108282643D01*
X167092296Y-108282643D01*
X167097431Y-108283500D01*
X167322569Y-108283500D01*
X167327704Y-108282643D01*
X167327706Y-108282643D01*
X167539496Y-108247302D01*
X167539501Y-108247301D01*
X167544635Y-108246444D01*
X167757574Y-108173342D01*
X167815087Y-108142218D01*
X167897915Y-108097393D01*
X167955576Y-108066189D01*
X168133240Y-107927906D01*
X168217489Y-107836388D01*
X168282194Y-107766101D01*
X168282197Y-107766097D01*
X168285722Y-107762268D01*
X168391299Y-107600670D01*
X168406008Y-107578157D01*
X168406010Y-107578153D01*
X168408860Y-107573791D01*
X168499296Y-107367616D01*
X168554564Y-107149368D01*
X168573156Y-106925000D01*
X168554564Y-106700632D01*
X168499296Y-106482384D01*
X168408860Y-106276209D01*
X168404629Y-106269732D01*
X168288573Y-106092096D01*
X168285722Y-106087732D01*
X168282193Y-106083899D01*
X168282188Y-106083892D01*
X168259799Y-106059571D01*
X168228378Y-105995906D01*
X168226500Y-105974234D01*
X168226500Y-89116119D01*
X168227107Y-89103768D01*
X168230811Y-89066163D01*
X168231418Y-89060000D01*
X168223880Y-88983465D01*
X168211792Y-88860731D01*
X168153667Y-88669120D01*
X168062880Y-88499269D01*
X168059278Y-88492530D01*
X168002922Y-88423861D01*
X167932252Y-88337748D01*
X167898242Y-88309837D01*
X167889080Y-88301532D01*
X167208466Y-87620918D01*
X167200161Y-87611755D01*
X167176178Y-87582531D01*
X167176174Y-87582527D01*
X167172252Y-87577748D01*
X167017469Y-87450722D01*
X166937739Y-87408105D01*
X166846338Y-87359250D01*
X166846335Y-87359249D01*
X166840880Y-87356333D01*
X166649269Y-87298208D01*
X166549720Y-87288403D01*
X166450000Y-87278581D01*
X166443838Y-87279188D01*
X166406223Y-87282893D01*
X166393872Y-87283500D01*
X163223238Y-87283500D01*
X163155117Y-87263498D01*
X163134143Y-87246595D01*
X161908468Y-86020920D01*
X161900163Y-86011758D01*
X161876174Y-85982527D01*
X161872252Y-85977748D01*
X161717469Y-85850722D01*
X161637739Y-85808105D01*
X161546338Y-85759250D01*
X161546335Y-85759249D01*
X161540880Y-85756333D01*
X161349269Y-85698208D01*
X161249720Y-85688403D01*
X161156163Y-85679188D01*
X161150000Y-85678581D01*
X161143838Y-85679188D01*
X161106223Y-85682893D01*
X161093872Y-85683500D01*
X146950066Y-85683500D01*
X146946993Y-85683803D01*
X146946986Y-85683803D01*
X146856382Y-85692727D01*
X146800731Y-85698208D01*
X146609120Y-85756333D01*
X146603665Y-85759249D01*
X146603662Y-85759250D01*
X146512261Y-85808105D01*
X146432531Y-85850722D01*
X146277748Y-85977748D01*
X146150722Y-86132531D01*
X146147806Y-86137987D01*
X146088580Y-86248791D01*
X146056333Y-86309120D01*
X145998208Y-86500731D01*
X145978582Y-86700000D01*
X139309000Y-86700000D01*
X139309000Y-85600000D01*
X162771844Y-85600000D01*
X162772274Y-85605189D01*
X162779932Y-85697601D01*
X162790436Y-85824368D01*
X162791717Y-85829426D01*
X162791717Y-85829427D01*
X162826545Y-85966957D01*
X162845704Y-86042616D01*
X162936140Y-86248791D01*
X162938990Y-86253153D01*
X162938992Y-86253157D01*
X163028448Y-86390079D01*
X163059278Y-86437268D01*
X163062803Y-86441097D01*
X163062806Y-86441101D01*
X163128327Y-86512275D01*
X163211760Y-86602906D01*
X163215879Y-86606112D01*
X163345536Y-86707029D01*
X163389424Y-86741189D01*
X163587426Y-86848342D01*
X163800365Y-86921444D01*
X163805499Y-86922301D01*
X163805504Y-86922302D01*
X164017294Y-86957643D01*
X164017296Y-86957643D01*
X164022431Y-86958500D01*
X164247569Y-86958500D01*
X164252704Y-86957643D01*
X164252706Y-86957643D01*
X164464496Y-86922302D01*
X164464501Y-86922301D01*
X164469635Y-86921444D01*
X164682574Y-86848342D01*
X164880576Y-86741189D01*
X164924465Y-86707029D01*
X165054121Y-86606112D01*
X165058240Y-86602906D01*
X165098474Y-86559201D01*
X165119245Y-86536638D01*
X165180099Y-86500067D01*
X165251063Y-86502202D01*
X165309608Y-86542364D01*
X165330002Y-86577943D01*
X165374111Y-86696204D01*
X165379510Y-86703416D01*
X165379511Y-86703418D01*
X165405390Y-86737988D01*
X165461739Y-86813261D01*
X165578796Y-86900889D01*
X165715799Y-86951989D01*
X165752705Y-86955957D01*
X165773012Y-86958140D01*
X165773015Y-86958140D01*
X165776362Y-86958500D01*
X167573638Y-86958500D01*
X167576985Y-86958140D01*
X167576988Y-86958140D01*
X167597295Y-86955957D01*
X167634201Y-86951989D01*
X167771204Y-86900889D01*
X167888261Y-86813261D01*
X167944610Y-86737988D01*
X167970489Y-86703418D01*
X167970490Y-86703416D01*
X167975889Y-86696204D01*
X168026989Y-86559201D01*
X168033500Y-86498638D01*
X168033500Y-84701362D01*
X168026989Y-84640799D01*
X167975889Y-84503796D01*
X167944433Y-84461775D01*
X167893659Y-84393950D01*
X167888261Y-84386739D01*
X167810376Y-84328435D01*
X167778418Y-84304511D01*
X167778416Y-84304510D01*
X167771204Y-84299111D01*
X167634201Y-84248011D01*
X167597295Y-84244043D01*
X167576988Y-84241860D01*
X167576985Y-84241860D01*
X167573638Y-84241500D01*
X165776362Y-84241500D01*
X165773015Y-84241860D01*
X165773012Y-84241860D01*
X165752705Y-84244043D01*
X165715799Y-84248011D01*
X165578796Y-84299111D01*
X165571584Y-84304510D01*
X165571582Y-84304511D01*
X165539624Y-84328435D01*
X165461739Y-84386739D01*
X165456341Y-84393950D01*
X165405568Y-84461775D01*
X165374111Y-84503796D01*
X165370963Y-84512237D01*
X165370962Y-84512239D01*
X165330002Y-84622056D01*
X165287455Y-84678892D01*
X165220935Y-84703703D01*
X165151561Y-84688612D01*
X165119245Y-84663362D01*
X165061772Y-84600931D01*
X165058240Y-84597094D01*
X164978102Y-84534719D01*
X164884689Y-84462012D01*
X164884687Y-84462010D01*
X164880576Y-84458811D01*
X164727822Y-84376145D01*
X164687159Y-84354139D01*
X164687156Y-84354138D01*
X164682574Y-84351658D01*
X164469635Y-84278556D01*
X164464501Y-84277699D01*
X164464496Y-84277698D01*
X164252706Y-84242357D01*
X164252704Y-84242357D01*
X164247569Y-84241500D01*
X164022431Y-84241500D01*
X164017296Y-84242357D01*
X164017294Y-84242357D01*
X163805504Y-84277698D01*
X163805499Y-84277699D01*
X163800365Y-84278556D01*
X163587426Y-84351658D01*
X163582844Y-84354138D01*
X163582841Y-84354139D01*
X163542178Y-84376145D01*
X163389424Y-84458811D01*
X163385313Y-84462010D01*
X163385311Y-84462012D01*
X163291898Y-84534719D01*
X163211760Y-84597094D01*
X163208228Y-84600931D01*
X163062806Y-84758899D01*
X163062803Y-84758903D01*
X163059278Y-84762732D01*
X163056427Y-84767096D01*
X162953500Y-84924638D01*
X162936140Y-84951209D01*
X162934048Y-84955978D01*
X162934046Y-84955982D01*
X162920054Y-84987881D01*
X162845704Y-85157384D01*
X162790436Y-85375632D01*
X162771844Y-85600000D01*
X139309000Y-85600000D01*
X139309000Y-85056002D01*
X139329002Y-84987881D01*
X139345905Y-84966906D01*
X140012608Y-84300204D01*
X140074920Y-84266179D01*
X140101703Y-84263300D01*
X147211122Y-84263300D01*
X147221674Y-84263798D01*
X147228928Y-84265419D01*
X147294395Y-84263362D01*
X147298352Y-84263300D01*
X147325183Y-84263300D01*
X147329110Y-84262804D01*
X147330016Y-84262747D01*
X147340660Y-84261908D01*
X147382999Y-84260578D01*
X147401386Y-84255236D01*
X147420743Y-84251228D01*
X147431865Y-84249823D01*
X147431866Y-84249823D01*
X147439732Y-84248829D01*
X147457334Y-84241860D01*
X147479118Y-84233236D01*
X147490345Y-84229392D01*
X147523409Y-84219785D01*
X147523411Y-84219784D01*
X147531025Y-84217572D01*
X147547505Y-84207826D01*
X147565245Y-84199135D01*
X147583054Y-84192084D01*
X147617332Y-84167180D01*
X147627252Y-84160664D01*
X147656879Y-84143143D01*
X147656882Y-84143141D01*
X147663706Y-84139105D01*
X147677233Y-84125578D01*
X147692267Y-84112737D01*
X147701347Y-84106140D01*
X147701348Y-84106139D01*
X147707762Y-84101479D01*
X147734774Y-84068827D01*
X147742763Y-84060048D01*
X148957441Y-82845371D01*
X149019753Y-82811345D01*
X149087447Y-82815293D01*
X149105365Y-82821444D01*
X149110499Y-82822301D01*
X149110504Y-82822302D01*
X149322294Y-82857643D01*
X149322296Y-82857643D01*
X149327431Y-82858500D01*
X149552569Y-82858500D01*
X149557704Y-82857643D01*
X149557706Y-82857643D01*
X149769496Y-82822302D01*
X149769501Y-82822301D01*
X149774635Y-82821444D01*
X149987574Y-82748342D01*
X150043084Y-82718302D01*
X150180995Y-82643668D01*
X150185576Y-82641189D01*
X150212931Y-82619898D01*
X150359121Y-82506112D01*
X150363240Y-82502906D01*
X150447869Y-82410975D01*
X150512194Y-82341101D01*
X150512197Y-82341097D01*
X150515722Y-82337268D01*
X150604517Y-82201357D01*
X150658521Y-82155268D01*
X150728868Y-82145693D01*
X150793226Y-82175670D01*
X150815483Y-82201357D01*
X150904278Y-82337268D01*
X150907803Y-82341097D01*
X150907806Y-82341101D01*
X150972131Y-82410975D01*
X151056760Y-82502906D01*
X151060879Y-82506112D01*
X151207070Y-82619898D01*
X151234424Y-82641189D01*
X151239005Y-82643668D01*
X151376917Y-82718302D01*
X151432426Y-82748342D01*
X151645365Y-82821444D01*
X151650499Y-82822301D01*
X151650504Y-82822302D01*
X151862294Y-82857643D01*
X151862296Y-82857643D01*
X151867431Y-82858500D01*
X152092569Y-82858500D01*
X152097704Y-82857643D01*
X152097706Y-82857643D01*
X152309496Y-82822302D01*
X152309501Y-82822301D01*
X152314635Y-82821444D01*
X152527574Y-82748342D01*
X152583084Y-82718302D01*
X152720995Y-82643668D01*
X152725576Y-82641189D01*
X152752931Y-82619898D01*
X152899121Y-82506112D01*
X152903240Y-82502906D01*
X152987869Y-82410975D01*
X153052194Y-82341101D01*
X153052197Y-82341097D01*
X153055722Y-82337268D01*
X153144517Y-82201357D01*
X153198521Y-82155268D01*
X153268868Y-82145693D01*
X153333226Y-82175670D01*
X153355483Y-82201357D01*
X153444278Y-82337268D01*
X153447803Y-82341097D01*
X153447806Y-82341101D01*
X153512131Y-82410975D01*
X153596760Y-82502906D01*
X153600879Y-82506112D01*
X153747070Y-82619898D01*
X153774424Y-82641189D01*
X153779005Y-82643668D01*
X153916917Y-82718302D01*
X153972426Y-82748342D01*
X154185365Y-82821444D01*
X154190499Y-82822301D01*
X154190504Y-82822302D01*
X154402294Y-82857643D01*
X154402296Y-82857643D01*
X154407431Y-82858500D01*
X154632569Y-82858500D01*
X154637704Y-82857643D01*
X154637706Y-82857643D01*
X154849496Y-82822302D01*
X154849501Y-82822301D01*
X154854635Y-82821444D01*
X155067574Y-82748342D01*
X155123084Y-82718302D01*
X155260995Y-82643668D01*
X155265576Y-82641189D01*
X155292931Y-82619898D01*
X155439121Y-82506112D01*
X155443240Y-82502906D01*
X155527869Y-82410975D01*
X155592194Y-82341101D01*
X155592197Y-82341097D01*
X155595722Y-82337268D01*
X155684517Y-82201357D01*
X155738521Y-82155268D01*
X155808868Y-82145693D01*
X155873226Y-82175670D01*
X155895483Y-82201357D01*
X155984278Y-82337268D01*
X155987803Y-82341097D01*
X155987806Y-82341101D01*
X156052131Y-82410975D01*
X156136760Y-82502906D01*
X156140879Y-82506112D01*
X156287070Y-82619898D01*
X156314424Y-82641189D01*
X156319005Y-82643668D01*
X156456917Y-82718302D01*
X156512426Y-82748342D01*
X156725365Y-82821444D01*
X156730499Y-82822301D01*
X156730504Y-82822302D01*
X156942294Y-82857643D01*
X156942296Y-82857643D01*
X156947431Y-82858500D01*
X157172569Y-82858500D01*
X157177704Y-82857643D01*
X157177706Y-82857643D01*
X157389496Y-82822302D01*
X157389501Y-82822301D01*
X157394635Y-82821444D01*
X157607574Y-82748342D01*
X157663084Y-82718302D01*
X157800995Y-82643668D01*
X157805576Y-82641189D01*
X157832931Y-82619898D01*
X157979121Y-82506112D01*
X157983240Y-82502906D01*
X158067869Y-82410975D01*
X158132194Y-82341101D01*
X158132197Y-82341097D01*
X158135722Y-82337268D01*
X158224517Y-82201357D01*
X158278521Y-82155268D01*
X158348868Y-82145693D01*
X158413226Y-82175670D01*
X158435483Y-82201357D01*
X158524278Y-82337268D01*
X158527803Y-82341097D01*
X158527806Y-82341101D01*
X158592131Y-82410975D01*
X158676760Y-82502906D01*
X158680879Y-82506112D01*
X158827070Y-82619898D01*
X158854424Y-82641189D01*
X158859005Y-82643668D01*
X158996917Y-82718302D01*
X159052426Y-82748342D01*
X159265365Y-82821444D01*
X159270499Y-82822301D01*
X159270504Y-82822302D01*
X159482294Y-82857643D01*
X159482296Y-82857643D01*
X159487431Y-82858500D01*
X159712569Y-82858500D01*
X159717704Y-82857643D01*
X159717706Y-82857643D01*
X159929496Y-82822302D01*
X159929501Y-82822301D01*
X159934635Y-82821444D01*
X160147574Y-82748342D01*
X160203084Y-82718302D01*
X160340995Y-82643668D01*
X160345576Y-82641189D01*
X160372931Y-82619898D01*
X160519121Y-82506112D01*
X160523240Y-82502906D01*
X160607869Y-82410975D01*
X160672194Y-82341101D01*
X160672197Y-82341097D01*
X160675722Y-82337268D01*
X160764517Y-82201357D01*
X160818521Y-82155268D01*
X160888868Y-82145693D01*
X160953226Y-82175670D01*
X160975483Y-82201357D01*
X161064278Y-82337268D01*
X161067803Y-82341097D01*
X161067806Y-82341101D01*
X161132131Y-82410975D01*
X161216760Y-82502906D01*
X161220879Y-82506112D01*
X161367070Y-82619898D01*
X161394424Y-82641189D01*
X161399005Y-82643668D01*
X161536917Y-82718302D01*
X161592426Y-82748342D01*
X161805365Y-82821444D01*
X161810499Y-82822301D01*
X161810504Y-82822302D01*
X162022294Y-82857643D01*
X162022296Y-82857643D01*
X162027431Y-82858500D01*
X162252569Y-82858500D01*
X162257704Y-82857643D01*
X162257706Y-82857643D01*
X162469496Y-82822302D01*
X162469501Y-82822301D01*
X162474635Y-82821444D01*
X162687574Y-82748342D01*
X162743084Y-82718302D01*
X162880995Y-82643668D01*
X162885576Y-82641189D01*
X162912931Y-82619898D01*
X163059121Y-82506112D01*
X163063240Y-82502906D01*
X163147869Y-82410975D01*
X163212194Y-82341101D01*
X163212197Y-82341097D01*
X163215722Y-82337268D01*
X163304517Y-82201357D01*
X163358521Y-82155268D01*
X163428868Y-82145693D01*
X163493226Y-82175670D01*
X163515483Y-82201357D01*
X163604278Y-82337268D01*
X163607803Y-82341097D01*
X163607806Y-82341101D01*
X163672131Y-82410975D01*
X163756760Y-82502906D01*
X163760879Y-82506112D01*
X163907070Y-82619898D01*
X163934424Y-82641189D01*
X163939005Y-82643668D01*
X164076917Y-82718302D01*
X164132426Y-82748342D01*
X164345365Y-82821444D01*
X164350499Y-82822301D01*
X164350504Y-82822302D01*
X164562294Y-82857643D01*
X164562296Y-82857643D01*
X164567431Y-82858500D01*
X164792569Y-82858500D01*
X164797704Y-82857643D01*
X164797706Y-82857643D01*
X165009496Y-82822302D01*
X165009501Y-82822301D01*
X165014635Y-82821444D01*
X165227574Y-82748342D01*
X165283084Y-82718302D01*
X165420995Y-82643668D01*
X165425576Y-82641189D01*
X165452931Y-82619898D01*
X165599121Y-82506112D01*
X165603240Y-82502906D01*
X165687869Y-82410975D01*
X165752194Y-82341101D01*
X165752197Y-82341097D01*
X165755722Y-82337268D01*
X165844517Y-82201357D01*
X165898521Y-82155268D01*
X165968868Y-82145693D01*
X166033226Y-82175670D01*
X166055483Y-82201357D01*
X166144278Y-82337268D01*
X166147803Y-82341097D01*
X166147806Y-82341101D01*
X166212131Y-82410975D01*
X166296760Y-82502906D01*
X166300879Y-82506112D01*
X166447070Y-82619898D01*
X166474424Y-82641189D01*
X166479005Y-82643668D01*
X166616917Y-82718302D01*
X166672426Y-82748342D01*
X166885365Y-82821444D01*
X166890499Y-82822301D01*
X166890504Y-82822302D01*
X167102294Y-82857643D01*
X167102296Y-82857643D01*
X167107431Y-82858500D01*
X167332569Y-82858500D01*
X167337704Y-82857643D01*
X167337706Y-82857643D01*
X167549496Y-82822302D01*
X167549501Y-82822301D01*
X167554635Y-82821444D01*
X167767574Y-82748342D01*
X167823084Y-82718302D01*
X167960995Y-82643668D01*
X167965576Y-82641189D01*
X167992931Y-82619898D01*
X168139121Y-82506112D01*
X168143240Y-82502906D01*
X168227869Y-82410975D01*
X168292194Y-82341101D01*
X168292197Y-82341097D01*
X168295722Y-82337268D01*
X168401597Y-82175214D01*
X168416008Y-82153157D01*
X168416010Y-82153153D01*
X168418860Y-82148791D01*
X168509296Y-81942616D01*
X168564564Y-81724368D01*
X168572807Y-81624900D01*
X168582726Y-81505189D01*
X168583156Y-81500000D01*
X168578268Y-81441010D01*
X168564995Y-81280828D01*
X168564994Y-81280823D01*
X168564564Y-81275632D01*
X168555575Y-81240135D01*
X168510578Y-81062446D01*
X168510578Y-81062445D01*
X168509296Y-81057384D01*
X168427662Y-80871276D01*
X168420954Y-80855982D01*
X168420952Y-80855978D01*
X168418860Y-80851209D01*
X168414629Y-80844732D01*
X168298573Y-80667096D01*
X168295722Y-80662732D01*
X168292197Y-80658903D01*
X168292194Y-80658899D01*
X168169160Y-80525250D01*
X168143240Y-80497094D01*
X167989584Y-80377497D01*
X167969689Y-80362012D01*
X167969687Y-80362010D01*
X167965576Y-80358811D01*
X167907915Y-80327607D01*
X167772159Y-80254139D01*
X167772156Y-80254138D01*
X167767574Y-80251658D01*
X167554635Y-80178556D01*
X167549501Y-80177699D01*
X167549496Y-80177698D01*
X167337706Y-80142357D01*
X167337704Y-80142357D01*
X167332569Y-80141500D01*
X167107431Y-80141500D01*
X167102296Y-80142357D01*
X167102294Y-80142357D01*
X166890504Y-80177698D01*
X166890499Y-80177699D01*
X166885365Y-80178556D01*
X166672426Y-80251658D01*
X166667844Y-80254138D01*
X166667841Y-80254139D01*
X166532085Y-80327607D01*
X166474424Y-80358811D01*
X166470313Y-80362010D01*
X166470311Y-80362012D01*
X166450416Y-80377497D01*
X166296760Y-80497094D01*
X166270840Y-80525250D01*
X166147806Y-80658899D01*
X166147803Y-80658903D01*
X166144278Y-80662732D01*
X166141427Y-80667096D01*
X166055483Y-80798643D01*
X166001479Y-80844732D01*
X165931132Y-80854307D01*
X165866774Y-80824330D01*
X165844517Y-80798643D01*
X165758573Y-80667096D01*
X165755722Y-80662732D01*
X165752197Y-80658903D01*
X165752194Y-80658899D01*
X165629160Y-80525250D01*
X165603240Y-80497094D01*
X165449584Y-80377497D01*
X165429689Y-80362012D01*
X165429687Y-80362010D01*
X165425576Y-80358811D01*
X165367915Y-80327607D01*
X165232159Y-80254139D01*
X165232156Y-80254138D01*
X165227574Y-80251658D01*
X165014635Y-80178556D01*
X165009501Y-80177699D01*
X165009496Y-80177698D01*
X164797706Y-80142357D01*
X164797704Y-80142357D01*
X164792569Y-80141500D01*
X164567431Y-80141500D01*
X164562296Y-80142357D01*
X164562294Y-80142357D01*
X164350504Y-80177698D01*
X164350499Y-80177699D01*
X164345365Y-80178556D01*
X164132426Y-80251658D01*
X164127844Y-80254138D01*
X164127841Y-80254139D01*
X163992085Y-80327607D01*
X163934424Y-80358811D01*
X163930313Y-80362010D01*
X163930311Y-80362012D01*
X163910416Y-80377497D01*
X163756760Y-80497094D01*
X163730840Y-80525250D01*
X163607806Y-80658899D01*
X163607803Y-80658903D01*
X163604278Y-80662732D01*
X163601427Y-80667096D01*
X163515483Y-80798643D01*
X163461479Y-80844732D01*
X163391132Y-80854307D01*
X163326774Y-80824330D01*
X163304517Y-80798643D01*
X163218573Y-80667096D01*
X163215722Y-80662732D01*
X163212197Y-80658903D01*
X163212194Y-80658899D01*
X163089160Y-80525250D01*
X163063240Y-80497094D01*
X162909584Y-80377497D01*
X162889689Y-80362012D01*
X162889687Y-80362010D01*
X162885576Y-80358811D01*
X162827915Y-80327607D01*
X162692159Y-80254139D01*
X162692156Y-80254138D01*
X162687574Y-80251658D01*
X162474635Y-80178556D01*
X162469501Y-80177699D01*
X162469496Y-80177698D01*
X162257706Y-80142357D01*
X162257704Y-80142357D01*
X162252569Y-80141500D01*
X162027431Y-80141500D01*
X162022296Y-80142357D01*
X162022294Y-80142357D01*
X161810504Y-80177698D01*
X161810499Y-80177699D01*
X161805365Y-80178556D01*
X161592426Y-80251658D01*
X161587844Y-80254138D01*
X161587841Y-80254139D01*
X161452085Y-80327607D01*
X161394424Y-80358811D01*
X161390313Y-80362010D01*
X161390311Y-80362012D01*
X161370416Y-80377497D01*
X161216760Y-80497094D01*
X161190840Y-80525250D01*
X161067806Y-80658899D01*
X161067803Y-80658903D01*
X161064278Y-80662732D01*
X161061427Y-80667096D01*
X160975483Y-80798643D01*
X160921479Y-80844732D01*
X160851132Y-80854307D01*
X160786774Y-80824330D01*
X160764517Y-80798643D01*
X160678573Y-80667096D01*
X160675722Y-80662732D01*
X160672197Y-80658903D01*
X160672194Y-80658899D01*
X160549160Y-80525250D01*
X160523240Y-80497094D01*
X160369584Y-80377497D01*
X160349689Y-80362012D01*
X160349687Y-80362010D01*
X160345576Y-80358811D01*
X160287915Y-80327607D01*
X160152159Y-80254139D01*
X160152156Y-80254138D01*
X160147574Y-80251658D01*
X159934635Y-80178556D01*
X159929501Y-80177699D01*
X159929496Y-80177698D01*
X159717706Y-80142357D01*
X159717704Y-80142357D01*
X159712569Y-80141500D01*
X159487431Y-80141500D01*
X159482296Y-80142357D01*
X159482294Y-80142357D01*
X159270504Y-80177698D01*
X159270499Y-80177699D01*
X159265365Y-80178556D01*
X159052426Y-80251658D01*
X159047844Y-80254138D01*
X159047841Y-80254139D01*
X158912085Y-80327607D01*
X158854424Y-80358811D01*
X158850313Y-80362010D01*
X158850311Y-80362012D01*
X158830416Y-80377497D01*
X158676760Y-80497094D01*
X158650840Y-80525250D01*
X158527806Y-80658899D01*
X158527803Y-80658903D01*
X158524278Y-80662732D01*
X158521427Y-80667096D01*
X158435483Y-80798643D01*
X158381479Y-80844732D01*
X158311132Y-80854307D01*
X158246774Y-80824330D01*
X158224517Y-80798643D01*
X158138573Y-80667096D01*
X158135722Y-80662732D01*
X158132197Y-80658903D01*
X158132194Y-80658899D01*
X158009160Y-80525250D01*
X157983240Y-80497094D01*
X157829584Y-80377497D01*
X157809689Y-80362012D01*
X157809687Y-80362010D01*
X157805576Y-80358811D01*
X157747915Y-80327607D01*
X157612159Y-80254139D01*
X157612156Y-80254138D01*
X157607574Y-80251658D01*
X157394635Y-80178556D01*
X157389501Y-80177699D01*
X157389496Y-80177698D01*
X157177706Y-80142357D01*
X157177704Y-80142357D01*
X157172569Y-80141500D01*
X156947431Y-80141500D01*
X156942296Y-80142357D01*
X156942294Y-80142357D01*
X156730504Y-80177698D01*
X156730499Y-80177699D01*
X156725365Y-80178556D01*
X156512426Y-80251658D01*
X156507844Y-80254138D01*
X156507841Y-80254139D01*
X156372085Y-80327607D01*
X156314424Y-80358811D01*
X156310313Y-80362010D01*
X156310311Y-80362012D01*
X156290416Y-80377497D01*
X156136760Y-80497094D01*
X156110840Y-80525250D01*
X155987806Y-80658899D01*
X155987803Y-80658903D01*
X155984278Y-80662732D01*
X155981427Y-80667096D01*
X155895483Y-80798643D01*
X155841479Y-80844732D01*
X155771132Y-80854307D01*
X155706774Y-80824330D01*
X155684517Y-80798643D01*
X155598573Y-80667096D01*
X155595722Y-80662732D01*
X155592197Y-80658903D01*
X155592194Y-80658899D01*
X155469160Y-80525250D01*
X155443240Y-80497094D01*
X155289584Y-80377497D01*
X155269689Y-80362012D01*
X155269687Y-80362010D01*
X155265576Y-80358811D01*
X155207915Y-80327607D01*
X155072159Y-80254139D01*
X155072156Y-80254138D01*
X155067574Y-80251658D01*
X154854635Y-80178556D01*
X154849501Y-80177699D01*
X154849496Y-80177698D01*
X154637706Y-80142357D01*
X154637704Y-80142357D01*
X154632569Y-80141500D01*
X154407431Y-80141500D01*
X154402296Y-80142357D01*
X154402294Y-80142357D01*
X154190504Y-80177698D01*
X154190499Y-80177699D01*
X154185365Y-80178556D01*
X153972426Y-80251658D01*
X153967844Y-80254138D01*
X153967841Y-80254139D01*
X153832085Y-80327607D01*
X153774424Y-80358811D01*
X153770313Y-80362010D01*
X153770311Y-80362012D01*
X153750416Y-80377497D01*
X153596760Y-80497094D01*
X153570840Y-80525250D01*
X153447806Y-80658899D01*
X153447803Y-80658903D01*
X153444278Y-80662732D01*
X153441427Y-80667096D01*
X153355483Y-80798643D01*
X153301479Y-80844732D01*
X153231132Y-80854307D01*
X153166774Y-80824330D01*
X153144517Y-80798643D01*
X153058573Y-80667096D01*
X153055722Y-80662732D01*
X153052197Y-80658903D01*
X153052194Y-80658899D01*
X152929160Y-80525250D01*
X152903240Y-80497094D01*
X152749584Y-80377497D01*
X152729689Y-80362012D01*
X152729687Y-80362010D01*
X152725576Y-80358811D01*
X152667915Y-80327607D01*
X152532159Y-80254139D01*
X152532156Y-80254138D01*
X152527574Y-80251658D01*
X152314635Y-80178556D01*
X152309501Y-80177699D01*
X152309496Y-80177698D01*
X152097706Y-80142357D01*
X152097704Y-80142357D01*
X152092569Y-80141500D01*
X151867431Y-80141500D01*
X151862296Y-80142357D01*
X151862294Y-80142357D01*
X151650504Y-80177698D01*
X151650499Y-80177699D01*
X151645365Y-80178556D01*
X151432426Y-80251658D01*
X151427844Y-80254138D01*
X151427841Y-80254139D01*
X151292085Y-80327607D01*
X151234424Y-80358811D01*
X151230313Y-80362010D01*
X151230311Y-80362012D01*
X151210416Y-80377497D01*
X151056760Y-80497094D01*
X151030840Y-80525250D01*
X150907806Y-80658899D01*
X150907803Y-80658903D01*
X150904278Y-80662732D01*
X150901427Y-80667096D01*
X150815483Y-80798643D01*
X150761479Y-80844732D01*
X150691132Y-80854307D01*
X150626774Y-80824330D01*
X150604517Y-80798643D01*
X150518573Y-80667096D01*
X150515722Y-80662732D01*
X150512197Y-80658903D01*
X150512194Y-80658899D01*
X150389160Y-80525250D01*
X150363240Y-80497094D01*
X150209584Y-80377497D01*
X150189689Y-80362012D01*
X150189687Y-80362010D01*
X150185576Y-80358811D01*
X150127915Y-80327607D01*
X149992159Y-80254139D01*
X149992156Y-80254138D01*
X149987574Y-80251658D01*
X149774635Y-80178556D01*
X149769501Y-80177699D01*
X149769496Y-80177698D01*
X149557706Y-80142357D01*
X149557704Y-80142357D01*
X149552569Y-80141500D01*
X149327431Y-80141500D01*
X149322296Y-80142357D01*
X149322294Y-80142357D01*
X149110504Y-80177698D01*
X149110499Y-80177699D01*
X149105365Y-80178556D01*
X148892426Y-80251658D01*
X148887844Y-80254138D01*
X148887841Y-80254139D01*
X148752085Y-80327607D01*
X148694424Y-80358811D01*
X148690313Y-80362010D01*
X148690311Y-80362012D01*
X148670416Y-80377497D01*
X148516760Y-80497094D01*
X148490840Y-80525250D01*
X148367806Y-80658899D01*
X148367803Y-80658903D01*
X148364278Y-80662732D01*
X148361427Y-80667096D01*
X148275483Y-80798643D01*
X148221479Y-80844732D01*
X148151132Y-80854307D01*
X148086774Y-80824330D01*
X148064517Y-80798643D01*
X147978573Y-80667096D01*
X147975722Y-80662732D01*
X147972197Y-80658903D01*
X147972194Y-80658899D01*
X147849160Y-80525250D01*
X147823240Y-80497094D01*
X147669584Y-80377497D01*
X147649689Y-80362012D01*
X147649687Y-80362010D01*
X147645576Y-80358811D01*
X147587915Y-80327607D01*
X147452159Y-80254139D01*
X147452156Y-80254138D01*
X147447574Y-80251658D01*
X147234635Y-80178556D01*
X147229501Y-80177699D01*
X147229496Y-80177698D01*
X147017706Y-80142357D01*
X147017704Y-80142357D01*
X147012569Y-80141500D01*
X146787431Y-80141500D01*
X146782296Y-80142357D01*
X146782294Y-80142357D01*
X146570504Y-80177698D01*
X146570499Y-80177699D01*
X146565365Y-80178556D01*
X146352426Y-80251658D01*
X146347844Y-80254138D01*
X146347841Y-80254139D01*
X146212085Y-80327607D01*
X146154424Y-80358811D01*
X146150313Y-80362010D01*
X146150311Y-80362012D01*
X146130416Y-80377497D01*
X145976760Y-80497094D01*
X145950840Y-80525250D01*
X145827806Y-80658899D01*
X145827803Y-80658903D01*
X145824278Y-80662732D01*
X145821427Y-80667096D01*
X145735483Y-80798643D01*
X145681479Y-80844732D01*
X145611132Y-80854307D01*
X145546774Y-80824330D01*
X145524517Y-80798643D01*
X145438573Y-80667096D01*
X145435722Y-80662732D01*
X145432197Y-80658903D01*
X145432194Y-80658899D01*
X145309160Y-80525250D01*
X145283240Y-80497094D01*
X145129584Y-80377497D01*
X145109689Y-80362012D01*
X145109687Y-80362010D01*
X145105576Y-80358811D01*
X145047915Y-80327607D01*
X144912159Y-80254139D01*
X144912156Y-80254138D01*
X144907574Y-80251658D01*
X144694635Y-80178556D01*
X144689501Y-80177699D01*
X144689496Y-80177698D01*
X144477706Y-80142357D01*
X144477704Y-80142357D01*
X144472569Y-80141500D01*
X144247431Y-80141500D01*
X144242296Y-80142357D01*
X144242294Y-80142357D01*
X144030504Y-80177698D01*
X144030499Y-80177699D01*
X144025365Y-80178556D01*
X143812426Y-80251658D01*
X143807844Y-80254138D01*
X143807841Y-80254139D01*
X143672085Y-80327607D01*
X143614424Y-80358811D01*
X143610313Y-80362010D01*
X143610311Y-80362012D01*
X143590416Y-80377497D01*
X143436760Y-80497094D01*
X143410840Y-80525250D01*
X143287806Y-80658899D01*
X143287803Y-80658903D01*
X143284278Y-80662732D01*
X143281427Y-80667096D01*
X143195483Y-80798643D01*
X143141479Y-80844732D01*
X143071132Y-80854307D01*
X143006774Y-80824330D01*
X142984517Y-80798643D01*
X142898573Y-80667096D01*
X142895722Y-80662732D01*
X142892197Y-80658903D01*
X142892194Y-80658899D01*
X142769160Y-80525250D01*
X142743240Y-80497094D01*
X142589584Y-80377497D01*
X142569689Y-80362012D01*
X142569687Y-80362010D01*
X142565576Y-80358811D01*
X142507915Y-80327607D01*
X142372159Y-80254139D01*
X142372156Y-80254138D01*
X142367574Y-80251658D01*
X142154635Y-80178556D01*
X142149501Y-80177699D01*
X142149496Y-80177698D01*
X141937706Y-80142357D01*
X141937704Y-80142357D01*
X141932569Y-80141500D01*
X141707431Y-80141500D01*
X141702296Y-80142357D01*
X141702294Y-80142357D01*
X141490504Y-80177698D01*
X141490499Y-80177699D01*
X141485365Y-80178556D01*
X141272426Y-80251658D01*
X141267844Y-80254138D01*
X141267841Y-80254139D01*
X141132085Y-80327607D01*
X141074424Y-80358811D01*
X141070313Y-80362010D01*
X141070311Y-80362012D01*
X141050416Y-80377497D01*
X140896760Y-80497094D01*
X140870840Y-80525250D01*
X140747806Y-80658899D01*
X140747803Y-80658903D01*
X140744278Y-80662732D01*
X140741427Y-80667096D01*
X140655483Y-80798643D01*
X140601479Y-80844732D01*
X140531132Y-80854307D01*
X140466774Y-80824330D01*
X140444517Y-80798643D01*
X140358573Y-80667096D01*
X140355722Y-80662732D01*
X140352197Y-80658903D01*
X140352194Y-80658899D01*
X140229160Y-80525250D01*
X140203240Y-80497094D01*
X140049584Y-80377497D01*
X140029689Y-80362012D01*
X140029687Y-80362010D01*
X140025576Y-80358811D01*
X139967915Y-80327607D01*
X139832159Y-80254139D01*
X139832156Y-80254138D01*
X139827574Y-80251658D01*
X139614635Y-80178556D01*
X139609501Y-80177699D01*
X139609496Y-80177698D01*
X139397706Y-80142357D01*
X139397704Y-80142357D01*
X139392569Y-80141500D01*
X139167431Y-80141500D01*
X139162296Y-80142357D01*
X139162294Y-80142357D01*
X138950504Y-80177698D01*
X138950499Y-80177699D01*
X138945365Y-80178556D01*
X138732426Y-80251658D01*
X138727844Y-80254138D01*
X138727841Y-80254139D01*
X138592085Y-80327607D01*
X138534424Y-80358811D01*
X138530313Y-80362010D01*
X138530311Y-80362012D01*
X138510416Y-80377497D01*
X138356760Y-80497094D01*
X138330840Y-80525250D01*
X138207806Y-80658899D01*
X138207803Y-80658903D01*
X138204278Y-80662732D01*
X138201431Y-80667090D01*
X138115184Y-80799101D01*
X138061180Y-80845189D01*
X137990832Y-80854764D01*
X137926475Y-80824786D01*
X137904218Y-80799101D01*
X137818177Y-80667407D01*
X137811790Y-80659201D01*
X137666432Y-80501300D01*
X137658789Y-80494263D01*
X137489411Y-80362431D01*
X137480718Y-80356752D01*
X137291957Y-80254599D01*
X137282440Y-80250425D01*
X137079443Y-80180736D01*
X137069373Y-80178185D01*
X137011867Y-80168589D01*
X136998352Y-80170223D01*
X136994000Y-80184449D01*
X136994000Y-82816277D01*
X136997836Y-82829340D01*
X137012584Y-82831291D01*
X137069373Y-82821815D01*
X137079443Y-82819264D01*
X137282440Y-82749575D01*
X137291957Y-82745401D01*
X137480718Y-82643248D01*
X137489411Y-82637569D01*
X137658789Y-82505737D01*
X137666432Y-82498700D01*
X137811790Y-82340799D01*
X137818177Y-82332593D01*
X137904218Y-82200899D01*
X137958222Y-82154811D01*
X138028570Y-82145236D01*
X138092927Y-82175214D01*
X138115183Y-82200898D01*
X138204278Y-82337268D01*
X138207803Y-82341097D01*
X138207806Y-82341101D01*
X138272131Y-82410975D01*
X138356760Y-82502906D01*
X138360879Y-82506112D01*
X138507070Y-82619898D01*
X138534424Y-82641189D01*
X138717754Y-82740402D01*
X138768144Y-82790414D01*
X138783496Y-82859731D01*
X138758935Y-82926344D01*
X138746879Y-82940310D01*
X137672110Y-84015078D01*
X137664295Y-84022190D01*
X137658017Y-84026174D01*
X137652591Y-84031952D01*
X137613170Y-84073931D01*
X137610415Y-84076773D01*
X137591453Y-84095735D01*
X137589027Y-84098862D01*
X137588462Y-84099503D01*
X137581494Y-84107661D01*
X137552496Y-84138542D01*
X137543272Y-84155319D01*
X137532425Y-84171832D01*
X137525548Y-84180698D01*
X137525545Y-84180703D01*
X137520687Y-84186966D01*
X137515424Y-84199129D01*
X137503862Y-84225847D01*
X137498646Y-84236495D01*
X137478235Y-84273622D01*
X137473475Y-84292161D01*
X137467074Y-84310859D01*
X137459468Y-84328435D01*
X137458228Y-84336266D01*
X137452842Y-84370274D01*
X137450435Y-84381897D01*
X137439900Y-84422926D01*
X137439900Y-84442064D01*
X137438349Y-84461774D01*
X137435354Y-84480684D01*
X137436100Y-84488575D01*
X137439341Y-84522861D01*
X137439900Y-84534719D01*
X137439900Y-96194307D01*
X137419898Y-96262428D01*
X137402995Y-96283402D01*
X137261058Y-96425339D01*
X137198746Y-96459365D01*
X137127931Y-96454300D01*
X137071095Y-96411753D01*
X137046755Y-96350353D01*
X137044009Y-96325980D01*
X137044009Y-96325978D01*
X137043217Y-96318953D01*
X136983043Y-96146985D01*
X136886111Y-95992719D01*
X136757281Y-95863889D01*
X136603015Y-95766957D01*
X136431047Y-95706783D01*
X136424020Y-95705991D01*
X136424019Y-95705991D01*
X136257029Y-95687176D01*
X136250000Y-95686384D01*
X136242971Y-95687176D01*
X136075981Y-95705991D01*
X136075980Y-95705991D01*
X136068953Y-95706783D01*
X135896985Y-95766957D01*
X135742719Y-95863889D01*
X135613889Y-95992719D01*
X135516957Y-96146985D01*
X135456783Y-96318953D01*
X135455991Y-96325980D01*
X135455991Y-96325981D01*
X135455343Y-96331736D01*
X135436384Y-96500000D01*
X135437176Y-96507029D01*
X135455626Y-96670774D01*
X135456783Y-96681047D01*
X135516957Y-96853015D01*
X135613889Y-97007281D01*
X135742719Y-97136111D01*
X135743789Y-97136784D01*
X135783248Y-97193002D01*
X135789900Y-97233401D01*
X135789900Y-103979322D01*
X135789402Y-103989874D01*
X135787781Y-103997128D01*
X135788030Y-104005049D01*
X135789838Y-104062595D01*
X135789900Y-104066552D01*
X135789900Y-104093383D01*
X135790396Y-104097310D01*
X135790453Y-104098216D01*
X135791292Y-104108860D01*
X135792622Y-104151199D01*
X135794834Y-104158812D01*
X135797964Y-104169586D01*
X135801972Y-104188943D01*
X135804371Y-104207932D01*
X135807291Y-104215307D01*
X135819964Y-104247318D01*
X135823808Y-104258545D01*
X135833415Y-104291609D01*
X135835628Y-104299225D01*
X135845374Y-104315705D01*
X135854065Y-104333445D01*
X135861116Y-104351254D01*
X135885558Y-104384896D01*
X135886020Y-104385532D01*
X135892536Y-104395452D01*
X135914095Y-104431906D01*
X135927622Y-104445433D01*
X135940463Y-104460467D01*
X135951721Y-104475962D01*
X135957829Y-104481015D01*
X135984372Y-104502973D01*
X135993152Y-104510963D01*
X136833594Y-105351405D01*
X136867620Y-105413717D01*
X136862555Y-105484532D01*
X136820008Y-105541368D01*
X136753488Y-105566179D01*
X136744499Y-105566500D01*
X136617431Y-105566500D01*
X136612296Y-105567357D01*
X136612294Y-105567357D01*
X136400504Y-105602698D01*
X136400499Y-105602699D01*
X136395365Y-105603556D01*
X136182426Y-105676658D01*
X135984424Y-105783811D01*
X135806760Y-105922094D01*
X135803228Y-105925931D01*
X135657806Y-106083899D01*
X135657803Y-106083903D01*
X135654278Y-106087732D01*
X135651427Y-106092096D01*
X135565483Y-106223643D01*
X135511479Y-106269732D01*
X135441132Y-106279307D01*
X135376774Y-106249330D01*
X135354517Y-106223643D01*
X135268573Y-106092096D01*
X135265722Y-106087732D01*
X135262197Y-106083903D01*
X135262194Y-106083899D01*
X135116772Y-105925931D01*
X135113240Y-105922094D01*
X134935576Y-105783811D01*
X134737574Y-105676658D01*
X134524635Y-105603556D01*
X134519501Y-105602699D01*
X134519496Y-105602698D01*
X134307706Y-105567357D01*
X134307704Y-105567357D01*
X134302569Y-105566500D01*
X134077431Y-105566500D01*
X134072296Y-105567357D01*
X134072294Y-105567357D01*
X133860504Y-105602698D01*
X133860499Y-105602699D01*
X133855365Y-105603556D01*
X133642426Y-105676658D01*
X133444424Y-105783811D01*
X133266760Y-105922094D01*
X133263228Y-105925931D01*
X133117806Y-106083899D01*
X133117803Y-106083903D01*
X133114278Y-106087732D01*
X133111427Y-106092096D01*
X133025483Y-106223643D01*
X132971479Y-106269732D01*
X132901132Y-106279307D01*
X132836774Y-106249330D01*
X132814517Y-106223643D01*
X132728573Y-106092096D01*
X132725722Y-106087732D01*
X132722197Y-106083903D01*
X132722194Y-106083899D01*
X132576772Y-105925931D01*
X132573240Y-105922094D01*
X132395576Y-105783811D01*
X132197574Y-105676658D01*
X131984635Y-105603556D01*
X131979501Y-105602699D01*
X131979496Y-105602698D01*
X131767706Y-105567357D01*
X131767704Y-105567357D01*
X131762569Y-105566500D01*
X131537431Y-105566500D01*
X131532296Y-105567357D01*
X131532294Y-105567357D01*
X131320504Y-105602698D01*
X131320499Y-105602699D01*
X131315365Y-105603556D01*
X131102426Y-105676658D01*
X130904424Y-105783811D01*
X130726760Y-105922094D01*
X130723228Y-105925931D01*
X130577806Y-106083899D01*
X130577803Y-106083903D01*
X130574278Y-106087732D01*
X130571427Y-106092096D01*
X130485483Y-106223643D01*
X130431479Y-106269732D01*
X130361132Y-106279307D01*
X130296774Y-106249330D01*
X130274517Y-106223643D01*
X130188573Y-106092096D01*
X130185722Y-106087732D01*
X130182197Y-106083903D01*
X130182194Y-106083899D01*
X130036772Y-105925931D01*
X130033240Y-105922094D01*
X129855576Y-105783811D01*
X129657574Y-105676658D01*
X129444635Y-105603556D01*
X129439501Y-105602699D01*
X129439496Y-105602698D01*
X129227706Y-105567357D01*
X129227704Y-105567357D01*
X129222569Y-105566500D01*
X128997431Y-105566500D01*
X128992296Y-105567357D01*
X128992294Y-105567357D01*
X128780504Y-105602698D01*
X128780499Y-105602699D01*
X128775365Y-105603556D01*
X128562426Y-105676658D01*
X128364424Y-105783811D01*
X128186760Y-105922094D01*
X128183228Y-105925931D01*
X128037806Y-106083899D01*
X128037803Y-106083903D01*
X128034278Y-106087732D01*
X128031427Y-106092096D01*
X127945483Y-106223643D01*
X127891479Y-106269732D01*
X127821132Y-106279307D01*
X127756774Y-106249330D01*
X127734517Y-106223643D01*
X127648573Y-106092096D01*
X127645722Y-106087732D01*
X127642197Y-106083903D01*
X127642194Y-106083899D01*
X127496772Y-105925931D01*
X127493240Y-105922094D01*
X127315576Y-105783811D01*
X127117574Y-105676658D01*
X126904635Y-105603556D01*
X126899501Y-105602699D01*
X126899496Y-105602698D01*
X126687706Y-105567357D01*
X126687704Y-105567357D01*
X126682569Y-105566500D01*
X126457431Y-105566500D01*
X126452296Y-105567357D01*
X126452294Y-105567357D01*
X126240504Y-105602698D01*
X126240499Y-105602699D01*
X126235365Y-105603556D01*
X126022426Y-105676658D01*
X125824424Y-105783811D01*
X125646760Y-105922094D01*
X125643228Y-105925931D01*
X125497806Y-106083899D01*
X125497803Y-106083903D01*
X125494278Y-106087732D01*
X125491427Y-106092096D01*
X125405483Y-106223643D01*
X125351479Y-106269732D01*
X125281132Y-106279307D01*
X125216774Y-106249330D01*
X125194517Y-106223643D01*
X125108573Y-106092096D01*
X125105722Y-106087732D01*
X125102197Y-106083903D01*
X125102194Y-106083899D01*
X124956772Y-105925931D01*
X124953240Y-105922094D01*
X124775576Y-105783811D01*
X124577574Y-105676658D01*
X124364635Y-105603556D01*
X124359501Y-105602699D01*
X124359496Y-105602698D01*
X124147706Y-105567357D01*
X124147704Y-105567357D01*
X124142569Y-105566500D01*
X123917431Y-105566500D01*
X123912296Y-105567357D01*
X123912294Y-105567357D01*
X123700504Y-105602698D01*
X123700499Y-105602699D01*
X123695365Y-105603556D01*
X123482426Y-105676658D01*
X123284424Y-105783811D01*
X123106760Y-105922094D01*
X123103228Y-105925931D01*
X123045755Y-105988362D01*
X122984901Y-106024933D01*
X122913937Y-106022798D01*
X122855392Y-105982636D01*
X122834998Y-105947056D01*
X122794038Y-105837239D01*
X122794037Y-105837237D01*
X122790889Y-105828796D01*
X122759924Y-105787431D01*
X122708659Y-105718950D01*
X122703261Y-105711739D01*
X122654137Y-105674965D01*
X122593418Y-105629511D01*
X122593416Y-105629510D01*
X122586204Y-105624111D01*
X122449201Y-105573011D01*
X122412295Y-105569043D01*
X122391988Y-105566860D01*
X122391985Y-105566860D01*
X122388638Y-105566500D01*
X120591362Y-105566500D01*
X120588015Y-105566860D01*
X120588012Y-105566860D01*
X120567705Y-105569043D01*
X120530799Y-105573011D01*
X120393796Y-105624111D01*
X120386584Y-105629510D01*
X120386582Y-105629511D01*
X120325863Y-105674965D01*
X120276739Y-105711739D01*
X120271341Y-105718950D01*
X120220077Y-105787431D01*
X120189111Y-105828796D01*
X120138011Y-105965799D01*
X120131500Y-106026362D01*
X120131500Y-107823638D01*
X117068519Y-107823638D01*
X117020077Y-107725406D01*
X117015027Y-107713711D01*
X116967451Y-107586155D01*
X116966194Y-107582624D01*
X116927568Y-107468836D01*
X116923760Y-107455117D01*
X116893389Y-107315503D01*
X116892931Y-107313302D01*
X116870799Y-107202038D01*
X116868699Y-107186445D01*
X116856007Y-107008990D01*
X116855956Y-107008242D01*
X116850770Y-106929119D01*
X116850500Y-106920878D01*
X116850500Y-97650000D01*
X133286384Y-97650000D01*
X133306783Y-97831047D01*
X133366957Y-98003015D01*
X133463889Y-98157281D01*
X133592719Y-98286111D01*
X133746985Y-98383043D01*
X133918953Y-98443217D01*
X133925980Y-98444009D01*
X133925981Y-98444009D01*
X134092971Y-98462824D01*
X134100000Y-98463616D01*
X134107029Y-98462824D01*
X134274019Y-98444009D01*
X134274020Y-98444009D01*
X134281047Y-98443217D01*
X134453015Y-98383043D01*
X134607281Y-98286111D01*
X134736111Y-98157281D01*
X134833043Y-98003015D01*
X134893217Y-97831047D01*
X134913616Y-97650000D01*
X134893217Y-97468953D01*
X134833043Y-97296985D01*
X134818312Y-97273541D01*
X134799000Y-97206506D01*
X134799000Y-93143494D01*
X134818312Y-93076459D01*
X134819930Y-93073884D01*
X134833043Y-93053015D01*
X134893217Y-92881047D01*
X134913616Y-92700000D01*
X134893217Y-92518953D01*
X134833043Y-92346985D01*
X134818312Y-92323541D01*
X134799000Y-92256506D01*
X134799000Y-87143494D01*
X134818312Y-87076459D01*
X134829279Y-87059005D01*
X134833043Y-87053015D01*
X134893217Y-86881047D01*
X134897182Y-86845861D01*
X134912824Y-86707029D01*
X134913616Y-86700000D01*
X134893217Y-86518953D01*
X134833043Y-86346985D01*
X134774087Y-86253157D01*
X134739878Y-86198714D01*
X134736111Y-86192719D01*
X134607281Y-86063889D01*
X134581030Y-86047394D01*
X134459007Y-85970722D01*
X134453015Y-85966957D01*
X134281047Y-85906783D01*
X134274020Y-85905991D01*
X134274019Y-85905991D01*
X134107029Y-85887176D01*
X134100000Y-85886384D01*
X134092971Y-85887176D01*
X133925981Y-85905991D01*
X133925980Y-85905991D01*
X133918953Y-85906783D01*
X133746985Y-85966957D01*
X133740993Y-85970722D01*
X133618971Y-86047394D01*
X133592719Y-86063889D01*
X133463889Y-86192719D01*
X133460122Y-86198714D01*
X133425913Y-86253157D01*
X133366957Y-86346985D01*
X133306783Y-86518953D01*
X133286384Y-86700000D01*
X133287176Y-86707029D01*
X133302819Y-86845861D01*
X133306783Y-86881047D01*
X133366957Y-87053015D01*
X133370721Y-87059005D01*
X133381688Y-87076459D01*
X133401000Y-87143494D01*
X133401000Y-92256506D01*
X133381688Y-92323541D01*
X133366957Y-92346985D01*
X133306783Y-92518953D01*
X133286384Y-92700000D01*
X133306783Y-92881047D01*
X133366957Y-93053015D01*
X133380070Y-93073884D01*
X133381688Y-93076459D01*
X133401000Y-93143494D01*
X133401000Y-97206506D01*
X133381688Y-97273541D01*
X133366957Y-97296985D01*
X133306783Y-97468953D01*
X133286384Y-97650000D01*
X116850500Y-97650000D01*
X116850500Y-82395223D01*
X120142000Y-82395223D01*
X120142360Y-82401938D01*
X120147662Y-82451257D01*
X120151259Y-82466478D01*
X120196405Y-82587520D01*
X120204954Y-82603176D01*
X120281698Y-82705693D01*
X120294307Y-82718302D01*
X120396824Y-82795046D01*
X120412480Y-82803595D01*
X120533522Y-82848741D01*
X120548743Y-82852338D01*
X120598062Y-82857640D01*
X120604777Y-82858000D01*
X121227885Y-82858000D01*
X121243124Y-82853525D01*
X121244329Y-82852135D01*
X121246000Y-82844452D01*
X121246000Y-82839885D01*
X121754000Y-82839885D01*
X121758475Y-82855124D01*
X121759865Y-82856329D01*
X121767548Y-82858000D01*
X122395223Y-82858000D01*
X122401938Y-82857640D01*
X122451257Y-82852338D01*
X122466478Y-82848741D01*
X122587520Y-82803595D01*
X122603176Y-82795046D01*
X122705693Y-82718302D01*
X122718302Y-82705693D01*
X122795046Y-82603176D01*
X122803595Y-82587520D01*
X122844618Y-82477531D01*
X122887165Y-82420695D01*
X122953685Y-82395884D01*
X123023059Y-82410975D01*
X123055375Y-82436225D01*
X123116760Y-82502906D01*
X123120879Y-82506112D01*
X123267070Y-82619898D01*
X123294424Y-82641189D01*
X123299005Y-82643668D01*
X123436917Y-82718302D01*
X123492426Y-82748342D01*
X123705365Y-82821444D01*
X123710499Y-82822301D01*
X123710504Y-82822302D01*
X123922294Y-82857643D01*
X123922296Y-82857643D01*
X123927431Y-82858500D01*
X124152569Y-82858500D01*
X124157704Y-82857643D01*
X124157706Y-82857643D01*
X124369496Y-82822302D01*
X124369501Y-82822301D01*
X124374635Y-82821444D01*
X124587574Y-82748342D01*
X124643084Y-82718302D01*
X124780995Y-82643668D01*
X124785576Y-82641189D01*
X124812931Y-82619898D01*
X124959121Y-82506112D01*
X124963240Y-82502906D01*
X125047869Y-82410975D01*
X125112194Y-82341101D01*
X125112197Y-82341097D01*
X125115722Y-82337268D01*
X125204517Y-82201357D01*
X125258521Y-82155268D01*
X125328868Y-82145693D01*
X125393226Y-82175670D01*
X125415483Y-82201357D01*
X125504278Y-82337268D01*
X125507803Y-82341097D01*
X125507806Y-82341101D01*
X125572131Y-82410975D01*
X125656760Y-82502906D01*
X125660879Y-82506112D01*
X125807070Y-82619898D01*
X125834424Y-82641189D01*
X125839005Y-82643668D01*
X125976917Y-82718302D01*
X126032426Y-82748342D01*
X126245365Y-82821444D01*
X126250499Y-82822301D01*
X126250504Y-82822302D01*
X126462294Y-82857643D01*
X126462296Y-82857643D01*
X126467431Y-82858500D01*
X126692569Y-82858500D01*
X126697704Y-82857643D01*
X126697706Y-82857643D01*
X126909496Y-82822302D01*
X126909501Y-82822301D01*
X126914635Y-82821444D01*
X127127574Y-82748342D01*
X127183084Y-82718302D01*
X127320995Y-82643668D01*
X127325576Y-82641189D01*
X127352931Y-82619898D01*
X127499121Y-82506112D01*
X127503240Y-82502906D01*
X127587869Y-82410975D01*
X127652194Y-82341101D01*
X127652197Y-82341097D01*
X127655722Y-82337268D01*
X127744517Y-82201357D01*
X127798521Y-82155268D01*
X127868868Y-82145693D01*
X127933226Y-82175670D01*
X127955483Y-82201357D01*
X128044278Y-82337268D01*
X128047803Y-82341097D01*
X128047806Y-82341101D01*
X128112131Y-82410975D01*
X128196760Y-82502906D01*
X128200879Y-82506112D01*
X128347070Y-82619898D01*
X128374424Y-82641189D01*
X128379005Y-82643668D01*
X128516917Y-82718302D01*
X128572426Y-82748342D01*
X128785365Y-82821444D01*
X128790499Y-82822301D01*
X128790504Y-82822302D01*
X129002294Y-82857643D01*
X129002296Y-82857643D01*
X129007431Y-82858500D01*
X129232569Y-82858500D01*
X129237704Y-82857643D01*
X129237706Y-82857643D01*
X129449496Y-82822302D01*
X129449501Y-82822301D01*
X129454635Y-82821444D01*
X129667574Y-82748342D01*
X129723084Y-82718302D01*
X129860995Y-82643668D01*
X129865576Y-82641189D01*
X129892931Y-82619898D01*
X130039121Y-82506112D01*
X130043240Y-82502906D01*
X130127869Y-82410975D01*
X130192194Y-82341101D01*
X130192197Y-82341097D01*
X130195722Y-82337268D01*
X130284517Y-82201357D01*
X130338521Y-82155268D01*
X130408868Y-82145693D01*
X130473226Y-82175670D01*
X130495483Y-82201357D01*
X130584278Y-82337268D01*
X130587803Y-82341097D01*
X130587806Y-82341101D01*
X130652131Y-82410975D01*
X130736760Y-82502906D01*
X130740879Y-82506112D01*
X130887070Y-82619898D01*
X130914424Y-82641189D01*
X130919005Y-82643668D01*
X131056917Y-82718302D01*
X131112426Y-82748342D01*
X131325365Y-82821444D01*
X131330499Y-82822301D01*
X131330504Y-82822302D01*
X131542294Y-82857643D01*
X131542296Y-82857643D01*
X131547431Y-82858500D01*
X131772569Y-82858500D01*
X131777704Y-82857643D01*
X131777706Y-82857643D01*
X131989496Y-82822302D01*
X131989501Y-82822301D01*
X131994635Y-82821444D01*
X132207574Y-82748342D01*
X132263084Y-82718302D01*
X132400995Y-82643668D01*
X132405576Y-82641189D01*
X132432931Y-82619898D01*
X132579121Y-82506112D01*
X132583240Y-82502906D01*
X132667869Y-82410975D01*
X132732194Y-82341101D01*
X132732197Y-82341097D01*
X132735722Y-82337268D01*
X132824517Y-82201357D01*
X132878521Y-82155268D01*
X132948868Y-82145693D01*
X133013226Y-82175670D01*
X133035483Y-82201357D01*
X133124278Y-82337268D01*
X133127803Y-82341097D01*
X133127806Y-82341101D01*
X133192131Y-82410975D01*
X133276760Y-82502906D01*
X133280879Y-82506112D01*
X133427070Y-82619898D01*
X133454424Y-82641189D01*
X133459005Y-82643668D01*
X133596917Y-82718302D01*
X133652426Y-82748342D01*
X133865365Y-82821444D01*
X133870499Y-82822301D01*
X133870504Y-82822302D01*
X134082294Y-82857643D01*
X134082296Y-82857643D01*
X134087431Y-82858500D01*
X134312569Y-82858500D01*
X134317704Y-82857643D01*
X134317706Y-82857643D01*
X134529496Y-82822302D01*
X134529501Y-82822301D01*
X134534635Y-82821444D01*
X134747574Y-82748342D01*
X134803084Y-82718302D01*
X134940995Y-82643668D01*
X134945576Y-82641189D01*
X134972931Y-82619898D01*
X135119121Y-82506112D01*
X135123240Y-82502906D01*
X135207869Y-82410975D01*
X135272194Y-82341101D01*
X135272197Y-82341097D01*
X135275722Y-82337268D01*
X135364816Y-82200899D01*
X135418820Y-82154811D01*
X135489168Y-82145236D01*
X135553525Y-82175214D01*
X135575782Y-82200899D01*
X135661823Y-82332593D01*
X135668210Y-82340799D01*
X135813568Y-82498700D01*
X135821211Y-82505737D01*
X135990589Y-82637569D01*
X135999282Y-82643248D01*
X136188043Y-82745401D01*
X136197560Y-82749575D01*
X136400557Y-82819264D01*
X136410627Y-82821815D01*
X136468133Y-82831411D01*
X136481648Y-82829777D01*
X136486000Y-82815551D01*
X136486000Y-80183723D01*
X136482164Y-80170660D01*
X136467416Y-80168709D01*
X136410627Y-80178185D01*
X136400557Y-80180736D01*
X136197560Y-80250425D01*
X136188043Y-80254599D01*
X135999282Y-80356752D01*
X135990589Y-80362431D01*
X135821211Y-80494263D01*
X135813568Y-80501300D01*
X135668210Y-80659201D01*
X135661823Y-80667407D01*
X135575782Y-80799101D01*
X135521778Y-80845189D01*
X135451430Y-80854764D01*
X135387073Y-80824786D01*
X135364816Y-80799101D01*
X135278569Y-80667090D01*
X135275722Y-80662732D01*
X135272197Y-80658903D01*
X135272194Y-80658899D01*
X135149160Y-80525250D01*
X135123240Y-80497094D01*
X134969584Y-80377497D01*
X134949689Y-80362012D01*
X134949687Y-80362010D01*
X134945576Y-80358811D01*
X134887915Y-80327607D01*
X134752159Y-80254139D01*
X134752156Y-80254138D01*
X134747574Y-80251658D01*
X134534635Y-80178556D01*
X134529501Y-80177699D01*
X134529496Y-80177698D01*
X134317706Y-80142357D01*
X134317704Y-80142357D01*
X134312569Y-80141500D01*
X134087431Y-80141500D01*
X134082296Y-80142357D01*
X134082294Y-80142357D01*
X133870504Y-80177698D01*
X133870499Y-80177699D01*
X133865365Y-80178556D01*
X133652426Y-80251658D01*
X133647844Y-80254138D01*
X133647841Y-80254139D01*
X133512085Y-80327607D01*
X133454424Y-80358811D01*
X133450313Y-80362010D01*
X133450311Y-80362012D01*
X133430416Y-80377497D01*
X133276760Y-80497094D01*
X133250840Y-80525250D01*
X133127806Y-80658899D01*
X133127803Y-80658903D01*
X133124278Y-80662732D01*
X133121427Y-80667096D01*
X133035483Y-80798643D01*
X132981479Y-80844732D01*
X132911132Y-80854307D01*
X132846774Y-80824330D01*
X132824517Y-80798643D01*
X132738573Y-80667096D01*
X132735722Y-80662732D01*
X132732197Y-80658903D01*
X132732194Y-80658899D01*
X132609160Y-80525250D01*
X132583240Y-80497094D01*
X132429584Y-80377497D01*
X132409689Y-80362012D01*
X132409687Y-80362010D01*
X132405576Y-80358811D01*
X132347915Y-80327607D01*
X132212159Y-80254139D01*
X132212156Y-80254138D01*
X132207574Y-80251658D01*
X131994635Y-80178556D01*
X131989501Y-80177699D01*
X131989496Y-80177698D01*
X131777706Y-80142357D01*
X131777704Y-80142357D01*
X131772569Y-80141500D01*
X131547431Y-80141500D01*
X131542296Y-80142357D01*
X131542294Y-80142357D01*
X131330504Y-80177698D01*
X131330499Y-80177699D01*
X131325365Y-80178556D01*
X131112426Y-80251658D01*
X131107844Y-80254138D01*
X131107841Y-80254139D01*
X130972085Y-80327607D01*
X130914424Y-80358811D01*
X130910313Y-80362010D01*
X130910311Y-80362012D01*
X130890416Y-80377497D01*
X130736760Y-80497094D01*
X130710840Y-80525250D01*
X130587806Y-80658899D01*
X130587803Y-80658903D01*
X130584278Y-80662732D01*
X130581427Y-80667096D01*
X130495483Y-80798643D01*
X130441479Y-80844732D01*
X130371132Y-80854307D01*
X130306774Y-80824330D01*
X130284517Y-80798643D01*
X130198573Y-80667096D01*
X130195722Y-80662732D01*
X130192197Y-80658903D01*
X130192194Y-80658899D01*
X130069160Y-80525250D01*
X130043240Y-80497094D01*
X129889584Y-80377497D01*
X129869689Y-80362012D01*
X129869687Y-80362010D01*
X129865576Y-80358811D01*
X129807915Y-80327607D01*
X129672159Y-80254139D01*
X129672156Y-80254138D01*
X129667574Y-80251658D01*
X129454635Y-80178556D01*
X129449501Y-80177699D01*
X129449496Y-80177698D01*
X129237706Y-80142357D01*
X129237704Y-80142357D01*
X129232569Y-80141500D01*
X129007431Y-80141500D01*
X129002296Y-80142357D01*
X129002294Y-80142357D01*
X128790504Y-80177698D01*
X128790499Y-80177699D01*
X128785365Y-80178556D01*
X128572426Y-80251658D01*
X128567844Y-80254138D01*
X128567841Y-80254139D01*
X128432085Y-80327607D01*
X128374424Y-80358811D01*
X128370313Y-80362010D01*
X128370311Y-80362012D01*
X128350416Y-80377497D01*
X128196760Y-80497094D01*
X128170840Y-80525250D01*
X128047806Y-80658899D01*
X128047803Y-80658903D01*
X128044278Y-80662732D01*
X128041427Y-80667096D01*
X127955483Y-80798643D01*
X127901479Y-80844732D01*
X127831132Y-80854307D01*
X127766774Y-80824330D01*
X127744517Y-80798643D01*
X127658573Y-80667096D01*
X127655722Y-80662732D01*
X127652197Y-80658903D01*
X127652194Y-80658899D01*
X127529160Y-80525250D01*
X127503240Y-80497094D01*
X127349584Y-80377497D01*
X127329689Y-80362012D01*
X127329687Y-80362010D01*
X127325576Y-80358811D01*
X127267915Y-80327607D01*
X127132159Y-80254139D01*
X127132156Y-80254138D01*
X127127574Y-80251658D01*
X126914635Y-80178556D01*
X126909501Y-80177699D01*
X126909496Y-80177698D01*
X126697706Y-80142357D01*
X126697704Y-80142357D01*
X126692569Y-80141500D01*
X126467431Y-80141500D01*
X126462296Y-80142357D01*
X126462294Y-80142357D01*
X126250504Y-80177698D01*
X126250499Y-80177699D01*
X126245365Y-80178556D01*
X126032426Y-80251658D01*
X126027844Y-80254138D01*
X126027841Y-80254139D01*
X125892085Y-80327607D01*
X125834424Y-80358811D01*
X125830313Y-80362010D01*
X125830311Y-80362012D01*
X125810416Y-80377497D01*
X125656760Y-80497094D01*
X125630840Y-80525250D01*
X125507806Y-80658899D01*
X125507803Y-80658903D01*
X125504278Y-80662732D01*
X125501427Y-80667096D01*
X125415483Y-80798643D01*
X125361479Y-80844732D01*
X125291132Y-80854307D01*
X125226774Y-80824330D01*
X125204517Y-80798643D01*
X125118573Y-80667096D01*
X125115722Y-80662732D01*
X125112197Y-80658903D01*
X125112194Y-80658899D01*
X124989160Y-80525250D01*
X124963240Y-80497094D01*
X124809584Y-80377497D01*
X124789689Y-80362012D01*
X124789687Y-80362010D01*
X124785576Y-80358811D01*
X124727915Y-80327607D01*
X124592159Y-80254139D01*
X124592156Y-80254138D01*
X124587574Y-80251658D01*
X124374635Y-80178556D01*
X124369501Y-80177699D01*
X124369496Y-80177698D01*
X124157706Y-80142357D01*
X124157704Y-80142357D01*
X124152569Y-80141500D01*
X123927431Y-80141500D01*
X123922296Y-80142357D01*
X123922294Y-80142357D01*
X123710504Y-80177698D01*
X123710499Y-80177699D01*
X123705365Y-80178556D01*
X123492426Y-80251658D01*
X123487844Y-80254138D01*
X123487841Y-80254139D01*
X123352085Y-80327607D01*
X123294424Y-80358811D01*
X123290313Y-80362010D01*
X123290311Y-80362012D01*
X123270416Y-80377497D01*
X123116760Y-80497094D01*
X123090840Y-80525250D01*
X123055375Y-80563775D01*
X122994521Y-80600346D01*
X122923557Y-80598211D01*
X122865012Y-80558049D01*
X122844618Y-80522469D01*
X122803595Y-80412480D01*
X122795046Y-80396824D01*
X122718302Y-80294307D01*
X122705693Y-80281698D01*
X122603176Y-80204954D01*
X122587520Y-80196405D01*
X122466478Y-80151259D01*
X122451257Y-80147662D01*
X122401938Y-80142360D01*
X122395223Y-80142000D01*
X121772115Y-80142000D01*
X121756876Y-80146475D01*
X121755671Y-80147865D01*
X121754000Y-80155548D01*
X121754000Y-82839885D01*
X121246000Y-82839885D01*
X121246000Y-81772115D01*
X121241525Y-81756876D01*
X121240135Y-81755671D01*
X121232452Y-81754000D01*
X120160115Y-81754000D01*
X120144876Y-81758475D01*
X120143671Y-81759865D01*
X120142000Y-81767548D01*
X120142000Y-82395223D01*
X116850500Y-82395223D01*
X116850500Y-81625472D01*
X116850653Y-81625472D01*
X116850500Y-81624758D01*
X116851040Y-81529448D01*
X116851045Y-81528793D01*
X116852758Y-81371100D01*
X116853860Y-81355789D01*
X116869315Y-81240070D01*
X116869596Y-81238088D01*
X116871124Y-81227885D01*
X120142000Y-81227885D01*
X120146475Y-81243124D01*
X120147865Y-81244329D01*
X120155548Y-81246000D01*
X121227885Y-81246000D01*
X121243124Y-81241525D01*
X121244329Y-81240135D01*
X121246000Y-81232452D01*
X121246000Y-80160115D01*
X121241525Y-80144876D01*
X121240135Y-80143671D01*
X121232452Y-80142000D01*
X120604777Y-80142000D01*
X120598062Y-80142360D01*
X120548743Y-80147662D01*
X120533522Y-80151259D01*
X120412480Y-80196405D01*
X120396824Y-80204954D01*
X120294307Y-80281698D01*
X120281698Y-80294307D01*
X120204954Y-80396824D01*
X120196405Y-80412480D01*
X120151259Y-80533522D01*
X120147662Y-80548743D01*
X120142360Y-80598062D01*
X120142000Y-80604777D01*
X120142000Y-81227885D01*
X116871124Y-81227885D01*
X116889149Y-81107527D01*
X116891990Y-81093812D01*
X116902946Y-81052606D01*
X116923097Y-80976820D01*
X116923992Y-80973626D01*
X116960064Y-80851118D01*
X116964250Y-80839155D01*
X117010589Y-80725448D01*
X117012432Y-80721156D01*
X117040538Y-80658899D01*
X117064265Y-80606340D01*
X117069390Y-80596227D01*
X117130152Y-80488632D01*
X117133229Y-80483475D01*
X117199930Y-80377497D01*
X117205592Y-80369246D01*
X117210679Y-80362431D01*
X117279749Y-80269893D01*
X117284297Y-80264157D01*
X117364687Y-80168607D01*
X117370495Y-80162167D01*
X117388369Y-80143671D01*
X117456749Y-80072910D01*
X117462942Y-80066927D01*
X117555716Y-79983290D01*
X117561294Y-79978549D01*
X117658056Y-79901034D01*
X117666103Y-79895097D01*
X117743664Y-79842493D01*
X117769727Y-79824817D01*
X117774774Y-79821567D01*
X117839620Y-79781961D01*
X117880241Y-79757151D01*
X117890143Y-79751698D01*
X118003207Y-79695925D01*
X118007404Y-79693951D01*
X118119418Y-79643769D01*
X118131229Y-79639176D01*
X118252436Y-79598933D01*
X118255616Y-79597923D01*
X118371466Y-79562836D01*
X118385076Y-79559528D01*
X118514927Y-79535514D01*
X118516897Y-79535166D01*
X118569647Y-79526275D01*
X118632009Y-79515763D01*
X118647251Y-79514141D01*
X118706530Y-79511461D01*
X118801195Y-79507182D01*
X118801860Y-79507153D01*
X118873633Y-79504289D01*
X118899043Y-79503275D01*
X118904103Y-79503175D01*
X169845922Y-79525498D01*
G37*
G04 #@! TD.AperFunction*
M02*
