%TF.GenerationSoftware,KiCad,Pcbnew,(6.99.0-2815-gbbc0c61ccb)*%
%TF.CreationDate,2023-01-22T02:42:39+07:00*%
%TF.ProjectId,ESP32-MODBUS-RS485-SHIELD,45535033-322d-44d4-9f44-4255532d5253,rev?*%
%TF.SameCoordinates,Original*%
%TF.FileFunction,Drillmap*%
%TF.FilePolarity,Positive*%
%FSLAX45Y45*%
G04 Gerber Fmt 4.5, Leading zero omitted, Abs format (unit mm)*
G04 Created by KiCad (PCBNEW (6.99.0-2815-gbbc0c61ccb)) date 2023-01-22 02:42:39*
%MOMM*%
%LPD*%
G01*
G04 APERTURE LIST*
%ADD10C,0.100000*%
%ADD11C,0.200000*%
G04 APERTURE END LIST*
D10*
X11890090Y-7950270D02*
G75*
G03*
X11685000Y-8162500I-4750J-200620D01*
G01*
X16985000Y-10892500D02*
X11885000Y-10892500D01*
X11685000Y-10692500D02*
G75*
G03*
X11885000Y-10892500I200000J0D01*
G01*
X17185000Y-8152500D02*
G75*
G03*
X16985000Y-7952500I-200000J0D01*
G01*
X17185000Y-8152500D02*
X17185000Y-10692500D01*
X11685000Y-10692500D02*
X11685000Y-8162500D01*
X11890090Y-7950267D02*
X16985000Y-7952500D01*
X16985000Y-10892500D02*
G75*
G03*
X17185000Y-10692500I0J200000D01*
G01*
D11*
X11927283Y-11190976D02*
X11927283Y-10990976D01*
X11927283Y-10990976D02*
X11974902Y-10990976D01*
X11974902Y-10990976D02*
X12003473Y-11000500D01*
X12003473Y-11000500D02*
X12022521Y-11019548D01*
X12022521Y-11019548D02*
X12032045Y-11038595D01*
X12032045Y-11038595D02*
X12041569Y-11076690D01*
X12041569Y-11076690D02*
X12041569Y-11105262D01*
X12041569Y-11105262D02*
X12032045Y-11143357D01*
X12032045Y-11143357D02*
X12022521Y-11162405D01*
X12022521Y-11162405D02*
X12003473Y-11181452D01*
X12003473Y-11181452D02*
X11974902Y-11190976D01*
X11974902Y-11190976D02*
X11927283Y-11190976D01*
X12127283Y-11190976D02*
X12127283Y-11057643D01*
X12127283Y-11095738D02*
X12136807Y-11076690D01*
X12136807Y-11076690D02*
X12146330Y-11067167D01*
X12146330Y-11067167D02*
X12165378Y-11057643D01*
X12165378Y-11057643D02*
X12184426Y-11057643D01*
X12251092Y-11190976D02*
X12251092Y-11057643D01*
X12251092Y-10990976D02*
X12241569Y-11000500D01*
X12241569Y-11000500D02*
X12251092Y-11010024D01*
X12251092Y-11010024D02*
X12260616Y-11000500D01*
X12260616Y-11000500D02*
X12251092Y-10990976D01*
X12251092Y-10990976D02*
X12251092Y-11010024D01*
X12374902Y-11190976D02*
X12355854Y-11181452D01*
X12355854Y-11181452D02*
X12346330Y-11162405D01*
X12346330Y-11162405D02*
X12346330Y-10990976D01*
X12479664Y-11190976D02*
X12460616Y-11181452D01*
X12460616Y-11181452D02*
X12451092Y-11162405D01*
X12451092Y-11162405D02*
X12451092Y-10990976D01*
X12675854Y-11190976D02*
X12675854Y-10990976D01*
X12675854Y-10990976D02*
X12742521Y-11133833D01*
X12742521Y-11133833D02*
X12809188Y-10990976D01*
X12809188Y-10990976D02*
X12809188Y-11190976D01*
X12990140Y-11190976D02*
X12990140Y-11086214D01*
X12990140Y-11086214D02*
X12980616Y-11067167D01*
X12980616Y-11067167D02*
X12961569Y-11057643D01*
X12961569Y-11057643D02*
X12923473Y-11057643D01*
X12923473Y-11057643D02*
X12904426Y-11067167D01*
X12990140Y-11181452D02*
X12971092Y-11190976D01*
X12971092Y-11190976D02*
X12923473Y-11190976D01*
X12923473Y-11190976D02*
X12904426Y-11181452D01*
X12904426Y-11181452D02*
X12894902Y-11162405D01*
X12894902Y-11162405D02*
X12894902Y-11143357D01*
X12894902Y-11143357D02*
X12904426Y-11124310D01*
X12904426Y-11124310D02*
X12923473Y-11114786D01*
X12923473Y-11114786D02*
X12971092Y-11114786D01*
X12971092Y-11114786D02*
X12990140Y-11105262D01*
X13085378Y-11057643D02*
X13085378Y-11257643D01*
X13085378Y-11067167D02*
X13104426Y-11057643D01*
X13104426Y-11057643D02*
X13142521Y-11057643D01*
X13142521Y-11057643D02*
X13161569Y-11067167D01*
X13161569Y-11067167D02*
X13171092Y-11076690D01*
X13171092Y-11076690D02*
X13180616Y-11095738D01*
X13180616Y-11095738D02*
X13180616Y-11152881D01*
X13180616Y-11152881D02*
X13171092Y-11171929D01*
X13171092Y-11171929D02*
X13161569Y-11181452D01*
X13161569Y-11181452D02*
X13142521Y-11190976D01*
X13142521Y-11190976D02*
X13104426Y-11190976D01*
X13104426Y-11190976D02*
X13085378Y-11181452D01*
X13266330Y-11171929D02*
X13275854Y-11181452D01*
X13275854Y-11181452D02*
X13266330Y-11190976D01*
X13266330Y-11190976D02*
X13256807Y-11181452D01*
X13256807Y-11181452D02*
X13266330Y-11171929D01*
X13266330Y-11171929D02*
X13266330Y-11190976D01*
X13266330Y-11067167D02*
X13275854Y-11076690D01*
X13275854Y-11076690D02*
X13266330Y-11086214D01*
X13266330Y-11086214D02*
X13256807Y-11076690D01*
X13256807Y-11076690D02*
X13266330Y-11067167D01*
X13266330Y-11067167D02*
X13266330Y-11086214D01*
M02*
