%TF.GenerationSoftware,KiCad,Pcbnew,8.0.5*%
%TF.CreationDate,2025-01-12T16:45:05+07:00*%
%TF.ProjectId,ESP32-MODBUS-RS485-SHIELD,45535033-322d-44d4-9f44-4255532d5253,rev?*%
%TF.SameCoordinates,Original*%
%TF.FileFunction,Soldermask,Top*%
%TF.FilePolarity,Negative*%
%FSLAX46Y46*%
G04 Gerber Fmt 4.6, Leading zero omitted, Abs format (unit mm)*
G04 Created by KiCad (PCBNEW 8.0.5) date 2025-01-12 16:45:05*
%MOMM*%
%LPD*%
G01*
G04 APERTURE LIST*
G04 Aperture macros list*
%AMRoundRect*
0 Rectangle with rounded corners*
0 $1 Rounding radius*
0 $2 $3 $4 $5 $6 $7 $8 $9 X,Y pos of 4 corners*
0 Add a 4 corners polygon primitive as box body*
4,1,4,$2,$3,$4,$5,$6,$7,$8,$9,$2,$3,0*
0 Add four circle primitives for the rounded corners*
1,1,$1+$1,$2,$3*
1,1,$1+$1,$4,$5*
1,1,$1+$1,$6,$7*
1,1,$1+$1,$8,$9*
0 Add four rect primitives between the rounded corners*
20,1,$1+$1,$2,$3,$4,$5,0*
20,1,$1+$1,$4,$5,$6,$7,0*
20,1,$1+$1,$6,$7,$8,$9,0*
20,1,$1+$1,$8,$9,$2,$3,0*%
G04 Aperture macros list end*
%ADD10RoundRect,0.200000X0.200000X0.275000X-0.200000X0.275000X-0.200000X-0.275000X0.200000X-0.275000X0*%
%ADD11RoundRect,0.250000X0.375000X0.625000X-0.375000X0.625000X-0.375000X-0.625000X0.375000X-0.625000X0*%
%ADD12RoundRect,0.200000X0.275000X-0.200000X0.275000X0.200000X-0.275000X0.200000X-0.275000X-0.200000X0*%
%ADD13RoundRect,0.250000X0.412500X0.925000X-0.412500X0.925000X-0.412500X-0.925000X0.412500X-0.925000X0*%
%ADD14RoundRect,0.250000X1.550000X-0.650000X1.550000X0.650000X-1.550000X0.650000X-1.550000X-0.650000X0*%
%ADD15O,3.600000X1.800000*%
%ADD16R,1.700000X1.700000*%
%ADD17O,1.700000X1.700000*%
%ADD18RoundRect,0.150000X-0.587500X-0.150000X0.587500X-0.150000X0.587500X0.150000X-0.587500X0.150000X0*%
%ADD19RoundRect,0.218750X0.218750X0.256250X-0.218750X0.256250X-0.218750X-0.256250X0.218750X-0.256250X0*%
%ADD20RoundRect,0.250000X-0.312500X-1.450000X0.312500X-1.450000X0.312500X1.450000X-0.312500X1.450000X0*%
%ADD21R,2.500000X1.800000*%
%ADD22RoundRect,0.225000X0.225000X0.250000X-0.225000X0.250000X-0.225000X-0.250000X0.225000X-0.250000X0*%
%ADD23R,2.200000X0.600000*%
%ADD24O,2.200000X0.600000*%
G04 APERTURE END LIST*
D10*
%TO.C,R42*%
X134725000Y-92700000D03*
X136375000Y-92700000D03*
%TD*%
D11*
%TO.C,F3*%
X145000000Y-86700000D03*
X142200000Y-86700000D03*
%TD*%
D10*
%TO.C,R40*%
X134725000Y-86650000D03*
X136375000Y-86650000D03*
%TD*%
D12*
%TO.C,R39*%
X132650000Y-100625000D03*
X132650000Y-102275000D03*
%TD*%
D13*
%TO.C,C5*%
X145237500Y-89700000D03*
X142162500Y-89700000D03*
%TD*%
D14*
%TO.C,J9*%
X163667500Y-97670000D03*
D15*
X163667500Y-94170000D03*
X163667500Y-90670000D03*
%TD*%
D16*
%TO.C,J1*%
X121490000Y-106925000D03*
D17*
X124030000Y-106925000D03*
X126570000Y-106925000D03*
X129110000Y-106925000D03*
X131650000Y-106925000D03*
X134190000Y-106925000D03*
X136730000Y-106925000D03*
X139270000Y-106925000D03*
X141810000Y-106925000D03*
X144350000Y-106925000D03*
X146890000Y-106925000D03*
X149430000Y-106925000D03*
X151970000Y-106925000D03*
X154510000Y-106925000D03*
X157050000Y-106925000D03*
X159590000Y-106925000D03*
X162130000Y-106925000D03*
X164670000Y-106925000D03*
X167210000Y-106925000D03*
%TD*%
D12*
%TO.C,R41*%
X132650000Y-88425000D03*
X132650000Y-90075000D03*
%TD*%
D18*
%TO.C,Q19*%
X134612500Y-94350000D03*
X134612500Y-96250000D03*
X136487500Y-95300000D03*
%TD*%
D19*
%TO.C,D36*%
X167587500Y-103950000D03*
X166012500Y-103950000D03*
%TD*%
D20*
%TO.C,F1*%
X150862500Y-86300000D03*
X155137500Y-86300000D03*
%TD*%
D21*
%TO.C,D34*%
X155000000Y-98050000D03*
X151000000Y-98050000D03*
%TD*%
D10*
%TO.C,R45*%
X162275000Y-103950000D03*
X163925000Y-103950000D03*
%TD*%
%TO.C,R38*%
X134725000Y-98830000D03*
X136375000Y-98830000D03*
%TD*%
%TO.C,R47*%
X162275000Y-101900000D03*
X163925000Y-101900000D03*
%TD*%
D22*
%TO.C,C3*%
X144492500Y-92450000D03*
X142942500Y-92450000D03*
%TD*%
D16*
%TO.C,J10*%
X166675000Y-85600000D03*
D17*
X164135000Y-85600000D03*
%TD*%
D21*
%TO.C,D35*%
X151000000Y-90362500D03*
X155000000Y-90362500D03*
%TD*%
D20*
%TO.C,F2*%
X150862500Y-101950000D03*
X155137500Y-101950000D03*
%TD*%
D23*
%TO.C,U11*%
X141181060Y-94645000D03*
D24*
X141181060Y-95915000D03*
X141181060Y-97185000D03*
X141181060Y-98455000D03*
X146380940Y-98455000D03*
X146380940Y-97185000D03*
X146380940Y-95915000D03*
X146380940Y-94645000D03*
%TD*%
D10*
%TO.C,R36*%
X159125000Y-85700000D03*
X160775000Y-85700000D03*
%TD*%
D12*
%TO.C,R43*%
X132650000Y-94475000D03*
X132650000Y-96125000D03*
%TD*%
D18*
%TO.C,Q18*%
X134612500Y-88300000D03*
X134612500Y-90200000D03*
X136487500Y-89250000D03*
%TD*%
D21*
%TO.C,D33*%
X155000000Y-94225000D03*
X151000000Y-94225000D03*
%TD*%
D18*
%TO.C,Q17*%
X134612500Y-100500000D03*
X134612500Y-102400000D03*
X136487500Y-101450000D03*
%TD*%
D16*
%TO.C,J2*%
X121500000Y-81500000D03*
D17*
X124040000Y-81500000D03*
X126580000Y-81500000D03*
X129120000Y-81500000D03*
X131660000Y-81500000D03*
X134200000Y-81500000D03*
X136740000Y-81500000D03*
X139280000Y-81500000D03*
X141820000Y-81500000D03*
X144360000Y-81500000D03*
X146900000Y-81500000D03*
X149440000Y-81500000D03*
X151980000Y-81500000D03*
X154520000Y-81500000D03*
X157060000Y-81500000D03*
X159600000Y-81500000D03*
X162140000Y-81500000D03*
X164680000Y-81500000D03*
X167220000Y-81500000D03*
%TD*%
D19*
%TO.C,D37*%
X167587500Y-101900000D03*
X166012500Y-101900000D03*
%TD*%
M02*
