G04 #@! TF.GenerationSoftware,KiCad,Pcbnew,(6.99.0-2815-gbbc0c61ccb)*
G04 #@! TF.CreationDate,2023-01-22T02:42:31+07:00*
G04 #@! TF.ProjectId,ESP32-MODBUS-RS485-SHIELD,45535033-322d-44d4-9f44-4255532d5253,rev?*
G04 #@! TF.SameCoordinates,Original*
G04 #@! TF.FileFunction,Copper,L1,Top*
G04 #@! TF.FilePolarity,Positive*
%FSLAX46Y46*%
G04 Gerber Fmt 4.6, Leading zero omitted, Abs format (unit mm)*
G04 Created by KiCad (PCBNEW (6.99.0-2815-gbbc0c61ccb)) date 2023-01-22 02:42:31*
%MOMM*%
%LPD*%
G01*
G04 APERTURE LIST*
G04 Aperture macros list*
%AMRoundRect*
0 Rectangle with rounded corners*
0 $1 Rounding radius*
0 $2 $3 $4 $5 $6 $7 $8 $9 X,Y pos of 4 corners*
0 Add a 4 corners polygon primitive as box body*
4,1,4,$2,$3,$4,$5,$6,$7,$8,$9,$2,$3,0*
0 Add four circle primitives for the rounded corners*
1,1,$1+$1,$2,$3*
1,1,$1+$1,$4,$5*
1,1,$1+$1,$6,$7*
1,1,$1+$1,$8,$9*
0 Add four rect primitives between the rounded corners*
20,1,$1+$1,$2,$3,$4,$5,0*
20,1,$1+$1,$4,$5,$6,$7,0*
20,1,$1+$1,$6,$7,$8,$9,0*
20,1,$1+$1,$8,$9,$2,$3,0*%
G04 Aperture macros list end*
G04 #@! TA.AperFunction,SMDPad,CuDef*
%ADD10RoundRect,0.200000X0.200000X0.275000X-0.200000X0.275000X-0.200000X-0.275000X0.200000X-0.275000X0*%
G04 #@! TD*
G04 #@! TA.AperFunction,SMDPad,CuDef*
%ADD11RoundRect,0.250000X0.375000X0.625000X-0.375000X0.625000X-0.375000X-0.625000X0.375000X-0.625000X0*%
G04 #@! TD*
G04 #@! TA.AperFunction,SMDPad,CuDef*
%ADD12RoundRect,0.200000X0.275000X-0.200000X0.275000X0.200000X-0.275000X0.200000X-0.275000X-0.200000X0*%
G04 #@! TD*
G04 #@! TA.AperFunction,SMDPad,CuDef*
%ADD13RoundRect,0.250000X0.412500X0.925000X-0.412500X0.925000X-0.412500X-0.925000X0.412500X-0.925000X0*%
G04 #@! TD*
G04 #@! TA.AperFunction,ComponentPad*
%ADD14RoundRect,0.250000X1.550000X-0.650000X1.550000X0.650000X-1.550000X0.650000X-1.550000X-0.650000X0*%
G04 #@! TD*
G04 #@! TA.AperFunction,ComponentPad*
%ADD15O,3.600000X1.800000*%
G04 #@! TD*
G04 #@! TA.AperFunction,ComponentPad*
%ADD16R,1.700000X1.700000*%
G04 #@! TD*
G04 #@! TA.AperFunction,ComponentPad*
%ADD17O,1.700000X1.700000*%
G04 #@! TD*
G04 #@! TA.AperFunction,SMDPad,CuDef*
%ADD18RoundRect,0.150000X-0.587500X-0.150000X0.587500X-0.150000X0.587500X0.150000X-0.587500X0.150000X0*%
G04 #@! TD*
G04 #@! TA.AperFunction,SMDPad,CuDef*
%ADD19RoundRect,0.218750X0.218750X0.256250X-0.218750X0.256250X-0.218750X-0.256250X0.218750X-0.256250X0*%
G04 #@! TD*
G04 #@! TA.AperFunction,SMDPad,CuDef*
%ADD20RoundRect,0.250000X-0.312500X-1.450000X0.312500X-1.450000X0.312500X1.450000X-0.312500X1.450000X0*%
G04 #@! TD*
G04 #@! TA.AperFunction,SMDPad,CuDef*
%ADD21R,2.500000X1.800000*%
G04 #@! TD*
G04 #@! TA.AperFunction,SMDPad,CuDef*
%ADD22RoundRect,0.225000X0.225000X0.250000X-0.225000X0.250000X-0.225000X-0.250000X0.225000X-0.250000X0*%
G04 #@! TD*
G04 #@! TA.AperFunction,SMDPad,CuDef*
%ADD23R,2.200000X0.600000*%
G04 #@! TD*
G04 #@! TA.AperFunction,SMDPad,CuDef*
%ADD24O,2.200000X0.600000*%
G04 #@! TD*
G04 #@! TA.AperFunction,ViaPad*
%ADD25C,0.600000*%
G04 #@! TD*
G04 #@! TA.AperFunction,ViaPad*
%ADD26C,0.800000*%
G04 #@! TD*
G04 #@! TA.AperFunction,Conductor*
%ADD27C,0.203200*%
G04 #@! TD*
G04 #@! TA.AperFunction,Conductor*
%ADD28C,0.381000*%
G04 #@! TD*
G04 #@! TA.AperFunction,Conductor*
%ADD29C,0.508000*%
G04 #@! TD*
G04 #@! TA.AperFunction,Conductor*
%ADD30C,1.016000*%
G04 #@! TD*
G04 APERTURE END LIST*
D10*
X134725000Y-92700000D03*
X136375000Y-92700000D03*
D11*
X145000000Y-86700000D03*
X142200000Y-86700000D03*
D10*
X134725000Y-86650000D03*
X136375000Y-86650000D03*
D12*
X132650000Y-100625000D03*
X132650000Y-102275000D03*
D13*
X145237500Y-89700000D03*
X142162500Y-89700000D03*
D14*
X163667500Y-97670000D03*
D15*
X163667499Y-94169999D03*
X163667499Y-90669999D03*
D16*
X121489999Y-106924999D03*
D17*
X124029999Y-106924999D03*
X126569999Y-106924999D03*
X129109999Y-106924999D03*
X131649999Y-106924999D03*
X134189999Y-106924999D03*
X136729999Y-106924999D03*
X139269999Y-106924999D03*
X141809999Y-106924999D03*
X144349999Y-106924999D03*
X146889999Y-106924999D03*
X149429999Y-106924999D03*
X151969999Y-106924999D03*
X154509999Y-106924999D03*
X157049999Y-106924999D03*
X159589999Y-106924999D03*
X162129999Y-106924999D03*
X164669999Y-106924999D03*
X167209999Y-106924999D03*
D12*
X132650000Y-88425000D03*
X132650000Y-90075000D03*
D18*
X134612500Y-94350000D03*
X134612500Y-96250000D03*
X136487500Y-95300000D03*
D19*
X167587500Y-103950000D03*
X166012500Y-103950000D03*
D20*
X150862500Y-86300000D03*
X155137500Y-86300000D03*
D21*
X154999999Y-98049999D03*
X150999999Y-98049999D03*
D10*
X162275000Y-103950000D03*
X163925000Y-103950000D03*
X134725000Y-98830000D03*
X136375000Y-98830000D03*
X162275000Y-101900000D03*
X163925000Y-101900000D03*
D22*
X144492500Y-92450000D03*
X142942500Y-92450000D03*
D16*
X166674999Y-85599999D03*
D17*
X164134999Y-85599999D03*
D21*
X150999999Y-90362499D03*
X154999999Y-90362499D03*
D20*
X150862500Y-101950000D03*
X155137500Y-101950000D03*
D23*
X141181059Y-94644999D03*
D24*
X141181059Y-95914999D03*
X141181059Y-97184999D03*
X141181059Y-98454999D03*
X146380939Y-98454999D03*
X146380939Y-97184999D03*
X146380939Y-95914999D03*
X146380939Y-94644999D03*
D10*
X159125000Y-85700000D03*
X160775000Y-85700000D03*
D12*
X132650000Y-94475000D03*
X132650000Y-96125000D03*
D18*
X134612500Y-88300000D03*
X134612500Y-90200000D03*
X136487500Y-89250000D03*
D21*
X154999999Y-94224999D03*
X150999999Y-94224999D03*
D18*
X134612500Y-100500000D03*
X134612500Y-102400000D03*
X136487500Y-101450000D03*
D16*
X121499999Y-81499999D03*
D17*
X124039999Y-81499999D03*
X126579999Y-81499999D03*
X129119999Y-81499999D03*
X131659999Y-81499999D03*
X134199999Y-81499999D03*
X136739999Y-81499999D03*
X139279999Y-81499999D03*
X141819999Y-81499999D03*
X144359999Y-81499999D03*
X146899999Y-81499999D03*
X149439999Y-81499999D03*
X151979999Y-81499999D03*
X154519999Y-81499999D03*
X157059999Y-81499999D03*
X159599999Y-81499999D03*
X162139999Y-81499999D03*
X164679999Y-81499999D03*
X167219999Y-81499999D03*
D19*
X167587500Y-101900000D03*
X166012500Y-101900000D03*
D25*
X137050000Y-91350000D03*
X139800000Y-100350000D03*
X140950000Y-89700000D03*
X132750000Y-93000000D03*
X148900000Y-92250000D03*
X153050000Y-92250000D03*
X160800000Y-100400000D03*
X141400000Y-102950000D03*
X134900000Y-104350000D03*
X160800000Y-88450000D03*
X138900000Y-102950000D03*
X147750000Y-101250000D03*
X145400000Y-101250000D03*
X158100000Y-94050000D03*
X135900000Y-91350000D03*
X160950000Y-96100000D03*
X132800000Y-91650000D03*
X140900000Y-92450000D03*
X140050000Y-86800000D03*
X135350000Y-97500000D03*
X132650000Y-99100000D03*
X139000000Y-94950000D03*
X147800000Y-88900000D03*
X146700000Y-92250000D03*
X165450000Y-92400000D03*
X161500000Y-89100000D03*
X153000000Y-103200000D03*
X158300000Y-102700000D03*
X138650000Y-97800000D03*
X132550000Y-104350000D03*
X138650000Y-96750000D03*
X132650000Y-97450000D03*
X153000000Y-100750000D03*
X134100000Y-86700000D03*
X134100000Y-92700000D03*
X134100000Y-97650000D03*
X136250000Y-96500000D03*
X137600000Y-102300000D03*
X138698900Y-90100000D03*
D26*
X148050000Y-86700000D03*
X147000000Y-86700000D03*
D27*
X133225000Y-88425000D02*
X133400000Y-88250000D01*
X132650000Y-94475000D02*
X134487500Y-94475000D01*
D28*
X122400000Y-104000000D02*
X130500000Y-104000000D01*
X132650000Y-100625000D02*
X131575000Y-100625000D01*
X130500000Y-104000000D02*
X131450000Y-103050000D01*
D27*
X132775000Y-100500000D02*
X132650000Y-100625000D01*
D28*
X131700000Y-88500000D02*
X132575000Y-88500000D01*
D27*
X133400000Y-88250000D02*
X134562500Y-88250000D01*
X134612500Y-100500000D02*
X132775000Y-100500000D01*
D28*
X131450000Y-88750000D02*
X131700000Y-88500000D01*
X131450000Y-100500000D02*
X131450000Y-94550000D01*
X121490000Y-104910000D02*
X122400000Y-104000000D01*
D27*
X132650000Y-88425000D02*
X133225000Y-88425000D01*
D28*
X131525000Y-94475000D02*
X131450000Y-94550000D01*
D27*
X134487500Y-94475000D02*
X134612500Y-94350000D01*
D28*
X132575000Y-88500000D02*
X132650000Y-88425000D01*
X131450000Y-94550000D02*
X131450000Y-88750000D01*
X121490000Y-106925000D02*
X121490000Y-104910000D01*
X131450000Y-103050000D02*
X131450000Y-100500000D01*
X132650000Y-94475000D02*
X131525000Y-94475000D01*
D27*
X134562500Y-88250000D02*
X134612500Y-88300000D01*
D28*
X131575000Y-100625000D02*
X131450000Y-100500000D01*
X142162500Y-89700000D02*
X140950000Y-89700000D01*
X142942500Y-92992500D02*
X144300000Y-94350000D01*
X144300000Y-94350000D02*
X144300000Y-97950000D01*
X144805000Y-98455000D02*
X146380940Y-98455000D01*
X142162500Y-90412500D02*
X142942500Y-91192500D01*
D27*
X167587500Y-103950000D02*
X167587500Y-101900000D01*
D28*
X142942500Y-91192500D02*
X142942500Y-92450000D01*
X142942500Y-92450000D02*
X142942500Y-92992500D01*
X144300000Y-97950000D02*
X144805000Y-98455000D01*
X142162500Y-89700000D02*
X142162500Y-90412500D01*
D29*
X144492500Y-91707500D02*
X144492500Y-92450000D01*
D28*
X134100000Y-98205000D02*
X134725000Y-98830000D01*
X134725000Y-92700000D02*
X134100000Y-92700000D01*
D29*
X142850000Y-86700000D02*
X143750000Y-87600000D01*
X142200000Y-86700000D02*
X142850000Y-86700000D01*
D28*
X134725000Y-86650000D02*
X134150000Y-86650000D01*
D29*
X144492500Y-92450000D02*
X144750000Y-92450000D01*
X145237500Y-90962500D02*
X144492500Y-91707500D01*
X146380940Y-94080940D02*
X146380940Y-94645000D01*
X142200000Y-86150000D02*
X142200000Y-86700000D01*
X141550000Y-85500000D02*
X142200000Y-86150000D01*
X144600000Y-89700000D02*
X145237500Y-89700000D01*
D28*
X134100000Y-97650000D02*
X134100000Y-98205000D01*
D29*
X144750000Y-92450000D02*
X146380940Y-94080940D01*
X134725000Y-85975000D02*
X135200000Y-85500000D01*
X143750000Y-87600000D02*
X143750000Y-88850000D01*
X135200000Y-85500000D02*
X141550000Y-85500000D01*
D28*
X134150000Y-86650000D02*
X134100000Y-86700000D01*
D29*
X145237500Y-89700000D02*
X145237500Y-90962500D01*
X143750000Y-88850000D02*
X144600000Y-89700000D01*
X134725000Y-86650000D02*
X134725000Y-85975000D01*
X157412500Y-90362500D02*
X161220000Y-94170000D01*
X155000000Y-98050000D02*
X156850000Y-98050000D01*
X156850000Y-98050000D02*
X160730000Y-94170000D01*
X161220000Y-94170000D02*
X163667500Y-94170000D01*
X160730000Y-94170000D02*
X163667500Y-94170000D01*
X155000000Y-90362500D02*
X157412500Y-90362500D01*
X150862500Y-101950000D02*
X150862500Y-98187500D01*
X148900000Y-98050000D02*
X151000000Y-98050000D01*
X150862500Y-98187500D02*
X151000000Y-98050000D01*
X151175000Y-98050000D02*
X155000000Y-94225000D01*
X146380940Y-97185000D02*
X148035000Y-97185000D01*
X151000000Y-98050000D02*
X151175000Y-98050000D01*
X148035000Y-97185000D02*
X148900000Y-98050000D01*
X164135000Y-85600000D02*
X160875000Y-85600000D01*
X160875000Y-85600000D02*
X160775000Y-85700000D01*
D27*
X136375000Y-89137500D02*
X136487500Y-89250000D01*
X143000000Y-101800000D02*
X145250000Y-104050000D01*
X142495000Y-94645000D02*
X143000000Y-95150000D01*
X139650000Y-94300000D02*
X139995000Y-94645000D01*
X136487500Y-89250000D02*
X139050000Y-89250000D01*
X161550000Y-101900000D02*
X162275000Y-101900000D01*
X141181060Y-94645000D02*
X142495000Y-94645000D01*
X143000000Y-95150000D02*
X143000000Y-101800000D01*
X145250000Y-104050000D02*
X159400000Y-104050000D01*
X139650000Y-89850000D02*
X139650000Y-94300000D01*
X139050000Y-89250000D02*
X139650000Y-89850000D01*
X159400000Y-104050000D02*
X161550000Y-101900000D01*
X139995000Y-94645000D02*
X141181060Y-94645000D01*
X136375000Y-86650000D02*
X136375000Y-89137500D01*
D29*
X157100000Y-86300000D02*
X157700000Y-85700000D01*
X159125000Y-88575000D02*
X161220000Y-90670000D01*
X159125000Y-85700000D02*
X159125000Y-88575000D01*
X157700000Y-85700000D02*
X159125000Y-85700000D01*
X161220000Y-90670000D02*
X163667500Y-90670000D01*
X155137500Y-86300000D02*
X157100000Y-86300000D01*
X156900000Y-101950000D02*
X161180000Y-97670000D01*
X155137500Y-101950000D02*
X156900000Y-101950000D01*
X163667500Y-97670000D02*
X165580000Y-97670000D01*
X161180000Y-97670000D02*
X163667500Y-97670000D01*
X166675000Y-85600000D02*
X166675000Y-96575000D01*
X166675000Y-96575000D02*
X165580000Y-97670000D01*
D27*
X136375000Y-101337500D02*
X136487500Y-101450000D01*
X138720000Y-98830000D02*
X139095000Y-98455000D01*
X136375000Y-98830000D02*
X136375000Y-101337500D01*
X142400000Y-101800000D02*
X145053200Y-104453200D01*
X161350000Y-103950000D02*
X162275000Y-103950000D01*
X136375000Y-98830000D02*
X138720000Y-98830000D01*
X145053200Y-104453200D02*
X160846800Y-104453200D01*
X139095000Y-98455000D02*
X141181060Y-98455000D01*
X160846800Y-104453200D02*
X161350000Y-103950000D01*
X141181060Y-98455000D02*
X142400000Y-99673940D01*
X142400000Y-99673940D02*
X142400000Y-101800000D01*
X136375000Y-92700000D02*
X136375000Y-95187500D01*
X136487500Y-95300000D02*
X137900000Y-95300000D01*
X138515000Y-95915000D02*
X141181060Y-95915000D01*
X136375000Y-95187500D02*
X136487500Y-95300000D01*
X141181060Y-95915000D02*
X141181060Y-97185000D01*
X137900000Y-95300000D02*
X138515000Y-95915000D01*
D29*
X149275000Y-94225000D02*
X151000000Y-94225000D01*
X147585000Y-95915000D02*
X149275000Y-94225000D01*
X150862500Y-90225000D02*
X151000000Y-90362500D01*
X150862500Y-86300000D02*
X150862500Y-90225000D01*
X151000000Y-90362500D02*
X151000000Y-94225000D01*
X146380940Y-95915000D02*
X147585000Y-95915000D01*
D27*
X163925000Y-103950000D02*
X166012500Y-103950000D01*
X163925000Y-101900000D02*
X166012500Y-101900000D01*
X136000000Y-96250000D02*
X136250000Y-96500000D01*
X134612500Y-96250000D02*
X136000000Y-96250000D01*
X132650000Y-96125000D02*
X134487500Y-96125000D01*
X134487500Y-96125000D02*
X134612500Y-96250000D01*
X132650000Y-102275000D02*
X134487500Y-102275000D01*
X137500000Y-102400000D02*
X134612500Y-102400000D01*
X134487500Y-102275000D02*
X134612500Y-102400000D01*
X137600000Y-102300000D02*
X137500000Y-102400000D01*
X133525000Y-90075000D02*
X133700000Y-90250000D01*
X134562500Y-90250000D02*
X134612500Y-90200000D01*
X134612500Y-90200000D02*
X138598900Y-90200000D01*
X132650000Y-90075000D02*
X133525000Y-90075000D01*
X138598900Y-90200000D02*
X138698900Y-90100000D01*
X133700000Y-90250000D02*
X134562500Y-90250000D01*
D30*
X145000000Y-86700000D02*
X148050000Y-86700000D01*
G04 #@! TA.AperFunction,Conductor*
G36*
X169845922Y-79525498D02*
G01*
X169854083Y-79525768D01*
X169927997Y-79530612D01*
X169933242Y-79530956D01*
X169933977Y-79531006D01*
X169963401Y-79533111D01*
X170111445Y-79543699D01*
X170127038Y-79545799D01*
X170238302Y-79567931D01*
X170240503Y-79568389D01*
X170380117Y-79598760D01*
X170393836Y-79602568D01*
X170507624Y-79641194D01*
X170511155Y-79642451D01*
X170638711Y-79690027D01*
X170650406Y-79695077D01*
X170760600Y-79749418D01*
X170765235Y-79751825D01*
X170882407Y-79815805D01*
X170892017Y-79821624D01*
X170995223Y-79890584D01*
X171000722Y-79894475D01*
X171047492Y-79929487D01*
X171106648Y-79973771D01*
X171114216Y-79979907D01*
X171207935Y-80062096D01*
X171213953Y-80067733D01*
X171307267Y-80161047D01*
X171312904Y-80167065D01*
X171395093Y-80260784D01*
X171401229Y-80268352D01*
X171471343Y-80362012D01*
X171480519Y-80374270D01*
X171484416Y-80379777D01*
X171553376Y-80482983D01*
X171559195Y-80492593D01*
X171623175Y-80609765D01*
X171625582Y-80614400D01*
X171679923Y-80724594D01*
X171684973Y-80736289D01*
X171732549Y-80863845D01*
X171733806Y-80867376D01*
X171772432Y-80981164D01*
X171776240Y-80994883D01*
X171806611Y-81134497D01*
X171807069Y-81136698D01*
X171829201Y-81247962D01*
X171831301Y-81263555D01*
X171843993Y-81441010D01*
X171844044Y-81441758D01*
X171849230Y-81520881D01*
X171849500Y-81529122D01*
X171849500Y-106920878D01*
X171849230Y-106929119D01*
X171844044Y-107008242D01*
X171843993Y-107008990D01*
X171831301Y-107186445D01*
X171829201Y-107202038D01*
X171807069Y-107313302D01*
X171806611Y-107315503D01*
X171776240Y-107455117D01*
X171772432Y-107468836D01*
X171733806Y-107582624D01*
X171732549Y-107586155D01*
X171684973Y-107713711D01*
X171679923Y-107725406D01*
X171625582Y-107835600D01*
X171623175Y-107840235D01*
X171577399Y-107924069D01*
X171559199Y-107957400D01*
X171553376Y-107967017D01*
X171485736Y-108068248D01*
X171484416Y-108070223D01*
X171480525Y-108075722D01*
X171429667Y-108143659D01*
X171401229Y-108181648D01*
X171395093Y-108189216D01*
X171312904Y-108282935D01*
X171307267Y-108288953D01*
X171213953Y-108382267D01*
X171207935Y-108387904D01*
X171114216Y-108470093D01*
X171106648Y-108476229D01*
X171000730Y-108555519D01*
X170995223Y-108559416D01*
X170892017Y-108628376D01*
X170882407Y-108634195D01*
X170765235Y-108698175D01*
X170760600Y-108700582D01*
X170650406Y-108754923D01*
X170638711Y-108759973D01*
X170511155Y-108807549D01*
X170507624Y-108808806D01*
X170393836Y-108847432D01*
X170380117Y-108851240D01*
X170240503Y-108881611D01*
X170238302Y-108882069D01*
X170127038Y-108904201D01*
X170111445Y-108906301D01*
X169963401Y-108916889D01*
X169933977Y-108918994D01*
X169933242Y-108919044D01*
X169854119Y-108924230D01*
X169845878Y-108924500D01*
X118854122Y-108924500D01*
X118845881Y-108924230D01*
X118766758Y-108919044D01*
X118766023Y-108918994D01*
X118736599Y-108916889D01*
X118588555Y-108906301D01*
X118572962Y-108904201D01*
X118461698Y-108882069D01*
X118459497Y-108881611D01*
X118319883Y-108851240D01*
X118306164Y-108847432D01*
X118192376Y-108808806D01*
X118188845Y-108807549D01*
X118061289Y-108759973D01*
X118049594Y-108754923D01*
X117939400Y-108700582D01*
X117934765Y-108698175D01*
X117817593Y-108634195D01*
X117807983Y-108628376D01*
X117704777Y-108559416D01*
X117699270Y-108555519D01*
X117593352Y-108476229D01*
X117585784Y-108470093D01*
X117492065Y-108387904D01*
X117486047Y-108382267D01*
X117392733Y-108288953D01*
X117387096Y-108282935D01*
X117304907Y-108189216D01*
X117298771Y-108181648D01*
X117270333Y-108143659D01*
X117219475Y-108075722D01*
X117215584Y-108070223D01*
X117214265Y-108068248D01*
X117146624Y-107967017D01*
X117140801Y-107957400D01*
X117122601Y-107924069D01*
X117076825Y-107840235D01*
X117074418Y-107835600D01*
X117068519Y-107823638D01*
X120131500Y-107823638D01*
X120138011Y-107884201D01*
X120189111Y-108021204D01*
X120194510Y-108028416D01*
X120194511Y-108028418D01*
X120220390Y-108062988D01*
X120276739Y-108138261D01*
X120393796Y-108225889D01*
X120530799Y-108276989D01*
X120567705Y-108280957D01*
X120588012Y-108283140D01*
X120588015Y-108283140D01*
X120591362Y-108283500D01*
X122388638Y-108283500D01*
X122391985Y-108283140D01*
X122391988Y-108283140D01*
X122412295Y-108280957D01*
X122449201Y-108276989D01*
X122586204Y-108225889D01*
X122703261Y-108138261D01*
X122759610Y-108062988D01*
X122785489Y-108028418D01*
X122785490Y-108028416D01*
X122790889Y-108021204D01*
X122834998Y-107902944D01*
X122877545Y-107846108D01*
X122944065Y-107821297D01*
X123013439Y-107836388D01*
X123045755Y-107861638D01*
X123066526Y-107884201D01*
X123106760Y-107927906D01*
X123284424Y-108066189D01*
X123342085Y-108097393D01*
X123424914Y-108142218D01*
X123482426Y-108173342D01*
X123695365Y-108246444D01*
X123700499Y-108247301D01*
X123700504Y-108247302D01*
X123912294Y-108282643D01*
X123912296Y-108282643D01*
X123917431Y-108283500D01*
X124142569Y-108283500D01*
X124147704Y-108282643D01*
X124147706Y-108282643D01*
X124359496Y-108247302D01*
X124359501Y-108247301D01*
X124364635Y-108246444D01*
X124577574Y-108173342D01*
X124635087Y-108142218D01*
X124717915Y-108097393D01*
X124775576Y-108066189D01*
X124953240Y-107927906D01*
X125037489Y-107836388D01*
X125102194Y-107766101D01*
X125102197Y-107766097D01*
X125105722Y-107762268D01*
X125194517Y-107626357D01*
X125248521Y-107580268D01*
X125318868Y-107570693D01*
X125383226Y-107600670D01*
X125405483Y-107626357D01*
X125494278Y-107762268D01*
X125497803Y-107766097D01*
X125497806Y-107766101D01*
X125562511Y-107836388D01*
X125646760Y-107927906D01*
X125824424Y-108066189D01*
X125882085Y-108097393D01*
X125964914Y-108142218D01*
X126022426Y-108173342D01*
X126235365Y-108246444D01*
X126240499Y-108247301D01*
X126240504Y-108247302D01*
X126452294Y-108282643D01*
X126452296Y-108282643D01*
X126457431Y-108283500D01*
X126682569Y-108283500D01*
X126687704Y-108282643D01*
X126687706Y-108282643D01*
X126899496Y-108247302D01*
X126899501Y-108247301D01*
X126904635Y-108246444D01*
X127117574Y-108173342D01*
X127175087Y-108142218D01*
X127257915Y-108097393D01*
X127315576Y-108066189D01*
X127493240Y-107927906D01*
X127577489Y-107836388D01*
X127642194Y-107766101D01*
X127642197Y-107766097D01*
X127645722Y-107762268D01*
X127734517Y-107626357D01*
X127788521Y-107580268D01*
X127858868Y-107570693D01*
X127923226Y-107600670D01*
X127945483Y-107626357D01*
X128034278Y-107762268D01*
X128037803Y-107766097D01*
X128037806Y-107766101D01*
X128102511Y-107836388D01*
X128186760Y-107927906D01*
X128364424Y-108066189D01*
X128422085Y-108097393D01*
X128504914Y-108142218D01*
X128562426Y-108173342D01*
X128775365Y-108246444D01*
X128780499Y-108247301D01*
X128780504Y-108247302D01*
X128992294Y-108282643D01*
X128992296Y-108282643D01*
X128997431Y-108283500D01*
X129222569Y-108283500D01*
X129227704Y-108282643D01*
X129227706Y-108282643D01*
X129439496Y-108247302D01*
X129439501Y-108247301D01*
X129444635Y-108246444D01*
X129657574Y-108173342D01*
X129715087Y-108142218D01*
X129797915Y-108097393D01*
X129855576Y-108066189D01*
X130033240Y-107927906D01*
X130117489Y-107836388D01*
X130182194Y-107766101D01*
X130182197Y-107766097D01*
X130185722Y-107762268D01*
X130274517Y-107626357D01*
X130328521Y-107580268D01*
X130398868Y-107570693D01*
X130463226Y-107600670D01*
X130485483Y-107626357D01*
X130574278Y-107762268D01*
X130577803Y-107766097D01*
X130577806Y-107766101D01*
X130642511Y-107836388D01*
X130726760Y-107927906D01*
X130904424Y-108066189D01*
X130962085Y-108097393D01*
X131044914Y-108142218D01*
X131102426Y-108173342D01*
X131315365Y-108246444D01*
X131320499Y-108247301D01*
X131320504Y-108247302D01*
X131532294Y-108282643D01*
X131532296Y-108282643D01*
X131537431Y-108283500D01*
X131762569Y-108283500D01*
X131767704Y-108282643D01*
X131767706Y-108282643D01*
X131979496Y-108247302D01*
X131979501Y-108247301D01*
X131984635Y-108246444D01*
X132197574Y-108173342D01*
X132255087Y-108142218D01*
X132337915Y-108097393D01*
X132395576Y-108066189D01*
X132573240Y-107927906D01*
X132657489Y-107836388D01*
X132722194Y-107766101D01*
X132722197Y-107766097D01*
X132725722Y-107762268D01*
X132814517Y-107626357D01*
X132868521Y-107580268D01*
X132938868Y-107570693D01*
X133003226Y-107600670D01*
X133025483Y-107626357D01*
X133114278Y-107762268D01*
X133117803Y-107766097D01*
X133117806Y-107766101D01*
X133182511Y-107836388D01*
X133266760Y-107927906D01*
X133444424Y-108066189D01*
X133502085Y-108097393D01*
X133584914Y-108142218D01*
X133642426Y-108173342D01*
X133855365Y-108246444D01*
X133860499Y-108247301D01*
X133860504Y-108247302D01*
X134072294Y-108282643D01*
X134072296Y-108282643D01*
X134077431Y-108283500D01*
X134302569Y-108283500D01*
X134307704Y-108282643D01*
X134307706Y-108282643D01*
X134519496Y-108247302D01*
X134519501Y-108247301D01*
X134524635Y-108246444D01*
X134737574Y-108173342D01*
X134795087Y-108142218D01*
X134877915Y-108097393D01*
X134935576Y-108066189D01*
X135113240Y-107927906D01*
X135197489Y-107836388D01*
X135262194Y-107766101D01*
X135262197Y-107766097D01*
X135265722Y-107762268D01*
X135354517Y-107626357D01*
X135408521Y-107580268D01*
X135478868Y-107570693D01*
X135543226Y-107600670D01*
X135565483Y-107626357D01*
X135654278Y-107762268D01*
X135657803Y-107766097D01*
X135657806Y-107766101D01*
X135722511Y-107836388D01*
X135806760Y-107927906D01*
X135984424Y-108066189D01*
X136042085Y-108097393D01*
X136124914Y-108142218D01*
X136182426Y-108173342D01*
X136395365Y-108246444D01*
X136400499Y-108247301D01*
X136400504Y-108247302D01*
X136612294Y-108282643D01*
X136612296Y-108282643D01*
X136617431Y-108283500D01*
X136842569Y-108283500D01*
X136847704Y-108282643D01*
X136847706Y-108282643D01*
X137059496Y-108247302D01*
X137059501Y-108247301D01*
X137064635Y-108246444D01*
X137277574Y-108173342D01*
X137335087Y-108142218D01*
X137417915Y-108097393D01*
X137475576Y-108066189D01*
X137653240Y-107927906D01*
X137737489Y-107836388D01*
X137802194Y-107766101D01*
X137802197Y-107766097D01*
X137805722Y-107762268D01*
X137894517Y-107626357D01*
X137948521Y-107580268D01*
X138018868Y-107570693D01*
X138083226Y-107600670D01*
X138105483Y-107626357D01*
X138194278Y-107762268D01*
X138197803Y-107766097D01*
X138197806Y-107766101D01*
X138262511Y-107836388D01*
X138346760Y-107927906D01*
X138524424Y-108066189D01*
X138582085Y-108097393D01*
X138664914Y-108142218D01*
X138722426Y-108173342D01*
X138935365Y-108246444D01*
X138940499Y-108247301D01*
X138940504Y-108247302D01*
X139152294Y-108282643D01*
X139152296Y-108282643D01*
X139157431Y-108283500D01*
X139382569Y-108283500D01*
X139387704Y-108282643D01*
X139387706Y-108282643D01*
X139599496Y-108247302D01*
X139599501Y-108247301D01*
X139604635Y-108246444D01*
X139817574Y-108173342D01*
X139875087Y-108142218D01*
X139957915Y-108097393D01*
X140015576Y-108066189D01*
X140193240Y-107927906D01*
X140277489Y-107836388D01*
X140342194Y-107766101D01*
X140342197Y-107766097D01*
X140345722Y-107762268D01*
X140434517Y-107626357D01*
X140488521Y-107580268D01*
X140558868Y-107570693D01*
X140623226Y-107600670D01*
X140645483Y-107626357D01*
X140734278Y-107762268D01*
X140737803Y-107766097D01*
X140737806Y-107766101D01*
X140802511Y-107836388D01*
X140886760Y-107927906D01*
X141064424Y-108066189D01*
X141122085Y-108097393D01*
X141204914Y-108142218D01*
X141262426Y-108173342D01*
X141475365Y-108246444D01*
X141480499Y-108247301D01*
X141480504Y-108247302D01*
X141692294Y-108282643D01*
X141692296Y-108282643D01*
X141697431Y-108283500D01*
X141922569Y-108283500D01*
X141927704Y-108282643D01*
X141927706Y-108282643D01*
X142139496Y-108247302D01*
X142139501Y-108247301D01*
X142144635Y-108246444D01*
X142357574Y-108173342D01*
X142415087Y-108142218D01*
X142497915Y-108097393D01*
X142555576Y-108066189D01*
X142733240Y-107927906D01*
X142817489Y-107836388D01*
X142882194Y-107766101D01*
X142882197Y-107766097D01*
X142885722Y-107762268D01*
X142974517Y-107626357D01*
X143028521Y-107580268D01*
X143098868Y-107570693D01*
X143163226Y-107600670D01*
X143185483Y-107626357D01*
X143274278Y-107762268D01*
X143277803Y-107766097D01*
X143277806Y-107766101D01*
X143342511Y-107836388D01*
X143426760Y-107927906D01*
X143604424Y-108066189D01*
X143662085Y-108097393D01*
X143744914Y-108142218D01*
X143802426Y-108173342D01*
X144015365Y-108246444D01*
X144020499Y-108247301D01*
X144020504Y-108247302D01*
X144232294Y-108282643D01*
X144232296Y-108282643D01*
X144237431Y-108283500D01*
X144462569Y-108283500D01*
X144467704Y-108282643D01*
X144467706Y-108282643D01*
X144679496Y-108247302D01*
X144679501Y-108247301D01*
X144684635Y-108246444D01*
X144897574Y-108173342D01*
X144955087Y-108142218D01*
X145037915Y-108097393D01*
X145095576Y-108066189D01*
X145273240Y-107927906D01*
X145357489Y-107836388D01*
X145422194Y-107766101D01*
X145422197Y-107766097D01*
X145425722Y-107762268D01*
X145514517Y-107626357D01*
X145568521Y-107580268D01*
X145638868Y-107570693D01*
X145703226Y-107600670D01*
X145725483Y-107626357D01*
X145814278Y-107762268D01*
X145817803Y-107766097D01*
X145817806Y-107766101D01*
X145882511Y-107836388D01*
X145966760Y-107927906D01*
X146144424Y-108066189D01*
X146202085Y-108097393D01*
X146284914Y-108142218D01*
X146342426Y-108173342D01*
X146555365Y-108246444D01*
X146560499Y-108247301D01*
X146560504Y-108247302D01*
X146772294Y-108282643D01*
X146772296Y-108282643D01*
X146777431Y-108283500D01*
X147002569Y-108283500D01*
X147007704Y-108282643D01*
X147007706Y-108282643D01*
X147219496Y-108247302D01*
X147219501Y-108247301D01*
X147224635Y-108246444D01*
X147437574Y-108173342D01*
X147495087Y-108142218D01*
X147577915Y-108097393D01*
X147635576Y-108066189D01*
X147813240Y-107927906D01*
X147897489Y-107836388D01*
X147962194Y-107766101D01*
X147962197Y-107766097D01*
X147965722Y-107762268D01*
X148054517Y-107626357D01*
X148108521Y-107580268D01*
X148178868Y-107570693D01*
X148243226Y-107600670D01*
X148265483Y-107626357D01*
X148354278Y-107762268D01*
X148357803Y-107766097D01*
X148357806Y-107766101D01*
X148422511Y-107836388D01*
X148506760Y-107927906D01*
X148684424Y-108066189D01*
X148742085Y-108097393D01*
X148824914Y-108142218D01*
X148882426Y-108173342D01*
X149095365Y-108246444D01*
X149100499Y-108247301D01*
X149100504Y-108247302D01*
X149312294Y-108282643D01*
X149312296Y-108282643D01*
X149317431Y-108283500D01*
X149542569Y-108283500D01*
X149547704Y-108282643D01*
X149547706Y-108282643D01*
X149759496Y-108247302D01*
X149759501Y-108247301D01*
X149764635Y-108246444D01*
X149977574Y-108173342D01*
X150035087Y-108142218D01*
X150117915Y-108097393D01*
X150175576Y-108066189D01*
X150353240Y-107927906D01*
X150437489Y-107836388D01*
X150502194Y-107766101D01*
X150502197Y-107766097D01*
X150505722Y-107762268D01*
X150594517Y-107626357D01*
X150648521Y-107580268D01*
X150718868Y-107570693D01*
X150783226Y-107600670D01*
X150805483Y-107626357D01*
X150894278Y-107762268D01*
X150897803Y-107766097D01*
X150897806Y-107766101D01*
X150962511Y-107836388D01*
X151046760Y-107927906D01*
X151224424Y-108066189D01*
X151282085Y-108097393D01*
X151364914Y-108142218D01*
X151422426Y-108173342D01*
X151635365Y-108246444D01*
X151640499Y-108247301D01*
X151640504Y-108247302D01*
X151852294Y-108282643D01*
X151852296Y-108282643D01*
X151857431Y-108283500D01*
X152082569Y-108283500D01*
X152087704Y-108282643D01*
X152087706Y-108282643D01*
X152299496Y-108247302D01*
X152299501Y-108247301D01*
X152304635Y-108246444D01*
X152517574Y-108173342D01*
X152575087Y-108142218D01*
X152657915Y-108097393D01*
X152715576Y-108066189D01*
X152893240Y-107927906D01*
X152977489Y-107836388D01*
X153042194Y-107766101D01*
X153042197Y-107766097D01*
X153045722Y-107762268D01*
X153134816Y-107625899D01*
X153188820Y-107579811D01*
X153259168Y-107570236D01*
X153323525Y-107600214D01*
X153345782Y-107625899D01*
X153431823Y-107757593D01*
X153438210Y-107765799D01*
X153583568Y-107923700D01*
X153591211Y-107930737D01*
X153760589Y-108062569D01*
X153769282Y-108068248D01*
X153958043Y-108170401D01*
X153967560Y-108174575D01*
X154170557Y-108244264D01*
X154180627Y-108246815D01*
X154238133Y-108256411D01*
X154251648Y-108254777D01*
X154255778Y-108241277D01*
X154764000Y-108241277D01*
X154767836Y-108254340D01*
X154782584Y-108256291D01*
X154839373Y-108246815D01*
X154849443Y-108244264D01*
X155052440Y-108174575D01*
X155061957Y-108170401D01*
X155250718Y-108068248D01*
X155259411Y-108062569D01*
X155428789Y-107930737D01*
X155436432Y-107923700D01*
X155581790Y-107765799D01*
X155588177Y-107757593D01*
X155674218Y-107625899D01*
X155728222Y-107579811D01*
X155798570Y-107570236D01*
X155862927Y-107600214D01*
X155885183Y-107625898D01*
X155974278Y-107762268D01*
X155977803Y-107766097D01*
X155977806Y-107766101D01*
X156042511Y-107836388D01*
X156126760Y-107927906D01*
X156304424Y-108066189D01*
X156362085Y-108097393D01*
X156444914Y-108142218D01*
X156502426Y-108173342D01*
X156715365Y-108246444D01*
X156720499Y-108247301D01*
X156720504Y-108247302D01*
X156932294Y-108282643D01*
X156932296Y-108282643D01*
X156937431Y-108283500D01*
X157162569Y-108283500D01*
X157167704Y-108282643D01*
X157167706Y-108282643D01*
X157379496Y-108247302D01*
X157379501Y-108247301D01*
X157384635Y-108246444D01*
X157597574Y-108173342D01*
X157655087Y-108142218D01*
X157737915Y-108097393D01*
X157795576Y-108066189D01*
X157973240Y-107927906D01*
X158057489Y-107836388D01*
X158122194Y-107766101D01*
X158122197Y-107766097D01*
X158125722Y-107762268D01*
X158214517Y-107626357D01*
X158268521Y-107580268D01*
X158338868Y-107570693D01*
X158403226Y-107600670D01*
X158425483Y-107626357D01*
X158514278Y-107762268D01*
X158517803Y-107766097D01*
X158517806Y-107766101D01*
X158582511Y-107836388D01*
X158666760Y-107927906D01*
X158844424Y-108066189D01*
X158902085Y-108097393D01*
X158984914Y-108142218D01*
X159042426Y-108173342D01*
X159255365Y-108246444D01*
X159260499Y-108247301D01*
X159260504Y-108247302D01*
X159472294Y-108282643D01*
X159472296Y-108282643D01*
X159477431Y-108283500D01*
X159702569Y-108283500D01*
X159707704Y-108282643D01*
X159707706Y-108282643D01*
X159919496Y-108247302D01*
X159919501Y-108247301D01*
X159924635Y-108246444D01*
X160137574Y-108173342D01*
X160195087Y-108142218D01*
X160277915Y-108097393D01*
X160335576Y-108066189D01*
X160513240Y-107927906D01*
X160597489Y-107836388D01*
X160662194Y-107766101D01*
X160662197Y-107766097D01*
X160665722Y-107762268D01*
X160754517Y-107626357D01*
X160808521Y-107580268D01*
X160878868Y-107570693D01*
X160943226Y-107600670D01*
X160965483Y-107626357D01*
X161054278Y-107762268D01*
X161057803Y-107766097D01*
X161057806Y-107766101D01*
X161122511Y-107836388D01*
X161206760Y-107927906D01*
X161384424Y-108066189D01*
X161442085Y-108097393D01*
X161524914Y-108142218D01*
X161582426Y-108173342D01*
X161795365Y-108246444D01*
X161800499Y-108247301D01*
X161800504Y-108247302D01*
X162012294Y-108282643D01*
X162012296Y-108282643D01*
X162017431Y-108283500D01*
X162242569Y-108283500D01*
X162247704Y-108282643D01*
X162247706Y-108282643D01*
X162459496Y-108247302D01*
X162459501Y-108247301D01*
X162464635Y-108246444D01*
X162677574Y-108173342D01*
X162735087Y-108142218D01*
X162817915Y-108097393D01*
X162875576Y-108066189D01*
X163053240Y-107927906D01*
X163137489Y-107836388D01*
X163202194Y-107766101D01*
X163202197Y-107766097D01*
X163205722Y-107762268D01*
X163294517Y-107626357D01*
X163348521Y-107580268D01*
X163418868Y-107570693D01*
X163483226Y-107600670D01*
X163505483Y-107626357D01*
X163594278Y-107762268D01*
X163597803Y-107766097D01*
X163597806Y-107766101D01*
X163662511Y-107836388D01*
X163746760Y-107927906D01*
X163924424Y-108066189D01*
X163982085Y-108097393D01*
X164064914Y-108142218D01*
X164122426Y-108173342D01*
X164335365Y-108246444D01*
X164340499Y-108247301D01*
X164340504Y-108247302D01*
X164552294Y-108282643D01*
X164552296Y-108282643D01*
X164557431Y-108283500D01*
X164782569Y-108283500D01*
X164787704Y-108282643D01*
X164787706Y-108282643D01*
X164999496Y-108247302D01*
X164999501Y-108247301D01*
X165004635Y-108246444D01*
X165217574Y-108173342D01*
X165275087Y-108142218D01*
X165357915Y-108097393D01*
X165415576Y-108066189D01*
X165593240Y-107927906D01*
X165677489Y-107836388D01*
X165742194Y-107766101D01*
X165742197Y-107766097D01*
X165745722Y-107762268D01*
X165834517Y-107626357D01*
X165888521Y-107580268D01*
X165958868Y-107570693D01*
X166023226Y-107600670D01*
X166045483Y-107626357D01*
X166134278Y-107762268D01*
X166137803Y-107766097D01*
X166137806Y-107766101D01*
X166202511Y-107836388D01*
X166286760Y-107927906D01*
X166464424Y-108066189D01*
X166522085Y-108097393D01*
X166604914Y-108142218D01*
X166662426Y-108173342D01*
X166875365Y-108246444D01*
X166880499Y-108247301D01*
X166880504Y-108247302D01*
X167092294Y-108282643D01*
X167092296Y-108282643D01*
X167097431Y-108283500D01*
X167322569Y-108283500D01*
X167327704Y-108282643D01*
X167327706Y-108282643D01*
X167539496Y-108247302D01*
X167539501Y-108247301D01*
X167544635Y-108246444D01*
X167757574Y-108173342D01*
X167815087Y-108142218D01*
X167897915Y-108097393D01*
X167955576Y-108066189D01*
X168133240Y-107927906D01*
X168217489Y-107836388D01*
X168282194Y-107766101D01*
X168282197Y-107766097D01*
X168285722Y-107762268D01*
X168391299Y-107600670D01*
X168406008Y-107578157D01*
X168406010Y-107578153D01*
X168408860Y-107573791D01*
X168499296Y-107367616D01*
X168554564Y-107149368D01*
X168573156Y-106925000D01*
X168554564Y-106700632D01*
X168499296Y-106482384D01*
X168408860Y-106276209D01*
X168404629Y-106269732D01*
X168288573Y-106092096D01*
X168285722Y-106087732D01*
X168282197Y-106083903D01*
X168282194Y-106083899D01*
X168136772Y-105925931D01*
X168133240Y-105922094D01*
X167955576Y-105783811D01*
X167757574Y-105676658D01*
X167544635Y-105603556D01*
X167539501Y-105602699D01*
X167539496Y-105602698D01*
X167327706Y-105567357D01*
X167327704Y-105567357D01*
X167322569Y-105566500D01*
X167097431Y-105566500D01*
X167092296Y-105567357D01*
X167092294Y-105567357D01*
X166880504Y-105602698D01*
X166880499Y-105602699D01*
X166875365Y-105603556D01*
X166662426Y-105676658D01*
X166464424Y-105783811D01*
X166286760Y-105922094D01*
X166283228Y-105925931D01*
X166137806Y-106083899D01*
X166137803Y-106083903D01*
X166134278Y-106087732D01*
X166131427Y-106092096D01*
X166045483Y-106223643D01*
X165991479Y-106269732D01*
X165921132Y-106279307D01*
X165856774Y-106249330D01*
X165834517Y-106223643D01*
X165748573Y-106092096D01*
X165745722Y-106087732D01*
X165742197Y-106083903D01*
X165742194Y-106083899D01*
X165596772Y-105925931D01*
X165593240Y-105922094D01*
X165415576Y-105783811D01*
X165217574Y-105676658D01*
X165004635Y-105603556D01*
X164999501Y-105602699D01*
X164999496Y-105602698D01*
X164787706Y-105567357D01*
X164787704Y-105567357D01*
X164782569Y-105566500D01*
X164557431Y-105566500D01*
X164552296Y-105567357D01*
X164552294Y-105567357D01*
X164340504Y-105602698D01*
X164340499Y-105602699D01*
X164335365Y-105603556D01*
X164122426Y-105676658D01*
X163924424Y-105783811D01*
X163746760Y-105922094D01*
X163743228Y-105925931D01*
X163597806Y-106083899D01*
X163597803Y-106083903D01*
X163594278Y-106087732D01*
X163591427Y-106092096D01*
X163505483Y-106223643D01*
X163451479Y-106269732D01*
X163381132Y-106279307D01*
X163316774Y-106249330D01*
X163294517Y-106223643D01*
X163208573Y-106092096D01*
X163205722Y-106087732D01*
X163202197Y-106083903D01*
X163202194Y-106083899D01*
X163056772Y-105925931D01*
X163053240Y-105922094D01*
X162875576Y-105783811D01*
X162677574Y-105676658D01*
X162464635Y-105603556D01*
X162459501Y-105602699D01*
X162459496Y-105602698D01*
X162247706Y-105567357D01*
X162247704Y-105567357D01*
X162242569Y-105566500D01*
X162017431Y-105566500D01*
X162012296Y-105567357D01*
X162012294Y-105567357D01*
X161800504Y-105602698D01*
X161800499Y-105602699D01*
X161795365Y-105603556D01*
X161582426Y-105676658D01*
X161384424Y-105783811D01*
X161206760Y-105922094D01*
X161203228Y-105925931D01*
X161057806Y-106083899D01*
X161057803Y-106083903D01*
X161054278Y-106087732D01*
X161051427Y-106092096D01*
X160965483Y-106223643D01*
X160911479Y-106269732D01*
X160841132Y-106279307D01*
X160776774Y-106249330D01*
X160754517Y-106223643D01*
X160668573Y-106092096D01*
X160665722Y-106087732D01*
X160662197Y-106083903D01*
X160662194Y-106083899D01*
X160516772Y-105925931D01*
X160513240Y-105922094D01*
X160335576Y-105783811D01*
X160137574Y-105676658D01*
X159924635Y-105603556D01*
X159919501Y-105602699D01*
X159919496Y-105602698D01*
X159707706Y-105567357D01*
X159707704Y-105567357D01*
X159702569Y-105566500D01*
X159477431Y-105566500D01*
X159472296Y-105567357D01*
X159472294Y-105567357D01*
X159260504Y-105602698D01*
X159260499Y-105602699D01*
X159255365Y-105603556D01*
X159042426Y-105676658D01*
X158844424Y-105783811D01*
X158666760Y-105922094D01*
X158663228Y-105925931D01*
X158517806Y-106083899D01*
X158517803Y-106083903D01*
X158514278Y-106087732D01*
X158511427Y-106092096D01*
X158425483Y-106223643D01*
X158371479Y-106269732D01*
X158301132Y-106279307D01*
X158236774Y-106249330D01*
X158214517Y-106223643D01*
X158128573Y-106092096D01*
X158125722Y-106087732D01*
X158122197Y-106083903D01*
X158122194Y-106083899D01*
X157976772Y-105925931D01*
X157973240Y-105922094D01*
X157795576Y-105783811D01*
X157597574Y-105676658D01*
X157384635Y-105603556D01*
X157379501Y-105602699D01*
X157379496Y-105602698D01*
X157167706Y-105567357D01*
X157167704Y-105567357D01*
X157162569Y-105566500D01*
X156937431Y-105566500D01*
X156932296Y-105567357D01*
X156932294Y-105567357D01*
X156720504Y-105602698D01*
X156720499Y-105602699D01*
X156715365Y-105603556D01*
X156502426Y-105676658D01*
X156304424Y-105783811D01*
X156126760Y-105922094D01*
X156123228Y-105925931D01*
X155977806Y-106083899D01*
X155977803Y-106083903D01*
X155974278Y-106087732D01*
X155971431Y-106092090D01*
X155885184Y-106224101D01*
X155831180Y-106270189D01*
X155760832Y-106279764D01*
X155696475Y-106249786D01*
X155674218Y-106224101D01*
X155588177Y-106092407D01*
X155581790Y-106084201D01*
X155436432Y-105926300D01*
X155428789Y-105919263D01*
X155259411Y-105787431D01*
X155250718Y-105781752D01*
X155061957Y-105679599D01*
X155052440Y-105675425D01*
X154849443Y-105605736D01*
X154839373Y-105603185D01*
X154781867Y-105593589D01*
X154768352Y-105595223D01*
X154764000Y-105609449D01*
X154764000Y-108241277D01*
X154255778Y-108241277D01*
X154256000Y-108240551D01*
X154256000Y-105608723D01*
X154252164Y-105595660D01*
X154237416Y-105593709D01*
X154180627Y-105603185D01*
X154170557Y-105605736D01*
X153967560Y-105675425D01*
X153958043Y-105679599D01*
X153769282Y-105781752D01*
X153760589Y-105787431D01*
X153591211Y-105919263D01*
X153583568Y-105926300D01*
X153438210Y-106084201D01*
X153431823Y-106092407D01*
X153345782Y-106224101D01*
X153291778Y-106270189D01*
X153221430Y-106279764D01*
X153157073Y-106249786D01*
X153134816Y-106224101D01*
X153048569Y-106092090D01*
X153045722Y-106087732D01*
X153042197Y-106083903D01*
X153042194Y-106083899D01*
X152896772Y-105925931D01*
X152893240Y-105922094D01*
X152715576Y-105783811D01*
X152517574Y-105676658D01*
X152304635Y-105603556D01*
X152299501Y-105602699D01*
X152299496Y-105602698D01*
X152087706Y-105567357D01*
X152087704Y-105567357D01*
X152082569Y-105566500D01*
X151857431Y-105566500D01*
X151852296Y-105567357D01*
X151852294Y-105567357D01*
X151640504Y-105602698D01*
X151640499Y-105602699D01*
X151635365Y-105603556D01*
X151422426Y-105676658D01*
X151224424Y-105783811D01*
X151046760Y-105922094D01*
X151043228Y-105925931D01*
X150897806Y-106083899D01*
X150897803Y-106083903D01*
X150894278Y-106087732D01*
X150891427Y-106092096D01*
X150805483Y-106223643D01*
X150751479Y-106269732D01*
X150681132Y-106279307D01*
X150616774Y-106249330D01*
X150594517Y-106223643D01*
X150508573Y-106092096D01*
X150505722Y-106087732D01*
X150502197Y-106083903D01*
X150502194Y-106083899D01*
X150356772Y-105925931D01*
X150353240Y-105922094D01*
X150175576Y-105783811D01*
X149977574Y-105676658D01*
X149764635Y-105603556D01*
X149759501Y-105602699D01*
X149759496Y-105602698D01*
X149547706Y-105567357D01*
X149547704Y-105567357D01*
X149542569Y-105566500D01*
X149317431Y-105566500D01*
X149312296Y-105567357D01*
X149312294Y-105567357D01*
X149100504Y-105602698D01*
X149100499Y-105602699D01*
X149095365Y-105603556D01*
X148882426Y-105676658D01*
X148684424Y-105783811D01*
X148506760Y-105922094D01*
X148503228Y-105925931D01*
X148357806Y-106083899D01*
X148357803Y-106083903D01*
X148354278Y-106087732D01*
X148351427Y-106092096D01*
X148265483Y-106223643D01*
X148211479Y-106269732D01*
X148141132Y-106279307D01*
X148076774Y-106249330D01*
X148054517Y-106223643D01*
X147968573Y-106092096D01*
X147965722Y-106087732D01*
X147962197Y-106083903D01*
X147962194Y-106083899D01*
X147816772Y-105925931D01*
X147813240Y-105922094D01*
X147635576Y-105783811D01*
X147437574Y-105676658D01*
X147224635Y-105603556D01*
X147219501Y-105602699D01*
X147219496Y-105602698D01*
X147007706Y-105567357D01*
X147007704Y-105567357D01*
X147002569Y-105566500D01*
X146777431Y-105566500D01*
X146772296Y-105567357D01*
X146772294Y-105567357D01*
X146560504Y-105602698D01*
X146560499Y-105602699D01*
X146555365Y-105603556D01*
X146342426Y-105676658D01*
X146144424Y-105783811D01*
X145966760Y-105922094D01*
X145963228Y-105925931D01*
X145817806Y-106083899D01*
X145817803Y-106083903D01*
X145814278Y-106087732D01*
X145811427Y-106092096D01*
X145725483Y-106223643D01*
X145671479Y-106269732D01*
X145601132Y-106279307D01*
X145536774Y-106249330D01*
X145514517Y-106223643D01*
X145428573Y-106092096D01*
X145425722Y-106087732D01*
X145422197Y-106083903D01*
X145422194Y-106083899D01*
X145276772Y-105925931D01*
X145273240Y-105922094D01*
X145095576Y-105783811D01*
X144897574Y-105676658D01*
X144684635Y-105603556D01*
X144679501Y-105602699D01*
X144679496Y-105602698D01*
X144467706Y-105567357D01*
X144467704Y-105567357D01*
X144462569Y-105566500D01*
X144237431Y-105566500D01*
X144232296Y-105567357D01*
X144232294Y-105567357D01*
X144020504Y-105602698D01*
X144020499Y-105602699D01*
X144015365Y-105603556D01*
X143802426Y-105676658D01*
X143604424Y-105783811D01*
X143426760Y-105922094D01*
X143423228Y-105925931D01*
X143277806Y-106083899D01*
X143277803Y-106083903D01*
X143274278Y-106087732D01*
X143271427Y-106092096D01*
X143185483Y-106223643D01*
X143131479Y-106269732D01*
X143061132Y-106279307D01*
X142996774Y-106249330D01*
X142974517Y-106223643D01*
X142888573Y-106092096D01*
X142885722Y-106087732D01*
X142882197Y-106083903D01*
X142882194Y-106083899D01*
X142736772Y-105925931D01*
X142733240Y-105922094D01*
X142555576Y-105783811D01*
X142357574Y-105676658D01*
X142144635Y-105603556D01*
X142139501Y-105602699D01*
X142139496Y-105602698D01*
X141927706Y-105567357D01*
X141927704Y-105567357D01*
X141922569Y-105566500D01*
X141697431Y-105566500D01*
X141692296Y-105567357D01*
X141692294Y-105567357D01*
X141480504Y-105602698D01*
X141480499Y-105602699D01*
X141475365Y-105603556D01*
X141262426Y-105676658D01*
X141064424Y-105783811D01*
X140886760Y-105922094D01*
X140883228Y-105925931D01*
X140737806Y-106083899D01*
X140737803Y-106083903D01*
X140734278Y-106087732D01*
X140731427Y-106092096D01*
X140645483Y-106223643D01*
X140591479Y-106269732D01*
X140521132Y-106279307D01*
X140456774Y-106249330D01*
X140434517Y-106223643D01*
X140348573Y-106092096D01*
X140345722Y-106087732D01*
X140342197Y-106083903D01*
X140342194Y-106083899D01*
X140196772Y-105925931D01*
X140193240Y-105922094D01*
X140015576Y-105783811D01*
X139817574Y-105676658D01*
X139604635Y-105603556D01*
X139599501Y-105602699D01*
X139599496Y-105602698D01*
X139387706Y-105567357D01*
X139387704Y-105567357D01*
X139382569Y-105566500D01*
X139157431Y-105566500D01*
X139152296Y-105567357D01*
X139152294Y-105567357D01*
X138940504Y-105602698D01*
X138940499Y-105602699D01*
X138935365Y-105603556D01*
X138722426Y-105676658D01*
X138524424Y-105783811D01*
X138346760Y-105922094D01*
X138343228Y-105925931D01*
X138197806Y-106083899D01*
X138197803Y-106083903D01*
X138194278Y-106087732D01*
X138191427Y-106092096D01*
X138105483Y-106223643D01*
X138051479Y-106269732D01*
X137981132Y-106279307D01*
X137916774Y-106249330D01*
X137894517Y-106223643D01*
X137808573Y-106092096D01*
X137805722Y-106087732D01*
X137802197Y-106083903D01*
X137802194Y-106083899D01*
X137656772Y-105925931D01*
X137653240Y-105922094D01*
X137475576Y-105783811D01*
X137277574Y-105676658D01*
X137064635Y-105603556D01*
X137059501Y-105602699D01*
X137059496Y-105602698D01*
X136847706Y-105567357D01*
X136847704Y-105567357D01*
X136842569Y-105566500D01*
X136617431Y-105566500D01*
X136612296Y-105567357D01*
X136612294Y-105567357D01*
X136400504Y-105602698D01*
X136400499Y-105602699D01*
X136395365Y-105603556D01*
X136182426Y-105676658D01*
X135984424Y-105783811D01*
X135806760Y-105922094D01*
X135803228Y-105925931D01*
X135657806Y-106083899D01*
X135657803Y-106083903D01*
X135654278Y-106087732D01*
X135651427Y-106092096D01*
X135565483Y-106223643D01*
X135511479Y-106269732D01*
X135441132Y-106279307D01*
X135376774Y-106249330D01*
X135354517Y-106223643D01*
X135268573Y-106092096D01*
X135265722Y-106087732D01*
X135262197Y-106083903D01*
X135262194Y-106083899D01*
X135116772Y-105925931D01*
X135113240Y-105922094D01*
X134935576Y-105783811D01*
X134737574Y-105676658D01*
X134524635Y-105603556D01*
X134519501Y-105602699D01*
X134519496Y-105602698D01*
X134307706Y-105567357D01*
X134307704Y-105567357D01*
X134302569Y-105566500D01*
X134077431Y-105566500D01*
X134072296Y-105567357D01*
X134072294Y-105567357D01*
X133860504Y-105602698D01*
X133860499Y-105602699D01*
X133855365Y-105603556D01*
X133642426Y-105676658D01*
X133444424Y-105783811D01*
X133266760Y-105922094D01*
X133263228Y-105925931D01*
X133117806Y-106083899D01*
X133117803Y-106083903D01*
X133114278Y-106087732D01*
X133111427Y-106092096D01*
X133025483Y-106223643D01*
X132971479Y-106269732D01*
X132901132Y-106279307D01*
X132836774Y-106249330D01*
X132814517Y-106223643D01*
X132728573Y-106092096D01*
X132725722Y-106087732D01*
X132722197Y-106083903D01*
X132722194Y-106083899D01*
X132576772Y-105925931D01*
X132573240Y-105922094D01*
X132395576Y-105783811D01*
X132197574Y-105676658D01*
X131984635Y-105603556D01*
X131979501Y-105602699D01*
X131979496Y-105602698D01*
X131767706Y-105567357D01*
X131767704Y-105567357D01*
X131762569Y-105566500D01*
X131537431Y-105566500D01*
X131532296Y-105567357D01*
X131532294Y-105567357D01*
X131320504Y-105602698D01*
X131320499Y-105602699D01*
X131315365Y-105603556D01*
X131102426Y-105676658D01*
X130904424Y-105783811D01*
X130726760Y-105922094D01*
X130723228Y-105925931D01*
X130577806Y-106083899D01*
X130577803Y-106083903D01*
X130574278Y-106087732D01*
X130571427Y-106092096D01*
X130485483Y-106223643D01*
X130431479Y-106269732D01*
X130361132Y-106279307D01*
X130296774Y-106249330D01*
X130274517Y-106223643D01*
X130188573Y-106092096D01*
X130185722Y-106087732D01*
X130182197Y-106083903D01*
X130182194Y-106083899D01*
X130036772Y-105925931D01*
X130033240Y-105922094D01*
X129855576Y-105783811D01*
X129657574Y-105676658D01*
X129444635Y-105603556D01*
X129439501Y-105602699D01*
X129439496Y-105602698D01*
X129227706Y-105567357D01*
X129227704Y-105567357D01*
X129222569Y-105566500D01*
X128997431Y-105566500D01*
X128992296Y-105567357D01*
X128992294Y-105567357D01*
X128780504Y-105602698D01*
X128780499Y-105602699D01*
X128775365Y-105603556D01*
X128562426Y-105676658D01*
X128364424Y-105783811D01*
X128186760Y-105922094D01*
X128183228Y-105925931D01*
X128037806Y-106083899D01*
X128037803Y-106083903D01*
X128034278Y-106087732D01*
X128031427Y-106092096D01*
X127945483Y-106223643D01*
X127891479Y-106269732D01*
X127821132Y-106279307D01*
X127756774Y-106249330D01*
X127734517Y-106223643D01*
X127648573Y-106092096D01*
X127645722Y-106087732D01*
X127642197Y-106083903D01*
X127642194Y-106083899D01*
X127496772Y-105925931D01*
X127493240Y-105922094D01*
X127315576Y-105783811D01*
X127117574Y-105676658D01*
X126904635Y-105603556D01*
X126899501Y-105602699D01*
X126899496Y-105602698D01*
X126687706Y-105567357D01*
X126687704Y-105567357D01*
X126682569Y-105566500D01*
X126457431Y-105566500D01*
X126452296Y-105567357D01*
X126452294Y-105567357D01*
X126240504Y-105602698D01*
X126240499Y-105602699D01*
X126235365Y-105603556D01*
X126022426Y-105676658D01*
X125824424Y-105783811D01*
X125646760Y-105922094D01*
X125643228Y-105925931D01*
X125497806Y-106083899D01*
X125497803Y-106083903D01*
X125494278Y-106087732D01*
X125491427Y-106092096D01*
X125405483Y-106223643D01*
X125351479Y-106269732D01*
X125281132Y-106279307D01*
X125216774Y-106249330D01*
X125194517Y-106223643D01*
X125108573Y-106092096D01*
X125105722Y-106087732D01*
X125102197Y-106083903D01*
X125102194Y-106083899D01*
X124956772Y-105925931D01*
X124953240Y-105922094D01*
X124775576Y-105783811D01*
X124577574Y-105676658D01*
X124364635Y-105603556D01*
X124359501Y-105602699D01*
X124359496Y-105602698D01*
X124147706Y-105567357D01*
X124147704Y-105567357D01*
X124142569Y-105566500D01*
X123917431Y-105566500D01*
X123912296Y-105567357D01*
X123912294Y-105567357D01*
X123700504Y-105602698D01*
X123700499Y-105602699D01*
X123695365Y-105603556D01*
X123482426Y-105676658D01*
X123284424Y-105783811D01*
X123106760Y-105922094D01*
X123103228Y-105925931D01*
X123045755Y-105988362D01*
X122984901Y-106024933D01*
X122913937Y-106022798D01*
X122855392Y-105982636D01*
X122834998Y-105947056D01*
X122794038Y-105837239D01*
X122794037Y-105837237D01*
X122790889Y-105828796D01*
X122759924Y-105787431D01*
X122708659Y-105718950D01*
X122703261Y-105711739D01*
X122586204Y-105624111D01*
X122449201Y-105573011D01*
X122412295Y-105569043D01*
X122391988Y-105566860D01*
X122391985Y-105566860D01*
X122388638Y-105566500D01*
X122315000Y-105566500D01*
X122246879Y-105546498D01*
X122200386Y-105492842D01*
X122189000Y-105440500D01*
X122189000Y-105251727D01*
X122209002Y-105183606D01*
X122225904Y-105162632D01*
X122652630Y-104735905D01*
X122714943Y-104701880D01*
X122741726Y-104699000D01*
X130475076Y-104699000D01*
X130482683Y-104699230D01*
X130534906Y-104702389D01*
X130534908Y-104702389D01*
X130542515Y-104702849D01*
X130550012Y-104701475D01*
X130550014Y-104701475D01*
X130601479Y-104692044D01*
X130609002Y-104690899D01*
X130627062Y-104688706D01*
X130668510Y-104683673D01*
X130675638Y-104680969D01*
X130675640Y-104680969D01*
X130677767Y-104680162D01*
X130699741Y-104674036D01*
X130709483Y-104672251D01*
X130716431Y-104669124D01*
X130716437Y-104669122D01*
X130764145Y-104647650D01*
X130771177Y-104644737D01*
X130791085Y-104637187D01*
X130827227Y-104623480D01*
X130833495Y-104619154D01*
X130833498Y-104619152D01*
X130835386Y-104617849D01*
X130855243Y-104606649D01*
X130857326Y-104605712D01*
X130857329Y-104605710D01*
X130864275Y-104602584D01*
X130911468Y-104565611D01*
X130917597Y-104561102D01*
X130939874Y-104545725D01*
X130966927Y-104527052D01*
X130971978Y-104521350D01*
X130971982Y-104521347D01*
X131006683Y-104482177D01*
X131011900Y-104476636D01*
X131926636Y-103561900D01*
X131932177Y-103556683D01*
X131971347Y-103521982D01*
X131971350Y-103521978D01*
X131977052Y-103516927D01*
X132011102Y-103467597D01*
X132015612Y-103461467D01*
X132034993Y-103436728D01*
X132052584Y-103414275D01*
X132056649Y-103405242D01*
X132067849Y-103385386D01*
X132069148Y-103383504D01*
X132069150Y-103383500D01*
X132073480Y-103377227D01*
X132093676Y-103323974D01*
X132094738Y-103321175D01*
X132097651Y-103314143D01*
X132119121Y-103266439D01*
X132119123Y-103266431D01*
X132120175Y-103264095D01*
X132122252Y-103259482D01*
X132123138Y-103259881D01*
X132158792Y-103206360D01*
X132223849Y-103177934D01*
X132251127Y-103177447D01*
X132317735Y-103183500D01*
X132649941Y-103183500D01*
X132982264Y-103183499D01*
X132985112Y-103183240D01*
X132985117Y-103183240D01*
X133047012Y-103177616D01*
X133053649Y-103177013D01*
X133060007Y-103175032D01*
X133060011Y-103175031D01*
X133210636Y-103128095D01*
X133210639Y-103128094D01*
X133217913Y-103125827D01*
X133365155Y-103036816D01*
X133383763Y-103018208D01*
X133446076Y-102984185D01*
X133516892Y-102989252D01*
X133561951Y-103018211D01*
X133618193Y-103074453D01*
X133625017Y-103078489D01*
X133625020Y-103078491D01*
X133702975Y-103124593D01*
X133761399Y-103159145D01*
X133769010Y-103161356D01*
X133769012Y-103161357D01*
X133821231Y-103176528D01*
X133921169Y-103205562D01*
X133927574Y-103206066D01*
X133927579Y-103206067D01*
X133956042Y-103208307D01*
X133956050Y-103208307D01*
X133958498Y-103208500D01*
X135266502Y-103208500D01*
X135268950Y-103208307D01*
X135268958Y-103208307D01*
X135297421Y-103206067D01*
X135297426Y-103206066D01*
X135303831Y-103205562D01*
X135403769Y-103176528D01*
X135455988Y-103161357D01*
X135455990Y-103161356D01*
X135463601Y-103159145D01*
X135522025Y-103124593D01*
X135599980Y-103078491D01*
X135599983Y-103078489D01*
X135606807Y-103074453D01*
X135634255Y-103047005D01*
X135696567Y-103012979D01*
X135723350Y-103010100D01*
X137174171Y-103010100D01*
X137234062Y-103027354D01*
X137234615Y-103026207D01*
X137240996Y-103029280D01*
X137246985Y-103033043D01*
X137418953Y-103093217D01*
X137425980Y-103094009D01*
X137425981Y-103094009D01*
X137592971Y-103112824D01*
X137600000Y-103113616D01*
X137607029Y-103112824D01*
X137774019Y-103094009D01*
X137774020Y-103094009D01*
X137781047Y-103093217D01*
X137953015Y-103033043D01*
X137963894Y-103026207D01*
X138101286Y-102939878D01*
X138107281Y-102936111D01*
X138236111Y-102807281D01*
X138292609Y-102717366D01*
X138329278Y-102659007D01*
X138333043Y-102653015D01*
X138393217Y-102481047D01*
X138413616Y-102300000D01*
X138399207Y-102172115D01*
X138394009Y-102125981D01*
X138394009Y-102125980D01*
X138393217Y-102118953D01*
X138333043Y-101946985D01*
X138270797Y-101847922D01*
X138239878Y-101798714D01*
X138236111Y-101792719D01*
X138107281Y-101663889D01*
X138057250Y-101632452D01*
X137959007Y-101570722D01*
X137953015Y-101566957D01*
X137817885Y-101519673D01*
X137760193Y-101478295D01*
X137734031Y-101412295D01*
X137733500Y-101400744D01*
X137733500Y-101233498D01*
X137733307Y-101231042D01*
X137731067Y-101202579D01*
X137731066Y-101202574D01*
X137730562Y-101196169D01*
X137691927Y-101063184D01*
X137686357Y-101044012D01*
X137686356Y-101044010D01*
X137684145Y-101036399D01*
X137646003Y-100971905D01*
X137603491Y-100900020D01*
X137603489Y-100900017D01*
X137599453Y-100893193D01*
X137481807Y-100775547D01*
X137474983Y-100771511D01*
X137474980Y-100771509D01*
X137345427Y-100694892D01*
X137345428Y-100694892D01*
X137338601Y-100690855D01*
X137330990Y-100688644D01*
X137330988Y-100688643D01*
X137278769Y-100673472D01*
X137178831Y-100644438D01*
X137172426Y-100643934D01*
X137172421Y-100643933D01*
X137143958Y-100641693D01*
X137143950Y-100641693D01*
X137141502Y-100641500D01*
X137111100Y-100641500D01*
X137042979Y-100621498D01*
X136996486Y-100567842D01*
X136985100Y-100515500D01*
X136985100Y-99749061D01*
X137005102Y-99680940D01*
X137022005Y-99659966D01*
X137136816Y-99545155D01*
X137163560Y-99500915D01*
X137215918Y-99452967D01*
X137271388Y-99440100D01*
X138644322Y-99440100D01*
X138654874Y-99440598D01*
X138662128Y-99442219D01*
X138727595Y-99440162D01*
X138731552Y-99440100D01*
X138758383Y-99440100D01*
X138762310Y-99439604D01*
X138763216Y-99439547D01*
X138773860Y-99438708D01*
X138816199Y-99437378D01*
X138834586Y-99432036D01*
X138853943Y-99428028D01*
X138865065Y-99426623D01*
X138865066Y-99426623D01*
X138872932Y-99425629D01*
X138883504Y-99421444D01*
X138912318Y-99410036D01*
X138923545Y-99406192D01*
X138956609Y-99396585D01*
X138956611Y-99396584D01*
X138964225Y-99394372D01*
X138980705Y-99384626D01*
X138998445Y-99375935D01*
X139016254Y-99368884D01*
X139050532Y-99343980D01*
X139060452Y-99337464D01*
X139090079Y-99319943D01*
X139090082Y-99319941D01*
X139096906Y-99315905D01*
X139110433Y-99302378D01*
X139125467Y-99289537D01*
X139134547Y-99282940D01*
X139134548Y-99282939D01*
X139140962Y-99278279D01*
X139167968Y-99245634D01*
X139175958Y-99236853D01*
X139310808Y-99102004D01*
X139373120Y-99067979D01*
X139399903Y-99065100D01*
X139798344Y-99065100D01*
X139866465Y-99085102D01*
X139871080Y-99088412D01*
X139873779Y-99091111D01*
X139879772Y-99094877D01*
X139879775Y-99094879D01*
X140021329Y-99183823D01*
X140028045Y-99188043D01*
X140200013Y-99248217D01*
X140207040Y-99249009D01*
X140207041Y-99249009D01*
X140239552Y-99252672D01*
X140335654Y-99263500D01*
X141074559Y-99263500D01*
X141142680Y-99283502D01*
X141163654Y-99300405D01*
X141752995Y-99889746D01*
X141787021Y-99952058D01*
X141789900Y-99978841D01*
X141789900Y-101724322D01*
X141789402Y-101734874D01*
X141787781Y-101742128D01*
X141788030Y-101750049D01*
X141789838Y-101807595D01*
X141789900Y-101811552D01*
X141789900Y-101838383D01*
X141790396Y-101842310D01*
X141790453Y-101843216D01*
X141791292Y-101853860D01*
X141792622Y-101896199D01*
X141794834Y-101903812D01*
X141797964Y-101914586D01*
X141801972Y-101933943D01*
X141804371Y-101952932D01*
X141807291Y-101960307D01*
X141819964Y-101992318D01*
X141823808Y-102003545D01*
X141830914Y-102028000D01*
X141835628Y-102044225D01*
X141845374Y-102060705D01*
X141854065Y-102078445D01*
X141861116Y-102096254D01*
X141872756Y-102112275D01*
X141886020Y-102130532D01*
X141892536Y-102140452D01*
X141901537Y-102155671D01*
X141914095Y-102176906D01*
X141927622Y-102190433D01*
X141940463Y-102205467D01*
X141951721Y-102220962D01*
X141957829Y-102226015D01*
X141984372Y-102247973D01*
X141993152Y-102255963D01*
X144568272Y-104831083D01*
X144575388Y-104838901D01*
X144579374Y-104845183D01*
X144585154Y-104850611D01*
X144585155Y-104850612D01*
X144627147Y-104890045D01*
X144629989Y-104892800D01*
X144648935Y-104911746D01*
X144652074Y-104914181D01*
X144652724Y-104914754D01*
X144660855Y-104921701D01*
X144685959Y-104945274D01*
X144685962Y-104945276D01*
X144691742Y-104950704D01*
X144698687Y-104954522D01*
X144698690Y-104954524D01*
X144708520Y-104959928D01*
X144725047Y-104970784D01*
X144740166Y-104982512D01*
X144769027Y-104995001D01*
X144779035Y-104999332D01*
X144789696Y-105004554D01*
X144826822Y-105024965D01*
X144834501Y-105026937D01*
X144834502Y-105026937D01*
X144845361Y-105029725D01*
X144864066Y-105036129D01*
X144881634Y-105043731D01*
X144889466Y-105044971D01*
X144889471Y-105044973D01*
X144923479Y-105050360D01*
X144935092Y-105052764D01*
X144976126Y-105063300D01*
X144995263Y-105063300D01*
X145014974Y-105064851D01*
X145026054Y-105066606D01*
X145026056Y-105066606D01*
X145033884Y-105067846D01*
X145076060Y-105063859D01*
X145087919Y-105063300D01*
X160771122Y-105063300D01*
X160781674Y-105063798D01*
X160788928Y-105065419D01*
X160854395Y-105063362D01*
X160858352Y-105063300D01*
X160885183Y-105063300D01*
X160889110Y-105062804D01*
X160890016Y-105062747D01*
X160900660Y-105061908D01*
X160942999Y-105060578D01*
X160961386Y-105055236D01*
X160980743Y-105051228D01*
X160991865Y-105049823D01*
X160991866Y-105049823D01*
X160999732Y-105048829D01*
X161012608Y-105043731D01*
X161039118Y-105033236D01*
X161050345Y-105029392D01*
X161083409Y-105019785D01*
X161083411Y-105019784D01*
X161091025Y-105017572D01*
X161107505Y-105007826D01*
X161125245Y-104999135D01*
X161143054Y-104992084D01*
X161177332Y-104967180D01*
X161187252Y-104960664D01*
X161216879Y-104943143D01*
X161216882Y-104943141D01*
X161223706Y-104939105D01*
X161237233Y-104925578D01*
X161252267Y-104912737D01*
X161261347Y-104906140D01*
X161261348Y-104906139D01*
X161267762Y-104901479D01*
X161294768Y-104868834D01*
X161302758Y-104860053D01*
X161416326Y-104746486D01*
X161478638Y-104712461D01*
X161549454Y-104717527D01*
X161594516Y-104746487D01*
X161634845Y-104786816D01*
X161782087Y-104875827D01*
X161789361Y-104878094D01*
X161789364Y-104878095D01*
X161939987Y-104925030D01*
X161946351Y-104927013D01*
X162017735Y-104933500D01*
X162274955Y-104933500D01*
X162532264Y-104933499D01*
X162535112Y-104933240D01*
X162535117Y-104933240D01*
X162597012Y-104927616D01*
X162603649Y-104927013D01*
X162610007Y-104925032D01*
X162610011Y-104925031D01*
X162760636Y-104878095D01*
X162760639Y-104878094D01*
X162767913Y-104875827D01*
X162915155Y-104786816D01*
X163010905Y-104691066D01*
X163073217Y-104657040D01*
X163144032Y-104662105D01*
X163189095Y-104691066D01*
X163284845Y-104786816D01*
X163432087Y-104875827D01*
X163439361Y-104878094D01*
X163439364Y-104878095D01*
X163589987Y-104925030D01*
X163596351Y-104927013D01*
X163667735Y-104933500D01*
X163924955Y-104933500D01*
X164182264Y-104933499D01*
X164185112Y-104933240D01*
X164185117Y-104933240D01*
X164247012Y-104927616D01*
X164253649Y-104927013D01*
X164260007Y-104925032D01*
X164260011Y-104925031D01*
X164410636Y-104878095D01*
X164410639Y-104878094D01*
X164417913Y-104875827D01*
X164565155Y-104786816D01*
X164686816Y-104665155D01*
X164713560Y-104620915D01*
X164765918Y-104572967D01*
X164821388Y-104560100D01*
X165087219Y-104560100D01*
X165155340Y-104580102D01*
X165194460Y-104619953D01*
X165210437Y-104645855D01*
X165219400Y-104660387D01*
X165339613Y-104780600D01*
X165345860Y-104784453D01*
X165345861Y-104784454D01*
X165468426Y-104860053D01*
X165484308Y-104869849D01*
X165545256Y-104890045D01*
X165637677Y-104920670D01*
X165645686Y-104923324D01*
X165696594Y-104928525D01*
X165742105Y-104933175D01*
X165742111Y-104933175D01*
X165745289Y-104933500D01*
X166012458Y-104933500D01*
X166279710Y-104933499D01*
X166282887Y-104933174D01*
X166282896Y-104933174D01*
X166357249Y-104925578D01*
X166379314Y-104923324D01*
X166540692Y-104869849D01*
X166556574Y-104860053D01*
X166679139Y-104784454D01*
X166679140Y-104784453D01*
X166685387Y-104780600D01*
X166711259Y-104754728D01*
X166773571Y-104720702D01*
X166844386Y-104725767D01*
X166889449Y-104754728D01*
X166909733Y-104775012D01*
X166921174Y-104784059D01*
X167053279Y-104865543D01*
X167066481Y-104871699D01*
X167214266Y-104920670D01*
X167227624Y-104923529D01*
X167316660Y-104932625D01*
X167330624Y-104928525D01*
X167331829Y-104927135D01*
X167333500Y-104919452D01*
X167333500Y-104914884D01*
X167841500Y-104914884D01*
X167845975Y-104930123D01*
X167847365Y-104931328D01*
X167854368Y-104932851D01*
X167857860Y-104932673D01*
X167947369Y-104923530D01*
X167960740Y-104920668D01*
X168108519Y-104871699D01*
X168121721Y-104865543D01*
X168253826Y-104784059D01*
X168265267Y-104775012D01*
X168375012Y-104665267D01*
X168384059Y-104653826D01*
X168465543Y-104521721D01*
X168471699Y-104508519D01*
X168520670Y-104360734D01*
X168523529Y-104347376D01*
X168532675Y-104257858D01*
X168533000Y-104251468D01*
X168533000Y-104222115D01*
X168528525Y-104206876D01*
X168527135Y-104205671D01*
X168519452Y-104204000D01*
X167859615Y-104204000D01*
X167844376Y-104208475D01*
X167843171Y-104209865D01*
X167841500Y-104217548D01*
X167841500Y-104914884D01*
X167333500Y-104914884D01*
X167333500Y-103822000D01*
X167353502Y-103753879D01*
X167407158Y-103707386D01*
X167459500Y-103696000D01*
X168514884Y-103696000D01*
X168530123Y-103691525D01*
X168531328Y-103690135D01*
X168532999Y-103682452D01*
X168532999Y-103648535D01*
X168532673Y-103642140D01*
X168523530Y-103552631D01*
X168520668Y-103539260D01*
X168471699Y-103391481D01*
X168465543Y-103378279D01*
X168384059Y-103246174D01*
X168375012Y-103234733D01*
X168265267Y-103124988D01*
X168253826Y-103115941D01*
X168118128Y-103032241D01*
X168070650Y-102979455D01*
X168059247Y-102909380D01*
X168087540Y-102844264D01*
X168118128Y-102817759D01*
X168253826Y-102734059D01*
X168265267Y-102725012D01*
X168375012Y-102615267D01*
X168384059Y-102603826D01*
X168465543Y-102471721D01*
X168471699Y-102458519D01*
X168520670Y-102310734D01*
X168523529Y-102297376D01*
X168532675Y-102207858D01*
X168533000Y-102201468D01*
X168533000Y-102172115D01*
X168528525Y-102156876D01*
X168527135Y-102155671D01*
X168519452Y-102154000D01*
X167459500Y-102154000D01*
X167391379Y-102133998D01*
X167344886Y-102080342D01*
X167333500Y-102028000D01*
X167333500Y-101627885D01*
X167841500Y-101627885D01*
X167845975Y-101643124D01*
X167847365Y-101644329D01*
X167855048Y-101646000D01*
X168514884Y-101646000D01*
X168530123Y-101641525D01*
X168531328Y-101640135D01*
X168532999Y-101632452D01*
X168532999Y-101598535D01*
X168532673Y-101592140D01*
X168523530Y-101502631D01*
X168520668Y-101489260D01*
X168471699Y-101341481D01*
X168465543Y-101328279D01*
X168384059Y-101196174D01*
X168375012Y-101184733D01*
X168265267Y-101074988D01*
X168253826Y-101065941D01*
X168121721Y-100984457D01*
X168108519Y-100978301D01*
X167960734Y-100929330D01*
X167947376Y-100926471D01*
X167858340Y-100917375D01*
X167844376Y-100921475D01*
X167843171Y-100922865D01*
X167841500Y-100930548D01*
X167841500Y-101627885D01*
X167333500Y-101627885D01*
X167333500Y-100935116D01*
X167329025Y-100919877D01*
X167327635Y-100918672D01*
X167320632Y-100917149D01*
X167317140Y-100917327D01*
X167227631Y-100926470D01*
X167214260Y-100929332D01*
X167066481Y-100978301D01*
X167053279Y-100984457D01*
X166921174Y-101065941D01*
X166909733Y-101074988D01*
X166889449Y-101095272D01*
X166827137Y-101129298D01*
X166756322Y-101124233D01*
X166711259Y-101095272D01*
X166685387Y-101069400D01*
X166675310Y-101063184D01*
X166546934Y-100984001D01*
X166546933Y-100984001D01*
X166540692Y-100980151D01*
X166437686Y-100946019D01*
X166385836Y-100928837D01*
X166385835Y-100928837D01*
X166379314Y-100926676D01*
X166320720Y-100920690D01*
X166282895Y-100916825D01*
X166282889Y-100916825D01*
X166279711Y-100916500D01*
X166012542Y-100916500D01*
X165745290Y-100916501D01*
X165742113Y-100916826D01*
X165742104Y-100916826D01*
X165673914Y-100923792D01*
X165645686Y-100926676D01*
X165484308Y-100980151D01*
X165478067Y-100984001D01*
X165478066Y-100984001D01*
X165349691Y-101063184D01*
X165339613Y-101069400D01*
X165219400Y-101189613D01*
X165215547Y-101195860D01*
X165215546Y-101195861D01*
X165194460Y-101230047D01*
X165141674Y-101277525D01*
X165087219Y-101289900D01*
X164821388Y-101289900D01*
X164753267Y-101269898D01*
X164713560Y-101229085D01*
X164690760Y-101191369D01*
X164690760Y-101191368D01*
X164686816Y-101184845D01*
X164565155Y-101063184D01*
X164417913Y-100974173D01*
X164410639Y-100971906D01*
X164410636Y-100971905D01*
X164260013Y-100924970D01*
X164260012Y-100924970D01*
X164253649Y-100922987D01*
X164182265Y-100916500D01*
X163925045Y-100916500D01*
X163667736Y-100916501D01*
X163664888Y-100916760D01*
X163664883Y-100916760D01*
X163612992Y-100921475D01*
X163596351Y-100922987D01*
X163589993Y-100924968D01*
X163589989Y-100924969D01*
X163439364Y-100971905D01*
X163439361Y-100971906D01*
X163432087Y-100974173D01*
X163284845Y-101063184D01*
X163189095Y-101158934D01*
X163126783Y-101192960D01*
X163055968Y-101187895D01*
X163010905Y-101158934D01*
X162915155Y-101063184D01*
X162767913Y-100974173D01*
X162760639Y-100971906D01*
X162760636Y-100971905D01*
X162610013Y-100924970D01*
X162610012Y-100924970D01*
X162603649Y-100922987D01*
X162532265Y-100916500D01*
X162275045Y-100916500D01*
X162017736Y-100916501D01*
X162014888Y-100916760D01*
X162014883Y-100916760D01*
X161962992Y-100921475D01*
X161946351Y-100922987D01*
X161939993Y-100924968D01*
X161939989Y-100924969D01*
X161789364Y-100971905D01*
X161789361Y-100971906D01*
X161782087Y-100974173D01*
X161634845Y-101063184D01*
X161513184Y-101184845D01*
X161509240Y-101191368D01*
X161509240Y-101191369D01*
X161474884Y-101248201D01*
X161422526Y-101296149D01*
X161401905Y-101303760D01*
X161397068Y-101304371D01*
X161357680Y-101319965D01*
X161346457Y-101323807D01*
X161313390Y-101333415D01*
X161313388Y-101333416D01*
X161305774Y-101335628D01*
X161289293Y-101345375D01*
X161271551Y-101354067D01*
X161253746Y-101361116D01*
X161247332Y-101365776D01*
X161219469Y-101386019D01*
X161209549Y-101392535D01*
X161173094Y-101414095D01*
X161159567Y-101427622D01*
X161144533Y-101440463D01*
X161129038Y-101451721D01*
X161123985Y-101457829D01*
X161102027Y-101484372D01*
X161094037Y-101493152D01*
X159184193Y-103402995D01*
X159121881Y-103437021D01*
X159095098Y-103439900D01*
X156334500Y-103439900D01*
X156266379Y-103419898D01*
X156219886Y-103366242D01*
X156208500Y-103313900D01*
X156208500Y-102838500D01*
X156228502Y-102770379D01*
X156282158Y-102723886D01*
X156334500Y-102712500D01*
X156835271Y-102712500D01*
X156853533Y-102713830D01*
X156870412Y-102716303D01*
X156870416Y-102716303D01*
X156877672Y-102717366D01*
X156927816Y-102712979D01*
X156938798Y-102712500D01*
X156944412Y-102712500D01*
X156975682Y-102708845D01*
X156979328Y-102708472D01*
X157055240Y-102701831D01*
X157062207Y-102699522D01*
X157065648Y-102698812D01*
X157065994Y-102698756D01*
X157066337Y-102698659D01*
X157069750Y-102697850D01*
X157077042Y-102696998D01*
X157083939Y-102694488D01*
X157083946Y-102694486D01*
X157148637Y-102670940D01*
X157152099Y-102669736D01*
X157217473Y-102648074D01*
X157217476Y-102648073D01*
X157224440Y-102645765D01*
X157230684Y-102641913D01*
X157233869Y-102640428D01*
X157234193Y-102640294D01*
X157234515Y-102640114D01*
X157237639Y-102638545D01*
X157244539Y-102636034D01*
X157308224Y-102594148D01*
X157311288Y-102592196D01*
X157369905Y-102556040D01*
X157369908Y-102556037D01*
X157376149Y-102552188D01*
X157381339Y-102546998D01*
X157384078Y-102544832D01*
X157384375Y-102544618D01*
X157384630Y-102544384D01*
X157387332Y-102542117D01*
X157393462Y-102538085D01*
X157445788Y-102482623D01*
X157448341Y-102479996D01*
X161259378Y-98668960D01*
X161321690Y-98634934D01*
X161392506Y-98639999D01*
X161449341Y-98682546D01*
X161455708Y-98691900D01*
X161518470Y-98793652D01*
X161643848Y-98919030D01*
X161650095Y-98922883D01*
X161650096Y-98922884D01*
X161675414Y-98938500D01*
X161794762Y-99012115D01*
X161858307Y-99033171D01*
X161956548Y-99065725D01*
X161956552Y-99065726D01*
X161963074Y-99067887D01*
X161969908Y-99068585D01*
X161969912Y-99068586D01*
X162063771Y-99078175D01*
X162063777Y-99078175D01*
X162066955Y-99078500D01*
X163667250Y-99078500D01*
X165268044Y-99078499D01*
X165271221Y-99078174D01*
X165271230Y-99078174D01*
X165319967Y-99073195D01*
X165371926Y-99067887D01*
X165540238Y-99012115D01*
X165659586Y-98938500D01*
X165684904Y-98922884D01*
X165684905Y-98922883D01*
X165691152Y-98919030D01*
X165816530Y-98793652D01*
X165828332Y-98774519D01*
X165879109Y-98692196D01*
X165909615Y-98642738D01*
X165940409Y-98549805D01*
X165963225Y-98480952D01*
X165963226Y-98480948D01*
X165965387Y-98474426D01*
X165969829Y-98430955D01*
X165975019Y-98380149D01*
X166001842Y-98314414D01*
X166034219Y-98285715D01*
X166049905Y-98276040D01*
X166049908Y-98276037D01*
X166056149Y-98272188D01*
X166061339Y-98266998D01*
X166064078Y-98264832D01*
X166064375Y-98264618D01*
X166064630Y-98264384D01*
X166067332Y-98262117D01*
X166073462Y-98258085D01*
X166125787Y-98202624D01*
X166128340Y-98199997D01*
X167168394Y-97159944D01*
X167182247Y-97147971D01*
X167195940Y-97137777D01*
X167201822Y-97133398D01*
X167234180Y-97094835D01*
X167241607Y-97086731D01*
X167245573Y-97082765D01*
X167265105Y-97058063D01*
X167267418Y-97055225D01*
X167311677Y-97002478D01*
X167311680Y-97002473D01*
X167316396Y-96996853D01*
X167319688Y-96990298D01*
X167321609Y-96987377D01*
X167321825Y-96987077D01*
X167321994Y-96986775D01*
X167323845Y-96983775D01*
X167328395Y-96978020D01*
X167360602Y-96908953D01*
X167362196Y-96905661D01*
X167393099Y-96844129D01*
X167393102Y-96844121D01*
X167396394Y-96837566D01*
X167398086Y-96830427D01*
X167399292Y-96827114D01*
X167399423Y-96826798D01*
X167399519Y-96826459D01*
X167400624Y-96823123D01*
X167403725Y-96816473D01*
X167410979Y-96781341D01*
X167419129Y-96741870D01*
X167419922Y-96738292D01*
X167435808Y-96671262D01*
X167437500Y-96664123D01*
X167437500Y-96656787D01*
X167437909Y-96653288D01*
X167437964Y-96652944D01*
X167437980Y-96652587D01*
X167438286Y-96649090D01*
X167439769Y-96641908D01*
X167438904Y-96612154D01*
X167437553Y-96565731D01*
X167437500Y-96562067D01*
X167437500Y-87084500D01*
X167457502Y-87016379D01*
X167511158Y-86969886D01*
X167563500Y-86958500D01*
X167573638Y-86958500D01*
X167576985Y-86958140D01*
X167576988Y-86958140D01*
X167597295Y-86955957D01*
X167634201Y-86951989D01*
X167771204Y-86900889D01*
X167779296Y-86894832D01*
X167881050Y-86818659D01*
X167888261Y-86813261D01*
X167944610Y-86737988D01*
X167970489Y-86703418D01*
X167970490Y-86703416D01*
X167975889Y-86696204D01*
X168026989Y-86559201D01*
X168033500Y-86498638D01*
X168033500Y-84701362D01*
X168026989Y-84640799D01*
X167975889Y-84503796D01*
X167888261Y-84386739D01*
X167771204Y-84299111D01*
X167634201Y-84248011D01*
X167597295Y-84244043D01*
X167576988Y-84241860D01*
X167576985Y-84241860D01*
X167573638Y-84241500D01*
X165776362Y-84241500D01*
X165773015Y-84241860D01*
X165773012Y-84241860D01*
X165752705Y-84244043D01*
X165715799Y-84248011D01*
X165578796Y-84299111D01*
X165461739Y-84386739D01*
X165374111Y-84503796D01*
X165362762Y-84534225D01*
X165330002Y-84622056D01*
X165287455Y-84678892D01*
X165220935Y-84703703D01*
X165151561Y-84688612D01*
X165119245Y-84663362D01*
X165061772Y-84600931D01*
X165058240Y-84597094D01*
X164880576Y-84458811D01*
X164737424Y-84381341D01*
X164687159Y-84354139D01*
X164687156Y-84354138D01*
X164682574Y-84351658D01*
X164469635Y-84278556D01*
X164464501Y-84277699D01*
X164464496Y-84277698D01*
X164252706Y-84242357D01*
X164252704Y-84242357D01*
X164247569Y-84241500D01*
X164022431Y-84241500D01*
X164017296Y-84242357D01*
X164017294Y-84242357D01*
X163805504Y-84277698D01*
X163805499Y-84277699D01*
X163800365Y-84278556D01*
X163587426Y-84351658D01*
X163582844Y-84354138D01*
X163582841Y-84354139D01*
X163532576Y-84381341D01*
X163389424Y-84458811D01*
X163211760Y-84597094D01*
X163208228Y-84600931D01*
X163062806Y-84758899D01*
X163062803Y-84758903D01*
X163059278Y-84762732D01*
X163048194Y-84779698D01*
X163047725Y-84780416D01*
X162993721Y-84826504D01*
X162942242Y-84837500D01*
X161407794Y-84837500D01*
X161342609Y-84819328D01*
X161274438Y-84778117D01*
X161274435Y-84778116D01*
X161267913Y-84774173D01*
X161260639Y-84771906D01*
X161260636Y-84771905D01*
X161110013Y-84724970D01*
X161110012Y-84724970D01*
X161103649Y-84722987D01*
X161032265Y-84716500D01*
X160775045Y-84716500D01*
X160517736Y-84716501D01*
X160514888Y-84716760D01*
X160514883Y-84716760D01*
X160461210Y-84721637D01*
X160446351Y-84722987D01*
X160439993Y-84724968D01*
X160439989Y-84724969D01*
X160289364Y-84771905D01*
X160289361Y-84771906D01*
X160282087Y-84774173D01*
X160216261Y-84813966D01*
X160151045Y-84853391D01*
X160134845Y-84863184D01*
X160039095Y-84958934D01*
X159976783Y-84992960D01*
X159905968Y-84987895D01*
X159860905Y-84958934D01*
X159765155Y-84863184D01*
X159748956Y-84853391D01*
X159683739Y-84813966D01*
X159617913Y-84774173D01*
X159610639Y-84771906D01*
X159610636Y-84771905D01*
X159460013Y-84724970D01*
X159460012Y-84724970D01*
X159453649Y-84722987D01*
X159382265Y-84716500D01*
X159125045Y-84716500D01*
X158867736Y-84716501D01*
X158864888Y-84716760D01*
X158864883Y-84716760D01*
X158811210Y-84721637D01*
X158796351Y-84722987D01*
X158789993Y-84724968D01*
X158789989Y-84724969D01*
X158639364Y-84771905D01*
X158639361Y-84771906D01*
X158632087Y-84774173D01*
X158566261Y-84813966D01*
X158501045Y-84853391D01*
X158484845Y-84863184D01*
X158447434Y-84900595D01*
X158385122Y-84934621D01*
X158358339Y-84937500D01*
X157764729Y-84937500D01*
X157746467Y-84936170D01*
X157722328Y-84932634D01*
X157715013Y-84933274D01*
X157672198Y-84937020D01*
X157661216Y-84937500D01*
X157655588Y-84937500D01*
X157624262Y-84941161D01*
X157620637Y-84941531D01*
X157609426Y-84942512D01*
X157552069Y-84947530D01*
X157552065Y-84947531D01*
X157544760Y-84948170D01*
X157537801Y-84950476D01*
X157534361Y-84951186D01*
X157534009Y-84951243D01*
X157533688Y-84951334D01*
X157530245Y-84952150D01*
X157522958Y-84953002D01*
X157516063Y-84955511D01*
X157516061Y-84955512D01*
X157479916Y-84968668D01*
X157451365Y-84979060D01*
X157451340Y-84979069D01*
X157447883Y-84980271D01*
X157375560Y-85004235D01*
X157369311Y-85008089D01*
X157366129Y-85009573D01*
X157365807Y-85009706D01*
X157365496Y-85009880D01*
X157362360Y-85011455D01*
X157355461Y-85013966D01*
X157291785Y-85055846D01*
X157288721Y-85057798D01*
X157260686Y-85075091D01*
X157223850Y-85097812D01*
X157218655Y-85103007D01*
X157215917Y-85105172D01*
X157215620Y-85105386D01*
X157215364Y-85105621D01*
X157212668Y-85107883D01*
X157206538Y-85111915D01*
X157201503Y-85117252D01*
X157154229Y-85167359D01*
X157151675Y-85169987D01*
X156821067Y-85500595D01*
X156758755Y-85534621D01*
X156731972Y-85537500D01*
X156334499Y-85537500D01*
X156266378Y-85517498D01*
X156219885Y-85463842D01*
X156208499Y-85411500D01*
X156208499Y-84799456D01*
X156206541Y-84780284D01*
X156202565Y-84741371D01*
X156197887Y-84695574D01*
X156142115Y-84527262D01*
X156049030Y-84376348D01*
X155923652Y-84250970D01*
X155908883Y-84241860D01*
X155778981Y-84161736D01*
X155772738Y-84157885D01*
X155709193Y-84136829D01*
X155610952Y-84104275D01*
X155610948Y-84104274D01*
X155604426Y-84102113D01*
X155597592Y-84101415D01*
X155597588Y-84101414D01*
X155503729Y-84091825D01*
X155503723Y-84091825D01*
X155500545Y-84091500D01*
X155137557Y-84091500D01*
X154774456Y-84091501D01*
X154771279Y-84091826D01*
X154771270Y-84091826D01*
X154722533Y-84096805D01*
X154670574Y-84102113D01*
X154502262Y-84157885D01*
X154496019Y-84161736D01*
X154366118Y-84241860D01*
X154351348Y-84250970D01*
X154225970Y-84376348D01*
X154132885Y-84527262D01*
X154130578Y-84534225D01*
X154079420Y-84688612D01*
X154077113Y-84695574D01*
X154076415Y-84702408D01*
X154076414Y-84702412D01*
X154068445Y-84780416D01*
X154066500Y-84799455D01*
X154066501Y-87800544D01*
X154066826Y-87803721D01*
X154066826Y-87803730D01*
X154071794Y-87852354D01*
X154077113Y-87904426D01*
X154132885Y-88072738D01*
X154139523Y-88083500D01*
X154215682Y-88206972D01*
X154225970Y-88223652D01*
X154351348Y-88349030D01*
X154357595Y-88352883D01*
X154357596Y-88352884D01*
X154375000Y-88363619D01*
X154502262Y-88442115D01*
X154553898Y-88459225D01*
X154664048Y-88495725D01*
X154664052Y-88495726D01*
X154670574Y-88497887D01*
X154677408Y-88498585D01*
X154677412Y-88498586D01*
X154771271Y-88508175D01*
X154771277Y-88508175D01*
X154774455Y-88508500D01*
X155137443Y-88508500D01*
X155500544Y-88508499D01*
X155503721Y-88508174D01*
X155503730Y-88508174D01*
X155552467Y-88503195D01*
X155604426Y-88497887D01*
X155772738Y-88442115D01*
X155900000Y-88363619D01*
X155917404Y-88352884D01*
X155917405Y-88352883D01*
X155923652Y-88349030D01*
X156049030Y-88223652D01*
X156059319Y-88206972D01*
X156135477Y-88083500D01*
X156142115Y-88072738D01*
X156173291Y-87978654D01*
X156195725Y-87910952D01*
X156195726Y-87910948D01*
X156197887Y-87904426D01*
X156198604Y-87897416D01*
X156208175Y-87803729D01*
X156208175Y-87803723D01*
X156208500Y-87800545D01*
X156208500Y-87188500D01*
X156228502Y-87120379D01*
X156282158Y-87073886D01*
X156334500Y-87062500D01*
X157035271Y-87062500D01*
X157053533Y-87063830D01*
X157070412Y-87066303D01*
X157070416Y-87066303D01*
X157077672Y-87067366D01*
X157127816Y-87062979D01*
X157138798Y-87062500D01*
X157144412Y-87062500D01*
X157175682Y-87058845D01*
X157179328Y-87058472D01*
X157255240Y-87051831D01*
X157262207Y-87049522D01*
X157265648Y-87048812D01*
X157265994Y-87048756D01*
X157266337Y-87048659D01*
X157269750Y-87047850D01*
X157277042Y-87046998D01*
X157283939Y-87044488D01*
X157283946Y-87044486D01*
X157348637Y-87020940D01*
X157352099Y-87019736D01*
X157417473Y-86998074D01*
X157417476Y-86998073D01*
X157424440Y-86995765D01*
X157430684Y-86991913D01*
X157433869Y-86990428D01*
X157434193Y-86990294D01*
X157434515Y-86990114D01*
X157437639Y-86988545D01*
X157444539Y-86986034D01*
X157508224Y-86944148D01*
X157511288Y-86942196D01*
X157569905Y-86906040D01*
X157569908Y-86906037D01*
X157576149Y-86902188D01*
X157581339Y-86896998D01*
X157584078Y-86894832D01*
X157584376Y-86894617D01*
X157584629Y-86894385D01*
X157587332Y-86892117D01*
X157593462Y-86888085D01*
X157645769Y-86832644D01*
X157648322Y-86830016D01*
X157978933Y-86499405D01*
X158041245Y-86465379D01*
X158068028Y-86462500D01*
X158236500Y-86462500D01*
X158304621Y-86482502D01*
X158351114Y-86536158D01*
X158362500Y-86588500D01*
X158362500Y-88510271D01*
X158361170Y-88528532D01*
X158357634Y-88552672D01*
X158360126Y-88581156D01*
X158362021Y-88602816D01*
X158362500Y-88613798D01*
X158362500Y-88619412D01*
X158364714Y-88638349D01*
X158366155Y-88650680D01*
X158366528Y-88654325D01*
X158373169Y-88730240D01*
X158375478Y-88737207D01*
X158376188Y-88740648D01*
X158376244Y-88740994D01*
X158376341Y-88741337D01*
X158377150Y-88744750D01*
X158378002Y-88752042D01*
X158380512Y-88758939D01*
X158380514Y-88758946D01*
X158404060Y-88823637D01*
X158405264Y-88827099D01*
X158423884Y-88883291D01*
X158429235Y-88899440D01*
X158433087Y-88905684D01*
X158434572Y-88908869D01*
X158434706Y-88909193D01*
X158434886Y-88909515D01*
X158436455Y-88912639D01*
X158438966Y-88919539D01*
X158480852Y-88983224D01*
X158482804Y-88986288D01*
X158518960Y-89044905D01*
X158518963Y-89044908D01*
X158522812Y-89051149D01*
X158528002Y-89056339D01*
X158530168Y-89059078D01*
X158530382Y-89059375D01*
X158530616Y-89059630D01*
X158532883Y-89062332D01*
X158536915Y-89068462D01*
X158542252Y-89073497D01*
X158592376Y-89120787D01*
X158595004Y-89123341D01*
X160635056Y-91163394D01*
X160647029Y-91177247D01*
X160661602Y-91196822D01*
X160667220Y-91201536D01*
X160700165Y-91229180D01*
X160708269Y-91236607D01*
X160712235Y-91240573D01*
X160715110Y-91242846D01*
X160736937Y-91260105D01*
X160739775Y-91262418D01*
X160792522Y-91306677D01*
X160792527Y-91306680D01*
X160798147Y-91311396D01*
X160804702Y-91314688D01*
X160807623Y-91316609D01*
X160807923Y-91316825D01*
X160808225Y-91316994D01*
X160811225Y-91318845D01*
X160816980Y-91323395D01*
X160886046Y-91355601D01*
X160889345Y-91357199D01*
X160950866Y-91388096D01*
X160950870Y-91388098D01*
X160957434Y-91391394D01*
X160964584Y-91393088D01*
X160967861Y-91394281D01*
X160968202Y-91394423D01*
X160968539Y-91394518D01*
X160971875Y-91395623D01*
X160978526Y-91398725D01*
X161053146Y-91414133D01*
X161056714Y-91414924D01*
X161123737Y-91430808D01*
X161123738Y-91430808D01*
X161130877Y-91432500D01*
X161138215Y-91432500D01*
X161141706Y-91432908D01*
X161142055Y-91432964D01*
X161142412Y-91432980D01*
X161145909Y-91433286D01*
X161153091Y-91434769D01*
X161160419Y-91434556D01*
X161160421Y-91434556D01*
X161229254Y-91432553D01*
X161232918Y-91432500D01*
X161512519Y-91432500D01*
X161580640Y-91452502D01*
X161619813Y-91492439D01*
X161630976Y-91510569D01*
X161652891Y-91535469D01*
X161725860Y-91618377D01*
X161789381Y-91690551D01*
X161853049Y-91741960D01*
X161971758Y-91837812D01*
X161971764Y-91837816D01*
X161975924Y-91841175D01*
X161980593Y-91843783D01*
X161980597Y-91843786D01*
X162097552Y-91909120D01*
X162185240Y-91958105D01*
X162411306Y-92037980D01*
X162416578Y-92038884D01*
X162642350Y-92077597D01*
X162642355Y-92077597D01*
X162647619Y-92078500D01*
X164627327Y-92078500D01*
X164629980Y-92078274D01*
X164629985Y-92078274D01*
X164801067Y-92063713D01*
X164801070Y-92063712D01*
X164806398Y-92063259D01*
X164811573Y-92061911D01*
X164811576Y-92061911D01*
X164922411Y-92033051D01*
X165038424Y-92002844D01*
X165256902Y-91904086D01*
X165455547Y-91769825D01*
X165460236Y-91765331D01*
X165624779Y-91607630D01*
X165624783Y-91607626D01*
X165628644Y-91603925D01*
X165631821Y-91599629D01*
X165631831Y-91599618D01*
X165685197Y-91527462D01*
X165741785Y-91484587D01*
X165812570Y-91479113D01*
X165875078Y-91512776D01*
X165909463Y-91574891D01*
X165912500Y-91602386D01*
X165912500Y-93232429D01*
X165892498Y-93300550D01*
X165838842Y-93347043D01*
X165768568Y-93357147D01*
X165703988Y-93327653D01*
X165691925Y-93315684D01*
X165545619Y-93149449D01*
X165479117Y-93095752D01*
X165363242Y-93002188D01*
X165363236Y-93002184D01*
X165359076Y-92998825D01*
X165354407Y-92996217D01*
X165354403Y-92996214D01*
X165154439Y-92884509D01*
X165149760Y-92881895D01*
X164923694Y-92802020D01*
X164891490Y-92796498D01*
X164692650Y-92762403D01*
X164692645Y-92762403D01*
X164687381Y-92761500D01*
X162707673Y-92761500D01*
X162705020Y-92761726D01*
X162705015Y-92761726D01*
X162533933Y-92776287D01*
X162533930Y-92776288D01*
X162528602Y-92776741D01*
X162523427Y-92778089D01*
X162523424Y-92778089D01*
X162419634Y-92805114D01*
X162296576Y-92837156D01*
X162078098Y-92935914D01*
X161879453Y-93070175D01*
X161706356Y-93236075D01*
X161647949Y-93315047D01*
X161591363Y-93357919D01*
X161520578Y-93363394D01*
X161457553Y-93329215D01*
X157997444Y-89869106D01*
X157985471Y-89855253D01*
X157975277Y-89841560D01*
X157970898Y-89835678D01*
X157932335Y-89803320D01*
X157924231Y-89795893D01*
X157920265Y-89791927D01*
X157895563Y-89772395D01*
X157892725Y-89770082D01*
X157839978Y-89725823D01*
X157839973Y-89725820D01*
X157834353Y-89721104D01*
X157827798Y-89717812D01*
X157824877Y-89715891D01*
X157824577Y-89715675D01*
X157824275Y-89715506D01*
X157821275Y-89713655D01*
X157815520Y-89709105D01*
X157746453Y-89676898D01*
X157743161Y-89675304D01*
X157681629Y-89644401D01*
X157681621Y-89644398D01*
X157675066Y-89641106D01*
X157667927Y-89639414D01*
X157664614Y-89638208D01*
X157664298Y-89638077D01*
X157663959Y-89637981D01*
X157660622Y-89636875D01*
X157653973Y-89633775D01*
X157646789Y-89632292D01*
X157646787Y-89632291D01*
X157604365Y-89623532D01*
X157579358Y-89618368D01*
X157575789Y-89617577D01*
X157558122Y-89613390D01*
X157501623Y-89600000D01*
X157494285Y-89600000D01*
X157490794Y-89599592D01*
X157490445Y-89599536D01*
X157490088Y-89599520D01*
X157486591Y-89599214D01*
X157479409Y-89597731D01*
X157472081Y-89597944D01*
X157472079Y-89597944D01*
X157403246Y-89599947D01*
X157399582Y-89600000D01*
X156884500Y-89600000D01*
X156816379Y-89579998D01*
X156769886Y-89526342D01*
X156758500Y-89474000D01*
X156758500Y-89413862D01*
X156756690Y-89397021D01*
X156752831Y-89361133D01*
X156751989Y-89353299D01*
X156700889Y-89216296D01*
X156678821Y-89186816D01*
X156618659Y-89106450D01*
X156613261Y-89099239D01*
X156554309Y-89055108D01*
X156503418Y-89017011D01*
X156503416Y-89017010D01*
X156496204Y-89011611D01*
X156359201Y-88960511D01*
X156322295Y-88956543D01*
X156301988Y-88954360D01*
X156301985Y-88954360D01*
X156298638Y-88954000D01*
X153701362Y-88954000D01*
X153698015Y-88954360D01*
X153698012Y-88954360D01*
X153677705Y-88956543D01*
X153640799Y-88960511D01*
X153503796Y-89011611D01*
X153496584Y-89017010D01*
X153496582Y-89017011D01*
X153445691Y-89055108D01*
X153386739Y-89099239D01*
X153381341Y-89106450D01*
X153321180Y-89186816D01*
X153299111Y-89216296D01*
X153248011Y-89353299D01*
X153247169Y-89361133D01*
X153243311Y-89397021D01*
X153241500Y-89413862D01*
X153241500Y-91311138D01*
X153241860Y-91314485D01*
X153241860Y-91314488D01*
X153242818Y-91323395D01*
X153248011Y-91371701D01*
X153299111Y-91508704D01*
X153304510Y-91515916D01*
X153304511Y-91515918D01*
X153348658Y-91574891D01*
X153386739Y-91625761D01*
X153393950Y-91631159D01*
X153486839Y-91700695D01*
X153503796Y-91713389D01*
X153640799Y-91764489D01*
X153677705Y-91768457D01*
X153698012Y-91770640D01*
X153698015Y-91770640D01*
X153701362Y-91771000D01*
X156298638Y-91771000D01*
X156301985Y-91770640D01*
X156301988Y-91770640D01*
X156322295Y-91768457D01*
X156359201Y-91764489D01*
X156496204Y-91713389D01*
X156513162Y-91700695D01*
X156606050Y-91631159D01*
X156613261Y-91625761D01*
X156651342Y-91574891D01*
X156695489Y-91515918D01*
X156695490Y-91515916D01*
X156700889Y-91508704D01*
X156751989Y-91371701D01*
X156757182Y-91323395D01*
X156758140Y-91314488D01*
X156758140Y-91314485D01*
X156758500Y-91311138D01*
X156758500Y-91251000D01*
X156778502Y-91182879D01*
X156832158Y-91136386D01*
X156884500Y-91125000D01*
X157044473Y-91125000D01*
X157112594Y-91145002D01*
X157133568Y-91161905D01*
X159807567Y-93835905D01*
X159841593Y-93898217D01*
X159836528Y-93969033D01*
X159807567Y-94014095D01*
X156895595Y-96926067D01*
X156833283Y-96960093D01*
X156762468Y-96955028D01*
X156705632Y-96912481D01*
X156702049Y-96906907D01*
X156700889Y-96903796D01*
X156695492Y-96896586D01*
X156695490Y-96896583D01*
X156618659Y-96793950D01*
X156613261Y-96786739D01*
X156548544Y-96738292D01*
X156503418Y-96704511D01*
X156503416Y-96704510D01*
X156496204Y-96699111D01*
X156359201Y-96648011D01*
X156322295Y-96644043D01*
X156301988Y-96641860D01*
X156301985Y-96641860D01*
X156298638Y-96641500D01*
X153966027Y-96641500D01*
X153897906Y-96621498D01*
X153851413Y-96567842D01*
X153841309Y-96497568D01*
X153870803Y-96432988D01*
X153876916Y-96426422D01*
X154632935Y-95670403D01*
X154695245Y-95636379D01*
X154722028Y-95633500D01*
X156298638Y-95633500D01*
X156301985Y-95633140D01*
X156301988Y-95633140D01*
X156322295Y-95630957D01*
X156359201Y-95626989D01*
X156496204Y-95575889D01*
X156505855Y-95568665D01*
X156596723Y-95500641D01*
X156613261Y-95488261D01*
X156646445Y-95443933D01*
X156695489Y-95378418D01*
X156695490Y-95378416D01*
X156700889Y-95371204D01*
X156751989Y-95234201D01*
X156758500Y-95173638D01*
X156758500Y-93276362D01*
X156751989Y-93215799D01*
X156700889Y-93078796D01*
X156694436Y-93070175D01*
X156618659Y-92968950D01*
X156613261Y-92961739D01*
X156575815Y-92933707D01*
X156503418Y-92879511D01*
X156503416Y-92879510D01*
X156496204Y-92874111D01*
X156359201Y-92823011D01*
X156322295Y-92819043D01*
X156301988Y-92816860D01*
X156301985Y-92816860D01*
X156298638Y-92816500D01*
X153701362Y-92816500D01*
X153698015Y-92816860D01*
X153698012Y-92816860D01*
X153677705Y-92819043D01*
X153640799Y-92823011D01*
X153503796Y-92874111D01*
X153496584Y-92879510D01*
X153496582Y-92879511D01*
X153424185Y-92933707D01*
X153386739Y-92961739D01*
X153381341Y-92968950D01*
X153305565Y-93070175D01*
X153299111Y-93078796D01*
X153248011Y-93215799D01*
X153241500Y-93276362D01*
X153241500Y-94852973D01*
X153221498Y-94921094D01*
X153204595Y-94942068D01*
X152973595Y-95173068D01*
X152911283Y-95207094D01*
X152840468Y-95202029D01*
X152783632Y-95159482D01*
X152758821Y-95092962D01*
X152758500Y-95083973D01*
X152758500Y-93276362D01*
X152751989Y-93215799D01*
X152700889Y-93078796D01*
X152694436Y-93070175D01*
X152618659Y-92968950D01*
X152613261Y-92961739D01*
X152575815Y-92933707D01*
X152503418Y-92879511D01*
X152503416Y-92879510D01*
X152496204Y-92874111D01*
X152359201Y-92823011D01*
X152322295Y-92819043D01*
X152301988Y-92816860D01*
X152301985Y-92816860D01*
X152298638Y-92816500D01*
X151888500Y-92816500D01*
X151820379Y-92796498D01*
X151773886Y-92742842D01*
X151762500Y-92690500D01*
X151762500Y-91897000D01*
X151782502Y-91828879D01*
X151836158Y-91782386D01*
X151888500Y-91771000D01*
X152298638Y-91771000D01*
X152301985Y-91770640D01*
X152301988Y-91770640D01*
X152322295Y-91768457D01*
X152359201Y-91764489D01*
X152496204Y-91713389D01*
X152513162Y-91700695D01*
X152606050Y-91631159D01*
X152613261Y-91625761D01*
X152651342Y-91574891D01*
X152695489Y-91515918D01*
X152695490Y-91515916D01*
X152700889Y-91508704D01*
X152751989Y-91371701D01*
X152757182Y-91323395D01*
X152758140Y-91314488D01*
X152758140Y-91314485D01*
X152758500Y-91311138D01*
X152758500Y-89413862D01*
X152756690Y-89397021D01*
X152752831Y-89361133D01*
X152751989Y-89353299D01*
X152700889Y-89216296D01*
X152678821Y-89186816D01*
X152618659Y-89106450D01*
X152613261Y-89099239D01*
X152554309Y-89055108D01*
X152503418Y-89017011D01*
X152503416Y-89017010D01*
X152496204Y-89011611D01*
X152359201Y-88960511D01*
X152322295Y-88956543D01*
X152301988Y-88954360D01*
X152301985Y-88954360D01*
X152298638Y-88954000D01*
X151751000Y-88954000D01*
X151682879Y-88933998D01*
X151636386Y-88880342D01*
X151625000Y-88828000D01*
X151625000Y-88424872D01*
X151645002Y-88356751D01*
X151661905Y-88335777D01*
X151774030Y-88223652D01*
X151784319Y-88206972D01*
X151860477Y-88083500D01*
X151867115Y-88072738D01*
X151898291Y-87978654D01*
X151920725Y-87910952D01*
X151920726Y-87910948D01*
X151922887Y-87904426D01*
X151923604Y-87897416D01*
X151933175Y-87803729D01*
X151933175Y-87803723D01*
X151933500Y-87800545D01*
X151933499Y-84799456D01*
X151931541Y-84780284D01*
X151927565Y-84741371D01*
X151922887Y-84695574D01*
X151867115Y-84527262D01*
X151774030Y-84376348D01*
X151648652Y-84250970D01*
X151633883Y-84241860D01*
X151503981Y-84161736D01*
X151497738Y-84157885D01*
X151434193Y-84136829D01*
X151335952Y-84104275D01*
X151335948Y-84104274D01*
X151329426Y-84102113D01*
X151322592Y-84101415D01*
X151322588Y-84101414D01*
X151228729Y-84091825D01*
X151228723Y-84091825D01*
X151225545Y-84091500D01*
X150862557Y-84091500D01*
X150499456Y-84091501D01*
X150496279Y-84091826D01*
X150496270Y-84091826D01*
X150447533Y-84096805D01*
X150395574Y-84102113D01*
X150227262Y-84157885D01*
X150221019Y-84161736D01*
X150091118Y-84241860D01*
X150076348Y-84250970D01*
X149950970Y-84376348D01*
X149857885Y-84527262D01*
X149855578Y-84534225D01*
X149804420Y-84688612D01*
X149802113Y-84695574D01*
X149801415Y-84702408D01*
X149801414Y-84702412D01*
X149793445Y-84780416D01*
X149791500Y-84799455D01*
X149791501Y-87800544D01*
X149791826Y-87803721D01*
X149791826Y-87803730D01*
X149796794Y-87852354D01*
X149802113Y-87904426D01*
X149857885Y-88072738D01*
X149864523Y-88083500D01*
X149940682Y-88206972D01*
X149950970Y-88223652D01*
X150063095Y-88335777D01*
X150097121Y-88398089D01*
X150100000Y-88424872D01*
X150100000Y-88828000D01*
X150079998Y-88896121D01*
X150026342Y-88942614D01*
X149974000Y-88954000D01*
X149701362Y-88954000D01*
X149698015Y-88954360D01*
X149698012Y-88954360D01*
X149677705Y-88956543D01*
X149640799Y-88960511D01*
X149503796Y-89011611D01*
X149496584Y-89017010D01*
X149496582Y-89017011D01*
X149445691Y-89055108D01*
X149386739Y-89099239D01*
X149381341Y-89106450D01*
X149321180Y-89186816D01*
X149299111Y-89216296D01*
X149248011Y-89353299D01*
X149247169Y-89361133D01*
X149243311Y-89397021D01*
X149241500Y-89413862D01*
X149241500Y-91311138D01*
X149241860Y-91314485D01*
X149241860Y-91314488D01*
X149242818Y-91323395D01*
X149248011Y-91371701D01*
X149299111Y-91508704D01*
X149304510Y-91515916D01*
X149304511Y-91515918D01*
X149348658Y-91574891D01*
X149386739Y-91625761D01*
X149393950Y-91631159D01*
X149486839Y-91700695D01*
X149503796Y-91713389D01*
X149640799Y-91764489D01*
X149677705Y-91768457D01*
X149698012Y-91770640D01*
X149698015Y-91770640D01*
X149701362Y-91771000D01*
X150111500Y-91771000D01*
X150179621Y-91791002D01*
X150226114Y-91844658D01*
X150237500Y-91897000D01*
X150237500Y-92690500D01*
X150217498Y-92758621D01*
X150163842Y-92805114D01*
X150111500Y-92816500D01*
X149701362Y-92816500D01*
X149698015Y-92816860D01*
X149698012Y-92816860D01*
X149677705Y-92819043D01*
X149640799Y-92823011D01*
X149503796Y-92874111D01*
X149496584Y-92879510D01*
X149496582Y-92879511D01*
X149424185Y-92933707D01*
X149386739Y-92961739D01*
X149381341Y-92968950D01*
X149305565Y-93070175D01*
X149299111Y-93078796D01*
X149248011Y-93215799D01*
X149241500Y-93276362D01*
X149241500Y-93347060D01*
X149221498Y-93415181D01*
X149167842Y-93461674D01*
X149134158Y-93470557D01*
X149134259Y-93471045D01*
X149127070Y-93472530D01*
X149119760Y-93473169D01*
X149112794Y-93475477D01*
X149109352Y-93476188D01*
X149109006Y-93476244D01*
X149108663Y-93476341D01*
X149105250Y-93477150D01*
X149097958Y-93478002D01*
X149091061Y-93480512D01*
X149091054Y-93480514D01*
X149026363Y-93504060D01*
X149022901Y-93505264D01*
X148957527Y-93526926D01*
X148957524Y-93526927D01*
X148950560Y-93529235D01*
X148944316Y-93533087D01*
X148941131Y-93534572D01*
X148940807Y-93534706D01*
X148940485Y-93534886D01*
X148937361Y-93536455D01*
X148930461Y-93538966D01*
X148866776Y-93580852D01*
X148863712Y-93582804D01*
X148805095Y-93618960D01*
X148805092Y-93618963D01*
X148798851Y-93622812D01*
X148793661Y-93628002D01*
X148790922Y-93630168D01*
X148790625Y-93630382D01*
X148790370Y-93630616D01*
X148787668Y-93632883D01*
X148781538Y-93636915D01*
X148776503Y-93642252D01*
X148729213Y-93692376D01*
X148726659Y-93695004D01*
X148108937Y-94312726D01*
X148046625Y-94346752D01*
X147975810Y-94341687D01*
X147918974Y-94299140D01*
X147913155Y-94290667D01*
X147849434Y-94189256D01*
X147817051Y-94137719D01*
X147688221Y-94008889D01*
X147533955Y-93911957D01*
X147361987Y-93851783D01*
X147354960Y-93850991D01*
X147354959Y-93850991D01*
X147314995Y-93846488D01*
X147226346Y-93836500D01*
X147193340Y-93836500D01*
X147125219Y-93816498D01*
X147079146Y-93763751D01*
X147079011Y-93763463D01*
X147076704Y-93756499D01*
X147072852Y-93750254D01*
X147071373Y-93747082D01*
X147071236Y-93746752D01*
X147071067Y-93746449D01*
X147069485Y-93743298D01*
X147066974Y-93736401D01*
X147025096Y-93672730D01*
X147023134Y-93669650D01*
X146999139Y-93630747D01*
X146983128Y-93604790D01*
X146977934Y-93599596D01*
X146975768Y-93596857D01*
X146975554Y-93596560D01*
X146975319Y-93596304D01*
X146973057Y-93593608D01*
X146969025Y-93587478D01*
X146913580Y-93535168D01*
X146910953Y-93532615D01*
X145467668Y-92089330D01*
X145437158Y-92039867D01*
X145436833Y-92038884D01*
X145412152Y-91964401D01*
X145409712Y-91893447D01*
X145442662Y-91835675D01*
X145730894Y-91547443D01*
X145744749Y-91535469D01*
X145758437Y-91525279D01*
X145764322Y-91520898D01*
X145776815Y-91506010D01*
X145796680Y-91482335D01*
X145804107Y-91474231D01*
X145808073Y-91470265D01*
X145827605Y-91445563D01*
X145829918Y-91442725D01*
X145874177Y-91389978D01*
X145874180Y-91389973D01*
X145878896Y-91384353D01*
X145882189Y-91377796D01*
X145883920Y-91375164D01*
X145938063Y-91329241D01*
X145949558Y-91324797D01*
X145965772Y-91319424D01*
X145965777Y-91319422D01*
X145972738Y-91317115D01*
X145989661Y-91306677D01*
X146117404Y-91227884D01*
X146117405Y-91227883D01*
X146123652Y-91224030D01*
X146249030Y-91098652D01*
X146342115Y-90947738D01*
X146368257Y-90868844D01*
X146395725Y-90785952D01*
X146395726Y-90785948D01*
X146397887Y-90779426D01*
X146408500Y-90675545D01*
X146408499Y-88724456D01*
X146407793Y-88717539D01*
X146401860Y-88659468D01*
X146397887Y-88620574D01*
X146342115Y-88452262D01*
X146249030Y-88301348D01*
X146123652Y-88175970D01*
X145972738Y-88082885D01*
X145954125Y-88076717D01*
X145895755Y-88036304D01*
X145868499Y-87970748D01*
X145881012Y-87900862D01*
X145904664Y-87868018D01*
X145974030Y-87798652D01*
X145977886Y-87792401D01*
X145987784Y-87776354D01*
X146040569Y-87728875D01*
X146095025Y-87716500D01*
X148099934Y-87716500D01*
X148103007Y-87716197D01*
X148103014Y-87716197D01*
X148193618Y-87707273D01*
X148249269Y-87701792D01*
X148440880Y-87643667D01*
X148446335Y-87640751D01*
X148446338Y-87640750D01*
X148575137Y-87571905D01*
X148617469Y-87549278D01*
X148772252Y-87422252D01*
X148899278Y-87267469D01*
X148941895Y-87187739D01*
X148990750Y-87096338D01*
X148990751Y-87096335D01*
X148993667Y-87090880D01*
X149051792Y-86899269D01*
X149071418Y-86700000D01*
X149051792Y-86500731D01*
X148993667Y-86309120D01*
X148979440Y-86282502D01*
X148902194Y-86137987D01*
X148899278Y-86132531D01*
X148772252Y-85977748D01*
X148617469Y-85850722D01*
X148537739Y-85808105D01*
X148446338Y-85759250D01*
X148446335Y-85759249D01*
X148440880Y-85756333D01*
X148249269Y-85698208D01*
X148193618Y-85692727D01*
X148103014Y-85683803D01*
X148103007Y-85683803D01*
X148099934Y-85683500D01*
X146095025Y-85683500D01*
X146026904Y-85663498D01*
X145987784Y-85623646D01*
X145977886Y-85607599D01*
X145977884Y-85607596D01*
X145974030Y-85601348D01*
X145848652Y-85475970D01*
X145839152Y-85470110D01*
X145761510Y-85422220D01*
X145697738Y-85382885D01*
X145634193Y-85361829D01*
X145535952Y-85329275D01*
X145535948Y-85329274D01*
X145529426Y-85327113D01*
X145522592Y-85326415D01*
X145522588Y-85326414D01*
X145428729Y-85316825D01*
X145428723Y-85316825D01*
X145425545Y-85316500D01*
X145000067Y-85316500D01*
X144574456Y-85316501D01*
X144571279Y-85316826D01*
X144571270Y-85316826D01*
X144522533Y-85321805D01*
X144470574Y-85327113D01*
X144302262Y-85382885D01*
X144238490Y-85422220D01*
X144160849Y-85470110D01*
X144151348Y-85475970D01*
X144025970Y-85601348D01*
X143932885Y-85752262D01*
X143914371Y-85808134D01*
X143881683Y-85906783D01*
X143877113Y-85920574D01*
X143876415Y-85927408D01*
X143876414Y-85927412D01*
X143866825Y-86021270D01*
X143866500Y-86024455D01*
X143866500Y-86333972D01*
X143846498Y-86402093D01*
X143792842Y-86448586D01*
X143722568Y-86458690D01*
X143657988Y-86429196D01*
X143651405Y-86423067D01*
X143434944Y-86206606D01*
X143422971Y-86192753D01*
X143412777Y-86179060D01*
X143408398Y-86173178D01*
X143378508Y-86148098D01*
X143339182Y-86088990D01*
X143333499Y-86051576D01*
X143333499Y-86024456D01*
X143322887Y-85920574D01*
X143267115Y-85752262D01*
X143174030Y-85601348D01*
X143048652Y-85475970D01*
X143039152Y-85470110D01*
X142961510Y-85422220D01*
X142897738Y-85382885D01*
X142834193Y-85361829D01*
X142735952Y-85329275D01*
X142735948Y-85329274D01*
X142729426Y-85327113D01*
X142722592Y-85326415D01*
X142722588Y-85326414D01*
X142628729Y-85316825D01*
X142628723Y-85316825D01*
X142625545Y-85316500D01*
X142497028Y-85316500D01*
X142428907Y-85296498D01*
X142407933Y-85279595D01*
X142134944Y-85006606D01*
X142122971Y-84992753D01*
X142112777Y-84979060D01*
X142108398Y-84973178D01*
X142077832Y-84947530D01*
X142069835Y-84940820D01*
X142061731Y-84933393D01*
X142057765Y-84929427D01*
X142042253Y-84917162D01*
X142033063Y-84909895D01*
X142030225Y-84907582D01*
X141977478Y-84863323D01*
X141977473Y-84863320D01*
X141971853Y-84858604D01*
X141965298Y-84855312D01*
X141962377Y-84853391D01*
X141962077Y-84853175D01*
X141961775Y-84853006D01*
X141958775Y-84851155D01*
X141953020Y-84846605D01*
X141883953Y-84814398D01*
X141880661Y-84812804D01*
X141819129Y-84781901D01*
X141819121Y-84781898D01*
X141812566Y-84778606D01*
X141805427Y-84776914D01*
X141802114Y-84775708D01*
X141801798Y-84775577D01*
X141801459Y-84775481D01*
X141798122Y-84774375D01*
X141791473Y-84771275D01*
X141784289Y-84769792D01*
X141784287Y-84769791D01*
X141731536Y-84758899D01*
X141716858Y-84755868D01*
X141713289Y-84755077D01*
X141696871Y-84751186D01*
X141639123Y-84737500D01*
X141631785Y-84737500D01*
X141628294Y-84737092D01*
X141627945Y-84737036D01*
X141627588Y-84737020D01*
X141624091Y-84736714D01*
X141616909Y-84735231D01*
X141609581Y-84735444D01*
X141609579Y-84735444D01*
X141540746Y-84737447D01*
X141537082Y-84737500D01*
X135264728Y-84737500D01*
X135246467Y-84736170D01*
X135222327Y-84732634D01*
X135215012Y-84733274D01*
X135172197Y-84737020D01*
X135161215Y-84737500D01*
X135155588Y-84737500D01*
X135124273Y-84741160D01*
X135120678Y-84741528D01*
X135044759Y-84748170D01*
X135037791Y-84750479D01*
X135034365Y-84751186D01*
X135033999Y-84751245D01*
X135033685Y-84751334D01*
X135030239Y-84752151D01*
X135022958Y-84753002D01*
X135016072Y-84755508D01*
X135016069Y-84755509D01*
X134951302Y-84779082D01*
X134947841Y-84780284D01*
X134899599Y-84796270D01*
X134875559Y-84804236D01*
X134869310Y-84808091D01*
X134866139Y-84809569D01*
X134865807Y-84809707D01*
X134865509Y-84809873D01*
X134862358Y-84811455D01*
X134855461Y-84813966D01*
X134795249Y-84853569D01*
X134791802Y-84855836D01*
X134788722Y-84857798D01*
X134723850Y-84897812D01*
X134718656Y-84903006D01*
X134715917Y-84905172D01*
X134715620Y-84905386D01*
X134715364Y-84905621D01*
X134712668Y-84907883D01*
X134706538Y-84911915D01*
X134667774Y-84953002D01*
X134654229Y-84967359D01*
X134651675Y-84969987D01*
X134231606Y-85390056D01*
X134217753Y-85402029D01*
X134198178Y-85416602D01*
X134193464Y-85422220D01*
X134165820Y-85455165D01*
X134158393Y-85463269D01*
X134154427Y-85467235D01*
X134152154Y-85470110D01*
X134134895Y-85491937D01*
X134132582Y-85494775D01*
X134088323Y-85547522D01*
X134088320Y-85547527D01*
X134083604Y-85553147D01*
X134080312Y-85559702D01*
X134078391Y-85562623D01*
X134078175Y-85562923D01*
X134078006Y-85563225D01*
X134076155Y-85566225D01*
X134071605Y-85571980D01*
X134068505Y-85578629D01*
X134039402Y-85641040D01*
X134037804Y-85644339D01*
X134006901Y-85705871D01*
X134006898Y-85705879D01*
X134003606Y-85712434D01*
X134001914Y-85719573D01*
X134000708Y-85722886D01*
X134000577Y-85723202D01*
X134000481Y-85723541D01*
X133999375Y-85726878D01*
X133996275Y-85733527D01*
X133994792Y-85740711D01*
X133994791Y-85740713D01*
X133980870Y-85808134D01*
X133980077Y-85811709D01*
X133976937Y-85824959D01*
X133941766Y-85886631D01*
X133895949Y-85914832D01*
X133746985Y-85966957D01*
X133740993Y-85970722D01*
X133660547Y-86021270D01*
X133592719Y-86063889D01*
X133463889Y-86192719D01*
X133366957Y-86346985D01*
X133306783Y-86518953D01*
X133286384Y-86700000D01*
X133287176Y-86707029D01*
X133302819Y-86845861D01*
X133306783Y-86881047D01*
X133366957Y-87053015D01*
X133370722Y-87059007D01*
X133373753Y-87063830D01*
X133463889Y-87207281D01*
X133592719Y-87336111D01*
X133660547Y-87378730D01*
X133667387Y-87383028D01*
X133714424Y-87436207D01*
X133725244Y-87506374D01*
X133696411Y-87571252D01*
X133664495Y-87598164D01*
X133623590Y-87622355D01*
X133559455Y-87639900D01*
X133475677Y-87639900D01*
X133465125Y-87639402D01*
X133457871Y-87637781D01*
X133395451Y-87639742D01*
X133392405Y-87639838D01*
X133388448Y-87639900D01*
X133361765Y-87639900D01*
X133296581Y-87621729D01*
X133289865Y-87617669D01*
X133217913Y-87574173D01*
X133210639Y-87571906D01*
X133210636Y-87571905D01*
X133060013Y-87524970D01*
X133060012Y-87524970D01*
X133053649Y-87522987D01*
X132982265Y-87516500D01*
X132650059Y-87516500D01*
X132317736Y-87516501D01*
X132314888Y-87516760D01*
X132314883Y-87516760D01*
X132261210Y-87521637D01*
X132246351Y-87522987D01*
X132239993Y-87524968D01*
X132239989Y-87524969D01*
X132089364Y-87571905D01*
X132089361Y-87571906D01*
X132082087Y-87574173D01*
X132075562Y-87578117D01*
X132075563Y-87578117D01*
X131950069Y-87653981D01*
X131934845Y-87663184D01*
X131833934Y-87764095D01*
X131771622Y-87798121D01*
X131744839Y-87801000D01*
X131724923Y-87801000D01*
X131717315Y-87800770D01*
X131665093Y-87797611D01*
X131665091Y-87797611D01*
X131657485Y-87797151D01*
X131649988Y-87798525D01*
X131649986Y-87798525D01*
X131598521Y-87807956D01*
X131590998Y-87809101D01*
X131572938Y-87811294D01*
X131531490Y-87816327D01*
X131524362Y-87819031D01*
X131524360Y-87819031D01*
X131522233Y-87819838D01*
X131500260Y-87825964D01*
X131490517Y-87827749D01*
X131435824Y-87852365D01*
X131428857Y-87855250D01*
X131372773Y-87876520D01*
X131366506Y-87880846D01*
X131366500Y-87880849D01*
X131364621Y-87882146D01*
X131344756Y-87893350D01*
X131342676Y-87894286D01*
X131342668Y-87894291D01*
X131335724Y-87897416D01*
X131288527Y-87934392D01*
X131282421Y-87938885D01*
X131233073Y-87972948D01*
X131228018Y-87978654D01*
X131193327Y-88017812D01*
X131188110Y-88023355D01*
X130973356Y-88238108D01*
X130967815Y-88243324D01*
X130928653Y-88278018D01*
X130928650Y-88278022D01*
X130922948Y-88283073D01*
X130889007Y-88332246D01*
X130888898Y-88332403D01*
X130884389Y-88338532D01*
X130847416Y-88385725D01*
X130844290Y-88392671D01*
X130844288Y-88392674D01*
X130843351Y-88394757D01*
X130832151Y-88414614D01*
X130830848Y-88416502D01*
X130826520Y-88422773D01*
X130823819Y-88429896D01*
X130805263Y-88478823D01*
X130802350Y-88485855D01*
X130780878Y-88533563D01*
X130780876Y-88533569D01*
X130777749Y-88540517D01*
X130775964Y-88550259D01*
X130769838Y-88572233D01*
X130766327Y-88581490D01*
X130762361Y-88614154D01*
X130759101Y-88640998D01*
X130757956Y-88648521D01*
X130752511Y-88678235D01*
X130747151Y-88707485D01*
X130747611Y-88715091D01*
X130747611Y-88715093D01*
X130750770Y-88767317D01*
X130751000Y-88774924D01*
X130751000Y-94475033D01*
X130748936Y-94497743D01*
X130747151Y-94507485D01*
X130747611Y-94515091D01*
X130747611Y-94515093D01*
X130750770Y-94567317D01*
X130751000Y-94574924D01*
X130751000Y-100475076D01*
X130750770Y-100482683D01*
X130747151Y-100542515D01*
X130748525Y-100550010D01*
X130748936Y-100552254D01*
X130751000Y-100574967D01*
X130751000Y-102708274D01*
X130730998Y-102776395D01*
X130714095Y-102797369D01*
X130247369Y-103264095D01*
X130185057Y-103298121D01*
X130158274Y-103301000D01*
X122424923Y-103301000D01*
X122417315Y-103300770D01*
X122365093Y-103297611D01*
X122365091Y-103297611D01*
X122357485Y-103297151D01*
X122349988Y-103298525D01*
X122349986Y-103298525D01*
X122298521Y-103307956D01*
X122290998Y-103309101D01*
X122272938Y-103311294D01*
X122231490Y-103316327D01*
X122224362Y-103319031D01*
X122224360Y-103319031D01*
X122222233Y-103319838D01*
X122200260Y-103325964D01*
X122190517Y-103327749D01*
X122183569Y-103330876D01*
X122183563Y-103330878D01*
X122135855Y-103352350D01*
X122128823Y-103355263D01*
X122108915Y-103362813D01*
X122072773Y-103376520D01*
X122066505Y-103380846D01*
X122066502Y-103380848D01*
X122064614Y-103382151D01*
X122044757Y-103393351D01*
X122042674Y-103394288D01*
X122042671Y-103394290D01*
X122035725Y-103397416D01*
X122029725Y-103402116D01*
X122029721Y-103402119D01*
X121988545Y-103434378D01*
X121982415Y-103438889D01*
X121949706Y-103461467D01*
X121933073Y-103472948D01*
X121928023Y-103478649D01*
X121928020Y-103478651D01*
X121893318Y-103517822D01*
X121888101Y-103523364D01*
X121013355Y-104398109D01*
X121007814Y-104403325D01*
X120968653Y-104438018D01*
X120968650Y-104438022D01*
X120962948Y-104443073D01*
X120929007Y-104492246D01*
X120928898Y-104492403D01*
X120924389Y-104498532D01*
X120887416Y-104545725D01*
X120884290Y-104552671D01*
X120884288Y-104552674D01*
X120883351Y-104554757D01*
X120872151Y-104574614D01*
X120870848Y-104576502D01*
X120866520Y-104582773D01*
X120853218Y-104617849D01*
X120845263Y-104638823D01*
X120842350Y-104645855D01*
X120820878Y-104693563D01*
X120820876Y-104693569D01*
X120817749Y-104700517D01*
X120815964Y-104710259D01*
X120809838Y-104732233D01*
X120806327Y-104741490D01*
X120805408Y-104749062D01*
X120799101Y-104800998D01*
X120797956Y-104808521D01*
X120792213Y-104839861D01*
X120787151Y-104867485D01*
X120787611Y-104875091D01*
X120787611Y-104875093D01*
X120790770Y-104927317D01*
X120791000Y-104934924D01*
X120791000Y-105440500D01*
X120770998Y-105508621D01*
X120717342Y-105555114D01*
X120665000Y-105566500D01*
X120591362Y-105566500D01*
X120588015Y-105566860D01*
X120588012Y-105566860D01*
X120567705Y-105569043D01*
X120530799Y-105573011D01*
X120393796Y-105624111D01*
X120276739Y-105711739D01*
X120271341Y-105718950D01*
X120220077Y-105787431D01*
X120189111Y-105828796D01*
X120138011Y-105965799D01*
X120131500Y-106026362D01*
X120131500Y-107823638D01*
X117068519Y-107823638D01*
X117020077Y-107725406D01*
X117015027Y-107713711D01*
X116967451Y-107586155D01*
X116966194Y-107582624D01*
X116927568Y-107468836D01*
X116923760Y-107455117D01*
X116893389Y-107315503D01*
X116892931Y-107313302D01*
X116870799Y-107202038D01*
X116868699Y-107186445D01*
X116856007Y-107008990D01*
X116855956Y-107008242D01*
X116850770Y-106929119D01*
X116850500Y-106920878D01*
X116850500Y-82395223D01*
X120142000Y-82395223D01*
X120142360Y-82401938D01*
X120147662Y-82451257D01*
X120151259Y-82466478D01*
X120196405Y-82587520D01*
X120204954Y-82603176D01*
X120281698Y-82705693D01*
X120294307Y-82718302D01*
X120396824Y-82795046D01*
X120412480Y-82803595D01*
X120533522Y-82848741D01*
X120548743Y-82852338D01*
X120598062Y-82857640D01*
X120604777Y-82858000D01*
X121227885Y-82858000D01*
X121243124Y-82853525D01*
X121244329Y-82852135D01*
X121246000Y-82844452D01*
X121246000Y-82839885D01*
X121754000Y-82839885D01*
X121758475Y-82855124D01*
X121759865Y-82856329D01*
X121767548Y-82858000D01*
X122395223Y-82858000D01*
X122401938Y-82857640D01*
X122451257Y-82852338D01*
X122466478Y-82848741D01*
X122587520Y-82803595D01*
X122603176Y-82795046D01*
X122705693Y-82718302D01*
X122718302Y-82705693D01*
X122795046Y-82603176D01*
X122803595Y-82587520D01*
X122844618Y-82477531D01*
X122887165Y-82420695D01*
X122953685Y-82395884D01*
X123023059Y-82410975D01*
X123055375Y-82436225D01*
X123116760Y-82502906D01*
X123294424Y-82641189D01*
X123299005Y-82643668D01*
X123436917Y-82718302D01*
X123492426Y-82748342D01*
X123705365Y-82821444D01*
X123710499Y-82822301D01*
X123710504Y-82822302D01*
X123922294Y-82857643D01*
X123922296Y-82857643D01*
X123927431Y-82858500D01*
X124152569Y-82858500D01*
X124157704Y-82857643D01*
X124157706Y-82857643D01*
X124369496Y-82822302D01*
X124369501Y-82822301D01*
X124374635Y-82821444D01*
X124587574Y-82748342D01*
X124643084Y-82718302D01*
X124780995Y-82643668D01*
X124785576Y-82641189D01*
X124963240Y-82502906D01*
X125047869Y-82410975D01*
X125112194Y-82341101D01*
X125112197Y-82341097D01*
X125115722Y-82337268D01*
X125204517Y-82201357D01*
X125258521Y-82155268D01*
X125328868Y-82145693D01*
X125393226Y-82175670D01*
X125415483Y-82201357D01*
X125504278Y-82337268D01*
X125507803Y-82341097D01*
X125507806Y-82341101D01*
X125572131Y-82410975D01*
X125656760Y-82502906D01*
X125834424Y-82641189D01*
X125839005Y-82643668D01*
X125976917Y-82718302D01*
X126032426Y-82748342D01*
X126245365Y-82821444D01*
X126250499Y-82822301D01*
X126250504Y-82822302D01*
X126462294Y-82857643D01*
X126462296Y-82857643D01*
X126467431Y-82858500D01*
X126692569Y-82858500D01*
X126697704Y-82857643D01*
X126697706Y-82857643D01*
X126909496Y-82822302D01*
X126909501Y-82822301D01*
X126914635Y-82821444D01*
X127127574Y-82748342D01*
X127183084Y-82718302D01*
X127320995Y-82643668D01*
X127325576Y-82641189D01*
X127503240Y-82502906D01*
X127587869Y-82410975D01*
X127652194Y-82341101D01*
X127652197Y-82341097D01*
X127655722Y-82337268D01*
X127744517Y-82201357D01*
X127798521Y-82155268D01*
X127868868Y-82145693D01*
X127933226Y-82175670D01*
X127955483Y-82201357D01*
X128044278Y-82337268D01*
X128047803Y-82341097D01*
X128047806Y-82341101D01*
X128112131Y-82410975D01*
X128196760Y-82502906D01*
X128374424Y-82641189D01*
X128379005Y-82643668D01*
X128516917Y-82718302D01*
X128572426Y-82748342D01*
X128785365Y-82821444D01*
X128790499Y-82822301D01*
X128790504Y-82822302D01*
X129002294Y-82857643D01*
X129002296Y-82857643D01*
X129007431Y-82858500D01*
X129232569Y-82858500D01*
X129237704Y-82857643D01*
X129237706Y-82857643D01*
X129449496Y-82822302D01*
X129449501Y-82822301D01*
X129454635Y-82821444D01*
X129667574Y-82748342D01*
X129723084Y-82718302D01*
X129860995Y-82643668D01*
X129865576Y-82641189D01*
X130043240Y-82502906D01*
X130127869Y-82410975D01*
X130192194Y-82341101D01*
X130192197Y-82341097D01*
X130195722Y-82337268D01*
X130284517Y-82201357D01*
X130338521Y-82155268D01*
X130408868Y-82145693D01*
X130473226Y-82175670D01*
X130495483Y-82201357D01*
X130584278Y-82337268D01*
X130587803Y-82341097D01*
X130587806Y-82341101D01*
X130652131Y-82410975D01*
X130736760Y-82502906D01*
X130914424Y-82641189D01*
X130919005Y-82643668D01*
X131056917Y-82718302D01*
X131112426Y-82748342D01*
X131325365Y-82821444D01*
X131330499Y-82822301D01*
X131330504Y-82822302D01*
X131542294Y-82857643D01*
X131542296Y-82857643D01*
X131547431Y-82858500D01*
X131772569Y-82858500D01*
X131777704Y-82857643D01*
X131777706Y-82857643D01*
X131989496Y-82822302D01*
X131989501Y-82822301D01*
X131994635Y-82821444D01*
X132207574Y-82748342D01*
X132263084Y-82718302D01*
X132400995Y-82643668D01*
X132405576Y-82641189D01*
X132583240Y-82502906D01*
X132667869Y-82410975D01*
X132732194Y-82341101D01*
X132732197Y-82341097D01*
X132735722Y-82337268D01*
X132824517Y-82201357D01*
X132878521Y-82155268D01*
X132948868Y-82145693D01*
X133013226Y-82175670D01*
X133035483Y-82201357D01*
X133124278Y-82337268D01*
X133127803Y-82341097D01*
X133127806Y-82341101D01*
X133192131Y-82410975D01*
X133276760Y-82502906D01*
X133454424Y-82641189D01*
X133459005Y-82643668D01*
X133596917Y-82718302D01*
X133652426Y-82748342D01*
X133865365Y-82821444D01*
X133870499Y-82822301D01*
X133870504Y-82822302D01*
X134082294Y-82857643D01*
X134082296Y-82857643D01*
X134087431Y-82858500D01*
X134312569Y-82858500D01*
X134317704Y-82857643D01*
X134317706Y-82857643D01*
X134529496Y-82822302D01*
X134529501Y-82822301D01*
X134534635Y-82821444D01*
X134747574Y-82748342D01*
X134803084Y-82718302D01*
X134940995Y-82643668D01*
X134945576Y-82641189D01*
X135123240Y-82502906D01*
X135207869Y-82410975D01*
X135272194Y-82341101D01*
X135272197Y-82341097D01*
X135275722Y-82337268D01*
X135364816Y-82200899D01*
X135418820Y-82154811D01*
X135489168Y-82145236D01*
X135553525Y-82175214D01*
X135575782Y-82200899D01*
X135661823Y-82332593D01*
X135668210Y-82340799D01*
X135813568Y-82498700D01*
X135821211Y-82505737D01*
X135990589Y-82637569D01*
X135999282Y-82643248D01*
X136188043Y-82745401D01*
X136197560Y-82749575D01*
X136400557Y-82819264D01*
X136410627Y-82821815D01*
X136468133Y-82831411D01*
X136481648Y-82829777D01*
X136485778Y-82816277D01*
X136994000Y-82816277D01*
X136997836Y-82829340D01*
X137012584Y-82831291D01*
X137069373Y-82821815D01*
X137079443Y-82819264D01*
X137282440Y-82749575D01*
X137291957Y-82745401D01*
X137480718Y-82643248D01*
X137489411Y-82637569D01*
X137658789Y-82505737D01*
X137666432Y-82498700D01*
X137811790Y-82340799D01*
X137818177Y-82332593D01*
X137904218Y-82200899D01*
X137958222Y-82154811D01*
X138028570Y-82145236D01*
X138092927Y-82175214D01*
X138115183Y-82200898D01*
X138204278Y-82337268D01*
X138207803Y-82341097D01*
X138207806Y-82341101D01*
X138272131Y-82410975D01*
X138356760Y-82502906D01*
X138534424Y-82641189D01*
X138539005Y-82643668D01*
X138676917Y-82718302D01*
X138732426Y-82748342D01*
X138945365Y-82821444D01*
X138950499Y-82822301D01*
X138950504Y-82822302D01*
X139162294Y-82857643D01*
X139162296Y-82857643D01*
X139167431Y-82858500D01*
X139392569Y-82858500D01*
X139397704Y-82857643D01*
X139397706Y-82857643D01*
X139609496Y-82822302D01*
X139609501Y-82822301D01*
X139614635Y-82821444D01*
X139827574Y-82748342D01*
X139883084Y-82718302D01*
X140020995Y-82643668D01*
X140025576Y-82641189D01*
X140203240Y-82502906D01*
X140287869Y-82410975D01*
X140352194Y-82341101D01*
X140352197Y-82341097D01*
X140355722Y-82337268D01*
X140444517Y-82201357D01*
X140498521Y-82155268D01*
X140568868Y-82145693D01*
X140633226Y-82175670D01*
X140655483Y-82201357D01*
X140744278Y-82337268D01*
X140747803Y-82341097D01*
X140747806Y-82341101D01*
X140812131Y-82410975D01*
X140896760Y-82502906D01*
X141074424Y-82641189D01*
X141079005Y-82643668D01*
X141216917Y-82718302D01*
X141272426Y-82748342D01*
X141485365Y-82821444D01*
X141490499Y-82822301D01*
X141490504Y-82822302D01*
X141702294Y-82857643D01*
X141702296Y-82857643D01*
X141707431Y-82858500D01*
X141932569Y-82858500D01*
X141937704Y-82857643D01*
X141937706Y-82857643D01*
X142149496Y-82822302D01*
X142149501Y-82822301D01*
X142154635Y-82821444D01*
X142367574Y-82748342D01*
X142423084Y-82718302D01*
X142560995Y-82643668D01*
X142565576Y-82641189D01*
X142743240Y-82502906D01*
X142827869Y-82410975D01*
X142892194Y-82341101D01*
X142892197Y-82341097D01*
X142895722Y-82337268D01*
X142984517Y-82201357D01*
X143038521Y-82155268D01*
X143108868Y-82145693D01*
X143173226Y-82175670D01*
X143195483Y-82201357D01*
X143284278Y-82337268D01*
X143287803Y-82341097D01*
X143287806Y-82341101D01*
X143352131Y-82410975D01*
X143436760Y-82502906D01*
X143614424Y-82641189D01*
X143619005Y-82643668D01*
X143756917Y-82718302D01*
X143812426Y-82748342D01*
X144025365Y-82821444D01*
X144030499Y-82822301D01*
X144030504Y-82822302D01*
X144242294Y-82857643D01*
X144242296Y-82857643D01*
X144247431Y-82858500D01*
X144472569Y-82858500D01*
X144477704Y-82857643D01*
X144477706Y-82857643D01*
X144689496Y-82822302D01*
X144689501Y-82822301D01*
X144694635Y-82821444D01*
X144907574Y-82748342D01*
X144963084Y-82718302D01*
X145100995Y-82643668D01*
X145105576Y-82641189D01*
X145283240Y-82502906D01*
X145367869Y-82410975D01*
X145432194Y-82341101D01*
X145432197Y-82341097D01*
X145435722Y-82337268D01*
X145524517Y-82201357D01*
X145578521Y-82155268D01*
X145648868Y-82145693D01*
X145713226Y-82175670D01*
X145735483Y-82201357D01*
X145824278Y-82337268D01*
X145827803Y-82341097D01*
X145827806Y-82341101D01*
X145892131Y-82410975D01*
X145976760Y-82502906D01*
X146154424Y-82641189D01*
X146159005Y-82643668D01*
X146296917Y-82718302D01*
X146352426Y-82748342D01*
X146565365Y-82821444D01*
X146570499Y-82822301D01*
X146570504Y-82822302D01*
X146782294Y-82857643D01*
X146782296Y-82857643D01*
X146787431Y-82858500D01*
X147012569Y-82858500D01*
X147017704Y-82857643D01*
X147017706Y-82857643D01*
X147229496Y-82822302D01*
X147229501Y-82822301D01*
X147234635Y-82821444D01*
X147447574Y-82748342D01*
X147503084Y-82718302D01*
X147640995Y-82643668D01*
X147645576Y-82641189D01*
X147823240Y-82502906D01*
X147907869Y-82410975D01*
X147972194Y-82341101D01*
X147972197Y-82341097D01*
X147975722Y-82337268D01*
X148064517Y-82201357D01*
X148118521Y-82155268D01*
X148188868Y-82145693D01*
X148253226Y-82175670D01*
X148275483Y-82201357D01*
X148364278Y-82337268D01*
X148367803Y-82341097D01*
X148367806Y-82341101D01*
X148432131Y-82410975D01*
X148516760Y-82502906D01*
X148694424Y-82641189D01*
X148699005Y-82643668D01*
X148836917Y-82718302D01*
X148892426Y-82748342D01*
X149105365Y-82821444D01*
X149110499Y-82822301D01*
X149110504Y-82822302D01*
X149322294Y-82857643D01*
X149322296Y-82857643D01*
X149327431Y-82858500D01*
X149552569Y-82858500D01*
X149557704Y-82857643D01*
X149557706Y-82857643D01*
X149769496Y-82822302D01*
X149769501Y-82822301D01*
X149774635Y-82821444D01*
X149987574Y-82748342D01*
X150043084Y-82718302D01*
X150180995Y-82643668D01*
X150185576Y-82641189D01*
X150363240Y-82502906D01*
X150447869Y-82410975D01*
X150512194Y-82341101D01*
X150512197Y-82341097D01*
X150515722Y-82337268D01*
X150604517Y-82201357D01*
X150658521Y-82155268D01*
X150728868Y-82145693D01*
X150793226Y-82175670D01*
X150815483Y-82201357D01*
X150904278Y-82337268D01*
X150907803Y-82341097D01*
X150907806Y-82341101D01*
X150972131Y-82410975D01*
X151056760Y-82502906D01*
X151234424Y-82641189D01*
X151239005Y-82643668D01*
X151376917Y-82718302D01*
X151432426Y-82748342D01*
X151645365Y-82821444D01*
X151650499Y-82822301D01*
X151650504Y-82822302D01*
X151862294Y-82857643D01*
X151862296Y-82857643D01*
X151867431Y-82858500D01*
X152092569Y-82858500D01*
X152097704Y-82857643D01*
X152097706Y-82857643D01*
X152309496Y-82822302D01*
X152309501Y-82822301D01*
X152314635Y-82821444D01*
X152527574Y-82748342D01*
X152583084Y-82718302D01*
X152720995Y-82643668D01*
X152725576Y-82641189D01*
X152903240Y-82502906D01*
X152987869Y-82410975D01*
X153052194Y-82341101D01*
X153052197Y-82341097D01*
X153055722Y-82337268D01*
X153144517Y-82201357D01*
X153198521Y-82155268D01*
X153268868Y-82145693D01*
X153333226Y-82175670D01*
X153355483Y-82201357D01*
X153444278Y-82337268D01*
X153447803Y-82341097D01*
X153447806Y-82341101D01*
X153512131Y-82410975D01*
X153596760Y-82502906D01*
X153774424Y-82641189D01*
X153779005Y-82643668D01*
X153916917Y-82718302D01*
X153972426Y-82748342D01*
X154185365Y-82821444D01*
X154190499Y-82822301D01*
X154190504Y-82822302D01*
X154402294Y-82857643D01*
X154402296Y-82857643D01*
X154407431Y-82858500D01*
X154632569Y-82858500D01*
X154637704Y-82857643D01*
X154637706Y-82857643D01*
X154849496Y-82822302D01*
X154849501Y-82822301D01*
X154854635Y-82821444D01*
X155067574Y-82748342D01*
X155123084Y-82718302D01*
X155260995Y-82643668D01*
X155265576Y-82641189D01*
X155443240Y-82502906D01*
X155527869Y-82410975D01*
X155592194Y-82341101D01*
X155592197Y-82341097D01*
X155595722Y-82337268D01*
X155684517Y-82201357D01*
X155738521Y-82155268D01*
X155808868Y-82145693D01*
X155873226Y-82175670D01*
X155895483Y-82201357D01*
X155984278Y-82337268D01*
X155987803Y-82341097D01*
X155987806Y-82341101D01*
X156052131Y-82410975D01*
X156136760Y-82502906D01*
X156314424Y-82641189D01*
X156319005Y-82643668D01*
X156456917Y-82718302D01*
X156512426Y-82748342D01*
X156725365Y-82821444D01*
X156730499Y-82822301D01*
X156730504Y-82822302D01*
X156942294Y-82857643D01*
X156942296Y-82857643D01*
X156947431Y-82858500D01*
X157172569Y-82858500D01*
X157177704Y-82857643D01*
X157177706Y-82857643D01*
X157389496Y-82822302D01*
X157389501Y-82822301D01*
X157394635Y-82821444D01*
X157607574Y-82748342D01*
X157663084Y-82718302D01*
X157800995Y-82643668D01*
X157805576Y-82641189D01*
X157983240Y-82502906D01*
X158067869Y-82410975D01*
X158132194Y-82341101D01*
X158132197Y-82341097D01*
X158135722Y-82337268D01*
X158224517Y-82201357D01*
X158278521Y-82155268D01*
X158348868Y-82145693D01*
X158413226Y-82175670D01*
X158435483Y-82201357D01*
X158524278Y-82337268D01*
X158527803Y-82341097D01*
X158527806Y-82341101D01*
X158592131Y-82410975D01*
X158676760Y-82502906D01*
X158854424Y-82641189D01*
X158859005Y-82643668D01*
X158996917Y-82718302D01*
X159052426Y-82748342D01*
X159265365Y-82821444D01*
X159270499Y-82822301D01*
X159270504Y-82822302D01*
X159482294Y-82857643D01*
X159482296Y-82857643D01*
X159487431Y-82858500D01*
X159712569Y-82858500D01*
X159717704Y-82857643D01*
X159717706Y-82857643D01*
X159929496Y-82822302D01*
X159929501Y-82822301D01*
X159934635Y-82821444D01*
X160147574Y-82748342D01*
X160203084Y-82718302D01*
X160340995Y-82643668D01*
X160345576Y-82641189D01*
X160523240Y-82502906D01*
X160607869Y-82410975D01*
X160672194Y-82341101D01*
X160672197Y-82341097D01*
X160675722Y-82337268D01*
X160764517Y-82201357D01*
X160818521Y-82155268D01*
X160888868Y-82145693D01*
X160953226Y-82175670D01*
X160975483Y-82201357D01*
X161064278Y-82337268D01*
X161067803Y-82341097D01*
X161067806Y-82341101D01*
X161132131Y-82410975D01*
X161216760Y-82502906D01*
X161394424Y-82641189D01*
X161399005Y-82643668D01*
X161536917Y-82718302D01*
X161592426Y-82748342D01*
X161805365Y-82821444D01*
X161810499Y-82822301D01*
X161810504Y-82822302D01*
X162022294Y-82857643D01*
X162022296Y-82857643D01*
X162027431Y-82858500D01*
X162252569Y-82858500D01*
X162257704Y-82857643D01*
X162257706Y-82857643D01*
X162469496Y-82822302D01*
X162469501Y-82822301D01*
X162474635Y-82821444D01*
X162687574Y-82748342D01*
X162743084Y-82718302D01*
X162880995Y-82643668D01*
X162885576Y-82641189D01*
X163063240Y-82502906D01*
X163147869Y-82410975D01*
X163212194Y-82341101D01*
X163212197Y-82341097D01*
X163215722Y-82337268D01*
X163304517Y-82201357D01*
X163358521Y-82155268D01*
X163428868Y-82145693D01*
X163493226Y-82175670D01*
X163515483Y-82201357D01*
X163604278Y-82337268D01*
X163607803Y-82341097D01*
X163607806Y-82341101D01*
X163672131Y-82410975D01*
X163756760Y-82502906D01*
X163934424Y-82641189D01*
X163939005Y-82643668D01*
X164076917Y-82718302D01*
X164132426Y-82748342D01*
X164345365Y-82821444D01*
X164350499Y-82822301D01*
X164350504Y-82822302D01*
X164562294Y-82857643D01*
X164562296Y-82857643D01*
X164567431Y-82858500D01*
X164792569Y-82858500D01*
X164797704Y-82857643D01*
X164797706Y-82857643D01*
X165009496Y-82822302D01*
X165009501Y-82822301D01*
X165014635Y-82821444D01*
X165227574Y-82748342D01*
X165283084Y-82718302D01*
X165420995Y-82643668D01*
X165425576Y-82641189D01*
X165603240Y-82502906D01*
X165687869Y-82410975D01*
X165752194Y-82341101D01*
X165752197Y-82341097D01*
X165755722Y-82337268D01*
X165844517Y-82201357D01*
X165898521Y-82155268D01*
X165968868Y-82145693D01*
X166033226Y-82175670D01*
X166055483Y-82201357D01*
X166144278Y-82337268D01*
X166147803Y-82341097D01*
X166147806Y-82341101D01*
X166212131Y-82410975D01*
X166296760Y-82502906D01*
X166474424Y-82641189D01*
X166479005Y-82643668D01*
X166616917Y-82718302D01*
X166672426Y-82748342D01*
X166885365Y-82821444D01*
X166890499Y-82822301D01*
X166890504Y-82822302D01*
X167102294Y-82857643D01*
X167102296Y-82857643D01*
X167107431Y-82858500D01*
X167332569Y-82858500D01*
X167337704Y-82857643D01*
X167337706Y-82857643D01*
X167549496Y-82822302D01*
X167549501Y-82822301D01*
X167554635Y-82821444D01*
X167767574Y-82748342D01*
X167823084Y-82718302D01*
X167960995Y-82643668D01*
X167965576Y-82641189D01*
X168143240Y-82502906D01*
X168227869Y-82410975D01*
X168292194Y-82341101D01*
X168292197Y-82341097D01*
X168295722Y-82337268D01*
X168401597Y-82175214D01*
X168416008Y-82153157D01*
X168416010Y-82153153D01*
X168418860Y-82148791D01*
X168509296Y-81942616D01*
X168564564Y-81724368D01*
X168572807Y-81624900D01*
X168582726Y-81505189D01*
X168583156Y-81500000D01*
X168578268Y-81441010D01*
X168564995Y-81280828D01*
X168564994Y-81280823D01*
X168564564Y-81275632D01*
X168555575Y-81240135D01*
X168510578Y-81062446D01*
X168510578Y-81062445D01*
X168509296Y-81057384D01*
X168427662Y-80871276D01*
X168420954Y-80855982D01*
X168420952Y-80855978D01*
X168418860Y-80851209D01*
X168414629Y-80844732D01*
X168298573Y-80667096D01*
X168295722Y-80662732D01*
X168292197Y-80658903D01*
X168292194Y-80658899D01*
X168169160Y-80525250D01*
X168143240Y-80497094D01*
X167989584Y-80377497D01*
X167969689Y-80362012D01*
X167969687Y-80362010D01*
X167965576Y-80358811D01*
X167907915Y-80327607D01*
X167772159Y-80254139D01*
X167772156Y-80254138D01*
X167767574Y-80251658D01*
X167554635Y-80178556D01*
X167549501Y-80177699D01*
X167549496Y-80177698D01*
X167337706Y-80142357D01*
X167337704Y-80142357D01*
X167332569Y-80141500D01*
X167107431Y-80141500D01*
X167102296Y-80142357D01*
X167102294Y-80142357D01*
X166890504Y-80177698D01*
X166890499Y-80177699D01*
X166885365Y-80178556D01*
X166672426Y-80251658D01*
X166667844Y-80254138D01*
X166667841Y-80254139D01*
X166532085Y-80327607D01*
X166474424Y-80358811D01*
X166470313Y-80362010D01*
X166470311Y-80362012D01*
X166450416Y-80377497D01*
X166296760Y-80497094D01*
X166270840Y-80525250D01*
X166147806Y-80658899D01*
X166147803Y-80658903D01*
X166144278Y-80662732D01*
X166141427Y-80667096D01*
X166055483Y-80798643D01*
X166001479Y-80844732D01*
X165931132Y-80854307D01*
X165866774Y-80824330D01*
X165844517Y-80798643D01*
X165758573Y-80667096D01*
X165755722Y-80662732D01*
X165752197Y-80658903D01*
X165752194Y-80658899D01*
X165629160Y-80525250D01*
X165603240Y-80497094D01*
X165449584Y-80377497D01*
X165429689Y-80362012D01*
X165429687Y-80362010D01*
X165425576Y-80358811D01*
X165367915Y-80327607D01*
X165232159Y-80254139D01*
X165232156Y-80254138D01*
X165227574Y-80251658D01*
X165014635Y-80178556D01*
X165009501Y-80177699D01*
X165009496Y-80177698D01*
X164797706Y-80142357D01*
X164797704Y-80142357D01*
X164792569Y-80141500D01*
X164567431Y-80141500D01*
X164562296Y-80142357D01*
X164562294Y-80142357D01*
X164350504Y-80177698D01*
X164350499Y-80177699D01*
X164345365Y-80178556D01*
X164132426Y-80251658D01*
X164127844Y-80254138D01*
X164127841Y-80254139D01*
X163992085Y-80327607D01*
X163934424Y-80358811D01*
X163930313Y-80362010D01*
X163930311Y-80362012D01*
X163910416Y-80377497D01*
X163756760Y-80497094D01*
X163730840Y-80525250D01*
X163607806Y-80658899D01*
X163607803Y-80658903D01*
X163604278Y-80662732D01*
X163601427Y-80667096D01*
X163515483Y-80798643D01*
X163461479Y-80844732D01*
X163391132Y-80854307D01*
X163326774Y-80824330D01*
X163304517Y-80798643D01*
X163218573Y-80667096D01*
X163215722Y-80662732D01*
X163212197Y-80658903D01*
X163212194Y-80658899D01*
X163089160Y-80525250D01*
X163063240Y-80497094D01*
X162909584Y-80377497D01*
X162889689Y-80362012D01*
X162889687Y-80362010D01*
X162885576Y-80358811D01*
X162827915Y-80327607D01*
X162692159Y-80254139D01*
X162692156Y-80254138D01*
X162687574Y-80251658D01*
X162474635Y-80178556D01*
X162469501Y-80177699D01*
X162469496Y-80177698D01*
X162257706Y-80142357D01*
X162257704Y-80142357D01*
X162252569Y-80141500D01*
X162027431Y-80141500D01*
X162022296Y-80142357D01*
X162022294Y-80142357D01*
X161810504Y-80177698D01*
X161810499Y-80177699D01*
X161805365Y-80178556D01*
X161592426Y-80251658D01*
X161587844Y-80254138D01*
X161587841Y-80254139D01*
X161452085Y-80327607D01*
X161394424Y-80358811D01*
X161390313Y-80362010D01*
X161390311Y-80362012D01*
X161370416Y-80377497D01*
X161216760Y-80497094D01*
X161190840Y-80525250D01*
X161067806Y-80658899D01*
X161067803Y-80658903D01*
X161064278Y-80662732D01*
X161061427Y-80667096D01*
X160975483Y-80798643D01*
X160921479Y-80844732D01*
X160851132Y-80854307D01*
X160786774Y-80824330D01*
X160764517Y-80798643D01*
X160678573Y-80667096D01*
X160675722Y-80662732D01*
X160672197Y-80658903D01*
X160672194Y-80658899D01*
X160549160Y-80525250D01*
X160523240Y-80497094D01*
X160369584Y-80377497D01*
X160349689Y-80362012D01*
X160349687Y-80362010D01*
X160345576Y-80358811D01*
X160287915Y-80327607D01*
X160152159Y-80254139D01*
X160152156Y-80254138D01*
X160147574Y-80251658D01*
X159934635Y-80178556D01*
X159929501Y-80177699D01*
X159929496Y-80177698D01*
X159717706Y-80142357D01*
X159717704Y-80142357D01*
X159712569Y-80141500D01*
X159487431Y-80141500D01*
X159482296Y-80142357D01*
X159482294Y-80142357D01*
X159270504Y-80177698D01*
X159270499Y-80177699D01*
X159265365Y-80178556D01*
X159052426Y-80251658D01*
X159047844Y-80254138D01*
X159047841Y-80254139D01*
X158912085Y-80327607D01*
X158854424Y-80358811D01*
X158850313Y-80362010D01*
X158850311Y-80362012D01*
X158830416Y-80377497D01*
X158676760Y-80497094D01*
X158650840Y-80525250D01*
X158527806Y-80658899D01*
X158527803Y-80658903D01*
X158524278Y-80662732D01*
X158521427Y-80667096D01*
X158435483Y-80798643D01*
X158381479Y-80844732D01*
X158311132Y-80854307D01*
X158246774Y-80824330D01*
X158224517Y-80798643D01*
X158138573Y-80667096D01*
X158135722Y-80662732D01*
X158132197Y-80658903D01*
X158132194Y-80658899D01*
X158009160Y-80525250D01*
X157983240Y-80497094D01*
X157829584Y-80377497D01*
X157809689Y-80362012D01*
X157809687Y-80362010D01*
X157805576Y-80358811D01*
X157747915Y-80327607D01*
X157612159Y-80254139D01*
X157612156Y-80254138D01*
X157607574Y-80251658D01*
X157394635Y-80178556D01*
X157389501Y-80177699D01*
X157389496Y-80177698D01*
X157177706Y-80142357D01*
X157177704Y-80142357D01*
X157172569Y-80141500D01*
X156947431Y-80141500D01*
X156942296Y-80142357D01*
X156942294Y-80142357D01*
X156730504Y-80177698D01*
X156730499Y-80177699D01*
X156725365Y-80178556D01*
X156512426Y-80251658D01*
X156507844Y-80254138D01*
X156507841Y-80254139D01*
X156372085Y-80327607D01*
X156314424Y-80358811D01*
X156310313Y-80362010D01*
X156310311Y-80362012D01*
X156290416Y-80377497D01*
X156136760Y-80497094D01*
X156110840Y-80525250D01*
X155987806Y-80658899D01*
X155987803Y-80658903D01*
X155984278Y-80662732D01*
X155981427Y-80667096D01*
X155895483Y-80798643D01*
X155841479Y-80844732D01*
X155771132Y-80854307D01*
X155706774Y-80824330D01*
X155684517Y-80798643D01*
X155598573Y-80667096D01*
X155595722Y-80662732D01*
X155592197Y-80658903D01*
X155592194Y-80658899D01*
X155469160Y-80525250D01*
X155443240Y-80497094D01*
X155289584Y-80377497D01*
X155269689Y-80362012D01*
X155269687Y-80362010D01*
X155265576Y-80358811D01*
X155207915Y-80327607D01*
X155072159Y-80254139D01*
X155072156Y-80254138D01*
X155067574Y-80251658D01*
X154854635Y-80178556D01*
X154849501Y-80177699D01*
X154849496Y-80177698D01*
X154637706Y-80142357D01*
X154637704Y-80142357D01*
X154632569Y-80141500D01*
X154407431Y-80141500D01*
X154402296Y-80142357D01*
X154402294Y-80142357D01*
X154190504Y-80177698D01*
X154190499Y-80177699D01*
X154185365Y-80178556D01*
X153972426Y-80251658D01*
X153967844Y-80254138D01*
X153967841Y-80254139D01*
X153832085Y-80327607D01*
X153774424Y-80358811D01*
X153770313Y-80362010D01*
X153770311Y-80362012D01*
X153750416Y-80377497D01*
X153596760Y-80497094D01*
X153570840Y-80525250D01*
X153447806Y-80658899D01*
X153447803Y-80658903D01*
X153444278Y-80662732D01*
X153441427Y-80667096D01*
X153355483Y-80798643D01*
X153301479Y-80844732D01*
X153231132Y-80854307D01*
X153166774Y-80824330D01*
X153144517Y-80798643D01*
X153058573Y-80667096D01*
X153055722Y-80662732D01*
X153052197Y-80658903D01*
X153052194Y-80658899D01*
X152929160Y-80525250D01*
X152903240Y-80497094D01*
X152749584Y-80377497D01*
X152729689Y-80362012D01*
X152729687Y-80362010D01*
X152725576Y-80358811D01*
X152667915Y-80327607D01*
X152532159Y-80254139D01*
X152532156Y-80254138D01*
X152527574Y-80251658D01*
X152314635Y-80178556D01*
X152309501Y-80177699D01*
X152309496Y-80177698D01*
X152097706Y-80142357D01*
X152097704Y-80142357D01*
X152092569Y-80141500D01*
X151867431Y-80141500D01*
X151862296Y-80142357D01*
X151862294Y-80142357D01*
X151650504Y-80177698D01*
X151650499Y-80177699D01*
X151645365Y-80178556D01*
X151432426Y-80251658D01*
X151427844Y-80254138D01*
X151427841Y-80254139D01*
X151292085Y-80327607D01*
X151234424Y-80358811D01*
X151230313Y-80362010D01*
X151230311Y-80362012D01*
X151210416Y-80377497D01*
X151056760Y-80497094D01*
X151030840Y-80525250D01*
X150907806Y-80658899D01*
X150907803Y-80658903D01*
X150904278Y-80662732D01*
X150901427Y-80667096D01*
X150815483Y-80798643D01*
X150761479Y-80844732D01*
X150691132Y-80854307D01*
X150626774Y-80824330D01*
X150604517Y-80798643D01*
X150518573Y-80667096D01*
X150515722Y-80662732D01*
X150512197Y-80658903D01*
X150512194Y-80658899D01*
X150389160Y-80525250D01*
X150363240Y-80497094D01*
X150209584Y-80377497D01*
X150189689Y-80362012D01*
X150189687Y-80362010D01*
X150185576Y-80358811D01*
X150127915Y-80327607D01*
X149992159Y-80254139D01*
X149992156Y-80254138D01*
X149987574Y-80251658D01*
X149774635Y-80178556D01*
X149769501Y-80177699D01*
X149769496Y-80177698D01*
X149557706Y-80142357D01*
X149557704Y-80142357D01*
X149552569Y-80141500D01*
X149327431Y-80141500D01*
X149322296Y-80142357D01*
X149322294Y-80142357D01*
X149110504Y-80177698D01*
X149110499Y-80177699D01*
X149105365Y-80178556D01*
X148892426Y-80251658D01*
X148887844Y-80254138D01*
X148887841Y-80254139D01*
X148752085Y-80327607D01*
X148694424Y-80358811D01*
X148690313Y-80362010D01*
X148690311Y-80362012D01*
X148670416Y-80377497D01*
X148516760Y-80497094D01*
X148490840Y-80525250D01*
X148367806Y-80658899D01*
X148367803Y-80658903D01*
X148364278Y-80662732D01*
X148361427Y-80667096D01*
X148275483Y-80798643D01*
X148221479Y-80844732D01*
X148151132Y-80854307D01*
X148086774Y-80824330D01*
X148064517Y-80798643D01*
X147978573Y-80667096D01*
X147975722Y-80662732D01*
X147972197Y-80658903D01*
X147972194Y-80658899D01*
X147849160Y-80525250D01*
X147823240Y-80497094D01*
X147669584Y-80377497D01*
X147649689Y-80362012D01*
X147649687Y-80362010D01*
X147645576Y-80358811D01*
X147587915Y-80327607D01*
X147452159Y-80254139D01*
X147452156Y-80254138D01*
X147447574Y-80251658D01*
X147234635Y-80178556D01*
X147229501Y-80177699D01*
X147229496Y-80177698D01*
X147017706Y-80142357D01*
X147017704Y-80142357D01*
X147012569Y-80141500D01*
X146787431Y-80141500D01*
X146782296Y-80142357D01*
X146782294Y-80142357D01*
X146570504Y-80177698D01*
X146570499Y-80177699D01*
X146565365Y-80178556D01*
X146352426Y-80251658D01*
X146347844Y-80254138D01*
X146347841Y-80254139D01*
X146212085Y-80327607D01*
X146154424Y-80358811D01*
X146150313Y-80362010D01*
X146150311Y-80362012D01*
X146130416Y-80377497D01*
X145976760Y-80497094D01*
X145950840Y-80525250D01*
X145827806Y-80658899D01*
X145827803Y-80658903D01*
X145824278Y-80662732D01*
X145821427Y-80667096D01*
X145735483Y-80798643D01*
X145681479Y-80844732D01*
X145611132Y-80854307D01*
X145546774Y-80824330D01*
X145524517Y-80798643D01*
X145438573Y-80667096D01*
X145435722Y-80662732D01*
X145432197Y-80658903D01*
X145432194Y-80658899D01*
X145309160Y-80525250D01*
X145283240Y-80497094D01*
X145129584Y-80377497D01*
X145109689Y-80362012D01*
X145109687Y-80362010D01*
X145105576Y-80358811D01*
X145047915Y-80327607D01*
X144912159Y-80254139D01*
X144912156Y-80254138D01*
X144907574Y-80251658D01*
X144694635Y-80178556D01*
X144689501Y-80177699D01*
X144689496Y-80177698D01*
X144477706Y-80142357D01*
X144477704Y-80142357D01*
X144472569Y-80141500D01*
X144247431Y-80141500D01*
X144242296Y-80142357D01*
X144242294Y-80142357D01*
X144030504Y-80177698D01*
X144030499Y-80177699D01*
X144025365Y-80178556D01*
X143812426Y-80251658D01*
X143807844Y-80254138D01*
X143807841Y-80254139D01*
X143672085Y-80327607D01*
X143614424Y-80358811D01*
X143610313Y-80362010D01*
X143610311Y-80362012D01*
X143590416Y-80377497D01*
X143436760Y-80497094D01*
X143410840Y-80525250D01*
X143287806Y-80658899D01*
X143287803Y-80658903D01*
X143284278Y-80662732D01*
X143281427Y-80667096D01*
X143195483Y-80798643D01*
X143141479Y-80844732D01*
X143071132Y-80854307D01*
X143006774Y-80824330D01*
X142984517Y-80798643D01*
X142898573Y-80667096D01*
X142895722Y-80662732D01*
X142892197Y-80658903D01*
X142892194Y-80658899D01*
X142769160Y-80525250D01*
X142743240Y-80497094D01*
X142589584Y-80377497D01*
X142569689Y-80362012D01*
X142569687Y-80362010D01*
X142565576Y-80358811D01*
X142507915Y-80327607D01*
X142372159Y-80254139D01*
X142372156Y-80254138D01*
X142367574Y-80251658D01*
X142154635Y-80178556D01*
X142149501Y-80177699D01*
X142149496Y-80177698D01*
X141937706Y-80142357D01*
X141937704Y-80142357D01*
X141932569Y-80141500D01*
X141707431Y-80141500D01*
X141702296Y-80142357D01*
X141702294Y-80142357D01*
X141490504Y-80177698D01*
X141490499Y-80177699D01*
X141485365Y-80178556D01*
X141272426Y-80251658D01*
X141267844Y-80254138D01*
X141267841Y-80254139D01*
X141132085Y-80327607D01*
X141074424Y-80358811D01*
X141070313Y-80362010D01*
X141070311Y-80362012D01*
X141050416Y-80377497D01*
X140896760Y-80497094D01*
X140870840Y-80525250D01*
X140747806Y-80658899D01*
X140747803Y-80658903D01*
X140744278Y-80662732D01*
X140741427Y-80667096D01*
X140655483Y-80798643D01*
X140601479Y-80844732D01*
X140531132Y-80854307D01*
X140466774Y-80824330D01*
X140444517Y-80798643D01*
X140358573Y-80667096D01*
X140355722Y-80662732D01*
X140352197Y-80658903D01*
X140352194Y-80658899D01*
X140229160Y-80525250D01*
X140203240Y-80497094D01*
X140049584Y-80377497D01*
X140029689Y-80362012D01*
X140029687Y-80362010D01*
X140025576Y-80358811D01*
X139967915Y-80327607D01*
X139832159Y-80254139D01*
X139832156Y-80254138D01*
X139827574Y-80251658D01*
X139614635Y-80178556D01*
X139609501Y-80177699D01*
X139609496Y-80177698D01*
X139397706Y-80142357D01*
X139397704Y-80142357D01*
X139392569Y-80141500D01*
X139167431Y-80141500D01*
X139162296Y-80142357D01*
X139162294Y-80142357D01*
X138950504Y-80177698D01*
X138950499Y-80177699D01*
X138945365Y-80178556D01*
X138732426Y-80251658D01*
X138727844Y-80254138D01*
X138727841Y-80254139D01*
X138592085Y-80327607D01*
X138534424Y-80358811D01*
X138530313Y-80362010D01*
X138530311Y-80362012D01*
X138510416Y-80377497D01*
X138356760Y-80497094D01*
X138330840Y-80525250D01*
X138207806Y-80658899D01*
X138207803Y-80658903D01*
X138204278Y-80662732D01*
X138201431Y-80667090D01*
X138115184Y-80799101D01*
X138061180Y-80845189D01*
X137990832Y-80854764D01*
X137926475Y-80824786D01*
X137904218Y-80799101D01*
X137818177Y-80667407D01*
X137811790Y-80659201D01*
X137666432Y-80501300D01*
X137658789Y-80494263D01*
X137489411Y-80362431D01*
X137480718Y-80356752D01*
X137291957Y-80254599D01*
X137282440Y-80250425D01*
X137079443Y-80180736D01*
X137069373Y-80178185D01*
X137011867Y-80168589D01*
X136998352Y-80170223D01*
X136994000Y-80184449D01*
X136994000Y-82816277D01*
X136485778Y-82816277D01*
X136486000Y-82815551D01*
X136486000Y-80183723D01*
X136482164Y-80170660D01*
X136467416Y-80168709D01*
X136410627Y-80178185D01*
X136400557Y-80180736D01*
X136197560Y-80250425D01*
X136188043Y-80254599D01*
X135999282Y-80356752D01*
X135990589Y-80362431D01*
X135821211Y-80494263D01*
X135813568Y-80501300D01*
X135668210Y-80659201D01*
X135661823Y-80667407D01*
X135575782Y-80799101D01*
X135521778Y-80845189D01*
X135451430Y-80854764D01*
X135387073Y-80824786D01*
X135364816Y-80799101D01*
X135278569Y-80667090D01*
X135275722Y-80662732D01*
X135272197Y-80658903D01*
X135272194Y-80658899D01*
X135149160Y-80525250D01*
X135123240Y-80497094D01*
X134969584Y-80377497D01*
X134949689Y-80362012D01*
X134949687Y-80362010D01*
X134945576Y-80358811D01*
X134887915Y-80327607D01*
X134752159Y-80254139D01*
X134752156Y-80254138D01*
X134747574Y-80251658D01*
X134534635Y-80178556D01*
X134529501Y-80177699D01*
X134529496Y-80177698D01*
X134317706Y-80142357D01*
X134317704Y-80142357D01*
X134312569Y-80141500D01*
X134087431Y-80141500D01*
X134082296Y-80142357D01*
X134082294Y-80142357D01*
X133870504Y-80177698D01*
X133870499Y-80177699D01*
X133865365Y-80178556D01*
X133652426Y-80251658D01*
X133647844Y-80254138D01*
X133647841Y-80254139D01*
X133512085Y-80327607D01*
X133454424Y-80358811D01*
X133450313Y-80362010D01*
X133450311Y-80362012D01*
X133430416Y-80377497D01*
X133276760Y-80497094D01*
X133250840Y-80525250D01*
X133127806Y-80658899D01*
X133127803Y-80658903D01*
X133124278Y-80662732D01*
X133121427Y-80667096D01*
X133035483Y-80798643D01*
X132981479Y-80844732D01*
X132911132Y-80854307D01*
X132846774Y-80824330D01*
X132824517Y-80798643D01*
X132738573Y-80667096D01*
X132735722Y-80662732D01*
X132732197Y-80658903D01*
X132732194Y-80658899D01*
X132609160Y-80525250D01*
X132583240Y-80497094D01*
X132429584Y-80377497D01*
X132409689Y-80362012D01*
X132409687Y-80362010D01*
X132405576Y-80358811D01*
X132347915Y-80327607D01*
X132212159Y-80254139D01*
X132212156Y-80254138D01*
X132207574Y-80251658D01*
X131994635Y-80178556D01*
X131989501Y-80177699D01*
X131989496Y-80177698D01*
X131777706Y-80142357D01*
X131777704Y-80142357D01*
X131772569Y-80141500D01*
X131547431Y-80141500D01*
X131542296Y-80142357D01*
X131542294Y-80142357D01*
X131330504Y-80177698D01*
X131330499Y-80177699D01*
X131325365Y-80178556D01*
X131112426Y-80251658D01*
X131107844Y-80254138D01*
X131107841Y-80254139D01*
X130972085Y-80327607D01*
X130914424Y-80358811D01*
X130910313Y-80362010D01*
X130910311Y-80362012D01*
X130890416Y-80377497D01*
X130736760Y-80497094D01*
X130710840Y-80525250D01*
X130587806Y-80658899D01*
X130587803Y-80658903D01*
X130584278Y-80662732D01*
X130581427Y-80667096D01*
X130495483Y-80798643D01*
X130441479Y-80844732D01*
X130371132Y-80854307D01*
X130306774Y-80824330D01*
X130284517Y-80798643D01*
X130198573Y-80667096D01*
X130195722Y-80662732D01*
X130192197Y-80658903D01*
X130192194Y-80658899D01*
X130069160Y-80525250D01*
X130043240Y-80497094D01*
X129889584Y-80377497D01*
X129869689Y-80362012D01*
X129869687Y-80362010D01*
X129865576Y-80358811D01*
X129807915Y-80327607D01*
X129672159Y-80254139D01*
X129672156Y-80254138D01*
X129667574Y-80251658D01*
X129454635Y-80178556D01*
X129449501Y-80177699D01*
X129449496Y-80177698D01*
X129237706Y-80142357D01*
X129237704Y-80142357D01*
X129232569Y-80141500D01*
X129007431Y-80141500D01*
X129002296Y-80142357D01*
X129002294Y-80142357D01*
X128790504Y-80177698D01*
X128790499Y-80177699D01*
X128785365Y-80178556D01*
X128572426Y-80251658D01*
X128567844Y-80254138D01*
X128567841Y-80254139D01*
X128432085Y-80327607D01*
X128374424Y-80358811D01*
X128370313Y-80362010D01*
X128370311Y-80362012D01*
X128350416Y-80377497D01*
X128196760Y-80497094D01*
X128170840Y-80525250D01*
X128047806Y-80658899D01*
X128047803Y-80658903D01*
X128044278Y-80662732D01*
X128041427Y-80667096D01*
X127955483Y-80798643D01*
X127901479Y-80844732D01*
X127831132Y-80854307D01*
X127766774Y-80824330D01*
X127744517Y-80798643D01*
X127658573Y-80667096D01*
X127655722Y-80662732D01*
X127652197Y-80658903D01*
X127652194Y-80658899D01*
X127529160Y-80525250D01*
X127503240Y-80497094D01*
X127349584Y-80377497D01*
X127329689Y-80362012D01*
X127329687Y-80362010D01*
X127325576Y-80358811D01*
X127267915Y-80327607D01*
X127132159Y-80254139D01*
X127132156Y-80254138D01*
X127127574Y-80251658D01*
X126914635Y-80178556D01*
X126909501Y-80177699D01*
X126909496Y-80177698D01*
X126697706Y-80142357D01*
X126697704Y-80142357D01*
X126692569Y-80141500D01*
X126467431Y-80141500D01*
X126462296Y-80142357D01*
X126462294Y-80142357D01*
X126250504Y-80177698D01*
X126250499Y-80177699D01*
X126245365Y-80178556D01*
X126032426Y-80251658D01*
X126027844Y-80254138D01*
X126027841Y-80254139D01*
X125892085Y-80327607D01*
X125834424Y-80358811D01*
X125830313Y-80362010D01*
X125830311Y-80362012D01*
X125810416Y-80377497D01*
X125656760Y-80497094D01*
X125630840Y-80525250D01*
X125507806Y-80658899D01*
X125507803Y-80658903D01*
X125504278Y-80662732D01*
X125501427Y-80667096D01*
X125415483Y-80798643D01*
X125361479Y-80844732D01*
X125291132Y-80854307D01*
X125226774Y-80824330D01*
X125204517Y-80798643D01*
X125118573Y-80667096D01*
X125115722Y-80662732D01*
X125112197Y-80658903D01*
X125112194Y-80658899D01*
X124989160Y-80525250D01*
X124963240Y-80497094D01*
X124809584Y-80377497D01*
X124789689Y-80362012D01*
X124789687Y-80362010D01*
X124785576Y-80358811D01*
X124727915Y-80327607D01*
X124592159Y-80254139D01*
X124592156Y-80254138D01*
X124587574Y-80251658D01*
X124374635Y-80178556D01*
X124369501Y-80177699D01*
X124369496Y-80177698D01*
X124157706Y-80142357D01*
X124157704Y-80142357D01*
X124152569Y-80141500D01*
X123927431Y-80141500D01*
X123922296Y-80142357D01*
X123922294Y-80142357D01*
X123710504Y-80177698D01*
X123710499Y-80177699D01*
X123705365Y-80178556D01*
X123492426Y-80251658D01*
X123487844Y-80254138D01*
X123487841Y-80254139D01*
X123352085Y-80327607D01*
X123294424Y-80358811D01*
X123290313Y-80362010D01*
X123290311Y-80362012D01*
X123270416Y-80377497D01*
X123116760Y-80497094D01*
X123090840Y-80525250D01*
X123055375Y-80563775D01*
X122994521Y-80600346D01*
X122923557Y-80598211D01*
X122865012Y-80558049D01*
X122844618Y-80522469D01*
X122803595Y-80412480D01*
X122795046Y-80396824D01*
X122718302Y-80294307D01*
X122705693Y-80281698D01*
X122603176Y-80204954D01*
X122587520Y-80196405D01*
X122466478Y-80151259D01*
X122451257Y-80147662D01*
X122401938Y-80142360D01*
X122395223Y-80142000D01*
X121772115Y-80142000D01*
X121756876Y-80146475D01*
X121755671Y-80147865D01*
X121754000Y-80155548D01*
X121754000Y-82839885D01*
X121246000Y-82839885D01*
X121246000Y-81772115D01*
X121241525Y-81756876D01*
X121240135Y-81755671D01*
X121232452Y-81754000D01*
X120160115Y-81754000D01*
X120144876Y-81758475D01*
X120143671Y-81759865D01*
X120142000Y-81767548D01*
X120142000Y-82395223D01*
X116850500Y-82395223D01*
X116850500Y-81625472D01*
X116850653Y-81625472D01*
X116850500Y-81624758D01*
X116851040Y-81529448D01*
X116851045Y-81528793D01*
X116852758Y-81371100D01*
X116853860Y-81355789D01*
X116869315Y-81240070D01*
X116869596Y-81238088D01*
X116871124Y-81227885D01*
X120142000Y-81227885D01*
X120146475Y-81243124D01*
X120147865Y-81244329D01*
X120155548Y-81246000D01*
X121227885Y-81246000D01*
X121243124Y-81241525D01*
X121244329Y-81240135D01*
X121246000Y-81232452D01*
X121246000Y-80160115D01*
X121241525Y-80144876D01*
X121240135Y-80143671D01*
X121232452Y-80142000D01*
X120604777Y-80142000D01*
X120598062Y-80142360D01*
X120548743Y-80147662D01*
X120533522Y-80151259D01*
X120412480Y-80196405D01*
X120396824Y-80204954D01*
X120294307Y-80281698D01*
X120281698Y-80294307D01*
X120204954Y-80396824D01*
X120196405Y-80412480D01*
X120151259Y-80533522D01*
X120147662Y-80548743D01*
X120142360Y-80598062D01*
X120142000Y-80604777D01*
X120142000Y-81227885D01*
X116871124Y-81227885D01*
X116889149Y-81107527D01*
X116891990Y-81093812D01*
X116902946Y-81052606D01*
X116923097Y-80976820D01*
X116923992Y-80973626D01*
X116960064Y-80851118D01*
X116964250Y-80839155D01*
X117010589Y-80725448D01*
X117012432Y-80721156D01*
X117040538Y-80658899D01*
X117064265Y-80606340D01*
X117069390Y-80596227D01*
X117130152Y-80488632D01*
X117133229Y-80483475D01*
X117199930Y-80377497D01*
X117205592Y-80369246D01*
X117210679Y-80362431D01*
X117279749Y-80269893D01*
X117284297Y-80264157D01*
X117364687Y-80168607D01*
X117370495Y-80162167D01*
X117388369Y-80143671D01*
X117456749Y-80072910D01*
X117462942Y-80066927D01*
X117555716Y-79983290D01*
X117561294Y-79978549D01*
X117658056Y-79901034D01*
X117666103Y-79895097D01*
X117743664Y-79842493D01*
X117769727Y-79824817D01*
X117774774Y-79821567D01*
X117839620Y-79781961D01*
X117880241Y-79757151D01*
X117890143Y-79751698D01*
X118003207Y-79695925D01*
X118007404Y-79693951D01*
X118119418Y-79643769D01*
X118131229Y-79639176D01*
X118252436Y-79598933D01*
X118255616Y-79597923D01*
X118371466Y-79562836D01*
X118385076Y-79559528D01*
X118514927Y-79535514D01*
X118516897Y-79535166D01*
X118569647Y-79526275D01*
X118632009Y-79515763D01*
X118647251Y-79514141D01*
X118706530Y-79511461D01*
X118801195Y-79507182D01*
X118801860Y-79507153D01*
X118873633Y-79504289D01*
X118899043Y-79503275D01*
X118904103Y-79503175D01*
X169845922Y-79525498D01*
G37*
G04 #@! TD.AperFunction*
G04 #@! TA.AperFunction,Conductor*
G36*
X141008621Y-86282502D02*
G01*
X141055114Y-86336158D01*
X141066500Y-86388500D01*
X141066501Y-86881047D01*
X141066501Y-87375544D01*
X141066826Y-87378721D01*
X141066826Y-87378730D01*
X141070784Y-87417473D01*
X141077113Y-87479426D01*
X141132885Y-87647738D01*
X141225970Y-87798652D01*
X141351348Y-87924030D01*
X141357535Y-87927846D01*
X141398545Y-87985763D01*
X141401734Y-88056688D01*
X141366072Y-88118078D01*
X141345512Y-88133897D01*
X141282909Y-88172511D01*
X141271468Y-88181558D01*
X141156558Y-88296468D01*
X141147512Y-88307908D01*
X141062192Y-88446233D01*
X141056036Y-88459435D01*
X141004767Y-88614154D01*
X141001908Y-88627512D01*
X140992325Y-88721307D01*
X140992000Y-88727698D01*
X140992000Y-89427885D01*
X140996475Y-89443124D01*
X140997865Y-89444329D01*
X141005548Y-89446000D01*
X142290500Y-89446000D01*
X142358621Y-89466002D01*
X142405114Y-89519658D01*
X142416500Y-89572000D01*
X142416500Y-91364885D01*
X142429075Y-91407712D01*
X142429075Y-91478709D01*
X142390691Y-91538435D01*
X142374326Y-91550451D01*
X142266020Y-91617255D01*
X142254579Y-91626302D01*
X142143802Y-91737079D01*
X142134756Y-91748519D01*
X142052506Y-91881867D01*
X142046345Y-91895079D01*
X141996919Y-92044238D01*
X141994058Y-92057602D01*
X141984825Y-92147971D01*
X141984500Y-92154362D01*
X141984500Y-92177885D01*
X141988975Y-92193124D01*
X141990365Y-92194329D01*
X141998048Y-92196000D01*
X143070500Y-92196000D01*
X143138621Y-92216002D01*
X143185114Y-92269658D01*
X143196500Y-92322000D01*
X143196500Y-93414885D01*
X143200975Y-93430124D01*
X143202365Y-93431329D01*
X143210048Y-93433000D01*
X143213139Y-93433000D01*
X143219529Y-93432675D01*
X143309898Y-93423442D01*
X143323262Y-93420581D01*
X143472421Y-93371155D01*
X143485633Y-93364994D01*
X143618981Y-93282744D01*
X143636170Y-93269152D01*
X143637541Y-93270886D01*
X143690364Y-93242041D01*
X143761179Y-93247106D01*
X143797702Y-93270578D01*
X143798518Y-93269546D01*
X143804267Y-93274092D01*
X143809460Y-93279285D01*
X143955399Y-93369302D01*
X144017066Y-93389736D01*
X144111638Y-93421074D01*
X144111642Y-93421075D01*
X144118164Y-93423236D01*
X144124999Y-93423934D01*
X144125002Y-93423935D01*
X144215444Y-93433175D01*
X144215450Y-93433175D01*
X144218628Y-93433500D01*
X144602972Y-93433500D01*
X144671093Y-93453502D01*
X144692067Y-93470405D01*
X145063010Y-93841348D01*
X145097036Y-93903660D01*
X145091971Y-93974475D01*
X145063010Y-94019538D01*
X144944829Y-94137719D01*
X144847897Y-94291985D01*
X144787723Y-94463953D01*
X144786931Y-94470980D01*
X144786931Y-94470981D01*
X144776077Y-94567317D01*
X144767324Y-94645000D01*
X144768116Y-94652029D01*
X144784031Y-94793276D01*
X144787723Y-94826047D01*
X144847897Y-94998015D01*
X144851662Y-95004007D01*
X144919129Y-95111379D01*
X144944829Y-95152281D01*
X144983453Y-95190905D01*
X145017479Y-95253217D01*
X145012414Y-95324032D01*
X144983453Y-95369095D01*
X144944829Y-95407719D01*
X144941062Y-95413714D01*
X144864101Y-95536196D01*
X144847897Y-95561985D01*
X144787723Y-95733953D01*
X144767324Y-95915000D01*
X144787723Y-96096047D01*
X144847897Y-96268015D01*
X144851662Y-96274007D01*
X144935393Y-96407263D01*
X144944829Y-96422281D01*
X144983453Y-96460905D01*
X145017479Y-96523217D01*
X145012414Y-96594032D01*
X144983453Y-96639095D01*
X144944829Y-96677719D01*
X144941062Y-96683714D01*
X144932549Y-96697262D01*
X144847897Y-96831985D01*
X144787723Y-97003953D01*
X144786931Y-97010980D01*
X144786931Y-97010981D01*
X144777957Y-97090628D01*
X144767324Y-97185000D01*
X144787723Y-97366047D01*
X144847897Y-97538015D01*
X144944829Y-97692281D01*
X144983806Y-97731258D01*
X145017832Y-97793570D01*
X145012767Y-97864385D01*
X144983806Y-97909448D01*
X144950229Y-97943025D01*
X144941459Y-97954023D01*
X144852115Y-98096212D01*
X144846015Y-98108880D01*
X144790551Y-98267383D01*
X144787420Y-98281099D01*
X144768619Y-98447971D01*
X144768619Y-98462029D01*
X144787420Y-98628901D01*
X144790551Y-98642617D01*
X144846015Y-98801120D01*
X144852115Y-98813788D01*
X144941456Y-98955973D01*
X144950231Y-98966976D01*
X145068964Y-99085709D01*
X145079967Y-99094484D01*
X145222150Y-99183823D01*
X145234821Y-99189926D01*
X145256231Y-99197418D01*
X145272787Y-99198263D01*
X145285677Y-99191053D01*
X146291845Y-98184885D01*
X146354157Y-98150859D01*
X146424972Y-98155924D01*
X146470035Y-98184885D01*
X147475739Y-99190589D01*
X147490295Y-99198537D01*
X147505031Y-99197634D01*
X147527059Y-99189926D01*
X147539730Y-99183823D01*
X147681913Y-99094484D01*
X147692916Y-99085709D01*
X147811649Y-98966976D01*
X147820424Y-98955973D01*
X147909765Y-98813788D01*
X147915865Y-98801120D01*
X147971329Y-98642617D01*
X147974460Y-98628901D01*
X147988313Y-98505943D01*
X148015816Y-98440490D01*
X148074340Y-98400297D01*
X148145303Y-98398124D01*
X148202616Y-98430955D01*
X148315059Y-98543398D01*
X148327032Y-98557251D01*
X148335984Y-98569275D01*
X148341602Y-98576822D01*
X148347220Y-98581536D01*
X148380165Y-98609180D01*
X148388269Y-98616607D01*
X148392235Y-98620573D01*
X148407633Y-98632748D01*
X148416937Y-98640105D01*
X148419775Y-98642418D01*
X148472522Y-98686677D01*
X148472527Y-98686680D01*
X148478147Y-98691396D01*
X148484702Y-98694688D01*
X148487623Y-98696609D01*
X148487923Y-98696825D01*
X148488225Y-98696994D01*
X148491225Y-98698845D01*
X148496980Y-98703395D01*
X148558326Y-98732001D01*
X148566040Y-98735598D01*
X148569339Y-98737196D01*
X148630871Y-98768099D01*
X148630879Y-98768102D01*
X148637434Y-98771394D01*
X148644573Y-98773086D01*
X148647886Y-98774292D01*
X148648202Y-98774423D01*
X148648541Y-98774519D01*
X148651877Y-98775624D01*
X148658527Y-98778725D01*
X148665714Y-98780209D01*
X148733130Y-98794129D01*
X148736708Y-98794922D01*
X148753122Y-98798812D01*
X148810877Y-98812500D01*
X148818213Y-98812500D01*
X148821712Y-98812909D01*
X148822056Y-98812964D01*
X148822413Y-98812980D01*
X148825910Y-98813286D01*
X148833092Y-98814769D01*
X148840420Y-98814556D01*
X148840422Y-98814556D01*
X148909269Y-98812553D01*
X148912933Y-98812500D01*
X149115500Y-98812500D01*
X149183621Y-98832502D01*
X149230114Y-98886158D01*
X149241500Y-98938500D01*
X149241500Y-98998638D01*
X149248011Y-99059201D01*
X149299111Y-99196204D01*
X149304510Y-99203416D01*
X149304511Y-99203418D01*
X149349114Y-99263000D01*
X149386739Y-99313261D01*
X149393950Y-99318659D01*
X149490100Y-99390636D01*
X149503796Y-99400889D01*
X149640799Y-99451989D01*
X149677705Y-99455957D01*
X149698012Y-99458140D01*
X149698015Y-99458140D01*
X149701362Y-99458500D01*
X149974000Y-99458500D01*
X150042121Y-99478502D01*
X150088614Y-99532158D01*
X150100000Y-99584500D01*
X150100000Y-99825128D01*
X150079998Y-99893249D01*
X150063095Y-99914223D01*
X149950970Y-100026348D01*
X149857885Y-100177262D01*
X149802113Y-100345574D01*
X149791500Y-100449455D01*
X149791501Y-101940993D01*
X149791501Y-103313900D01*
X149771499Y-103382021D01*
X149717843Y-103428514D01*
X149665501Y-103439900D01*
X145554902Y-103439900D01*
X145486781Y-103419898D01*
X145465807Y-103402995D01*
X143647005Y-101584193D01*
X143612979Y-101521881D01*
X143610100Y-101495098D01*
X143610100Y-99260277D01*
X145939453Y-99260277D01*
X145946754Y-99263000D01*
X146811615Y-99263000D01*
X146822640Y-99259763D01*
X146819402Y-99252672D01*
X146393752Y-98827022D01*
X146379808Y-98819408D01*
X146377975Y-98819539D01*
X146371360Y-98823790D01*
X145944962Y-99250188D01*
X145939453Y-99260277D01*
X143610100Y-99260277D01*
X143610100Y-95225681D01*
X143610597Y-95215132D01*
X143612220Y-95207872D01*
X143611782Y-95193916D01*
X143610162Y-95142387D01*
X143610100Y-95138429D01*
X143610100Y-95111617D01*
X143609604Y-95107691D01*
X143609550Y-95106835D01*
X143608708Y-95096139D01*
X143607627Y-95061726D01*
X143607378Y-95053801D01*
X143602036Y-95035414D01*
X143598028Y-95016057D01*
X143596623Y-95004935D01*
X143596623Y-95004934D01*
X143595629Y-94997068D01*
X143584677Y-94969405D01*
X143580036Y-94957682D01*
X143576192Y-94946455D01*
X143566584Y-94913387D01*
X143566583Y-94913384D01*
X143564372Y-94905775D01*
X143554630Y-94889301D01*
X143545934Y-94871550D01*
X143541804Y-94861119D01*
X143541801Y-94861114D01*
X143538884Y-94853746D01*
X143513983Y-94819473D01*
X143507474Y-94809565D01*
X143485906Y-94773094D01*
X143472374Y-94759562D01*
X143459532Y-94744527D01*
X143448279Y-94729038D01*
X143442171Y-94723985D01*
X143415633Y-94702031D01*
X143406853Y-94694041D01*
X142979920Y-94267108D01*
X142972810Y-94259295D01*
X142968826Y-94253017D01*
X142957231Y-94242128D01*
X142921069Y-94208170D01*
X142918227Y-94205415D01*
X142899265Y-94186453D01*
X142896138Y-94184027D01*
X142895497Y-94183462D01*
X142887337Y-94176493D01*
X142862239Y-94152925D01*
X142856458Y-94147496D01*
X142839681Y-94138272D01*
X142823168Y-94127425D01*
X142814302Y-94120548D01*
X142814297Y-94120545D01*
X142808034Y-94115687D01*
X142769150Y-94098861D01*
X142758494Y-94093640D01*
X142730679Y-94078348D01*
X142690513Y-94043444D01*
X142668543Y-94014095D01*
X142644321Y-93981739D01*
X142556133Y-93915722D01*
X142534478Y-93899511D01*
X142534476Y-93899510D01*
X142527264Y-93894111D01*
X142390261Y-93843011D01*
X142353355Y-93839043D01*
X142333048Y-93836860D01*
X142333045Y-93836860D01*
X142329698Y-93836500D01*
X140386100Y-93836500D01*
X140317979Y-93816498D01*
X140271486Y-93762842D01*
X140260100Y-93710500D01*
X140260100Y-92745639D01*
X141984500Y-92745639D01*
X141984825Y-92752029D01*
X141994058Y-92842398D01*
X141996919Y-92855762D01*
X142046345Y-93004921D01*
X142052506Y-93018133D01*
X142134756Y-93151481D01*
X142143802Y-93162921D01*
X142254579Y-93273698D01*
X142266019Y-93282744D01*
X142399367Y-93364994D01*
X142412579Y-93371155D01*
X142561738Y-93420581D01*
X142575102Y-93423442D01*
X142665471Y-93432675D01*
X142670603Y-93432936D01*
X142685624Y-93428525D01*
X142686829Y-93427135D01*
X142688500Y-93419452D01*
X142688500Y-92722115D01*
X142684025Y-92706876D01*
X142682635Y-92705671D01*
X142674952Y-92704000D01*
X142002615Y-92704000D01*
X141987376Y-92708475D01*
X141986171Y-92709865D01*
X141984500Y-92717548D01*
X141984500Y-92745639D01*
X140260100Y-92745639D01*
X140260100Y-90672303D01*
X140992000Y-90672303D01*
X140992325Y-90678693D01*
X141001908Y-90772488D01*
X141004767Y-90785846D01*
X141056036Y-90940565D01*
X141062192Y-90953767D01*
X141147512Y-91092092D01*
X141156558Y-91103532D01*
X141271468Y-91218442D01*
X141282908Y-91227488D01*
X141421233Y-91312808D01*
X141434435Y-91318964D01*
X141589154Y-91370233D01*
X141602512Y-91373092D01*
X141696307Y-91382675D01*
X141702697Y-91383000D01*
X141890385Y-91383000D01*
X141905624Y-91378525D01*
X141906829Y-91377135D01*
X141908500Y-91369452D01*
X141908500Y-89972115D01*
X141904025Y-89956876D01*
X141902635Y-89955671D01*
X141894952Y-89954000D01*
X141010115Y-89954000D01*
X140994876Y-89958475D01*
X140993671Y-89959865D01*
X140992000Y-89967548D01*
X140992000Y-90672303D01*
X140260100Y-90672303D01*
X140260100Y-89925678D01*
X140260598Y-89915126D01*
X140262219Y-89907872D01*
X140260162Y-89842405D01*
X140260100Y-89838448D01*
X140260100Y-89811617D01*
X140259604Y-89807690D01*
X140259547Y-89806784D01*
X140258708Y-89796135D01*
X140258701Y-89795893D01*
X140257378Y-89753801D01*
X140252036Y-89735414D01*
X140248028Y-89716057D01*
X140246623Y-89704937D01*
X140245629Y-89697068D01*
X140230035Y-89657680D01*
X140226193Y-89646457D01*
X140216585Y-89613390D01*
X140216584Y-89613388D01*
X140214372Y-89605774D01*
X140204625Y-89589293D01*
X140195933Y-89571551D01*
X140188884Y-89553746D01*
X140163981Y-89519469D01*
X140157465Y-89509549D01*
X140139943Y-89479922D01*
X140135905Y-89473094D01*
X140122378Y-89459567D01*
X140109537Y-89444533D01*
X140102940Y-89435453D01*
X140102939Y-89435452D01*
X140098279Y-89429038D01*
X140065629Y-89402027D01*
X140056850Y-89394038D01*
X139534922Y-88872110D01*
X139527810Y-88864295D01*
X139523826Y-88858017D01*
X139476069Y-88813170D01*
X139473227Y-88810415D01*
X139454265Y-88791453D01*
X139451138Y-88789027D01*
X139450497Y-88788462D01*
X139442337Y-88781493D01*
X139435342Y-88774924D01*
X139411458Y-88752496D01*
X139394681Y-88743272D01*
X139378168Y-88732425D01*
X139369302Y-88725548D01*
X139369297Y-88725545D01*
X139363034Y-88720687D01*
X139324150Y-88703861D01*
X139313505Y-88698646D01*
X139276378Y-88678235D01*
X139257838Y-88673475D01*
X139239141Y-88667074D01*
X139221565Y-88659468D01*
X139179722Y-88652841D01*
X139168103Y-88650435D01*
X139127074Y-88639900D01*
X139107936Y-88639900D01*
X139088225Y-88638349D01*
X139069316Y-88635354D01*
X139056199Y-88636594D01*
X139027139Y-88639341D01*
X139015281Y-88639900D01*
X137598350Y-88639900D01*
X137530229Y-88619898D01*
X137509255Y-88602995D01*
X137481807Y-88575547D01*
X137474983Y-88571511D01*
X137474980Y-88571509D01*
X137345427Y-88494892D01*
X137345428Y-88494892D01*
X137338601Y-88490855D01*
X137330990Y-88488644D01*
X137330988Y-88488643D01*
X137278769Y-88473472D01*
X137178831Y-88444438D01*
X137172426Y-88443934D01*
X137172421Y-88443933D01*
X137143958Y-88441693D01*
X137143950Y-88441693D01*
X137141502Y-88441500D01*
X137111100Y-88441500D01*
X137042979Y-88421498D01*
X136996486Y-88367842D01*
X136985100Y-88315500D01*
X136985100Y-87569061D01*
X137005102Y-87500940D01*
X137022005Y-87479966D01*
X137136816Y-87365155D01*
X137225827Y-87217913D01*
X137231009Y-87201286D01*
X137275030Y-87060013D01*
X137275030Y-87060012D01*
X137277013Y-87053649D01*
X137283500Y-86982265D01*
X137283499Y-86388500D01*
X137303501Y-86320379D01*
X137357157Y-86273886D01*
X137409499Y-86262500D01*
X140940500Y-86262500D01*
X141008621Y-86282502D01*
G37*
G04 #@! TD.AperFunction*
G04 #@! TA.AperFunction,Conductor*
G36*
X161142412Y-94932980D02*
G01*
X161145909Y-94933286D01*
X161153091Y-94934769D01*
X161160419Y-94934556D01*
X161160421Y-94934556D01*
X161229254Y-94932553D01*
X161232918Y-94932500D01*
X161512519Y-94932500D01*
X161580640Y-94952502D01*
X161619813Y-94992439D01*
X161630976Y-95010569D01*
X161654223Y-95036983D01*
X161774496Y-95173638D01*
X161789381Y-95190551D01*
X161833738Y-95226367D01*
X161971758Y-95337812D01*
X161971764Y-95337816D01*
X161975924Y-95341175D01*
X161980593Y-95343783D01*
X161980597Y-95343786D01*
X162095044Y-95407719D01*
X162185240Y-95458105D01*
X162411306Y-95537980D01*
X162416578Y-95538884D01*
X162642350Y-95577597D01*
X162642355Y-95577597D01*
X162647619Y-95578500D01*
X164627327Y-95578500D01*
X164629980Y-95578274D01*
X164629985Y-95578274D01*
X164801067Y-95563713D01*
X164801070Y-95563712D01*
X164806398Y-95563259D01*
X164811573Y-95561911D01*
X164811576Y-95561911D01*
X164992122Y-95514900D01*
X165038424Y-95502844D01*
X165256902Y-95404086D01*
X165455547Y-95269825D01*
X165470005Y-95255968D01*
X165624779Y-95107630D01*
X165624783Y-95107626D01*
X165628644Y-95103925D01*
X165631821Y-95099629D01*
X165631831Y-95099618D01*
X165685197Y-95027462D01*
X165741785Y-94984587D01*
X165812570Y-94979113D01*
X165875078Y-95012776D01*
X165909463Y-95074891D01*
X165912500Y-95102386D01*
X165912500Y-96206972D01*
X165892498Y-96275093D01*
X165875595Y-96296067D01*
X165798425Y-96373237D01*
X165736113Y-96407263D01*
X165665298Y-96402198D01*
X165643183Y-96391382D01*
X165546488Y-96331739D01*
X165546481Y-96331736D01*
X165540238Y-96327885D01*
X165461098Y-96301661D01*
X165378452Y-96274275D01*
X165378448Y-96274274D01*
X165371926Y-96272113D01*
X165365092Y-96271415D01*
X165365088Y-96271414D01*
X165271229Y-96261825D01*
X165271223Y-96261825D01*
X165268045Y-96261500D01*
X163667750Y-96261500D01*
X162066956Y-96261501D01*
X162063779Y-96261826D01*
X162063770Y-96261826D01*
X162015033Y-96266805D01*
X161963074Y-96272113D01*
X161794762Y-96327885D01*
X161725287Y-96370738D01*
X161691818Y-96391382D01*
X161643848Y-96420970D01*
X161518470Y-96546348D01*
X161425385Y-96697262D01*
X161389086Y-96806807D01*
X161384339Y-96821133D01*
X161343925Y-96879504D01*
X161278368Y-96906760D01*
X161264734Y-96907500D01*
X161244729Y-96907500D01*
X161226467Y-96906170D01*
X161209588Y-96903697D01*
X161209584Y-96903697D01*
X161202328Y-96902634D01*
X161152434Y-96906999D01*
X161152184Y-96907021D01*
X161141202Y-96907500D01*
X161135588Y-96907500D01*
X161104320Y-96911155D01*
X161100675Y-96911528D01*
X161024760Y-96918169D01*
X161017793Y-96920478D01*
X161014352Y-96921188D01*
X161014006Y-96921244D01*
X161013663Y-96921341D01*
X161010250Y-96922150D01*
X161002958Y-96923002D01*
X160996061Y-96925512D01*
X160996054Y-96925514D01*
X160931363Y-96949060D01*
X160927901Y-96950264D01*
X160862527Y-96971926D01*
X160862524Y-96971927D01*
X160855560Y-96974235D01*
X160849316Y-96978087D01*
X160846131Y-96979572D01*
X160845807Y-96979706D01*
X160845485Y-96979886D01*
X160842361Y-96981455D01*
X160835461Y-96983966D01*
X160771776Y-97025852D01*
X160768712Y-97027804D01*
X160710095Y-97063960D01*
X160710092Y-97063963D01*
X160703851Y-97067812D01*
X160698661Y-97073002D01*
X160695922Y-97075168D01*
X160695625Y-97075382D01*
X160695370Y-97075616D01*
X160692668Y-97077883D01*
X160686538Y-97081915D01*
X160660982Y-97109003D01*
X160634213Y-97137376D01*
X160631659Y-97140004D01*
X156621067Y-101150595D01*
X156558755Y-101184621D01*
X156531972Y-101187500D01*
X156334499Y-101187500D01*
X156266378Y-101167498D01*
X156219885Y-101113842D01*
X156208499Y-101061500D01*
X156208499Y-100449456D01*
X156197887Y-100345574D01*
X156142115Y-100177262D01*
X156049030Y-100026348D01*
X155923652Y-99900970D01*
X155911135Y-99893249D01*
X155855999Y-99859241D01*
X155772738Y-99807885D01*
X155709193Y-99786829D01*
X155610952Y-99754275D01*
X155610948Y-99754274D01*
X155604426Y-99752113D01*
X155597592Y-99751415D01*
X155597588Y-99751414D01*
X155503729Y-99741825D01*
X155503723Y-99741825D01*
X155500545Y-99741500D01*
X155137557Y-99741500D01*
X154774456Y-99741501D01*
X154771279Y-99741826D01*
X154771270Y-99741826D01*
X154722533Y-99746805D01*
X154670574Y-99752113D01*
X154502262Y-99807885D01*
X154419001Y-99859241D01*
X154363866Y-99893249D01*
X154351348Y-99900970D01*
X154225970Y-100026348D01*
X154132885Y-100177262D01*
X154077113Y-100345574D01*
X154066500Y-100449455D01*
X154066501Y-101940993D01*
X154066501Y-103313900D01*
X154046499Y-103382021D01*
X153992843Y-103428514D01*
X153940501Y-103439900D01*
X152059500Y-103439900D01*
X151991379Y-103419898D01*
X151944886Y-103366242D01*
X151933500Y-103313900D01*
X151933499Y-100452662D01*
X151933499Y-100449456D01*
X151922887Y-100345574D01*
X151867115Y-100177262D01*
X151774030Y-100026348D01*
X151661905Y-99914223D01*
X151627879Y-99851911D01*
X151625000Y-99825128D01*
X151625000Y-99584500D01*
X151645002Y-99516379D01*
X151698658Y-99469886D01*
X151751000Y-99458500D01*
X152298638Y-99458500D01*
X152301985Y-99458140D01*
X152301988Y-99458140D01*
X152322295Y-99455957D01*
X152359201Y-99451989D01*
X152496204Y-99400889D01*
X152509901Y-99390636D01*
X152606050Y-99318659D01*
X152613261Y-99313261D01*
X152650886Y-99263000D01*
X152695489Y-99203418D01*
X152695490Y-99203416D01*
X152700889Y-99196204D01*
X152751989Y-99059201D01*
X152758500Y-98998638D01*
X152758500Y-97597027D01*
X152778502Y-97528906D01*
X152795405Y-97507932D01*
X153026405Y-97276932D01*
X153088717Y-97242906D01*
X153159532Y-97247971D01*
X153216368Y-97290518D01*
X153241179Y-97357038D01*
X153241500Y-97366027D01*
X153241500Y-98998638D01*
X153248011Y-99059201D01*
X153299111Y-99196204D01*
X153304510Y-99203416D01*
X153304511Y-99203418D01*
X153349114Y-99263000D01*
X153386739Y-99313261D01*
X153393950Y-99318659D01*
X153490100Y-99390636D01*
X153503796Y-99400889D01*
X153640799Y-99451989D01*
X153677705Y-99455957D01*
X153698012Y-99458140D01*
X153698015Y-99458140D01*
X153701362Y-99458500D01*
X156298638Y-99458500D01*
X156301985Y-99458140D01*
X156301988Y-99458140D01*
X156322295Y-99455957D01*
X156359201Y-99451989D01*
X156496204Y-99400889D01*
X156509901Y-99390636D01*
X156606050Y-99318659D01*
X156613261Y-99313261D01*
X156650886Y-99263000D01*
X156695489Y-99203418D01*
X156695490Y-99203416D01*
X156700889Y-99196204D01*
X156751989Y-99059201D01*
X156758500Y-98998638D01*
X156758500Y-98938876D01*
X156778502Y-98870755D01*
X156832158Y-98824262D01*
X156873519Y-98813355D01*
X156877817Y-98812979D01*
X156888798Y-98812500D01*
X156894412Y-98812500D01*
X156925682Y-98808845D01*
X156929328Y-98808472D01*
X157005240Y-98801831D01*
X157012207Y-98799522D01*
X157015648Y-98798812D01*
X157015994Y-98798756D01*
X157016337Y-98798659D01*
X157019750Y-98797850D01*
X157027042Y-98796998D01*
X157033939Y-98794488D01*
X157033946Y-98794486D01*
X157098637Y-98770940D01*
X157102099Y-98769736D01*
X157167473Y-98748074D01*
X157167476Y-98748073D01*
X157174440Y-98745765D01*
X157180684Y-98741913D01*
X157183869Y-98740428D01*
X157184193Y-98740294D01*
X157184515Y-98740114D01*
X157187639Y-98738545D01*
X157194539Y-98736034D01*
X157258224Y-98694148D01*
X157261288Y-98692196D01*
X157319905Y-98656040D01*
X157319908Y-98656037D01*
X157326149Y-98652188D01*
X157331339Y-98646998D01*
X157334078Y-98644832D01*
X157334375Y-98644618D01*
X157334630Y-98644384D01*
X157337332Y-98642117D01*
X157343462Y-98638085D01*
X157395788Y-98582623D01*
X157398341Y-98579996D01*
X161008933Y-94969405D01*
X161071245Y-94935379D01*
X161098028Y-94932500D01*
X161131429Y-94932500D01*
X161142412Y-94932980D01*
G37*
G04 #@! TD.AperFunction*
G04 #@! TA.AperFunction,Conductor*
G36*
X133504139Y-96870330D02*
G01*
X133555433Y-96919416D01*
X133572046Y-96988441D01*
X133548704Y-97055491D01*
X133535295Y-97071313D01*
X133463889Y-97142719D01*
X133460122Y-97148714D01*
X133405666Y-97235380D01*
X133366957Y-97296985D01*
X133306783Y-97468953D01*
X133286384Y-97650000D01*
X133287176Y-97657028D01*
X133287176Y-97657029D01*
X133295540Y-97731258D01*
X133306783Y-97831047D01*
X133366957Y-98003015D01*
X133370721Y-98009005D01*
X133381688Y-98026459D01*
X133401000Y-98093494D01*
X133401000Y-98180076D01*
X133400770Y-98187683D01*
X133398996Y-98217021D01*
X133397151Y-98247515D01*
X133398525Y-98255012D01*
X133398525Y-98255014D01*
X133407956Y-98306479D01*
X133409101Y-98314002D01*
X133416327Y-98373510D01*
X133419031Y-98380638D01*
X133419031Y-98380640D01*
X133419838Y-98382767D01*
X133425964Y-98404740D01*
X133427749Y-98414483D01*
X133430876Y-98421431D01*
X133430878Y-98421437D01*
X133452350Y-98469145D01*
X133455263Y-98476177D01*
X133476520Y-98532227D01*
X133480846Y-98538495D01*
X133480848Y-98538498D01*
X133482151Y-98540386D01*
X133493351Y-98560242D01*
X133497416Y-98569275D01*
X133502116Y-98575274D01*
X133534388Y-98616467D01*
X133538898Y-98622597D01*
X133572948Y-98671927D01*
X133578650Y-98676978D01*
X133578653Y-98676982D01*
X133617814Y-98711675D01*
X133623355Y-98716891D01*
X133718539Y-98812074D01*
X133779596Y-98873131D01*
X133813621Y-98935443D01*
X133816501Y-98962227D01*
X133816501Y-99162264D01*
X133816760Y-99165112D01*
X133816760Y-99165117D01*
X133819117Y-99191053D01*
X133822987Y-99233649D01*
X133824968Y-99240007D01*
X133824969Y-99240011D01*
X133871905Y-99390636D01*
X133874173Y-99397913D01*
X133910582Y-99458140D01*
X133948791Y-99521346D01*
X133966914Y-99589990D01*
X133945049Y-99657536D01*
X133890137Y-99702538D01*
X133876115Y-99707527D01*
X133769012Y-99738643D01*
X133769010Y-99738644D01*
X133761399Y-99740855D01*
X133743545Y-99751414D01*
X133625020Y-99821509D01*
X133625017Y-99821511D01*
X133618193Y-99825547D01*
X133590745Y-99852995D01*
X133528433Y-99887021D01*
X133501650Y-99889900D01*
X133441245Y-99889900D01*
X133373124Y-99869898D01*
X133368785Y-99866814D01*
X133365155Y-99863184D01*
X133217913Y-99774173D01*
X133210639Y-99771906D01*
X133210636Y-99771905D01*
X133060013Y-99724970D01*
X133060012Y-99724970D01*
X133053649Y-99722987D01*
X132982265Y-99716500D01*
X132650059Y-99716500D01*
X132317736Y-99716501D01*
X132314888Y-99716760D01*
X132314883Y-99716760D01*
X132286401Y-99719348D01*
X132216750Y-99705592D01*
X132165593Y-99656363D01*
X132149000Y-99593865D01*
X132149000Y-97156136D01*
X132169002Y-97088015D01*
X132222658Y-97041522D01*
X132286402Y-97030653D01*
X132314883Y-97033241D01*
X132314887Y-97033241D01*
X132317735Y-97033500D01*
X132649941Y-97033500D01*
X132982264Y-97033499D01*
X132985112Y-97033240D01*
X132985117Y-97033240D01*
X133047012Y-97027616D01*
X133053649Y-97027013D01*
X133060007Y-97025032D01*
X133060011Y-97025031D01*
X133210636Y-96978095D01*
X133210639Y-96978094D01*
X133217913Y-96975827D01*
X133324276Y-96911528D01*
X133358631Y-96890760D01*
X133358632Y-96890760D01*
X133365155Y-96886816D01*
X133369231Y-96882740D01*
X133434450Y-96856767D01*
X133504139Y-96870330D01*
G37*
G04 #@! TD.AperFunction*
G04 #@! TA.AperFunction,Conductor*
G36*
X137640760Y-95919671D02*
G01*
X137685820Y-95948631D01*
X138030072Y-96292883D01*
X138037188Y-96300701D01*
X138041174Y-96306983D01*
X138046954Y-96312411D01*
X138046955Y-96312412D01*
X138088947Y-96351845D01*
X138091789Y-96354600D01*
X138110735Y-96373546D01*
X138113874Y-96375981D01*
X138114524Y-96376554D01*
X138122655Y-96383501D01*
X138147759Y-96407074D01*
X138147762Y-96407076D01*
X138153542Y-96412504D01*
X138160487Y-96416322D01*
X138160490Y-96416324D01*
X138170320Y-96421728D01*
X138186847Y-96432584D01*
X138201966Y-96444312D01*
X138240860Y-96461144D01*
X138251483Y-96466348D01*
X138288622Y-96486765D01*
X138296300Y-96488737D01*
X138296304Y-96488738D01*
X138307160Y-96491525D01*
X138325854Y-96497925D01*
X138343434Y-96505532D01*
X138385277Y-96512159D01*
X138396899Y-96514567D01*
X138430241Y-96523128D01*
X138430250Y-96523129D01*
X138437926Y-96525100D01*
X138457064Y-96525100D01*
X138476774Y-96526651D01*
X138495684Y-96529646D01*
X138537860Y-96525659D01*
X138549719Y-96525100D01*
X139612866Y-96525100D01*
X139680987Y-96545102D01*
X139727480Y-96598758D01*
X139737584Y-96669032D01*
X139719553Y-96718136D01*
X139648017Y-96831985D01*
X139587843Y-97003953D01*
X139587051Y-97010980D01*
X139587051Y-97010981D01*
X139578077Y-97090628D01*
X139567444Y-97185000D01*
X139587843Y-97366047D01*
X139648017Y-97538015D01*
X139651782Y-97544007D01*
X139719553Y-97651864D01*
X139738859Y-97720185D01*
X139718164Y-97788098D01*
X139664036Y-97834042D01*
X139612866Y-97844900D01*
X139170678Y-97844900D01*
X139160126Y-97844402D01*
X139152872Y-97842781D01*
X139090761Y-97844733D01*
X139087405Y-97844838D01*
X139083448Y-97844900D01*
X139056617Y-97844900D01*
X139052690Y-97845396D01*
X139051784Y-97845453D01*
X139041140Y-97846292D01*
X138998801Y-97847622D01*
X138980414Y-97852964D01*
X138961057Y-97856972D01*
X138942068Y-97859371D01*
X138902680Y-97874965D01*
X138891457Y-97878807D01*
X138858390Y-97888415D01*
X138858388Y-97888416D01*
X138850774Y-97890628D01*
X138834293Y-97900375D01*
X138816551Y-97909067D01*
X138798746Y-97916116D01*
X138792332Y-97920776D01*
X138764469Y-97941019D01*
X138754549Y-97947535D01*
X138718094Y-97969095D01*
X138704567Y-97982622D01*
X138689533Y-97995463D01*
X138680453Y-98002060D01*
X138674038Y-98006721D01*
X138668985Y-98012829D01*
X138647032Y-98039366D01*
X138639042Y-98048147D01*
X138504192Y-98182996D01*
X138441880Y-98217021D01*
X138415097Y-98219900D01*
X137271388Y-98219900D01*
X137203267Y-98199898D01*
X137163560Y-98159085D01*
X137140760Y-98121369D01*
X137140760Y-98121368D01*
X137136816Y-98114845D01*
X137015155Y-97993184D01*
X136867913Y-97904173D01*
X136860639Y-97901906D01*
X136860636Y-97901905D01*
X136710013Y-97854970D01*
X136710012Y-97854970D01*
X136703649Y-97852987D01*
X136632265Y-97846500D01*
X136375045Y-97846500D01*
X136117736Y-97846501D01*
X136114888Y-97846760D01*
X136114883Y-97846760D01*
X136061210Y-97851637D01*
X136046351Y-97852987D01*
X136039993Y-97854968D01*
X136039989Y-97854969D01*
X135889364Y-97901905D01*
X135889361Y-97901906D01*
X135882087Y-97904173D01*
X135734845Y-97993184D01*
X135639095Y-98088934D01*
X135576783Y-98122960D01*
X135505968Y-98117895D01*
X135460905Y-98088934D01*
X135365155Y-97993184D01*
X135217913Y-97904173D01*
X135210639Y-97901906D01*
X135210636Y-97901905D01*
X135060013Y-97854970D01*
X135060012Y-97854970D01*
X135053649Y-97852987D01*
X135020615Y-97849985D01*
X134954584Y-97823900D01*
X134913138Y-97766256D01*
X134906811Y-97710394D01*
X134909528Y-97686286D01*
X134913616Y-97650000D01*
X134893217Y-97468953D01*
X134833043Y-97296985D01*
X134804484Y-97251534D01*
X134785179Y-97183216D01*
X134805874Y-97115302D01*
X134860001Y-97069359D01*
X134911172Y-97058500D01*
X135266502Y-97058500D01*
X135268950Y-97058307D01*
X135268958Y-97058307D01*
X135297421Y-97056067D01*
X135297426Y-97056066D01*
X135303831Y-97055562D01*
X135406150Y-97025836D01*
X135455988Y-97011357D01*
X135455990Y-97011356D01*
X135463601Y-97009145D01*
X135470425Y-97005109D01*
X135470428Y-97005108D01*
X135475087Y-97002353D01*
X135543904Y-96984894D01*
X135611235Y-97007412D01*
X135628320Y-97021712D01*
X135742719Y-97136111D01*
X135748714Y-97139878D01*
X135780649Y-97159944D01*
X135896985Y-97233043D01*
X136068953Y-97293217D01*
X136075980Y-97294009D01*
X136075981Y-97294009D01*
X136242971Y-97312824D01*
X136250000Y-97313616D01*
X136257029Y-97312824D01*
X136424019Y-97294009D01*
X136424020Y-97294009D01*
X136431047Y-97293217D01*
X136603015Y-97233043D01*
X136719351Y-97159944D01*
X136751286Y-97139878D01*
X136757281Y-97136111D01*
X136886111Y-97007281D01*
X136903325Y-96979886D01*
X136979278Y-96859007D01*
X136983043Y-96853015D01*
X137043217Y-96681047D01*
X137044320Y-96671262D01*
X137062824Y-96507029D01*
X137063616Y-96500000D01*
X137057696Y-96447459D01*
X137044009Y-96325981D01*
X137044009Y-96325980D01*
X137043217Y-96318953D01*
X137028150Y-96275894D01*
X137024532Y-96204991D01*
X137059821Y-96143386D01*
X137122815Y-96110640D01*
X137141099Y-96108500D01*
X137141502Y-96108500D01*
X137143951Y-96108307D01*
X137143957Y-96108307D01*
X137172421Y-96106067D01*
X137172426Y-96106066D01*
X137178831Y-96105562D01*
X137278769Y-96076528D01*
X137330988Y-96061357D01*
X137330990Y-96061356D01*
X137338601Y-96059145D01*
X137367411Y-96042107D01*
X137474980Y-95978491D01*
X137474983Y-95978489D01*
X137481807Y-95974453D01*
X137507631Y-95948629D01*
X137569944Y-95914605D01*
X137640760Y-95919671D01*
G37*
G04 #@! TD.AperFunction*
G04 #@! TA.AperFunction,Conductor*
G36*
X138332962Y-90827354D02*
G01*
X138333515Y-90826207D01*
X138339896Y-90829280D01*
X138345885Y-90833043D01*
X138517853Y-90893217D01*
X138524880Y-90894009D01*
X138524881Y-90894009D01*
X138691871Y-90912824D01*
X138698900Y-90913616D01*
X138705929Y-90912824D01*
X138872912Y-90894010D01*
X138872915Y-90894009D01*
X138879947Y-90893217D01*
X138886089Y-90891068D01*
X138956724Y-90895396D01*
X139013992Y-90937360D01*
X139039481Y-91003623D01*
X139039900Y-91013895D01*
X139039900Y-94224322D01*
X139039402Y-94234874D01*
X139037781Y-94242128D01*
X139038030Y-94250049D01*
X139039838Y-94307595D01*
X139039900Y-94311552D01*
X139039900Y-94338383D01*
X139040396Y-94342310D01*
X139040453Y-94343216D01*
X139041292Y-94353860D01*
X139042622Y-94396199D01*
X139044834Y-94403812D01*
X139047964Y-94414586D01*
X139051972Y-94433943D01*
X139054371Y-94452932D01*
X139057291Y-94460307D01*
X139069964Y-94492318D01*
X139073808Y-94503545D01*
X139083415Y-94536609D01*
X139085628Y-94544225D01*
X139095374Y-94560705D01*
X139104065Y-94578445D01*
X139111116Y-94596254D01*
X139129465Y-94621509D01*
X139136020Y-94630532D01*
X139142536Y-94640452D01*
X139149383Y-94652029D01*
X139164095Y-94676906D01*
X139177622Y-94690433D01*
X139190463Y-94705467D01*
X139201721Y-94720962D01*
X139207829Y-94726015D01*
X139234366Y-94747968D01*
X139243147Y-94755958D01*
X139510084Y-95022896D01*
X139517190Y-95030706D01*
X139521174Y-95036983D01*
X139526952Y-95042409D01*
X139568931Y-95081830D01*
X139571773Y-95084585D01*
X139576993Y-95089805D01*
X139611019Y-95152117D01*
X139605954Y-95222932D01*
X139563407Y-95279768D01*
X139496887Y-95304579D01*
X139487898Y-95304900D01*
X138819902Y-95304900D01*
X138751781Y-95284898D01*
X138730807Y-95267995D01*
X138384920Y-94922108D01*
X138377810Y-94914295D01*
X138373826Y-94908017D01*
X138326069Y-94863170D01*
X138323227Y-94860415D01*
X138304265Y-94841453D01*
X138301138Y-94839027D01*
X138300497Y-94838462D01*
X138292337Y-94831493D01*
X138261458Y-94802496D01*
X138244681Y-94793272D01*
X138228168Y-94782425D01*
X138219302Y-94775548D01*
X138219297Y-94775545D01*
X138213034Y-94770687D01*
X138174150Y-94753861D01*
X138163505Y-94748646D01*
X138126378Y-94728235D01*
X138107838Y-94723475D01*
X138089141Y-94717074D01*
X138071565Y-94709468D01*
X138029722Y-94702841D01*
X138018103Y-94700435D01*
X137977074Y-94689900D01*
X137957936Y-94689900D01*
X137938225Y-94688349D01*
X137919316Y-94685354D01*
X137906199Y-94686594D01*
X137877139Y-94689341D01*
X137865281Y-94689900D01*
X137598350Y-94689900D01*
X137530229Y-94669898D01*
X137509255Y-94652995D01*
X137481807Y-94625547D01*
X137474983Y-94621511D01*
X137474980Y-94621509D01*
X137345427Y-94544892D01*
X137345428Y-94544892D01*
X137338601Y-94540855D01*
X137330990Y-94538644D01*
X137330988Y-94538643D01*
X137278769Y-94523472D01*
X137178831Y-94494438D01*
X137172426Y-94493934D01*
X137172421Y-94493933D01*
X137143958Y-94491693D01*
X137143950Y-94491693D01*
X137141502Y-94491500D01*
X137111100Y-94491500D01*
X137042979Y-94471498D01*
X136996486Y-94417842D01*
X136985100Y-94365500D01*
X136985100Y-93619061D01*
X137005102Y-93550940D01*
X137022005Y-93529966D01*
X137136816Y-93415155D01*
X137225827Y-93267913D01*
X137236904Y-93232367D01*
X137275030Y-93110013D01*
X137275030Y-93110012D01*
X137277013Y-93103649D01*
X137283500Y-93032265D01*
X137283499Y-92367736D01*
X137277013Y-92296351D01*
X137268696Y-92269658D01*
X137228095Y-92139364D01*
X137228094Y-92139361D01*
X137225827Y-92132087D01*
X137136816Y-91984845D01*
X137015155Y-91863184D01*
X136867913Y-91774173D01*
X136860639Y-91771906D01*
X136860636Y-91771905D01*
X136710013Y-91724970D01*
X136710012Y-91724970D01*
X136703649Y-91722987D01*
X136632265Y-91716500D01*
X136375045Y-91716500D01*
X136117736Y-91716501D01*
X136114888Y-91716760D01*
X136114883Y-91716760D01*
X136061210Y-91721637D01*
X136046351Y-91722987D01*
X136039993Y-91724968D01*
X136039989Y-91724969D01*
X135889364Y-91771905D01*
X135889361Y-91771906D01*
X135882087Y-91774173D01*
X135734845Y-91863184D01*
X135639095Y-91958934D01*
X135576783Y-91992960D01*
X135505968Y-91987895D01*
X135460905Y-91958934D01*
X135365155Y-91863184D01*
X135217913Y-91774173D01*
X135210639Y-91771906D01*
X135210636Y-91771905D01*
X135060013Y-91724970D01*
X135060012Y-91724970D01*
X135053649Y-91722987D01*
X134982265Y-91716500D01*
X134725045Y-91716500D01*
X134467736Y-91716501D01*
X134464888Y-91716760D01*
X134464883Y-91716760D01*
X134411210Y-91721637D01*
X134396351Y-91722987D01*
X134389993Y-91724968D01*
X134389989Y-91724969D01*
X134239364Y-91771905D01*
X134239361Y-91771906D01*
X134232087Y-91774173D01*
X134084845Y-91863184D01*
X134079458Y-91868571D01*
X134077565Y-91870054D01*
X134013967Y-91896077D01*
X133942889Y-91904086D01*
X133918953Y-91906783D01*
X133746985Y-91966957D01*
X133740993Y-91970722D01*
X133705602Y-91992960D01*
X133592719Y-92063889D01*
X133463889Y-92192719D01*
X133460122Y-92198714D01*
X133394602Y-92302988D01*
X133366957Y-92346985D01*
X133306783Y-92518953D01*
X133286384Y-92700000D01*
X133306783Y-92881047D01*
X133366957Y-93053015D01*
X133370722Y-93059007D01*
X133398773Y-93103649D01*
X133463889Y-93207281D01*
X133592719Y-93336111D01*
X133645542Y-93369302D01*
X133708378Y-93408785D01*
X133755416Y-93461964D01*
X133766236Y-93532131D01*
X133737403Y-93597009D01*
X133705481Y-93623925D01*
X133691727Y-93632059D01*
X133625020Y-93671509D01*
X133625017Y-93671511D01*
X133618193Y-93675547D01*
X133561948Y-93731792D01*
X133499640Y-93765815D01*
X133428825Y-93760751D01*
X133383761Y-93731790D01*
X133365155Y-93713184D01*
X133330735Y-93692376D01*
X133224437Y-93628117D01*
X133224438Y-93628117D01*
X133217913Y-93624173D01*
X133210639Y-93621906D01*
X133210636Y-93621905D01*
X133060013Y-93574970D01*
X133060012Y-93574970D01*
X133053649Y-93572987D01*
X132982265Y-93566500D01*
X132650059Y-93566500D01*
X132317736Y-93566501D01*
X132314888Y-93566760D01*
X132314883Y-93566760D01*
X132286401Y-93569348D01*
X132216750Y-93555592D01*
X132165593Y-93506363D01*
X132149000Y-93443865D01*
X132149000Y-91106136D01*
X132169002Y-91038015D01*
X132222658Y-90991522D01*
X132286402Y-90980653D01*
X132314883Y-90983241D01*
X132314887Y-90983241D01*
X132317735Y-90983500D01*
X132649941Y-90983500D01*
X132982264Y-90983499D01*
X132985112Y-90983240D01*
X132985117Y-90983240D01*
X133047012Y-90977616D01*
X133053649Y-90977013D01*
X133060007Y-90975032D01*
X133060011Y-90975031D01*
X133210636Y-90928095D01*
X133210639Y-90928094D01*
X133217913Y-90925827D01*
X133365155Y-90836816D01*
X133366051Y-90838298D01*
X133423308Y-90815494D01*
X133473396Y-90822644D01*
X133473622Y-90821765D01*
X133492161Y-90826525D01*
X133510866Y-90832929D01*
X133528434Y-90840531D01*
X133536264Y-90841771D01*
X133536270Y-90841773D01*
X133556359Y-90844955D01*
X133613363Y-90869623D01*
X133618193Y-90874453D01*
X133761399Y-90959145D01*
X133769010Y-90961356D01*
X133769012Y-90961357D01*
X133818537Y-90975745D01*
X133921169Y-91005562D01*
X133927574Y-91006066D01*
X133927579Y-91006067D01*
X133956042Y-91008307D01*
X133956050Y-91008307D01*
X133958498Y-91008500D01*
X135266502Y-91008500D01*
X135268950Y-91008307D01*
X135268958Y-91008307D01*
X135297421Y-91006067D01*
X135297426Y-91006066D01*
X135303831Y-91005562D01*
X135406463Y-90975745D01*
X135455988Y-90961357D01*
X135455990Y-90961356D01*
X135463601Y-90959145D01*
X135519939Y-90925827D01*
X135599980Y-90878491D01*
X135599983Y-90878489D01*
X135606807Y-90874453D01*
X135634255Y-90847005D01*
X135696567Y-90812979D01*
X135723350Y-90810100D01*
X138273071Y-90810100D01*
X138332962Y-90827354D01*
G37*
G04 #@! TD.AperFunction*
G04 #@! TA.AperFunction,Conductor*
G36*
X143541512Y-89720304D02*
G01*
X143548090Y-89726427D01*
X143789210Y-89967548D01*
X144015060Y-90193398D01*
X144027032Y-90207252D01*
X144041569Y-90226779D01*
X144066203Y-90293365D01*
X144066501Y-90302020D01*
X144066501Y-90675544D01*
X144077113Y-90779426D01*
X144093537Y-90828992D01*
X144118654Y-90904791D01*
X144121094Y-90975745D01*
X144088144Y-91033518D01*
X143999106Y-91122556D01*
X143985253Y-91134529D01*
X143965678Y-91149102D01*
X143960964Y-91154720D01*
X143933320Y-91187665D01*
X143925893Y-91195769D01*
X143921927Y-91199735D01*
X143919654Y-91202610D01*
X143902395Y-91224437D01*
X143900082Y-91227275D01*
X143855823Y-91280022D01*
X143855820Y-91280027D01*
X143851104Y-91285647D01*
X143847812Y-91292202D01*
X143845891Y-91295123D01*
X143845675Y-91295423D01*
X143845506Y-91295725D01*
X143843655Y-91298725D01*
X143839105Y-91304480D01*
X143807111Y-91373092D01*
X143806902Y-91373540D01*
X143805304Y-91376839D01*
X143774401Y-91438371D01*
X143774398Y-91438379D01*
X143771106Y-91444934D01*
X143769414Y-91452073D01*
X143768208Y-91455386D01*
X143768077Y-91455702D01*
X143767981Y-91456041D01*
X143766875Y-91459378D01*
X143763775Y-91466027D01*
X143762292Y-91473211D01*
X143762291Y-91473213D01*
X143756107Y-91503163D01*
X143722742Y-91565832D01*
X143660793Y-91600513D01*
X143589928Y-91596198D01*
X143566563Y-91584924D01*
X143485633Y-91535006D01*
X143472421Y-91528845D01*
X143323262Y-91479419D01*
X143309898Y-91476558D01*
X143219529Y-91467325D01*
X143213138Y-91467000D01*
X143098072Y-91467000D01*
X143029951Y-91446998D01*
X142983458Y-91393342D01*
X142973354Y-91323068D01*
X143002848Y-91258488D01*
X143031926Y-91233758D01*
X143042094Y-91227486D01*
X143053532Y-91218442D01*
X143168442Y-91103532D01*
X143177488Y-91092092D01*
X143262808Y-90953767D01*
X143268964Y-90940565D01*
X143320233Y-90785846D01*
X143323092Y-90772488D01*
X143332675Y-90678693D01*
X143333000Y-90672303D01*
X143333000Y-89815528D01*
X143353002Y-89747407D01*
X143406658Y-89700914D01*
X143476932Y-89690810D01*
X143541512Y-89720304D01*
G37*
G04 #@! TD.AperFunction*
G04 #@! TA.AperFunction,Conductor*
G36*
X163010363Y-86382502D02*
G01*
X163047724Y-86419583D01*
X163059278Y-86437268D01*
X163062803Y-86441097D01*
X163062806Y-86441101D01*
X163150755Y-86536638D01*
X163211760Y-86602906D01*
X163215879Y-86606112D01*
X163345536Y-86707029D01*
X163389424Y-86741189D01*
X163394005Y-86743668D01*
X163558419Y-86832644D01*
X163587426Y-86848342D01*
X163800365Y-86921444D01*
X163805499Y-86922301D01*
X163805504Y-86922302D01*
X164017294Y-86957643D01*
X164017296Y-86957643D01*
X164022431Y-86958500D01*
X164247569Y-86958500D01*
X164252704Y-86957643D01*
X164252706Y-86957643D01*
X164464496Y-86922302D01*
X164464501Y-86922301D01*
X164469635Y-86921444D01*
X164682574Y-86848342D01*
X164711582Y-86832644D01*
X164875995Y-86743668D01*
X164880576Y-86741189D01*
X164924465Y-86707029D01*
X165054121Y-86606112D01*
X165058240Y-86602906D01*
X165098474Y-86559201D01*
X165119245Y-86536638D01*
X165180099Y-86500067D01*
X165251063Y-86502202D01*
X165309608Y-86542364D01*
X165330002Y-86577943D01*
X165374111Y-86696204D01*
X165379510Y-86703416D01*
X165379511Y-86703418D01*
X165405390Y-86737988D01*
X165461739Y-86813261D01*
X165468950Y-86818659D01*
X165570705Y-86894832D01*
X165578796Y-86900889D01*
X165715799Y-86951989D01*
X165752705Y-86955957D01*
X165773012Y-86958140D01*
X165773015Y-86958140D01*
X165776362Y-86958500D01*
X165786500Y-86958500D01*
X165854621Y-86978502D01*
X165901114Y-87032158D01*
X165912500Y-87084500D01*
X165912500Y-89732429D01*
X165892498Y-89800550D01*
X165838842Y-89847043D01*
X165768568Y-89857147D01*
X165703988Y-89827653D01*
X165691925Y-89815684D01*
X165545619Y-89649449D01*
X165447441Y-89570175D01*
X165363242Y-89502188D01*
X165363236Y-89502184D01*
X165359076Y-89498825D01*
X165354407Y-89496217D01*
X165354403Y-89496214D01*
X165154439Y-89384509D01*
X165149760Y-89381895D01*
X164923694Y-89302020D01*
X164918422Y-89301116D01*
X164692650Y-89262403D01*
X164692645Y-89262403D01*
X164687381Y-89261500D01*
X162707673Y-89261500D01*
X162705020Y-89261726D01*
X162705015Y-89261726D01*
X162533933Y-89276287D01*
X162533930Y-89276288D01*
X162528602Y-89276741D01*
X162523427Y-89278089D01*
X162523424Y-89278089D01*
X162412589Y-89306948D01*
X162296576Y-89337156D01*
X162078098Y-89435914D01*
X161879453Y-89570175D01*
X161706356Y-89736075D01*
X161647949Y-89815047D01*
X161591363Y-89857919D01*
X161520578Y-89863394D01*
X161457553Y-89829215D01*
X159924405Y-88296067D01*
X159890379Y-88233755D01*
X159887500Y-88206972D01*
X159887500Y-86593661D01*
X159907502Y-86525540D01*
X159961158Y-86479047D01*
X160031432Y-86468943D01*
X160096012Y-86498437D01*
X160102595Y-86504566D01*
X160134845Y-86536816D01*
X160141368Y-86540760D01*
X160141369Y-86540760D01*
X160158915Y-86551367D01*
X160282087Y-86625827D01*
X160289361Y-86628094D01*
X160289364Y-86628095D01*
X160439987Y-86675030D01*
X160446351Y-86677013D01*
X160517735Y-86683500D01*
X160774955Y-86683500D01*
X161032264Y-86683499D01*
X161035112Y-86683240D01*
X161035117Y-86683240D01*
X161097012Y-86677616D01*
X161103649Y-86677013D01*
X161110007Y-86675032D01*
X161110011Y-86675031D01*
X161260636Y-86628095D01*
X161260639Y-86628094D01*
X161267913Y-86625827D01*
X161391085Y-86551367D01*
X161408631Y-86540760D01*
X161408632Y-86540760D01*
X161415155Y-86536816D01*
X161536816Y-86415155D01*
X161539747Y-86410307D01*
X161596820Y-86369506D01*
X161638250Y-86362500D01*
X162942242Y-86362500D01*
X163010363Y-86382502D01*
G37*
G04 #@! TD.AperFunction*
M02*
