%TF.GenerationSoftware,KiCad,Pcbnew,8.0.5*%
%TF.CreationDate,2025-01-12T16:45:05+07:00*%
%TF.ProjectId,ESP32-MODBUS-RS485-SHIELD,45535033-322d-44d4-9f44-4255532d5253,rev?*%
%TF.SameCoordinates,Original*%
%TF.FileFunction,Soldermask,Bot*%
%TF.FilePolarity,Negative*%
%FSLAX46Y46*%
G04 Gerber Fmt 4.6, Leading zero omitted, Abs format (unit mm)*
G04 Created by KiCad (PCBNEW 8.0.5) date 2025-01-12 16:45:05*
%MOMM*%
%LPD*%
G01*
G04 APERTURE LIST*
G04 Aperture macros list*
%AMRoundRect*
0 Rectangle with rounded corners*
0 $1 Rounding radius*
0 $2 $3 $4 $5 $6 $7 $8 $9 X,Y pos of 4 corners*
0 Add a 4 corners polygon primitive as box body*
4,1,4,$2,$3,$4,$5,$6,$7,$8,$9,$2,$3,0*
0 Add four circle primitives for the rounded corners*
1,1,$1+$1,$2,$3*
1,1,$1+$1,$4,$5*
1,1,$1+$1,$6,$7*
1,1,$1+$1,$8,$9*
0 Add four rect primitives between the rounded corners*
20,1,$1+$1,$2,$3,$4,$5,0*
20,1,$1+$1,$4,$5,$6,$7,0*
20,1,$1+$1,$6,$7,$8,$9,0*
20,1,$1+$1,$8,$9,$2,$3,0*%
G04 Aperture macros list end*
%ADD10RoundRect,0.250000X1.550000X-0.650000X1.550000X0.650000X-1.550000X0.650000X-1.550000X-0.650000X0*%
%ADD11O,3.600000X1.800000*%
%ADD12R,1.700000X1.700000*%
%ADD13O,1.700000X1.700000*%
G04 APERTURE END LIST*
D10*
%TO.C,J9*%
X163667500Y-97670000D03*
D11*
X163667500Y-94170000D03*
X163667500Y-90670000D03*
%TD*%
D12*
%TO.C,J1*%
X121490000Y-106925000D03*
D13*
X124030000Y-106925000D03*
X126570000Y-106925000D03*
X129110000Y-106925000D03*
X131650000Y-106925000D03*
X134190000Y-106925000D03*
X136730000Y-106925000D03*
X139270000Y-106925000D03*
X141810000Y-106925000D03*
X144350000Y-106925000D03*
X146890000Y-106925000D03*
X149430000Y-106925000D03*
X151970000Y-106925000D03*
X154510000Y-106925000D03*
X157050000Y-106925000D03*
X159590000Y-106925000D03*
X162130000Y-106925000D03*
X164670000Y-106925000D03*
X167210000Y-106925000D03*
%TD*%
D12*
%TO.C,J10*%
X166675000Y-85600000D03*
D13*
X164135000Y-85600000D03*
%TD*%
D12*
%TO.C,J2*%
X121500000Y-81500000D03*
D13*
X124040000Y-81500000D03*
X126580000Y-81500000D03*
X129120000Y-81500000D03*
X131660000Y-81500000D03*
X134200000Y-81500000D03*
X136740000Y-81500000D03*
X139280000Y-81500000D03*
X141820000Y-81500000D03*
X144360000Y-81500000D03*
X146900000Y-81500000D03*
X149440000Y-81500000D03*
X151980000Y-81500000D03*
X154520000Y-81500000D03*
X157060000Y-81500000D03*
X159600000Y-81500000D03*
X162140000Y-81500000D03*
X164680000Y-81500000D03*
X167220000Y-81500000D03*
%TD*%
M02*
