M48
; DRILL file {KiCad 8.0.5} date 2025-01-12T16:45:05+0700
; FORMAT={-:-/ absolute / inch / decimal}
; #@! TF.CreationDate,2025-01-12T16:45:05+07:00
; #@! TF.GenerationSoftware,Kicad,Pcbnew,8.0.5
; #@! TF.FileFunction,Plated,1,2,PTH
FMAT,2
INCH
; #@! TA.AperFunction,Plated,PTH,ViaDrill
T1C0.0118
; #@! TA.AperFunction,Plated,PTH,ViaDrill
T2C0.0157
; #@! TA.AperFunction,Plated,PTH,ComponentDrill
T3C0.0394
; #@! TA.AperFunction,Plated,PTH,ComponentDrill
T4C0.0472
%
G90
G05
T1
X5.2185Y-4.1083
X5.2224Y-3.8366
X5.2224Y-3.9016
X5.2264Y-3.6614
X5.2283Y-3.6083
X5.2795Y-3.4134
X5.2795Y-3.6496
X5.2795Y-3.8445
X5.311Y-4.1083
X5.3287Y-3.8386
X5.3504Y-3.5965
X5.3642Y-3.7992
X5.3957Y-3.5965
X5.4173Y-4.0276
X5.4587Y-3.8091
X5.4587Y-3.8504
X5.4606Y-3.5472
X5.4685Y-4.0531
X5.4724Y-3.7382
X5.5039Y-3.9508
X5.5138Y-3.4173
X5.5472Y-3.6398
X5.5492Y-3.5315
X5.5669Y-4.0531
X5.7244Y-3.9862
X5.7756Y-3.6319
X5.8169Y-3.9862
X5.8189Y-3.5
X5.8622Y-3.6319
X6.0236Y-3.9665
X6.0236Y-4.063
X6.0256Y-3.6319
X6.2244Y-3.7028
X6.2323Y-4.0433
X6.3307Y-3.4823
X6.3307Y-3.9528
X6.3366Y-3.7835
X6.3583Y-3.5079
X6.5138Y-3.6378
T2
X5.7874Y-3.4134
X5.8287Y-3.4134
T3
X4.7831Y-4.2096
X4.7835Y-3.2087
X4.8831Y-4.2096
X4.8835Y-3.2087
X4.9831Y-4.2096
X4.9835Y-3.2087
X5.0831Y-4.2096
X5.0835Y-3.2087
X5.1831Y-4.2096
X5.1835Y-3.2087
X5.2831Y-4.2096
X5.2835Y-3.2087
X5.3831Y-4.2096
X5.3835Y-3.2087
X5.4831Y-4.2096
X5.4835Y-3.2087
X5.5831Y-4.2096
X5.5835Y-3.2087
X5.6831Y-4.2096
X5.6835Y-3.2087
X5.7831Y-4.2096
X5.7835Y-3.2087
X5.8831Y-4.2096
X5.8835Y-3.2087
X5.9831Y-4.2096
X5.9835Y-3.2087
X6.0831Y-4.2096
X6.0835Y-3.2087
X6.1831Y-4.2096
X6.1835Y-3.2087
X6.2831Y-4.2096
X6.2835Y-3.2087
X6.3831Y-4.2096
X6.3835Y-3.2087
X6.462Y-3.3701
X6.4831Y-4.2096
X6.4835Y-3.2087
X6.562Y-3.3701
X6.5831Y-4.2096
X6.5835Y-3.2087
T4
X6.4436Y-3.5697
X6.4436Y-3.7075
X6.4436Y-3.8453
M30
